<svg xmlns="http://www.w3.org/2000/svg" width="164.746" height="270.566" viewBox="0 0 164.746 270.566"><g transform="translate(-1878.25 -713.363)"><path d="M1882.58,803.76" fill="none" stroke="#000" stroke-miterlimit="10" stroke-width="4"/><path d="M2019.35,731.44c3.95-7.3,17.75-8.38,21.07,1.69,3.32,10.05-19.11,37.61-24.94,39.53l-.9.49c-3.25-5.58-6.97-11.3-10.93-16.83l1.27-.68S2015.54,738.49,2019.35,731.44Z" fill="#cbbba0"/><path d="M1915.87,769.87a34.066,34.066,0,0,0,3.53,8.8l-.1.06c3.03,6.4,4.28,39.56-9.55,46.83-11.37,5.97-32.96-4.6-29.79-46.91a75.026,75.026,0,0,1,10.67-33.39,62.708,62.708,0,0,1,60.89-30.06c7.95.96,16.07,3.52,23.03,8.91,9.02,6.97,19.75,19.09,29.11,32.22,3.96,5.53,7.68,11.25,10.93,16.83,8.82,15.19,14.17,29.39,11.43,36.33-5.71,14.45-27.31,18.15-38.18,7.45a27.38,27.38,0,0,0-2.26-2.63c-9.83-13.82-8.74-46.89-14.95-49.81,0,0-.25,35.62-31.93,28.32a29.693,29.693,0,0,1-11.85-5.56c-.34-.25-.65-.53-.97-.8C1920.75,782.01,1917.68,776.02,1915.87,769.87Zm34.68-11.47a3.275,3.275,0,0,0-2.92-5.03l-2.45.02-2.46.02a3.467,3.467,0,0,0-3.16,5.08l1.17,2.02,1.17,2.04a3.6,3.6,0,0,0,6.09-.05l1.28-2.05Zm-19.98-12.61c.03-1.57-.59-2.82-1.37-2.81s-1.42,1.3-1.45,2.87.61,2.83,1.39,2.81S1930.55,747.37,1930.57,745.79Z" fill="#cbbba0"/><path d="M2015.51,967.8c-.91.21-1.43.37-1.43.37l-.43.44a7.227,7.227,0,0,1-2.04-2.86c-3.02-8-8.15-36.18-9.32-39.75s-17.91-35.83-17.91-35.83l-.13-.25a25.974,25.974,0,0,0,8.18-6.76,27.675,27.675,0,0,0,3.2-4.9c1.1,2.79,30.78,78,35.96,80.16,4.75,1.99,12.31,8.81,9.22,11.99l-.02-.01c-.41-.29-.81-.56-1.24-.81C2031.37,964.67,2019.57,966.84,2015.51,967.8Z" fill="#cbbba0"/><path d="M2040.81,970.41l.02.01a4.091,4.091,0,0,1-1.52.95c-5.54,2.14-19.89,2.37-25.65-2.75l.43-.44s.52-.16,1.43-.37l24.01,1.86.04-.07C2040,969.85,2040.4,970.12,2040.81,970.41Z" fill="#e99ca7"/><path d="M2039.56,969.6l-.04.07-24.01-1.86C2019.57,966.84,2031.37,964.67,2039.56,969.6Z" fill="#e99ca7"/><path d="M1995.64,878.27a28.046,28.046,0,0,1-3.2,4.9,25.729,25.729,0,0,1-8.18,6.76,22.291,22.291,0,0,1-5.34,2c-5.88,1.44-13.37.97-22.86-3-2.3-.98-4.73-2.15-7.28-3.55-4.69,5.51-13.86,5.91-21.14-4.9a30.386,30.386,0,0,1-3.4-8.01c-.12-.4-.24-.8-.34-1.22-.33-1.19-.63-2.44-.92-3.73-.13-.59-.27-1.18-.38-1.79-.13-.57-.25-1.16-.35-1.75-.11-.57-.21-1.13-.31-1.7-.05-.29-.1-.58-.15-.86-.41-2.41-.78-4.86-1.1-7.26q-.1-.7-.18-1.41c-.16-1.3-.31-2.6-.46-3.84-.04-.39-.08-.79-.12-1.17-.09-.84-.18-1.65-.25-2.45a109.743,109.743,0,0,1,.38-24.3c.3-2.4.65-5.03,1.02-7.75.06-.45.13-.91.19-1.36.6-4.15,1.25-8.4,1.94-12.18.12-.63.23-1.24.34-1.82a61.273,61.273,0,0,1,2.11-8.48c.05-.16.12-.32.17-.46s.12-.28.18-.41a6.672,6.672,0,0,1,.34-.66c.05-.07.09-.14.13-.2a1.18,1.18,0,0,1,.17-.2.815.815,0,0,1,.22-.2,29.629,29.629,0,0,0,11.85,5.56c31.68,7.3,31.93-28.32,31.93-28.32,6.21,2.92,5.12,35.99,14.95,49.81a18.509,18.509,0,0,0,2.26,2.63c9.57,12.64,11.13,35.37,11.28,46.57A31.151,31.151,0,0,1,1995.64,878.27Zm-8.63-32.64c-3.2-13.24-17.96-28.67-25.7-35.03a5.223,5.223,0,0,0-7.78,1.51c-8.5,15.5-14.38,70.01,11.1,68.13C1989.78,878.38,1991.2,862.96,1987.01,845.63Z" fill="#cbbba0"/><path d="M1961.31,810.61c7.75,6.35,22.5,21.78,25.7,35.03,4.18,17.33,2.77,32.75-22.38,34.61-25.48,1.88-19.61-52.63-11.1-68.13A5.223,5.223,0,0,1,1961.31,810.61Zm10.5,51.48a2.114,2.114,0,1,0-1.37,2.55A2.034,2.034,0,0,0,1971.81,862.09Z" fill="#e99ca7"/><path d="M1947.63,753.37a3.277,3.277,0,0,1,2.92,5.03l-1.28,2.05-1.28,2.05a3.6,3.6,0,0,1-6.09.05l-1.17-2.04-1.17-2.02a3.469,3.469,0,0,1,3.16-5.08l2.46-.02Z" fill="#e99ca7"/><path d="M1969.18,860.85a2.01,2.01,0,1,1-1.38,2.58A2.05,2.05,0,0,1,1969.18,860.85Z" fill="#7b6a58"/><path d="M1929.19,742.98c.78-.01,1.4,1.25,1.37,2.81-.01,1.57-.66,2.85-1.43,2.87s-1.4-1.25-1.39-2.81C1927.77,744.28,1928.42,743,1929.19,742.98Z"/><path d="M1978.91,891.93l.1.39s-4.03,14.27-4.74,21.35c-.69,7.08,4.18,35.69,6.73,50.32a12.9,12.9,0,0,1-1.73,9.68l-.77-.26c-6.95-3.27-19.23,3.49-22.39,5.36-.32.19-.55.34-.67.4a6.782,6.782,0,0,1,2.15-7.81c5.08-4.19,6.45-27.68,7.12-33.66.69-5.98-8.89-48.31-8.89-48.31l.22-.45C1965.54,892.9,1973.03,893.37,1978.91,891.93Z" fill="#cbbba0"/><path d="M1926.85,787.26a.968.968,0,0,0-.22.2A.679.679,0,0,1,1926.85,787.26Z" fill="#cbbba0"/><path d="M1926.46,787.65c-.04.06-.08.12-.13.2C1926.38,787.77,1926.42,787.71,1926.46,787.65Z" fill="#cbbba0"/><path d="M1925.99,788.51c-.06.13-.12.26-.18.41C1925.87,788.77,1925.93,788.64,1925.99,788.51Z" fill="#cbbba0"/><path d="M1925.81,788.91c-.06.14-.12.31-.17.46A3.593,3.593,0,0,1,1925.81,788.91Z" fill="#cbbba0"/><path d="M1923.53,797.86c-.12.59-.23,1.2-.34,1.82C1923.29,799.07,1923.42,798.46,1923.53,797.86Z" fill="#cbbba0"/><path d="M1978.51,973.39l.77.26c-4.31,6.52-14.41,8.32-18.36,8.84a5.1,5.1,0,0,1-5.46-3.34c.11-.06.34-.21.67-.4l.12.2Z" fill="#e99ca7"/><path d="M1978.51,973.39l-22.27,5.56-.12-.2C1959.28,976.88,1971.56,970.13,1978.51,973.39Z" fill="#e99ca7"/><path d="M1921.06,813.23c.06-.45.13-.91.19-1.36C1921.19,812.32,1921.12,812.78,1921.06,813.23Z" fill="#cbbba0"/><path d="M1918.71,832.36s.51-4.85,1.33-11.38a110.353,110.353,0,0,0-.38,24.3C1918.95,837.88,1918.71,832.36,1918.71,832.36Z" fill="#cbbba0"/><path d="M1920.03,848.9c-.04-.39-.08-.79-.12-1.17Z" fill="#cbbba0"/><path d="M1920.49,852.74c.05.47.12.94.18,1.41C1920.61,853.69,1920.55,853.21,1920.49,852.74Z" fill="#cbbba0"/><path d="M1921.77,861.41c.05.28.1.57.15.86C1921.87,861.98,1921.82,861.7,1921.77,861.41Z" fill="#cbbba0"/><path d="M1922.23,863.98c.1.58.22,1.17.35,1.75C1922.45,865.15,1922.35,864.57,1922.23,863.98Z" fill="#cbbba0"/><path d="M1922.58,865.72c.11.61.25,1.21.38,1.79C1922.83,866.93,1922.71,866.33,1922.58,865.72Z" fill="#cbbba0"/><path d="M1923.89,871.25c.11.41.23.82.34,1.22C1924.12,872.07,1924,871.66,1923.89,871.25Z" fill="#cbbba0"/><path d="M1925.87,786.46a30.412,30.412,0,0,1-6.48-7.79,34.066,34.066,0,0,1-3.53-8.8c-2.22-8.79-1.14-17.44-.7-21.82" fill="none" stroke="#a48a7b" stroke-linecap="round" stroke-linejoin="round" stroke-miterlimit="10" stroke-width="2.734"/><path d="M1987.83,816.94a27.38,27.38,0,0,0-2.26-2.63" fill="none" stroke="#a48a7b" stroke-linecap="round" stroke-linejoin="round" stroke-miterlimit="10" stroke-width="2.734"/><path d="M1926.63,787.45a.815.815,0,0,1,.22-.2" fill="none" stroke="#a48a7b" stroke-linecap="round" stroke-linejoin="round" stroke-miterlimit="10" stroke-width="2.734"/><path d="M1926.33,787.85c.05-.07.09-.14.13-.2" fill="none" stroke="#a48a7b" stroke-linecap="round" stroke-linejoin="round" stroke-miterlimit="10" stroke-width="2.734"/><path d="M1925.64,789.38c.05-.16.12-.32.17-.46s.12-.28.18-.41" fill="none" stroke="#a48a7b" stroke-linecap="round" stroke-linejoin="round" stroke-miterlimit="10" stroke-width="2.734"/><path d="M1923.19,799.68c.11-.61.23-1.23.34-1.82" fill="none" stroke="#a48a7b" stroke-linecap="round" stroke-linejoin="round" stroke-miterlimit="10" stroke-width="2.734"/><path d="M1921.06,813.23c.06-.45.13-.91.19-1.36" fill="none" stroke="#a48a7b" stroke-linecap="round" stroke-linejoin="round" stroke-miterlimit="10" stroke-width="2.734"/><path d="M1919.66,845.28c-.71-7.4-.95-12.92-.95-12.92s.51-4.85,1.33-11.38" fill="none" stroke="#a48a7b" stroke-linecap="round" stroke-linejoin="round" stroke-miterlimit="10" stroke-width="2.734"/><path d="M1920.03,848.9c-.04-.39-.08-.79-.12-1.17" fill="none" stroke="#a48a7b" stroke-linecap="round" stroke-linejoin="round" stroke-miterlimit="10" stroke-width="2.734"/><path d="M1920.67,854.15c-.07-.47-.12-.94-.18-1.41" fill="none" stroke="#a48a7b" stroke-linecap="round" stroke-linejoin="round" stroke-miterlimit="10" stroke-width="2.734"/><path d="M1921.92,862.27c-.05-.29-.1-.58-.15-.86" fill="none" stroke="#a48a7b" stroke-linecap="round" stroke-linejoin="round" stroke-miterlimit="10" stroke-width="2.734"/><path d="M1922.97,867.52c-.13-.59-.26-1.19-.38-1.79-.13-.57-.23-1.16-.35-1.75" fill="none" stroke="#a48a7b" stroke-linecap="round" stroke-linejoin="round" stroke-miterlimit="10" stroke-width="2.734"/><path d="M1924.23,872.46c-.12-.4-.24-.8-.34-1.22" fill="none" stroke="#a48a7b" stroke-linecap="round" stroke-linejoin="round" stroke-miterlimit="10" stroke-width="2.734"/><path d="M1915.73,769.39c.05.15.09.32.14.47,1.81,6.15,4.88,12.14,10,16.59.33.27.64.55.97.8a29.629,29.629,0,0,0,11.85,5.56c31.68,7.3,31.93-28.32,31.93-28.32,6.21,2.92,5.12,35.99,14.95,49.81a18.509,18.509,0,0,0,2.26,2.63c10.87,10.7,32.47,7,38.18-7.45,2.74-6.94-2.62-21.14-11.43-36.33-3.25-5.58-6.97-11.3-10.93-16.83-9.36-13.13-20.09-25.25-29.11-32.22-6.96-5.39-15.08-7.95-23.03-8.91a62.716,62.716,0,0,0-60.89,30.06,75.026,75.026,0,0,0-10.67,33.39c-3.17,42.32,18.42,52.88,29.79,46.91,13.82-7.27,12.58-40.43,9.55-46.83" fill="none" stroke="#a48a7b" stroke-linecap="round" stroke-linejoin="round" stroke-miterlimit="10" stroke-width="2.734"/><path d="M1948.77,885.38c2.55,1.4,4.98,2.57,7.28,3.55,9.49,3.97,16.98,4.44,22.86,3a22.72,22.72,0,0,0,5.34-2,25.974,25.974,0,0,0,8.18-6.76,27.675,27.675,0,0,0,3.2-4.9,30.786,30.786,0,0,0,3.47-14.76c-.15-11.2-1.71-33.93-11.28-46.57" fill="none" stroke="#a48a7b" stroke-linecap="round" stroke-linejoin="round" stroke-miterlimit="10" stroke-width="2.734"/><path d="M2004.92,755.64s10.62-17.15,14.43-24.19c3.95-7.3,17.75-8.38,21.07,1.69,3.32,10.05-19.11,37.61-24.94,39.53" fill="none" stroke="#a48a7b" stroke-linecap="round" stroke-linejoin="round" stroke-miterlimit="10" stroke-width="2.734"/><path d="M1979.28,973.66a12.882,12.882,0,0,0,1.73-9.68c-2.55-14.64-7.43-43.24-6.73-50.32s4.74-21.35,4.74-21.35" fill="none" stroke="#a48a7b" stroke-linecap="round" stroke-linejoin="round" stroke-miterlimit="10" stroke-width="2.734"/><path d="M1955.45,979.16a5.1,5.1,0,0,0,5.46,3.34c3.95-.52,14.05-2.31,18.36-8.84" fill="none" stroke="#c69191" stroke-linecap="round" stroke-linejoin="round" stroke-miterlimit="10" stroke-width="2.734"/><path d="M1955.83,889.38s9.58,42.32,8.89,48.31c-.67,5.98-2.04,29.48-7.12,33.66a6.768,6.768,0,0,0-2.15,7.81" fill="none" stroke="#a48a7b" stroke-linecap="round" stroke-linejoin="round" stroke-miterlimit="10" stroke-width="2.734"/><path d="M2013.65,968.61a7.227,7.227,0,0,1-2.04-2.86c-3.02-8-8.15-36.18-9.32-39.75s-17.91-35.83-17.91-35.83" fill="none" stroke="#a48a7b" stroke-linecap="round" stroke-linejoin="round" stroke-miterlimit="10" stroke-width="2.734"/><path d="M2040.82,970.42a4.091,4.091,0,0,1-1.52.95c-5.54,2.14-19.89,2.37-25.65-2.75" fill="none" stroke="#c69191" stroke-linecap="round" stroke-linejoin="round" stroke-miterlimit="10" stroke-width="2.734"/><path d="M1995.62,878.19s.01.03.03.08c1.1,2.79,30.78,78,35.96,80.16,4.75,1.99,12.31,8.81,9.22,11.99" fill="none" stroke="#a48a7b" stroke-linecap="round" stroke-linejoin="round" stroke-miterlimit="10" stroke-width="2.734"/><path d="M1961.31,810.61c7.75,6.35,22.5,21.78,25.7,35.03,4.18,17.33,2.77,32.75-22.38,34.61-25.48,1.88-19.61-52.63-11.1-68.13A5.223,5.223,0,0,1,1961.31,810.61Z" fill="none" stroke="#c69191" stroke-linecap="round" stroke-linejoin="round" stroke-miterlimit="10" stroke-width="2.734"/><path d="M1945.5,765.23l-1.39,9.41c-.13.98-.32,1.59-1.31,1.37-4.4-1.18-13.24-2.66-14.72-10.73" fill="none" stroke="#634e42" stroke-linecap="round" stroke-linejoin="round" stroke-miterlimit="10" stroke-width="2.734"/><path d="M1958.62,767.91c-2.84,5.24-7.94,7.86-14.13,8.4" fill="none" stroke="#634e42" stroke-linecap="round" stroke-linejoin="round" stroke-miterlimit="10" stroke-width="2.734"/><path d="M1924.91,731.48s3.17-3.93,5.86-4.47" fill="none" stroke="#634e42" stroke-linecap="round" stroke-linejoin="round" stroke-miterlimit="10" stroke-width="2.734"/><path d="M1962.04,729.72s4.57,1.38,4.49,4.95" fill="none" stroke="#634e42" stroke-linecap="round" stroke-linejoin="round" stroke-miterlimit="10" stroke-width="2.734"/><path d="M1941.91,762.54l-1.17-2.04-1.17-2.02a3.469,3.469,0,0,1,3.16-5.08l2.46-.02,2.45-.02a3.277,3.277,0,0,1,2.92,5.03l-1.28,2.05-1.28,2.05A3.6,3.6,0,0,1,1941.91,762.54Z" fill="none" stroke="#c69191" stroke-linecap="round" stroke-linejoin="round" stroke-miterlimit="10" stroke-width="2.734"/><path d="M1955.35,979.22a.719.719,0,0,1,.1-.06c.11-.06.34-.21.67-.4,3.17-1.87,15.45-8.63,22.39-5.36" fill="none" stroke="#c69191" stroke-linecap="round" stroke-linejoin="round" stroke-miterlimit="10" stroke-width="2.734"/><path d="M2014.08,968.18s.52-.16,1.43-.37c4.06-.96,15.85-3.13,24.05,1.8a13.233,13.233,0,0,1,1.24.81" fill="none" stroke="#c69191" stroke-linecap="round" stroke-miterlimit="10" stroke-width="2.734"/><path d="M1926.85,787.26a.968.968,0,0,0-.22.2,1.18,1.18,0,0,0-.17.2c-.04.06-.08.12-.13.2a6.672,6.672,0,0,0-.34.66c-.06.13-.12.26-.18.41a3.135,3.135,0,0,0-.17.46,61.273,61.273,0,0,0-2.11,8.48c-.12.59-.23,1.2-.34,1.82-.69,3.79-1.34,8.04-1.94,12.18-.06.45-.13.91-.19,1.36-.38,2.72-.72,5.35-1.02,7.75a110.353,110.353,0,0,0-.38,24.3c.07.8.16,1.61.25,2.45q.06.57.12,1.17c.14,1.24.29,2.54.46,3.84.05.47.12.94.18,1.41.32,2.4.68,4.85,1.1,7.26.05.29.1.57.15.86.1.57.2,1.14.31,1.7.1.58.22,1.17.35,1.75.11.61.25,1.21.38,1.79.29,1.29.59,2.54.92,3.73.11.41.23.82.34,1.22a30.057,30.057,0,0,0,3.4,8.01c7.28,10.81,16.45,10.41,21.14,4.9-18.34-13.31-16.72-53.47-16.72-53.47" fill="none" stroke="#a48a7b" stroke-linecap="round" stroke-linejoin="round" stroke-miterlimit="10" stroke-width="2.734"/><path d="M1960.44,747.47c.01,1.56-.58,2.83-1.32,2.83s-1.36-1.26-1.36-2.81c0-1.57.59-2.83,1.33-2.84C1959.83,744.66,1960.44,745.92,1960.44,747.47Z"/><ellipse cx="4.87" cy="5.53" rx="4.87" ry="5.53" transform="matrix(0.95, -0.313, 0.313, 0.95, 1957.894, 758.08)" fill="#e99ca7"/><ellipse cx="4.87" cy="5.53" rx="4.87" ry="5.53" transform="matrix(0.95, -0.313, 0.313, 0.95, 1917.282, 755.27)" fill="#e99ca7"/><path d="M1957.19,892.24s11.02,5.47,19.13,2.79" fill="none" stroke="#a48a7b" stroke-linecap="round" stroke-linejoin="round" stroke-miterlimit="10" stroke-width="4"/><path d="M1987.37,891.32s7.95-4.72,8.76-7.78" fill="none" stroke="#a48a7b" stroke-linecap="round" stroke-linejoin="round" stroke-miterlimit="10" stroke-width="4.873"/><path d="M1970.5,766.77s6.49,17.49,7.31,23.03" fill="none" stroke="#a48a7b" stroke-linecap="round" stroke-miterlimit="10" stroke-width="3"/></g></svg>