<svg xmlns="http://www.w3.org/2000/svg" width="496.08" height="409.124" viewBox="0 0 496.08 409.124"><g transform="translate(4789.869 -287.124)"><rect width="143.747" height="252.615" transform="translate(-4470.905 442.633)" fill="#fff"/><rect width="143.747" height="239.857" transform="translate(-4789.869 455.391)" fill="#fff"/><rect width="29.772" height="252.615" transform="translate(-4466.648 442.633)" fill="#efefef"/><path d="M95.06,162.078,124.8,161.04l8.4,239.616-29.741,1.038Z" transform="translate(-4775.127 293.9)" fill="#efefef"/><path d="M5.626,408.356-5.9,124.563-9.68,31.493s99.853-34.783,224.96,0c.063,1.017-9.571,376.863-9.571,376.863Z" transform="translate(-4664.948 286.893)" fill="#fff"/><rect width="29.772" height="49.334" transform="translate(-4656.136 359.176)" fill="#ffc626"/><rect width="29.772" height="49.334" transform="translate(-4603.405 359.176)" fill="#ffc626"/><rect width="29.772" height="49.334" transform="translate(-4550.664 359.176)" fill="#ffc626"/><rect width="29.772" height="49.334" transform="translate(-4497.933 360.884)" fill="#ffc626"/><rect width="29.772" height="36.576" transform="translate(-4647.382 427.107)" fill="#ffc626"/><rect width="29.772" height="36.576" transform="translate(-4647.823 478.349)" fill="#ffc626"/><rect width="29.772" height="36.576" transform="translate(-4645.495 533.219)" fill="#ffc626"/><rect width="29.772" height="36.576" transform="translate(-4601.749 427.107)" fill="#ffc626"/><rect width="29.772" height="36.576" transform="translate(-4602.189 478.349)" fill="#ffc626"/><rect width="29.772" height="36.576" transform="translate(-4599.852 533.219)" fill="#ffc626"/><rect width="29.772" height="36.576" transform="translate(-4556.104 427.107)" fill="#ffc626"/><rect width="29.772" height="36.576" transform="translate(-4556.545 478.349)" fill="#ffc626"/><rect width="29.772" height="36.576" transform="translate(-4554.218 533.219)" fill="#ffc626"/><rect width="29.772" height="36.576" transform="translate(-4510.471 428.805)" fill="#ffc626"/><rect width="29.772" height="36.576" transform="translate(-4510.911 480.058)" fill="#ffc626"/><rect width="29.772" height="36.576" transform="translate(-4508.573 534.917)" fill="#ffc626"/><rect width="75.7" height="72.303" transform="translate(-4601.896 622.945)" fill="#d8d8d8"/><rect width="21.26" height="47.636" transform="translate(-4777.11 472.395)" fill="#ffc626"/><rect width="21.26" height="47.636" transform="translate(-4777.11 537.894)" fill="#ffc626"/><rect width="21.26" height="47.636" transform="translate(-4777.11 603.383)" fill="#ffc626"/><rect width="21.26" height="47.636" transform="translate(-4745.64 472.395)" fill="#ffc626"/><rect width="21.26" height="47.636" transform="translate(-4745.64 537.894)" fill="#ffc626"/><rect width="21.26" height="47.636" transform="translate(-4745.64 603.383)" fill="#ffc626"/><rect width="21.26" height="47.636" transform="translate(-4714.169 472.395)" fill="#ffc626"/><rect width="21.26" height="47.636" transform="translate(-4714.169 537.894)" fill="#ffc626"/><rect width="21.26" height="47.636" transform="translate(-4714.169 603.383)" fill="#ffc626"/><rect width="21.26" height="47.636" transform="translate(-4426.676 463.044)" fill="#ffc626"/><rect width="21.26" height="47.636" transform="translate(-4426.676 533.219)" fill="#ffc626"/><rect width="21.26" height="47.636" transform="translate(-4426.676 603.383)" fill="#ffc626"/><rect width="21.26" height="47.636" transform="translate(-4395.205 463.044)" fill="#ffc626"/><rect width="21.26" height="47.636" transform="translate(-4395.205 533.219)" fill="#ffc626"/><rect width="21.26" height="47.636" transform="translate(-4395.205 603.383)" fill="#ffc626"/><rect width="21.26" height="47.636" transform="translate(-4363.734 463.044)" fill="#ffc626"/><rect width="21.26" height="47.636" transform="translate(-4363.734 533.219)" fill="#ffc626"/><rect width="21.26" height="47.636" transform="translate(-4363.734 603.383)" fill="#ffc626"/><path d="M10,0h3.44L7.12-13.2H6.38L.18,0H3.62l.62-1.38H9.36ZM5.46-4.08l1.3-2.84L8.08-4.08ZM19.58-2.96l5.52-9.32v-.92H14.48v2.94h5.5L14.32-.94V0H25.16V-2.96ZM36.36.26c3.58,0,5.62-1.88,5.62-4.2,0-4.74-7-3.86-7-5.78,0-.52.58-.74,1.22-.74a1.973,1.973,0,0,1,2.14,1.68l3.34-.9c-.34-2.98-2.86-3.78-5.02-3.78-2.7,0-5.44,1.26-5.44,4.32,0,4.74,7,4.26,7,5.72,0,.5-.56.68-1.32.68-1.28,0-2.26-.52-2.48-1.62l-3.54.94C31.3-.82,33.42.26,36.36.26ZM43.86,0h3.66V-13.2H43.86ZM58.78-13.2v6.64L51.54-13.2H50.08V0h3.48V-6.56L60.76,0h1.46V-13.2Zm16.42,0H63.8v2.94h3.88V0h3.64V-10.26H75.2ZM84.78-2.96V-13.2H81.12V0h8.22V-2.96Zm12,3.22c4.04,0,6.04-2.08,6.04-5.76v-7.7H99.16v7.34c0,2.32-.86,3.1-2.28,3.1-1.4,0-2.36-.78-2.36-3.16V-13.2H90.86v7.74C90.86-1.74,92.82.26,96.78.26Zm14.68,0a8.113,8.113,0,0,0,4.92-1.38l-.52-2.78a6.53,6.53,0,0,1-3.74,1.14c-2.58,0-3.74-1.56-3.74-4.12,0-2.32,1.2-3.58,2.94-3.58a2.162,2.162,0,0,1,2.26,1.56l3.08-.9c-.42-2.4-2.36-3.66-5.32-3.66-3.62,0-6.72,1.92-6.72,6.78C104.62-1.92,107.24.26,111.46.26ZM127.06,0h3.44l-6.32-13.2h-.74L117.24,0h3.44l.62-1.38h5.12Zm-4.54-4.08,1.3-2.84,1.32,2.84ZM136.36.26c3.58,0,5.62-1.88,5.62-4.2,0-4.74-7-3.86-7-5.78,0-.52.58-.74,1.22-.74a1.973,1.973,0,0,1,2.14,1.68l3.34-.9c-.34-2.98-2.86-3.78-5.02-3.78-2.7,0-5.44,1.26-5.44,4.32,0,4.74,7,4.26,7,5.72,0,.5-.56.68-1.32.68-1.28,0-2.26-.52-2.48-1.62l-3.54.94C131.3-.82,133.42.26,136.36.26Z" transform="translate(-4631.79 620.071)" fill="#009481"/><path d="M0,162.313,106.552,144.02h13.513v18.293Z" transform="translate(-4789.868 294.078)" fill="#c6c6c5"/><path d="M109.93,32.267,158.876,7.736a45.4,45.4,0,0,1,16.459-4.655C206.3.4,310.181-6.542,347.68,16.815L334.89,32.278H109.93Z" transform="translate(-4784.555 287.118)" fill="#c6c6c5"/><path d="M337.443,155.74V16.03l-12.79,15.463L321.54,155.74Z" transform="translate(-4774.329 287.892)" fill="#9c9b9b"/><path d="M336.71,150.1l31.471-17.371H479.807L446.438,150.1Z" transform="translate(-4773.596 293.532)" fill="#d9d9d9"/><path d="M441.38,402.716l33.368-36.146V132.73L441.38,150.1Z" transform="translate(-4768.537 293.532)" fill="#9c9b9b"/><g transform="translate(-4573.364 577.636)"><path d="M23.034,10.235H16.8V4H10.235v6.235H4V16.8h6.235v6.236H16.8V16.8h6.236Z" fill="#e84436" stroke="#e84436" stroke-miterlimit="10" stroke-width="4"/></g></g></svg>