<svg xmlns="http://www.w3.org/2000/svg" width="496.08" height="409.124" viewBox="0 0 496.08 409.124"><g transform="translate(-1386.131 -292.124)"><g transform="translate(1386.131 307.926)"><rect width="143.747" height="252.615" transform="translate(318.964 139.707)" fill="#fff"/><rect width="143.747" height="239.857" transform="translate(0 152.465)" fill="#fff"/><rect width="29.772" height="252.615" transform="translate(323.22 139.707)" fill="#efefef"/><path d="M95.06,162.078,124.8,161.04l8.4,239.616-29.741,1.038Z" transform="translate(14.742 -9.026)" fill="#efefef"/><g transform="translate(115.24)"><path d="M5.626,408.356-5.9,124.563-9.68,31.493s99.853-34.783,224.96,0c.063,1.017-9.571,376.863-9.571,376.863Z" transform="translate(9.68 -16.033)" fill="#fff"/><rect width="29.772" height="49.334" transform="translate(18.492 56.25)" fill="#f9df96"/><rect width="29.772" height="49.334" transform="translate(71.223 56.25)" fill="#f9df96"/><rect width="29.772" height="49.334" transform="translate(123.965 56.25)" fill="#f9df96"/><rect width="29.772" height="49.334" transform="translate(176.695 57.958)" fill="#f9df96"/><rect width="29.772" height="36.576" transform="translate(27.246 124.181)" fill="#f9df96"/><rect width="29.772" height="36.576" transform="translate(26.806 175.423)" fill="#f9df96"/><rect width="29.772" height="36.576" transform="translate(29.133 230.293)" fill="#f9df96"/><rect width="29.772" height="36.576" transform="translate(72.88 124.181)" fill="#f9df96"/><rect width="29.772" height="36.576" transform="translate(72.439 175.423)" fill="#f9df96"/><rect width="29.772" height="36.576" transform="translate(74.777 230.293)" fill="#f9df96"/><rect width="29.772" height="36.576" transform="translate(118.524 124.181)" fill="#f9df96"/><rect width="29.772" height="36.576" transform="translate(118.083 175.423)" fill="#f9df96"/><rect width="29.772" height="36.576" transform="translate(120.411 230.293)" fill="#f9df96"/><rect width="29.772" height="36.576" transform="translate(164.157 125.88)" fill="#f9df96"/><rect width="29.772" height="36.576" transform="translate(163.717 177.132)" fill="#f9df96"/><rect width="29.772" height="36.576" transform="translate(166.055 231.991)" fill="#f9df96"/><rect width="75.7" height="72.303" transform="translate(72.733 320.019)" fill="#d8d8d8"/></g><rect width="21.26" height="47.636" transform="translate(12.758 169.469)" fill="#f9df96"/><rect width="21.26" height="47.636" transform="translate(12.758 234.968)" fill="#f9df96"/><rect width="21.26" height="47.636" transform="translate(12.758 300.457)" fill="#f9df96"/><rect width="21.26" height="47.636" transform="translate(44.229 169.469)" fill="#f9df96"/><rect width="21.26" height="47.636" transform="translate(44.229 234.968)" fill="#f9df96"/><rect width="21.26" height="47.636" transform="translate(44.229 300.457)" fill="#f9df96"/><rect width="21.26" height="47.636" transform="translate(75.7 169.469)" fill="#f9df96"/><rect width="21.26" height="47.636" transform="translate(75.7 234.968)" fill="#f9df96"/><rect width="21.26" height="47.636" transform="translate(75.7 300.457)" fill="#f9df96"/><rect width="21.26" height="47.636" transform="translate(363.193 160.118)" fill="#f9df96"/><rect width="21.26" height="47.636" transform="translate(363.193 230.293)" fill="#f9df96"/><rect width="21.26" height="47.636" transform="translate(363.193 300.457)" fill="#f9df96"/><rect width="21.26" height="47.636" transform="translate(394.663 160.118)" fill="#f9df96"/><rect width="21.26" height="47.636" transform="translate(394.663 230.293)" fill="#f9df96"/><rect width="21.26" height="47.636" transform="translate(394.663 300.457)" fill="#f9df96"/><rect width="21.26" height="47.636" transform="translate(426.134 160.118)" fill="#f9df96"/><rect width="21.26" height="47.636" transform="translate(426.134 230.293)" fill="#f9df96"/><rect width="21.26" height="47.636" transform="translate(426.134 300.457)" fill="#f9df96"/></g><text transform="translate(1544.21 625.071)" fill="#009481" font-size="20" font-family="Laca-Black, Laca" font-weight="800"><tspan x="0" y="0">AZ SINT LUCAS</tspan></text><path d="M0,162.313,106.552,144.02h13.513v18.293Z" transform="translate(1386.132 299.078)" fill="#c6c6c5"/><path d="M109.93,32.267,158.876,7.736a45.4,45.4,0,0,1,16.459-4.655C206.3.4,310.181-6.542,347.68,16.815L334.89,32.278H109.93Z" transform="translate(1391.445 292.118)" fill="#c6c6c5"/><path d="M337.443,155.74V16.03l-12.79,15.463L321.54,155.74Z" transform="translate(1401.671 292.892)" fill="#9c9b9b"/><path d="M336.71,150.1l31.471-17.371H479.807L446.438,150.1Z" transform="translate(1402.404 298.532)" fill="#d9d9d9"/><path d="M441.38,402.716l33.368-36.146V132.73L441.38,150.1Z" transform="translate(1407.463 298.532)" fill="#9c9b9b"/><g transform="translate(1599.148 326.461)"><path d="M2049.633,332.7s-7.684,6.29-8.838,8.565-6.091,8.25-2.506,12.37,9.813,5.5,16.144,5.934c0,0-8.67.839-10.913,0s-7.967-1.971-10.022-6.227.052-9.152,1.918-11.29C2037.608,339.5,2040.292,335.268,2049.633,332.7Z" transform="translate(-2032.654 -332.7)" fill="#009481"/><path d="M2048.832,366.346s7.632-6.363,8.764-8.638,6.017-8.3,2.4-12.391-9.865-5.42-16.2-5.787c0,0,8.659-.923,10.913-.094s7.989,1.9,10.085,6.143.031,9.152-1.814,11.311C2060.8,359.427,2058.141,363.694,2048.832,366.346Z" transform="translate(-2032.115 -332.391)" fill="#009481"/><circle cx="3.418" cy="3.418" r="3.418" transform="translate(13.425 13.985)" fill="#009481"/></g><g transform="translate(1602.636 582.636)"><path d="M23.034,10.235H16.8V4H10.235v6.235H4V16.8h6.235v6.236H16.8V16.8h6.236Z" fill="#e84436" stroke="#e84436" stroke-miterlimit="10" stroke-width="4"/></g></g></svg>