<svg xmlns="http://www.w3.org/2000/svg" viewBox="0 0 402.383 434.918"><defs><style>.a{fill:#86cccf;stroke:#5492c5;}.a,.b,.c{stroke-linecap:round;stroke-linejoin:round;}.a,.b{stroke-width:4.688px;}.b{fill:#f8bb00;stroke:#eed351;}.c{fill:#f29061;stroke:#ee7344;stroke-width:5.132px;}.d{fill:#e84436;}.e{fill:#009481;stroke:#009481;stroke-miterlimit:10;stroke-width:0.14px;}.f{fill:#ededed;}</style></defs><title>rotate_device2</title><path class="a" d="M76.019,90.269H191.888s9.542,196.3,0,226.286c0,0-118.595,8.179-128.138,0C63.75,316.555,58.3,90.269,76.019,90.269Z"/><path class="b" d="M88.42,110.155h87.747s7.226,139.627,0,160.959c0,0-89.812,5.818-97.038,0C79.129,271.114,75,110.155,88.42,110.155Z"/><circle class="c" cx="128.954" cy="293.765" r="12.046"/><path class="d" d="M100.855,156.853l5.6-6.6c8.06,6.49,15.767,13.356,23.212,20.614,7.414-7.21,15.114-14.089,23.215-20.609.564.659,1.12,1.305,1.672,1.954q1.669,1.966,3.337,3.934c.484.569.469.8-.109,1.288-6.113,5.143-12.077,10.452-17.842,15.984-1.3,1.251-2.605,2.5-3.927,3.776.117.136.2.246.3.344,4.888,5.019,9.62,10.182,14.14,15.534,2.546,3.014,5,6.107,7.489,9.169.434.534.4.789-.121,1.226l-5.183,4.388c-.528.447-.785.417-1.228-.1-4.153-4.783-8.264-9.6-12.481-14.329-2.863-3.207-5.877-6.28-8.822-9.414-.131-.139-.252-.287-.293-.334-.882.82-1.782,1.559-2.566,2.4-3.819,4.119-7.648,8.229-11.391,12.415-2.736,3.06-5.349,6.23-8.008,9.358a.631.631,0,0,1-1,.109c-1.987-1.672-3.961-3.357-5.959-5.054a304.162,304.162,0,0,1,22.455-25.7C116.111,170.126,108.645,163.343,100.855,156.853Z"/><path class="a" d="M130.013,342.514,129.4,226.647s196.243-10.577,226.283-1.193c0,0,8.8,118.55.675,128.135C356.36,353.589,130.106,360.235,130.013,342.514Z"/><path class="b" d="M149.834,330.009l-.463-87.746s139.587-7.963,160.956-.849c0,0,6.292,89.78.512,97.037C310.839,338.451,149.9,343.429,149.834,330.009Z"/><circle class="c" cx="333.227" cy="288.507" r="12.046"/><path class="e" d="M192.472,302.363c.895-1.137,1.8-2.264,2.682-3.414,1.095-1.433,2.166-2.885,3.3-4.4l24.163,15.927c.794-2.247,1.506-4.386,2.3-6.493a134.643,134.643,0,0,1,12.027-24.319,131.15,131.15,0,0,1,11.675-15.811A133.516,133.516,0,0,1,261.9,250.565c.951-.831,1.562-.683,2.291.193,1.779,2.14,3.648,4.206,5.492,6.291.669.757.693.763-.077,1.383-8.967,7.216-16.176,15.985-22.521,25.508a116.738,116.738,0,0,0-11.938,22.891,77.5,77.5,0,0,0-3.752,12.643c-.545,2.732-.882,5.506-1.322,8.323-.85-.551-1.769-1.141-2.681-1.741q-11.787-7.758-23.571-15.52-5.37-3.536-10.741-7.069a4.011,4.011,0,0,0-.6-.268Zm2.074.118,34.225,22.529c.1-.4.165-.637.211-.881.5-2.661.891-5.349,1.526-7.978a90.765,90.765,0,0,1,6.426-17.62,127.8,127.8,0,0,1,11.258-19.116A115.707,115.707,0,0,1,262.2,262.851c1.738-1.673,3.56-3.259,5.362-4.864.309-.274.392-.459.1-.788-1.436-1.611-2.87-3.225-4.281-4.859-.337-.391-.545-.4-.943-.052a128.536,128.536,0,0,0-23.806,27.758,132.616,132.616,0,0,0-14.129,30.03c-.315.963-.637,1.924-.979,2.953l-24.682-16.272Z"/><path class="e" d="M194.546,302.481l4.3-5.724,24.682,16.272a102.717,102.717,0,0,1,4.166-12.826c3.336-8.386,8.394-18.46,11.491-22.074,2.1-2.454,4.528-5.911,7.528-10.061a84.392,84.392,0,0,1,16.359-16.72l5.356,6.442s-16.9,16.7-20.231,21.625-14.453,25.461-15.3,28.779-4.124,16.816-4.124,16.816Z"/><path class="f" d="M244.839,146.833c.013.066.057.157.033.193a1.249,1.249,0,0,0-.2.3l-.34.139c.317.06.424.3.246.707-.11.252,0,.312.156.388.038.019.094.02.113.051.1.155.189.317.281.476a.39.39,0,0,0-.034-.564c-.238-.278.136-.4.181-.633l.19.513-.067.105.465-.22-.113-.061-.088-.5.379-.186c.1.3-.2.626.141.893l-.231.3a.825.825,0,0,1-.18,1.021c.324.455.42.494.86.339l-.094-.237c.464.013.578-.069.445-.346l-.131.167-.061-.02c.038-.165.073-.331.12-.493,0-.02.1-.01.106-.029.121-.489.135-.506.428-.533.121-.137.2-.234.287-.322.027-.028.1-.03.1-.05.032-.271.134-.343.387-.256.291.1.249.305.209.536a.464.464,0,0,0,.011.1l.2-.357a2.326,2.326,0,0,0,1.084,1.918c.038-.168.061-.25.075-.334.038-.237.04-.229.267-.319.05-.02.063-.16.112-.178.069-.024.215-.006.225.03a1.712,1.712,0,0,1,.026.381l.215.007-.034-.192a.494.494,0,0,1,.146.057c.293.25.572.52.879.748.081.06.242-.007.405-.018l-.1.14,1.459,1.461c.023.023.06.046.064.074.088.587.535.774.928,1.027.057.036.072.149.107.227a.956.956,0,0,0,.14.309,1.348,1.348,0,0,1,.406.916c.01.133.121.259.123.39,0,.244.115.2.259.183.035,0,.106.12.121.195a1.654,1.654,0,0,1,.013.314.97.97,0,0,1,.277-.093c.038,0,.091.082.113.138.171.451.337.906.516,1.39l.209-.657c.4.343.376.891.57,1.378l.1-.288.451.015c-.043-.1-.073-.171-.1-.243l-.59-.952.552.126c-.015-.064-.051-.076-.071-.1-.1-.138-.436-.073-.3-.416l-.36-.257.195.225.158-.32-.1-.143.268.23.008-.214c.134.118.285.192.348.319.147.293.2.665.514.67l-.63.842c.248-.029.528.026.656-.317l.366.274-.371.1a1.013,1.013,0,0,1,.09.283c0,.058-.084.122-.131.184l-.1-.108.169-.123c-.18-.194-.551-.028-.7.4l1.1-.035-.008.228.576.295.115.668c-.234.171-.317.052-.468-.757-.113-.056-.414.15-.245-.387l-.523.4c.652.047.719.584.944,1l-.226.144a.535.535,0,0,1-.206.7c-.383.258.025.365.14.535l.01-.3.26-.063c.087.124.154.317.272.369a.688.688,0,0,1,.412.656c.019.209.445.408.7.35-.094.356-.215.4-.549.109l-.071.817-.222-.18.114.521.782-1.025c-.051.125.245.38-.122.4l.094.529-.105.026-.1-.358-.049,0,.028.436.624.022-.254.86.161.259.535-.111-.409.392.271.23-.064.267.077.06.359-.5-.067-.063-.207.241-.153-.366.695.1-.352.919c.068-.049.091-.067.116-.084a1.057,1.057,0,0,1,.223-.139c.021-.008.11.1.1.134a.7.7,0,0,1-.149.331,1.264,1.264,0,0,1-.371.164l-.12-.267-.081,0-.145.607.356.173-.4.007c-.01.053-.04.12-.024.138.306.355.138.775.141,1.173a1.45,1.45,0,0,0,.083.416c.1.294.2.583.307.872a1.563,1.563,0,0,0,.121.222l-.161.022.146.34.185-.3.207.9.132-.263.1.053c-.084.238-.172.475-.252.715a.781.781,0,0,0-.079.344c.1.5-.209.923-.218,1.4a.112.112,0,0,1-.049.083c-.087.039-.235.043-.257.1a2.419,2.419,0,0,0-.059.473,1.419,1.419,0,0,0-.015.434l.124-.175c.011.018.03.034.029.05a6.363,6.363,0,0,1-.03.692.5.5,0,0,1-.165.305,2.035,2.035,0,0,0-.785,1.241c-.068.258.028.675-.322.832-.015.006-.01.084-.006.128.027.289-.1.205-.265.11l-.076.5-.239-.025-.009.263c-.229-.279.016-.527.027-.8l-1.185-.409c.112-.144.233-.242.219-.292a.861.861,0,0,0-.215-.372,1.4,1.4,0,0,0-.4-.243c-.1-.045-.214-.209-.32.015-.011.023-.159,0-.222-.045-.291-.191-.573-.367-.9-.067-.033.03-.132-.029-.2-.045A3.74,3.74,0,0,1,256,174.9c-.056-.021-.093-.108-.15-.18l-.061.082c-.289-.068-.53-.132-.775-.176-.039-.007-.1.07-.137.12a.487.487,0,0,1-.86-.044.372.372,0,0,0-.41-.271c-.411.029-.82.091-1.171.133l-.1.638c-.2-.4-.2-.4-.4-.391l.21.411-.255.358-.034-.347c-.148.03-.321.128-.433.074-.247-.12-.463-.308-.761-.231-.053.013-.118-.039-.2-.07l-.01-.568-.385.162.192.367c-.4.16-.633.052-.767-.342l-.1.213-.433-.1-.033.1.353.246a3.06,3.06,0,0,1-.677.134c-.07,0-.139-.208-.2-.326-.026-.049-.02-.128-.054-.16s-.09.025-.138.042l.088.172-.64.157-.307-.383-.149.184a.583.583,0,0,0-.683-.135,3.036,3.036,0,0,1-.789.13,1.62,1.62,0,0,1-.26-.007l0,.092.245.168-.019.526c-.355-.076-.053-.338-.1-.563l-.295.337-.14-.32-.68.7-.18-.175-.086.22-.37-.2c-.2-.381-.544.029-.761-.122l.077.529-.51-.123c-.017-.065.167-.41-.2-.159-.144.1-.4,0-.618,0,.088.29-.105.274-.264.27-.107.1.071.49-.281.307l.158-.263a1.235,1.235,0,0,0-.393-.028.294.294,0,0,0-.156.231.52.52,0,0,1-.165.44c-.052.061-.016.213-.02.346l-.228.036-.362-.482-.03.264a2.829,2.829,0,0,0-.463-.159c-.043-.008-.161.126-.152.175.062.357-.148.388-.386.415l.017.463c-.319-.13-.481,0-.5.314-.014.234.011.471.019.739l-.331-.08c.172.238.117.412-.1.5-.169.065-.14.284-.344.377-.252.115-.27-.012-.365-.159-.028.2-.054.39-.083.579-.067.444-.141.887-.2,1.333-.013.1-.011.271.037.3.241.134.169.33.1.559a.791.791,0,0,0,.928-.039c.29-.251.582-.5.883-.754v.245c.085-.306.652.1.557-.482.262.209.428.048.549-.176.157-.291.337-.232.545-.1.585.383,1.178.75,1.756,1.145.511.348,1,.725,1.461,1.057l.029.459.252-.163c.224.138.425.267.632.386.252.146.511.278.762.427a.476.476,0,0,1,.153.17.612.612,0,0,0,.775.3c.052-.014.114.02.171.032a.629.629,0,0,1-.037.06,3.632,3.632,0,0,1,.308.407c.089.159.332.151.5-.045a2.064,2.064,0,0,0,.15-.223c.27.18.1.412.09.623,0,.091.012.227.065.265.071.051.187.028.314.039l.13.344.552-.365-.029.825.863.629.115-.206.126.5.305-.5c.008.28.065.462.388.36l-.137.347.381-.088-.269.251.015.061.436-.139-.018-.045.428.093-.326.283.288-.049.041.059-.135.156c.063.116.125.237.193.353.1.178.213.369.374.051.047.056.11.144.119.137.219-.153.352-.012.5.189l-.268-.009.643.981a.059.059,0,0,0,.035-.01c.15-.1.3-.2.449-.3.017.156.037.312.05.468.015.18.024.36.035.541l.573-.124-.188-.45.436.331-.012-.7c.1.274.189.452.239.641a.586.586,0,0,1-.015.324c-.133.379-.12.411.3.412l-.137.363.195.273.5-.173-.1.636a1.55,1.55,0,0,0,.459.028.992.992,0,0,1,1.052.6c.017.041.035.107.06.112a.943.943,0,0,1,.689.523l-.061-.333.072-.05.6.739.113-.241c.024.231.359.234.1.474a.223.223,0,0,0,.061.15c.344.241.691.479,1.048.7.033.021.159-.071.2-.14.1-.19.224-.236.457-.113l-.331.224.471.582a.89.89,0,0,1,.9.157c.109.149.323.346.07.528l.162.578s.029.012.044,0c.266-.14.444-.209.734.1a5.88,5.88,0,0,0,1.4.936,9.533,9.533,0,0,0,.934.425c-.084.313-.169.6-.235.885-.043.187-.048.384-.086.573-.033.161-.089.317-.145.511.077.186.187.39.416.266l.512-1.367.5.226c-.019-.144-.029-.232-.043-.319-.045-.282.014-.458.322-.409.159.026.253-.027.274-.238.008-.087.139-.169.225-.236.109-.086.23-.154.395-.262l.026.582.071.017.2-.309.078.645a1.213,1.213,0,0,1,.146-.2c.053-.045.154-.111.182-.088.244.19.3-.06.428-.194l-.407-.052.491-.454a4.374,4.374,0,0,0-.048.477.222.222,0,0,0,.1.157,1.028,1.028,0,0,0,.258.062l.086-.258c.2.07.379.134.555.191.307.1.518-.077.526-.43,0-.109.013-.219.011-.329,0-.144.033-.344-.2-.174-.027.019-.128-.04-.16-.09-.02-.031.026-.112.036-.172.014-.076.021-.152.028-.2l.65-.317c-.148-.4.513-.388.383-.7l-.414-.222.021-.082c.11-.009.236-.06.328-.02.264.117.445-.052.575-.228.151-.2.075-.408-.084-.626-.125-.172-.36-.391-.14-.719l.462.426.119-.437.086.447.062,0,.438-1.134s.075.032.085.015q.487-.769.962-1.548c.179-.293.168-.4-.126-.681a2.372,2.372,0,0,0,.369-.083c.115-.049.32-.133.316-.188-.022-.366.256-.412.444-.517s.321-.169.348-.419c.009-.084.14-.156.22-.226a4.848,4.848,0,0,1,.576-.476c.1-.061.253-.016.4-.02l-.093-.214.68-.432c-.1-.229-.112-.415.222-.475.108-.02.19-.252.278-.391a1.008,1.008,0,0,1,.415-.373,6.486,6.486,0,0,0,.981-.762c.1-.077.183-.165.277-.245.111-.095.323-.053.334-.3,0-.018.126-.05.189-.043.188.022.373.068.561.088a.257.257,0,0,0,.171-.067,1.546,1.546,0,0,1,.21-.193.994.994,0,0,1,1.08-.787l.131.334a1.22,1.22,0,0,0,.166-.407c0-.259.011-.428.322-.357.063.014.167-.185.268-.3l.086.131.43-.476c.09.088.132.274.324.149.105-.068.269-.023.4-.028.012-.137.018-.279.039-.418.007-.047.045-.12.077-.127a7.5,7.5,0,0,1,.912-.139c.059,0,.126.175.207.3.626-.3.764-.473.91-.884a2.035,2.035,0,0,0,.255.467.51.51,0,0,0,.377.144c.136-.014.264-.132.416-.174-.173.173-.462.26-.258.669l-.279-.129.135.279.264-.095.048.075-.243.234.29.476.529-.992a1.011,1.011,0,0,0,.212.046.946.946,0,0,0,.207-.04c-.009.068-.017.136-.029.2s-.033.153-.051.237l.3.217.03-.857-.364.067c.307-.371-.029-.415-.14-.484-.194-.122-.214-.085-.073-.3l-.31-.262.041-.083c.114.072.224.2.342.207.3.02.281.28.364.478.019.046.132.043.192.06l.33-.487.361,1.052.063-.153.241.225-.277.208.271.4c.282-.229.509-.441.761-.609.229-.153.262-.293.1-.53a.443.443,0,0,1-.048-.362c.249-.427-.077-.485-.3-.624a.547.547,0,0,1-.195-.225c.2.3.473-.251.661.127l.139-.323.574.091-.1.211c.1.117.383.025.424-.123a.318.318,0,0,1,.457-.252c-.027.084-.051.155-.074.226a1.132,1.132,0,0,0,1.405-.243l-.009.283a4.379,4.379,0,0,0,.587.215,3.147,3.147,0,0,0,.545.026l.179,1.082.224-.1c.044-.12.092-.237.132-.358a.412.412,0,0,0,.031-.186,1.2,1.2,0,0,0-.09-.232l.253-.056-.082.759-.253.069a.921.921,0,0,1-.022.177,2.145,2.145,0,0,1-.105.226l.612-.131-.071-.159c.683-.38.683-.38.588-.692l-.241.123c.083-.371.144-.747.261-1.1a.481.481,0,0,1,.34-.236.792.792,0,0,0,.7-.824.363.363,0,0,0-.558-.358,2.122,2.122,0,0,0-.323.31l-.873-.3-.072.186a1.493,1.493,0,0,1-.272-.211c-.168-.209-.315-.15-.426.044-.128.224-.269.116-.431.086s-.236-.193-.362-.269c-.152-.091-.313-.162-.546-.28l1.655-.22.012.137c.16-.281.341-.288.59-.166a1.492,1.492,0,0,0,.579.049c.5.02.99.036,1.508.054l-.155-.725a3.376,3.376,0,0,1-.776-.087.986.986,0,0,0-1.047.246l-.011-.431c-.257-.028-.528-.043-.793-.1a.292.292,0,0,1-.143-.239c.083-.292.195-.573.305-.855a1.741,1.741,0,0,0,.138-1.213.639.639,0,0,1,0-.214l-.868-.305.357-.079c-.462-.253-.507-.229-.766.43-.2-.195-.379-.377-.563-.556-.04-.039-.105-.111-.128-.1-.459.245-.625-.166-.846-.446-.139-.176-.254-.43-.479-.158l.491.337-.033.131-.471.032-.024-.3-.356.237.081-.458c-.268.12-.409.026-.441-.246-.344.113-.239.462-.335.818-.133-.338-.219-.591-.332-.83-.053-.111-.008-.545-.3-.152-.044.059-.192.023-.253.1l-.6.467a1.691,1.691,0,0,0-.062-.352.2.2,0,0,0-.17-.108,1.8,1.8,0,0,0-.349.145.687.687,0,0,1-.019-.234c.079-.258,0-.37-.241-.39-.469-.04-.938-.089-1.406-.134l-1.314-.124c.045.365-.063.483-.386.307a1.344,1.344,0,0,0-.431-.063l-.029-.138.327-.034c-.39-.3-.533-.3-.717.029l-.062-.269c-.354.263-.6-.149-.915-.146-.215,0-.429,0-.653,0l.078.631-.3-.191.084-.5-.242.233-.013-.217-.2.1c-.139-.453-.292-.065-.41.012a2.174,2.174,0,0,0-.344.353.5.5,0,0,1,.184-.577l-.205-.184-.431.223-.088.431-.567-.2c.013-.143.051-.315.027-.326-.233-.107-.477-.187-.719-.274-.093.36-.635.792.212.827l-.244.553.31.051-.163.526-.506-.385-.147.757-.053,0-.05-.821-.053.008c.018-.116.087-.292.045-.333-.078-.077-.22-.074-.375-.115.014-.037.023-.139.073-.181.193-.16.4-.3.6-.453a.271.271,0,0,0,.064-.17c0-.017-.075-.054-.118-.062-.253-.047-.51-.077-.761-.137-.086-.02-.216-.1-.226-.165-.022-.156-.032-.417.043-.467.145-.093.253-.213.139-.316s-.244-.452-.51-.194c-.008.008-.035-.008-.122-.1a.54.54,0,0,0,.135-.028c.5-.246.548-.367.448-.984a.4.4,0,0,1,.032-.234c.091-.174.169-.294-.008-.5-.092-.109,0-.4.064-.636l.083.294a.412.412,0,0,0,.081-.73c.268-.039.4-.258.386-.565-.018-.374.243-.169.389-.188-.03-.384-.133-.41-.539-.164l.1-.262c-.321-.139-.341-.439-.208-.86.045.109.078.173.1.242s.031.152.046.228a.882.882,0,0,0,.212-.154c.09-.119.134-.288.238-.382.19-.17.151-.3,0-.451-.036-.038-.039-.116-.057-.175l.077-.023-.117-.308.046-.035c.114.092.222.244.343.257s.247-.12.44-.227l-.522-.392-.093.061a2.8,2.8,0,0,1,.05-.489c.13-.464.142-.463.517-.206l.241-1.473-.225.143c0-.083-.011-.143.008-.161.37-.347.29-.905.519-1.325.072-.133-.027-.378-.048-.573l-.087,0,.3-.412-.43-.076-.038-.086c.633-.064.462-.621.532-1a.57.57,0,0,0-.232-.661l.006.333h-.07l.033-.94.225-.121-.229-.132-.206-.756c.071-.1.311-.2.054-.4l.359-.262-.019-.32-.34.126c-.032-.238.039-.344.232-.407.072-.023.19-.137.181-.159-.163-.41.109-.8.052-1.2-.026-.176-.076-.348-.128-.576l-.282.086a3.445,3.445,0,0,1-.162-.447,1.462,1.462,0,0,1,.007-.336l.111-.013.341.5.066-.036a2.265,2.265,0,0,0-.113-.25c-.077-.127-.245-.2-.16-.417.016-.041-.14-.156-.211-.243a.847.847,0,0,1-.154-.237c-.018-.055.025-.135.04-.2l.157.084a.682.682,0,0,0-.185-.762l.269-.92-.256-.165.04-.316-.239.068c.007-.2.016-.361.017-.524,0-.187,0-.18.182-.261a.2.2,0,0,0,.069-.169,4.6,4.6,0,0,0-.222-.793c-.058-.133-.22-.211-.393-.364l.482-.233-.179-.19-.212.279-.014-.091a1.512,1.512,0,0,0-.519-.033,1.748,1.748,0,0,0-.454.305l.069-.621c.2.068.322,0,.228-.233-.1-.26.114-.6-.173-.809-.011-.008.007-.084.025-.12.171-.342.008-.532-.245-.693a1.161,1.161,0,0,1-.177-.158l.264-.766c-.561.073-.32-.312-.3-.569l.081.309c.18-.541-.027-.835-.52-.774.032-.081.09-.157.084-.228s-.079-.116-.123-.174c.279-.287.224-.466-.114-.587l-.24-.582c-.274.1-.29.08-.2-.407l-.24.323-.043-.344-.172-.035.02-.562-.064,0,.277-.38-.236.124-.222-.3.141-.171a1.843,1.843,0,0,0-.279-.378,1.569,1.569,0,0,0-.408-.17l-.147-.234c0-.071.017-.171-.018-.227-.181-.282-.086-.772-.564-.838-.214-.03-.275-.368-.229-.608a.6.6,0,0,0-.126-.442,1.674,1.674,0,0,0-.465-.266l.175-.083c-.071-.2-.153-.391-.209-.594a.255.255,0,0,0-.388-.19l-.3-.754-.514.358-.3-.726-.079.02.121-.4.248.426a.72.72,0,0,0-.218-.731,2.723,2.723,0,0,1-.258-.458.379.379,0,0,0-.188-.154,1.335,1.335,0,0,0-.33-.032c-.135,0-.27,0-.4,0l-.032.132-.3-.334-.329.044-.094-.866.184-.039.021-.066c-.122-.1-.354-.206-.347-.291.026-.305-.1-.269-.3-.171.027-.353-.017-.631-.348-.746-.068-.024-.1-.17-.16-.284a.778.778,0,0,1-.7-.567c-.046-.145-.257-.223-.387-.34-.209-.186-.413-.379-.645-.593l-.187.157-.1.117a4.234,4.234,0,0,1-.23-.45c-.085-.221-.15-.422-.416-.2-.051.042-.16,0-.235,0l-.121.449-.273-.277.367-.478-.119-.091-.2.4c-.014-.182-.022-.29-.031-.4s-.022-.241-.04-.428l-.611.533c-.228-.2-.18-.536-.238-.851l-.306.07.06-.087-.3-.455-.066.306-.035-.321-.474-.266-.211.491c.159-.477-.325-.529-.424-.877-.371.495-.522-.176-.8-.118l-.1.391-.15-.261.188-.249-.034-.114a2.714,2.714,0,0,1-.465.125.571.571,0,0,1-.322-.087c-.182-.108-.351-.244-.476-.333l-.147.855-.085.011-.227-.937-.235-.312-.219.144.149.19-.045.069a2.966,2.966,0,0,1-.355-.253c-.134-.126-.224-.246-.453-.159a.571.571,0,0,1-.526-.139c-.219-.239-.467.045-.673-.113a.988.988,0,0,0-.31-.09,1.271,1.271,0,0,0,.01.145c.01.063.029.123.044.184-.057-.007-.125,0-.167-.026a3.326,3.326,0,0,1-.272-.253l.234-.076-.528-.332-.5.5c-.149.019-.263,0-.339.049-.186.122-.269.068-.307-.149-.024-.133-.062-.264-.1-.411l-.568.04.053-.3-.231.022-.108-.31c-.443.414-.282,1.012-.42,1.507H254l-.042-.7.057.014-.332-.451.443.016-.1-.336a.9.9,0,0,1-.267-.013c-.272-.1-.362.154-.324.3.085.331-.012.366-.262.307-.029-.006-.072.052-.188.142l.249-.665c-.706.381-.407-.408-.611-.45a.661.661,0,0,0-.215.023c-.137.065-.265.152-.4.229.192.161.171.367-.07.65l-.121-.368.068.019.11-.286c-.2-.044-.352-.363-.561-.143l-.409-.337-.377.907.066.058-.364.069.261-.559a3.919,3.919,0,0,1-.778-.227,5.361,5.361,0,0,1-.725-.561c-.066.14-.108.244-.162.341a.286.286,0,0,1-.116.128.358.358,0,0,0-.259.281c-.084.309-.262.322-.628.045l.437-.132c-.133-.184.044-.5-.227-.609-.076-.031-.194.065-.331.117l-.4-.191.132.562.134-.01.039.076-.223.183c-.074-.125-.148-.248-.22-.374-.016-.028-.022-.064-.078-.022-.156-.107-.316-.208-.468-.323-.059-.044-.093-.126-.148-.178-.291-.273-.338-.257-.479.142a.141.141,0,0,1-.106.091l.054-.253-.337-.226c-.056.571-.458-.007-.572.2l-.712-.763-.195.52-.175-.12a.371.371,0,0,1-.574.028c-.183-.19-.308-.112-.389.243l-1.115-.333.237.494c-.311.17-.457-.13-.664-.238-.065-.034-.128-.111-.189-.107-.265.018-.453-.466-.772-.132-.037.038-.175-.041-.267-.065l.143.561c-.362-.095-.317-.366-.329-.61l-.252.459-.073-.348-.136.2-.075-.343-.513.554-.054-.4-.391-.2.05.247-.163-.162-.667.155c.089.064.2.111.2.149-.008.108-.04.279-.1.3-.092.037-.218-.031-.373-.064l-.074.22-.252-.366-.207.378.178.194-.363.156c-.271-.435-.535-.961-1.18-.646.151.367-.285.245-.34.421l-.777-.518-.247.189.3-.063.052.1-.322.432-.116-.054.011-.309-.528.582.009-.009.125.405-.508-.221.3.551c-.343.042-.517-.028-.431-.355l-.349-.126,0,.2-.086-.017.076-.364-.908-.267-.245.319-.045-.029.188-.391-.987.269.27.451-.17.038-.078.722-.111.013-.124-.349-.283.191c.209-.45-.137-.9.276-1.221-.235-.173-.334.051-.462.156-.068.055-.119.134-.223.147l.01.312-.285-.185-.22.425c-.137.006-.259.217-.1.439.213.3-.135.361-.135.554a2.26,2.26,0,0,0-.326-.037,2.228,2.228,0,0,0-.328.056l-.036-.09.422-.349-.5-.317.364-.083.006-.093-1.109-.121.282.49.1-.05-.087-.277.04-.066.486.45c-.089.2-.174.369-.419.343a.988.988,0,0,0-.3.063l.162.262.285.01-.345.483c-.072-.243-.139-.469-.2-.7a.951.951,0,0,1,.107-.051l-.174-.315-.1.052.044.285-.249.009-.241-.43-.118,1a2.506,2.506,0,0,0-.217-.369c-.065-.071-.159-.109-.211-.192.3-.1.367-.281.233-.536.473-.4-.129-.365-.213-.594l.637.022-.733-1.969-.182.281.049-1.4-.142-.025c-.083.246-.18.488-.247.74a5.7,5.7,0,0,0-.321,1.425,3.564,3.564,0,0,0,.031,1.041,2.773,2.773,0,0,1-.146,1.072c-.034.19-.08.377-.121.566l-.114.026-.161-.5c-.213.432-.44.879-.656,1.332a7.7,7.7,0,0,0-.4.929,2.541,2.541,0,0,0-.083.695c-.008.266.015.533.024.791a.573.573,0,0,0-.364.784,2.666,2.666,0,0,1,.116.6c.03.311.02.312.313.463-.329,0-.5.093-.5.449.005.581.446.206.634.391l-.261.293c.28.21.283.263.016.414.032.241.085.453-.221.623-.169.094-.2.484-.3.74s-.2.489.136.716l-.13.027-.254-.2-.313.295c.057.08.16.21.245.352a.464.464,0,0,1,.048.216c0,.116-.006.233-.01.349l.1.032.362-.886a2.8,2.8,0,0,1,.208.669c.012.268.135.555-.064.824a.4.4,0,0,0,.061.346c.313.323.168.756.24,1.132.109.572.153,1.159.227,1.76-.315.045-.679.441-1.043-.205l-.1.564c-.128.106-.312.381-.629-.063-.16.616-.3,1.118-.417,1.627-.049.213-.045.441-.073.661a2.126,2.126,0,0,1-.07.324c-.059.2-.125.394-.188.59l.114.068.246-.2c-.01.088-.021.149-.023.211s.005.131.008.2c.072-.032.2-.049.208-.1.076-.313.127-.633.19-.967l.191.114a.692.692,0,0,0-.112.214c-.009.1-.006.277.039.3a.475.475,0,0,0,.3-.036c.041-.012.069-.077.1-.119.13-.166.236-.354.491-.189.06.039.259-.077.323-.177a1.736,1.736,0,0,0,.136-.483s.08.05.084.1c.033.47.063.5.527.383l.013.795.343.523-.1-.023c-.036.076-.116.165-.1.226a4.037,4.037,0,0,1,.141,1.209c-.02.3-.06.588.2.8.035.029-.034.178-.013.257a3.781,3.781,0,0,0,.3.93,1.177,1.177,0,0,1,.113.712,1.414,1.414,0,0,0,.09.378L225.7,150l-.236.433c.244.571.479.783.68.607l.129.436-.2.08c.349.348-.011.679-.011,1.024a3.491,3.491,0,0,0,.053.389.713.713,0,0,1-.011.2c-.051.251-.116.5-.151.755,0,.037.153.153.182.134a.987.987,0,0,0,.353-.328,3.875,3.875,0,0,0,.183-.724l.155.319c.028-.044.05-.063.048-.078-.026-.213-.117-.419.17-.558.078-.038.067-.378.043-.57-.019-.144-.027-.117.06-.269a1.152,1.152,0,0,0,.1-.489,1.881,1.881,0,0,0-.06-.4l-.147.053c.164-.24.265-.456-.094-.566l.04-.077.434.016-.259-.506a.34.34,0,0,0,.212-.482c-.048-.148.074-.354.078-.535a.83.83,0,0,0-.116-.3c.268.011.385-.152.379-.512-.008-.432.048-.871,0-1.295-.04-.342-.131-.645.177-.9.049-.04.035-.174.054-.291l.2.026.16-.433.2,1.18c.938-.071,1.893-.338,2.654.549l.021-.589.38.06c-.27.383-.229.556.291,1.233l.413-.436c.28.134.266-.266.349-.419a1.7,1.7,0,0,0,.039-.631l-.182-.155c.227-.074.56.169.547-.27l.647.023.029.1.183-.329.187.636-.095.153c.562-.3.68-.332.991-.226l-.127-.175c-.14-.2-.1-.277.137-.335a5.479,5.479,0,0,0,.528-.194,6.248,6.248,0,0,0,.192.66.383.383,0,0,0,.24.222c.159.024.326-.033.421.18.02.045.112.051.17.077l.344.15.458-.285-.3-.33.138-.108c-.056-.1-.111-.2-.166-.3-.177.155-.351.115-.419-.052.116-.147.194-.321.317-.38.107-.052.265.026.349.04l.034.658.412-.149-.069-.193.057-.058.56.605.14-.365.336.292-.166.464.536-.231.253.773-.159-.028a.3.3,0,0,0,.015.092c.113.2.143.473.442.508.16.019.152.067.164-.11.008-.116.028-.23.052-.422l.2.215c.26-.231.431-.171.813.156a.994.994,0,0,0,.59.12c.168.184.047.23-.235.19.057.193.064.418.155.471.122.072.309.011.56,0l-.312.234.033.218.258-.024c.1.159.16.366.273.411.208.083.3-.1.342-.317a1.911,1.911,0,0,1,.192-.41l.511.3-.123.268.254.238.145-.53c-.4-.293-.405-.466-.12-.665-.064-.316-.122-.6-.181-.889-.077.058-.2.1-.22.18-.069.31-.1.628-.151.943l-.074.065-.278-.416-.049.316-.305-.12c.12-.13.2-.225.293-.315.164-.165.424-.326-.075-.5a2.4,2.4,0,0,0,.286-.179,1.57,1.57,0,0,0,.229-.252c.012-.018-.025-.095-.054-.131-.086-.1-.19-.194-.267-.307-.1-.155-.19-.326-.306-.528.266-.017.55-.038.834-.048.024,0,.074.072.07.1-.038.276.13.547-.009.834-.04.082.049.237.079.359,0-.189-.1-.412.2-.476.059-.013.077-.264.115-.41l.924.294c.149-.076.31.033.4.394Zm23.819,8.838-.181-.269.226-.179.2-.653c.225.18.225.31.076.455-.076.075-.148.155-.222.233l.162.106c-.079.111.012.395-.261.307.08.382.08.382-.283.507Zm-37.923-14.565.3.4-.08.106-.486-.338.246-.184-.172-.164.259-.348.053.354.152-.4c-.248-.147-.506-.286-.524-.663l.3.044-.057.072c.062.078.11.183.188.228.146.084.239.157.086.328C231.136,140.726,231.03,140.953,230.735,141.106Zm35.507-.33.27-.266.148.613-.056.051-.362-.4a.1.1,0,0,0-.026-.02c-.008,0-.026,0-.028,0-.1.259-.2.518-.321.841a1.156,1.156,0,0,1,.3-.938C266.178,140.655,266.214,140.737,266.242,140.776Zm1.1,26.526-.457-.052.2-.351c.09.084.183.165.266.256.024.026.016.085.023.128.252-.095.253.155.333.294,0,.008-.012.032-.026.064l-.256-.108.015.172.247.1.069.125-.343.322.252.174c.2-.132-.113-.474.222-.574l.175,1-.376-.17-.072.1.606.672c-.216.031-.376.517-.725.141l.359-.112-.527-.473-.352.307.093-.2-.465-.494a.6.6,0,0,0,.31-.892l.153-.028.118.372.266-.375C267.163,167.655,267.313,167.458,267.346,167.3Zm-.654-17.65-.177.718-.065-.019.07-.837.073-.021.095.168.21-.109.168.555-.389-.014C266.683,149.931,266.688,149.79,266.692,149.652Zm-37.44-10.886.019.711c-.281-.007-.281-.007-.368-.368.331.141.261-.2.355-.345l-.646-.287.484-.345C229.156,138.374,229.205,138.569,229.252,138.766Zm45.067,41.414c-.147-.021-.227-.053-.042-.18.048-.033.061-.13.089-.2l-.056-.029-.1.17-.239-.317a3.862,3.862,0,0,1,.469-.074c.03,0,.1.117.089.165a3.307,3.307,0,0,1-.142.421c.035.094.125.222.1.277-.1.193-.243.314-.382.125ZM251.7,127.417l-.312-.211-.281.371c-.016-.042-.064-.119-.049-.139.117-.163.247-.314.371-.467l.264.453.317-.07-.13.332.157-.01-.18.45c-.073-.042-.186-.074-.187-.112C251.659,127.816,251.682,127.616,251.7,127.417Zm18.478,11.207a2.566,2.566,0,0,1-.227,1.054l.519.018.1-.5.3.441-.064.363-.176-.137.029.569.328-.357.606.169-.089-.347.1-.039a1.818,1.818,0,0,1,.071.224c.039.226-.145.54.219.614-.135.558-.252,1.088.247,1.486a.213.213,0,0,1,.082.142c-.044.431.424.327.52.61l.55-.377-.1.541-.456-.175a.881.881,0,0,0,.1.188c.1.11.217.207.373.354l.3-.065c.094.249.235.285.482.019l-.059.737-.336-.311-.041.034.165.383c.374-.138.341.162.344.441l.276-.127-.062.59.375.115c-.24.448.124.7.209,1.04l-.141,0a5.841,5.841,0,0,1,.185.907,3.816,3.816,0,0,1-.114.777,1.148,1.148,0,0,1-.282-.063c-.152-.083-.392-.158-.422-.287-.1-.411-.382-.469-.672-.539l.184-.288-.276.137-.12-.239-.451.268.1.147c-.045.026-.115.085-.131.071-.06-.056-.16-.172-.145-.2.15-.266-.078-.314-.182-.473l-.154.367-.036-.492.1-.035-.409-.231.416-.324.015.33.073.009.148-.347-.092.038a2.8,2.8,0,0,0-.648-.8,2.491,2.491,0,0,0,.009-.34c-.017-.122-.054-.24-.082-.36l.008.012-.373-.038.2-.489.5.07.01-.311c.378.019.209.361.351.539l.02-.593-.594-.112-.021-.1-.192.274-.163-.262a1.053,1.053,0,0,0,.2-.119.176.176,0,0,0,.051-.091l-.365-.185.028-.057-.439.007c.08.312-.038.425-.353.352,0-.189-.089-.479,0-.591.267-.324.042-.3-.145-.342-.055-.012-.111-.018-.2-.031l.021-.613-.034.008-.216.617-.269-.35a.519.519,0,0,0,.04-.745c0,.3-.093.443-.36.324.045.232.4.354.116.626l-.2-.141a.316.316,0,0,0-.044.5c.207.084.141.2.124.338-.011.1-.008.2-.01.267a1.512,1.512,0,0,1-.463-1.1l.295-.525-.285-.119.719-.273c-.164-.161-.246-.307-.357-.339-.386-.113-.509-.293-.448-.751l.2.021-.045-.221.122-.023.068.441.452-.409-.022-.124-.661-.143-.079.162c-.047-.119-.059-.247-.121-.29-.192-.131-.446-.2-.355-.454l-.32-.364c.006.136.071.358.008.417-.255.242-.136.4.061.592l-.262.152a3.263,3.263,0,0,0-.142-.769c-.145-.311.3-.425.144-.723-.3.227-.341-.113-.409-.26a1.306,1.306,0,0,1,0-.513l.1.081c.132,0,.263.01.394.013l-.32-.352.49-.271.065.121-.282.186.042.31.422.049-.389.573.356.118-.043.234.049.017.172-.231a1.431,1.431,0,0,1,.2.352c.112.463.5.484.807.648l.1-.238c.106-.112.211-.226.32-.334.055-.054.117-.1.176-.147l.068-.272.1.217.271-.235-.017.485Zm-3.167,7.5.174.039c-.222.384.193.312.272.461a.533.533,0,0,0-.122.113,1.781,1.781,0,0,0-.089.235l-.106-.267-.211.1.091-.691-.235-.372.143-.113-.312-.142.146-.4.212.429.175.021-.058.081.118.141Zm.566,32.132.07.645c-.114.137-.6,0-.442.532l-.215-.383.441-.327-.168-.235.322-.223.026-.728.485.335Zm-15.836-30.748-.272.531c-.214-.317-.067-.638.525-.91l-.238.359c.189.108.377.217.568.321a.522.522,0,0,0,.139.032.928.928,0,0,0,.007-.174c-.015-.1-.042-.2-.064-.3l.094-.042.374.4a3.347,3.347,0,0,1-.314.218c-.09.046-.23.131-.278.093A6.112,6.112,0,0,1,251.736,147.508Zm.1,35.895a.869.869,0,0,1-.047-.3.91.91,0,0,1,.178-.447.336.336,0,0,1,.36.045,2.585,2.585,0,0,1,.215.59c-.354-.237-.522-.214-.713.1l-.139.373.081-.031a3.365,3.365,0,0,1,.2.331c.011.023-.063.131-.076.127-.074-.027-.2-.067-.2-.118a3.846,3.846,0,0,1,0-.626C251.685,183.43,251.782,183.418,251.834,183.4Zm3.471-34.093.356-.182c.009-.311-.6-.548-.2-.884.11.076.285.134.3.219a4.475,4.475,0,0,1,.011.843.3.3,0,0,1-.143.2c-.039.022-.124-.037-.18-.074a1.272,1.272,0,0,1-.144-.132c-.169.23-.328.005-.511-.053l.392-.217Zm8.192,37.653a.122.122,0,0,0,.017-.029.084.084,0,0,0,0-.031l-.361.113-.242-.548.058-.063c.193.314.523-.109.725.2.055.082.2.123.211.2s-.066.206-.106.311l-.3-.153-.063.265c.087.1.2.181.187.233a2.328,2.328,0,0,1-.162.432l-.078-.042.026-.211-.165-.166-.371.72-.094-.1.057-.181-.427-.123.017-.077.608.125A1.191,1.191,0,0,1,263.5,186.963Zm1.858-46.926.252-.153c-.028.275.2.523.385.789l-.072.064-.206-.126-.278.171-.053-.068.139-.3-.154-.156-.233.55-.282-.286.047-.067.17.035c-.09-.34-.011-.46.288-.45l-.139-.176c-.163.052-.292.1-.423.128a.473.473,0,0,1-.044-.163,1.19,1.19,0,0,1,.343-.2,1.261,1.261,0,0,1,.366.006Zm-20.8,2.033-.144-.347c.114-.137.435-.289.306-.608l.337-.247c-.176-.237.085-.284.161-.327.145-.083.933.366.986.536a.391.391,0,0,1-.031.214c-.053.156-.116.307-.183.482.253.053.351.007.308-.23a.212.212,0,0,1,.069-.162.129.129,0,0,1,.134.022.3.3,0,0,1,0,.182,1.107,1.107,0,0,1-.084.192c.469.154-.061.6.212.769-.113.163-.4.206-.234.511.007.014-.061.077-.093.118-.041-.044-.111-.084-.117-.133-.032-.27-.048-.543-.071-.822l.2-.057c-.06-.067-.115-.141-.18-.2-.1-.087-.267-.15-.284-.249a2.992,2.992,0,0,1,.008-.626c-.089-.038-.189-.045-.213-.095-.15-.321-.306-.356-.6-.115l.193.385-.062.047-.335-.187-.038.075.213.223-.337.318.092.362-.22.033.143.376c-.065.121-.242.266-.113.527.032.064-.074.211-.146.394l-.141-.7-.289.14.124-.439-.191.01-.022-.081Zm-2.982-13.678.211.866c-.088.169-.37.057-.585.128a.249.249,0,0,1-.2-.082.712.712,0,0,1,.089-.372,2.118,2.118,0,0,1,.386-.32l-.148-.333.242.115a.25.25,0,0,0,.054,0c.006,0,.016-.022.013-.026-.05-.086-.1-.171-.195-.322.551.369.551.369.335.855Zm31.6,38.017.249.043.23.041-.013.13-.8.115,0-.068.347-.269-.415-.084c-.01-.209-.01-.209.227-.258l.467-1.157-.4-.423.214-.2c.189.284.373.045.537-.049.076-.043.09-.221.132-.338l-.1-.041-.277.329c-.134-.277-.242-.517-.364-.749-.084-.161-.185-.311-.279-.465l-.1.019.312-.289c-.218-.3.2-.39.15-.643l.28.138.014-.383c.086.066.151.119.218.169a.838.838,0,0,1,.1.917.586.586,0,0,0-.073.36c.013.135.1.259.121.4.046.264.163.322.371.16.056-.045.105-.1.156-.149l-.108-.225.658.145.083.587c.351-.222.607-.513.976-.441a2.126,2.126,0,0,0-.089.5c.016.219-.053.256-.206.227a2,2,0,0,0-.126.7c.041.22.246.4.382.605-.294.242-.188.5-.1.706l.241-.068.026.093-.287.228.012.356-.229-.146a.428.428,0,0,0,.158.255c.059.055.173.127.164.167a.728.728,0,0,1-.156.275,2.752,2.752,0,0,1-.242.239c-.3-.258-.239.116-.313.33l-.169-.332-.32.808-.77-1.291-.075.057-.076.362-.358-.425.085-.09.244.239a1.43,1.43,0,0,1-.04-.439c.036-.117.176-.31.211-.3.281.114.471-.125.7-.2.051-.016.1-.206.08-.295-.038-.158-.149-.292-.2-.449-.062-.2-.091-.419-.132-.615l.247-.031c-.232-.507-.232-.507.024-.647-.177-.208-.332-.25-.471.1l-.013-.446-.08-.025-.12.286a1.2,1.2,0,0,0-.274.11,4.407,4.407,0,0,0-.361.312,3.445,3.445,0,0,1,.064.47,3.968,3.968,0,0,0-.044.524C273.515,166.18,273.455,166.359,273.171,166.409Zm-13.114-13.831-.034.225c.316-.262.248.1.267.113-.115.149-.277.271-.312.427a1.714,1.714,0,0,0,.06.56,2.45,2.45,0,0,1-.3-.056c-.067-.021-.167-.049-.182-.1-.023-.075,0-.241.031-.252.392-.133.134-.328.059-.493.053-.092.144-.176.146-.263.009-.258.134-.207.271-.159l-.128-.372c-.073-.008-.149-.087-.14-.1.117-.185.247-.36.373-.537A1.121,1.121,0,0,1,260.057,152.578Zm-.125,37.231c.033.028.093.056.093.085,0,.192-.122.382.02.579a.955.955,0,0,1,.064.324l-.179.1-.357-.952.369-.141c-.142-.134-.457-.155-.269-.542l.216.3.1-.007.12-1.367c.028.036.045.077.073.092.328.176.469.381.177.759A5.471,5.471,0,0,0,259.932,189.809Zm-.553-2.174-.221-.46.436.1-.11.072.254.038-.276.3-.041.312.17.088-.286.561.415.439-.054.087-.487-.017c.222.4-.281.284-.3.512l-.007-.657.312.152-.06-.42c-.058-.093-.024-.2-.032-.293,0-.049-.129-.119-.123-.129C259.1,188.091,259.241,187.864,259.379,187.635Zm-1.594.878.149.164c-.091.04-.183.117-.271.111a1.36,1.36,0,0,1-.362-.13l.07-.122-.211-.06c-.094-.2-.23-.367-.228-.531a2.365,2.365,0,0,1,.232-.658l.288.716.3-.082Zm9.117-48.877c-.037-.139-.057-.279-.251-.157a.261.261,0,0,1-.267-.058,7.01,7.01,0,0,1-.274-.794c-.012-.039.026-.1.054-.192l.147.19.285-.1-.01.31-.059-.086-.16.082.487.5c-.1-.331.45-.844-.348-.977.175-.11.283-.217.32-.193.1.065.23.179.239.286a7.551,7.551,0,0,1-.019.875l.232-.024.022.065-.405.268-.065.254.2.025-.227.286.221.145-.258.243c-.019-.181-.033-.337-.053-.491a1.111,1.111,0,0,0-.043-.16l-.225.2c.022-.123.011-.241.053-.272A2.955,2.955,0,0,1,266.9,139.636Zm.266,16.535.225-.051-.028-.227c.1.167.279.272.174.54a.692.692,0,0,0,.054.574.71.71,0,0,1,.15.5c.017.178.032.356.048.534l.021-.621.483.486.088-.119.419.115-.293.638.224.1-.208.229.463.1-.037-.563.121-.034.139.313.253.065-.242-.458.331-.171.231.709c.171-.4-.111-.851.285-1.088l-.184-.458.09-.06c.073.115.146.329.219.329.329,0,.2.262.272.434l-.326-.011-.114.463.43.26c-.254.4-.28-.02-.392-.065l-.25.276.211.1c-.044.121-.091.234-.127.351s-.058.226-.094.37c-.418-.279.09-.4.029-.618-.325-.007-.239.4-.448.516-.08-.44-.434-.458-.747-.6l-.071.83c-.105-.077-.186-.114-.183-.138.056-.41-.2-.669-.374-.967-.017-.03-.036-.073-.061-.08-.262-.072-.183-.179-.083-.256l-.07-.391c-.355.219-.291-.133-.354-.311l-.311.171-.028-.554.274.194-.035-1.217-.184-.158.02.47-.4-.082C266.78,156.29,266.972,156.107,267.168,156.171Zm2.071,10.135.269.454.3-.149c-.071.155-.084.243-.127.268-.2.118-.425.2-.614.334-.106.076-.192.228.011.346a1.377,1.377,0,0,1,.254.228l-.253.445.19.212-.067.077c-.115-.121-.3-.224-.33-.365a8.113,8.113,0,0,1-.079-1.1c-.006-.133.007-.267.01-.351a.609.609,0,0,1,.1-.172c.11-.085.231-.155.347-.231l-.172-.6-.177.016-.14-.572c.3-.145.579-.036.683.392l.323.08C269.414,165.707,269.344,166.024,269.239,166.306Zm-7.1-20.031.443-.139-.179.569-.257-.438-.413-.764-.033.255-.421-.081.219-.455.124.417.195-.657c.056.208.089.313.112.422s.029.2.043.3l.119-.021a1.5,1.5,0,0,0-.086-.532c-.09-.148-.278-.224-.423-.332l-.162-.028.131-.205-.394-.145a1.041,1.041,0,0,1-.044,1.277l-.139-.431-.726-.026-.033-.452c.139-.011.319-.088.41-.021.3.228.342-.028.341-.227a2.974,2.974,0,0,0-.13-.678,1.779,1.779,0,0,0-.117-.278l.078-.073c.3.154.368.733.843.556-.023.287-.041.509-.058.731.369-.282.435.209.628.295l.225-.664c.041.411.084.792.115,1.173a.326.326,0,0,1-.066.185C262.37,145.966,262.251,146.12,262.136,146.275Zm2.96,44.483a1.558,1.558,0,0,1,.045.361.209.209,0,0,1-.176.115c-.185-.055-.385-.522-.376-.744a1.353,1.353,0,0,0-.1-.388l-.3.126-.68-.652.688-.281.027.638.676.093-.282-.249.028-.062.151.036c.058-.418.058-.418.352-.523l-.26-.412.108-.2-.194-.215.3-.355.249.235a.944.944,0,0,0-.039-.2c-.025-.05-.079-.085-.1-.135-.058-.183.068-.2.2-.091l.437-.167a.587.587,0,0,0-.337-.483l-.311.284-.432-.356c.053-.156.128-.267.115-.364a1.08,1.08,0,0,0-.184-.324l-.259.034.412-.307.118.412.339.06-.164.282a1.032,1.032,0,0,0,.153.183.453.453,0,0,0,.177.044l.175-.224c.16.212.378.37.383.538a2.9,2.9,0,0,1-.195.814c0,.017-.028.028.023-.02l.015.678-.335-.043.1.569-.3.576-.079-.016.089-.879-.214.075a2.12,2.12,0,0,1-.054.254,1.238,1.238,0,0,0-.064,1.061l-.167.079v.077l.24.076a.649.649,0,0,1,.018-.233,1.769,1.769,0,0,1,.2-.272l.262.255c.246-.15.308.1.379.27Zm-1.361-42.82-.409-.1c-.041-.079-.088-.175-.141-.267-.042-.074-.092-.143-.179-.275l.471.017c-.09-.128-.145-.269-.195-.266a.748.748,0,0,0-.294.14c-.079.045-.154.1-.231.15l-.15-.092c.488-.168.274-.4.161-.6.347-.218-.1-.426.031-.687a6.639,6.639,0,0,1,1.359,1.682l-.235.134-.2.818-.23-.077Zm2.881,6.8c-.244-.224.009-.421,0-.633.178.3.172.391-.012.645l.228.319c.317-.188.268.332.489.351l-.585-.077-.03.256-.174-.178-.092.03.066.42-.042.059-.238-.276c-.1-.055-.263-.041-.219-.321,0-.027-.051-.089-.085-.1-.145-.033-.292-.051-.457-.078l-.141-.49c.158.063.435-.065.361.319l.391-.228.069.14a.743.743,0,0,0-.468-.82l.6-.162.141.453a1.358,1.358,0,0,0-.138.317c-.009.044.094.131.159.175C266.561,154.949,266.641,154.929,266.616,154.74Zm-26.194-13.122-.822-.852.289-1.159c.38.029.349.431.529.617.221.228.093.537.217.83l.124-.284.1.009a1.519,1.519,0,0,1,0,.594c-.059.127-.286.16-.438.238.014.052.02.144.044.151.2.052.406.089.731.155-.428.2-.158.325-.042.48-.341,0-.542-.091-.458-.482C240.372,141.976,240.343,141.939,240.422,141.618Zm26.156,24.547c-.129-.218-.338-.406-.238-.709.558-.136.236.464.418.619l.388-.3a.646.646,0,0,1,.18-.323c.01-.009.1.078.155.12l-.04.064-.179-.045-.057.092.248.209.232-.385.528.478c-.5.5-.513.9-.059,1.076l-.075.411c-.042-.126-.054-.242-.087-.249a1.028,1.028,0,0,1-.608-.495.464.464,0,0,0-.255-.184c-.43-.092-.431-.084-.552-.374l-.192.361-.332-.55.148-.042C266.232,166.2,266.443,166.107,266.578,166.165Zm-15-35.228c-.09-.128-.377-.143-.187-.482l.233.369.111-.321.1.105-.144.275.408-.027-.3.375.155.145c-.093.225-.183.419-.25.623-.015.046.051.125.08.188.047-.033.112-.054.139-.1.151-.257.215-.253.389.063l-.286.081.272.841.07-.071.324.057.138-.418.045.007.029.325c.18.022.405-.012.279.292l-.5-.216c.179.29.328.58.02.871-.036-.087-.056-.239-.113-.258-.332-.109-.607-.4-.991-.361-.07.007-.166-.153-.224-.254-.032-.055-.01-.148-.013-.223a1.622,1.622,0,0,1,.208.151c.024.023.014.087.018.116.463-.111.566-.386.309-.8l-.357-.013a1.132,1.132,0,0,0,.017-.3c-.021-.1-.072-.259-.135-.275-.328-.083-.266-.318-.233-.575C251.238,130.82,251.422,130.929,251.577,130.937Zm1.624,16.82a1.255,1.255,0,0,0-.119-.158c-.221-.216-.139-.344.11-.444.054.135.1.262.154.387.08.189,0,.228-.154.209l.239.234.3-.483a1.522,1.522,0,0,1-.147-.2c.207-.263.186-.627.317-.861l.167.175.3-.8.1.041c-.018.108,0,.262-.061.314a.436.436,0,0,0-.14.514,2.744,2.744,0,0,0,.34.49l-.472.18-.111.1.484.352-.109.065c.032.094.05.257.1.27.228.058.247.089.143.308-.127.268-.24.545-.347.823a.339.339,0,0,0,.026.2c.032.1.077.2.116.3a.263.263,0,0,1-.231-.1c-.041-.077-.011-.207-.059-.272a.915.915,0,0,1-.188-.89c.014-.039-.1-.181-.167-.193a2.339,2.339,0,0,0-.567-.018.85.85,0,0,0-.261.127c-.169.025-.285-.05-.087-.261C253,148.028,253.1,147.889,253.2,147.757Zm14.639,5.729.406.09-.049.218-.333-.034-.022-.278-.588-.839.007-.2.011.012c-.321-.14-.6-.441-.895-.339l-.725-.982.477-.242a2.922,2.922,0,0,0,.057.623c.028.084.181.123.284.161.017.006.091-.1.1-.154a1.042,1.042,0,0,0-.009-.239l-.286-.1a1.182,1.182,0,0,0,.187-.15.478.478,0,0,0,.07-.142l-.443-.232c.07-.054.092-.083.118-.089.137-.033.275-.06.412-.089a4.05,4.05,0,0,0,.033.415c.026.154.075.3.134.527-.159.418-.135.512.225.756l-.124-.817.107-.036.33.324.061-.069-.439-.493c.283.083.5.329.635.015l.372.419-.178.625-.114-.637-.056.018-.119.468.552.281-.042.373.205-.166.147.27Zm-15.508-9.219c-.024-.359-.265.082-.335-.113l.041-.391c.231.1.4.2.294.5.092-.011.241-.065.266-.024a.533.533,0,0,0,.5.223.486.486,0,0,1,.107.036l-.214.132c.161.321.293.12.43-.036l.132.363-.36.057c.193.142.312.359.524.073l.054.113-.425.7.109.217-.24.187-.216-.143.035.22-.679.214.247-.354-.064-.078-.3.24-.394-.014.027-.751-.275.31a1.27,1.27,0,0,1-.1-.383c0-.109.1-.214.151-.321l.076.047-.1.261.061.043.557-.539-.033.951a1.614,1.614,0,0,0,.22.06,2.081,2.081,0,0,0,.25,0l-.2-.18c.217-.033.25-.137.129-.333-.171-.281.027-.7-.278-.947-.021-.017.035-.137.038-.209A.424.424,0,0,0,252.332,144.267Zm18.181,31.351.01.011a1.009,1.009,0,0,1-.17-.055c.051-.411-.262-.426-.552-.582l.4-.023a.7.7,0,0,0-.051-.7,1.482,1.482,0,0,1-.123-.4l-.215.174-.178-.115c.135-.146.052-.565-.169-.813-.035-.039-.166.024-.191.028l-.571-.7.021-.062.59.187-.564-.577.343-.5.137.074.02-.581.054,0,.1.511.245.009-.063.305-.135-.083c-.031.263.318.555-.071.8l.638.022c.34.282-.261.291-.226.518l.267-.084c.009.084.011.17.028.251.02.1.052.2.079.3l.316-.183,0,.1a2.027,2.027,0,0,1,.283.171.47.47,0,0,1,.171.227c.054.275-.043.585.167.825.016.018,0,.072,0,.128l.419.015c-.06.34-.06.34.665.149-.124.134-.276.319-.417.31-.407-.026-.37.3-.464.538l.056.087.515-.326c-.016.1-.044.275-.072.451.324-.08.393-.015.449.5l-.439-.512-.2.4c.2.179.195.208-.023.45a.312.312,0,0,0-.02-.1c-.086-.131-.176-.258-.264-.386-.056.108-.107.22-.171.324s-.147.214-.2.288l-.383-.339Zm2.4-2.778c-.037-.285.1-.6-.114-.859-.029-.036.034-.169.065-.252a1.23,1.23,0,0,1,.1-.171l-.058-.059-.237.217-.254-.1c0,.008-.009-.066-.027-.206-.111.181-.187.306-.263.432l-.073.539-.089.011-.182-.41.352-.131a4.271,4.271,0,0,1-.286-.358,1.323,1.323,0,0,1-.1-.272l.267-.113-.443-.486.514-.158-.041-.189-.3-.3-.144.184c-.1-.194.077-.507-.218-.572l.084.59-.211-.155.035.323c-.267-.346-.293-.073-.341.126a3.432,3.432,0,0,0-.1-.663,1.572,1.572,0,0,0-.313-.393.645.645,0,0,0,.3-.739,5.549,5.549,0,0,1,.02-.817l.251.432.034-.4.272-.059.141.426.229-.53a.521.521,0,0,0,.048.176c.181.23.142.364-.127.453-.077.026-.128.15-.211.255.658.231.338.767.356,1.194l.239.008.3.394-.14.393.258.219.079-.5.219.531c0-.006-.034.067-.089.178l.531-.328.172-.394.15.829-.227-.021c.338.164-.046.305.014.532l.575-.518c.029.039.122.106.126.181.02.321.017.644.016.967a1.314,1.314,0,0,1-.029.362c-.07.236-.163.464-.261.734-.028,0-.154-.015-.226.044a.889.889,0,0,0-.291.378,2.879,2.879,0,0,0-.064.616c-.077,0-.115.008-.139-.007a4.189,4.189,0,0,1-.23-1.26c.034-.041.122-.058.126-.092a.723.723,0,0,0-.044-.214l-.195.338-.167-.819a.667.667,0,0,1,.187.23C272.784,172.669,272.847,172.754,272.908,172.84ZM250.6,137.679c.018.206-.157.461.139.594.216.1.465.174.4.537-.008.045.061.1.1.161l.261-.178.012-.33.339-.029-.2.8.075.029.115-.254.274.3.047.543.206.061.013.094-.269.08.1.115-.117.682-.2.223c-.015-.012-.193-.131-.185-.15a4.369,4.369,0,0,1,.319-.524l.09-.339-.168-.181a1.921,1.921,0,0,0-.089.228c-.031.124-.048.251-.071.378l-.094-.009-.249-.349-.31.593-.431-.554c.014-.161.028-.315.041-.469a1.9,1.9,0,0,1,.034-.341c.052-.189.133-.369.186-.557a.2.2,0,0,0-.063-.167,3.519,3.519,0,0,0-.364-.2l-.052.417h-.061l-.1-.226c-.072.009-.14.041-.188.02a1.212,1.212,0,0,1-.625-.812c-.023-.075.024-.176.035-.266.006-.042.022-.1,0-.127-.114-.144-.237-.281-.371-.436-.014.024.016-.029.043-.077l-.57-.02.084-.623.324-.15c-.047.653.437.615.757.758l.241-.393.076.042a1,1,0,0,0,.369.886l.135-.262.228-.438.1.022-.286-.317.349-.02.043-1.23.091-.021c.069.123.2.248.2.368a2.644,2.644,0,0,1-.161.6l.076-.024a2.8,2.8,0,0,1,.137.458,2.327,2.327,0,0,1-.036.465l-.228.069.218.328c-.55.095-.2.458-.285.72l-.267-.987-.116.035.126.574Zm14.851,30.8-.249-.135c.214-.5-.269-.837-.282-1.321l-.183.158a2.142,2.142,0,0,0-.549-1.49,1.418,1.418,0,0,0-.37-.334.446.446,0,0,1-.265-.554l.281.135c-.153-.435-.523-.133-.713-.33.126-.1.241-.274.355-.274.474,0,.211-.3.217-.5l-.257-.009a3.821,3.821,0,0,0,.1-.4c-.292-.128-.491.031-.639.358l-.12-.594.228-.046-.025.144.352-.115,0-.292a1.612,1.612,0,0,0,.44-.128c.219-.141.377-.217.352.278l.377-.687.12.272-.29.154.265.207-.472.585a.746.746,0,0,0,.83-.271l.177-.371.094.021c-.013.263.054.365.311.363a.327.327,0,0,1,.215.533c-.076-.341-.2-.481-.365-.361-.19.136-.207-.009-.273-.113l.077.376-.452.11.182.316-.349-.232c-.067.243-.137.463-.185.689-.01.047.05.13.1.17a3,3,0,0,1,.482.4.918.918,0,0,0,.82.5l-.136.609c.513-.043.562.02.5.563l.351.12a1.111,1.111,0,0,0-.125.278,1.52,1.52,0,0,0,.02.334c-.036.1-.075.207-.11.315a1.97,1.97,0,0,1-.057.2c-.3-.047-.28.27-.357.357l-.432.007.4.33-.075.189.162.356-.085.039c-.053-.059-.1-.148-.162-.171-.313-.115-.2-.49-.361-.694Zm9.6-18.885a.382.382,0,0,1-.076-.107c-.058-.216-.074-.475-.389-.376a1.01,1.01,0,0,1-.063-.165l.365-.164.277.567.093-.053-.235-1.172-.132-.053-.006-.131.529-.107.1,1.464-.474.308c.3-.1.19.2.26.433a2.215,2.215,0,0,1,.152-.282c.054-.068.131-.177.186-.17.166.023.077.112.023.2-.018.029.021.108.044.158.089.2.183.393.288.618l-.161-.043.187.965.206.007c-.255.318.007.875-.472.979l.6.185-.019.1-.258.023.276.15-.3.073.554,1.008-.119-.021-.1.316-.2-.086c.033.122.054.207.079.291a1.746,1.746,0,0,1,.158.554,5.193,5.193,0,0,1-.195,1.111c-.087.289-.086.592-.426.815-.544.354-.7,1.069-.989,1.759a2.059,2.059,0,0,0,1.014-.815,8.816,8.816,0,0,0,.593-1.182l.055.021-.07.609.73.025,0,.08-.379.032-.2.477.356.715.158-.067-.151.589-.276-.049c.185.336.147.578-.175.724l.172.217.162-.223.084.027c-.068.424-.45.882.016,1.246l.172-.216.157.459c-.087.08-.2.173-.3.283-.2.212-.194.215-.279.079l.35-.38a2.1,2.1,0,0,0-.57.052c-.137.055-.432.066-.244.412l.421.015-.207.31-.038-.031.037-.183-.057-.025-.3.569c-.448.184-.34-.4-.526-.594l-.355.215-.552-1.732c-.134.168-.235.08-.347-.106a2.182,2.182,0,0,0-.351-.352l-.077.346.294.109c-.674.01-.787-.119-.617-.724l.026.527a.808.808,0,0,0-.059-.993c-.03-.038.012-.145.02-.22l.033-.335c-.111.053-.112-.324-.277-.085,0,0-.1-.04-.118-.08-.078-.212-.141-.431-.211-.647a.442.442,0,0,0-.258-.28c-.119-.057-.2-.208-.3-.318a1.827,1.827,0,0,1,.28-.258c.234-.136.479-.249.739-.382l-.008.239.1.048c.117-.232.238-.464.35-.7.013-.028-.014-.09-.037-.126-.142-.224-.288-.446-.408-.63l.274-.493c.482.077.3-.5.626-.708-.031.269-.068.46-.07.651a1,1,0,0,0,.067.475c.127.223.131.386-.09.538l.8.028.069.237a1.41,1.41,0,0,0,.138-.578c0-.164-.022-.311.181-.318.271-.01.543-.014.815-.02a1.1,1.1,0,0,0-.532-.316.812.812,0,0,1-.685-.62c-.01-.047.027-.1.037-.159a3.2,3.2,0,0,1,.066-.354,2.169,2.169,0,0,1,.137-.291l-.385-.306.6-.586.177.392.09-.055-.353-.669.315-.487a.76.76,0,0,1-.093-.2,1.394,1.394,0,0,1,.006-.306l-.346.587-.228-.227-.1.2-.073-.014.093-.781-.191-.007-.2-.565-.1.42a.945.945,0,0,1-.32-.02.387.387,0,0,1-.163-.2,4.2,4.2,0,0,1,.524-.7A3.3,3.3,0,0,1,275.054,149.6ZM261.6,157.835l.029-.835-.282-.107,0-.08.383-.142c-.418-.195-.418-.195-.3-.615-.285-.231-.245-.232-.249-.585a1.851,1.851,0,0,0-.221-.691.27.27,0,0,0-.4-.144c-.038.018-.113-.06-.166-.091l.144-.355c-.2.179-.362.375-.155.675a.409.409,0,0,1,.093-.081.513.513,0,0,1,.128-.018c.068.4-.632.515-.254.983-.324.094-.427.024-.424-.292,0-.057.032-.117.024-.171a.59.59,0,0,0-.072-.158c-.043.032-.087.063-.128.1s-.059.055-.088.083l-.129-.011c.376-.284.273-.514-.017-.75.305.078.47.092.514-.287a2.343,2.343,0,0,1,.353-.714l.686.291.26-.32.331,1.366.317.127a1.5,1.5,0,0,0,1.041,1.33l.133-.307.013.63.143-.219c.045.1.088.285.127.283.18-.008.161.073.166.229a1.217,1.217,0,0,0,.14.674,3.785,3.785,0,0,0,.733.564l-.176.069-.021.1c.107.039.218.071.322.118s.262.083.322.179a11.027,11.027,0,0,1,.547,1.011c.284.593.822,1,1.009,1.662a.193.193,0,0,0,.115.1.666.666,0,0,1,.477.607,2.007,2.007,0,0,0,.114.338l.156-.244c.079.3.455.282.373.641a.1.1,0,0,0,.055.078c.193.036.388.063.612.1a6.785,6.785,0,0,0,.076.893c.073.348-.217.453-.273.705l-.081-.007-.185-.553c-.148.189-.259.317-.487.039-.141-.173-.187-.109-.018-.26a.422.422,0,0,0,.122-.591c-.135-.2-.284-.4-.431-.595-.108-.144-.217-.219-.342,0a.408.408,0,0,1-.137.121l.144.535-.234.021a.573.573,0,0,0-.18-.638c-.087-.076-.084-.278-.111-.425a1.64,1.64,0,0,1,.166-.057l-.339-.464-.151.4-.219-.7c-.113,0-.236.047-.272,0-.048-.059-.032-.184-.036-.281s.033-.249,0-.268a1.052,1.052,0,0,1-.427-.908c-.522-.2-.73-.75-1.073-1.035l-.441.169a5.264,5.264,0,0,1-.488-.208c-.05-.027-.114-.143-.1-.179a.58.58,0,0,0-.305-.8.529.529,0,0,0,.168-.774l-.266.558-.325-.232.425-.353c-.055-.377-.055-.377-.391-.459l-.344.722C261.915,157.448,261.91,157.651,261.6,157.835ZM250.146,183.72l.184.6-.5-.455c.376-.251.074-.462-.05-.634-.14-.2-.335-.391-.622-.184-.011-.073,0-.165-.039-.2s-.166.008-.172-.011c-.046-.17,0-.383-.209-.47a.512.512,0,0,1,.014-.13c.216.044.093-.106.077-.175-.035-.14-.085-.276-.129-.413l-.079.017a1.1,1.1,0,0,1,.023.277c-.017.1-.074.263-.115.264a2.7,2.7,0,0,1-.618-.072c-.041-.009-.08-.128-.087-.2-.012-.136,0-.275,0-.413s0-.3,0-.452l-.1-.022.215-.093a2.292,2.292,0,0,0-.7-.289c-.246-.014-.222-.171-.162-.27a3.718,3.718,0,0,1,.431-.51l.124.005c-.2.354-.037.353.089.337.015-.137-.008-.312.047-.35a1.476,1.476,0,0,1,.426-.143l.025.087-.21.24.035.043.238-.1.091.285c.049-.115.092-.3.137-.3a.612.612,0,0,1,.334.135c.036.026.023.138.037.243l.444-.167.091.185-.33.194c-.053.2.2.487-.056.735l.243-.2.074.069-.167.417.045.032.371-.466c.009.156-.025.311.029.375a1.252,1.252,0,0,1,.206.841c0,.091.1.177.151.255.048-.192.072-.393.1-.395a1.976,1.976,0,0,1,.445.068l-.023.12-.246-.079c-.086.466-.086.466.2.68l.019-.166.065,0,.11.567C250.418,183.364,250.361,183.7,250.146,183.72Zm-16.921-54.348a.644.644,0,0,0,.739.14l-.218.351c0,.006.045.082.078.162s.063.184.086.254l.336.065-.068.372c.161.072.426.109.452.217a2.23,2.23,0,0,0,.368.808,1.628,1.628,0,0,1,.127.5l-.623.124-.116.218-.076-.695c-.115.045-.227.13-.322.113-.072-.013-.123-.157-.226-.3l.576.02c-.043-.1-.1-.172-.16-.169a.482.482,0,0,1-.533-.429c-.033-.159-.109-.184-.215-.248-.141-.084-.244-.327-.373-.335-.308-.021-.249-.189-.217-.4.056-.37-.1-.57-.373-.595l-.321-.373-.054.048.139.551a4.18,4.18,0,0,1-.393-.285c-.037-.034-.124-.195-.162-.2.363-.148.445-.282.27-.518-.221-.3-.023-.324.18-.37-.2-.308-.066-.377.18-.347l.067.553h.09l.135-.243c.346.308.41.315.522.064l.31.05.128.332Zm37.753,61.889c.081.392.4.321.657.39-.338-.064-.273.582-.642.447l-.027.182c-.113-.033-.253-.111-.285-.075a.874.874,0,0,0-.162.362c-.053.216-.081.44-.123.68l.319.126-.288.352-.161-.345-.362.16-.3,1.613h-.1l.048-1.377.206-.348-.425-.11.475-.172-.231-.632c-.1-.321-.422-.533-.261-.9l.4-.5.317.242,0-.025-.239-.168.112-.141.821-.132.047-.49C271.268,190.78,271.288,190.891,270.978,191.261Zm-25.1-54.885c.22.237.171.422-.094.611l-.545-.879-.211.277-.429-.366-.261.178.19-.779-.47.12c-.137-.2-.022-.367.265-.54l-.426-.057.306-.372a1.962,1.962,0,0,0,.409.291c.082.031.216-.041.3-.107.026-.02-.022-.175-.051-.262-.039-.118-.092-.23-.126-.311a1.712,1.712,0,0,1,.416.022c.095.028.23.107.247.19a1.76,1.76,0,0,1-.068.5l-.143-.39c-.139.45.249.506.319.792l-.3.213.395.187-.148.478.065.037.207-.2.163.176.122-.242.12.077c.01.093.051.2.018.273C246.122,136.349,246,136.345,245.877,136.376Zm2.887,3.7.171.952c-.382-.072-.308-.241-.143-.435l-.389-.056c.183-.378.148-.641-.081-.716l.044.278c-.141-.066-.309-.1-.318-.159a.993.993,0,0,1,.1-.381l-.335-.357.021.63-.24.18c-.053-.283-.115-.579-.16-.879a.649.649,0,0,1,.009-.368c.134-.228-.033-.29-.133-.4s-.193-.224-.258-.3l.693-.591.372.528a2.994,2.994,0,0,0-.25.527c-.054.2-.052.423.18.519.087.036.18.054.339.1l-.042-.334c.3-.089.424.021.418.453l-.207-.135.211.732c.18.086.4.228.54-.142.338.284-.116.308-.08.43Zm-2.041-6.867c.119-.265.256,0,.344.08a7.542,7.542,0,0,1,.572.669l.047-.038-.114-.553.134.106.056-.479.417.015-.035,1-.194.038.132.49.2.156-.326.109-.14.93c-.365.071-.3-.214-.284-.379a.5.5,0,0,0-.223-.537c-.054-.039-.062-.156-.091-.238a.807.807,0,0,1-.089-.917l-.546-.019.057.224c-.071-.023-.172-.022-.206-.074a.716.716,0,0,1-.123-.347,3.263,3.263,0,0,1,.066-.525Zm8.495-3.138.516.635.247-.493.152.189c-.237.234-.464.455-.688.68-.069.069-.2.188-.185.215.1.206-.048.2-.148.259s-.216.132-.324.2l-.1-.2c-.018.122-.027.179-.025.166l-.407.026-.862-1.128.135,0-.074-.384.068-.024.073.175c.081-.028.187-.089.2-.067a2.692,2.692,0,0,1,.2.37.617.617,0,0,1,.178-.138,1.208,1.208,0,0,1,.407-.065c.027,0,.034.172.079.244a1.338,1.338,0,0,0,.235.215l.035.578a1.208,1.208,0,0,0,.159-.3,1.006,1.006,0,0,0-.035-.3l.225.127-.074-.491-.214.014Zm-8.422,8.68.078.009c-.068.13-.113.34-.211.376-.292.108-.2.246-.107.346a2.611,2.611,0,0,1-.219.3,1.362,1.362,0,0,1-.26.158,2.571,2.571,0,0,0,.238-1.422l.228.025-.376-.373-.02.577-.432-.838.3-.11-.246-.179.106-.537a.288.288,0,0,1,.111,0c.206.048.423.139.42-.252,0-.023.164-.093.212-.064a4.869,4.869,0,0,1,.483.385c-.393.1-.019.738-.658.69.335.186.428.36.28.634C246.7,138.525,246.77,138.652,246.8,138.748Zm16.8,45.834-.04.076a1.057,1.057,0,0,1-.3-.216,3.63,3.63,0,0,1-.251-.564l-.134.488-.552-1.239-.259-.058.106.015c.087-.148.181-.292.26-.445.125-.243.216-.2.283.046.252-.482.37.2.483.077l-.311.018.947.631-.09.368-.19-.046.118.234-.341.154Zm-7.089-33.51c.007.2-.032.361.024.454a1.027,1.027,0,0,0,1.122.431l-.021.6-.212.216-.147-.568-.055,0-.019.539c-.272.035-.268-.151-.267-.347s-.007-.355-.263-.275c-.05.016-.2-.128-.2-.2-.019-.468-.011-.47-.414-.352l-.024-.424-.071.1a4.45,4.45,0,0,1-.509-.126c-.073-.026-.127-.12-.2-.2l.188-.11c-.276-.284-.216-.6.167-.781l-.24-.129c.084-.115.2-.2.248-.165.122.089.314.249.3.345C255.8,150.712,256.254,150.852,256.505,151.072Zm6.1,9.466c.059-.208.117-.385.159-.567.055-.239-.063-.553.24-.68a2.654,2.654,0,0,0-.009.759c.048.17.264.282.395.409-.157.028-.266.016-.327.07-.035.031,0,.172.019.259.033.139.081.274.123.411l.457-.179-.034.322-.236-.086a.487.487,0,0,0,.712.138l-.039-.208.381-.133-.235.544c.362.167.445.316.34.552-.033-.046-.06-.123-.105-.139-.451-.155-.768.161-1.121.418,0-.185.069-.345.054-.494a1.31,1.31,0,0,0-.195-.4l-.24.1a1.361,1.361,0,0,1-.076-.446A.617.617,0,0,0,262.607,160.538Zm1.72,32.9c-.1.119-.21.187-.235.28a1.071,1.071,0,0,0,.01.39c0,.028.071.046.109.069.006-.1.011-.2.018-.307,0-.022.008-.045.022-.113l.434-.04c.158.191.268.322.376.454a.205.205,0,0,1,.026.056,1.113,1.113,0,0,0,.092.214c.064.088.173.149.208.246.016.048-.085.157-.145.225-.166.189-.339.371-.557.608l-.438-.974-.248.278-.09-.486c-.06-.064-.15-.165-.135-.243a3.739,3.739,0,0,1,.188-.555c.036-.1.077-.193.116-.289Zm2.145-8.116.661-.917-.7-.1-.015-.074.5-.143-.26-.16.238-.176-.378-.1.036-.365.041,0-.016.168c.464-.217.321.391.557.478a1.875,1.875,0,0,1,.293-.266c.031-.02.165.069.178.128a3.771,3.771,0,0,1,.046.506l-.168.36-.253-.188.025.595.707-.165-.319.579.2.294-.268.17.02-.562c-.243.422-.294.013-.437-.034l0,.338-.061,0-.091-.292ZM252.18,184.6c.106-.445.3-.591.61-.374-.054-.232-.02-.309.193-.184a1.572,1.572,0,0,0,.417.1c.044.012.084.042.054.027.044.713-.325.936-.855.961.119-.354.025-.565-.269-.6l.107.769.083-.158c-.12-.038-.239-.076-.359-.112-.1-.031-.223-.109-.307-.077s-.129.178-.229.331l-.173-.552.179-.031-.45-.536.068-.069.482.34.192-.071.013.061-.248.267.055.048Zm9.628-1.772-.3.5c-.088-.341.1-.819-.417-.854l.109-.56a.44.44,0,0,0-.289.168c-.078.092-.144.2-.247.338a2.54,2.54,0,0,1-.038-.355,2.174,2.174,0,0,1,.059-.27c0-.016-.039-.036-.045-.059-.026-.1-.052-.206-.07-.31s-.028-.212-.049-.378l1.635.9-.474.34Zm-34.878-38.1.014,1.23-.149-.006.078.27a2.129,2.129,0,0,1-.267-.048c-.033-.01-.053-.066-.083-.1-.291-.289-.081-.711-.221-1.04.321-.359-.032-.465-.129-.657l-.085-.445.5.067.09-.175.453.95Zm20.667-2.534a2.838,2.838,0,0,1,.338,1.236l-.405-.142-.046.337.124-.034.056.756a1.43,1.43,0,0,1-.153-.2,2.954,2.954,0,0,0-.335-.721c-.339-.378-.236-.843-.334-1.267l.114-.066.224.357.065-.24.427-.331.113.182Zm17.876,38.845c.038.144.036.291.1.334.2.145.236.139.153.416-.041.139-.182.243-.278.363l-.092-.047c.082-.216.146-.422-.062-.427l-.309.2c-.039-.078-.128-.178-.109-.23a4.018,4.018,0,0,1,.261-.51.635.635,0,0,1,.048-.071l-.224-.083-.166.311-.046-.927c.252.132.25.129.473-.044.034-.026.1-.006.146-.008l-.019.169c.211-.039.418-.12.474.1a1.053,1.053,0,0,0-.127.24,1.528,1.528,0,0,0,0,.278Zm-25.4-50.907-.282.313c-.07-.357-.133-.7-.209-1.044-.012-.052-.087-.086-.131-.129-.152-.149-.3-.3-.453-.449l.061-.093.46.1c.111-.7-.51-.461-.74-.7a.613.613,0,0,1,.85.106,2.341,2.341,0,0,0,.1.247c.067.1.165.185.233.289a1.385,1.385,0,0,1,.071,1.126A.745.745,0,0,0,240.072,130.129Zm24.173,56.7a1.975,1.975,0,0,0-.392-1.363c-.45.232-.012.582-.039.861l-.644-.445a2.187,2.187,0,0,0,.378-.309.379.379,0,0,0,.015-.306c-.031-.076-.143-.111-.221-.165l.083-.315c.372.028.372.028.872-.259l.067.384-.275.13.028.078.344-.114-.245.658.338.507Zm-3.186-38.919-.04-.112.29.163-.288.247.361.277c-.243.565-.243.565-.694.542l.16-.337-.34-.248.3-.154-.2-.16-.526.344a3.34,3.34,0,0,0,.09-.4,2.327,2.327,0,0,0-.014-.35l-.468.327-.094-.057a3.955,3.955,0,0,1,.176-.479,5.663,5.663,0,0,1,.331-.5c.056.108.143.255.211.411a2.133,2.133,0,0,0,.189.482.735.735,0,0,0,.395.185C260.939,148.094,261.005,147.97,261.059,147.906Zm-12.973-16.257-.423-.037-.024-.7-.448-.228a1.612,1.612,0,0,1,.2-.381c.052-.051.171-.019.26-.025l0,.08-.227.181a1.9,1.9,0,0,0,.327.138.174.174,0,0,0,.15-.093,2.528,2.528,0,0,0,.068-.369l.529.778-.207.243.309.209c-.284.095-.466.186-.255.594l-.6-.084Zm2.94-1c-.036.168-.059.291-.09.411a.788.788,0,0,1-.091.146l-.118-.3c-.5.232-.46-.145-.422-.534l-.147.18-.49-.952a1.253,1.253,0,0,0,.364.058.657.657,0,0,1,.791.544c.032.113.211.176.366.295Zm-10.035,1.51c-.446-.377-.456-.617-.094-.965l-.051.4.462-.424.509.291.162.414.1-.038-.125-.438.5-.324-.227,1.088c-.327-.082-.327-.082-.366.163l-.294-.256.223-.242c-.239-.489-.56.194-.8-.193Zm-3,6.736.015.092c-.151.039-.323.144-.447.1-.108-.04-.212-.2-.3-.048a1.222,1.222,0,0,0-.082.484,1.976,1.976,0,0,0,.017.306l-.047,0-.068-.162a1.716,1.716,0,0,0-.274.466,1.666,1.666,0,0,0,.092.522c-.356.018-.217-.486-.507-.565l.33-.2-.249-.183.023-.082.394.048-.219-.435c.16-.145.476.147.479-.248,0-.361-.134-.488-.451-.5.041-.084.124-.19.169-.173.216.077.421.188.628.286l.093-.19.163.472Zm7.944-8.074.091-.058a1.815,1.815,0,0,1,.186.5c.024.374.331.117.519.351a1.46,1.46,0,0,1-.459.065,1.912,1.912,0,0,1-.435-.215l-.083.11.284.388c-.087.181-.222.269-.42.089-.117-.107-.233-.217-.378-.352l.367-.046-.045-.06.243-.336-.6-.5-.427-.134.38-.225.373.33.205-.244.079.646Zm12.451,11.735a2.131,2.131,0,0,0,.243-.209.638.638,0,0,0,.084-.19c-.231-.134-.079-.4-.162-.576-.008-.017-.027-.028-.033-.035l-.285.117c.18-.318.436-.4.6-.242l-.14.266.119.056.269-.769c.365.219.465.513.1.952l.328-.118-.093.362-.366-.173-.177.71ZM271.993,161l-.429.087.008.086.386-.013-.427.51c-.154-.208-.32-.4-.451-.617-.111-.183-.2-.443-.011-.59a.58.58,0,0,0,.258-.613l.32.928.129-.394Zm-.593,1.585.2-.178-.029.841-.154.039c.181.128.18.147.035.533l.625.125.017.069-.2.109c.049.228.093.417.124.608,0,.018-.083.076-.123.072s-.069-.077-.073-.123c-.01-.134,0-.269,0-.442l-.451.116.11-.286-.081.022-.2-.765c-.169,0-.19-.126-.125-.324.082-.248.153-.5.245-.8Zm-2.846,9.706c-.006.173-.007.3-.016.42-.007.09-.027.179-.041.268l.329-.136a.594.594,0,0,1,.28.714c.3-.092.33.128.367.36a2.36,2.36,0,0,0,.122.408c.028.079.071.151.142.3-.186,0-.312.01-.437,0-.012,0-.021-.074-.032-.114l.212-.005-.369-.594-.207.228.07-.229c-.109-.035-.263-.039-.285-.1-.052-.147.049-.183.174-.153a.331.331,0,0,0,.054-.16,3.184,3.184,0,0,0-.059-.355l-.48.038A.722.722,0,0,1,268.554,172.286Zm-5.261-4.713.191-.538-.051-.026-.08.169-.281-.434.484.149c.013-.141-.016-.3.043-.371a1.513,1.513,0,0,1,.359-.258l-.3-.461.1-.1c.137.112.357.2.39.341a1.884,1.884,0,0,1-.086.649l.269.2-.171.2-.247-.273.066.121-.3.281-.066-.086.311.578c-.158-.05-.25-.087-.345-.106A2.848,2.848,0,0,0,263.293,167.573Zm-31.966-36.142a.867.867,0,0,1,.691-.825l-.335-.116a1.553,1.553,0,0,0,.143-.077c.071-.052.141-.107.211-.161a2.247,2.247,0,0,1,.054.335c0,.06-.048.121-.066.185-.062.213-.027.379.155.454l.092.715Zm46.167,48.612-.121.053-.4-.139-.4.606-.1-.063.113-.8.142.315.1-.512.057.061a2.093,2.093,0,0,1,.227-.2,2.949,2.949,0,0,1,.3-.152l.04.1c-.1.091-.2.179-.3.274-.036.034-.089.1-.079.125a.225.225,0,0,0,.122.109.429.429,0,0,0,.23.041.3.3,0,0,1,.38.256,1.019,1.019,0,0,1-.165.559c-.047.08-.213.076-.326.111l-.016-.064.352-.094-.254-.14ZM271.268,148.9a.534.534,0,0,1,.325-.758c.2-.039.413-.046.62-.067l.08.061-.436.251-.182-.139.147.954c.078,0,.087-.05.1-.054a1.736,1.736,0,0,1,.2-.021v.292c-.04-.034-.1-.107-.117-.1-.151.112-.411-.3-.447-.036l-.475-.429Zm-21.676-3.118-.256-.158.088-.158-.307-.364a1.155,1.155,0,0,1-.228.2,1.248,1.248,0,0,1-.313.07l.017.3.045-.068c-.109-.079-.217-.16-.328-.237-.073-.051-.149-.095-.233-.148l.289-.168-.264-.119.182-.091-.206-.255.49-.007.017.228.05-.062.332.271.651.023Zm.323-4.365-.021.08.2.113-.012.064-.489.016.089-.351-.406-.036-.028-.071.465-.212-.241.025.023-.654.565.194.244.909Zm15.771-5.368.09.043.128.563.188-.108a.678.678,0,0,1,.045.177c0,.221-.013.442-.023.729-.3.215-.359.186-.848-.538a.214.214,0,0,1,.05-.041.111.111,0,0,1,.062-.009c.348.056.41-.075.26-.415C265.594,136.349,265.667,136.185,265.686,136.049Zm-3.932,2.874-.11.27-.245-.237.645-.466-.408-.015.275-.156-.42-.466.057-.093.245.094c.094-.017.259-.108.336-.052a.622.622,0,0,1-.056.966c-.049.036-.113.077-.129.13C261.893,139.067,261.9,139.07,261.754,138.923Zm13.269,41.421.083.036-.158,1.172c-.719-.124-.719-.124-.6-.785l.155.1C274.479,180.4,274.874,180.546,275.023,180.344Zm-20.574,5.126-.13-.019a.717.717,0,0,1,0-.258c.077-.181-.038-.642-.178-.611-.3.064-.3-.185-.44-.378.137-.047.251-.128.35-.11s.184.132.245.181l.229-.222.528,1.047-.524-.274Zm2.184-54.483-.126.01a1.634,1.634,0,0,1,.039-.354c.032-.1.1-.227.175-.249.187-.054.192-.033.167-.226-.01-.078-.02-.156-.031-.244l.333-.155-.018-.3.34.137-.169,1.028-.163-.178-.169.428-.131-.255c-.1.064-.207.131-.312.2Zm10.109,10.219.086.038a3.68,3.68,0,0,0-.013.432c.025.3.328.584.041.907a.326.326,0,0,0,.066.1c.185.2.115.37-.033.552a1.142,1.142,0,0,0-.126.249l-.275-.13c.161-.16.48-.269.336-.517-.458-.3-.166-.688-.284-.946l-.212-.36.076-.051.116.108ZM254.7,179.386l.216-.538.1.028.146.626a1.736,1.736,0,0,1-.571.057c-.165-.039-.232-.093-.255.152-.007.084-.17.17-.276.218-.044.02-.179-.06-.177-.087a1.692,1.692,0,0,1,.085-.321c.066-.233.13-.465.2-.723l.225.077-.017.493.083.011.087-.255ZM268.5,147.6c.5-.2.825,0,.792.421l.21.271a1.076,1.076,0,0,1-.266.069,2.3,2.3,0,0,1-.544-.043c-.1-.023-.237-.118-.248-.2A2.08,2.08,0,0,1,268.5,147.6ZM243.53,133.077c-.274.225-.267.226-.043.449a.505.505,0,0,1,.085.284c0,.025-.092.063-.142.095-.022-.086-.042-.172-.066-.257a.208.208,0,0,0-.037-.054c-.7.087-.7.087-.843-.734Zm16.031,48.559-.077.122c-.116-.267-.529.154-.537-.329a7.185,7.185,0,0,1,.071-.806l.286-.006-.087-.228c.117.04.242.043.305.113a.871.871,0,0,1,.159.361c.012.049-.048.131-.091.183-.1.119-.211.23-.319.346Zm12.947-26.575a1.572,1.572,0,0,0,.29-.385c.093-.292.075-.3.193-.335-.19.282-.19.282.07.391l-.221.254.134.453.273-.146-.015.412-.464-.285-.078.235.219.229a2.909,2.909,0,0,1-.47-.022c-.12-.024-.1-.113.133-.42a.511.511,0,0,1-.124-.691Zm16.482,23.874a1.328,1.328,0,0,1-.394.038c-.209-.053-.55.154-.543-.4l-.168.316-.134-.645.526-.1.115-.237a.807.807,0,0,1-.026.338c-.054.313.064.4.306.155Zm-30.959-26.212a2.961,2.961,0,0,0,.345-.727c.1-.635.075-.639.3-.759a4.767,4.767,0,0,0-.149.62c-.035.326-.023.657-.06.982a1.481,1.481,0,0,1-.162.4c-.007.018-.034.026-.07.05l.22.2-.14.211-.434-1.016Zm2.739,32.617-.112-.089a1.409,1.409,0,0,0,.191-.4c.05-.36-.1-.738.135-1.089.063-.094-.011-.3-.022-.448.121.063.242.126.361.193.012.006.013.037,0,0l-.172.5.086,0,.138.506-.223.124L261,184.4l-.07.058.242.33Zm31.542-6.936-.152.924c-.19-.158-.191-.34.011-.524-.321-.248-.492.524-.815.108l.107-.3c-.14.078-.176.378-.363.162l.078-.748.074.007.4.738.311-.455Zm-52.851-41.21.094.151a.622.622,0,0,0-.514.708.386.386,0,0,0,.085.161c.412-.261.19.248.317.285-.068.111-.119.205-.182.288a.913.913,0,0,1-.142.128c-.09-.215-.28-.076-.471-.118.5-.185.051-.672.366-.855l-.3-.186C238.952,137.536,239.088,137.2,239.461,137.194Zm1.863-6.9.324-.189.035.494-.069.007-.1-.269c-.316.117.213.576-.251.646-.065-.34-.3-.3-.524-.249l-.149-.458C240.928,129.944,240.94,129.944,241.324,130.292Zm32.564,50.137-.067.636-.366-.166c.153-.209.152-.369-.1-.42l.059-.327-.307.388c-.17-.47.211-.559.309-.8l.383.11-.188.359Zm4.342-20.346.091.048-.208.473c-.189-.314-.361-.151-.369.012-.011.244-.111.254-.246.267l.247-.475-.062-.036-.335.423c.038-.342-.162-.218-.306-.181l.311-.512.067.363.042,0,.065-.357.111.074.333-.491.118.648Zm-27.458-18.34.085-.059c.143.125.374.225.41.381a.481.481,0,0,0,.541.416l-.216.362-.05-.026.008-.241-.316-.011-.157.444-.1,0a3.848,3.848,0,0,0-.015-.589A6.167,6.167,0,0,0,250.772,141.743Zm5.983,2.066a3.593,3.593,0,0,1-.348-.328.283.283,0,0,1-.013-.2c.043-.165.1-.325.16-.5l-.242.128-.2-.6.085-.048.232.364.258-.2.352.6-.093.067-.117-.188-.156.109Zm9.97,52.633.277.01c-.256.231.147.237.082.415l-.172.151.157.278a1.342,1.342,0,0,1,.07-.139.735.735,0,0,1,.075-.092l.074.09-.372.387c-.344-.289-.04-.731-.342-1.027-.114-.113,0-.461.277-.554l.168.3Zm-3.375-20.7c.082.335.226.376.414.177.128.529.217.615.568.553l.038.487c-.143-.12-.244-.2-.345-.287-.382-.316-.481-.3-.6.138-.075-.13-.2-.246-.2-.363A4.077,4.077,0,0,1,263.35,175.741Zm2.2,10.7-.054-.421-.489.223-.049-.488-.573-.234c.31-.32.523-.027.738.107l.111-.4.081,0c-.026.324,0,.609.369.626Zm7.462-35.268-.288.906a.326.326,0,0,1-.093-.231c-.012-.1.006-.234-.046-.292-.277-.308-.283-.3-.126-.635l.164.183.424-.4-.118.416.079-.029c.069.11.139.22.2.333,0,0-.022.029-.048.06Zm-36.5-16.128.052-.334.449.458c-.106.043-.163,0-.209.007a1.991,1.991,0,0,1-.464.118c-.093,0-.179-.151-.3-.267l-.2-.007a2.184,2.184,0,0,0,.177-.22,1.134,1.134,0,0,0,.08-.217c.341.113.5-.207.714-.413l-.164.437-.582.2Zm30.993,7.046.494.017a1.069,1.069,0,0,1-.007,1.01C267.5,142.96,267.614,142.454,267.511,142.1Zm-16.438,3.285c.068.2.145.309.126.4-.014.066-.154.1-.237.149s-.191.122-.274.174c-.009-.074,0-.207-.034-.229-.309-.176-.058-.327.03-.44a3.655,3.655,0,0,1,.436-.416c.106-.1.209-.2.357-.338l.125.439C251.15,144.847,251.126,145.19,251.073,145.38Zm12.484,35.048.383-.075.007-.079-.4-.059a2.247,2.247,0,0,0,.367-.323c.248-.339.375-.352.6-.053-.148.217-.3.417-.43.637C263.929,180.738,263.829,180.75,263.557,180.428Zm-23.43-45.986.368.4.064-.061a2.358,2.358,0,0,1-.223-.443c-.025-.086.043-.205.069-.31l.08.03-.066.284c.176.076.167.078.238.433.033.164.122.315.157.479.008.035-.107.1-.2.187-.019-.622-.555-.531-.792-.823l.033-.439C240.031,134.545,240.031,134.545,240.127,134.442ZM270,146.094l.2.379-.028-.447.269-.082c.335.378.341.473.088.728l-.643-.107-.06.218-.062.009-.119-.478.315.046Zm1.987,12.047c-.217-.078-.405-.092-.517-.2a1.551,1.551,0,0,1-.248-.429l.421-.234.631.391-.3-.01ZM262,191.743c-.135-.066-.2-.12-.261-.124-.151-.009-.337-.054-.45.022-.232.157-.328.154-.452-.138.077-.053.155-.1.232-.159.126-.088.269-.269.373-.245A.72.72,0,0,1,262,191.743Zm8.457-24.382.305.011a2.4,2.4,0,0,0-.139.234c-.017.033.01.1-.009.122-.045.061-.1.146-.16.152a.483.483,0,0,1-.206-.058l-.162-.394-.1-.066.4-.414.05.061-.17.028c.018-.124.075-.224.147-.242s.173.037.26.06ZM261.155,191c-.276-.083-.576-.093-.718-.413-.044-.1-.1-.194-.147-.291l.369-.153-.342-.235.241-.049.158.186.1-.349c.044.033.179.115.172.132a3.35,3.35,0,0,1-.207.41C260.636,190.624,260.886,190.812,261.155,191Zm-1.049-55.838c-.319.237.006.59,0,.917,0,.08.006.159.009.238l-.269-.009.089-.077c-.047-.262-.109-.522-.134-.787-.019-.2.076-.457,0-.612-.12-.235-.077-.346.094-.463Zm8.324.894c-.054.438-.119.477-.406.367-.078-.03-.18.014-.271.024l.1.335-.473-.016a4.78,4.78,0,0,1-.008-.6c.008-.082.107-.167.182-.222.031-.023.118.012.16.049.148.13.287.272.425.405Zm-11.822,10.247.387-.746c.206.384.546.642.426,1.121l-.321-.144.18-.233-.474-.062-.156.331-.169-.294.034-.037Zm-15.365-9.255-.051-.023c-.038.138-.081.275-.113.414-.012.054.022.129,0,.17-.039.069-.113.17-.159.163-.073-.011-.136-.1-.2-.157.041-.057.08-.118.126-.17a1.015,1.015,0,0,1,.134-.113l-.195-.251.393-.616-.176-.443.074-.047c.068.16.329.149.229.469A2.912,2.912,0,0,0,241.243,137.052Zm22.371,5.223.3-.641-.311.036.023-.649c.36.463.65.855.473,1.432ZM239.02,140.94l.176-.193.094-.1a.589.589,0,0,1,.086.1c.069.131.135.265.2.4.01.022-.008.06-.016.108l-.3-.139a3.713,3.713,0,0,0,.033.456,3.514,3.514,0,0,0,.138.415,2.483,2.483,0,0,1-.277-.127,2.053,2.053,0,0,1-.211-.181Zm34.971,11.872c.031-.348.065-.707.093-1.067.014-.173,0-.348.028-.518a.914.914,0,0,1,.119-.246l.047.049-.028.8.393-.183c-.081.188-.159.411-.269.612A6.67,6.67,0,0,1,273.991,152.812Zm-36.582-15.5-.374.227.073.257c-.048.007-.105.037-.142.018a2.018,2.018,0,0,1-.224-.855,1.777,1.777,0,0,1,.3-.226l.08.281.245.008Zm20.98-3.873a1.326,1.326,0,0,1,.026-.193.657.657,0,0,1,.079-.162c.038-.058.085-.11.134-.172.24.462.335.478.584.137l.285.505c-.264.152-.494.263-.608-.244C258.721,133.8,258.541,133.332,258.389,133.441Zm10.726,4.427c-.015-.007-.12-.033-.121-.066,0-.082.021-.219.067-.239a.247.247,0,0,1,.248.043,5.255,5.255,0,0,1,.318.621c.029.062.062.181.041.2a.4.4,0,0,1-.215.075,1.549,1.549,0,0,1-.263-.022Zm-28.16.534-.061.081-.873-.431c-.022-.192-.2-.453.061-.649Zm15.555-1.7c.039.423-.3.928.253,1.186l-.474-.1c.189-.492-.119-1.112.224-1.7.038.436.252.383.516.242l-.069.295Zm7.291,45.417-.065.051-.148.619c-.127-.356-.412-.577-.256-.962l.2.225.057-.045-.108-.236.028-.09a1.334,1.334,0,0,1,.443.215c.068.071.027.267.035.407l-.109.036Zm-2.27-31.93c.275-.226.26-.219.137-.519a1.59,1.59,0,0,1-.115-.568c0-.167.03-.162-.15-.151-.033,0-.069-.067-.1-.1.459-.353.438.272.733.359l-.364.155c.657.092.015.691.344.88l-.062.1Zm-6.235,36.6c-.534.228-.6.2-.845-.278l.459.232.054-.066-.623-.681c.46-.245.408.176.5.433l.165-.158ZM242.158,140.43l.008.168-.106,0a1.867,1.867,0,0,1,.023-.405c.02-.077.15-.195.176-.181a1.179,1.179,0,0,1,.226.235,4.207,4.207,0,0,1,.3.316,1.326,1.326,0,0,1,.123.279l-.693-.024.184-.285Zm.171.425.1.141-.23,1.436-.215-.28c.022-.01.066-.032.032-.015a2.6,2.6,0,0,1-.033-.425,2.8,2.8,0,0,1,.1-.3c.032-.162.049-.328.072-.492l.065.014c.014.066.029.131.022.1Zm34.019,21.993.058-.014a.659.659,0,0,1,0-.238,1.5,1.5,0,0,1,.176-.276c.212.231.28-.011.413-.128l-.141.342.286.112-.534.153.114.511-.15.039-.054-.348-.39-.057.115-.264Zm-5.45,7.835c.024-.006.11,0,.127-.037.112-.236.19-.192.3.008a.853.853,0,0,1-.157.872l-.278-.473Zm-26.373-41.388a2.791,2.791,0,0,0-.013.624.549.549,0,0,1-.256.64,1.608,1.608,0,0,1,.114-1.349Zm-11.841,4.75.176-.342a4.132,4.132,0,0,1,.42.558.559.559,0,0,1-.334.688C233.454,134.339,232.637,134.38,232.684,134.045Zm24.763.956a.967.967,0,0,1,.233-1.3,3.183,3.183,0,0,1,.036.7A2.766,2.766,0,0,1,257.447,135ZM270.3,168.272l.076.016.11.819-.07.1c-.109-.466-.315-.089-.484-.157a.738.738,0,0,1,.044-.724c.007-.011.028-.012.027-.012l.2.186Zm-28.469-31.289-.15-.03.255-1.272.346.08-.249.936-.11-.263Zm19.961-2.907.018-.057c.182.092.37.172.543.28a1.942,1.942,0,0,1,.28.266.464.464,0,0,1-.106.643l-.083-.358-.035.036ZM249.7,143.4l.117-.051a1.189,1.189,0,0,1,.246.856c-.006.08-.14.2-.227.21a.343.343,0,0,1-.262-.135,1.346,1.346,0,0,1-.153-.332l.441-.177Zm7.42,37.456-.423-.091-.038.144.4.133-.191.424a2.11,2.11,0,0,1-.277-.3c-.093-.148-.211-.3.022-.467.112-.08.163-.262.273-.451l.11-.006Zm-7.451-54.984.083,1.123-.09.008c-.046-.073-.08-.193-.14-.212-.281-.087-.2-.395-.317-.58Zm-2.257,18.857a.343.343,0,0,1-.106.025c-.09-.01-.18-.03-.27-.047a1.124,1.124,0,0,0,.159-.194c.1-.208.151.034.232.032a2.069,2.069,0,0,1,.332.033c.111.481-.277.354-.442.529l.175.032,0,.091-.328.03Zm15.574-9.1-.171-1.16c.135.1.272.154.326.259a2.483,2.483,0,0,1,.142.523C263.363,135.6,263.274,135.7,262.981,135.63Zm3-2.913c.438-.171.438-.171.55.446C265.941,133.4,265.941,133.4,265.978,132.717Zm-26.191.536c-.162.006-.352.073-.471,0-.1-.064-.125-.285-.19-.454l-.048.312c-.081-.046-.169-.066-.207-.126a.585.585,0,0,1-.042-.236c.307-.07.178-.256.042-.5a.99.99,0,0,1,.487,1.011l.354-.407Zm13.683,1.2c-.166.09-.276.163-.4.212-.077.032-.187.069-.242.031a.277.277,0,0,1-.071-.246,2.955,2.955,0,0,1,.289-.417l.091-.009.029.275.078-.084.077-.3.072,0Zm14.1,10.45a2.974,2.974,0,0,1,.272-.366c.047-.046.141-.032.214-.044l-.033.248.519.018c-.266.292-.626.22-.844.459l-.048-.041Zm-8.779,45.185c-.322.141-.369-.2-.543-.328l.034.3-.44-.295.45-.538.129-.029C258.043,189.809,258.775,189.717,258.787,190.091Zm-.6-53.92c-.161.783-.161.783-.669.72l.068-.606h.063l.08.2Zm7.423,27.739.38.267-.3.813c-.182-.213.175-.632-.279-.68l0-.366Zm-29.684-28.417c.038.389.2.157.412.106l-.183.692-.075-.01-.04-.3-.048-.007-.113.492-.177-.731Zm32.733,46.663a1.323,1.323,0,0,1-.1-.428,2.5,2.5,0,0,1,.219-.528l.036.806c.47-.008.47-.008.519-.42.071.144.155.257.136.284-.122.174-.267.33-.426.518l-.048-.27ZM249.191,132.6l-.05.007-.189-.515.052-.024.09.22.1-.292.124.193.075-.369.082.009a3.01,3.01,0,0,0,.083,1.268ZM226.75,147.575l.027.073a.809.809,0,0,0-.12.271c0,.039.13.088.248.161l-.355.823-.092-.038.161-.454c-.066-.029-.08-.09-.07-.347l-.243-.123Zm39.732,41.151-.048-.018.075-.5.754-.054c-.316.152-.4.4-.24.785l-.1-.023-.324-.377Zm3.087-45.506.326-.163-.085-.269c.367-.165.282.208.319.346.074.284-.121.446-.307.555Zm-11.911,42.062.328-.829-.222-.149.086-.1c.158.152.321.3.468.462.022.025-.035.134-.057.208l-.272-.183C258.1,185.065,258.017,185.224,257.658,185.282Zm-12.339-37.789-.1.061a2.158,2.158,0,0,1-.125-.406c-.01-.091.06-.19.076-.29.053-.317.062-.327.408-.265Zm-2.435-8.445c-.372.161-.593-.014-.8-.426l.387.173a.722.722,0,0,1,.015-.233c.014-.035.1-.053.153-.045C242.951,138.567,242.839,138.852,242.884,139.048Zm16.924,3.083a3.947,3.947,0,0,0,.337.593c.255.3.264.337.012.584a3.068,3.068,0,0,0-.227-.5,4.973,4.973,0,0,0-.46-.515Zm-23.9-10.373a1.434,1.434,0,0,1,.061-.177c.019-.043.061-.1.093-.106a.2.2,0,0,1,.165.062c.113.2.21.414.322.642l-.47.036ZM253.661,181.5l-.21-.416a.7.7,0,0,0-.038.305c0,.015-.1.049-.1.041-.043-.074-.114-.162-.1-.234a5.365,5.365,0,0,1,.154-.595l.446.428Zm-2.226-2.613.2.32.172-.5.077.022-.112.671-.528.156-.12-.316Zm13.525-7.783-.124,1.068-.124.006c-.031-.131-.073-.26-.091-.393C264.546,171.233,264.548,171.232,264.96,171.107Zm-5.123-39.819-.09-.084c.267-.256-.089-.778.372-.969l.123.747.156.125c-.155-.017-.258-.06-.337-.029S259.91,131.215,259.837,131.288Zm-.89,11.717.206-.389c.331.524.324.65,0,.747l-.556-.5.054-.072ZM245,141.454c.279.3.528.569.767.843.032.036.018.12.036.276l-.842-.666Zm24.5,11.156.268-.508.293.582c0,.121.015.205-.014.256a1.394,1.394,0,0,1-.195.233l-.064-.049.087-.381Zm-7.166-16-.2-.218c.09-.246.157-.431.228-.614.008-.021.04-.031.059-.047.131-.108.231-.019.355.043Zm1.574,8.815c-.03-.057-.054-.149-.089-.155a.222.222,0,0,0-.162.081c-.022.026-.008.1.008.152.036.109.082.214.136.35l-.309.024.123-.885.548.019Zm-25.208-9.88-.075-.04-.306.2-.02-.038.309-.394.341.366-.2.636-.286-.294Zm-8.312-5.618-.115-.617c.255.342.72.287.746.814-.232-.018-.538.128-.435-.361Zm38.195,66.707-.724-.026c.038-.186.058-.473.1-.479C268.264,196.093,268.447,196.3,268.584,196.636Zm-3.132-22.09-.553.234-.079-.17.605-.451-.035-.391.07-.039.192.326-.1,0Zm-11.76-37.17c-.289-.123-.534-.5-.9-.137l-.03-.155.555-.323-.011.087.528.132Zm14.883,19.611.234-.491-.191,1.145-.385-.19C268.3,157.174,268.331,156.924,268.575,156.987Zm6.2,15.383.077.042-.142,1.2-.156-.013-.013-.861Zm-31.39-29.13.358-.143-.062.46.1.023.147-.579.265.24-.433.625-.191-.531-.124.118Zm21.682,6.24.125-.452.243.519c.015-.024-.021.037-.043.073l.271.3-.064.095c-.085-.052-.172-.1-.256-.156-.138-.09-.274-.181-.408-.276-.065-.046-.125-.1-.187-.151l.062-.081Zm11.394,28.611-.126-.6c.37-.141.524-.06.578.263-.149.1-.326.159-.4.288-.14.237-.233.121-.346-.017Zm-46.285-42.98-.255-.549.158-.049-.1-.4.059-.02.437.634Zm21.8.921.606-.36c.006.2.409.557-.15.575ZM264.3,170.927a.964.964,0,0,1,.055.318c-.027.152.053.392-.254.38-.071,0-.157.343-.236.529C263.784,171.675,264.125,171.349,264.3,170.927Zm2.868,23.623-.1-.329c-.3.213-.38.2-.4-.014l.731-.2.077-.2c.284.138.161.283.036.416C267.414,194.332,267.3,194.427,267.169,194.55Zm1.76-40.242-.553-.564.689-.177ZM256.9,185.925l.527.495a1.431,1.431,0,0,0-.271.07c.018.375-.228.139-.384.258Zm6.677-12.856c.112-.218.139-.619.412-.458.3.178-.067.442-.061.712Zm8.006,17.143.437.386-.1.136-.277-.235-.244.354.033-.945.14,0Zm-.682-30.354c.243.43-.05.643-.29.972l.034-.967Zm-7.572,18.831.061-.508.262.155.043-.448.561.019Zm-19.7-36.785.047.011a.79.79,0,0,0,.041.3c.082.133.1.238-.038.256-.5.068-.341.29-.134.544,0,.007-.012.036-.042.122l-.42-.428c.256.03.154-.577.438-.317Zm26.531,13.93c-.334-.049-.229-.367-.239-.609a.788.788,0,0,1,.072-.244,1.318,1.318,0,0,1,.249.18.291.291,0,0,1,.03.2C270.25,155.51,270.207,155.651,270.162,155.834Zm.191,9.656a1.341,1.341,0,0,0-.193,1.289c-.582-.326-.062-.743-.173-1.051Zm-5.265,11.152-.111.081c-.067-.12-.186-.239-.188-.361a1.507,1.507,0,0,1,.144-.461l.235.166.1-.147c.178.426-.271.294-.322.473Zm6.7-22.534.161.046a.574.574,0,0,0,.168.824l-.629-.022Zm-7.144-20.866c-.286.2-.538.416-.472.846l-.379-.5c.34.041.4-.224.447-.475Zm-14.466,2.691c.306-.363.531-.68.376-1.147l.091-.011.225.361-.376.658.056.042Zm-6.028-3.571-.061.051.164.18-.167.666-.182-.821c.333-.25.361-.249.595.087Zm6.117,12.9-.108-.022c.043-.236-.108-.565.219-.664.111-.033.265.112.453.2l-.325.27-.136-.32Zm5.641-5.554.09-.235.212.319-.242.419-.47-.287ZM284.7,178l.453-.305.086.083-.273.734ZM253.9,127.3l.161.46.236-.029-.051.458-.2-.2-.133.332-.1-.55Zm21.457,52.558.056-.512.267-.054c-.062.312,0,.542.333.588l-.318.346-.13-.518Zm-36.369-37.716-.066.089-.149-.632-.171.167.041-.189a3.574,3.574,0,0,1-.336-.347c-.017-.022.057-.125.089-.191.02.282.169.267.289.224Zm25.082,10.792c.3-.278.3-.3-.019-.5l.186-.248c.051.119.084.2.119.278.164.363.122.9-.068.832l.028-.284Zm-22.975-23.3c.235.041.727-.356.61.378C241.509,129.814,241.213,129.894,241.1,129.638Zm-5.289,1.9c-.027.012-.123.071-.133.057-.141-.2-.27-.411-.355-.545l.224-.245ZM257,143.72l-.118-.461c.075-.008.186-.053.218-.016.106.125.2.266.023.436a1.023,1.023,0,0,0-.155.286l.077.236a.547.547,0,0,0-.159-.1c-.052-.012-.113.02-.219.044Zm-2.75-8.428-.366.2-.057-.481-.12.244-.108-.122a1.082,1.082,0,0,1,.149-.153,2.243,2.243,0,0,1,.238-.127Zm15.468,19.179-.072.1c-.1-.039-.2-.123-.285-.1-.208.042-.147-.119-.162-.218-.018-.123-.023-.248-.044-.487Zm-32.288-20.909c-.129-.1-.261-.2-.385-.308a1.016,1.016,0,0,1-.128-.166c.062-.049.12-.13.187-.141C237.383,132.9,237.557,133.238,237.428,133.562Zm27.025,53.919.236.263a4.315,4.315,0,0,1-.573.08c-.073,0-.16-.078-.218-.145-.029-.034-.006-.122-.007-.186a1.565,1.565,0,0,0,.225.025C264.218,187.515,264.32,187.5,264.453,187.481Zm4.437,4.487-.023.654-.458-.142.069-.322.057.083Zm-33.2-50.3-.12-.005c.036-.293-.355-.525-.091-.853.372.251.382.284.185.47Zm4.751,37.489-.233-.177.123-.169-.065-.074-.422.431-.085-.562C240.416,178.709,240.451,178.736,240.445,179.152Zm17.062-40.792.3-.358.291.2-.2.336Zm4.193,4.9c-.032-.218-.111-.438-.063-.481a2.11,2.11,0,0,1,.542-.257l-.046.485-.1-.009-.132-.215Zm5.32-5.591c-.266-.544-.139-.861.206-.853Zm-5.614,22.646.113.482-.088.043c-.054-.078-.158-.162-.151-.234.027-.258.051-.493-.247-.538l.394-.159.1.315Zm6.016,29.2.047.039-.333.762-.238-.36Zm3.6-44.69-.122.049-.379-.711.557.02C270.872,144.34,270.876,144.576,271.018,144.826ZM242.1,128.892l.356-.036-.025.695-.093.022-.293-.52Zm23.658,48.7-.164-.5.2-.326c.206.874.206.874.092.845l-.018-.3Zm-4.8-41.54c.286.189.281.386-.028.831l-.269-.452.3.01ZM234.2,133.7l.418.525-.062.057c-.2-.2-.361-.18-.517.105C234.213,134.178,233.9,133.83,234.2,133.7Zm43.151,25.81a.383.383,0,0,1-.211.553c-.057.022-.191-.2-.307-.322Zm-14.486,21.419a3.578,3.578,0,0,1-.4-.393.3.3,0,0,1,.045-.263c.06-.064.173-.068.227-.086.012.114,0,.27.035.285C263.021,180.577,262.92,180.738,262.868,180.931ZM228.32,144.169c-.391-.227-.391-.227-.307-.554.126.081.19.353.409.157.009-.008.064.02.07.041a.16.16,0,0,1-.008.114C228.441,144,228.387,144.072,228.32,144.169Zm2.552-10.762.238-.175.413.192c-.286.3-.284.3-.511.053A.479.479,0,0,0,230.872,133.407Zm45.88,30.292.027-.19c.313.055.272-.224.334-.416a.174.174,0,0,1,.135-.093c.03,0,.094.09.086.121a.846.846,0,0,1-.124.2l.135.319Zm-12.373,28.615c-.112.1-.192.16-.261.233-.021.022-.014.077-.019.116-.044-.018-.1-.023-.128-.058-.075-.1-.137-.214-.172-.271l.289-.322Zm19.9-15.246.276-1.034h.064l-.11,1.2ZM257.82,155.061c-.107.611-.421-.082-.579.154a.861.861,0,0,1-.089-.092.076.076,0,0,1,0-.064c.11-.1.223-.19.336-.283l.061.091-.16.22Zm2.856-20.97.063-.5.52.2-.007.079Zm-15.662,41.556.108.077c.019.189.129.422-.156.487-.072.017-.166-.084-.25-.132Zm14.209-28.238.383-.607.137.723Zm15.6,39.32-.232-.58.134-.2C275.167,186.159,274.859,186.464,274.821,186.729ZM263.634,149.26c-.284.188-.35-.08-.451-.248a.722.722,0,0,1-.05-.233c.1.083.161.184.229.187.088,0,.179-.07.286-.118Zm3.826,31.158c-.074,0-.255.043-.371-.032-.07-.045-.039-.277-.053-.425l.18-.108Zm-4.472-26.4c-.337-.242.161-.4,0-.6l.1-.013.136.733-.407.02,0-.081Zm-9.79-23.871a1.826,1.826,0,0,1-.024.43.294.294,0,0,1-.212.154.3.3,0,0,1-.216-.1.2.2,0,0,1,.015-.182C252.894,130.334,253.041,130.247,253.2,130.143Zm4.522,2.226-.14.027-.252-.465.242.032.037-.384.088,0Zm5.582,47.195c.071-.128.13-.231.185-.336.045-.087.085-.177.127-.266l.076.043-.015.431.123-.163.047.356Zm1.169,4.463-.5.549a6.687,6.687,0,0,1,.128-.758c.02-.071.153-.1.234-.152l.028.052-.17.24Zm.146-15.3c-.227-.211-.1-.312.047-.475.1-.106.088-.327.127-.5l.1.007a3.488,3.488,0,0,1-.033.633C264.832,168.52,264.7,168.617,264.617,168.728Zm-5.527-32.544-.077-.02-.02-.319-.11.354-.1-.042a3.728,3.728,0,0,1,.239-.52c.014-.023.222.049.285.129s.021.211.031.4l-.167-.272Zm-4.013-2.706c-.049-.066-.1-.1-.1-.135a2.542,2.542,0,0,1,.046-.3c.065.027.129.057.2.08.2.071.409.138.614.207a.464.464,0,0,1-.275.067C255.4,133.4,255.225,133.163,255.077,133.478Zm.488-1.024.079,0-.37.215-.268-.223.654-.327Zm.605,17.3c.114.018.255-.006.308.057a.5.5,0,0,1-.076.624Zm7.292,43.166c-.183.111-.5.155-.174.438a.29.29,0,0,1-.07.2.186.186,0,0,1-.193-.018.3.3,0,0,1-.075-.145l.159-.491Zm-5.546-5.486-.052-.006-.16-.367-.066.253c-.214-.165-.214-.165.249-.538Zm-16.533-45.2.145-.06c.066.118.209.266.182.347-.05.151-.2.263-.352.445Zm27.967,54.288-.4.041-.007-.093.247-.191-.175-.084.124-.553Zm-6.1-5.209c.3.242.3.242-.033.961Zm-16.188-61.634.179-.252c.289.324.167-.158.271-.183l.326.239-.148.138Zm2.126,14.694-.918.072c.293-.189.5-.4.79-.306C249.132,144.156,249.164,144.312,249.193,144.369Zm18.782,50.286.451-.471.057.042-.263.7Zm-4.931-40.32.367.034.085.355-.418.083ZM227.911,132.9l-.067-.142.481-.5c0,.162.058.366-.011.474S228.051,132.843,227.911,132.9Zm28.374.844.075-.1.447.406-.321.2Zm-29.958,16.645-.118-.334.1-.005.1-.516C226.646,149.763,226.617,150.09,226.327,150.384Zm33.484,7.853-.022.089c-.093-.028-.257-.038-.267-.087a5.87,5.87,0,0,1-.066-.693l.158-.018.1.661Zm16.9,6.383.117-.062.3.644-.162.085c-.049-.136-.067-.3-.123-.319C276.622,164.9,276.641,164.78,276.71,164.62ZM241.1,177.246c-.215-.115-.111-.284-.009-.432a2.213,2.213,0,0,1,.29-.314s.1.087.1.1a4.162,4.162,0,0,1-.219.4c-.011.019-.079,0-.087.017A1.993,1.993,0,0,0,241.1,177.246Zm8.7,3.114c.135.616.135.616.037.7l-.327-.43Zm7.657-41.432.086-.014.2.747c-.189-.1-.21.057-.279.215Zm-19.285-.383.049-.146.522-.008.037.148a1.618,1.618,0,0,1-.4.21C238.328,138.762,238.243,138.618,238.172,138.545Zm31.45,15.587c.6.22.6.22.448.719Zm-1.551,10.833.087-.086a2.764,2.764,0,0,1-.079.411c-.014.043-.158.084-.166.071a1.452,1.452,0,0,1-.156-.351c-.006-.022.1-.106.155-.118S268.018,164.938,268.071,164.965Zm12.6,15.1.144-.949h.091l-.039,1.122Zm-16.712-20.355.467.273-.218.372-.1-.03Zm5.269,30.5.08.133-.65.558-.055-.076.318-.472Zm-1.9-43.786-.039-.1.335-.285.205.372-.047.09Zm-5.961,4.489-.065.789C261.007,151.5,261.032,151.171,261.374,150.9Zm16.3,31.209c-.262-.034-.328-.221-.292-.436.009-.055.193-.077.346-.131Zm2.766-6.71.053-.017.143.245.186-.075c-.4.215-.137.451-.016.67l-.159.075Zm-16-26.419c-.1-.42.188-.376.38-.47C264.945,148.941,264.621,148.87,264.434,148.984Zm13.606,6.609c-.131.279-.277.3-.894.123Zm-10.771,30.373c.007.273.019.546.014.819,0,.028-.1.055-.139.076C266.863,186.524,267.168,186.258,267.269,185.966Zm-24.217-47.372-.083-.073a1.7,1.7,0,0,1,.243-.394c.047-.045.188.029.286.049l.023.126Zm.639.674.079.033c-.037.219-.077.438-.11.657-.009.061.022.159,0,.18a1.013,1.013,0,0,1-.277.1Zm7.086,4.606,0-.156.393-.123.018.381Zm26.751,6.229.162-.243-.248-.084.4-.21C278.024,149.762,277.964,149.909,277.528,150.1Zm-17.263-12.082c-.3-.076-.416-.239-.271-.568C260.326,137.515,260.265,137.774,260.265,138.021Zm-9.5,45.071.655.656a.314.314,0,0,1-.262-.018c-.206-.094-.226-.372-.4-.506C250.748,183.213,250.762,183.159,250.765,183.092ZM241,135.742l.134-.765.114.02-.062.417c.05.01.1.022.148.029.195.027.183.152.113.3-.015.032-.053.051-.1.093l.024-.313Zm2.856-1.907.319-.109.2.6-.073.031-.145-.255-.027.21Zm12.385,51.778c-.484.218-.355-.158-.373-.417l.155.154.153-.173ZM251.27,141.2l-.288.264-.244-.212C250.923,140.875,251.108,140.984,251.27,141.2Zm1.714.377.41-.235.133.627Zm8.333.339.64.186C261.652,142.567,261.493,142.205,261.317,141.913Zm-13.053,1.568.074-.036.557.357-.262.224ZM263.131,175.7l-.084-.731.12-.172c-.055.482.158.307.348.324Zm-7.435,8.458c-.1.5-.424.223-.632.352l-.033-.113Zm-23.915-47.171.434-.177.069.125-.593.453Zm4.036,2.064-.077-.1a3.572,3.572,0,0,1,.32-.36c.035-.031.13.02.2.033-.015.073-.008.183-.049.213A3.015,3.015,0,0,1,235.817,139.05Zm33.367,20.817.137.1-.205.287.236.082-.451.233-.064-.064Zm-4.349-5.139-.275-.427.111-.1a2.132,2.132,0,0,1,.294.439c.032.082-.059.222-.094.336l-.091-.035ZM263.224,181.1a3.631,3.631,0,0,1,.351-.306c.036-.026.125.025.181.059.025.014.027.074.047.135l-.287.07.207.111-.216.139Zm-12.11-.282a2.807,2.807,0,0,1,.364-.24c.035-.017.109.067.165.1-.035.047-.068.1-.1.14-.053.065-.108.127-.186.218Zm26.5-19.57a1.146,1.146,0,0,1,.294.091,1.77,1.77,0,0,1,.27.284l-.522.013Zm-12.122-19.163c-.234.011-.18-.292-.181-.437,0-.123.177-.248.282-.38Zm-36.732-1.268-.167-.4c.317.136.348-.054.346-.332l.153.33Zm42.458,10.128.5-.384c0,.151.025.274-.018.328A.3.3,0,0,1,271.22,150.946Zm-42.533-12.493-.072.175-.4-.137.095-.266Zm34.7,51.962.36-.284.169.261C263.551,190.616,263.551,190.616,263.389,190.415Zm1.758-39.462-.176-.705C265.267,150.365,265.267,150.365,265.147,150.953ZM256.3,184.785c-.111.3-.25.305-.474.016l.247-.062-.133-.192.041-.044Zm13.035-20.226.3.254-.191.365C269.358,164.933,269.02,164.8,269.33,164.559Zm-27.743-26.822-.357.046c.373-.283.448-.2.443.462C241.368,138.121,241.51,137.924,241.587,137.737Zm22.169-1.393.134-.054.25.381-.046.09c-.09-.018-.224,0-.262-.061A1.052,1.052,0,0,1,263.756,136.344Zm-10.887,1.826.62-.272.028.062-.165.135.171.161-.033.062Zm7.993-.076.11-.022.1.566-.051.067-.326-.28Zm17.11,26.752-.092.025a1.148,1.148,0,0,1-.1-.361c0-.091.1-.177.159-.265a1.008,1.008,0,0,1,.1.284A1.211,1.211,0,0,1,277.972,164.846Zm-19.276-37.6c.208.1.39.132.4.2a1.162,1.162,0,0,1-.09.423l-.075-.029Zm17.668,43.813c-.419-.244-.508-.484-.259-.662Zm-12.679,6.66-.133-.047c.213-.371.03-.5-.275-.573.259-.1.469-.061.544.2C263.854,177.41,263.735,177.577,263.685,177.719Zm-8.624-37.42.024.072a1.6,1.6,0,0,1-.279.309c-.067.044-.183,0-.275-.012-.009,0-.017-.159,0-.167C254.706,140.424,254.885,140.364,255.061,140.3Zm1.358,48.135a1.781,1.781,0,0,1-.277-.095c.031-.205.087-.407.136-.609l.073.022Zm9,4.17-.265.419-.225-.295.218-.408.048.4Zm14.99-13.356-.148.062-.173-.525.183-.062Zm-9.912,5.405-.095.048-.349-.292.267-.31Zm-13.919-2.273.12-.02.341.495c-.194-.033-.357-.01-.417-.086S256.588,182.514,256.577,182.38Zm-1.235-34.653a2.216,2.216,0,0,1,.2-.476,2.009,2.009,0,0,1,.384-.324l.105.1a.654.654,0,0,0-.481.866Zm10.769,41.225.041-.1.617.166-.034.114C266.507,189.129,266.252,189.205,266.111,188.952Zm3.4-.272-.108-.08c.326-.159.091-.247-.039-.388.146-.035.256-.1.339-.067.051.017.107.2.077.264A1.171,1.171,0,0,1,269.509,188.68Zm-8.137-35.175-.306-.514.047-.08a2.038,2.038,0,0,1,.39.281C261.528,153.22,261.419,153.4,261.372,153.505Zm-.685,41.137.3.666c-.357.232-.181-.341-.4-.3Zm-30.951-54.025.473-.049-.136.557Zm36.4,12.893.046.353c-.149.146-.3-.43-.454.058l-.113-.3Zm-.066,19.524a1.236,1.236,0,0,1-.069.389c-.042.065-.153.075-.286.13l.134-.21-.085.024-.114-.39.1-.028.028.3Zm-12.422,9.806-.183.564-.1-.006-.015-.569Zm-10.818-45.233c-.08-.232-.3-.453.05-.637C242.933,137.187,243.132,137.406,242.827,137.607Zm13.893-6.445a3.115,3.115,0,0,1,.165.4.951.951,0,0,1-.01.285.737.737,0,0,0-.152-.14.763.763,0,0,0-.2-.044Zm1.339,7.286.4.552-.526-.121Zm21.348,36.4-.07-.089.333-.411.314.309-.319-.012Zm-5.555-5.046a1.858,1.858,0,0,0,.271-.217,2.611,2.611,0,0,0-.2-.356l.143-.189.076.029.015.744Zm-37.247-37.456.062-.065.319.419-.4.07Zm.624,1.479-.021.151-.436.01-.041-.1c.065-.063.129-.176.195-.178A.865.865,0,0,1,237.229,133.827Zm40.943,20.066-.035.132-.386.139.1-.445Zm-9.714-4.162-.29.188-.185-.481C268.271,149.291,268.241,149.662,268.458,149.731Zm-33.651-11.1-.026-.62.334.43Zm-5.641-5.547-.348.338-.072-.04.167-.51Zm48.813,46.8c-.072-.137-.182-.25-.169-.343a1.379,1.379,0,0,1,.2-.4l.088.05ZM259.163,138.9l.365.013-.351.3c-.056-.484-.056-.484.29-.55Zm-1.375,8.541-.552-.019.137-.384Zm-.294-7.318,0,.42-.107.012-.18-.656.365.139Zm-24.355-7.163c-.233.159-.223-.141-.331-.229l.152-.124-.288-.127.381-.023Zm34.255,49.258.046.031-.32.793-.156-.193Zm-9.744-.411-.492-.173.375-.344Zm11.743,2.312.475-.664.1.071-.409.649Zm-30.491-5.9.146-.024.092.433c-.074,0-.209.01-.213-.008A2.947,2.947,0,0,1,238.9,178.213Zm30.518-8.35a.26.26,0,0,1-.445.038c-.019-.019.024-.164.039-.164C269.158,169.733,269.35,169.586,269.42,169.863Zm5.493-.543-.324.012.048-.46.1.006Zm-1.846,6.245-.111-.039.175-.532.3.436-.333-.067Zm5-.266.192-.451.379.382Zm-11.424,20.658c-.166-.439-.146-.555.155-.806Zm-18.189-53.271.139-.05.123.865C248.338,143.267,248.64,142.907,248.449,142.686Zm21.209,28.863c.292.164.641.218.224.616Zm-18.7,10.118-.426-.333C250.886,181.239,251.011,181.348,250.957,181.667Zm9.775-51.139c.1.44-.088.438-.3.405l-.07-.1Zm11.474,36.747.03.106-.358.346.111-.347-.268-.06.016-.114Zm-15.513-32.34.027-.091c.513-.062.563-.035.542.248Zm-.324,10.944-.082-.362-.175.054-.047-.2.069-.058.519.38Zm34.08,32.327.084.045-.125.426-.118-.01-.109-.516.085-.02.076.224ZM262.4,193.1l-.039-.129c.142-.1.2-.51.514-.1Zm-6.3-61.806-.06-.075c.148-.081-.1-.465.307-.365l-.159.252.281.01.006.055Zm16.53,30.71.139-.612.176.042C272.622,161.581,273.142,161.913,272.637,162.007Zm-28.354-32.929-.024-.188.418-.151c-.009.1.01.269-.035.293A.977.977,0,0,1,244.283,129.078Zm5.405,20.208-.614.028.306-.339Zm-1.42-6.871.446-.54-.209.724Zm9.883-11.119-.313.016-.07-.5.05-.033Zm-14.429-.077-.026-.119c.155-.053.31-.109.468-.154.016,0,.066.062.066.095a.128.128,0,0,1-.068.1C244.017,131.173,243.869,131.194,243.722,131.219Zm15.21,14.06-.312-.439.515.188Zm1.244,41.082.048-.082a2.007,2.007,0,0,0,.254.033.589.589,0,0,0,.153-.044c.015.06.057.139.036.177-.032.06-.124.143-.16.128A1.993,1.993,0,0,1,260.176,186.361Zm7.241-14.187.075-.089c.062.083.159.157.177.25a1.2,1.2,0,0,1-.043.359l-.087-.006-.113-.292.2-.074ZM265.67,182.9l-.1-.01a2.126,2.126,0,0,1,.057-.394c.023-.073.108-.123.165-.183a.907.907,0,0,1,.017.272A1.683,1.683,0,0,1,265.67,182.9Zm-15.8-50.212c.03.14.047.243.074.344s.062.2.093.3l-.045-.014-.325-.463ZM265.359,183.7a2.336,2.336,0,0,1,.172.415,1.445,1.445,0,0,1-.019.345c-.07-.1-.06-.264-.082-.269C265.032,184.089,265.339,183.9,265.359,183.7Zm-27.1-4.371.071.019.05.7-.225-.041a2.817,2.817,0,0,0,.108-.37A1.672,1.672,0,0,0,238.259,179.324ZM274.1,174.21c-.35.1-.471.028-.343-.332Zm6.423,2.253.109-.049.305.523C280.621,176.827,280.42,176.746,280.521,176.463Zm-9.4-9.29c.03.126.068.253.089.383a.216.216,0,0,1-.045.145c-.015.019-.084.014-.108-.007a2.362,2.362,0,0,1-.182-.2Zm-5.377-33.831-.317-.306.055-.07.395.014Zm11.618,28.543.512.211v.083l-.493.025Zm-8.344,8.679.235-.345.226.558Zm-38.1-34.227.082.347.28-.14c0,.3-.1.334-.521.142Zm23.965,12.112c.025,0,.152-.029.178.014.044.073.061.249.022.281a.917.917,0,0,1-.319.106Zm19.438,14.787c0-.349.046-.393.26-.352l-.138.219.3.168-.028.062Zm-14.02-5.277.093.081-.257.3-.112-.055.014-.4.162.187Zm-13.581,17.672c.245-.31.443-.082.64-.072v.094ZM244.7,140.3l-.02.087c-.176,0-.391.148-.472-.244ZM264,140.032c-.164-.023-.3,0-.354-.06s-.06-.219-.086-.334l.107-.04ZM283.622,176.6l.121.69-.319-.1Zm-20.087,20.6-.6-.059C263.173,196.838,263.339,196.861,263.535,197.2Zm-20.321-55.93-.109.193c-.29-.231-.29-.231-.014-.488Z"/><path class="f" d="M243.482,183.9l.15-.38-.127-.05-.291,1.042.783-.3Z"/><path class="f" d="M259.91,163.5l.253.5.2-.062.036.282.1.006.058-.671Z"/><path class="f" d="M245.523,149.119c-.017.032-.075.092-.07.144a.875.875,0,0,0,.092.237.6.6,0,0,0,.172-.112.373.373,0,0,0-.051-.57,1.694,1.694,0,0,1,.04.171.178.178,0,0,1-.066.172l-.091-.541a1.971,1.971,0,0,0-.208.333C245.332,148.974,245.447,149.052,245.523,149.119Z"/><path class="f" d="M260.461,165.021l.12-.673-.041-.018-.069.219-.244-.329-.087.024a1.789,1.789,0,0,0,.052.457A1.289,1.289,0,0,0,260.461,165.021Z"/><path class="f" d="M270.247,134.1l.024.551-.291-.392a1.768,1.768,0,0,0,.1.488c.383-.131.449-.3.255-.645Z"/><path class="f" d="M243.781,147.017l.373.428c.048-.062.15-.157.137-.181C244.208,147.1,244.134,146.883,243.781,147.017Z"/><path class="f" d="M233.726,125.49c.026-.292.1-.6-.212-.809.017.193.22.433-.129.449l.351.35Z"/><path class="f" d="M286.541,184.547c-.044.176-.095.351-.125.529a.17.17,0,0,0,.1.135c.048.006.142-.048.146-.086.022-.189.02-.382.027-.573Z"/><path class="f" d="M244.849,146.844a.2.2,0,0,1-.06-.013c-.113-.061-.225-.124-.338-.186l-.092.4.094.022.039-.2c.12-.2.233.334.347-.039Z"/><path class="f" d="M234.5,146.3l.072.5C234.424,146.74,235.063,146.413,234.5,146.3Z"/><path class="f" d="M269.957,139.668l-.274-.556-.1.238a1.564,1.564,0,0,1,.118.244C269.752,139.777,269.812,139.884,269.957,139.668Z"/><path class="f" d="M271.725,144.352l.293.319.02-.566-.1-.042-.2.3Z"/><path class="f" d="M275.08,154.262l.593.453-.087-.68Z"/><path class="f" d="M270.57,140.343a.774.774,0,0,0-.024-.215c-.082-.158-.11-.408-.355-.1-.143.182-.43.227-.65.416Z"/><path class="f" d="M272.77,146.194l-.176.585.75-.234-.206-.3c-.035.052-.062.094-.059.09Z"/><path class="f" d="M263.343,158.237l-.139.347.292.165.086-.069Z"/><path class="f" d="M275.653,166.209l-.392-.268-.057.539Z"/><path class="f" d="M248.892,180.848l-.4-.089-.011.315.048.01.071-.182.132.343Z"/><path class="f" d="M251.183,140.023l.356-.053-.269-.559-.066.014Z"/><path class="f" d="M272.637,171.321l-.062-.391-.2.252-.066-.36-.071-.022-.235.5Z"/><path class="f" d="M270.525,174.172c-.149.279.014.477.157.666.026.035.145-.016.268-.034l-.432-.625Z"/><path class="f" d="M270.161,173.525l-.142.358.305.093c-.073.24.116.153.2.2l-.007.007A.7.7,0,0,0,270.161,173.525Z"/><path class="f" d="M270.513,175.618c.1,0,.215.032.289-.016.054-.035.07-.176.07-.269,0-.052-.085-.153-.1-.146a.45.45,0,0,0-.212.159.823.823,0,0,0-.037.283Z"/><path class="f" d="M267.261,152.44c.069.078.144.15.206.234.091.124.167.28.328.093l-.342-.484-.181.169Z"/><path class="f" d="M246.326,137.647l-.266-.01c0,.123-.029.277.022.327a1.3,1.3,0,0,0,.4.184Z"/></svg>