<?xml version="1.0" encoding="utf-8"?>
<!-- Generator: Adobe Illustrator 23.0.2, SVG Export Plug-In . SVG Version: 6.00 Build 0)  -->
<svg version="1.1" id="Laag_1" xmlns="http://www.w3.org/2000/svg" xmlns:xlink="http://www.w3.org/1999/xlink" x="0px" y="0px"
	 viewBox="0 0 320.78 309.02" style="enable-background:new 0 0 320.78 309.02;" xml:space="preserve">
<style type="text/css">
	.st0{fill:#1FEA8D;}
	.st1{fill:#00E48D;}
	.st2{fill:#00DF89;}
	.st3{fill:#00D983;}
	.st4{fill:#00D67E;}
	.st5{fill:#D81982;}
	.st6{fill:#DB3186;}
	.st7{fill:#DD4389;}
	.st8{fill:#E2548E;}
	.st9{fill:#E56A96;}
	.st10{fill:#FFD48A;}
	.st11{fill:#FFBD49;}
	.st12{fill:#FFCB73;}
	.st13{fill:#FFB730;}
	.st14{fill:#FFC35D;}
	.st15{fill:url(#SVGID_1_);}
	.st16{fill:url(#SVGID_2_);}
	.st17{fill:url(#SVGID_3_);}
	.st18{fill:url(#SVGID_4_);}
	.st19{fill:#FC3D79;}
	.st20{opacity:0.53;}
	.st21{fill:#DAF6F7;}
	.st22{fill:none;stroke:#1D1D1B;stroke-miterlimit:10;}
	.st23{fill:#9ACCCA;}
	.st24{fill:none;stroke:#4D888C;stroke-width:5;stroke-miterlimit:10;}
	.st25{fill:#915980;}
	.st26{fill:#C69EAF;}
	.st27{fill:#4D888C;}
	.st28{fill:#9900EF;}
	.st29{fill:#0693E3;}
	.st30{fill:#D18AFF;}
	.st31{fill:#FFFFFF;}
	.st32{fill:#CE829E;}
	.st33{fill:#FFE1DC;}
	.st34{fill:#EB144C;}
	.st35{fill:#009B67;}
	.st36{fill:#C2F9CD;}
	.st37{fill:#7BDCB5;}
	.st38{fill:#E0AA00;}
	.st39{fill:#8ED1FC;}
	.st40{fill:#FFFF73;}
	.st41{fill:#004ADD;}
	.st42{fill:#A87993;}
	.st43{fill:#355F63;}
	.st44{fill:#1D1D1B;}
	.st45{fill:none;}
	.st46{fill:#FFE2A9;}
	.st47{fill:#FFEFC7;}
	.st48{fill:none;stroke:#FFB031;stroke-width:5;stroke-miterlimit:10;}
	.st49{fill:#B8F0FF;}
	.st50{fill:#FF6900;}
	.st51{fill:#FFC969;}
	.st52{fill:#1B4751;}
	.st53{fill:#AF1264;}
	.st54{fill:#F7AED5;}
	.st55{fill:#FFB031;}
	.st56{fill:none;stroke:#EB144C;stroke-width:5;stroke-miterlimit:10;}
	.st57{fill:#6331C4;}
	.st58{fill:none;stroke:#0693E3;stroke-width:5;stroke-miterlimit:10;}
	.st59{fill:#00D084;}
	.st60{fill:#820063;}
	.st61{fill:#FFB6C1;}
	.st62{fill:#000760;}
	.st63{fill:#937319;}
	.st64{fill:#EACF60;}
	.st65{fill:#00229E;}
	.st66{fill:#3D7BAD;}
	.st67{fill:#E24B61;}
	.st68{fill:#2A5877;}
	.st69{fill:#AD3A50;}
	.st70{fill:#F7DBC7;}
	.st71{fill:#ECECEC;}
	.st72{fill:#E2B979;}
	.st73{fill:#D2B3A5;}
	.st74{fill:#693131;}
	.st75{fill:#CCC95C;}
	.st76{fill:#BC5252;}
	.st77{fill:#604082;}
	.st78{fill:#985CCC;}
	.st79{fill:#FCB900;}
	.st80{fill:#ABB8C3;}
	.st81{fill:#C94C14;}
	.st82{fill:#B24D36;}
	.st83{fill:#E07E6E;}
	.st84{fill:#A57860;}
	.st85{fill:url(#SVGID_5_);}
	.st86{fill:url(#SVGID_6_);}
	.st87{fill:url(#SVGID_7_);}
	.st88{fill:url(#SVGID_8_);}
	.st89{fill:url(#SVGID_9_);}
	.st90{fill:#606060;}
	.st91{fill:#007769;}
	.st92{fill:#221F20;}
	.st93{fill:url(#SVGID_10_);}
	.st94{fill:url(#SVGID_11_);}
	.st95{fill:url(#SVGID_12_);}
	.st96{fill:url(#SVGID_13_);}
	.st97{fill:url(#SVGID_14_);}
	.st98{display:none;}
	.st99{display:inline;}
	.st100{display:none;opacity:0.39;}
</style>
<g id="Laag_2">
</g>
<g>
	<polygon class="st39" points="135.97,171.06 135.97,24.08 16.4,24.08 16.4,213.08 104.47,213.08 104.47,293.24 295.08,293.24 
		295.08,171.06 	"/>
	<path class="st29" d="M130.59,144.86c-0.02,4.86-0.07,9.7-0.15,14.55c-3.78,0.17-7.54,0.39-11.32,0.61
		c-1.93,0.11-3.87,0.23-5.8,0.36h-0.07c-9.36,0.62-18.75,1.29-28.15,2.17c4.16-5.38,8.33-10.75,12.49-16.13
		C108.58,145.55,119.61,144.91,130.59,144.86z"/>
	<path class="st49" d="M253.8,230.63c-3.76-2.71-8.81-2.28-13.43-2.2c-4.4,0.07-9.47-0.67-11.96-4.17v0v0l0.17-12.17l0,0
		c0.08-0.18,0.16-0.37,0.23-0.55c4.39-10.52,10.69-20.24,18.48-28.55c-10.93-0.75-21.88-1.35-32.85-1.76
		c-12.19,12.02-23.68,24.77-34.37,38.15v0L164.54,240l0,0c-10.58,14.95-20.23,30.57-28.86,46.74c0.77,0.04,1.52,0.06,2.29,0.09
		c18.68,0.68,37.38,0.95,56.07,0.71c12.91-0.17,25.82-0.57,38.72-1.22c6.41-10.1,12.8-20.18,19.21-30.28
		c2.52-3.97,5.1-8.07,5.98-12.7C258.82,238.72,257.62,233.39,253.8,230.63z"/>
	<path class="st49" d="M102.32,84.81c7.84-7.84,16.37-14.97,25.45-21.29c-0.53-7.22-1.14-14.44-1.85-21.65
		c-0.33-3.47-0.86-7.04-1.38-10.64c-4.51-0.36-9-0.67-13.51-0.91h-0.01C92.91,44.69,75.54,59.98,58.96,76.11
		c-12.11,11.77-23.79,23.99-34.99,36.62c0,0,0,0,0,0.01c-0.16,4.72-0.27,9.45-0.34,14.19c-0.42,26.45,0.15,52.93,1.12,79.38
		c8.27,0.57,16.56,0.98,24.84,1.24c-0.07-13.37,0.15-26.83,2.77-39.93c1.1-5.41,2.81-11.11,7.09-14.61
		c4.13-3.37,9.78-4.01,15.09-4.51c7.66-0.73,15.35-1.46,23.05-2.08c1.18-1.52,2.35-3.04,3.54-4.56c0.44-0.57,0.89-1.17,1.33-1.8
		l-16.38-26.43L102.32,84.81z"/>
	<path class="st29" d="M50.19,207.57c4.72-6.09,9.44-12.19,14.17-18.28c-0.45,6.18-0.81,12.35-1.06,18.55
		C58.93,207.79,54.56,207.7,50.19,207.57z"/>
	<path class="st57" d="M319.76,231.82c-0.13-18.34-0.76-37.07-2.61-55.62c-0.02-0.19-0.04-0.39-0.06-0.58
		c-0.5-4.97-4.38-8.92-9.33-9.57l-0.08-0.01c-6.29-0.82-12.59-1.56-18.9-2.23c-1.6-0.18-3.21-0.35-4.81-0.51
		c-17.04-1.73-34.1-2.99-51.09-3.93c-27.35-1.52-54.75-1.94-82.12-1.2c0.08-4.23,0.14-8.46,0.18-12.69
		c0.37-36.05-0.62-72.11-2.96-108.09c-0.03-0.46-0.06-0.92-0.09-1.38c-0.14-2.04-0.27-4.08-0.42-6.12
		c-0.4-5.62-0.83-11.25-1.29-16.87l-0.02-0.27c-0.39-4.71-4.1-8.45-8.81-8.88l-0.08-0.01c-3.79-0.35-7.58-0.67-11.38-0.95
		c-12.56-0.92-25.14-1.46-37.72-1.62c-0.2-0.02-0.39-0.02-0.58-0.01c-4.27-0.06-8.55-0.07-12.82-0.04C56.43,1.37,37.7,2,19.15,3.85
		c-0.19,0.02-0.39,0.04-0.58,0.06C13.6,4.41,9.65,8.29,9,13.24l-0.01,0.08c-0.82,6.29-1.56,12.59-2.23,18.9
		c-0.18,1.6-0.35,3.21-0.51,4.81c-1.73,17.04-2.99,34.1-3.93,51.09c-2.13,38.29-2.09,76.67,0.22,114.94
		c0.11,1.89,0.23,3.79,0.35,5.68v0.07c0.82,12.4,1.73,24.88,3.15,37.3c0.07,0.6,0.13,1.2,0.2,1.79c0.45,3.86,3.54,6.91,7.4,7.27
		c0.03,0.01,0.05,0.01,0.07,0.01c5.46,0.56,10.94,1.04,16.41,1.44c7.05,0.52,14.11,0.92,21.17,1.2c3.92,0.15,7.85,0.27,11.78,0.35
		c0.39,12.29,1.11,24.67,2.37,36.95c0,0.02,0.01,0.05,0.01,0.07c0.43,4.21,3.81,7.5,8.02,7.87c0.53,0.05,0.96,0.09,1.22,0.11
		c8.78,0.79,17.58,1.44,26.38,2.03c4.06,0.27,8.12,0.52,12.18,0.75c2.31,0.14,4.61,0.26,6.92,0.37c13.9,0.72,27.81,1.2,41.73,1.47
		c40.59,0.8,81.2-0.13,121.71-2.76c0.46-0.03,0.92-0.06,1.38-0.09c2.04-0.14,4.08-0.27,6.12-0.42c5.62-0.4,11.25-0.83,16.87-1.29
		l0.27-0.02c4.71-0.39,8.45-4.1,8.88-8.81l0.01-0.08c0.35-3.79,0.67-7.58,0.95-11.38c0.92-12.56,1.46-25.14,1.62-37.72
		c0.02-0.2,0.02-0.39,0.01-0.58C319.78,240.37,319.79,236.09,319.76,231.82z M112.26,159.93h-0.07c-9.17,0.61-18.37,1.26-27.58,2.13
		H84.6c-3.24,0.31-6.48,0.65-9.71,1.02c-0.6,0.07-1.2,0.13-1.79,0.2c-3.86,0.45-6.91,3.54-7.27,7.4c-0.01,0.03-0.01,0.05-0.01,0.07
		c-0.56,5.46-1.04,10.94-1.44,16.41c-0.03,0.36-0.05,0.73-0.08,1.09c-0.44,6.05-0.79,12.1-1.04,18.17
		c-4.28-0.04-8.56-0.13-12.84-0.26c-0.19,0-0.39-0.01-0.59-0.02c-8.11-0.25-16.23-0.66-24.33-1.21c-0.95-25.92-1.51-51.86-1.1-77.77
		c0.07-4.64,0.18-9.27,0.33-13.9c0-0.01,0-0.01,0-0.01c0.83-26.37,2.8-52.6,5.29-78.84c0.14-0.01,0.27-0.03,0.41-0.04
		c15.57-1.58,31.2-2.43,46.84-2.58c10.92-0.11,21.84,0.13,32.74,0.73h0.01c4.42,0.24,8.82,0.54,13.23,0.89
		c0.51,3.53,1.03,7.03,1.36,10.43c0.69,7.06,1.29,14.13,1.81,21.21c0.17,2.38,0.34,4.77,0.5,7.15c1.23,18.28,1.95,36.59,2.19,54.9
		c0.07,5.88,0.09,11.76,0.07,17.63c-0.02,4.76-0.07,9.5-0.15,14.25c-3.7,0.17-7.39,0.38-11.09,0.6
		C116.05,159.69,114.15,159.81,112.26,159.93z M287.58,280.29c-3.53,0.51-7.03,1.03-10.43,1.36c-9.44,0.92-18.9,1.68-28.36,2.31
		c-5.65,0.38-11.31,0.71-16.97,0.99c-12.63,0.64-25.28,1.03-37.93,1.2c-18.31,0.23-36.63-0.03-54.93-0.7
		c-0.75-0.03-1.49-0.05-2.24-0.09c-6.44-0.24-12.88-0.55-19.31-0.88c-0.03-0.34-0.07-0.69-0.1-1.03c-0.83-8.7-1.48-17.41-1.93-26.14
		c-0.15-2.82-0.28-5.65-0.39-8.47c-0.26-6.68-0.4-13.35-0.44-20.03c-0.03-5.92,0.03-11.83,0.19-17.75c0.04-2.13,0.1-4.27,0.19-6.4
		c0.25-7.38,0.63-14.75,1.13-22.12c4.12-0.15,8.23-0.29,12.35-0.41c2.25-0.08,4.5-0.15,6.75-0.2c2.36-0.08,4.73-0.14,7.09-0.19
		c2.62-0.07,5.24-0.13,7.86-0.17c14.58-0.28,29.15-0.36,43.72-0.13c6.69,0.1,13.38,0.29,20.05,0.55c10.74,0.4,21.47,0.99,32.18,1.72
		c13.52,0.92,27.02,2.07,40.52,3.35c0.01,0.14,0.03,0.27,0.04,0.41c1.58,15.57,2.43,31.2,2.58,46.84
		C289.36,249.65,288.81,265,287.58,280.29z"/>
	<path class="st30" d="M142.45,90.35C141.89,71.89,141,53.43,139.74,35c-0.1-1.49-0.2-2.99-0.31-4.48c-0.04-0.53-0.08-1.07-0.12-1.6
		c-0.4-5.58-0.84-11.16-1.31-16.73c-4.72-0.45-9.45-0.84-14.17-1.18c-16.37-1.18-32.79-1.72-49.2-1.64
		c-19.03,0.11-37.87,1.45-56.7,3.12c-0.84,6.07-1.63,12.14-2.34,18.22c-0.21,1.76-0.41,3.52-0.6,5.28c-0.1,0.89-0.2,1.77-0.29,2.66
		c-4.14,39.04-6,78.3-5.85,117.56c0.06,15.86,0.54,31.7,1.29,47.54c0.09,1.97,0.19,3.95,0.29,5.92c0.1,1.95,0.2,3.91,0.31,5.86
		c0.58,10.45,1.47,20.88,2.31,31.32c6.37,0.65,12.75,1.2,19.14,1.66c5.73,0.41,11.48,0.74,17.22,1l4.58-4.58v-29.18l-3.9-3.34
		c-0.07-0.01-0.15-0.01-0.22-0.01c-1.39-0.05-2.78-0.1-4.17-0.16c-6.67-0.26-13.32-0.65-19.97-1.16c-1.89-0.14-3.78-0.3-5.67-0.47
		c-0.19-2.04-0.36-4.07-0.52-6.1c-2.1-25.71-2.74-51.48-2.44-77.35c0.37-30.63,1.76-61.43,5.01-91.94c0.19-1.85,0.4-3.7,0.61-5.54
		c1.93-0.26,3.87-0.5,5.81-0.71c0.68-0.07,1.36-0.15,2.04-0.21c15.2-1.63,30.46-2.56,45.74-2.79c13.59-0.21,27.2,0.13,40.76,1.02
		c1.79,0.12,3.58,0.24,5.37,0.38c0.89,0.06,1.77,0.13,2.66,0.2c1.83,0.15,3.66,0.3,5.49,0.48c0.19,2.02,0.33,4.04,0.46,6.05
		c0.2,2.99,0.38,5.94,0.64,8.77c0.54,5.88,1.05,11.77,1.5,17.67c0.26,3.23,0.49,6.47,0.71,9.71c1.26,18.59,2,37.23,2.22,55.87
		c0.07,6.22,0.09,12.44,0.05,18.65v0.24l3.32,7.44l3.51-7.59C143.16,126.68,142.99,108.52,142.45,90.35z"/>
	<path class="st28" d="M143,144.86v0.13c-0.03,4.47-0.09,8.94-0.17,13.41c-2.29,0.07-4.57,0.16-6.86,0.26
		c0.1-4.55,0.17-9.1,0.2-13.65C138.44,145.19,140.74,145.15,143,144.86z"/>
	<path class="st28" d="M62.7,238.29c0.03,3.88,0.08,7.77,0.16,11.68c-3.99-0.09-7.97-0.23-11.96-0.39c-0.5-0.02-0.99-0.04-1.49-0.07
		c0.79-12.35,1.02-24.73,0.68-37.1c4.31,0.13,8.62,0.22,12.93,0.27C62.74,221.21,62.63,229.75,62.7,238.29z"/>
	<path class="st34" d="M104.12,138.09c0.11-0.5,0.34-0.97,0.72-1.31c0.03-0.13,0.04-0.26,0.09-0.41c1.1-3,3.22-4.81,1.79-8.11
		c-1.24-2.86-2.61-4.97-5.35-6.5c-9.08-1.54-20.19-9.04-12.64-18.74c0.14-0.17,0.28-0.31,0.43-0.43c1.35-2.61,3.33-5.02,4.97-7.3
		c2.2-3.06,4.66-6.7,7.34-9.29c0.24-0.23,0.49-0.42,0.76-0.6c0.04-0.17,0.1-0.34,0.17-0.5c-0.03-0.02-0.05-0.05-0.08-0.07
		c-2.4-2.14-5.01-4.29-7.47-6.54c-1.24,1.22-2.43,2.42-3.54,3.59c-3.03,3.24-6.12,6.45-9.23,9.63c-1.34,1.35-2.66,2.69-3.99,4.05
		c-1.13-1.17-2.27-2.35-3.38-3.53c-1.68-1.74-3.36-3.48-5.02-5.23c-3.1-3.24-6.84-6.51-10.13-10.05
		c-3.66,4.86-7.55,9.64-11.74,14.05c3.28,3.73,6.38,7.67,9.53,11.21c1.13,1.27,2.27,2.53,3.4,3.81c1.09,1.24,2.18,2.46,3.28,3.69
		c-1.24,1.19-2.46,2.39-3.7,3.57c-5.36,5.17-10.77,10.27-16.25,15.32c5.26,5.7,10.46,11.37,16.05,16.76
		c5-5.26,10.08-10.46,15.21-15.62c1.13-1.14,2.28-2.29,3.42-3.43c1.36,1.53,2.69,3.07,4.02,4.62c4.37,5.04,8.7,10.13,13.03,15.19
		c2.16-1.71,4.3-3.49,6.25-5.42c0.13-0.13,0.27-0.27,0.4-0.41c0.39-0.39,0.76-0.79,1.14-1.2
		C103.72,138.57,103.89,138.31,104.12,138.09z"/>
	<path class="st53" d="M102.46,140.06c3.12-4.46,5.66-9.98,2.76-14.32c-3.92-5.85-13.98-3.52-18.69-8.76
		c-2.42-2.68-2.71-6.77-1.61-10.21c1.09-3.43,3.36-6.35,5.67-9.13c3.71-4.47,7.64-8.76,11.75-12.84c0.33,0.29,0.65,0.57,0.97,0.87
		c2.86,2.62,5.72,5.55,8.75,8.22c-4.93,4.65-9.85,9.35-14.75,14.08c-1.26,1.2-2.51,2.41-3.75,3.62c1.32,1.37,2.67,2.75,4.01,4.12
		c4.6,4.71,9.23,9.4,13.83,14.1C108.55,133.33,105.67,136.82,102.46,140.06z"/>
	<path class="st30" d="M311.62,231.67c0.08,16.41-0.46,32.83-1.64,49.2c-0.34,4.72-0.73,9.45-1.18,14.17
		c-5.57,0.47-11.15,0.91-16.73,1.31c-0.53,0.04-1.07,0.08-1.6,0.12c-1.49,0.11-2.99,0.21-4.48,0.31
		c-18.43,1.26-36.89,2.15-55.35,2.71c-37.19,1.1-74.38,0.66-111.56-0.94c-2.23-0.09-4.47-0.19-6.7-0.3
		c-0.5-0.02-1.01-0.05-1.51-0.07c-11.44-0.54-22.87-1.25-34.29-2.04c-0.84-0.06-1.69-0.12-2.54-0.2
		c-1.12-12.53-2.1-25.07-2.67-37.66c-0.12-2.72-0.23-5.44-0.31-8.17c-0.06-1.85-0.1-3.71-0.13-5.57c-0.04-2.04-0.07-4.08-0.08-6.12
		c-0.01-0.69-0.01-1.37-0.01-2.06c0-2.45,0.01-4.9,0.03-7.36c0.03-3.39,0.09-6.79,0.18-10.18c0.05-2.04,0.11-4.07,0.18-6.1
		c0.07-2.09,0.15-4.19,0.25-6.28c0.26-5.74,0.59-11.48,1-17.21c0.31-4.3,0.66-8.6,1.06-12.89v-0.01c0.19-2.08,0.39-4.16,0.6-6.24
		c1.51-0.12,3.02-0.24,4.53-0.37c8.93-0.72,17.85-1.44,26.79-1.94c1.95-0.11,3.91-0.21,5.86-0.31c1.97-0.1,3.95-0.2,5.92-0.29
		c3.88-0.18,7.75-0.35,11.63-0.5c2.3-0.09,4.6-0.17,6.9-0.24c2.3-0.08,4.61-0.15,6.91-0.2c2.64-0.08,5.27-0.14,7.91-0.18
		c4.73-0.1,9.46-0.15,14.19-0.17c39.26-0.15,78.52,1.71,117.56,5.85c0.89,0.09,1.77,0.19,2.66,0.29c1.76,0.19,3.52,0.39,5.28,0.6
		c6.08,0.71,12.15,1.5,18.22,2.34C310.17,193.8,311.51,212.64,311.62,231.67z M293.62,279.48c1.17-15.34,1.64-30.74,1.4-46.13
		c-0.23-15.28-1.16-30.54-2.79-45.74c-0.06-0.68-0.14-1.36-0.21-2.04c-0.21-1.94-0.45-3.88-0.71-5.81
		c-1.84-0.21-3.69-0.42-5.54-0.61c-21.37-2.28-42.89-3.64-64.39-4.38c-9.19-0.32-18.38-0.52-27.55-0.63
		c-14.52-0.17-29.02-0.04-43.48,0.48c-2.63,0.09-5.26,0.2-7.89,0.32c-2.33,0.1-4.66,0.22-7,0.35c-2.28,0.12-4.56,0.26-6.84,0.41
		c-4.05,0.25-8.09,0.55-12.14,0.88c-2.03,0.16-4.06,0.33-6.1,0.52c-0.17,1.89-0.33,3.78-0.47,5.67c-0.58,7.44-0.99,14.89-1.26,22.34
		c-0.07,2.13-0.14,4.25-0.18,6.38c-0.15,5.45-0.21,10.91-0.2,16.36c0.01,7.13,0.15,14.26,0.41,21.39c0.1,2.79,0.22,5.59,0.36,8.38
		c0.44,8.62,1.06,17.23,1.88,25.83c0.02,0.24,0.04,0.47,0.07,0.71c0.19,2.08,0.39,4.17,0.6,6.26c2.17,0.18,4.35,0.36,6.52,0.52
		c5.06,0.38,10.12,0.7,15.18,0.97c1.89,0.1,3.78,0.2,5.67,0.29c18.62,0.9,37.27,1.19,55.91,0.96c18.64-0.22,37.28-0.96,55.87-2.22
		c9.14-0.61,18.27-1.37,27.38-2.21c2.83-0.26,5.78-0.44,8.77-0.64c2.01-0.13,4.03-0.27,6.05-0.46c0.18-1.83,0.33-3.66,0.48-5.49
		C293.49,281.25,293.56,280.37,293.62,279.48z M86.95,248.67c11.22,1.63,20.99-10.7,15.02-20.96c-2.54-4.36-7.27-6.78-12.21-6.98
		c-0.95-0.04-2.02,0.02-3.11,0.2c-1.67,0.27-3.38,0.82-4.77,1.69c-1.2,0.62-2.33,1.44-3.33,2.49l-0.01,0.01
		c-4.01,4.23-4.6,9.92-2.71,14.66c0.94,2.36,2.49,4.49,4.54,6.1C82.2,247.3,84.42,248.3,86.95,248.67z"/>
	<path class="st30" d="M95.79,234.16c0.06,0.14,0.14,0.32,0.23,0.5c-0.46,4.31-4.12,7.93-8.39,7.31c-0.97-0.14-1.96-0.51-2.96-1.12
		c-1.12-0.69-1.96-1.59-2.55-2.59c-1.88-3.21-1.16-7.52,1.62-9.76c1.19-0.98,2.76-1.56,4.66-1.51c0.89,0.02,1.78,0.18,2.62,0.49
		c0.67,0.24,1.29,0.57,1.85,0.99C95.14,230.15,94.84,231.86,95.79,234.16z"/>
	<path class="st59" d="M228.55,217.99c-0.09-2.09,0.06-4.14,0.42-6.14c-0.13,0.08-0.26,0.15-0.39,0.23
		c-5.86,3.5-11.59,7.23-17.16,11.19c-1.55,1.1-19.22,15.01-19.4,14.81c-3.09-5.35-6.54-10.49-9.88-15.68
		c-0.65-1.02-1.36-2.03-2.06-3.03c-0.09-0.13-0.18-0.26-0.27-0.38c-1.85,2.32-4.01,4.39-6.4,6.18c-1.25,2.13-2.74,4.12-4.44,5.93
		c-1.15,3.03-2.79,5.87-4.8,8.43c0.13,0.16,0.25,0.32,0.38,0.48c7.42,9.37,14.98,18.63,22.57,27.87c0.99,1.2,1.97,2.4,2.96,3.59
		c1.25-1.5,2.36-3.44,3.51-5.02c10.51-14.5,22.1-28.88,34.83-42.19c0.27-0.28,0.54-0.55,0.8-0.83
		C228.86,221.65,228.63,219.84,228.55,217.99z"/>
	<path class="st35" d="M255.02,199.09c0.02,0.27-0.08,0.35-0.27,0.54c-0.24,0.28-0.48,0.47-0.77,0.69c-0.52,0.4-1.04,0.81-1.56,1.21
		c-1.01,0.82-2,1.66-2.97,2.52c-1.96,1.71-3.86,3.5-5.79,5.26c-5.27,4.79-10.35,9.78-15.26,14.93c-0.14-0.17-0.27-0.36-0.38-0.55
		c-2.06-3.46-0.96-7.84,0.55-11.62c2.3-1.37,4.6-2.69,6.94-3.99c5.3-2.94,10.75-5.55,16.21-8.16c0.56-0.28,1.13-0.54,1.69-0.82
		c0.34-0.16,0.91-0.45,1.31-0.36c0.03,0,0.1,0.04,0.12,0.06C254.93,198.9,255.01,199.01,255.02,199.09z"/>
	<path class="st35" d="M175.78,212.96c1.28,2.19,2.81,4.3,4.3,6.41c-5.39,6.72-10.56,13.6-15.54,20.63
		c-1.77-2.22-3.52-4.45-5.27-6.69c-0.69-0.89-2.08-2.66-2.08-2.66S175.66,212.96,175.78,212.96z"/>
	<path class="st41" d="M259.57,92.06c-0.14-0.71-0.56-1.21-1.11-1.49c-1.33,0.89-2.65,1.81-3.99,2.7c-1.37,0.91-2.75,1.79-4.18,2.55
		c-0.99,0.53-2.18,1-3.43,1.49c-1.38-17.21-13.03-33.89-25.99-44.08c-13.94-10.96-32.98-18.31-51.3-19.98
		c-1.79-0.16-3.58-0.27-5.36-0.32c0.01,1.72,0.07,3.44,0.16,5.17c0.33,6.5,1.11,13.03,1.4,19.49c0.21,4.81,0.05,9.78,0.11,14.71
		c0.01,1.65,0.05,3.29,0.13,4.93c2.26-0.11,4.51-0.12,6.73-0.01c8.33,0.39,16.4,2.37,23.8,6.98c7.35,4.58,13.1,11.08,17,18.64
		c-1.8,0.14-3.56,0.27-5.21,0.31c-2.88,0.06-5.77,0.09-8.66,0.17c-2.29,0.06-4.58,0.16-6.86,0.36c0.74,1.54,1.65,3.02,2.65,4.46
		c1.83,2.67,3.97,5.19,5.93,7.63c4.06,5.04,8.46,9.81,13.16,14.26c5.51,5.23,11.68,10.63,18.31,15.03c1.4,0.93,2.83,1.82,4.27,2.65
		c1.54-1.33,2.99-2.81,4.37-4.38c4.91-5.61,8.79-12.44,11.58-18.81c3.48-7.93,7.17-18.45,6.96-27.75
		C260.02,95.15,259.86,93.58,259.57,92.06z"/>
	<path class="st39" d="M252.27,100.92c0.45-0.22,0.9-0.45,1.36-0.68c-0.22,2.55-0.45,5.12-1.01,7.64
		c-1.16,5.24-2.86,10.36-5.08,15.25c-2.87,6.3-6.68,11.62-10.73,16.87c-6.45-4.56-12.84-9.11-18.67-14.71
		c-4.08-3.92-7.93-8.08-11.53-12.45c-1.21-1.47-2.34-3.05-3.45-4.64c2.06-0.02,4.11-0.05,6.15-0.05c2.1,0,4.37,0.15,6.68,0.24
		c1.96,0.08,3.93,0.11,5.85-0.02c-0.64-1.99-1.4-3.94-2.29-5.83c-8.35-17.93-27.04-31.19-46.77-30.9
		c-0.11-5.08-0.59-10.22-0.88-15.02c-0.34-5.71-0.6-11.66-1.36-17.47c5.59,0.95,11.17,1.97,16.68,3.57
		c10.11,2.93,19.87,7.29,28.38,13.54c7.71,5.67,14.28,13.04,18.89,21.43c4,7.28,5.74,14.54,6.46,22.42c0.15,1.6,0.25,3.22,0.32,4.88
		c1.8,0.09,3.74-0.51,5.61-1.34C248.82,102.8,250.7,101.7,252.27,100.92z"/>
</g>
</svg>
