<svg xmlns="http://www.w3.org/2000/svg" xmlns:xlink="http://www.w3.org/1999/xlink" width="1920" height="1080" viewBox="0 0 1920 1080"><defs><clipPath id="b"><rect width="1920" height="1080"/></clipPath></defs><g id="a" clip-path="url(#b)"><rect width="1920" height="1080" fill="#fff"/><path d="M0,0,1985.927,1.3l-53.8,273.7H0Z" transform="translate(-11.742 144.907)" fill="#c1f4ea"/><path d="M0,137.139l249.959-63.91,304.7,62.437L660.49,108.9l102.163,63.93L1216.986,62.82l653.186,121.888,135.02-31.209-3.664,266.088L5.472,388.379Z" transform="translate(-38.707 227.052)" fill="#70efd9"/><g transform="translate(-11.843 364.805)"><path d="M1932.129,340.815,2.78,339.322V177.367H216.1l297.716-1.493,1.765-29.794H867.821l.093,26.809,356.233-1.493,278.97,1.493,429.013-25.336Z" transform="translate(-0.286 -52.415)" fill="#39e5cc"/><rect width="75.812" height="120.415" transform="translate(0 37.179)" fill="#39e5cc"/><rect width="75.812" height="120.415" transform="translate(151.624 65.422)" fill="#39e5cc"/><rect width="75.812" height="120.415" transform="translate(375.46 41.638)" fill="#39e5cc"/><rect width="75.812" height="120.415" transform="translate(1053.75 31.228)" fill="#39e5cc"/><rect width="75.812" height="120.415" transform="translate(1167.095)" fill="#39e5cc"/><rect width="75.812" height="52.027" transform="translate(1322.955 68.388)" fill="#39e5cc"/><rect width="75.812" height="52.027" transform="translate(703.093 44.034)" fill="#39e5cc"/></g><g transform="translate(538.215 354.415)"><rect width="159.107" height="120.14" transform="translate(693.994 178.237)" fill="#05ccb4"/><path d="M415.426,128.76H249.308L206.04,172.028V361.97H451.172V172.028Z" transform="translate(-206.04 -58.722)" fill="#05ccb4"/><path d="M623.073,198.375,599.347,169.68H489.165L460.47,198.375h1.925V317.651H621.5V198.375Z" transform="translate(39.241 -19.274)" fill="#05ccb4"/><path d="M558.91,198.5l28.282-28.263H695.745L719.117,198.5" transform="translate(134.141 -18.734)" fill="#05ccb4"/><path d="M478.428,106.37H387.964L352.69,141.664V383.555H511.777V141.664Z" transform="translate(-64.663 -80.307)" fill="#05ccb4"/><rect width="19.856" height="38.397" transform="translate(69.448 48.983)" fill="#05ccb4"/><rect width="19.856" height="38.397" transform="translate(327.681)" fill="#05ccb4"/><rect width="19.856" height="38.397" transform="translate(613.723 137.719)" fill="#05ccb4"/></g><g transform="translate(155.893 529.823)"><path d="M193.319,199.02H44.68v19.817H63.554v74.319H174.385V218.837h18.953V199.02ZM166.608,285.4h-95.3V220.821h95.3Z" transform="translate(11.472 -166.397)" fill="#00b2a1"/><rect width="3.869" height="121.888" fill="#00b2a1"/><rect width="25.159" height="35.804" transform="translate(6.776 5.794)" fill="#00b2a1"/><path d="M309.959,255.987c1.728-4.066.884-8.917-4.38-11.234-7.287-3.2-14.75-5.323-22.783-5.224-2.4.039-6.383,1.316-8.7.943.02,1.375-.393,1.159-1.257-.648a19.806,19.806,0,0,0-3.123-3.417,15.581,15.581,0,0,0-17.068-1.925c-6.324-9.82-16.262-16.537-29.637-14.632a25.715,25.715,0,0,0-18.7,12.413,47.744,47.744,0,0,0-36.708-6.894c-6.658,1.473-14.023,5.519-18.423,10.979A35.237,35.237,0,0,0,137.2,240.02c-12.766-1.63-24.767,12.118-20.367,24.688,1.669,4.792,7.031,8.249,12.118,6.462a8.457,8.457,0,0,0,.962-.432,9.959,9.959,0,0,0,3.712.589q76.421-1.738,152.842-.059c5.146.746,10.311,1.512,15.457,2.377C312.866,275.451,317.8,260.642,309.959,255.987Z" transform="translate(80.139 -146.629)" fill="#00b2a1"/><path d="M817.819,254.477c1.728-4.066.884-8.917-4.38-11.234-7.287-3.2-14.75-5.323-22.783-5.224-2.4.039-6.383,1.316-8.7.943.02,1.375-.393,1.159-1.257-.648a19.807,19.807,0,0,0-3.123-3.417,15.581,15.581,0,0,0-17.067-1.925c-6.324-9.82-16.262-16.537-29.638-14.632a25.715,25.715,0,0,0-18.7,12.413,47.744,47.744,0,0,0-36.708-6.894c-6.658,1.473-14.023,5.519-18.423,10.979a35.236,35.236,0,0,0-11.981,3.673C632.3,236.879,620.3,250.628,624.7,263.2c1.669,4.792,7.031,8.249,12.118,6.462a8.464,8.464,0,0,0,.963-.432,9.958,9.958,0,0,0,3.712.589q76.421-1.738,152.842-.059c5.146.746,10.311,1.512,15.457,2.376C820.726,273.921,825.656,259.112,817.819,254.477Z" transform="translate(587.647 -148.085)" fill="#00b2a1"/><path d="M577.745,260.89a18.183,18.183,0,0,0-4.753-5.715,10.347,10.347,0,0,0-.471-2.318,18.242,18.242,0,0,0-1.709-3.692,8.751,8.751,0,0,0-8.8-6.894,24.322,24.322,0,0,0-3.791-.884c-4.085-.55-8.288.039-12.334.687-.471.079-1.12.236-1.826.432l-12.786.177a30.21,30.21,0,0,0-3.81-3.359,31.874,31.874,0,0,0-18.933-4.341,27.327,27.327,0,0,0-27.2-19.778c-14.927.432-25.906,11.411-29.107,24.9a49.013,49.013,0,0,0-25.788.844,9.129,9.129,0,0,0-5.951,5.126c-.255.2-.471.432-.707.648a9.908,9.908,0,0,0-3.614,2.475,9.536,9.536,0,0,0-5.656,4.321c-1.473,2.494-2.966,4.969-4.439,7.463-2.612,4.38-1.119,10.861,3.5,13.3a11.4,11.4,0,0,0,1.689.707,8.269,8.269,0,0,0,7.562,3.319q49.14-2.828,98.34-2.416c18.246,1.709,36.394,2.71,54.816-.766C578.354,273.951,580.515,266,577.745,260.89Zm-90.032-17.578a8.493,8.493,0,0,0,2.16-2.534c.059-.118.118-.236.157-.334a8.3,8.3,0,0,1,.314,2.828C489.481,243.292,488.6,243.312,487.714,243.312Z" transform="translate(369.864 -150.805)" fill="#00b2a1"/></g><g transform="translate(137.043 401.969)"><path d="M348.52,591.41V420.28s13.864,15.724,17.22,2.773l-.93,168.357Z" transform="translate(-271.033 -337.221)" fill="#936037"/><circle cx="39.893" cy="39.893" r="39.893" transform="translate(0 28.625)" fill="#009481"/><circle cx="39.893" cy="39.893" r="39.893" transform="translate(35.218 0)" fill="#009481"/><circle cx="39.893" cy="39.893" r="39.893" transform="translate(77.479 15.386)" fill="#009481"/><circle cx="39.893" cy="39.893" r="39.893" transform="translate(59.599 63.454)" fill="#009481"/><circle cx="39.893" cy="39.893" r="39.893" transform="translate(26.562 73.184)" fill="#009481"/></g><path d="M721.28,588.663V374.74s17.339,19.655,21.523,3.466l-1.167,210.449H721.28Z" transform="translate(-191.626 71.789)" fill="#936037"/><ellipse cx="49.86" cy="49.86" rx="49.86" ry="49.86" transform="translate(432.807 378.493)" fill="#009481"/><ellipse cx="49.86" cy="49.86" rx="49.86" ry="49.86" transform="translate(476.826 342.708)" fill="#009481"/><ellipse cx="49.86" cy="49.86" rx="49.86" ry="49.86" transform="translate(529.662 361.941)" fill="#009481"/><ellipse cx="49.86" cy="49.86" rx="49.86" ry="49.86" transform="translate(507.302 422.03)" fill="#009481"/><ellipse cx="49.86" cy="49.86" rx="49.86" ry="49.86" transform="translate(466.005 434.187)" fill="#009481"/><path d="M268.178,609.66H2221.137v477.888L240.89,1109.888Z" transform="translate(-279.597 38.477)" fill="#8dd9aa"/><path d="M0,0s151.58,140.68,267.774,138.245,224.32-52.177,348.864-27.779S853.57,228.31,976.972,201.672s223.6-130.535,307.713-130.636,161.391,12,276.674,67.2,412.687,80.311,443.6,0S2032.74.589,2032.74.589l24.227-160.267L36.857-135.452Z" transform="translate(-98.695 73.093)" fill="#fff"/><path d="M1927.394,643.41v.3h-.3Z" transform="translate(-378.069 30.247)" fill="#86cccf"/><path d="M1926.856,643.77l-1.226,2.139V643.77Z" transform="translate(-377.844 30.192)" fill="#86cccf"/><path d="M-95.67,20.31v.3h0Z" transform="translate(1689.014 652.428)" fill="#86cccf"/><path d="M-95.67,20.67l.921.921-.3-.921Z" transform="translate(1689.014 652.372)" fill="#86cccf"/><path d="M.15-173.5l2.139.609.3.3.3-.921H.15Z" transform="translate(1672.508 701.84)" fill="#86cccf"/><path d="M818.2,681.81V510.68s13.864,15.724,17.22,2.773l-.93,168.357h0a15.83,15.83,0,0,1-15.572.38Z" transform="translate(-206.612 50.77)" fill="#936037"/><circle cx="39.893" cy="39.893" r="39.893" transform="translate(534.1 507.016)" fill="#628352"/><circle cx="39.893" cy="39.893" r="39.893" transform="translate(569.319 478.392)" fill="#628352"/><circle cx="39.893" cy="39.893" r="39.893" transform="translate(611.58 493.769)" fill="#628352"/><circle cx="39.893" cy="39.893" r="39.893" transform="translate(593.7 541.846)" fill="#628352"/><circle cx="39.893" cy="39.893" r="39.893" transform="translate(560.662 551.576)" fill="#628352"/><path d="M-7.554,424.4S60.239,153.742,147.924,147.649s218.225,63.4,282.245,0S576,174.168,634.578,137.612C701.81,95.666,751.963,121.453,841.7,102.706S948.907-13,948.907-13l56.789.116s-31.8,159.5-69.921,170.195c-45.042,12.634-98.9,144.173-159.308,125.026-68.029-21.549-139.474-7.049-185.244,29.018S464.709,384.6,459.259,411.947-7.554,424.4-7.554,424.4Z" transform="translate(534.101 661.124)" fill="#e4ad25"/><path d="M1660.67,601.47V430.34s13.864,15.724,17.22,2.773l-.93,168.357Z" transform="translate(-386.753 64.883)" fill="#936037"/><circle cx="39.893" cy="39.893" r="39.893" transform="translate(1196.43 440.789)" fill="#009481"/><circle cx="39.893" cy="39.893" r="39.893" transform="translate(1231.648 412.165)" fill="#009481"/><circle cx="39.893" cy="39.893" r="39.893" transform="translate(1256.029 475.619)" fill="#009481"/><circle cx="39.893" cy="39.893" r="39.893" transform="translate(1222.992 485.349)" fill="#009481"/><path d="M1748.591,283.26l-4.278,1.226-.609.3-.3-1.53Z" transform="translate(-399.545 87.625)" fill="#86cccf"/><circle cx="39.893" cy="39.893" r="39.893" transform="translate(1273.909 427.551)" fill="#009481"/><ellipse cx="8" cy="7.5" rx="8" ry="7.5" transform="translate(1274 658)" fill="#936037"/></g></svg>