<svg xmlns="http://www.w3.org/2000/svg" viewBox="0 0 595.276 841.89"><title>loading</title><path d="M317.349,719.245c.259,17.295-40.49,40.526-86.148,41.211s-82.88-12.78-83.14-30.075,36.543-31.871,82.2-32.556S317.09,701.95,317.349,719.245Z" style="fill:#7b6a58"/><path d="M350.286,420.894c7.539-8.032,25.612-4.751,26.471,9.3.858,14.028-37.259,41.8-45.39,42.3l-1.325.329c-2.279-8.263-5.121-16.864-8.326-25.3l1.858-.45S343.01,428.645,350.286,420.894Z" style="fill:#cbbba0"/><path d="M228.66,412.465c1,.239,2.262-1.182,2.811-3.2.569-2,.2-3.815-.809-4.072-1-.24-2.262,1.182-2.83,3.2C227.282,410.391,227.655,412.226,228.66,412.465Zm47.894,34.361s-12.374,45.637-50.561,25.541a39.431,39.431,0,0,1-13.325-11.143c-.326-.44-.653-.9-.98-1.355-5.067-7.439-6.983-16.167-7.224-24.678a45.02,45.02,0,0,0,1.548,12.482l-.146.045c1.722,9.235-7.9,52.244-28.1,56.876-16.611,3.829-40.747-17.055-22.359-70.3a99.638,99.638,0,0,1,25-39.244c23.359-22.656,58.06-29.962,88.319-17.979,9.895,3.923,19.434,9.974,26.537,19.233,9.213,12,18.883,31.183,26.458,51.2,3.2,8.436,6.047,17.037,8.326,25.3,6.175,22.478,8.241,42.518,2.379,50.5-12.224,16.616-41.2,14.054-51.525-3.358a36.077,36.077,0,0,0-2.009-4.141C270.95,494.755,283.541,452.679,276.554,446.826ZM240.36,434.605a4.78,4.78,0,0,0,7.835,2l2.331-2.194,2.331-2.195a4.349,4.349,0,0,0-2.043-7.446l-3.149-.8-3.168-.815c-3.472-.884-6.686,2.143-5.774,5.448l.818,2.993Z" style="fill:#cbbba0"/><path d="M272.636,598.351c.461,3.563,10.64,104.339,16.568,108.435,6.046,4.194,13.654,12.857,5.5,17.335-7.987,4.381-32.857,4.168-34.022-6.021-1.163-10.171-2.36-53.244-2.672-57.736-.253-3.841-8.156-35.341-10.424-44.33-.373-1.517-.594-2.387-.594-2.387l-.033-.529a27.162,27.162,0,0,0,4.646-.691,34.349,34.349,0,0,0,12.786-5.912,36.925,36.925,0,0,0,5.77-5.2,35.225,35.225,0,0,0,2.451-2.981Z" style="fill:#cbbba0"/><path d="M250.814,424.767a4.349,4.349,0,0,1,2.043,7.446l-2.331,2.195L248.2,436.6a4.78,4.78,0,0,1-7.835-2l-.819-3.01-.818-2.993c-.912-3.3,2.3-6.332,5.774-5.448l3.168.815Z" style="fill:#e99ca7"/><path d="M249,502.855c7.793,10.775,21.5,35.569,21.135,53.653-.5,23.664-7.531,42.97-40.438,36.845-33.342-6.2-7.358-74.184,8.8-91.2A6.947,6.947,0,0,1,249,502.855Zm-3.921,69.638a2.819,2.819,0,1,0-2.646,2.833A2.752,2.752,0,0,0,245.077,572.493Z" style="fill:#e99ca7"/><path d="M229.7,593.353c32.907,6.125,39.943-13.181,40.438-36.845.369-18.084-13.342-42.878-21.135-53.653a6.947,6.947,0,0,0-10.5-.7C222.337,519.169,196.353,587.149,229.7,593.353Zm17.269,19.765a26.793,26.793,0,0,1-2.89.07,43.355,43.355,0,0,1-14.106-3.152,62.347,62.347,0,0,1-14.224-8.435,105.631,105.631,0,0,1-8.142-7.021c-7.882,5.489-19.787,2.891-25.474-13.443a39.648,39.648,0,0,1-1.649-11.4c-.016-.566-.032-1.131-.031-1.715-.025-1.643,0-3.343.082-5.082.053-1.577.142-3.175.247-4.809.047-.763.112-1.528.177-2.293.033-.391.065-.782.1-1.155.273-3.166.62-6.354,1.026-9.474l.265-2.086c.013-.089.028-.161.042-.233.089-.677.178-1.355.269-2.015.146-.964.275-1.91.405-2.838.081-.518.161-1.035.242-1.536.175-1.107.334-2.178.512-3.233a147.339,147.339,0,0,1,8.708-31.065c1.2-2.993,2.549-6.259,3.932-9.6.246-.563.474-1.108.7-1.67,5.447-12.929,11.641-26.469,14.778-29.226a1.5,1.5,0,0,1,.356-.287l.036-.02a1.23,1.23,0,0,1,.344-.18,39.431,39.431,0,0,0,13.325,11.143c38.187,20.1,50.561-25.541,50.561-25.541,6.987,5.853-5.6,47.929,2.333,68.99a24.894,24.894,0,0,0,2.009,4.141c8.007,19.464,2.316,49.16-1.284,63.585a40.971,40.971,0,0,1-7,14.792,35.225,35.225,0,0,1-2.451,2.981,36.925,36.925,0,0,1-5.77,5.2,34.349,34.349,0,0,1-12.786,5.912A27.162,27.162,0,0,1,246.964,613.118Z" style="fill:#cbbba0"/><ellipse cx="242.268" cy="572.665" rx="2.815" ry="2.666" transform="translate(-34.508 15.858) rotate(-3.5)" style="fill:#7b6a58"/><path d="M212.91,600.447a68.664,68.664,0,0,0,17.058,9.589,37.841,37.841,0,0,0,14.106,3.152,26.793,26.793,0,0,0,2.89-.07l.033.529s.221.87.594,2.387l-.974.254s-8.3,14.872-11.809,23.418c-3.474,8.545-11.443,44.961-13.561,64.072-2.138,19.094-25.224,16.915-32.44,15.87a6.43,6.43,0,0,1-4.376-2.545,8.973,8.973,0,0,1,5.413-9.193c7.938-3.652,17.645-33.346,20.532-40.793.679-1.722,1.058-6.221,1.277-12.108a.794.794,0,0,0,0-.212C213.09,636.064,212.91,600.447,212.91,600.447Z" style="fill:#cbbba0"/><path d="M244.074,613.188a37.841,37.841,0,0,1-14.106-3.152A43.355,43.355,0,0,0,244.074,613.188Z" style="fill:#cbbba0"/><path d="M227.832,408.394c.568-2.016,1.825-3.438,2.83-3.2,1,.257,1.378,2.074.809,4.072-.549,2.015-1.807,3.436-2.811,3.2S227.282,410.391,227.832,408.394Z" style="fill:#1d1d1b"/><path d="M212.668,461.224a1.23,1.23,0,0,0-.344.18A1.23,1.23,0,0,1,212.668,461.224Z" style="fill:#cbbba0"/><path d="M212.288,461.424a1.5,1.5,0,0,0-.356.287A1.5,1.5,0,0,1,212.288,461.424Z" style="fill:#cbbba0"/><path d="M211.658,654.8c.651-19.588-.721-54.229-.721-54.229l1.973-.121S213.09,636.064,211.658,654.8Z" style="fill:#cbbba0"/><path d="M196.453,492.607c.228-.545.474-1.108.7-1.67C196.927,491.5,196.7,492.044,196.453,492.607Z" style="fill:#cbbba0"/><path d="M186.962,516.361s2.3-6.049,5.559-14.155a147.339,147.339,0,0,0-8.708,31.065C185.4,523.533,186.962,516.361,186.962,516.361Z" style="fill:#cbbba0"/><path d="M221.247,703.778c-1.675,19.65-23.679,20.482-30.926,19.563a6.747,6.747,0,0,1-5.89-6.238,6.43,6.43,0,0,0,4.376,2.545C196.023,720.693,219.109,722.872,221.247,703.778Z" style="fill:#cbbba0"/><path d="M183.059,538.04c.081-.518.161-1.035.242-1.536C183.22,537.005,183.14,537.522,183.059,538.04Z" style="fill:#cbbba0"/><path d="M188.671,704.6c8.028-3.393,18.41-32.119,21.462-39.329.655-1.508,1.153-5.271,1.52-10.265-.219,5.887-.6,10.386-1.277,12.108-2.887,7.447-12.594,37.141-20.532,40.793a8.973,8.973,0,0,0-5.413,9.193C181.725,713.483,182.81,707.1,188.671,704.6Z" style="fill:#e99ca7"/><path d="M182.654,540.878c-.091.66-.18,1.338-.269,2.015C182.474,542.216,182.563,541.538,182.654,540.878Z" style="fill:#cbbba0"/><path d="M182.343,543.126l-.265,2.086C182.167,544.516,182.254,543.8,182.343,543.126Z" style="fill:#cbbba0"/><path d="M181.052,554.686c-.033.373-.065.764-.1,1.155C180.988,555.468,181.02,555.077,181.052,554.686Z" style="fill:#cbbba0"/><path d="M180.777,558.134c-.1,1.634-.194,3.232-.247,4.809C180.583,561.366,180.672,559.768,180.777,558.134Z" style="fill:#cbbba0"/><path d="M180.448,568.025c0,.584.015,1.149.031,1.715C180.463,569.174,180.447,568.609,180.448,568.025Z" style="fill:#cbbba0"/><path d="M229.968,610.036a43.355,43.355,0,0,0,14.106,3.152l-.005.531" style="fill:none;stroke:#a48a7b;stroke-linecap:round;stroke-linejoin:round;stroke-width:3.62843244490532px"/><path d="M221.247,703.778c-1.675,19.65-23.679,20.482-30.926,19.563a6.747,6.747,0,0,1-5.89-6.238,8.973,8.973,0,0,1,5.413-9.193c7.938-3.652,17.645-33.346,20.532-40.793.679-1.722,1.058-6.221,1.277-12.108" style="fill:none;stroke:#a48a7b;stroke-linecap:round;stroke-linejoin:round;stroke-width:3.62843244490532px"/><path d="M211.688,459.869a40.177,40.177,0,0,1-5.676-12.2,45.02,45.02,0,0,1-1.548-12.482c.123-12.037,4.434-22.773,6.49-28.242" style="fill:none;stroke:#a48a7b;stroke-linecap:round;stroke-linejoin:round;stroke-width:3.62843244490532px"/><path d="M280.9,519.957a36.077,36.077,0,0,0-2.009-4.141" style="fill:none;stroke:#a48a7b;stroke-linecap:round;stroke-linejoin:round;stroke-width:3.62843244490532px"/><path d="M212.324,461.4a1.23,1.23,0,0,1,.344-.18" style="fill:none;stroke:#a48a7b;stroke-linecap:round;stroke-linejoin:round;stroke-width:3.62843244490532px"/><path d="M211.932,461.711a1.5,1.5,0,0,1,.356-.287" style="fill:none;stroke:#a48a7b;stroke-linecap:round;stroke-linejoin:round;stroke-width:3.62843244490532px"/><path d="M196.453,492.607c.246-.563.474-1.108.7-1.67" style="fill:none;stroke:#a48a7b;stroke-linecap:round;stroke-linejoin:round;stroke-width:3.62843244490532px"/><path d="M183.813,533.271c1.59-9.738,3.149-16.91,3.149-16.91s2.3-6.049,5.559-14.155" style="fill:none;stroke:#a48a7b;stroke-linecap:round;stroke-linejoin:round;stroke-width:3.62843244490532px"/><path d="M183.059,538.04c.081-.518.161-1.035.242-1.536" style="fill:none;stroke:#a48a7b;stroke-linecap:round;stroke-linejoin:round;stroke-width:3.62843244490532px"/><path d="M182.385,542.893c.089-.677.178-1.355.269-2.015" style="fill:none;stroke:#a48a7b;stroke-linecap:round;stroke-linejoin:round;stroke-width:3.62843244490532px"/><path d="M182.078,545.212c.089-.7.176-1.408.265-2.086" style="fill:none;stroke:#a48a7b;stroke-linecap:round;stroke-linejoin:round;stroke-width:3.62843244490532px"/><path d="M180.954,555.841c.033-.391.065-.782.1-1.155" style="fill:none;stroke:#a48a7b;stroke-linecap:round;stroke-linejoin:round;stroke-width:3.62843244490532px"/><path d="M180.53,562.943c.053-1.577.142-3.175.247-4.809" style="fill:none;stroke:#a48a7b;stroke-linecap:round;stroke-linejoin:round;stroke-width:3.62843244490532px"/><path d="M180.479,569.74c-.016-.566-.032-1.131-.031-1.715" style="fill:none;stroke:#a48a7b;stroke-linecap:round;stroke-linejoin:round;stroke-width:3.62843244490532px"/><path d="M204.443,434.537c.013.212.008.442.021.654.241,8.511,2.157,17.239,7.224,24.678.327.457.654.915.98,1.355a39.431,39.431,0,0,0,13.325,11.143c38.187,20.1,50.561-25.541,50.561-25.541,6.987,5.853-5.6,47.929,2.333,68.99a24.894,24.894,0,0,0,2.009,4.141c10.328,17.412,39.3,19.974,51.525,3.358,5.862-7.983,3.8-28.023-2.379-50.5-2.279-8.263-5.121-16.864-8.326-25.3-7.575-20.022-17.245-39.208-26.458-51.2-7.1-9.259-16.642-15.31-26.537-19.233-30.259-11.983-64.96-4.677-88.319,17.979a99.638,99.638,0,0,0-25,39.244c-18.388,53.24,5.748,74.124,22.359,70.3,20.2-4.632,29.824-47.641,28.1-56.876" style="fill:none;stroke:#a48a7b;stroke-linecap:round;stroke-linejoin:round;stroke-width:3.62843244490532px"/><path d="M212.668,461.224a1.23,1.23,0,0,0-.344.18l-.036.02a1.5,1.5,0,0,0-.356.287c-3.137,2.757-9.331,16.3-14.778,29.226-.227.562-.473,1.125-.7,1.67-1.383,3.34-2.733,6.606-3.932,9.6a147.339,147.339,0,0,0-8.708,31.065c-.178,1.055-.337,2.126-.512,3.233-.081.5-.161,1.018-.242,1.536-.13.928-.259,1.874-.405,2.838-.091.66-.18,1.338-.269,2.015-.014.072-.029.144-.042.233l-.265,2.086c-.406,3.12-.753,6.308-1.026,9.474-.032.391-.064.782-.1,1.155-.065.765-.13,1.53-.177,2.293-.1,1.634-.194,3.232-.247,4.809-.081,1.739-.107,3.439-.082,5.082,0,.584.015,1.149.031,1.715a39.648,39.648,0,0,0,1.649,11.4c5.687,16.334,17.592,18.932,25.474,13.443-19.035-23.283-3.367-74.286-3.367-74.286" style="fill:none;stroke:#a48a7b;stroke-linecap:round;stroke-linejoin:round;stroke-width:3.62843244490532px"/><path d="M229.968,610.036a37.841,37.841,0,0,0,14.106,3.152,26.793,26.793,0,0,0,2.89-.07,27.162,27.162,0,0,0,4.646-.691,34.349,34.349,0,0,0,12.786-5.912,36.925,36.925,0,0,0,5.77-5.2,35.225,35.225,0,0,0,2.451-2.981,40.971,40.971,0,0,0,7-14.792c3.6-14.425,9.291-44.121,1.284-63.585" style="fill:none;stroke:#a48a7b;stroke-linecap:round;stroke-linejoin:round;stroke-width:3.62843244490532px"/><path d="M323.574,447.064s19.436-18.419,26.712-26.17c7.539-8.032,25.612-4.751,26.471,9.3.858,14.028-37.259,41.8-45.39,42.3" style="fill:none;stroke:#a48a7b;stroke-linecap:round;stroke-linejoin:round;stroke-width:3.62843244490532px"/><path d="M212.91,600.447s.18,35.617-1.252,54.35a.794.794,0,0,1,0,.212c-.367,4.994-.865,8.757-1.52,10.265-3.052,7.21-13.434,35.936-21.462,39.329-5.861,2.5-6.946,8.88-4.24,12.5a6.43,6.43,0,0,0,4.376,2.545c7.216,1.045,30.3,3.224,32.44-15.87,2.118-19.111,10.087-55.527,13.561-64.072,3.511-8.546,11.809-23.418,11.809-23.418" style="fill:none;stroke:#a48a7b;stroke-linecap:round;stroke-linejoin:round;stroke-width:3.62843244490532px"/><path d="M272.636,598.351c.461,3.563,10.64,104.339,16.568,108.435,6.046,4.194,13.654,12.857,5.5,17.335-7.987,4.381-32.857,4.168-34.022-6.021-1.163-10.171-2.36-53.244-2.672-57.736-.253-3.841-8.156-35.341-10.424-44.33-.373-1.517-.594-2.387-.594-2.387" style="fill:none;stroke:#a48a7b;stroke-linecap:round;stroke-linejoin:round;stroke-width:3.62843244490532px"/><path d="M249,502.855c7.793,10.775,21.5,35.569,21.135,53.653-.5,23.664-7.531,42.97-40.438,36.845-33.342-6.2-7.358-74.184,8.8-91.2A6.947,6.947,0,0,1,249,502.855Z" style="fill:none;stroke:#c69191;stroke-linecap:round;stroke-linejoin:round;stroke-width:3.62843244490532px"/><path d="M244.063,439.261,239.1,450.869c-.5,1.216-.926,1.949-2.122,1.332-5.263-3-16.114-7.9-15.284-18.754" style="fill:none;stroke:#634e42;stroke-linecap:round;stroke-linejoin:round;stroke-width:3.62843244490532px"/><path d="M259.99,447.149c-5.418,5.78-12.844,7.42-20.978,6.024" style="fill:none;stroke:#634e42;stroke-linecap:round;stroke-linejoin:round;stroke-width:3.62843244490532px"/><path d="M229.054,388.984s5.4-3.974,9.033-3.755" style="fill:none;stroke:#634e42;stroke-linecap:round;stroke-linejoin:round;stroke-width:3.62843244490532px"/><path d="M277.306,399.282s5.4,3.315,4.086,7.87" style="fill:none;stroke:#634e42;stroke-linecap:round;stroke-linejoin:round;stroke-width:3.62843244490532px"/><path d="M248.2,436.6a4.78,4.78,0,0,1-7.835-2l-.819-3.01-.818-2.993c-.912-3.3,2.3-6.332,5.774-5.448l3.168.815,3.149.8a4.349,4.349,0,0,1,2.043,7.446l-2.331,2.195Z" style="fill:none;stroke:#c69191;stroke-linecap:round;stroke-linejoin:round;stroke-width:3.62843244490532px"/><path d="M269.248,421.541c-.514,2.013-1.7,3.43-2.653,3.188s-1.312-2.078-.8-4.073c.532-2.014,1.719-3.431,2.671-3.189C269.422,417.727,269.78,419.545,269.248,421.541Z" style="fill:#1d1d1b"/><ellipse cx="269.264" cy="441.197" rx="6.461" ry="7.334" transform="translate(-26.432 17.261) rotate(-3.5)" style="fill:#e99ca7"/><ellipse cx="218.092" cy="423.853" rx="6.461" ry="7.334" transform="translate(-25.469 14.105) rotate(-3.5)" style="fill:#e99ca7"/><path d="M242.573,619.157c-13.435.822-29.727-12.017-30.413-12.564a2.576,2.576,0,0,1-.3-3.817,3.067,3.067,0,0,1,4.106-.313c.15.119,15.2,11.966,26.276,11.288a2.715,2.715,0,1,1,.33,5.406Z" style="fill:#a48a7b"/><path d="M250.109,618.831a3.6,3.6,0,0,1-3.532-3.163,3.928,3.928,0,0,1,2.548-4.686c8.266-2.007,16.618-5.295,17.874-7.033a3.025,3.025,0,0,1,4.555-1.373,4.489,4.489,0,0,1,1.281,5.489c-1.069,2.238-5.375,6.6-22.218,10.69A2.97,2.97,0,0,1,250.109,618.831Z" style="fill:#a48a7b"/><path d="M275.637,449.717s2.416,24.639,1.59,32.037" style="fill:none;stroke:#a48a7b;stroke-linecap:round;stroke-miterlimit:10;stroke-width:3.98205863152974px"/><path d="M351.06,345.987V739.669c0,6.616,3.725,11.98,8.319,11.98h0c4.594,0,8.318-5.364,8.318-11.98V250.318c0-6.971-3.924-12.623-8.765-12.623h0c-4.886,0-8.829,5.756-8.764,12.793Z" style="fill:#d8d8d5;stroke:#ededed;stroke-linecap:round;stroke-linejoin:round;stroke-width:5.96376794708177px"/><path d="M206.536,707.909s-9.966-2.724-16.686,0" style="fill:none;stroke:#a48a7b;stroke-linecap:round;stroke-linejoin:round;stroke-width:3.62843244490532px"/><path d="M293.563,710.768s-12.762-4.178-18.426.858" style="fill:none;stroke:#a48a7b;stroke-linecap:round;stroke-linejoin:round;stroke-width:3.57795032890772px"/><circle cx="358.932" cy="214.969" r="157.402" style="fill:#ee7358"/><circle cx="358.642" cy="214.292" r="145.169" style="fill:#eed351"/>
<path id="lolly__rotate" d="M214.294,219.923V209.461a11.43,11.43,0,0,0,.218-1.206c.17-2.264.214-4.542.5-6.79.629-4.942,1.162-9.911,2.12-14.793A146.778,146.778,0,0,1,267.327,102.4a147.812,147.812,0,0,1,84.1-32.992,118.979,118.979,0,0,1,21.443.432c4.985.593,9.988,1.161,14.91,2.118a143.223,143.223,0,0,1,32.353,10.426c21.561,9.868,39.855,23.94,54.361,42.746a146.964,146.964,0,0,1,30.4,77.646,133.749,133.749,0,0,1-.216,26.093,143.755,143.755,0,0,1-4.129,22.588,146.523,146.523,0,0,1-30.881,58.685,146.965,146.965,0,0,1-100.189,49.716c-1.467.1-2.929.259-4.394.391H354.619c-.52-.079-1.037-.182-1.56-.234-4.925-.482-9.879-.764-14.772-1.473a139.3,139.3,0,0,1-25.98-6.458,145.372,145.372,0,0,1-53.255-32.435,143.212,143.212,0,0,1-32.528-47A144.763,144.763,0,0,1,214.7,224.527C214.6,222.99,214.43,221.457,214.294,219.923Zm145.973-6.272a57.99,57.99,0,0,0,13.838,5.571,40.389,40.389,0,0,0,16.864,1.126A30.049,30.049,0,0,0,409,210.215a106.979,106.979,0,0,0,14.831-22.366c5.561-10.717,9.869-21.984,14.5-33.11,2.3-5.519,4.543-11.08,8.261-15.839,3.148-4.029,6.439-7.946,9.707-11.879,1.5-1.8,3.091-3.519,4.718-5.363A136.4,136.4,0,0,0,419.887,91.2a9.012,9.012,0,0,0-.577,1.06c-1.5,4-3.2,7.938-4.429,12.02-2.2,7.341-2.4,14.991-2.956,22.571-.448,6.156-.677,12.33-1.229,18.475q-1.028,11.412-2.448,22.787a103.232,103.232,0,0,1-5,21.944c-1.954,5.49-4.661,10.5-9.063,14.463-8.711,7.832-19.128,10.08-30.466,9.334-1.15-.075-2.3-.114-3.454-.169a4.281,4.281,0,0,1,.963-.629,57.547,57.547,0,0,0,18.111-9.2c6.328-4.909,10.849-11.034,12.491-19.028,1.062-5.168.577-10.338-.163-15.479a114.773,114.773,0,0,0-6.469-24.608c-3.907-10.23-8.073-20.363-12.239-30.491A65.823,65.823,0,0,1,367.9,95.046c-.489-5.47-.863-10.95-1.242-16.429-.06-.865-.254-1.243-1.227-1.279a137.345,137.345,0,0,0-48.464,6.905c-.345.114-.678.264-1.052.412a63.94,63.94,0,0,0,8.179,16.671c4.484,6.554,9.942,12.314,15.141,18.282,8.037,9.228,16.174,18.372,23.426,28.25,4.821,6.567,9.325,13.325,12.525,20.873a31.9,31.9,0,0,1,1.493,21.627c-2.617,9.343-8.322,16.522-15.931,22.321a1.3,1.3,0,0,1-.391.11c.972-2.12,1.976-4.108,2.81-6.165,3.011-7.418,4.742-15.055,3.8-23.132a29.379,29.379,0,0,0-9.614-18.638c-6.892-6.391-14.837-11.212-23.131-15.511-10.385-5.381-21.269-9.629-32.079-14.038-7.172-2.926-14.178-6.122-20.142-11.2q-6.578-5.6-13.125-11.237c-.221-.189-.462-.353-.722-.55a136.226,136.226,0,0,0-31.08,40.9c2.468,1.064,4.73,2.123,7.053,3.025a69.5,69.5,0,0,0,20.558,4.378c6.043.415,12.083.889,18.124,1.32,4.721.338,9.454.536,14.161,1q9.481.939,18.928,2.215a107.784,107.784,0,0,1,20.6,4.776c9.012,3.095,15.913,8.629,20.065,17.3a42.586,42.586,0,0,1,3.631,23.453,14.517,14.517,0,0,1-.584,2.192,3.83,3.83,0,0,0-.076-.77,56.885,56.885,0,0,0-8.982-17.953A33.274,33.274,0,0,0,335.03,182.4c-5.62-1.985-11.38-1.821-17.164-1.121a116.572,116.572,0,0,0-21.166,4.859c-10.385,3.289-20.366,7.62-30.408,11.794-5.4,2.247-10.74,4.711-16.474,6.016a119.779,119.779,0,0,1-19.7,2.321c-2.451.144-4.9.314-7.464.48a135.749,135.749,0,0,0,6.836,51.084c.4-.1.655-.157.9-.236a61.023,61.023,0,0,0,19.6-10.072c6.113-4.841,11.921-10.065,17.9-15.084,7.916-6.65,15.759-13.394,23.829-19.853a109.528,109.528,0,0,1,21.5-13.689c8.463-4.008,17.124-4.782,25.985-1.63A42.716,42.716,0,0,1,358.245,211.3c.437.543.926,1.042,1.39,1.562a4.3,4.3,0,0,1-.962-.2c-1.543-.714-3.044-1.526-4.61-2.184-7.588-3.19-15.4-5.147-23.73-4.251a29.482,29.482,0,0,0-18.984,9.635c-6.451,6.941-11.3,14.958-15.62,23.323-5.413,10.489-9.646,21.5-14.163,32.384-2.23,5.374-4.452,10.753-7.885,15.533a221.1,221.1,0,0,1-15.16,18.123c-.343.383-.688.765-1.052,1.168a136.3,136.3,0,0,0,41.3,31.287,64.857,64.857,0,0,0,5.155-11.964,73.847,73.847,0,0,0,3.222-17.693c.411-6.043.879-12.083,1.309-18.124.339-4.758.554-9.527,1.013-14.273.548-5.682,1.227-11.354,1.977-17.014a107.22,107.22,0,0,1,5.044-22.05c2.2-6.17,5.432-11.642,10.682-15.749,9.325-7.293,20.007-8.981,31.422-7.59.372.045.69.524,1.033.8a8.132,8.132,0,0,0-.694.954,59.673,59.673,0,0,0-5.2,13.74,40.072,40.072,0,0,0-.89,15.542,30,30,0,0,0,10.314,18.41,107.934,107.934,0,0,0,22.4,14.792c10.287,5.322,21.06,9.545,31.771,13.9,7.389,3,14.59,6.306,20.71,11.559q6.556,5.625,13.082,11.285c.595.514,1.178,1.042,1.82,1.61A136.367,136.367,0,0,0,483.6,274.193c-.357-.212-.578-.357-.811-.479a66.253,66.253,0,0,0-17.929-6.3c-7.676-1.506-15.486-1.7-23.255-2.269-4.8-.352-9.607-.519-14.391-.976-7.491-.715-14.977-1.506-22.442-2.448a105.949,105.949,0,0,1-21.823-5.008c-8.3-2.905-14.85-7.906-19.049-15.735a41.625,41.625,0,0,1-4.547-23.16c.091-1.276.167-2.552.251-3.829l.624-.256a2.955,2.955,0,0,0-.032.947c2.443,7.858,6.052,15.085,11.713,21.15,5.127,5.492,11.315,9.028,18.885,9.877a54.521,54.521,0,0,0,15.14-.834,117.758,117.758,0,0,0,22.692-6.194c9.838-3.772,19.588-7.774,29.336-11.776,6.39-2.623,12.87-4.831,19.809-5.4,4.489-.37,8.977-.755,13.467-1.111,1.953-.155,3.911-.253,5.933-.381a136.112,136.112,0,0,0-7.755-50.8c-.312.073-.53.108-.738.175a66.412,66.412,0,0,0-13.32,6.025c-5.591,3.272-10.431,7.521-15.32,11.711-9.375,8.037-18.679,16.16-28.186,24.038a127.058,127.058,0,0,1-22.712,15.38c-5.252,2.708-10.7,4.8-16.709,4.892a34.131,34.131,0,0,1-17.584-4.51A44.426,44.426,0,0,1,360.2,213.734l.077,0Zm44.309,131.015c-.187-.72-.281-1.163-.417-1.592a57.276,57.276,0,0,0-8.711-17.767c-4.99-6.519-10.436-12.689-15.7-19-6.965-8.346-14.077-16.573-20.878-25.051a108.484,108.484,0,0,1-13.436-21.122c-4.4-9.214-4.9-18.549-.965-27.989a43.6,43.6,0,0,1,14.174-17.856c.25-.192.489-.4.847-.693a2.077,2.077,0,0,0-.512-.034c-8.568,2.666-16.433,6.585-22.8,13.065-5.829,5.932-9,13.047-8.842,21.423a82.719,82.719,0,0,0,.987,11.064,112.249,112.249,0,0,0,6.231,23.033c3.778,9.834,7.766,19.587,11.776,29.328,2.66,6.462,4.859,13.034,5.459,20.031.544,6.338.972,12.687,1.354,19.037.072,1.189.43,1.48,1.569,1.518a135.171,135.171,0,0,0,37.633-3.944C396.412,347.1,400.423,345.845,404.576,344.666Z" style="fill:#86cccf"> 
</path></svg>