<svg xmlns="http://www.w3.org/2000/svg" width="314.804" height="314.804" viewBox="0 0 314.804 314.804"><g transform="translate(-201.531 -57.567)"><circle cx="157.402" cy="157.402" r="157.402" transform="translate(201.531 57.567)" fill="#e85b44"/><circle cx="145.169" cy="145.169" r="145.169" transform="translate(213.473 69.123)" fill="#f2c839"/><path d="M214.294,219.923V209.461a11.428,11.428,0,0,0,.218-1.206c.17-2.264.214-4.542.5-6.79.629-4.942,1.162-9.911,2.12-14.793A146.778,146.778,0,0,1,267.327,102.4a147.812,147.812,0,0,1,84.1-32.992,118.979,118.979,0,0,1,21.443.432c4.985.593,9.988,1.161,14.91,2.118a143.223,143.223,0,0,1,32.353,10.426c21.561,9.868,39.855,23.94,54.361,42.746a146.964,146.964,0,0,1,30.4,77.646,133.749,133.749,0,0,1-.216,26.093,143.757,143.757,0,0,1-4.129,22.588,146.523,146.523,0,0,1-30.881,58.685,146.965,146.965,0,0,1-100.189,49.716c-1.467.1-2.929.259-4.394.391H354.619c-.52-.079-1.037-.182-1.56-.234-4.925-.482-9.879-.764-14.772-1.473a139.3,139.3,0,0,1-25.98-6.458,145.372,145.372,0,0,1-53.255-32.435,143.211,143.211,0,0,1-32.528-47A144.762,144.762,0,0,1,214.7,224.527C214.6,222.99,214.43,221.457,214.294,219.923Zm145.973-6.272a57.989,57.989,0,0,0,13.838,5.571,40.389,40.389,0,0,0,16.864,1.126A30.049,30.049,0,0,0,409,210.215a106.98,106.98,0,0,0,14.831-22.366c5.561-10.717,9.869-21.984,14.5-33.11,2.295-5.519,4.543-11.08,8.261-15.839,3.148-4.029,6.439-7.946,9.707-11.879,1.5-1.8,3.091-3.519,4.718-5.363A136.4,136.4,0,0,0,419.887,91.2a9.011,9.011,0,0,0-.577,1.06c-1.5,4-3.2,7.938-4.429,12.02-2.2,7.341-2.4,14.991-2.956,22.571-.448,6.156-.677,12.33-1.229,18.475q-1.028,11.412-2.448,22.787a103.231,103.231,0,0,1-5,21.944c-1.954,5.49-4.661,10.505-9.063,14.463-8.711,7.832-19.128,10.08-30.466,9.334-1.15-.075-2.3-.114-3.454-.169a4.282,4.282,0,0,1,.963-.629,57.547,57.547,0,0,0,18.111-9.2c6.328-4.909,10.849-11.034,12.491-19.028,1.062-5.168.577-10.338-.163-15.479a114.773,114.773,0,0,0-6.469-24.608c-3.907-10.23-8.073-20.363-12.239-30.491a65.823,65.823,0,0,1-5.067-19.206c-.489-5.47-.863-10.95-1.242-16.429-.06-.865-.254-1.243-1.227-1.279a137.345,137.345,0,0,0-48.464,6.9c-.345.114-.678.264-1.052.412a63.94,63.94,0,0,0,8.179,16.671c4.484,6.554,9.942,12.314,15.141,18.282,8.037,9.228,16.174,18.372,23.426,28.25,4.821,6.567,9.325,13.325,12.525,20.873a31.9,31.9,0,0,1,1.493,21.627c-2.617,9.343-8.322,16.522-15.931,22.321a1.3,1.3,0,0,1-.391.11c.972-2.12,1.976-4.108,2.81-6.165,3.011-7.418,4.742-15.055,3.8-23.132a29.379,29.379,0,0,0-9.614-18.638c-6.892-6.391-14.837-11.212-23.131-15.511-10.385-5.381-21.269-9.629-32.079-14.038-7.172-2.926-14.178-6.122-20.142-11.2q-6.577-5.6-13.125-11.237c-.221-.189-.462-.353-.722-.55a136.226,136.226,0,0,0-31.08,40.9c2.468,1.064,4.73,2.123,7.053,3.025a69.5,69.5,0,0,0,20.558,4.378c6.043.415,12.083.889,18.124,1.32,4.721.338,9.454.536,14.161,1q9.481.939,18.928,2.215a107.784,107.784,0,0,1,20.6,4.776c9.012,3.1,15.913,8.629,20.065,17.3a42.587,42.587,0,0,1,3.631,23.453,14.519,14.519,0,0,1-.584,2.192,3.829,3.829,0,0,0-.076-.77,56.886,56.886,0,0,0-8.982-17.953A33.274,33.274,0,0,0,335.03,182.4c-5.62-1.985-11.38-1.821-17.164-1.121a116.572,116.572,0,0,0-21.166,4.859c-10.385,3.289-20.366,7.62-30.408,11.794-5.4,2.247-10.74,4.711-16.474,6.016a119.781,119.781,0,0,1-19.7,2.321c-2.451.144-4.9.314-7.464.48a135.749,135.749,0,0,0,6.836,51.084c.4-.1.655-.157.9-.236a61.024,61.024,0,0,0,19.6-10.072c6.113-4.841,11.921-10.065,17.895-15.084,7.916-6.65,15.759-13.394,23.829-19.853a109.527,109.527,0,0,1,21.5-13.689c8.463-4.008,17.124-4.782,25.985-1.63a42.716,42.716,0,0,1,19.045,14.027c.437.543.926,1.042,1.39,1.562a4.3,4.3,0,0,1-.962-.2c-1.543-.714-3.044-1.526-4.61-2.184-7.588-3.19-15.4-5.147-23.73-4.251a29.482,29.482,0,0,0-18.984,9.635c-6.451,6.941-11.3,14.958-15.62,23.323-5.413,10.489-9.646,21.5-14.163,32.384-2.23,5.374-4.452,10.753-7.885,15.533a221.108,221.108,0,0,1-15.16,18.123c-.343.383-.688.765-1.052,1.168a136.3,136.3,0,0,0,41.3,31.287,64.859,64.859,0,0,0,5.155-11.964,73.848,73.848,0,0,0,3.222-17.693c.411-6.043.879-12.083,1.309-18.124.339-4.758.554-9.527,1.013-14.273.548-5.682,1.227-11.354,1.977-17.014a107.218,107.218,0,0,1,5.044-22.05c2.2-6.17,5.432-11.642,10.682-15.749,9.325-7.293,20.007-8.981,31.422-7.59.372.045.69.524,1.033.8a8.133,8.133,0,0,0-.694.954,59.673,59.673,0,0,0-5.2,13.74,40.072,40.072,0,0,0-.89,15.542,30,30,0,0,0,10.314,18.41,107.934,107.934,0,0,0,22.4,14.792c10.287,5.322,21.06,9.545,31.771,13.9,7.389,3,14.59,6.306,20.71,11.559q6.557,5.625,13.082,11.285c.6.514,1.178,1.042,1.82,1.61A136.367,136.367,0,0,0,483.6,274.193c-.357-.212-.578-.357-.811-.479a66.254,66.254,0,0,0-17.929-6.295c-7.676-1.506-15.486-1.7-23.255-2.269-4.8-.352-9.607-.519-14.391-.976-7.491-.715-14.977-1.506-22.442-2.448a105.949,105.949,0,0,1-21.823-5.008c-8.3-2.9-14.85-7.906-19.049-15.735a41.625,41.625,0,0,1-4.547-23.16c.091-1.276.167-2.552.251-3.829l.624-.256a2.955,2.955,0,0,0-.032.947c2.443,7.858,6.052,15.085,11.713,21.15,5.127,5.492,11.315,9.028,18.885,9.877a54.521,54.521,0,0,0,15.14-.834,117.759,117.759,0,0,0,22.692-6.194c9.838-3.772,19.588-7.774,29.336-11.776,6.39-2.623,12.87-4.831,19.809-5.4,4.489-.37,8.977-.755,13.467-1.111,1.953-.155,3.911-.253,5.933-.381a136.112,136.112,0,0,0-7.755-50.8c-.312.073-.53.108-.738.175a66.413,66.413,0,0,0-13.32,6.025c-5.591,3.272-10.431,7.521-15.32,11.711-9.375,8.037-18.679,16.16-28.186,24.038a127.057,127.057,0,0,1-22.712,15.38c-5.252,2.708-10.7,4.8-16.709,4.892a34.131,34.131,0,0,1-17.584-4.51A44.426,44.426,0,0,1,360.2,213.734l.077,0Zm44.309,131.015c-.187-.72-.281-1.163-.417-1.592a57.275,57.275,0,0,0-8.711-17.767c-4.99-6.519-10.436-12.689-15.7-19-6.965-8.346-14.077-16.573-20.878-25.051a108.484,108.484,0,0,1-13.436-21.122c-4.4-9.214-4.9-18.549-.965-27.989a43.6,43.6,0,0,1,14.174-17.856c.25-.192.489-.4.847-.693a2.077,2.077,0,0,0-.512-.034c-8.568,2.666-16.433,6.585-22.8,13.065-5.829,5.932-9,13.047-8.842,21.423a82.714,82.714,0,0,0,.987,11.064,112.246,112.246,0,0,0,6.231,23.033c3.778,9.834,7.766,19.587,11.776,29.328,2.66,6.462,4.859,13.034,5.459,20.031.544,6.338.972,12.687,1.354,19.037.072,1.189.43,1.48,1.569,1.518a135.171,135.171,0,0,0,37.633-3.944C396.412,347.1,400.423,345.845,404.576,344.666Z" fill="#75c2c5"/></g></svg>