<svg xmlns="http://www.w3.org/2000/svg" width="53.327" height="53.684" viewBox="0 0 53.327 53.684"><g transform="translate(-1839.053 -24.596)"><ellipse cx="26.664" cy="26.842" rx="26.664" ry="26.842" transform="translate(1839.053 24.596)" fill="#ffc626"/><g transform="translate(1852.557 40)"><path d="M512.081,55.374q0,5.238.006,10.476c0,.363-.042.69-.4.875a.849.849,0,0,1-.946-.173q-3.311-2.436-6.633-4.86a1.306,1.306,0,0,0-.69-.226c-1.678-.018-3.355-.012-5.027-.012-.69,0-.946-.25-.946-.934V50.234c0-.714.244-.952.964-.952,1.666,0,3.326.006,4.991-.012a1.35,1.35,0,0,0,.72-.238q3.328-2.409,6.633-4.86a.776.776,0,0,1,1.339.654c-.006,3.51,0,7.026-.006,10.548Zm-1.529,9.2V46.212a.652.652,0,0,0-.113.03c-1.832,1.344-3.671,2.683-5.5,4.039a.521.521,0,0,0-.173.381c-.006,3.123-.012,6.252.006,9.376a.69.69,0,0,0,.262.482c.518.41,1.059.785,1.594,1.178C507.922,62.637,509.207,63.583,510.552,64.571Zm-11.63-4.646h4.3V50.8h-4.3Z" transform="translate(-497.44 -43.924)" fill="#fff"/><path d="M537.384,57.71a10.7,10.7,0,0,1-4.444,8.168.929.929,0,0,1-.684.22.98.98,0,0,1-.583-.506.663.663,0,0,1,.292-.827,9.3,9.3,0,0,0,.333-14.992c-.089-.071-.184-.137-.274-.208a.757.757,0,0,1-.244-1.112.747.747,0,0,1,1.112-.083,10.358,10.358,0,0,1,2.558,2.635A11.336,11.336,0,0,1,537.384,57.71Z" transform="translate(-511.286 -45.642)" fill="#fff"/><path d="M532.951,59.109a7.81,7.81,0,0,1-3.659,6.122.733.733,0,0,1-.886.042.625.625,0,0,1-.315-.714,1.281,1.281,0,0,1,.464-.6,6.36,6.36,0,0,0,.089-10.649l-.161-.107a.742.742,0,0,1-.286-1.077.711.711,0,0,1,1.095-.155,14.708,14.708,0,0,1,1.951,1.791A8.055,8.055,0,0,1,532.951,59.109Z" transform="translate(-509.845 -47.106)" fill="#fff"/><path d="M526.995,59.8a3.1,3.1,0,0,0-2.035-2.766c-.458-.208-.654-.541-.541-.916a.747.747,0,0,1,1.1-.458,4.843,4.843,0,0,1,2.9,3.712,4.9,4.9,0,0,1-2.838,5.223c-.512.22-.934.1-1.118-.333s0-.785.512-1.017A3.342,3.342,0,0,0,526.995,59.8Z" transform="translate(-508.356 -48.64)" fill="#fff"/></g><line y1="29.15" x2="30.34" transform="translate(1849.618 37.363)" fill="none" stroke="#009481" stroke-linecap="round" stroke-width="6"/><line x1="24.391" y1="25.581" transform="translate(1851.403 38.552)" fill="none" stroke="#009481" stroke-linecap="round" stroke-width="6"/></g></svg>