<svg xmlns="http://www.w3.org/2000/svg" width="140.18" height="141.12" viewBox="0 0 140.18 141.12"><g transform="translate(-799.52 -190)"><ellipse cx="70.09" cy="70.56" rx="70.09" ry="70.56" transform="translate(799.52 190)" fill="#fdc528"/><g transform="translate(920.611 339.333)"><g transform="translate(0.253 0.25)"><path d="M-29.54-95.58c-.05,2.08-.1,4.15-.15,6.23.1.86-.24,1.33-1.15,1.31-4.88.76-9.81.39-14.72.55a12.827,12.827,0,0,1-4.58.22l-2.55.13c-3.29.69-6.63.37-9.95.31-2.42.03-4.85.07-7.27.08a4.51,4.51,0,0,1-3.45-1.17,6,6,0,0,1-3.01-2.23l-.3-.18c-1.15-.6-2.34-1.15-3.43-1.83-1.55-.96-1.52-1.83.3-2.43.11-.05.22-.1.33-.16a57.063,57.063,0,0,1,6.35-4.79,12.784,12.784,0,0,1,3.94-.47c2.71-.67,5.45-.31,8.19-.27,3.07-.06,6.14-.11,9.21-.17a13.353,13.353,0,0,1,5.52-.22l5.51-.14a53.329,53.329,0,0,1,8.57.22c.65.01,1.29.01,1.93.02a1.181,1.181,0,0,1,.65,1.06l.06,2.58A1.309,1.309,0,0,1-29.54-95.58Z" fill="#fcbe1e"/><path d="M-22.09-117.42c1.2.81,1.43,1.34.09,2.18-2.88,1.8-5.69,3.73-8.61,5.46a6.6,6.6,0,0,1-4.72.76l-7.99.45a31.656,31.656,0,0,1-8.64.22q-6.825.1-13.66.2c-2.42.46-4.83.96-7.18-.28.03-1.67.05-3.33.08-5-.56-1.66-.27-3.37-.26-5.07-.04-.39-.09-.78-.14-1.18-.75-1.48-.09-2.06,1.35-2.06a77.235,77.235,0,0,1,9,.13q5.265-.09,10.53-.16a3.379,3.379,0,0,1,2.68-.13,55.344,55.344,0,0,1,8.92.01,3.171,3.171,0,0,1,2.23-.05l1.78-.3a1.7,1.7,0,0,1,1.8.05l.72.08c1.44-.06,2.9-.37,4.26.41A69.713,69.713,0,0,1-22.09-117.42Z" fill="#fcbe1e"/><path d="M-49.28-128.38c.15,4.79-1.25,5.94-6.02,4.99-.86-.17-1.33-.58-1.33-1.47v-2.89a.127.127,0,0,1,.06.01,1.766,1.766,0,0,1,0-.23c.11-4.61.59-5,5.21-4.57a1.868,1.868,0,0,1,1.97,1.76v.17C-49.35-129.86-49.31-129.12-49.28-128.38Z" fill="#fcbe1e"/><path d="M-46.42-41.93h.03c.23,5.41.41,10.83.73,16.24.13,2.13-.7,2.81-2.73,2.55-4.6-.6-4.6.76-4.73-4.96-.2-9.14-1.21-18.22-1.9-27.33-.7-9.26-.81-18.54-1.02-27.82-.03-1.29.42-1.99,1.77-1.96a1.62,1.62,0,0,0,.22-.01c6.47-.09,5.79-.92,6.11,5.24C-47.3-67.31-46.92-54.62-46.42-41.93Z" fill="#fcbe1e"/><path d="M-52.09-106.71c1.68-.14,2.85.18,2.98,2.24.13,2.14-1.17,2.21-2.66,2.23-.44.01-.88.07-1.32.1-3.12.21-3.7-.34-3.35-2.94.15-1.08.65-1.57,1.71-1.57C-53.86-106.64-52.97-106.64-52.09-106.71Z" fill="#fcbe1e"/><path d="M-49.11-104.47c-.13-2.07-1.3-2.38-2.98-2.24-.88.07-1.77.07-2.65.07a1.543,1.543,0,0,0-1.71,1.57c-.36,2.6.23,3.15,3.35,2.94.44-.04.88-.1,1.32-.1C-50.29-102.25-48.98-102.33-49.11-104.47ZM-53.12-28.1c.13,5.72.13,4.36,4.73,4.96,2.03.26,2.86-.41,2.73-2.55-.32-5.41-.5-10.82-.73-16.24h-.03c-.49-12.68-.88-25.38-1.52-38.05-.31-6.17.36-5.34-6.11-5.24a1.621,1.621,0,0,1-.22.01c-1.35-.03-1.8.67-1.77,1.96.2,9.28.32,18.56,1.02,27.82.68,9.1,1.69,18.19,1.9,27.33Zm-2.19-95.29c4.77.95,6.17-.2,6.02-4.99-.03-.74-.06-1.48-.12-2.22a1.875,1.875,0,0,0-1.81-1.93h-.17c-4.61-.43-5.09-.04-5.2,4.57a1.764,1.764,0,0,0,0,.23c-.02,0-.04-.01-.06-.01v2.89C-56.63-123.97-56.17-123.56-55.31-123.39Zm-17.81,3.71c.05.39.09.78.14,1.18-.01,1.69-.3,3.41.26,5.07-.03,1.67-.05,3.34-.08,5,2.35,1.25,4.77.74,7.18.28q6.825-.1,13.66-.2a31.656,31.656,0,0,0,8.64-.22l7.99-.45a6.548,6.548,0,0,0,4.72-.76c2.92-1.73,5.72-3.66,8.61-5.46,1.34-.84,1.11-1.37-.09-2.18a68.19,68.19,0,0,0-7.77-4.27c-1.36-.79-2.82-.47-4.26-.41l-.72-.08a1.655,1.655,0,0,0-1.8-.05l-1.78.3a3.118,3.118,0,0,0-2.23.05,55.345,55.345,0,0,0-8.92-.01,3.338,3.338,0,0,0-2.68.13c-3.51.05-7.02.11-10.53.16a77.2,77.2,0,0,0-9-.13C-73.21-121.74-73.87-121.16-73.12-119.68Zm-.24,31.76a4.561,4.561,0,0,0,3.45,1.17c2.42-.02,4.85-.05,7.27-.08,3.32.06,6.65.38,9.95-.31l2.55-.13a12.827,12.827,0,0,0,4.58-.22c4.91-.16,9.84.2,14.72-.55.91.02,1.26-.45,1.15-1.31.05-2.08.1-4.15.15-6.23a1.291,1.291,0,0,0,0-1.34l-.06-2.58a1.181,1.181,0,0,0-.65-1.06c-.65-.01-1.29-.02-1.93-.02a53.33,53.33,0,0,0-8.57-.22l-5.51.14a13.339,13.339,0,0,0-5.52.22c-3.07.06-6.14.11-9.21.17-2.73-.04-5.48-.39-8.19.27a12.784,12.784,0,0,0-3.94.47,58,58,0,0,0-6.35,4.79,2.01,2.01,0,0,1-.33.16c-1.82.6-1.85,1.47-.3,2.43,1.1.68,2.29,1.22,3.43,1.83l.3.18A5.922,5.922,0,0,0-73.36-87.92Zm55.99-29.74c1.03.94.76,1.96-.27,2.86a28.7,28.7,0,0,1-6.17,3.99,11,11,0,0,0-2.95,1.96,2.743,2.743,0,0,0-1.44,1.18c-.26.2-.51.4-.78.6-.76.45-1.52.9-2.28,1.34l-3.6.02-.85.02-4.41.2c-.64.01-1.29.01-1.93.01l-1.19-.03c-.99-.16-1.99-.36-2.79.51-.01.19-.02.37-.03.55.8.88,1.84.58,2.82.57.43.03.86.05,1.29.08a15.942,15.942,0,0,0,5.84.3l1.18-.03a3.91,3.91,0,0,0,2.29-.25c2.01.2,4.12-.65,6.05.52.01,5.39,0,10.78.06,16.17a4.406,4.406,0,0,1-1.14,2.8l-.86.12q-6.96,0-13.91-.01c-.79.01-1.65-.18-2.23.62-.07.73-.14,1.46-.21,2.18a8.93,8.93,0,0,0-.06,5.82c.04.28.08.57.12.86.14,2.87.24,5.74.42,8.61.13,2.2-.28,4.44.35,6.61v1.39a17.3,17.3,0,0,0,.45,6.64c.05.27.09.54.14.81a3.579,3.579,0,0,0,.29,2.32c.04.28.07.56.12.85a8.358,8.358,0,0,0,.33,4.06l.03,7.2c-.84,2.07-.35,4.24-.46,6.36-.15,3.09.73,6.18-.08,9.26a5.3,5.3,0,0,1-2.7,1.28,5.816,5.816,0,0,0-3.15.12c-.76.01-1.51.01-2.27.01a2.96,2.96,0,0,0-2.19.02l-.85.09-1-.13c-.25-.2-.51-.4-.76-.61-.29-1.75.08-3.57-.61-5.28-.01-.9-.01-1.8-.01-2.71a29.25,29.25,0,0,0,.01-9.79q-.135-3.315-.29-6.63c-.05-.47-.1-.94-.16-1.41l-.09-.84a3.629,3.629,0,0,0-.33-2.29l-.15-1.26c-.06-.18-.13-.36-.19-.54-.14-1.46-.27-2.92-.4-4.38a3.772,3.772,0,0,0-.15-2.3c-.04-.57-.07-1.15-.1-1.73-.02-.34-.04-.68-.05-1.03l-.03-3.42c.15-3.34-.32-6.65-.48-9.97-.01-.25-.02-.49-.02-.74a5.654,5.654,0,0,0-.24-3.18c-.17-1.82.23-3.67-.25-5.47a15.816,15.816,0,0,0-9.08-.64c-1,.01-2,.01-3.01.01l-1.41-.14c-.15-.03-.29-.07-.44-.1-2.88-2.55-6.19-4.51-9.25-6.82a18.4,18.4,0,0,1-1.86-1.57c-1.04-1.03-1.07-1.99.2-2.94,1.3-.96,2.52-2.03,3.78-3.06l2.18-1.23a4.694,4.694,0,0,0,2.34-1.65,6.344,6.344,0,0,1,5.59-2.02,47.054,47.054,0,0,0,9.34-.27c.64-.09,1.85.3,1.76-.74-.07-.88-1.24-.51-1.92-.53a94.577,94.577,0,0,0-11.78.49c-2.67.27-3.07-.37-2.88-3.05a65.327,65.327,0,0,0-.31-12.66c-.04-.28-.07-.56-.1-.84.18-1.4-.19-2.87.59-4.19l.06-.05,2.37-.33c.43.09.86.19,1.29.28a14.667,14.667,0,0,0,7.5-.03l2.64-.14c2.77.08,3.02-.19,2.57-2.74-.01-1.67-.01-3.35-.03-5.02a2.336,2.336,0,0,1,1.05-2.25l3.68-.16c.85.02,1.69.05,2.53.07a2.662,2.662,0,0,0,1.82-.44c.92-.02,1.84-.04,2.76-.05.29.2.58.41.88.62-.02,1.18-.04,2.37-.05,3.55.05.46.09.93.14,1.39.05,4.79.05,4.79,4.79,4.42a4.048,4.048,0,0,0,2.21.01c1.5.01,2.99.02,4.47.02a6.455,6.455,0,0,0,3.54-.1,3.659,3.659,0,0,1,1.32.05c4.65,2.18,9.22,4.48,13.04,7.97Z" fill="#fff"/></g></g></g></svg>