<svg xmlns="http://www.w3.org/2000/svg" width="421" height="152" viewBox="0 0 421 152"><g transform="translate(-5031 997)"><rect width="421" height="152" rx="10" transform="translate(5031 -997)" fill="#fff"/><path d="M-186.62,0V-13.22h-3.26V0Zm12.6-1.94a1.168,1.168,0,0,1-.42.06c-.58,0-.78-.28-.78-1.02V-5.3c0-2.46-1.1-3.68-3.28-3.68a4.2,4.2,0,0,0-2.7.98l-.08-.72h-2.96V0h3.1V-5.7a2.623,2.623,0,0,1,1.54-.54c.86,0,1.28.54,1.28,1.64v2.22c0,1.98.86,2.64,2.46,2.64a3.717,3.717,0,0,0,1.94-.44Zm9.04,2.2c2.54,0,4.18-1.1,4.18-2.88,0-1.42-1.02-2.1-3.24-2.84-1.08-.3-1.74-.6-1.74-1,0-.38.32-.58.98-.58a1.45,1.45,0,0,1,1.64,1.18l2.26-.62c-.22-1.54-1.64-2.54-3.74-2.54a5.1,5.1,0,0,0-2.8.76,2.487,2.487,0,0,0-1.18,2.24,2.172,2.172,0,0,0,.7,1.72,5.136,5.136,0,0,0,1.46.82c.34.14.76.3,1.28.48a10.242,10.242,0,0,1,1.12.4c.24.1.36.22.36.34,0,.3-.46.5-1.16.5q-1.53,0-1.86-1.14l-2.34.68C-168.56-.56-167.2.26-164.98.26Zm14.84-2.2a.934.934,0,0,1-.34.06c-.7,0-.86-.36-.86-1.34V-5.54c0-2.74-2.14-3.44-4.06-3.44a7.467,7.467,0,0,0-3.74,1.02l.32,2.3a5.724,5.724,0,0,1,2.88-.9c1.04,0,1.56.4,1.56,1.18v.46a8,8,0,0,0-1.42-.12c-2.48,0-4.06.86-4.06,2.7,0,1.6,1.18,2.6,3.12,2.6a4.658,4.658,0,0,0,2.76-.86,2.115,2.115,0,0,0,1.92.86,4.164,4.164,0,0,0,2.04-.44Zm-5.56.16c-.64,0-.96-.24-.96-.7,0-.56.46-.84,1.36-.84a6.331,6.331,0,0,1,.92.1v1.04A2.591,2.591,0,0,1-155.7-1.78Zm22.54-.16a.984.984,0,0,1-.4.06c-.58,0-.78-.24-.78-1.02V-5.3c0-2.46-1.08-3.68-3.24-3.68a4.3,4.3,0,0,0-2.98,1.32,2.876,2.876,0,0,0-2.7-1.32,4.165,4.165,0,0,0-2.54.94l-.08-.68h-2.96V0h3.1V-5.74a2.245,2.245,0,0,1,1.36-.5c.84,0,1.26.54,1.26,1.6V0h3.1V-5.34a2.433,2.433,0,0,0-.02-.42,2.4,2.4,0,0,1,1.38-.48c.82,0,1.22.54,1.22,1.62v2.24c0,1.98.86,2.64,2.46,2.64a4.105,4.105,0,0,0,1.96-.44Zm9.54-3.12a3.814,3.814,0,0,0-1.12-2.8,4.092,4.092,0,0,0-3.04-1.12,4.279,4.279,0,0,0-4.52,4.62c0,2.88,1.6,4.62,5.02,4.62a5.473,5.473,0,0,0,3.42-1l-.56-1.9a4.74,4.74,0,0,1-2.34.6,2.074,2.074,0,0,1-2.32-1.66h5.3A6.461,6.461,0,0,0-123.62-5.06Zm-5.52-.38c.16-1.06.68-1.58,1.54-1.58a1.276,1.276,0,0,1,1.4,1.26,2.738,2.738,0,0,1,.04.32Zm17.34,3.5a1.168,1.168,0,0,1-.42.06c-.58,0-.78-.28-.78-1.02V-5.3c0-2.46-1.1-3.68-3.28-3.68a4.2,4.2,0,0,0-2.7.98l-.08-.72h-2.96V0h3.1V-5.7a2.623,2.623,0,0,1,1.54-.54c.86,0,1.28.54,1.28,1.64v2.22c0,1.98.86,2.64,2.46,2.64a3.717,3.717,0,0,0,1.94-.44Zm10.84-1.9-1.66-4.88h-2.64l-1.64,4.88-1.48-4.88h-3.22L-108.2,0h2.26l1.88-4.88L-102.2,0h2.28l3.36-8.72h-2.98Zm13.48-1.22a3.814,3.814,0,0,0-1.12-2.8,4.092,4.092,0,0,0-3.04-1.12,4.279,4.279,0,0,0-4.52,4.62c0,2.88,1.6,4.62,5.02,4.62a5.473,5.473,0,0,0,3.42-1l-.56-1.9a4.74,4.74,0,0,1-2.34.6A2.074,2.074,0,0,1-92.94-3.7h5.3A6.461,6.461,0,0,0-87.48-5.06ZM-93-5.44c.16-1.06.68-1.58,1.54-1.58a1.276,1.276,0,0,1,1.4,1.26,2.74,2.74,0,0,1,.04.32Zm12.66-3.54a3.51,3.51,0,0,0-2.5,1.08l-.08-.82h-2.96V0h3.1V-5.48a2.346,2.346,0,0,1,1.48-.48,2.584,2.584,0,0,1,1.58.36l.18-.08V-8.86A2.49,2.49,0,0,0-80.34-8.98Zm7.94,4.56a5.227,5.227,0,0,0,2.58-4.3h-2.92a3.218,3.218,0,0,1-2.3,2.88v-8.08h-3.1V0h3.1V-3.42l.32-.06c.94,2.46,2.48,3.72,5.2,3.74l.62-2.62A5.059,5.059,0,0,1-70.82-3,4.538,4.538,0,0,1-72.4-4.42Zm7.36-6.32a1.8,1.8,0,0,0,0-2.54,1.774,1.774,0,0,0-2.52,0,1.8,1.8,0,0,0,0,2.54A1.774,1.774,0,0,0-65.04-10.74Zm-.36,11a3.918,3.918,0,0,0,1.94-.44l-.1-1.76a1.375,1.375,0,0,1-.44.06c-.56,0-.76-.24-.76-1.02V-8.72h-3.1v6.34C-67.86-.38-67,.26-65.4.26Zm13.36-2.2a1.168,1.168,0,0,1-.42.06c-.58,0-.78-.28-.78-1.02V-5.3c0-2.46-1.1-3.68-3.28-3.68a4.2,4.2,0,0,0-2.7.98l-.08-.72h-2.96V0h3.1V-5.7a2.623,2.623,0,0,1,1.54-.54c.86,0,1.28.54,1.28,1.64v2.22c0,1.98.86,2.64,2.46,2.64a3.717,3.717,0,0,0,1.94-.44Zm5.88-7c-.32-.02-.58-.04-.76-.04-2.54,0-4.18,1.34-4.18,3.42a3.068,3.068,0,0,0,1.54,2.78A2.874,2.874,0,0,0-50.92-.44,1.642,1.642,0,0,0-50.4.84a2.312,2.312,0,0,0-.98,1.82c0,1.34,1.26,2.26,4.12,2.26a7.689,7.689,0,0,0,3.92-.88,2.684,2.684,0,0,0,1.5-2.44c0-1.58-1.18-2.6-3.6-2.6H-47c-.9,0-1.36-.2-1.36-.6a.739.739,0,0,1,.38-.62,5.667,5.667,0,0,0,1.08.08c2.54,0,4.12-1.28,4.12-3.42a3.343,3.343,0,0,0-.4-1.66l1.38.08V-8.92Zm-.76,4.78c-.7,0-1.18-.58-1.18-1.46,0-.82.44-1.34,1.16-1.34.78,0,1.16.46,1.16,1.38C-45.78-4.7-46.2-4.16-46.92-4.16Zm1.08,5.6c.94,0,1.4.2,1.4.58,0,.5-.72.76-2.16.76-1.54,0-2.14-.22-2.14-.76a.778.778,0,0,1,.26-.58h2.64ZM-20.5-1.94a.984.984,0,0,1-.4.06c-.58,0-.78-.24-.78-1.02V-5.3c0-2.46-1.08-3.68-3.24-3.68A4.3,4.3,0,0,0-27.9-7.66a2.876,2.876,0,0,0-2.7-1.32,4.165,4.165,0,0,0-2.54.94l-.08-.68h-2.96V0h3.1V-5.74a2.245,2.245,0,0,1,1.36-.5c.84,0,1.26.54,1.26,1.6V0h3.1V-5.34a2.433,2.433,0,0,0-.02-.42A2.4,2.4,0,0,1-26-6.24c.82,0,1.22.54,1.22,1.62v2.24c0,1.98.86,2.64,2.46,2.64a4.105,4.105,0,0,0,1.96-.44Zm9.54-3.12a3.814,3.814,0,0,0-1.12-2.8,4.092,4.092,0,0,0-3.04-1.12,4.279,4.279,0,0,0-4.52,4.62c0,2.88,1.6,4.62,5.02,4.62a5.473,5.473,0,0,0,3.42-1l-.56-1.9a4.74,4.74,0,0,1-2.34.6A2.074,2.074,0,0,1-16.42-3.7h5.3A6.462,6.462,0,0,0-10.96-5.06Zm-5.52-.38c.16-1.06.68-1.58,1.54-1.58a1.276,1.276,0,0,1,1.4,1.26,2.739,2.739,0,0,1,.04.32ZM-2.64-2.6a3.063,3.063,0,0,1-1.52.38,1.555,1.555,0,0,1-1.18-.4,1.828,1.828,0,0,1-.34-1.2V-6.4H-2.9V-8.72H-5.68V-11.1l-3.1.24v2.14h-1.2V-6.4h1.2v3.34C-8.78-.84-7.62.26-5.3.26A4.813,4.813,0,0,0-2.48-.42ZM14.76,0,8.54-13.24H7.88L1.78,0H4.84l.72-1.62h5.4L11.7,0ZM8.22-7.6,9.86-4.02H6.62ZM21.5-8.98A3.51,3.51,0,0,0,19-7.9l-.08-.82H15.96V0h3.1V-5.48a2.346,2.346,0,0,1,1.48-.48,2.584,2.584,0,0,1,1.58.36l.18-.08V-8.86A2.49,2.49,0,0,0,21.5-8.98ZM30.34-2.6a3.063,3.063,0,0,1-1.52.38,1.555,1.555,0,0,1-1.18-.4,1.828,1.828,0,0,1-.34-1.2V-6.4h2.78V-8.72H27.3V-11.1l-3.1.24v2.14H23V-6.4h1.2v3.34C24.2-.84,25.36.26,27.68.26A4.813,4.813,0,0,0,30.5-.42Zm9.84-2.46a3.814,3.814,0,0,0-1.12-2.8,4.092,4.092,0,0,0-3.04-1.12A4.279,4.279,0,0,0,31.5-4.36c0,2.88,1.6,4.62,5.02,4.62a5.473,5.473,0,0,0,3.42-1l-.56-1.9a4.74,4.74,0,0,1-2.34.6A2.074,2.074,0,0,1,34.72-3.7h5.3A6.462,6.462,0,0,0,40.18-5.06Zm-5.52-.38c.16-1.06.68-1.58,1.54-1.58a1.276,1.276,0,0,1,1.4,1.26,2.739,2.739,0,0,1,.04.32ZM45.72-3.88l-1.8-4.84H40.64L44.54,0h2.24L50.6-8.72H47.3Zm13.9-1.18a3.814,3.814,0,0,0-1.12-2.8,4.092,4.092,0,0,0-3.04-1.12,4.279,4.279,0,0,0-4.52,4.62c0,2.88,1.6,4.62,5.02,4.62a5.473,5.473,0,0,0,3.42-1l-.56-1.9a4.74,4.74,0,0,1-2.34.6A2.074,2.074,0,0,1,54.16-3.7h5.3A6.462,6.462,0,0,0,59.62-5.06ZM54.1-5.44c.16-1.06.68-1.58,1.54-1.58a1.276,1.276,0,0,1,1.4,1.26,2.739,2.739,0,0,1,.04.32ZM63.68.26a3.918,3.918,0,0,0,1.94-.44l-.1-1.76a1.169,1.169,0,0,1-.42.06c-.58,0-.78-.24-.78-1.02V-13.92h-3.1V-2.38C61.22-.38,62.06.26,63.68.26Zm13.36-2.2a1.33,1.33,0,0,1-.42.06c-.56,0-.78-.24-.78-1.02V-13.92h-3.1v5.28a5.152,5.152,0,0,0-1.82-.34,4.531,4.531,0,0,0-3.26,1.24A4.791,4.791,0,0,0,66.4-4.16c0,2.74,1.36,4.42,3.84,4.42a3.989,3.989,0,0,0,2.84-1.1A2.193,2.193,0,0,0,75.24.26a3.812,3.812,0,0,0,1.9-.44ZM69.56-4.36a1.938,1.938,0,0,1,2.1-2.2,4.035,4.035,0,0,1,1.08.16v3.68a2.8,2.8,0,0,1-1.5.46Q69.56-2.26,69.56-4.36Zm17-.7a3.814,3.814,0,0,0-1.12-2.8A4.092,4.092,0,0,0,82.4-8.98a4.279,4.279,0,0,0-4.52,4.62c0,2.88,1.6,4.62,5.02,4.62a5.473,5.473,0,0,0,3.42-1l-.56-1.9a4.74,4.74,0,0,1-2.34.6A2.074,2.074,0,0,1,81.1-3.7h5.3A6.461,6.461,0,0,0,86.56-5.06Zm-5.52-.38c.16-1.06.68-1.58,1.54-1.58a1.276,1.276,0,0,1,1.4,1.26,2.738,2.738,0,0,1,.04.32Zm17.4,3.5a1.03,1.03,0,0,1-.42.06c-.58,0-.76-.24-.76-1.02V-5.3c0-2.46-1.08-3.68-3.26-3.68a4.237,4.237,0,0,0-2.66.94v-5.88h-3.1V0h3.1V-5.68a2.533,2.533,0,0,1,1.56-.56c.86,0,1.3.54,1.3,1.62v2.24c0,2,.82,2.64,2.4,2.64a3.945,3.945,0,0,0,1.96-.44Zm5.52,2.2a4.571,4.571,0,0,0,3.44-1.28,4.617,4.617,0,0,0,1.28-3.42c0-2.86-1.76-4.54-4.64-4.54a4.829,4.829,0,0,0-3.48,1.22A4.416,4.416,0,0,0,99.28-4.4,4.6,4.6,0,0,0,100.54-1,4.684,4.684,0,0,0,103.96.26ZM104-2.08c-.94,0-1.56-.9-1.56-2.34,0-1.42.6-2.24,1.58-2.24.96,0,1.54.82,1.54,2.24C105.56-2.98,104.96-2.08,104-2.08Zm10.82-6.86c-.32-.02-.58-.04-.76-.04-2.54,0-4.18,1.34-4.18,3.42a3.068,3.068,0,0,0,1.54,2.78,2.874,2.874,0,0,0-1.36,2.34,1.642,1.642,0,0,0,.52,1.28,2.312,2.312,0,0,0-.98,1.82c0,1.34,1.26,2.26,4.12,2.26a7.689,7.689,0,0,0,3.92-.88,2.684,2.684,0,0,0,1.5-2.44c0-1.58-1.18-2.6-3.6-2.6h-1.56c-.9,0-1.36-.2-1.36-.6a.739.739,0,0,1,.38-.62,5.667,5.667,0,0,0,1.08.08c2.54,0,4.12-1.28,4.12-3.42a3.343,3.343,0,0,0-.4-1.66l1.38.08V-8.92Zm-.76,4.78c-.7,0-1.18-.58-1.18-1.46,0-.82.44-1.34,1.16-1.34.78,0,1.16.46,1.16,1.38C115.2-4.7,114.78-4.16,114.06-4.16Zm1.08,5.6c.94,0,1.4.2,1.4.58,0,.5-.72.76-2.16.76-1.54,0-2.14-.22-2.14-.76a.778.778,0,0,1,.26-.58h2.64Zm13.16-6.5a3.814,3.814,0,0,0-1.12-2.8,4.092,4.092,0,0,0-3.04-1.12,4.279,4.279,0,0,0-4.52,4.62c0,2.88,1.6,4.62,5.02,4.62a5.473,5.473,0,0,0,3.42-1l-.56-1.9a4.74,4.74,0,0,1-2.34.6,2.074,2.074,0,0,1-2.32-1.66h5.3A6.461,6.461,0,0,0,128.3-5.06Zm-5.52-.38c.16-1.06.68-1.58,1.54-1.58a1.276,1.276,0,0,1,1.4,1.26,2.738,2.738,0,0,1,.04.32Zm10.5,5.7c2.54,0,4.18-1.1,4.18-2.88,0-1.42-1.02-2.1-3.24-2.84-1.08-.3-1.74-.6-1.74-1,0-.38.32-.58.98-.58a1.45,1.45,0,0,1,1.64,1.18l2.26-.62c-.22-1.54-1.64-2.54-3.74-2.54a5.1,5.1,0,0,0-2.8.76,2.487,2.487,0,0,0-1.18,2.24,2.172,2.172,0,0,0,.7,1.72,5.136,5.136,0,0,0,1.46.82c.34.14.76.3,1.28.48a10.242,10.242,0,0,1,1.12.4c.24.1.36.22.36.34,0,.3-.46.5-1.16.5q-1.53,0-1.86-1.14l-2.34.68C129.7-.56,131.06.26,133.28.26Zm9.72,0a5.785,5.785,0,0,0,3.7-1.24l-.68-2.1a3.934,3.934,0,0,1-2.3.78c-1.5,0-2.26-.8-2.26-2.38,0-1.1.4-1.9,1.28-1.9.68,0,1.06.44,1.16,1.34l2.68-.74q-.39-3-3.66-3a4.719,4.719,0,0,0-3.34,1.2,4.361,4.361,0,0,0-1.28,3.4C138.3-1.58,139.94.26,143,.26Zm15.36-2.2a1.03,1.03,0,0,1-.42.06c-.58,0-.76-.24-.76-1.02V-5.3c0-2.46-1.08-3.68-3.26-3.68a4.237,4.237,0,0,0-2.66.94v-5.88h-3.1V0h3.1V-5.68a2.533,2.533,0,0,1,1.56-.56c.86,0,1.3.54,1.3,1.62v2.24c0,2,.82,2.64,2.4,2.64a3.945,3.945,0,0,0,1.96-.44Zm5.52,2.2a4.571,4.571,0,0,0,3.44-1.28,4.617,4.617,0,0,0,1.28-3.42c0-2.86-1.76-4.54-4.64-4.54a4.829,4.829,0,0,0-3.48,1.22A4.416,4.416,0,0,0,159.2-4.4,4.6,4.6,0,0,0,160.46-1,4.684,4.684,0,0,0,163.88.26Zm.04-2.34c-.94,0-1.56-.9-1.56-2.34,0-1.42.6-2.24,1.58-2.24.96,0,1.54.82,1.54,2.24C165.48-2.98,164.88-2.08,163.92-2.08ZM174.38.26a4.571,4.571,0,0,0,3.44-1.28,4.617,4.617,0,0,0,1.28-3.42c0-2.86-1.76-4.54-4.64-4.54a4.829,4.829,0,0,0-3.48,1.22A4.416,4.416,0,0,0,169.7-4.4,4.6,4.6,0,0,0,170.96-1,4.684,4.684,0,0,0,174.38.26Zm.04-2.34c-.94,0-1.56-.9-1.56-2.34,0-1.42.6-2.24,1.58-2.24.96,0,1.54.82,1.54,2.24C175.98-2.98,175.38-2.08,174.42-2.08Zm8.7,2.34a3.918,3.918,0,0,0,1.94-.44l-.1-1.76a1.169,1.169,0,0,1-.42.06c-.58,0-.78-.24-.78-1.02V-13.92h-3.1V-2.38C180.66-.38,181.5.26,183.12.26Zm4.48,2.8c1.62-1.66,2.44-3.14,2.44-4.4a1.8,1.8,0,0,0-1.8-1.96,1.767,1.767,0,0,0-1.8,1.74,1.432,1.432,0,0,0,1.04,1.52,6.633,6.633,0,0,1-1.14,2.2Zm-344.73,20.2a4.571,4.571,0,0,0,3.44-1.28,4.617,4.617,0,0,0,1.28-3.42c0-2.86-1.76-4.54-4.64-4.54a4.829,4.829,0,0,0-3.48,1.22,4.416,4.416,0,0,0-1.28,3.36,4.6,4.6,0,0,0,1.26,3.4A4.684,4.684,0,0,0-157.13,23.26Zm.04-2.34c-.94,0-1.56-.9-1.56-2.34,0-1.42.6-2.24,1.58-2.24.96,0,1.54.82,1.54,2.24C-155.53,20.02-156.13,20.92-157.09,20.92Zm11.86-6.9a4.2,4.2,0,0,0-2.78,1l-.32-.74h-2.52V27.66h3.1V22.9a4.716,4.716,0,0,0,1.84.36c2.64,0,4.48-1.7,4.48-4.82C-141.43,15.7-142.83,14.02-145.23,14.02Zm-1.3,6.82a4.507,4.507,0,0,1-1.22-.18V17a2.879,2.879,0,0,1,1.52-.48c1.1,0,1.66.7,1.66,2.12C-144.57,20.02-145.31,20.84-146.53,20.84Zm9.1,2.42a3.918,3.918,0,0,0,1.94-.44l-.1-1.76a1.169,1.169,0,0,1-.42.06c-.58,0-.78-.24-.78-1.02V9.08h-3.1V20.62C-139.89,22.62-139.05,23.26-137.43,23.26Zm11.4-5.32a3.814,3.814,0,0,0-1.12-2.8,4.092,4.092,0,0,0-3.04-1.12,4.279,4.279,0,0,0-4.52,4.62c0,2.88,1.6,4.62,5.02,4.62a5.473,5.473,0,0,0,3.42-1l-.56-1.9a4.74,4.74,0,0,1-2.34.6,2.074,2.074,0,0,1-2.32-1.66h5.3A6.461,6.461,0,0,0-126.03,17.94Zm-5.52-.38c.16-1.06.68-1.58,1.54-1.58a1.276,1.276,0,0,1,1.4,1.26,2.738,2.738,0,0,1,.04.32Zm9.76-5.3a1.8,1.8,0,0,0,0-2.54,1.774,1.774,0,0,0-2.52,0,1.8,1.8,0,0,0,0,2.54A1.774,1.774,0,0,0-121.79,12.26Zm-.36,11a3.918,3.918,0,0,0,1.94-.44l-.1-1.76a1.375,1.375,0,0,1-.44.06c-.56,0-.76-.24-.76-1.02V14.28h-3.1v6.34C-124.61,22.62-123.75,23.26-122.15,23.26Zm13.32-2.2a1.33,1.33,0,0,1-.42.06c-.56,0-.78-.24-.78-1.02V9.08h-3.1v5.28a5.152,5.152,0,0,0-1.82-.34,4.531,4.531,0,0,0-3.26,1.24,4.791,4.791,0,0,0-1.26,3.58c0,2.74,1.36,4.42,3.84,4.42a3.989,3.989,0,0,0,2.84-1.1,2.193,2.193,0,0,0,2.16,1.1,3.812,3.812,0,0,0,1.9-.44Zm-7.48-2.42a1.938,1.938,0,0,1,2.1-2.2,4.035,4.035,0,0,1,1.08.16v3.68a2.8,2.8,0,0,1-1.5.46Q-116.31,20.74-116.31,18.64Zm11.42-6.38a1.8,1.8,0,0,0,0-2.54,1.774,1.774,0,0,0-2.52,0,1.8,1.8,0,0,0,0,2.54A1.774,1.774,0,0,0-104.89,12.26Zm-.36,11a3.918,3.918,0,0,0,1.94-.44l-.1-1.76a1.375,1.375,0,0,1-.44.06c-.56,0-.76-.24-.76-1.02V14.28h-3.1v6.34C-107.71,22.62-106.85,23.26-105.25,23.26Zm13.36-2.2a1.168,1.168,0,0,1-.42.06c-.58,0-.78-.28-.78-1.02V17.7c0-2.46-1.1-3.68-3.28-3.68a4.2,4.2,0,0,0-2.7.98l-.08-.72h-2.96V23h3.1V17.3a2.623,2.623,0,0,1,1.54-.54c.86,0,1.28.54,1.28,1.64v2.22c0,1.98.86,2.64,2.46,2.64a3.717,3.717,0,0,0,1.94-.44Zm5.88-7c-.32-.02-.58-.04-.76-.04-2.54,0-4.18,1.34-4.18,3.42a3.068,3.068,0,0,0,1.54,2.78,2.874,2.874,0,0,0-1.36,2.34,1.642,1.642,0,0,0,.52,1.28,2.312,2.312,0,0,0-.98,1.82c0,1.34,1.26,2.26,4.12,2.26a7.689,7.689,0,0,0,3.92-.88,2.684,2.684,0,0,0,1.5-2.44c0-1.58-1.18-2.6-3.6-2.6h-1.56c-.9,0-1.36-.2-1.36-.6a.739.739,0,0,1,.38-.62,5.667,5.667,0,0,0,1.08.08c2.54,0,4.12-1.28,4.12-3.42a3.343,3.343,0,0,0-.4-1.66l1.38.08V14.08Zm-.76,4.78c-.7,0-1.18-.58-1.18-1.46,0-.82.44-1.34,1.16-1.34.78,0,1.16.46,1.16,1.38C-85.63,18.3-86.05,18.84-86.77,18.84Zm1.08,5.6c.94,0,1.4.2,1.4.58,0,.5-.72.76-2.16.76-1.54,0-2.14-.22-2.14-.76a.778.778,0,0,1,.26-.58h2.64Zm15.94-8.64v2.6h2.88a2.569,2.569,0,0,1-2.78,2.08c-2.4,0-3.48-1.58-3.48-4.2,0-2.58,1.4-3.94,3.48-3.94a2.333,2.333,0,0,1,2.58,1.78l2.84-.78c-.34-2.46-2.26-3.82-5.4-3.82-2.62,0-4.64.84-5.9,2.94a7.609,7.609,0,0,0-.94,3.9c0,2.38.6,4.12,1.82,5.24a6.987,6.987,0,0,0,4.86,1.66A6.576,6.576,0,0,0-65.73,22c1.2-.9,1.96-2.62,2.02-4.94l.02-1.26Zm13.18-1.78a3.51,3.51,0,0,0-2.5,1.08l-.08-.82h-2.96V23h3.1V17.52a2.346,2.346,0,0,1,1.48-.48,2.584,2.584,0,0,1,1.58.36l.18-.08V14.14A2.49,2.49,0,0,0-56.57,14.02Zm11.12,7.04a.934.934,0,0,1-.34.06c-.7,0-.86-.36-.86-1.34V17.46c0-2.74-2.14-3.44-4.06-3.44a7.467,7.467,0,0,0-3.74,1.02l.32,2.3a5.724,5.724,0,0,1,2.88-.9c1.04,0,1.56.4,1.56,1.18v.46a8,8,0,0,0-1.42-.12c-2.48,0-4.06.86-4.06,2.7,0,1.6,1.18,2.6,3.12,2.6a4.658,4.658,0,0,0,2.76-.86,2.115,2.115,0,0,0,1.92.86,4.164,4.164,0,0,0,2.04-.44Zm-5.56.16c-.64,0-.96-.24-.96-.7,0-.56.46-.84,1.36-.84a6.331,6.331,0,0,1,.92.1v1.04A2.591,2.591,0,0,1-51.01,21.22Zm7.24-6.94h-.98V16.6h.98V23h3.1V16.6h1.8V14.28h-1.8v-.7c0-1.5.5-2.06,1.46-2.06a1.561,1.561,0,0,1,.48.06l.34-2.52a5.092,5.092,0,0,0-1.48-.22c-2.4,0-3.9,1.4-3.9,4.36Zm7.82-5.22a1.8,1.8,0,0,0-1.26,3.04,1.787,1.787,0,0,0,3.04-1.26A1.735,1.735,0,0,0-35.95,9.06ZM-33.31,21a5.833,5.833,0,0,1-.66.04q-.54-.12-.54-1.02V14.28h-3.06v6.34c0,2,.84,2.64,2.42,2.64a3.918,3.918,0,0,0,1.94-.44Zm4.68,2.26c2.54,0,4.18-1.1,4.18-2.88,0-1.42-1.02-2.1-3.24-2.84-1.08-.3-1.74-.6-1.74-1,0-.38.32-.58.98-.58a1.45,1.45,0,0,1,1.64,1.18l2.26-.62c-.22-1.54-1.64-2.54-3.74-2.54a5.1,5.1,0,0,0-2.8.76,2.487,2.487,0,0,0-1.18,2.24,2.172,2.172,0,0,0,.7,1.72,5.136,5.136,0,0,0,1.46.82c.34.14.76.3,1.28.48a10.241,10.241,0,0,1,1.12.4c.24.1.36.22.36.34,0,.3-.46.5-1.16.5q-1.53,0-1.86-1.14l-2.34.68C-32.21,22.44-30.85,23.26-28.63,23.26Zm9.72,0a5.785,5.785,0,0,0,3.7-1.24l-.68-2.1a3.934,3.934,0,0,1-2.3.78c-1.5,0-2.26-.8-2.26-2.38,0-1.1.4-1.9,1.28-1.9.68,0,1.06.44,1.16,1.34l2.68-.74q-.39-3-3.66-3a4.719,4.719,0,0,0-3.34,1.2,4.361,4.361,0,0,0-1.28,3.4C-23.61,21.42-21.97,23.26-18.91,23.26Zm15.36-2.2a1.03,1.03,0,0,1-.42.06c-.58,0-.76-.24-.76-1.02V17.7c0-2.46-1.08-3.68-3.26-3.68a4.237,4.237,0,0,0-2.66.94V9.08h-3.1V23h3.1V17.32a2.533,2.533,0,0,1,1.56-.56c.86,0,1.3.54,1.3,1.62v2.24c0,2,.82,2.64,2.4,2.64a3.945,3.945,0,0,0,1.96-.44Zm9.52-3.12a3.814,3.814,0,0,0-1.12-2.8,4.092,4.092,0,0,0-3.04-1.12,4.279,4.279,0,0,0-4.52,4.62c0,2.88,1.6,4.62,5.02,4.62a5.473,5.473,0,0,0,3.42-1l-.56-1.9a4.74,4.74,0,0,1-2.34.6A2.074,2.074,0,0,1,.51,19.3h5.3A6.462,6.462,0,0,0,5.97,17.94ZM.45,17.56c.16-1.06.68-1.58,1.54-1.58a1.276,1.276,0,0,1,1.4,1.26,2.739,2.739,0,0,1,.04.32Zm19.7.38a3.814,3.814,0,0,0-1.12-2.8,4.092,4.092,0,0,0-3.04-1.12,4.279,4.279,0,0,0-4.52,4.62c0,2.88,1.6,4.62,5.02,4.62a5.473,5.473,0,0,0,3.42-1l-.56-1.9a4.74,4.74,0,0,1-2.34.6,2.074,2.074,0,0,1-2.32-1.66h5.3A6.462,6.462,0,0,0,20.15,17.94Zm-5.52-.38c.16-1.06.68-1.58,1.54-1.58a1.276,1.276,0,0,1,1.4,1.26,2.739,2.739,0,0,1,.04.32Zm17.34,3.5a1.168,1.168,0,0,1-.42.06c-.58,0-.78-.28-.78-1.02V17.7c0-2.46-1.1-3.68-3.28-3.68a4.2,4.2,0,0,0-2.7.98l-.08-.72H21.75V23h3.1V17.3a2.623,2.623,0,0,1,1.54-.54c.86,0,1.28.54,1.28,1.64v2.22c0,1.98.86,2.64,2.46,2.64a3.717,3.717,0,0,0,1.94-.44Zm15.84,0a1.33,1.33,0,0,1-.42.06c-.56,0-.78-.24-.78-1.02V9.08h-3.1v5.28a5.152,5.152,0,0,0-1.82-.34,4.531,4.531,0,0,0-3.26,1.24,4.791,4.791,0,0,0-1.26,3.58c0,2.74,1.36,4.42,3.84,4.42a3.989,3.989,0,0,0,2.84-1.1,2.193,2.193,0,0,0,2.16,1.1,3.812,3.812,0,0,0,1.9-.44Zm-7.48-2.42a1.938,1.938,0,0,1,2.1-2.2,4.035,4.035,0,0,1,1.08.16v3.68a2.8,2.8,0,0,1-1.5.46Q40.33,20.74,40.33,18.64Zm11.42-6.38a1.8,1.8,0,0,0,0-2.54,1.774,1.774,0,0,0-2.52,0,1.8,1.8,0,0,0,0,2.54A1.775,1.775,0,0,0,51.75,12.26Zm-.36,11a3.918,3.918,0,0,0,1.94-.44l-.1-1.76a1.374,1.374,0,0,1-.44.06c-.56,0-.76-.24-.76-1.02V14.28h-3.1v6.34C48.93,22.62,49.79,23.26,51.39,23.26Zm7.72-9.2c-.32-.02-.58-.04-.76-.04-2.54,0-4.18,1.34-4.18,3.42a3.068,3.068,0,0,0,1.54,2.78,2.874,2.874,0,0,0-1.36,2.34,1.642,1.642,0,0,0,.52,1.28,2.312,2.312,0,0,0-.98,1.82c0,1.34,1.26,2.26,4.12,2.26a7.689,7.689,0,0,0,3.92-.88,2.684,2.684,0,0,0,1.5-2.44c0-1.58-1.18-2.6-3.6-2.6H58.27c-.9,0-1.36-.2-1.36-.6a.739.739,0,0,1,.38-.62,5.667,5.667,0,0,0,1.08.08c2.54,0,4.12-1.28,4.12-3.42a3.343,3.343,0,0,0-.4-1.66l1.38.08V14.08Zm-.76,4.78c-.7,0-1.18-.58-1.18-1.46,0-.82.44-1.34,1.16-1.34.78,0,1.16.46,1.16,1.38C59.49,18.3,59.07,18.84,58.35,18.84Zm1.08,5.6c.94,0,1.4.2,1.4.58,0,.5-.72.76-2.16.76-1.54,0-2.14-.22-2.14-.76a.778.778,0,0,1,.26-.58h2.64Zm7.94-12.18a1.8,1.8,0,0,0,0-2.54,1.774,1.774,0,0,0-2.52,0,1.8,1.8,0,0,0,0,2.54A1.774,1.774,0,0,0,67.37,12.26Zm-.36,11a3.918,3.918,0,0,0,1.94-.44l-.1-1.76a1.375,1.375,0,0,1-.44.06c-.56,0-.76-.24-.76-1.02V14.28h-3.1v6.34C64.55,22.62,65.41,23.26,67.01,23.26Zm9.86-2.86a3.063,3.063,0,0,1-1.52.38,1.555,1.555,0,0,1-1.18-.4,1.828,1.828,0,0,1-.34-1.2V16.6h2.78V14.28H73.83V11.9l-3.1.24v2.14h-1.2V16.6h1.2v3.34c0,2.22,1.16,3.32,3.48,3.32a4.813,4.813,0,0,0,2.82-.68Zm10.98.66a.934.934,0,0,1-.34.06c-.7,0-.86-.36-.86-1.34V17.46c0-2.74-2.14-3.44-4.06-3.44a7.467,7.467,0,0,0-3.74,1.02l.32,2.3a5.724,5.724,0,0,1,2.88-.9c1.04,0,1.56.4,1.56,1.18v.46a8,8,0,0,0-1.42-.12c-2.48,0-4.06.86-4.06,2.7,0,1.6,1.18,2.6,3.12,2.6a4.658,4.658,0,0,0,2.76-.86,2.115,2.115,0,0,0,1.92.86,4.164,4.164,0,0,0,2.04-.44Zm-5.56.16c-.64,0-.96-.24-.96-.7,0-.56.46-.84,1.36-.84a6.331,6.331,0,0,1,.92.1v1.04A2.591,2.591,0,0,1,82.29,21.22Zm9.32,2.04a3.918,3.918,0,0,0,1.94-.44l-.1-1.76a1.169,1.169,0,0,1-.42.06c-.58,0-.78-.24-.78-1.02V9.08h-3.1V20.62C89.15,22.62,89.99,23.26,91.61,23.26Zm11.4-5.32a3.814,3.814,0,0,0-1.12-2.8,4.092,4.092,0,0,0-3.04-1.12,4.279,4.279,0,0,0-4.52,4.62c0,2.88,1.6,4.62,5.02,4.62a5.473,5.473,0,0,0,3.42-1l-.56-1.9a4.74,4.74,0,0,1-2.34.6,2.074,2.074,0,0,1-2.32-1.66h5.3A6.461,6.461,0,0,0,103.01,17.94Zm-5.52-.38c.16-1.06.68-1.58,1.54-1.58a1.276,1.276,0,0,1,1.4,1.26,2.738,2.738,0,0,1,.04.32Zm27.16,3.5a.984.984,0,0,1-.4.06c-.58,0-.78-.24-.78-1.02V17.7c0-2.46-1.08-3.68-3.24-3.68a4.3,4.3,0,0,0-2.98,1.32,2.876,2.876,0,0,0-2.7-1.32,4.165,4.165,0,0,0-2.54.94l-.08-.68h-2.96V23h3.1V17.26a2.245,2.245,0,0,1,1.36-.5c.84,0,1.26.54,1.26,1.6V23h3.1V17.66a2.434,2.434,0,0,0-.02-.42,2.4,2.4,0,0,1,1.38-.48c.82,0,1.22.54,1.22,1.62v2.24c0,1.98.86,2.64,2.46,2.64a4.105,4.105,0,0,0,1.96-.44Zm9.54-3.12a3.814,3.814,0,0,0-1.12-2.8,4.092,4.092,0,0,0-3.04-1.12,4.279,4.279,0,0,0-4.52,4.62c0,2.88,1.6,4.62,5.02,4.62a5.473,5.473,0,0,0,3.42-1l-.56-1.9a4.74,4.74,0,0,1-2.34.6,2.074,2.074,0,0,1-2.32-1.66h5.3A6.461,6.461,0,0,0,134.19,17.94Zm-5.52-.38c.16-1.06.68-1.58,1.54-1.58a1.276,1.276,0,0,1,1.4,1.26,2.738,2.738,0,0,1,.04.32Zm17.3,3.5a1.33,1.33,0,0,1-.42.06c-.56,0-.78-.24-.78-1.02V9.08h-3.1v5.28a5.152,5.152,0,0,0-1.82-.34,4.531,4.531,0,0,0-3.26,1.24,4.791,4.791,0,0,0-1.26,3.58c0,2.74,1.36,4.42,3.84,4.42a3.989,3.989,0,0,0,2.84-1.1,2.193,2.193,0,0,0,2.16,1.1,3.812,3.812,0,0,0,1.9-.44Zm-7.48-2.42a1.938,1.938,0,0,1,2.1-2.2,4.035,4.035,0,0,1,1.08.16v3.68a2.8,2.8,0,0,1-1.5.46Q138.49,20.74,138.49,18.64Zm11.42-6.38a1.8,1.8,0,0,0,0-2.54,1.775,1.775,0,0,0-2.52,0,1.8,1.8,0,0,0,0,2.54A1.775,1.775,0,0,0,149.91,12.26Zm-.36,11a3.918,3.918,0,0,0,1.94-.44l-.1-1.76a1.374,1.374,0,0,1-.44.06c-.56,0-.76-.24-.76-1.02V14.28h-3.1v6.34C147.09,22.62,147.95,23.26,149.55,23.26Zm12.5-2.2a.934.934,0,0,1-.34.06c-.7,0-.86-.36-.86-1.34V17.46c0-2.74-2.14-3.44-4.06-3.44a7.467,7.467,0,0,0-3.74,1.02l.32,2.3a5.724,5.724,0,0,1,2.88-.9c1.04,0,1.56.4,1.56,1.18v.46a8,8,0,0,0-1.42-.12c-2.48,0-4.06.86-4.06,2.7,0,1.6,1.18,2.6,3.12,2.6a4.658,4.658,0,0,0,2.76-.86,2.115,2.115,0,0,0,1.92.86,4.164,4.164,0,0,0,2.04-.44Zm-5.56.16c-.64,0-.96-.24-.96-.7,0-.56.46-.84,1.36-.84a6.331,6.331,0,0,1,.92.1v1.04A2.591,2.591,0,0,1,156.49,21.22Z" transform="translate(5241 -972)" fill="#009481"/><g transform="translate(4953.677 -1037.772)"><rect width="12.663" height="12.666" transform="translate(146.52 133.24)" fill="#5ab946"/><rect width="12.663" height="12.666" transform="translate(146.52 107.972)" fill="#5ab946"/><path d="M114.906,119.311a18.954,18.954,0,0,0,0,37.908h18.949V138.265a18.949,18.949,0,0,0-18.949-18.954m6.316,25.27h-6.316a6.318,6.318,0,1,1,6.316-6.316Z" transform="translate(0 -11.312)" fill="#f58732"/><g transform="translate(171.696 95.957)"><path d="M257.56,119.235a52.035,52.035,0,0,0-11.16,1.351,1.445,1.445,0,0,0-1.225,1.423v5.221a1.052,1.052,0,0,0,1.16,1.165h.322c2-.193,6.579-.451,10.709-.451,3.032,0,4.836.773,4.836,4.45v2.32H258.72c-11.029,0-15.87,3.357-15.87,10.905v.577c0,8.389,5.422,11.1,11.034,11.1a14.223,14.223,0,0,0,8.966-2.905v1.031a1.3,1.3,0,0,0,1.289,1.292h7.224a1.3,1.3,0,0,0,1.289-1.292V132.393c0-9.418-5.8-13.158-15.092-13.158M262.4,148a11.978,11.978,0,0,1-5.288,1.418c-2.712,0-4.066-.516-4.066-3.225v-.577c0-3.163,1.163-4.713,5.677-4.713H262.4Z" transform="translate(-242.85 -107.233)" fill="#00a5d9"/><path d="M317.063,156.711h7.806a1.352,1.352,0,0,0,1.289-1.356V130.134a17.353,17.353,0,0,1,8.319-2.258H335c.58,0,.967-.647.967-1.225V120.52a1.293,1.293,0,0,0-1.292-1.286,13.812,13.812,0,0,0-8.709,3.094v-1.292a1.291,1.291,0,0,0-1.289-1.286H317a1.291,1.291,0,0,0-1.292,1.286v34.319a1.409,1.409,0,0,0,1.356,1.356" transform="translate(-278.141 -107.232)" fill="#00a5d9"/><path d="M367.165,139.287c0,9.16,3.741,11.037,10.836,11.037a27.645,27.645,0,0,0,5.1-.521,1.318,1.318,0,0,0,1.225-1.286v-5.032c0-.709-.513-1.1-1.351-1.1h-3.163c-1.936,0-2.129-.451-2.129-3.032V120.584h5.293a1.3,1.3,0,0,0,1.289-1.292v-5.228a1.291,1.291,0,0,0-1.289-1.286h-5.293V105.94a1.1,1.1,0,0,0-1.16-1.1h-.193l-7.871,1.353a1.392,1.392,0,0,0-1.289,1.294v5.288H362a1.408,1.408,0,0,0-1.354,1.356v4.254A1.51,1.51,0,0,0,362,119.743l5.161.84Z" transform="translate(-299.911 -100.261)" fill="#00a5d9"/><path d="M432.288,157.295a49.421,49.421,0,0,0,13.225-1.549c1.1-.258,1.356-.709,1.356-1.743v-4.9c0-.709-.518-1.036-1.227-1.036h-.193c-2.581.258-8.322.583-12.385.583-5.1,0-6.646-3.354-6.646-7.033v-.126H447c.838,0,1.353-.583,1.353-1.549V136.2c0-9.745-5.355-16.966-15.932-16.966-10.258,0-16.322,6.577-16.322,16.966v4.512c0,12.455,8.384,16.582,16.19,16.582m-5.87-22.517c0-4.708,2.387-7.159,5.935-7.159,3.614,0,5.808,2.39,5.808,7.159v.263H426.418Z" transform="translate(-326.77 -107.233)" fill="#00a5d9"/><path d="M501.986,157.779c7.554,0,7.742-1.034,9.356-6.775l8.129-29.289a.837.837,0,0,0,.062-.384,1.086,1.086,0,0,0-1.1-1.1h-8.515c-.645,0-1.163.577-1.353,1.353l-5.551,25.285c-.191.967-.58,1.356-1.031,1.356s-.771-.389-.967-1.356l-5.548-25.285c-.193-.776-.709-1.353-1.353-1.353H485.6a1.035,1.035,0,0,0-1.031,1.1.807.807,0,0,0,.064.384L492.7,151c1.611,5.741,2.034,6.775,9.289,6.775" transform="translate(-359.936 -107.717)" fill="#00a5d9"/><path d="M574.368,157.295a49.421,49.421,0,0,0,13.225-1.549c1.1-.258,1.356-.709,1.356-1.743v-4.9c0-.709-.518-1.036-1.227-1.036h-.193c-2.581.258-8.322.583-12.385.583-5.1,0-6.646-3.354-6.646-7.033v-.126h20.581c.838,0,1.353-.583,1.353-1.549V136.2c0-9.745-5.355-16.966-15.932-16.966-10.258,0-16.322,6.577-16.322,16.966v4.512c0,12.455,8.384,16.582,16.19,16.582m-5.87-22.517c0-4.708,2.387-7.159,5.935-7.159,3.614,0,5.808,2.39,5.808,7.159v.263H568.5Z" transform="translate(-395.592 -107.233)" fill="#00a5d9"/><path d="M643.134,95.957h-7.868a1.352,1.352,0,0,0-1.356,1.292v46.833a1.406,1.406,0,0,0,1.356,1.353h7.868a1.3,1.3,0,0,0,1.227-1.353V97.249a1.243,1.243,0,0,0-1.227-1.292" transform="translate(-432.276 -95.957)" fill="#00a5d9"/><path d="M683.149,146.021a60.669,60.669,0,0,0,13.741-1.681c1.74-.384,2-.835,2-1.869V97.252a1.354,1.354,0,0,0-1.356-1.292h-7.8a1.3,1.3,0,0,0-1.289,1.292v11.16a43.937,43.937,0,0,0-5.29-.451c-10.9,0-16.19,6.381-16.19,16.515v5.03c0,10.449,5.741,16.515,16.19,16.515m-5.741-21.545c0-4.519,1.16-7.873,5.741-7.873a47.956,47.956,0,0,1,5.29.325v20.122a35.718,35.718,0,0,1-5.29.389c-4.581,0-5.741-3.357-5.741-7.933Z" transform="translate(-448.284 -95.958)" fill="#00a5d9"/><path d="M758.385,119.235c-10.258,0-16.322,6.577-16.322,16.966v4.512c0,12.455,8.384,16.582,16.19,16.582a49.421,49.421,0,0,0,13.225-1.549c1.1-.258,1.356-.709,1.356-1.743v-4.9c0-.709-.518-1.036-1.227-1.036h-.193c-2.581.258-8.32.583-12.385.583-5.1,0-6.646-3.354-6.646-7.033v-.126h20.581c.837,0,1.353-.583,1.353-1.549V136.2c0-9.745-5.355-16.966-15.932-16.966m5.742,15.806H752.383v-.263c0-4.708,2.387-7.159,5.935-7.159,3.614,0,5.809,2.39,5.809,7.159Z" transform="translate(-484.664 -107.233)" fill="#00a5d9"/><path d="M512.466,224.807a12.946,12.946,0,0,0-4.775.969v-5.942a.6.6,0,0,0-.593-.624h-1.56a.6.6,0,0,0-.593.624v21.73a.62.62,0,0,0,.593.624h1.529a.647.647,0,0,0,.624-.624V228.084A12.144,12.144,0,0,1,512,227.21c2.029,0,3.341.967,3.341,4.089v10.266a.624.624,0,0,0,.624.624h1.5a.626.626,0,0,0,.624-.624V231.3c0-4.589-2.31-6.492-5.618-6.492" transform="translate(-369.807 -155.66)" fill="#00a5d9"/><path d="M544.737,230.066c-4.586,0-6.927,3.027-6.927,7.613v2.372c0,4.589,2.341,7.613,6.927,7.613s6.958-3.024,6.958-7.613v-2.372c0-4.586-2.374-7.613-6.958-7.613m4.213,9.985c0,3.212-1.31,5.213-4.213,5.213-2.934,0-4.184-2.031-4.184-5.213v-2.372c0-3.215,1.281-5.21,4.184-5.21,2.934,0,4.213,2.026,4.213,5.21Z" transform="translate(-385.726 -160.918)" fill="#00a5d9"/><path d="M585.191,230.49h-6.832c-5.37,0-6.927,2.648-6.927,5.326v.24a4.361,4.361,0,0,0,1.433,3.493,2.464,2.464,0,0,0-1.279,2.166v.028a2.472,2.472,0,0,0,1.433,2.351l.222.09a4.814,4.814,0,0,0-1.97,3.821v.271c0,2.949,2.248,4.785,7.18,4.785,5.117,0,7.115-1.776,7.115-4.664v-.242c0-2.828-2.934-3.669-5.991-4.424l-4.651-1.142c-.719-.18-.967-.454-.967-.962a1.1,1.1,0,0,1,.779-1.026,9.3,9.3,0,0,0,3.622.6c4.805,0,6.925-1.836,6.925-5.148v-.24a4.145,4.145,0,0,0-1.057-3.1l1.121-.211c.343-.059.562-.18.562-.57v-.784a.708.708,0,0,0-.719-.66m-9.7,14.445,3.527.874c2.81.691,3.805,1.173,3.805,2.346v.242c0,1.655-.81,2.617-4.367,2.617-3.462,0-4.494-1.052-4.494-2.738v-.271a3.551,3.551,0,0,1,1.529-3.07m7.084-8.879c0,1.807-.846,3.07-4.213,3.07-3.589,0-4.215-1.745-4.215-3.07v-.24c0-1.686.719-3.22,4.215-3.22,3.367,0,4.213,1.413,4.213,3.22Z" transform="translate(-401.935 -161.124)" fill="#00a5d9"/><path d="M612.036,230.065c-4.463,0-6.927,2.841-6.927,7.3v2.8c0,5.806,3.5,7.489,7.082,7.489a28.325,28.325,0,0,0,5.587-.528c.5-.1.624-.312.624-.717v-1.062a.441.441,0,0,0-.5-.436h-.157a43.122,43.122,0,0,1-5.556.343c-2.869,0-4.336-1.374-4.336-5.089v-.433h10.454c.374,0,.593-.284.593-.691v-1.681c0-4.432-2.31-7.3-6.865-7.3m4.089,7.582h-8.27v-.278c0-3.372,1.5-4.9,4.182-4.9,2.748,0,4.089,1.372,4.089,4.9Z" transform="translate(-418.325 -160.918)" fill="#00a5d9"/><path d="M649.692,243.142c0-1.841-.84-3.181-3.434-4.713l-3.089-1.841c-1.436-.843-2.153-1.436-2.153-2.369,0-1.593,1.155-1.815,2.9-1.815s3.746.16,4.839.253h.093a.474.474,0,0,0,.526-.531V231.1c0-.34-.186-.562-.593-.624a29.42,29.42,0,0,0-4.865-.4c-3.217,0-5.651.9-5.651,4.151,0,1.964,1.284,3.305,3.186,4.46l3.15,1.874c1.779,1.06,2.341,1.65,2.341,2.588,0,1.686-1.062,2.217-3.088,2.217-1.124,0-3.4-.16-4.9-.345h-.129a.507.507,0,0,0-.562.469v1.091c0,.343.253.531.66.624a24.044,24.044,0,0,0,4.929.469c3.493,0,5.834-1.343,5.834-4.524" transform="translate(-434.387 -160.92)" fill="#00a5d9"/><path d="M677.892,246.636v-1.124a.478.478,0,0,0-.531-.469h-.124a29.715,29.715,0,0,1-3.87.222c-2.526,0-3.9-1.686-3.9-5.182v-2.436c0-3.522,1.408-5.177,3.9-5.177a30.682,30.682,0,0,1,3.87.217h.124a.474.474,0,0,0,.531-.467V231.1c0-.436-.124-.593-.624-.686a22.843,22.843,0,0,0-3.9-.343c-4.274,0-6.646,3-6.646,7.579v2.436c0,4.589,2.4,7.585,6.646,7.585a22.785,22.785,0,0,0,3.9-.345c.5-.093.624-.281.624-.686" transform="translate(-448.169 -160.919)" fill="#00a5d9"/><path d="M702.927,224.807a12.946,12.946,0,0,0-4.775.969v-5.942a.6.6,0,0,0-.593-.624H696a.6.6,0,0,0-.593.624v21.73a.619.619,0,0,0,.593.624h1.529a.647.647,0,0,0,.624-.624V228.084a12.134,12.134,0,0,1,4.305-.874c2.026,0,3.341.967,3.341,4.089v10.266a.624.624,0,0,0,.624.624h1.5a.627.627,0,0,0,.626-.624V231.3c0-4.589-2.31-6.492-5.618-6.492" transform="translate(-462.064 -155.66)" fill="#00a5d9"/><path d="M742.156,237.681c0-4.586-2.372-7.613-6.958-7.613s-6.93,3.027-6.93,7.613v2.372c0,4.586,2.341,7.613,6.93,7.613s6.958-3.027,6.958-7.613Zm-2.748,2.372c0,3.212-1.31,5.21-4.21,5.21-2.934,0-4.182-2.029-4.182-5.21v-2.372c0-3.215,1.279-5.21,4.182-5.21,2.931,0,4.21,2.026,4.21,5.21Z" transform="translate(-477.982 -160.919)" fill="#00a5d9"/><path d="M775.381,237.681c0-4.586-2.372-7.613-6.959-7.613s-6.93,3.027-6.93,7.613v2.372c0,4.586,2.341,7.613,6.93,7.613s6.959-3.027,6.959-7.613Zm-2.748,2.372c0,3.212-1.31,5.21-4.211,5.21-2.934,0-4.181-2.029-4.181-5.21v-2.372c0-3.215,1.279-5.21,4.181-5.21,2.932,0,4.211,2.026,4.211,5.21Z" transform="translate(-494.076 -160.919)" fill="#00a5d9"/><path d="M798.6,219.208h-1.624a.567.567,0,0,0-.562.593v21.761a.6.6,0,0,0,.562.624H798.6a.591.591,0,0,0,.562-.624V219.8a.568.568,0,0,0-.562-.593" transform="translate(-510.991 -155.659)" fill="#00a5d9"/></g></g></g></svg>