<svg xmlns="http://www.w3.org/2000/svg" xmlns:xlink="http://www.w3.org/1999/xlink" width="1920" height="1080" viewBox="0 0 1920 1080"><defs><clipPath id="b"><rect width="1920" height="1080"/></clipPath></defs><g id="a" clip-path="url(#b)"><rect width="1920" height="1080" fill="#fff"/><path d="M268.92,609.66H2274.981v541.547L240.89,1176.523Z" transform="translate(-337.375 -56.234)" fill="#8dd9aa"/><rect width="1998.9" height="434.437" transform="translate(-42.387 -16.16)" fill="#c1f4ea"/><path d="M0,161.89,244.619,76.7l298.194,83.23,103.566-35.685,99.98,85.22L1190.985,62.82,1830.215,225.3l132.135-41.6-3.586,354.7L5.355,496.8Z" transform="translate(-24.745 86.121)" fill="#70efd9"/><g transform="translate(-24.745 300.16)"><path d="M1965.287,361.656,2.78,360V180.716H219.768L522.6,179.063l1.8-32.983H882.687l.095,29.678,362.355-1.652,283.764,1.652,436.386-28.048Z" transform="translate(-0.019 -42.391)" fill="#39e5cc"/><rect width="83.926" height="133.303" transform="translate(0 41.158)" fill="#39e5cc"/><rect width="83.926" height="133.303" transform="translate(167.851 72.424)" fill="#39e5cc"/><rect width="83.926" height="133.303" transform="translate(380.58 46.094)" fill="#39e5cc"/><rect width="83.926" height="133.303" transform="translate(1068.12 34.57)" fill="#39e5cc"/><rect width="83.926" height="133.303" transform="translate(1183.011)" fill="#39e5cc"/><rect width="83.926" height="57.596" transform="translate(1340.997 75.707)" fill="#39e5cc"/><rect width="83.926" height="57.596" transform="translate(712.681 48.746)" fill="#39e5cc"/></g><g transform="translate(498.31 288.659)"><rect width="176.135" height="132.998" transform="translate(768.267 197.312)" fill="#05ccb4"/><path d="M437.835,128.76h-183.9l-47.9,47.9v210.27H477.407V176.658Z" transform="translate(-206.04 -51.227)" fill="#05ccb4"/><path d="M640.475,201.446,614.21,169.68H492.236L460.47,201.446H462.6V333.487H638.736V201.446Z" transform="translate(92.721 -3.177)" fill="#05ccb4"/><path d="M558.91,201.527l31.309-31.287h120.17l25.873,31.287" transform="translate(208.313 -2.519)" fill="#05ccb4"/><path d="M491.885,106.37H391.739L352.69,145.441V413.22H528.8V145.441Z" transform="translate(-33.838 -77.518)" fill="#05ccb4"/><rect width="21.982" height="42.506" transform="translate(76.881 54.225)" fill="#05ccb4"/><rect width="21.982" height="42.506" transform="translate(362.75)" fill="#05ccb4"/><rect width="21.982" height="42.506" transform="translate(679.406 152.458)" fill="#05ccb4"/></g><g transform="translate(85.313 482.84)"><path d="M209.226,199.02H44.68v21.938H65.574v82.273H188.267V220.958h20.981V199.02Zm-29.57,95.623H74.163V223.154H179.657Z" transform="translate(17.481 -162.906)" fill="#00b2a1"/><rect width="4.283" height="134.933" fill="#00b2a1"/><rect width="27.852" height="39.636" transform="translate(7.501 6.414)" fill="#00b2a1"/><path d="M330.727,259.889c1.913-4.5.978-9.871-4.849-12.437-8.066-3.544-16.329-5.892-25.221-5.783-2.653.044-7.066,1.457-9.632,1.044.022,1.522-.435,1.283-1.391-.718a21.926,21.926,0,0,0-3.457-3.783,17.249,17.249,0,0,0-18.894-2.131c-7-10.871-18-18.307-32.809-16.2a28.467,28.467,0,0,0-20.7,13.741,52.854,52.854,0,0,0-40.637-7.632c-7.371,1.631-15.524,6.11-20.394,12.154a39.005,39.005,0,0,0-13.263,4.066c-14.133-1.8-27.417,13.415-22.547,27.33,1.848,5.305,7.784,9.132,13.415,7.153a9.361,9.361,0,0,0,1.065-.478,11.025,11.025,0,0,0,4.109.652q84.6-1.924,169.2-.065c5.7.826,11.415,1.674,17.111,2.631C333.945,281.436,339.4,265.042,330.727,259.889Z" transform="translate(101.12 -138.828)" fill="#00b2a1"/><path d="M838.587,258.379c1.913-4.5.978-9.871-4.849-12.437-8.066-3.544-16.329-5.892-25.221-5.783-2.653.043-7.066,1.457-9.632,1.044.022,1.522-.435,1.283-1.392-.717a21.924,21.924,0,0,0-3.457-3.783,17.249,17.249,0,0,0-18.894-2.131c-7-10.871-18-18.307-32.809-16.2a28.467,28.467,0,0,0-20.7,13.741A52.854,52.854,0,0,0,681,224.483c-7.371,1.631-15.524,6.11-20.394,12.154a39,39,0,0,0-13.263,4.066c-14.133-1.8-27.417,13.415-22.547,27.33,1.848,5.305,7.784,9.132,13.415,7.153a9.385,9.385,0,0,0,1.065-.478,11.024,11.024,0,0,0,4.109.652q84.6-1.924,169.2-.065c5.7.826,11.415,1.674,17.111,2.631C841.8,279.9,847.262,263.511,838.587,258.379Z" transform="translate(697.468 -140.601)" fill="#00b2a1"/><path d="M596.256,265.78a20.127,20.127,0,0,0-5.262-6.327,11.456,11.456,0,0,0-.522-2.566,20.188,20.188,0,0,0-1.892-4.088,9.688,9.688,0,0,0-9.741-7.632,26.931,26.931,0,0,0-4.2-.978c-4.522-.609-9.175.044-13.654.761-.522.087-1.239.261-2.022.478l-14.154.2a33.447,33.447,0,0,0-4.218-3.718,35.286,35.286,0,0,0-20.96-4.805,30.251,30.251,0,0,0-30.113-21.895c-16.524.478-28.678,12.632-32.222,27.569a54.258,54.258,0,0,0-28.548.935,10.107,10.107,0,0,0-6.588,5.675c-.283.217-.522.478-.783.718a10.969,10.969,0,0,0-4,2.74,10.556,10.556,0,0,0-6.262,4.783c-1.631,2.761-3.283,5.5-4.914,8.262-2.892,4.849-1.239,12.024,3.87,14.72a12.628,12.628,0,0,0,1.87.783,9.154,9.154,0,0,0,8.371,3.674q54.4-3.131,108.864-2.674c20.2,1.892,40.289,3,60.683-.848C596.93,280.239,599.321,271.433,596.256,265.78Zm-99.667-19.459a9.4,9.4,0,0,0,2.392-2.8c.065-.13.13-.261.174-.37a9.184,9.184,0,0,1,.348,3.131C498.545,246.3,497.567,246.321,496.589,246.321Z" transform="translate(440.334 -143.914)" fill="#00b2a1"/></g></g></svg>