<svg xmlns="http://www.w3.org/2000/svg" xmlns:xlink="http://www.w3.org/1999/xlink" width="1920" height="1080" viewBox="0 0 1920 1080"><defs><linearGradient id="a" x1="-1" y1="-220.082" x2="1" y2="-220.082" gradientUnits="objectBoundingBox"><stop offset="0" stop-color="#85613d"/><stop offset="1" stop-color="#5f3e1b"/></linearGradient><linearGradient id="b" x1="0" y1="-18.386" x2="1" y2="-18.386" xlink:href="#a"/><linearGradient id="c" x1="-21.824" y1="-3435.364" x2="0.994" y2="-3435.364" xlink:href="#a"/><radialGradient id="d" cx="-0.008" cy="1.001" r="1.535" gradientTransform="translate(-0.004 0) scale(0.565 1)" xlink:href="#a"/><radialGradient id="e" cx="0.5" cy="-0.241" r="1.54" gradientTransform="translate(0.347 0) scale(0.306 1)" xlink:href="#a"/><radialGradient id="f" cx="0.496" cy="1.208" r="1.498" gradientTransform="translate(0.251 0) scale(0.494 1)" xlink:href="#a"/><radialGradient id="g" cx="-0.008" cy="0.002" r="3.024" gradientTransform="translate(-0.006 0) scale(0.287 1)" xlink:href="#a"/><radialGradient id="h" cx="0.485" cy="0.004" r="6.363" gradientTransform="translate(0.365 0) scale(0.247 1)" xlink:href="#a"/><radialGradient id="i" cx="0.474" cy="1.004" r="7.231" gradientTransform="translate(0.293 0) scale(0.382 1)" xlink:href="#a"/><linearGradient id="j" x1="0" y1="-222.661" x2="3.294" y2="-222.661" xlink:href="#a"/><radialGradient id="k" cx="0.992" cy="0.002" r="3.001" gradientTransform="translate(0.71 0) scale(0.284 1)" xlink:href="#a"/><radialGradient id="l" cx="0.992" cy="1.001" r="1.521" gradientTransform="translate(0.435 0) scale(0.561 1)" xlink:href="#a"/><linearGradient id="m" x1="0.004" y1="-3410.582" x2="22.271" y2="-3410.582" xlink:href="#a"/><clipPath id="o"><rect width="1920" height="1080"/></clipPath></defs><g id="n" clip-path="url(#o)"><rect width="1920" height="1080" fill="#fff"/><rect width="1983.491" height="625.765" transform="translate(-47.005 -196.048)" fill="#c1f4ea"/><path d="M-135.578,192.769,219.5,73.918l267.574,66.566L580,111.943,669.717,180.1,1068.686,62.82l573.59,129.949,224.206-94.458L1857.554,446.5-153.434,471.047Z" transform="translate(97.554 63.323)" fill="#39e5cc"/><g transform="translate(86.498 196.783)"><path d="M1854.977,359.109,2.78,353.469V179.658H196.341l270.139-1.6,1.6-31.976H787.691l.084,28.772,323.235-1.6,253.129,1.6,490.838-11.467Z" transform="translate(-0.103 -45.558)" fill="#05ccb4"/><rect width="154.362" height="157.231" transform="translate(-86 72.901)" fill="#05ccb4"/><rect width="81.362" height="129.231" transform="translate(162.724 70.212)" fill="#05ccb4"/><rect width="81.362" height="129.231" transform="translate(338.221 44.686)" fill="#05ccb4"/><rect width="81.362" height="129.231" transform="translate(949.237 33.514)" fill="#05ccb4"/><rect width="81.362" height="129.231" transform="translate(1051.34 0)" fill="#05ccb4"/><rect width="81.362" height="55.836" transform="translate(1191.743 73.394)" fill="#05ccb4"/><rect width="81.362" height="55.836" transform="translate(633.359 47.257)" fill="#05ccb4"/></g><path d="M269.63,609.66H2326.5v661.306L240.89,1301.881Z" transform="translate(-340.146 -183.333)" fill="#76d1d3"/><g transform="translate(787.237 595.891)"><ellipse cx="152.454" cy="38.629" rx="152.454" ry="38.629" transform="translate(9.333 83.919)" fill="#b2c453"/><g transform="translate(44.411 0)"><path d="M72.674,99.226a219.691,219.691,0,0,0-9.477-51.4q-2.179-6.922-4.821-13.69-7.061,2.982-14.123,5.954A391.393,391.393,0,0,1,70.819,86.3q3.291,6.783,6.325,13.68a7.01,7.01,0,0,0,3.7,3.162,7.415,7.415,0,0,0,5.027.391,9.179,9.179,0,0,0,3.41-1.988,7.643,7.643,0,0,0,2.266-5.46,252.556,252.556,0,0,1-1.906-39.061H74.188a109.237,109.237,0,0,0,10.744,38.3c1.442,2.925,5.666,4.543,8.725,3.554a7.927,7.927,0,0,0,5.676-7.448q-.433-32.556-.865-65.123-.124-9.224-.247-18.459H82.769A446.931,446.931,0,0,0,90.34,77.615q1.808,9.611,4.048,19.129a7.8,7.8,0,0,0,9.508,5.4,7.9,7.9,0,0,0,5.4-9.508q-4.821-20.5-7.643-41.4c.093.68.185,1.37.278,2.05a438.464,438.464,0,0,1-3.7-45.448C98.117,3.8,94.759-.086,90.5.11a7.851,7.851,0,0,0-7.726,7.726q.433,32.556.865,65.123.124,9.224.247,18.459,7.2-1.947,14.4-3.9c-.824-1.679-1.6-3.368-2.338-5.089.258.618.515,1.226.783,1.844a99.11,99.11,0,0,1-6.881-25.134c.093.68.185,1.37.278,2.05-.185-1.391-.34-2.781-.474-4.172a8.283,8.283,0,0,0-2.266-5.46,7.721,7.721,0,0,0-13.185,5.46,251.282,251.282,0,0,0,1.906,39.061q7.2-1.947,14.4-3.9A389.7,389.7,0,0,0,65.772,44.961q-3.956-6.412-8.148-12.68a7.807,7.807,0,0,0-9.652-3.162c-3.234,1.37-5.882,5.521-4.471,9.116a211.75,211.75,0,0,1,12.588,48.59c-.093-.68-.185-1.37-.278-2.05q.958,7.2,1.432,14.442c.268,4.028,3.368,7.921,7.726,7.726,3.935-.165,7.983-3.389,7.705-7.715Z" transform="translate(-43.113 -0.103)" fill="#b2c453"/></g><g transform="translate(199.12 3.21)"><path d="M208.875,87.482q-.309-15.142-.052-30.285-7.587,1.02-15.173,2.05a120.067,120.067,0,0,0,12.6,36.816c3.059,5.748,12.67,4.584,14.123-1.844,4.862-21.56,11.589-42.636,18.717-63.536q3.028-8.885,6.129-17.738-7.587-1.02-15.173-2.05-2.024,35.028-3.317,70.088-.371,9.982-.67,19.963a7.8,7.8,0,0,0,5.676,7.448,8.118,8.118,0,0,0,8.725-3.554q5.114-7.139,10.219-14.287c2.266-3.162.783-8.941-2.771-10.569a43.489,43.489,0,0,0-16.554-4.1q3.724,2.843,7.448,5.676A26.1,26.1,0,0,0,227.818,67c-3.956-2.565-10.435-.185-11.352,4.615a42.963,42.963,0,0,0-.155,15.565c.474,2.812,1.4,5.707,3.544,7.715,2.647,2.472,5.82,2.9,9.281,3.152,4.254.309,8.529.8,12.794.927a10.6,10.6,0,0,0,9.59-5.15c1.174-2.06,1.452-4.285,1.947-6.551a75.881,75.881,0,0,1,4.089-12.917c-.258.618-.515,1.226-.783,1.844a78.924,78.924,0,0,1,3.853-7.839q-7.2-1.947-14.4-3.9c-.041.443-.082.876-.144,1.308.093-.68.185-1.37.278-2.05-.659,4.532-2.534,8.7-4.234,12.917a39.613,39.613,0,0,0-3.255,12.917c-.494,9.312,4.069,18.9,13.381,21.838a7.8,7.8,0,0,0,9.508-5.4,7.9,7.9,0,0,0-5.4-9.508c-.3-.093-.6-.2-.886-.309.618.258,1.226.515,1.844.783a16,16,0,0,1-1.607-.855c-1.071-.639,1.473,1.3.618.484-.247-.237-.5-.474-.742-.731s-.989-1.205-.062-.021.185.206,0-.093a13.843,13.843,0,0,1-.917-1.782c.258.618.515,1.226.783,1.844a18.642,18.642,0,0,1-1.174-4.337c.093.68.185,1.37.278,2.05a22.259,22.259,0,0,1-.01-5.614c-.093.68-.185,1.37-.278,2.05.556-4.007,2.235-7.767,3.75-11.475a47.309,47.309,0,0,0,3.729-14.02,7.141,7.141,0,0,0-1.658-4.677,7.4,7.4,0,0,0-4.017-2.771,7.926,7.926,0,0,0-8.725,3.554A86.807,86.807,0,0,0,241,74.544q-1.143,3.26-1.967,6.613c-.515,2.06-.711,4.254-1.411,6.253.258-.618.515-1.226.783-1.844a3.556,3.556,0,0,1-.309.628,5.633,5.633,0,0,1,1.71-1.844c.618-.258,1.226-.515,1.844-.783a2.785,2.785,0,0,1-.762.206l2.05-.278c-2.513.237-5.2-.258-7.715-.443-2.616-.2-5.243-.319-7.86-.587l2.05.278a6.211,6.211,0,0,1-1.432-.361c.618.258,1.226.515,1.844.783-1.112-.639-.567-.041,1.658,1.792a4.045,4.045,0,0,1-.35-.7c.258.618.515,1.226.783,1.844a21.775,21.775,0,0,1-.855-3.966c.093.68.185,1.37.278,2.05a33.47,33.47,0,0,1-.01-8.612c-.093.68-.185,1.37-.278,2.05.093-.639.2-1.267.319-1.9q-5.671,2.3-11.352,4.615c.319.206.639.494.979.67-1.03-.814-1.246-.968-.628-.474.1.082.2.175.3.258a23.273,23.273,0,0,1,1.792,1.844c.536.587-1.185-1.658-.247-.309.227.33.443.659.649,1a19.217,19.217,0,0,1,1.164,2.3c-.258-.618-.515-1.226-.783-1.844.247.618.464,1.236.649,1.875a7.975,7.975,0,0,0,7.448,5.676c1.092.052,2.174.144,3.265.278l-2.05-.278a34.6,34.6,0,0,1,8.107,2.194c-.618-.258-1.226-.515-1.844-.783.433.185.855.371,1.288.567q-1.391-5.284-2.771-10.569-5.114,7.139-10.219,14.287,7.2,1.947,14.4,3.9,1.066-35.075,2.895-70.108.525-9.982,1.1-19.943c.227-3.832-3.111-7.108-6.7-7.592a7.8,7.8,0,0,0-8.478,5.532c-7.252,20.87-14.5,41.76-20.313,63.083C208.391,77.933,206.866,84,205.5,90.1q7.061-.927,14.123-1.844-2.426-4.558-4.44-9.322c.258.618.515,1.226.783,1.844a114.7,114.7,0,0,1-7.375-25.649,7.647,7.647,0,0,0-3.554-4.615,7.952,7.952,0,0,0-4.924-.917,7.731,7.731,0,0,0-6.7,7.592q-.247,15.142.051,30.285c.082,4.038,3.492,7.911,7.726,7.726,4.069-.175,7.767-3.379,7.685-7.715Z" transform="translate(-193.302 -3.22)" fill="#b2c453"/></g><g transform="translate(0 78.308)"><path d="M27.637,115.974q-3.09-10.213-6.17-20.427c-1-3.327-1.988-6.654-3.008-9.971-1.514-4.924-5.089-9.652-10.806-9.446a7.71,7.71,0,0,0-6.067,3.049,7.9,7.9,0,0,0-1.38,6.737q2.38,12.825,5.47,25.495c1.009,4.131,2.04,8.488,4.409,12.083a25.316,25.316,0,0,0,9.333,8.426,60.422,60.422,0,0,0,12.124,4.512c3.894,1.082,8.581-1.339,9.508-5.4a7.867,7.867,0,0,0-5.4-9.508,67.507,67.507,0,0,1-8.045-2.668c.618.258,1.226.515,1.844.783-.989-.433-1.957-.9-2.895-1.422-.484-.278-.968-.577-1.432-.886-.134-.093-.453-.412-.608-.433.258.021,1.576,1.277.546.4-.371-.319-.731-.659-1.082-1.01-.216-.216-.422-.453-.628-.68-.711-.762.5.546.5.69-.021-.33-.711-1.051-.886-1.36A18.949,18.949,0,0,1,22.013,113c.258.618.515,1.226.783,1.844a50.041,50.041,0,0,1-2.153-7.314c-.7-2.864-1.38-5.748-2.029-8.622Q16.7,90.376,15.1,81.8q-3.724,4.883-7.448,9.776a1.786,1.786,0,0,1,.618.031l-2.05-.278c.093.031.185.052.288.082-.618-.258-1.226-.515-1.844-.783.67.33.4.093-.8-.731.525.546.33.268-.577-.814.155.412.464.814.639,1.226-.258-.618-.515-1.226-.783-1.844.948,2.431,1.566,5.027,2.328,7.53.8,2.678,1.617,5.346,2.421,8.024q2.426,8.019,4.852,16.049c1.164,3.863,5.47,6.706,9.508,5.4,3.894-1.246,6.644-5.336,5.387-9.487Z" transform="translate(0.001 -76.124)" fill="#b2c453"/></g><g transform="translate(71.194 81.931)"><path d="M76.846,95.091c4.038,0,7.911-3.554,7.726-7.726a7.865,7.865,0,0,0-7.726-7.726c-4.038,0-7.911,3.554-7.726,7.726a7.871,7.871,0,0,0,7.726,7.726Z" transform="translate(-69.114 -79.64)" fill="#b2c453"/></g><g transform="translate(191.056 79.005)"><path d="M193.206,92.251c4.038,0,7.911-3.554,7.726-7.726a7.864,7.864,0,0,0-7.726-7.726c-4.038,0-7.911,3.554-7.726,7.726a7.851,7.851,0,0,0,7.726,7.726Z" transform="translate(-185.474 -76.8)" fill="#b2c453"/></g><g transform="translate(184.469 73.056)"><path d="M197.426,78.478c-1.473-1.751-2.956-3.5-4.429-5.253a7.307,7.307,0,0,0-6.49-2.122,7.421,7.421,0,0,0-5.645,3.688,15.413,15.413,0,0,0-1.751,6.376A20.532,20.532,0,0,0,179.544,86c.34,2.091,1,4.12,1.288,6.211-.093-.68-.185-1.37-.278-2.05a10.1,10.1,0,0,1,.021,2.555c.093-.68.185-1.37.278-2.05a6.493,6.493,0,0,1-.412,1.452c.258-.618.515-1.226.783-1.844a6.144,6.144,0,0,1-.587,1.009c.4-.525.8-1.04,1.205-1.566-.041.052-.082.1-.124.165a5.769,5.769,0,0,0-1.6,2.483,5.91,5.91,0,0,0-.67,2.977,7.737,7.737,0,0,0,7.726,7.726c1.906-.082,4.234-.69,5.459-2.266a13.646,13.646,0,0,0,3.08-5.83,18.9,18.9,0,0,0,.01-6.85c-.319-2.277-1.051-4.471-1.36-6.737.093.68.185,1.37.278,2.05a10.842,10.842,0,0,1-.041-2.647c-.093.68-.185,1.37-.278,2.05a7.328,7.328,0,0,1,.4-1.535c-.258.618-.515,1.226-.783,1.844.082-.185.165-.371.258-.546q-6.072.788-12.134,1.566c1.473,1.751,2.956,3.5,4.429,5.253a7.754,7.754,0,0,0,5.46,2.266,7.737,7.737,0,0,0,7.726-7.726c-.093-.68-.185-1.37-.278-2.05a7.529,7.529,0,0,0-1.978-3.43Z" transform="translate(-179.079 -71.025)" fill="#b2c453"/></g><g transform="translate(122.109 66.146)"><path d="M134,87.858q.448-7.942.175-15.884-7.587,1.02-15.173,2.05c1.494,3.873,2.946,7.757,4.471,11.619a20.411,20.411,0,0,0,4.017,6.984,14.269,14.269,0,0,0,6.9,3.832c4.275.979,8.818.639,13.175.649q6.366.015,12.742.021A59.715,59.715,0,0,0,167.1,96.9a32.177,32.177,0,0,0,4.749-.793c1.061-.288,2.05-.762,3.121-1l-2.05.278a5.6,5.6,0,0,1,1.246-.01l-2.05-.278a27.027,27.027,0,0,1,5.264,1.689c-.618-.258-1.226-.515-1.844-.783a38.206,38.206,0,0,1,6.242,3.327c.474.319.948.639,1.411.979.216.155,1.061.8.072.041s-.144-.1.062.062c.937.773,1.834,1.6,2.7,2.452,2.874,2.853,8.1,3.08,10.929,0a7.872,7.872,0,0,0,0-10.929,43.481,43.481,0,0,0-13.02-9.024,31.71,31.71,0,0,0-9.755-3c-3.09-.278-5.9,1.349-8.9,1.782l2.05-.278c-4.986.608-10.157.258-15.173.247-2.544,0-5.1-.01-7.643-.01a54.563,54.563,0,0,1-7.108-.2l2.05.278a11.851,11.851,0,0,1-2.235-.567c.618.258,1.226.515,1.844.783-.278-.113-1.205-.412-1.329-.7.319.247.639.484.968.731a5.69,5.69,0,0,1-.546-.567c.752,1.009.958,1.277.639.773-.1-.165-.206-.33-.3-.5a15.138,15.138,0,0,1-.68-1.432c.258.618.515,1.226.783,1.844-1.638-4.028-3.131-8.117-4.7-12.176-1.4-3.626-4.419-6.078-8.478-5.532a7.677,7.677,0,0,0-6.7,7.592c.185,5.295.124,10.6-.175,15.884-.227,4.038,3.719,7.9,7.726,7.726A7.909,7.909,0,0,0,134,87.858Z" transform="translate(-118.541 -64.316)" fill="#b2c453"/></g><g transform="translate(38.378 87.824)"><path d="M61.756,99.431a10.113,10.113,0,0,0,.494-3.276,16.476,16.476,0,0,0-.309-2.555,4.448,4.448,0,0,0-.175-.731A11.723,11.723,0,0,0,60.448,90a13.125,13.125,0,0,0-3.616-3.574,5.775,5.775,0,0,0-2.874-.917,5.91,5.91,0,0,0-3.08.134,8.393,8.393,0,0,0-4.615,3.554,10.255,10.255,0,0,0-1.525,3.832,19.768,19.768,0,0,0-.35,4.12,29.467,29.467,0,0,1,.175,4.666c.093-.68.185-1.37.278-2.05a5.4,5.4,0,0,1-.319,1.277c.258-.618.515-1.226.783-1.844a4.188,4.188,0,0,1-.5.886c.4-.525.8-1.04,1.205-1.566a4.373,4.373,0,0,1-.69.69c.525-.4,1.04-.8,1.566-1.205a4.147,4.147,0,0,1-.886.494c.618-.258,1.226-.515,1.844-.783a6,6,0,0,1-1.329.34l2.05-.278a12.262,12.262,0,0,1-3.07-.093l2.05.278c-.175-.021-.35-.052-.525-.072a5.8,5.8,0,0,0-3.08-.134,5.775,5.775,0,0,0-2.874.917,7.714,7.714,0,0,0-2.771,10.569c.4.525.8,1.04,1.205,1.566a7.781,7.781,0,0,0,3.41,1.988c2.895.422,5.49.762,8.385.031a11.267,11.267,0,0,0,7.345-5.83,14.089,14.089,0,0,0,1.4-5.48A12.494,12.494,0,0,0,60,99.452a22.176,22.176,0,0,1-.134-4.213c-.093.68-.185,1.37-.278,2.05a6,6,0,0,1,.34-1.329c-.258.618-.515,1.226-.783,1.844a5.144,5.144,0,0,1,.433-.814Q54.3,98.38,49.013,99.761c.041.031.093.062.134.093-.525-.4-1.04-.8-1.566-1.205a3.759,3.759,0,0,1,.7.7c-.4-.525-.8-1.04-1.205-1.566a4.558,4.558,0,0,1,.422.721c-.258-.618-.515-1.226-.783-1.844a4.334,4.334,0,0,1,.309,1.123c-.093-.68-.185-1.37-.278-2.05a3.766,3.766,0,0,1,0,.834c.093-.68.185-1.37.278-2.05a4.459,4.459,0,0,1-.2.814,5.8,5.8,0,0,0-.134,3.08,5.775,5.775,0,0,0,.917,2.874,7.714,7.714,0,0,0,10.569,2.771c.525-.4,1.04-.8,1.566-1.205a7.662,7.662,0,0,0,2.009-3.42Z" transform="translate(-37.256 -85.361)" fill="#b2c453"/></g></g><g transform="translate(791.651 240.573)"><path d="M314.88,86.8l20.43,31.158-32.642,19.38L164.22,114.568V101.33l89.19-23Z" transform="translate(33.648 15.892)" fill="#ffc626"/><path d="M334.212,40.082,305.89,75.137,253.41,88.677l-89.19-12.3V68.875l37.807,6.239,49.512-34.935,40.969-11.9Z" transform="translate(33.648 5.545)" fill="#ee7344"/><path d="M253.41,80.437l-89.19,23V68.14Z" transform="translate(33.648 13.785)" fill="#ffc626"/><path d="M251.539,38.14,202.027,73.075,164.22,66.836V63.506Z" transform="translate(33.648 7.583)" fill="#ee7344"/><path d="M252.331,45.973,165.012,71.339c0-2.582-1.822-4.863-4.622-6.251L245.32.25l38.241.676L270.48,33.17Z" transform="translate(32.856 -0.25)" fill="#fdc528"/><path d="M166.13,103.557v13.238l-11.15-1.834,6.106-47.4,5.044.7Z" transform="translate(31.738 13.665)" fill="url(#a)"/><path d="M156.892,66.351c4.525,0,8.423-1.87,10.173-4.561l.977.157v7.506l-5.044-.7-6.106,47.4,11.15,1.834V466.263c-.024,4.272-5,7.723-11.15,7.723a14.029,14.029,0,0,1-7.88-2.257,6.815,6.815,0,0,1-3.282-5.467V120.027l6.77-.953-5.044-47.521-1.726.193V61.971l1-.157C148.481,64.493,152.379,66.351,156.892,66.351Z" transform="translate(29.825 12.472)" fill="url(#b)"/><path d="M164.387,59.16v3.331l-.977-.157A5.782,5.782,0,0,0,164.387,59.16Z" transform="translate(33.48 11.929)" fill="url(#c)"/><path d="M161.494,53.98c2.8,1.388,4.622,3.668,4.622,6.251h-9.328L155.05,58.9Z" transform="translate(31.752 10.858)" fill="url(#d)"/><path d="M156.805,60.41l10.088,1.665c-1.75,2.691-5.648,4.561-10.173,4.561S148.31,64.778,146.56,62.1Z" transform="translate(29.997 12.187)" fill="url(#e)"/><path d="M162.61,54.234l-6.444,4.923-6.516-4.984a14.541,14.541,0,0,1,6.432-1.424A14.38,14.38,0,0,1,162.61,54.234Z" transform="translate(30.636 10.603)" fill="url(#f)"/><path d="M158.1,60.162l-1.315-1h9.328a5.782,5.782,0,0,1-.977,3.174L155.05,60.668Z" transform="translate(31.752 11.929)" fill="url(#g)"/><path d="M158.626,60.162l-3.053.507-3.053-.507,1.315-1h3.475Z" transform="translate(31.229 11.929)" fill="url(#h)"/><path d="M155.348,58.06l1.738,1.327H153.61Z" transform="translate(31.454 11.701)" fill="url(#i)"/><path d="M147.456,69.88,152.5,117.4l-6.77.953V70.073Z" transform="translate(29.825 14.145)" fill="url(#j)"/><path d="M145.73,59.16h9.509l-1.315,1,3.053.507-10.245,1.689A5.788,5.788,0,0,1,145.73,59.16Z" transform="translate(29.825 11.929)" fill="url(#k)"/><path d="M155.239,60.241H145.73c0-2.607,1.87-4.923,4.73-6.311l6.516,4.984Z" transform="translate(29.825 10.847)" fill="url(#l)"/><path d="M170.739,65.027c-2.86,1.388-4.73,3.7-4.73,6.311L78.955,46.058,60.7,33.17,47.64.926,85.881.25Z" transform="translate(9.547 -0.25)" fill="#ffc626"/><path d="M145.73,62.515V59.16a5.788,5.788,0,0,0,1,3.2Z" transform="translate(29.825 11.929)" fill="url(#m)"/><path d="M175.805,101.456v15.277L32.458,136.983.25,116.866,21.392,86.191,95.147,77.72Z" transform="translate(-0.25 15.766)" fill="#fdc528"/><path d="M159.548,70.04v33L78.89,79.308Z" transform="translate(16.007 14.178)" fill="#fdc528"/><path d="M174.852,68.9v9.775L94.194,87.941,33.182,69.985,4.86,40.082l41.7-11.8L87.8,40.263l49.4,34.85Z" transform="translate(0.703 5.545)" fill="#ee7344"/><path d="M160.644,63.491v3.355l-37.65,6.215L73.59,38.21Z" transform="translate(14.912 7.598)" fill="#ee7344"/></g><g transform="translate(851.229 443.058)"><path d="M23.21,331.13" transform="translate(-5.749 -81.927)" fill="none" stroke="#000" stroke-linecap="round" stroke-linejoin="round" stroke-miterlimit="10" stroke-width="1.5"/><path d="M122.4,329.37" transform="translate(-30.291 -81.492)" fill="none" stroke="#000" stroke-linecap="round" stroke-linejoin="round" stroke-miterlimit="10" stroke-width="1.865"/><path d="M87.78,177.11" transform="translate(-21.726 -43.819)" fill="none" stroke="#000" stroke-linecap="round" stroke-linejoin="round" stroke-width="0.5"/><path d="M145.337,255.66s-1.919,7.3-8.421,9.2l-.805-4.094Z" transform="translate(-33.684 -63.254)" fill="#ee7358" stroke="#e84436" stroke-linecap="round" stroke-linejoin="round" stroke-miterlimit="10" stroke-width="2"/><path d="M140.494,257.711a46.615,46.615,0,0,1-7.037,19.665l-5.757-.4,6-20.417Z" transform="translate(-31.603 -63.477)" fill="#f3c8bb" stroke="#c69191" stroke-linecap="round" stroke-linejoin="round" stroke-miterlimit="10" stroke-width="2.615"/><g transform="translate(1.566 21.654)"><path d="M170.882,95.162a8.46,8.46,0,0,1,2.807,7.292c-1.437,10.31-12.2,11.213-12.463,11.266a.671.671,0,0,1-.211.023.256.256,0,0,1-.105-.015c.045-.226.083-.444.12-.67.083-.2.166-.384.241-.572,2.062-.12,6.9-.564,10.355-8.233a5.657,5.657,0,0,0-.278-4.975.315.315,0,0,0-.03-.075,7.122,7.122,0,0,0-.549-1.1l-.008-.008c-.038-.068-.075-.143-.113-.211a5.431,5.431,0,0,0-4.086-2.672.952.952,0,0,1-.211-.023c.075-.421.143-.835.2-1.249A5.947,5.947,0,0,1,170.882,95.162Z" transform="translate(-41.386 -44.89)" fill="#c69191"/><path d="M171.606,99.932a5.867,5.867,0,0,1,.376,2.9c-.948,6.8-7.94,8.662-10.032,9.309.911-2.235,1.708-4.485,2.386-6.728.053-.143.09-.286.135-.429.467-1.5.865-2.973,1.174-4.425q.463-1.953.813-3.876c0-.015.008-.038.008-.053a4.356,4.356,0,0,1,3.379.692,6.139,6.139,0,0,1,1.174,1.43l.008.008c.166.339.361.707.549,1.1A.312.312,0,0,1,171.606,99.932Z" transform="translate(-41.644 -45.543)" fill="#f3c8bb"/><path d="M171.843,103.937a5.866,5.866,0,0,0-.376-2.9,5.657,5.657,0,0,1,.278,4.974c-3.454,7.669-8.293,8.113-10.355,8.233.151-.339.286-.67.421-1C163.9,112.6,170.9,110.741,171.843,103.937Z" transform="translate(-41.505 -46.651)" fill="#f3c8bb"/><path d="M172.39,98.3c.038.068.075.143.113.211a6.139,6.139,0,0,0-1.174-1.43,4.356,4.356,0,0,0-3.379-.692c.053-.263.1-.519.143-.783a.952.952,0,0,0,.211.023A5.431,5.431,0,0,1,172.39,98.3Z" transform="translate(-43.128 -45.308)" fill="#f3c8bb"/><path d="M169.361,70.53c-.1.5-.188.978-.278,1.392a2.048,2.048,0,0,1-.309.76.428.428,0,0,1-.1.008,4.656,4.656,0,0,0-.053-.467.986.986,0,0,0-.9-.865.989.989,0,0,1,.647-.61A5.809,5.809,0,0,1,169.361,70.53Z" transform="translate(-43.071 -39.103)" fill="#936037"/><path d="M168.156,73.384a58.022,58.022,0,0,1-.444,15.345l-.06.023c-.248.015-.482.045-.692.075-.015.075-.03.143-.045.211a.947.947,0,0,0-.421.655l-.9-.158a57.367,57.367,0,0,0,.534-16.466.737.737,0,0,1-.007-.128,1.261,1.261,0,0,0,1.227.85A1.172,1.172,0,0,0,168.156,73.384Z" transform="translate(-42.544 -39.699)" fill="#c69191"/><path d="M169.088,73.39a1.331,1.331,0,0,1-.09.105.069.069,0,1,1,.09-.105Z" transform="translate(-43.385 -39.81)" fill="#936037"/><path d="M168.322,72.96a.43.43,0,0,1,.008.1,1.172,1.172,0,0,1-.813.406,1.261,1.261,0,0,1-1.227-.85V72.6a1,1,0,0,1,.873-.971.916.916,0,0,1,.2,0,1.013,1.013,0,0,0-.015.617A1,1,0,0,0,168.322,72.96Z" transform="translate(-42.717 -39.373)" fill="#936037"/><path d="M168.657,72.962a1,1,0,0,1-.971-.715,1.012,1.012,0,0,1,.015-.617.986.986,0,0,1,.9.865A4.648,4.648,0,0,1,168.657,72.962Z" transform="translate(-43.053 -39.375)" fill="#936037"/><path d="M168.39,93.92v.023h-.06Z" transform="translate(-43.222 -44.89)" fill="#c69191"/><path d="M168,93.95h.06c-.06.414-.128.828-.2,1.249h-.015a1.694,1.694,0,0,1-.158.09c-.03.233-.053.467-.09.707a.1.1,0,0,1-.045.008h-.007a1.014,1.014,0,0,1-.557-.406c.015-.053.03-.113.045-.173.075-.354.158-.76.233-1.189a1.141,1.141,0,0,1,.354-.151A2.1,2.1,0,0,0,168,93.95Z" transform="translate(-42.888 -44.897)" fill="#c69191"/><path d="M168.053,95.61c-.045.263-.09.519-.143.783-.045.008-.083.008-.12.015.038-.241.06-.474.09-.707a1.7,1.7,0,0,0,.158-.09Z" transform="translate(-43.089 -45.308)" fill="#f3c8bb"/><path d="M167.91,96.65c0,.015-.007.038-.007.053a.6.6,0,0,1-.113-.023v-.015C167.828,96.658,167.865,96.658,167.91,96.65Z" transform="translate(-43.089 -45.565)" fill="#f3c8bb"/><path d="M167.56,96.69a.6.6,0,0,0,.113.023q-.35,1.919-.813,3.876Q167.312,98.6,167.56,96.69Z" transform="translate(-42.858 -45.575)" fill="#f3c8bb"/><path d="M168.088,93.95a2.1,2.1,0,0,1-.384.135,1.141,1.141,0,0,0-.354.15c.015-.068.03-.135.045-.211C167.606,94,167.839,93.965,168.088,93.95Z" transform="translate(-42.98 -44.897)" fill="#c69191"/><path d="M167.775,96.67v.015a.1.1,0,0,1-.045-.008A.1.1,0,0,0,167.775,96.67Z" transform="translate(-43.074 -45.57)" fill="#c69191"/><path d="M150.064,96.262a.1.1,0,0,0,.045.008q-.248,1.908-.7,3.9-.508,2.2-1.174,4.425c-.045.143-.083.286-.135.429a63.666,63.666,0,0,1-2.626,6.8,1.738,1.738,0,0,0-.188.068c-.023.173-.053.354-.083.534l-.158.339a.531.531,0,0,0,.105-.008c-.03.188-.06.376-.1.564a66.308,66.308,0,0,1-13.042,19.838c-5.96,6.118-15.955,9.949-28.538,11v-.12a1.031,1.031,0,1,0-2.062,0v.271c-1.325.083-2.672.128-4.049.143v-.414A1.033,1.033,0,0,0,96.33,143v-.549c13.381,0,26.709-2.928,34.257-10.687q1.614-1.659,3.086-3.447c.248-.293.489-.587.722-.888.248-.316.5-.632.738-.948.211-.271.414-.542.61-.82.226-.294.444-.595.655-.9.09-.128.173-.248.263-.376.211-.3.414-.6.617-.9s.391-.587.579-.88c.324-.489.632-.986.933-1.483s.6-.993.888-1.5c.06-.1.12-.2.173-.3.286-.5.564-1,.843-1.513.008-.008.008-.023.015-.038.309-.564.6-1.136.888-1.708s.564-1.144.835-1.723a.225.225,0,0,0,.03-.06c.263-.557.512-1.121.753-1.686.263-.579.512-1.167.737-1.754.248-.587.474-1.174.692-1.761.655-1.723,1.234-3.462,1.746-5.2.2-.632.369-1.257.534-1.889q.237-.881.452-1.761c.135-.557.263-1.114.384-1.663.03-.113.053-.226.075-.339.083-.4.166-.8.241-1.189.053-.263.105-.527.15-.79q.124-.632.226-1.264l.9.158a.764.764,0,0,0,0,.369,1.045,1.045,0,0,0,.143.339,1.887,1.887,0,0,1-.263.579.37.37,0,0,0,.158-.03,5.164,5.164,0,0,1,.67-.143Z" transform="translate(-25.407 -45.155)" fill="#c69191"/><path d="M167.2,94.33c-.075.429-.158.835-.233,1.189-.015.06-.03.12-.045.173a1.045,1.045,0,0,1-.143-.339.763.763,0,0,1,0-.369A.947.947,0,0,1,167.2,94.33Z" transform="translate(-42.834 -44.991)" fill="#c69191"/><path d="M166.893,96.14a1.014,1.014,0,0,0,.557.406,5.207,5.207,0,0,0-.662.143.37.37,0,0,1-.158.03A1.887,1.887,0,0,0,166.893,96.14Z" transform="translate(-42.802 -45.439)" fill="#c69191"/><path d="M129.649,62.139a57.369,57.369,0,0,1-.534,16.466q-.1.632-.226,1.264c-.045.263-.1.527-.151.79-.075.391-.158.79-.241,1.189-.023.113-.045.226-.075.339-.12.549-.248,1.106-.384,1.663q-.215.881-.452,1.761c-.166.632-.339,1.257-.534,1.889-.512,1.731-1.091,3.469-1.746,5.2-.226.587-.452,1.174-.692,1.761s-.482,1.174-.738,1.754c-.241.564-.5,1.129-.753,1.686a.225.225,0,0,1-.03.06c-.271.579-.549,1.151-.835,1.723s-.587,1.144-.888,1.708c-.008.015-.008.03-.015.038-.278.512-.557,1.016-.843,1.513-.053.105-.113.2-.173.3-.286.5-.579,1-.888,1.5s-.61.993-.933,1.483c-.188.294-.384.587-.58.881-.2.309-.414.6-.617.9-.09.128-.173.248-.263.376-.218.3-.429.6-.655.9-.2.278-.4.549-.61.82-.241.316-.489.632-.738.948-.233.3-.474.595-.722.888q-1.468,1.784-3.086,3.447c-7.548,7.759-20.876,10.687-34.257,10.687-13.622-.015-27.3-3.055-34.965-7.157-10.446-5.569-17.219-17.106-20.6-24.218-1.084-2.423-.647-5.449-.858-6.043L19.42,87.4c-.023-.053-.512-.888-1.242-2.356-.2-6.532,4.109-15.819,9.5-16.752,2.453-.421,8.165-.617,13.366-.76a8.123,8.123,0,0,0-.233,1.084,1,1,0,0,0,.828,1.129c.053,0,.1.008.151.008a1,1,0,0,0,.986-.843,6.6,6.6,0,0,1,.376-1.437c11.642-.316,22.321-5.065,27.476-8.933,7.277-5.464,28.026-24.12,30.2-29.772,4.169,1.927,25.663,24.045,28.733,33.038a1.638,1.638,0,0,0,.083.2A.729.729,0,0,0,129.649,62.139Zm-18.506,5.336a.978.978,0,0,0,.361-1.347c-3.7-6.547-12.463-4.756-12.831-4.673a1,1,0,0,0-.768,1.182.982.982,0,0,0,1.174.753c.083-.008,7.706-1.58,10.7,3.71a1.005,1.005,0,0,0,1.362.376Zm-8.767,11.266c0-1.994-.9-3.74-2.1-3.853a.634.634,0,0,0-.2-.03.776.776,0,0,0-.309.06.324.324,0,0,1-.038.008,3.622,3.622,0,0,0-2.333,3.53c0,2.175,1.656,4.064,2.551,4.026a1.308,1.308,0,0,0,.294-.038C101.3,82.173,102.376,80.728,102.376,78.741ZM83.321,93.326a.991.991,0,0,0,.76-1.182c-.158-.745-1.851-5.486-5.155-7.616a3.893,3.893,0,0,0-3.018-.587c-5.117,1.114-7.217,7.4-7.323,7.744a1,1,0,0,0,1.919.527c.564-2.055,2.536-5.622,5.832-6.337a1.917,1.917,0,0,1,1.505.316,11.653,11.653,0,0,1,4.3,6.367.989.989,0,0,0,.971.783C83.178,93.341,83.245,93.333,83.321,93.326Zm-3.635,21.885a.77.77,0,0,0,.579-1.039c-2.935-6.314-10.092-7.405-14.653-7.405a26.047,26.047,0,0,0-4.049.294.82.82,0,0,0-.753.956,1.008,1.008,0,0,0,1.182.61,24.762,24.762,0,0,1,6.886-.06c4.726.655,7.932,2.732,9.528,6.179A1.091,1.091,0,0,0,79.686,115.211Zm-28.6-32.632c1.144-.045,2.423-1.565,2.423-3.748,0-2.167-1.061-4.049-2.423-3.846-.9,0-2.559,1.4-2.559,3.567S50.185,82.624,51.088,82.579Z" transform="translate(-6.069 -28.77)" fill="#f3c8bb"/><path d="M165.09,97.46c.053-.263.105-.527.15-.79C165.2,96.933,165.143,97.2,165.09,97.46Z" transform="translate(-42.421 -45.57)" fill="#c69191"/><path d="M164.256,108.32c-.677,2.243-1.475,4.493-2.386,6.728-.09.03-.173.053-.241.075A63.653,63.653,0,0,0,164.256,108.32Z" transform="translate(-41.564 -48.453)" fill="#f3c8bb"/><path d="M161.524,117.335c.068-.023.15-.045.241-.075-.135.331-.271.662-.421,1a.96.96,0,0,1-.143.008c.023-.113.038-.218.053-.331C161.343,117.734,161.433,117.538,161.524,117.335Z" transform="translate(-41.458 -50.665)" fill="#f3c8bb"/><path d="M161.541,117.36c-.09.2-.181.4-.271.6.03-.181.06-.361.083-.534A1.733,1.733,0,0,1,161.541,117.36Z" transform="translate(-41.475 -50.689)" fill="#c69191"/><path d="M161.168,118.6a.96.96,0,0,0,.143-.008c-.075.188-.158.376-.241.572C161.108,118.974,161.138,118.786,161.168,118.6Z" transform="translate(-41.426 -50.994)" fill="#c69191"/><path d="M161.218,118.16c-.015.113-.03.218-.053.331a.532.532,0,0,1-.105.008Z" transform="translate(-41.423 -50.887)" fill="#f3c8bb"/><path d="M124.805,194.992c7.736,13.245,11.131,24.8,10.107,34.332a28.793,28.793,0,0,1-1.008,4.433c-.15.534-.294,1.054-.429,1.55-1.452,5.7-8.624,1.287-9.829,3.883a1.113,1.113,0,0,1-.414.474c-.023-.09-.038-.173-.053-.263-.2-1.069-.4-2.145-.6-3.229,6.465-.045,5.351.211,8.323-1.121a1.03,1.03,0,0,0,.557-.655q.147-.553.316-1.129a27.376,27.376,0,0,0,.933-4.071c.09-.8.143-1.6.158-2.423.015-.745.008-1.49-.03-2.25-.73-16.113-13.23-34.912-21.531-45.154a1.151,1.151,0,0,0-.324-.286l-.09-.113a.99.99,0,0,0-1.7.309l-.068.181a1.309,1.309,0,0,0-.135.248,14.879,14.879,0,0,1-4.147,5.524c-4.937,4.139-11.04,4.086-16.316-.143q-3.578-2.867-4.433-5.674a1.4,1.4,0,0,1,.271-1.294c.015-.015.023-.03.03-.038.211-.248.406-.482.587-.685.73-.858,1.159-1.332,1.2-1.37s.075-.1.12-.158l.2.12a4.115,4.115,0,0,0-.4,1.1c-.346,1.866.933,3.974,3.8,6.269,6.344,5.072,11.56,1.821,13.509.181,3.379-2.837,4.816-6.954,3.846-8.737-.09-.158-.181-.316-.278-.459l.03-.015a2.314,2.314,0,0,1,.534,1.091,1.109,1.109,0,0,0,1.1.948,1.062,1.062,0,0,0,.158-.008,1.113,1.113,0,0,0,.941-1.264,4.369,4.369,0,0,0-.76-1.844A138.959,138.959,0,0,1,124.805,194.992Z" transform="translate(-22.365 -64.518)" fill="#e84436"/><path d="M149.92,133.763c.2-.3.414-.594.617-.9C150.334,133.161,150.131,133.462,149.92,133.763Z" transform="translate(-38.667 -54.525)" fill="#c69191"/><path d="M148.7,135.456c.226-.293.437-.595.655-.9C149.144,134.861,148.926,135.162,148.7,135.456Z" transform="translate(-38.365 -54.945)" fill="#c69191"/><path d="M62.389,238.137a.208.208,0,0,0,.09-.151c1.558-9.392.173-4.192-.783-.339a17.729,17.729,0,0,0-1.784-1.039,1.286,1.286,0,0,0-.173-.09,20.458,20.458,0,0,0-2.107-.956l-.346-.135c-1.6-.64-2.8-.986-2.815-1.054a28.584,28.584,0,0,1-.655-5.388c-.015-.813-.008-1.626.038-2.446.978-18.3,16.639-38.81,22.577-45.96.361,2.107,1.9,4.26,4.613,6.427,5.276,4.237,11.379,4.282,16.316.151a14.7,14.7,0,0,0,4.282-5.885,1.354,1.354,0,0,1,1.859-.376c8.278,10.115,21.057,29.132,21.855,45.44.038.76.045,1.505.03,2.25-.023.775-.075,1.55-.158,2.31a27.25,27.25,0,0,1-.933,4.079c-.09.309-.181.617-.263.918a1.381,1.381,0,0,1-.843.926c-3.785,1.437-2.438.354-7.992,1.039a.263.263,0,0,0-.113.053c-1.942-10.348-3.959-21.328-4.561-27.356a1.031,1.031,0,0,0-2.054.166.5.5,0,0,0,0,.151c.452,4.538,1.686,11.778,3.093,19.454a5.97,5.97,0,0,0,.655,3.56c.482,2.619.978,5.253,1.46,7.812,1.151,6.126,2.265,12,2.958,16.241.339,2.055.587,3.718.685,4.839.008.135.023.271.03.406a6.92,6.92,0,0,1-.008.79,7.746,7.746,0,0,1-3.454,6.051,16.982,16.982,0,0,1-4.952,2.085c-4.9,1.294-11.168,1.264-17.565.542a128.21,128.21,0,0,1-23.262-5.065c-4.184-1.34-7.1-2.559-7.812-3.183a.922.922,0,0,1-.09-.2.112.112,0,0,1-.008-.053,3.509,3.509,0,0,1-.045-.452c-.008-.226-.015-.5,0-.805.045-1.279.241-3.176.564-5.516.09-.662.166-1.257.233-1.8q.023-.2.045-.384c.986-7.413-.008-1.031,2.657-13.561a1.027,1.027,0,0,0-.579-1.144.128.128,0,0,1,.008-.053,1.029,1.029,0,0,0-.8-1.219,1.04,1.04,0,0,0-1.106.482c.135-.534.309-1.227.489-1.957.151.113.3.241.444.369A.228.228,0,0,0,62.389,238.137Z" transform="translate(-14.887 -66.332)" fill="#ee7358"/><path d="M145.375,246.68c.083-.76.135-1.535.158-2.31-.015.82-.068,1.626-.158,2.423a27.382,27.382,0,0,1-.933,4.071q-.169.576-.316,1.129a1.029,1.029,0,0,1-.557.655c-2.973,1.332-1.859,1.076-8.323,1.121a.267.267,0,0,1-.015-.075.261.261,0,0,1,.113-.053c5.554-.685,4.207.4,7.992-1.039a1.381,1.381,0,0,0,.843-.926c.083-.3.173-.61.263-.918A27.25,27.25,0,0,0,145.375,246.68Z" transform="translate(-35.032 -82.115)" fill="#ee7358"/><path d="M137.712,76.78a.978.978,0,0,1-.361,1.347,1.005,1.005,0,0,1-1.362-.376c-3-5.291-10.619-3.718-10.7-3.71a.982.982,0,0,1-1.174-.753,1,1,0,0,1,.768-1.182C125.249,72.024,134.009,70.232,137.712,76.78Z" transform="translate(-32.276 -39.422)" fill="#f3db8c"/><path d="M137.506,287.844a9.867,9.867,0,0,1-4.357,9.264,17.4,17.4,0,0,1-4.591,2.032,1.132,1.132,0,0,0-1.084-1.091h-.03c-.068,0-.143.015-.218.023l-.135-.5a16.83,16.83,0,0,0,4.929-2.077,7.7,7.7,0,0,0,3.454-6.156,6.916,6.916,0,0,0,.007-.79c-.007-.173-.015-.339-.03-.512-.1-1.121-.346-2.785-.685-4.839l.662-.113a1.084,1.084,0,0,0,.632.843.986.986,0,0,0,.459.113,1.062,1.062,0,0,0,.452-.1h.008C137.227,285.556,137.415,286.873,137.506,287.844Z" transform="translate(-33.018 -91.693)" fill="#e84436"/><path d="M139.7,283.007c0,.023.008.038.008.06a1.063,1.063,0,0,1-.452.1.986.986,0,0,1-.459-.113,1.084,1.084,0,0,1-.632-.843,1.209,1.209,0,0,1,.09-.625c.188-.4.467-1.106.783-2.024.286,1.505.512,2.687.617,3.214a.082.082,0,0,1,.008.038A1.831,1.831,0,0,0,139.7,283.007Z" transform="translate(-35.757 -90.822)" fill="#e84436"/><path d="M140.183,283.985c.008.03.008.06.015.09a1.828,1.828,0,0,1-.038-.2C140.168,283.918,140.175,283.955,140.183,283.985Z" transform="translate(-36.252 -91.891)" fill="#e84436"/><path d="M139.985,282.862c-.008-.03-.015-.068-.023-.105a.082.082,0,0,0-.008-.038c-.1-.557-.316-1.738-.595-3.266a.654.654,0,0,1,.038-.113C139.623,280.619,139.819,281.8,139.985,282.862Z" transform="translate(-36.054 -90.768)" fill="#e84436"/><path d="M138.566,274.926a.656.656,0,0,0-.038.113c-.707-3.778-1.814-9.678-2.529-13.494a.339.339,0,0,0,.09-.045C137.031,266.512,137.912,271.156,138.566,274.926Z" transform="translate(-35.223 -86.353)" fill="#e84436"/><path d="M139.353,279.49c.278,1.528.5,2.709.595,3.266-.105-.527-.331-1.708-.617-3.214A.356.356,0,0,0,139.353,279.49Z" transform="translate(-36.047 -90.805)" fill="#e84436"/><path d="M138.511,275.054a.37.37,0,0,1-.023.053c-.941-4.967-2.559-13.464-2.559-13.516a.189.189,0,0,0,.053-.03C136.7,265.376,137.8,271.276,138.511,275.054Z" transform="translate(-35.206 -86.368)" fill="#e84436"/><path d="M137.383,272.622c-.316.918-.595,1.626-.783,2.024a1.209,1.209,0,0,0-.09.625l-.662.113c-.692-4.237-1.806-10.115-2.958-16.241-.467-2.5-.956-5.065-1.43-7.624.865,2.032,2.213,4.019,2.747,4.019h.045a.1.1,0,0,0-.015.083c.1.527.331,1.791.64,3.454a.19.19,0,0,1-.053.03C134.824,259.159,136.442,267.655,137.383,272.622Z" transform="translate(-34.1 -83.884)" fill="#e84436"/><path d="M136.522,280.2c.015.173.023.339.03.512-.008-.135-.023-.271-.03-.406-.1-1.121-.346-2.785-.685-4.839-.692-4.237-1.806-10.115-2.958-16.241-.482-2.559-.978-5.193-1.46-7.812.008.03.023.053.03.083.474,2.559.963,5.125,1.43,7.624,1.151,6.126,2.265,12,2.958,16.241C136.176,277.411,136.425,279.075,136.522,280.2Z" transform="translate(-34.09 -83.857)" fill="#e84436"/><path d="M135.826,260.089c.015.09.03.173.053.263a.335.335,0,0,1-.09.045c-.309-1.663-.542-2.928-.64-3.454a.1.1,0,0,1,.015-.083h.06C135.427,257.944,135.623,259.02,135.826,260.089Z" transform="translate(-35.012 -85.205)" fill="#e84436"/><path d="M135.215,256.76a.266.266,0,0,0,.015.075h-.06A.156.156,0,0,1,135.215,256.76Z" transform="translate(-35.017 -85.181)" fill="#e84436"/><path d="M129.54,239.846c-1.407-7.706-2.642-14.976-3.1-19.529v-.045a1.031,1.031,0,0,1,2.055-.166c.6,6.028,2.619,17.008,4.561,27.356a.156.156,0,0,0-.045.075h-.045c-.534,0-1.881-1.987-2.747-4.019C129.992,242.285,129.766,241.058,129.54,239.846Z" transform="translate(-32.857 -75.883)" fill="#e84436"/><path d="M132.012,297.441a7.746,7.746,0,0,0,3.454-6.051,7.7,7.7,0,0,1-3.454,6.156,16.83,16.83,0,0,1-4.929,2.077l-.023-.1A16.976,16.976,0,0,0,132.012,297.441Z" transform="translate(-33.011 -93.749)" fill="#e84436"/><path d="M131.235,250.313c-.008-.03-.023-.053-.03-.083-.226-1.2-.444-2.386-.655-3.56,0-.015,0-.023.008-.03C130.783,247.852,131.009,249.078,131.235,250.313Z" transform="translate(-33.874 -82.677)" fill="#ee7358"/><path d="M130.519,246.68c.211,1.174.429,2.363.655,3.56A5.97,5.97,0,0,1,130.519,246.68Z" transform="translate(-33.844 -82.687)" fill="#ee7358"/><path d="M129.539,240.2c-.007.008-.007.015-.007.03-1.407-7.676-2.642-14.916-3.093-19.454a.5.5,0,0,1,0-.151v.045C126.9,225.228,128.131,232.5,129.539,240.2Z" transform="translate(-32.856 -76.241)" fill="#e84436"/><path d="M128.271,93.8c0,2.032-.888,3.59-1.731,3.778a.627.627,0,0,1-.166.023c-.9,0-1.9-1.626-1.9-3.8,0-1.9.76-3.372,1.558-3.718a.326.326,0,0,0,.038-.008.743.743,0,0,1,.181-.023.984.984,0,0,1,.331-.008C127.413,90.272,128.271,91.8,128.271,93.8Z" transform="translate(-32.37 -43.929)"/><path d="M127.22,97.583c.843-.188,1.731-1.746,1.731-3.778,0-2-.858-3.53-1.693-3.755,1.2.113,2.1,1.859,2.1,3.853s-1.076,3.432-2.137,3.7Z" transform="translate(-33.05 -43.932)"/><path d="M128.085,304.42v.053l-.707,31.856a.5.5,0,0,1-.008.105.982.982,0,0,0-.888-.625,1.1,1.1,0,0,0-.738.271l-.564-.474.677-30.622C126.625,304.826,127.37,304.638,128.085,304.42Z" transform="translate(-32.546 -96.973)" fill="#497ea9"/><path d="M128.308,304.061c-.715.218-1.46.406-2.228.564l.008-.564a1.127,1.127,0,0,1,.888-1.069c.075-.008.151-.023.218-.023h.03A1.132,1.132,0,0,1,128.308,304.061Z" transform="translate(-32.768 -96.614)" fill="#e84436"/><path d="M126.316,346.96a.889.889,0,0,1,.09.444c-.12,2.747-4.485,5.155-5.358,5.607a.506.506,0,0,1-.128.045l.023-2.363a11.7,11.7,0,0,0,2.815-2.235,1.817,1.817,0,0,0,1.648-.06A1.771,1.771,0,0,0,126.316,346.96Z" transform="translate(-31.492 -107.499)" fill="#497ea9"/><path d="M127.249,346.755a1.771,1.771,0,0,1-.911,1.437,1.818,1.818,0,0,1-1.648.06,2.006,2.006,0,0,0,.587-1.144,1.062,1.062,0,0,1,.346-.707,1.1,1.1,0,0,1,.738-.271A.982.982,0,0,1,127.249,346.755Z" transform="translate(-32.424 -107.293)" fill="#497ea9"/><path d="M121.3,302.33l.135.5a1.127,1.127,0,0,0-.888,1.069l-.008.565a43.031,43.031,0,0,1-8.662.775c-2.325,0-4.734-.128-7.165-.369l-.068-1.091c-.03-.5-.467-.707-.963-.753l.015-.151h.015c6.4.722,12.666.753,17.565-.542C121.283,302.338,121.29,302.33,121.3,302.33Z" transform="translate(-27.226 -96.456)" fill="#e84436"/><path d="M127.1,90.04a.983.983,0,0,0-.331.008.743.743,0,0,0-.181.023.775.775,0,0,1,.309-.06A.634.634,0,0,1,127.1,90.04Z" transform="translate(-32.895 -43.922)"/><path d="M126.285,97.6v.023a1.307,1.307,0,0,1-.293.038c-.9.038-2.551-1.851-2.551-4.026a3.622,3.622,0,0,1,2.333-3.53c-.8.346-1.558,1.814-1.558,3.718,0,2.175,1,3.8,1.9,3.8A.627.627,0,0,0,126.285,97.6Z" transform="translate(-32.115 -43.945)"/><path d="M121.28,302.2l.023.1c-.008,0-.015.008-.023.008-4.9,1.294-11.168,1.264-17.565.542H103.7l.015-.105C110.112,303.464,116.381,303.494,121.28,302.2Z" transform="translate(-27.231 -96.424)" fill="#e84436"/><path d="M120.877,305.17l-.677,30.622a10.266,10.266,0,0,0-4.139-1.106,13.246,13.246,0,0,0-9.106,3l-1.9-32.1c2.431.241,4.839.369,7.164.369A43.034,43.034,0,0,0,120.877,305.17Z" transform="translate(-27.565 -97.159)" fill="#5492c5"/><path d="M123.809,345.5l.564.474a1.062,1.062,0,0,0-.346.707,2.006,2.006,0,0,1-.587,1.144c-.06-.023-.12-.06-.181-.09a8.036,8.036,0,0,0-2.6-.986l.008-.918a1.034,1.034,0,0,0-1.024-1.046l.03-.391A10.264,10.264,0,0,1,123.809,345.5Z" transform="translate(-31.175 -106.863)" fill="#497ea9"/><path d="M123.584,348.506a2.019,2.019,0,0,0,.181.09,11.7,11.7,0,0,1-2.815,2.235l.03-3.311A8.036,8.036,0,0,1,123.584,348.506Z" transform="translate(-31.499 -107.637)" fill="#1d71b8"/><path d="M120.32,345.956l-.008.918a8.663,8.663,0,0,0-2.062-.158l.008-.783a1.031,1.031,0,0,1,1.031-1.023h.008A1.034,1.034,0,0,1,120.32,345.956Z" transform="translate(-30.831 -106.991)" fill="#497ea9"/><path d="M120.3,347.465l-.03,3.311a9.236,9.236,0,0,1-.843.489,1.033,1.033,0,0,0-.557.911l-.67-.008.038-4.862A8.664,8.664,0,0,1,120.3,347.465Z" transform="translate(-30.819 -107.582)" fill="#c69191"/><path d="M120.49,351.92l-.023,2.363a.769.769,0,0,1-.346.068,1.034,1.034,0,0,1-1.031-1.031,1.033,1.033,0,0,1,.557-.911A9.244,9.244,0,0,0,120.49,351.92Z" transform="translate(-31.039 -108.726)" fill="#c69191"/><path d="M120.23,354.741l-.015,2.9a1.035,1.035,0,0,0-.873.783,1.024,1.024,0,0,0,.76,1.242c.03.008.06.023.09.03v.158a1.036,1.036,0,0,1-1.031,1.024h-.008a1.026,1.026,0,0,1-1.024-1.031l.053-6.073.67.008a1.034,1.034,0,0,0,1.031,1.031A.77.77,0,0,0,120.23,354.741Z" transform="translate(-30.801 -109.183)" fill="#c69191"/><path d="M120.6,358.91l-.023,2.055c-.03-.007-.06-.023-.09-.03a1.024,1.024,0,0,1-.76-1.242A1.035,1.035,0,0,1,120.6,358.91Z" transform="translate(-31.19 -110.455)" fill="#c69191"/><path d="M119.139,180.731l.09.113a1.354,1.354,0,0,0-1.859.376l.068-.181A.991.991,0,0,1,119.139,180.731Z" transform="translate(-30.613 -66.28)" fill="#ee7358"/><path d="M115.32,334.743l-.03.391h-.008a1.031,1.031,0,0,0-1.031,1.023l-.008.783a9.205,9.205,0,0,0-1.513.158v-.467a1.026,1.026,0,0,0-1.016-1.039H111.7a1.036,1.036,0,0,0-1.031,1.023l-.008,1.046a9.7,9.7,0,0,0-3.236,1.979,15.26,15.26,0,0,1-1.46-1.34,1.024,1.024,0,0,0-1.776.775,2.093,2.093,0,0,1-.158-.647L102.06,305.4c.753.09,1.505.166,2.25.233l1.9,32.1A13.245,13.245,0,0,1,115.32,334.743Z" transform="translate(-26.825 -97.215)" fill="#497ea9"/><path d="M117.292,175a1.113,1.113,0,0,1-.941,1.264,1.058,1.058,0,0,1-.158.008,1.109,1.109,0,0,1-1.1-.948,2.315,2.315,0,0,0-.534-1.091l1.716-1.355c.075.09.166.181.256.278A4.37,4.37,0,0,1,117.292,175Z" transform="translate(-29.918 -64.427)" fill="#e84436"/><path d="M114.369,171.825c-.09-.1-.181-.188-.256-.278L112.4,172.9c-1.257-1.5-4.387-2.611-6.577-3.146V167.49C107.656,167.889,112.45,169.138,114.369,171.825Z" transform="translate(-27.756 -63.093)" fill="#e84436"/><path d="M115.56,346.559v.467a10.877,10.877,0,0,0-2.07.564l.008-1.046a1.036,1.036,0,0,1,1.031-1.023h.015A1.026,1.026,0,0,1,115.56,346.559Z" transform="translate(-29.653 -107.142)" fill="#497ea9"/><path d="M115.55,347.52l-.045,5.057-.534-.008a.929.929,0,0,0-.053-.316,1.042,1.042,0,0,0-1.309-.655.541.541,0,0,1-.158.038l.03-3.552A10.879,10.879,0,0,1,115.55,347.52Z" transform="translate(-29.643 -107.637)" fill="#c69191"/><path d="M115.487,354.238l-.053,6.194a1.031,1.031,0,0,1-1.031,1.023,1.044,1.044,0,0,1-1.024-1.046v-.414c.113-.03.211-.06.278-.083a1.031,1.031,0,0,0,.745-1.249,1.019,1.019,0,0,0-1-.775l.023-2.529a2.615,2.615,0,0,0,.82-.143,1.042,1.042,0,0,0,.707-.986Z" transform="translate(-29.626 -109.297)" fill="#c69191"/><path d="M114.915,353.577a.93.93,0,0,1,.053.316,1.042,1.042,0,0,1-.707.986,2.613,2.613,0,0,1-.82.143l.008-2.062a.54.54,0,0,0,.158-.038A1.042,1.042,0,0,1,114.915,353.577Z" transform="translate(-29.641 -108.961)" fill="#c69191"/><path d="M107.917,171.651c.971,1.784-.467,5.9-3.846,8.737-1.949,1.641-7.164,4.892-13.509-.181-2.867-2.3-4.147-4.4-3.8-6.269a4.114,4.114,0,0,1,.4-1.1c1.114-2.062,4.026-3.582,5.757-4.267v1.641a1.031,1.031,0,1,0,2.062,0v-9.55c1.377-.015,2.724-.06,4.049-.143v9.693a1.031,1.031,0,0,0,2.062,0v-2.182c2.19.534,5.321,1.648,6.577,3.146l-.03.015C107.736,171.335,107.826,171.493,107.917,171.651Z" transform="translate(-23.026 -61.368)" fill="#f3c8bb"/><path d="M114.4,359.865a1.031,1.031,0,0,1-.745,1.249c-.068.023-.166.053-.278.083l.023-2.107A1.018,1.018,0,0,1,114.4,359.865Z" transform="translate(-29.626 -110.5)" fill="#c69191"/><path d="M112.426,348.27l-.03,3.552c-.783.113-2.077-.662-3.206-1.573A9.705,9.705,0,0,1,112.426,348.27Z" transform="translate(-28.589 -107.823)" fill="#1d71b8"/><path d="M111.332,352.287l-.008,2.062h-.12c-2.574,0-5.441-2.92-6.043-3.575a1.019,1.019,0,0,1-.271-.625,1.955,1.955,0,0,0,1.806,1.2,1.915,1.915,0,0,0,1.385-.587.251.251,0,0,1,.045-.045C109.255,351.625,110.549,352.4,111.332,352.287Z" transform="translate(-27.525 -108.288)" fill="#497ea9"/><path d="M108.125,350.349a.254.254,0,0,0-.045.045,1.915,1.915,0,0,1-1.385.587,1.955,1.955,0,0,1-1.806-1.2,1.024,1.024,0,0,1,1.776-.775A15.278,15.278,0,0,0,108.125,350.349Z" transform="translate(-27.524 -107.923)" fill="#497ea9"/><path d="M105.142,170.074v2.182a1.031,1.031,0,0,1-2.062,0V168.78h.105a1.1,1.1,0,0,0,.926,1.084C104.42,169.916,104.766,169.992,105.142,170.074Z" transform="translate(-27.078 -63.412)" fill="#c69191"/><path d="M105.177,167.443v2.265c-.376-.083-.722-.158-1.031-.211a1.1,1.1,0,0,1-.926-1.084.866.866,0,0,1,.023-.2,1.121,1.121,0,0,1,1.287-.9c.12.023.339.06.647.12v.008Z" transform="translate(-27.112 -63.046)" fill="#c69191"/><path d="M105.142,160.32v5.388c-.309-.06-.527-.1-.647-.12a1.121,1.121,0,0,0-1.287.9.867.867,0,0,0-.023.2h-.105v-6.216C103.772,160.433,104.465,160.38,105.142,160.32Z" transform="translate(-27.078 -61.319)" fill="#c69191"/><path d="M105.142,159.821v.12c-.677.06-1.37.113-2.062.151v-.271a1.031,1.031,0,1,1,2.062,0Z" transform="translate(-27.078 -60.94)" fill="#c69191"/><path d="M100.644,110.253a.991.991,0,0,1-.76,1.182c-.075.008-.143.015-.211.015a.989.989,0,0,1-.971-.783,11.653,11.653,0,0,0-4.3-6.367,1.917,1.917,0,0,0-1.505-.316c-3.3.715-5.268,4.282-5.832,6.337a1,1,0,0,1-1.919-.527c.105-.346,2.205-6.63,7.323-7.744a3.893,3.893,0,0,1,3.018.587C98.793,104.767,100.486,109.508,100.644,110.253Z" transform="translate(-22.632 -46.879)" fill="#c69191"/><path d="M104.23,304.01l.068,1.091c-.745-.068-1.5-.143-2.25-.233l-.038-.723c-.03-.61.339-.858.948-.9.113,0,.211,0,.309.008C103.763,303.3,104.2,303.506,104.23,304.01Z" transform="translate(-26.812 -96.683)" fill="#e84436"/><path d="M96.062,301.255l-.015.105A127.539,127.539,0,0,1,72.8,296.3c-.008,0-.023-.008-.03-.008l.03-.1A128.218,128.218,0,0,0,96.062,301.255Z" transform="translate(-19.578 -94.937)" fill="#e84436"/><path d="M96.005,301.392l-.015.151c-.1-.008-.2-.008-.309-.008-.61.038-.978.286-.948.9l.038.722c-.459-.06-.911-.113-1.37-.173l.053-.67a1.136,1.136,0,0,0-1.023-1.2,1.088,1.088,0,0,0-1.189,1.023l-.038.534a129.706,129.706,0,0,1-17.731-4.026l.015-.82a1.136,1.136,0,0,0-.888-1.106l.128-.391c.008,0,.023.008.03.008A127.531,127.531,0,0,0,96.005,301.392Z" transform="translate(-19.536 -94.969)" fill="#e84436"/><path d="M94.276,139.815a.77.77,0,0,1-.579,1.039,1.091,1.091,0,0,1-1.279-.467c-1.6-3.447-4.8-5.524-9.528-6.179a24.762,24.762,0,0,0-6.886.06,1.008,1.008,0,0,1-1.182-.61.82.82,0,0,1,.753-.956,26.054,26.054,0,0,1,4.049-.293C84.184,132.41,91.341,133.5,94.276,139.815Z" transform="translate(-20.08 -54.413)" fill="#c69191"/><path d="M98.547,302.678a1.136,1.136,0,0,1,1.024,1.2l-.053.67c-.73-.1-1.468-.2-2.2-.316l.038-.534A1.088,1.088,0,0,1,98.547,302.678Z" transform="translate(-25.652 -96.541)" fill="#e84436"/><path d="M93.238,305.066l-2.521,31.909a1.47,1.47,0,0,1-.075.361,1.016,1.016,0,0,0-.873-.82,1.027,1.027,0,0,0-1.159.88,1.593,1.593,0,0,1-.241.587,1.332,1.332,0,0,1-.12-.105,6.971,6.971,0,0,0-4.689-1.821v-.09a1.038,1.038,0,0,0-1.023-1.039,1.026,1.026,0,0,0-1.039,1.016v.113c-.512.038-1.023.1-1.543.181a1.046,1.046,0,0,0-1-.858h-.008a1.036,1.036,0,0,0-1.031,1.023v.218a32.934,32.934,0,0,0-4.184,1.309,11.6,11.6,0,0,1-.865-1.4,1.04,1.04,0,0,0-.926-.587l1.144-.128c3.71-1.43,10.98-3.537,15.541-.5L91.04,304.75C91.77,304.863,92.508,304.968,93.238,305.066Z" transform="translate(-19.373 -97.055)" fill="#497ea9"/><path d="M97.022,169.5v2.935a1.031,1.031,0,0,1-2.062,0v-1.641c.263-.1.5-.188.692-.248a1.088,1.088,0,0,0,.76-1.046Z" transform="translate(-25.068 -63.59)" fill="#c69191"/><path d="M97.022,160.71v6.615h-.61a1.069,1.069,0,0,0-.045-.346,1.108,1.108,0,0,0-1.4-.715H94.96V160.71c.263.008.542.008.813.008h.421C96.473,160.718,96.751,160.718,97.022,160.71Z" transform="translate(-25.068 -61.415)" fill="#c69191"/><path d="M97.022,159.821v.414c-.271.008-.549.008-.828.008h-.421c-.271,0-.549,0-.813-.008v-.414a1.031,1.031,0,1,1,2.062,0Z" transform="translate(-25.068 -60.94)" fill="#c69191"/><path d="M91.416,303.426,89,334c-4.561-3.04-11.83-.933-15.541.5l.226-35.093A129.711,129.711,0,0,0,91.416,303.426Z" transform="translate(-19.749 -95.731)" fill="#5492c5"/><path d="M94.442,348.05a.853.853,0,0,1,.008.339c-.406,3.033-5.516,5.02-7.149,5.584l.023-2.212c1.934-.745,4.132-1.934,4.847-3.063a1.364,1.364,0,0,0,.911.324,1.836,1.836,0,0,0,.489-.075A1.529,1.529,0,0,0,94.442,348.05Z" transform="translate(-23.173 -107.768)" fill="#497ea9"/><path d="M77.595,147.745v.549a1.037,1.037,0,0,0-1.031,1.031v.414c-13-.113-26.573-2.98-34.867-7.405-8.572-4.568-14.66-12.877-18.265-19.033-1.106-1.9-2.039-3.688-2.822-5.3.143,0,.233-.007.263-.007a1.034,1.034,0,0,0,.956-1.1.271.271,0,0,0-.015-.083,1.877,1.877,0,0,0,.218-.444c3.379,7.112,10.152,18.649,20.6,24.218C50.3,144.689,63.973,147.73,77.595,147.745Z" transform="translate(-6.672 -50.445)" fill="#c69191"/><path d="M95.17,346.957a1.016,1.016,0,0,1,.873.82,1.528,1.528,0,0,1-.873.9,1.838,1.838,0,0,1-.489.075,1.364,1.364,0,0,1-.911-.324,1.592,1.592,0,0,0,.241-.587A1.027,1.027,0,0,1,95.17,346.957Z" transform="translate(-24.774 -107.495)" fill="#497ea9"/><path d="M92.508,168.09v2.356c-1.731.685-4.643,2.205-5.757,4.267l-.2-.12a1.023,1.023,0,0,0-1.5-1.347C87.18,169.866,92.184,168.2,92.508,168.09Z" transform="translate(-22.616 -63.241)" fill="#e84436"/><path d="M92.056,348.171a1.333,1.333,0,0,0,.12.105c-.715,1.129-2.912,2.318-4.847,3.063l.038-4.99A6.971,6.971,0,0,1,92.056,348.171Z" transform="translate(-23.181 -107.348)" fill="#1d71b8"/><path d="M86.7,345.889v.09a12.565,12.565,0,0,0-2.062,0v-.113a1.026,1.026,0,0,1,1.039-1.016A1.038,1.038,0,0,1,86.7,345.889Z" transform="translate(-22.515 -106.976)" fill="#497ea9"/><path d="M86.685,346.336l-.038,4.99c-.331.128-.647.248-.956.346a1.044,1.044,0,0,0-.715.978H84.57l.053-6.314A12.616,12.616,0,0,1,86.685,346.336Z" transform="translate(-22.498 -107.334)" fill="#c69191"/><path d="M86.781,352.98l-.023,2.213c-.12.038-.218.068-.3.1a1.068,1.068,0,0,1-.316.053,1.03,1.03,0,0,1-.978-.715,1.21,1.21,0,0,1-.053-.324,1.044,1.044,0,0,1,.715-.978C86.134,353.228,86.45,353.108,86.781,352.98Z" transform="translate(-22.631 -108.988)" fill="#c69191"/><path d="M86.607,355.628l-.03,2.973a1,1,0,0,0-.82.617,1.039,1.039,0,0,0,.391,1.287.931.931,0,0,0,.15.218,1.024,1.024,0,0,1-.76.339h-.015a1.031,1.031,0,0,1-1.023-1.031l.053-5.291h.406a1.211,1.211,0,0,0,.053.324,1.03,1.03,0,0,0,.978.715,1.07,1.07,0,0,0,.316-.053C86.389,355.7,86.487,355.666,86.607,355.628Z" transform="translate(-22.48 -109.423)" fill="#c69191"/><path d="M86.962,360.4v.015a.994.994,0,0,0-.5.632,1.074,1.074,0,0,0,.075.722,1.039,1.039,0,0,1-.391-1.287,1,1,0,0,1,.82-.617Z" transform="translate(-22.865 -110.693)" fill="#c69191"/><path d="M87.084,360.6l-.008.888a1.119,1.119,0,0,1-.181.579c-.03-.015-.068-.03-.1-.045a.833.833,0,0,1-.143-.068,1.074,1.074,0,0,1-.075-.722A.994.994,0,0,1,87.084,360.6Z" transform="translate(-22.987 -110.873)" fill="#c69191"/><path d="M86.048,174.922a1.023,1.023,0,0,1,.181,1.294c-.045.06-.083.113-.12.158s-.467.512-1.2,1.37c-.181.2-.376.429-.587.685-.008.008-.015.023-.03.038-.143.166-.294.354-.452.542a5.466,5.466,0,0,1,.015-1.979,5.712,5.712,0,0,1,.873-2.16A1.025,1.025,0,0,1,86.048,174.922Z" transform="translate(-22.297 -64.866)" fill="#e84436"/><path d="M86.931,362.513c-.03.038-.06.068-.09.105a.934.934,0,0,1-.15-.218.831.831,0,0,0,.143.068C86.863,362.483,86.9,362.5,86.931,362.513Z" transform="translate(-23.022 -111.319)" fill="#c69191"/><path d="M76.425,175.06a.437.437,0,0,1,.143-.12,5.713,5.713,0,0,0-.873,2.16,5.465,5.465,0,0,0-.015,1.979c-5.945,7.165-21.659,27.74-22.577,46.065-.045.82-.053,1.633-.038,2.446a27.272,27.272,0,0,0,.655,5.494c.015.068,1.242.361,2.815.948.113.045.233.09.346.135.662.271,1.385.587,2.107.956a1.289,1.289,0,0,1,.173.09,11.467,11.467,0,0,1,1.753,1.136c-.181.73-.354,1.422-.489,1.957a.715.715,0,0,0-.1.248c-6.593-3.522-8.715-3.981-8.858-4.658-2.371-10.491,1.317-23.985,10.506-39.187A138.468,138.468,0,0,1,76.425,175.06Z" transform="translate(-14.135 -64.936)" fill="#e84436"/><path d="M81.89,346.59a.8.8,0,0,1,.023.188l-.1,11.71a1.031,1.031,0,0,1-1.031,1.023h-.015a1.022,1.022,0,0,1-.926-.625v-.008c.143-.023.263-.045.354-.053a1.031,1.031,0,0,0-.181-2.054,1.157,1.157,0,0,1-.256.03l.03-3.334c.1.015.2.023.309.03h.06a1.028,1.028,0,0,0,.068-2.055,3.646,3.646,0,0,1-.414-.045l.038-4.425C80.535,346.816,81.22,346.688,81.89,346.59Z" transform="translate(-21.308 -107.407)" fill="#c69191"/><path d="M80.237,353.025a1.028,1.028,0,0,1-.068,2.055h-.06c-.113-.008-.211-.015-.309-.03l.023-2.07A3.689,3.689,0,0,0,80.237,353.025Z" transform="translate(-21.317 -108.988)" fill="#c69191"/><path d="M81.127,361.06a1.029,1.029,0,0,1-.933,1.114c-.09.008-.211.03-.354.053a.919.919,0,0,1-.09-.406l.008-1.671a1.149,1.149,0,0,0,.256-.03A1.03,1.03,0,0,1,81.127,361.06Z" transform="translate(-21.305 -110.754)" fill="#c69191"/><path d="M80.919,345.45a1.046,1.046,0,0,1,1,.858c-.67.1-1.355.226-2.039.384v-.218a1.036,1.036,0,0,1,1.031-1.024Z" transform="translate(-21.337 -107.125)" fill="#497ea9"/><path d="M78.5,347.1l-.038,4.425c-1.851-.316-3.3-1.912-4.147-3.116A32.934,32.934,0,0,1,78.5,347.1Z" transform="translate(-19.962 -107.533)" fill="#1d71b8"/><path d="M77.544,351.659l-.023,2.07c-4.267-.5-6.736-5.471-6.833-5.682a.852.852,0,0,1-.1-.406,1.714,1.714,0,0,0,.685.956,1.648,1.648,0,0,0,1.58.166c.181-.068.361-.135.542-.218C74.248,349.747,75.692,351.343,77.544,351.659Z" transform="translate(-19.039 -107.667)" fill="#497ea9"/><path d="M73.4,348.187c-.181.083-.361.15-.542.218a1.648,1.648,0,0,1-1.58-.166,1.714,1.714,0,0,1-.685-.956,1,1,0,0,1,.564-.971,1.082,1.082,0,0,1,.452-.113,1.04,1.04,0,0,1,.926.587A11.6,11.6,0,0,0,73.4,348.187Z" transform="translate(-19.038 -107.31)" fill="#497ea9"/><path d="M73.048,297.941l-.015.82c-.595-.18-1.166-.354-1.716-.534-.166-.06-.339-.113-.5-.165v-.143a1.087,1.087,0,0,1,1.121-1.1,1.875,1.875,0,0,1,.218.015A1.136,1.136,0,0,1,73.048,297.941Z" transform="translate(-19.096 -95.092)" fill="#e84436"/><path d="M72.951,299.17l-.226,35.093-1.144.128a1.082,1.082,0,0,0-.452.113,1,1,0,0,0-.564.971A1.423,1.423,0,0,1,70.49,335l.248-36.53c.158.053.331.105.5.166C71.784,298.816,72.356,298.989,72.951,299.17Z" transform="translate(-19.014 -95.501)" fill="#497ea9"/><path d="M70.242,295.143l-.03.1a42.478,42.478,0,0,1-7.45-2.935.969.969,0,0,1-.331-.346C63.145,292.585,66.057,293.8,70.242,295.143Z" transform="translate(-17.02 -93.89)" fill="#ee7358"/><path d="M69.5,292.881l-.128.391a1.855,1.855,0,0,0-.218-.015,1.086,1.086,0,0,0-1.121,1.1v.143c-7.654-2.521-8.12-3.733-8.278-4.132-.346-.9-.2-3.612.263-7.368a1.082,1.082,0,0,0,.745.316,1.109,1.109,0,0,0,.429-.1,1.062,1.062,0,0,0,.595-.8l.354.053c-.331,2.416-.527,4.342-.564,5.622-.015.309-.008.579,0,.805a1.5,1.5,0,0,0,.008.263.757.757,0,0,0,.038.188.112.112,0,0,0,.008.053.8.8,0,0,0,.03.143.425.425,0,0,0,.06.053.969.969,0,0,0,.331.346A42.478,42.478,0,0,0,69.5,292.881Z" transform="translate(-16.311 -91.53)" fill="#e84436"/><path d="M65.332,260.679c.03-.158.068-.323.105-.489a1.027,1.027,0,0,1,.579,1.144c-2.664,12.53-1.671,6.149-2.657,13.561C64.241,267.55,62.833,272.464,65.332,260.679Z" transform="translate(-17.25 -86.029)" fill="#ee7358"/><path d="M64.29,254.781c.956-3.853,2.341-9.053.783.339a.208.208,0,0,1-.09.151C64.757,255.1,64.531,254.932,64.29,254.781Z" transform="translate(-17.48 -83.465)" fill="#ee7358"/><path d="M64.686,258.493a1.029,1.029,0,0,1,.8,1.219.127.127,0,0,0-.008.053.749.749,0,0,0-.218-.075,1.053,1.053,0,0,0-.715.105c-.354-.188-.7-.376-1.024-.557a2.275,2.275,0,0,0,.06-.263A1.04,1.04,0,0,1,64.686,258.493Z" transform="translate(-17.289 -85.604)" fill="#e84436"/><path d="M65.813,260.158c-.038.166-.075.331-.105.489l-.828-.459a1.053,1.053,0,0,1,.715-.105A.753.753,0,0,1,65.813,260.158Z" transform="translate(-17.626 -85.997)" fill="#e84436"/><path d="M64.972,256.9a.228.228,0,0,1-.278-.022c-.143-.128-.293-.256-.444-.369a.487.487,0,0,1,.03-.1C64.521,256.56,64.747,256.726,64.972,256.9Z" transform="translate(-17.47 -85.094)" fill="#ee7358"/><path d="M63.908,260.23l.828.459c-2.5,11.785-1.091,6.871-1.972,14.216q-.023.181-.045.384c-.075.5-.151,1.069-.233,1.693l-.354-.053a1.023,1.023,0,0,0-.09-.572,26.083,26.083,0,0,1-1.091-3.093c2.062-13.757,1.257-6.72,2.446-12.35A1.039,1.039,0,0,1,63.908,260.23Z" transform="translate(-16.653 -86.039)" fill="#e84436"/><path d="M63.492,94.021c0,2.182-1.279,3.7-2.423,3.748-.9.045-2.559-1.851-2.559-4.026s1.656-3.567,2.559-3.567C62.431,89.972,63.492,91.853,63.492,94.021Z" transform="translate(-16.05 -43.959)"/><path d="M63.7,256.069a.488.488,0,0,0-.03.1,11.474,11.474,0,0,0-1.753-1.136A17.722,17.722,0,0,1,63.7,256.069Z" transform="translate(-16.893 -84.753)" fill="#ee7358"/><path d="M63.568,259.14a2.282,2.282,0,0,1-.06.263.057.057,0,0,1-.038-.015A.715.715,0,0,1,63.568,259.14Z" transform="translate(-17.277 -85.77)" fill="#e84436"/><path d="M63.409,259.47a.057.057,0,0,0,.038.015c-.248,1.008-.316,1.264-.06.045C63.394,259.508,63.394,259.485,63.409,259.47Z" transform="translate(-17.216 -85.851)" fill="#e84436"/><path d="M60.071,70.657l-7.947,4.952q-1.264.045-2.483.068c2.672-4.756,8.978-5.787,9.294-5.84A1,1,0,0,1,60.071,70.657Z" transform="translate(-13.855 -38.929)" fill="#eacf83"/><path d="M61.848,280.643a1.023,1.023,0,0,1,.09.572,1.062,1.062,0,0,1-.595.8,1.108,1.108,0,0,1-.429.1,1.081,1.081,0,0,1-.745-.316c.158-1.3.361-2.732.587-4.245A26.069,26.069,0,0,0,61.848,280.643Z" transform="translate(-16.46 -90.325)" fill="#e84436"/><path d="M62.284,291.482a.759.759,0,0,1-.038-.188,1.5,1.5,0,0,1-.008-.263A3.512,3.512,0,0,0,62.284,291.482Z" transform="translate(-16.972 -93.66)" fill="#ee7358"/><path d="M61,254.6c-.722-.369-1.445-.685-2.107-.956A20.454,20.454,0,0,1,61,254.6Z" transform="translate(-16.144 -84.409)" fill="#e84436"/><path d="M54.475,250.288c.015.068,1.219.414,2.815,1.054-1.573-.587-2.8-.881-2.815-.948a27.274,27.274,0,0,1-.655-5.494A28.587,28.587,0,0,0,54.475,250.288Z" transform="translate(-14.889 -82.246)" fill="#ee7358"/><path d="M51.856,77.51a6.871,6.871,0,0,0-1.189,2.024c-.67.023-1.325.03-1.964.053H48.56a9.051,9.051,0,0,1,.813-2.009Q50.592,77.555,51.856,77.51Z" transform="translate(-13.588 -40.83)" fill="#7d4e24"/><path d="M48.622,80.253c.64-.023,1.294-.03,1.964-.053a6.6,6.6,0,0,0-.376,1.437,1,1,0,0,1-.986.843c-.053,0-.1-.008-.151-.008a1,1,0,0,1-.828-1.129,8.123,8.123,0,0,1,.233-1.084.865.865,0,0,1,.143-.008Z" transform="translate(-13.507 -41.495)" fill="#7d4e24"/><path d="M48.7,80.27a.817.817,0,0,0-.135.008V80.27Z" transform="translate(-13.588 -41.512)" fill="#7d4e24"/><path d="M22.1,116.513l.3-.143a1.877,1.877,0,0,1-.218.444A1.175,1.175,0,0,0,22.1,116.513Z" transform="translate(-7.041 -50.445)" fill="#c69191"/><path d="M20.632,112.646l-.3.143a1.051,1.051,0,0,0-1-.572,7.374,7.374,0,0,1-1.114-.053c-1.091-2.416-3.055-9.911-3.266-10.506l1.054.218.564-.557c.2.444.406.858.587,1.234h.008c.075.346.166.722.256,1.1v.023a8.976,8.976,0,0,0,.647,2.83.25.25,0,0,1,.023.045.058.058,0,0,1,.008.023A65.5,65.5,0,0,0,20.632,112.646Z" transform="translate(-5.272 -46.721)" fill="#c69191"/><path d="M21.775,117.043a1.034,1.034,0,0,1-.956,1.1c-.03,0-.12.008-.263.008-.053-.113-.113-.226-.166-.331a1.7,1.7,0,0,0,1.37-.858A.271.271,0,0,1,21.775,117.043Z" transform="translate(-6.618 -50.59)" fill="#c69191"/><path d="M21.4,116.355a1.175,1.175,0,0,1,.083.3,1.7,1.7,0,0,1-1.37.858c-.3-.625-.579-1.227-.828-1.784a7.37,7.37,0,0,0,1.114.053A1.051,1.051,0,0,1,21.4,116.355Z" transform="translate(-6.346 -50.286)" fill="#c69191"/><path d="M20.573,107.155c.211.595-.226,3.62.858,6.043a65.5,65.5,0,0,1-2.536-6.073.058.058,0,0,0-.008-.023c-.038-.173-.354-1.52-.67-2.875V104.2c-.023-.218-.03-.436-.038-.655.73,1.468,1.219,2.3,1.242,2.356Z" transform="translate(-6.071 -47.273)" fill="#f3c8bb"/><path d="M15.862,111.57c.053.105.113.218.166.331h-.1c-1.513,0-7.315-.444-12-6.961a8.184,8.184,0,0,1-1.648-6.766c.775-3.3,3.673-5.546,5.065-6.465.188.572.376,1.121.557,1.663-1.987,1.34-4.365,3.138-4.7,4.6a6.172,6.172,0,0,0,1.309,5.087C7.283,106.912,12.935,111.871,15.862,111.57Z" transform="translate(-2.09 -44.343)" fill="#c69191"/><path d="M16.184,112.117c-2.928.3-8.579-4.658-11.349-8.512a6.172,6.172,0,0,1-1.309-5.087c.331-1.46,2.709-3.259,4.7-4.6.038.12.083.248.12.369-1.242.888-3.213,2.626-3.733,4.9a6.166,6.166,0,0,0,1.309,5.087c3.454,4.809,7.511,5.855,9.437,6.058C15.6,110.891,15.883,111.493,16.184,112.117Z" transform="translate(-2.412 -44.89)" fill="#c69191"/><path d="M18.9,107.325a.25.25,0,0,0-.023-.045,8.976,8.976,0,0,1-.647-2.83C18.546,105.8,18.862,107.152,18.9,107.325Z" transform="translate(-6.083 -47.495)" fill="#f3c8bb"/><path d="M18.108,103.4c.008.218.015.436.038.655-.09-.376-.181-.753-.256-1.1C17.965,103.118,18.033,103.261,18.108,103.4Z" transform="translate(-5.999 -47.127)" fill="#f3c8bb"/><path d="M17.687,102.369c-.181-.376-.384-.79-.587-1.234l.151-.143c.008-.135.008-.271.015-.421C17.273,100.577,17.454,101.368,17.687,102.369Z" transform="translate(-5.804 -46.535)" fill="#c69191"/><path d="M14.065,98.942,13.5,99.5l-1.054-.218c.211.595,2.175,8.09,3.266,10.506-1.927-.2-5.983-1.249-9.437-6.058a6.166,6.166,0,0,1-1.309-5.087c.519-2.273,2.491-4.011,3.733-4.9.6-.429,1.039-.662,1.054-.677a.985.985,0,0,0,.527-.8v-.008c.361-.226.655-.414.843-.549C12.146,94.63,13.2,97.083,14.065,98.942Z" transform="translate(-2.768 -44.343)" fill="#f3c8bb"/><path d="M11.328,92.069h0c-.474.309-1.069.692-1.7,1.114-.181-.542-.369-1.091-.557-1.663.429-.278.707-.429.76-.459a1.046,1.046,0,0,1,1.219.181.007.007,0,0,1,.008.008C11.147,91.527,11.237,91.806,11.328,92.069Z" transform="translate(-3.817 -44.153)" fill="#936037"/><path d="M11.511,92.45a.985.985,0,0,1-.527.8c-.015.015-.452.248-1.054.677-.038-.12-.083-.248-.12-.369C10.442,93.135,11.037,92.751,11.511,92.45Z" transform="translate(-4 -44.526)" fill="#936037"/><g transform="translate(69.892 104.794)"><line y2="2.356" transform="translate(0 0.054)" fill="none" stroke="#c69191" stroke-miterlimit="10" stroke-width="1"/><path d="M94.96,170.794c.263-.1.5-.188.692-.248a1.088,1.088,0,0,0,.76-1.046" transform="translate(-94.96 -168.385)" fill="none" stroke="#c69191" stroke-miterlimit="10" stroke-width="1"/><path d="M96.412,169.133a1.069,1.069,0,0,0-.045-.346,1.108,1.108,0,0,0-1.4-.715H94.96" transform="translate(-94.96 -168.018)" fill="none" stroke="#c69191" stroke-miterlimit="10" stroke-width="1"/></g></g><ellipse cx="5.05" cy="5.321" rx="5.05" ry="5.321" transform="translate(37.758 81.943)" fill="#ee7358"/><ellipse cx="5.05" cy="5.321" rx="5.05" ry="5.321" transform="translate(98.415 81.552)" fill="#ee7358"/><path d="M72.82,301.76a180.487,180.487,0,0,0,18.619,4.154" transform="translate(-18.024 -74.661)" fill="#497ea9" stroke="#497ea9" stroke-linejoin="round" stroke-miterlimit="10" stroke-width="5.113"/><path d="M85.045,347.265a9.042,9.042,0,0,0-3.545.075l.113,12.222s2.581.692,3.176-.384C85.255,358.321,85.045,347.265,85.045,347.265Z" transform="translate(-20.172 -85.879)" fill="#f3c8bb" stroke="#c69191" stroke-miterlimit="10" stroke-width="1.563"/><path d="M103.57,307.372s14.3.858,18.3-.572" transform="translate(-25.632 -75.908)" fill="#497ea9" stroke="#497ea9" stroke-miterlimit="10" stroke-width="3.954"/><path d="M96.61,161.22s1.979.79,5.847-.09" transform="translate(-23.91 -39.865)" fill="#c69191" stroke="#c69191" stroke-miterlimit="10" stroke-width="2.636"/><path d="M99.67,17.09c-1,5.878-7.593,26.235-19.77,29.659a9.849,9.849,0,0,0-4.756,2.965c-2.958,3.356-9.038,8.926-17.151,9.505a10.073,10.073,0,0,0-5.7,2.363c-3.131,2.619-8.888,6.374-15.616,5.8a10.4,10.4,0,0,0-10.551,7.149c-.707,2.055-.166,5.148-3.048,5.434l-3.259.331A10.152,10.152,0,0,1,9.64,74.564c-3.575-7.518-7.782-27.409-.926-33.9,5.539-5.245,8.685-7.684,10.769-8.737a10.257,10.257,0,0,0,5.17-6.344c1.588-5.5,5.035-13.02,12.041-13.486A10.053,10.053,0,0,0,42.52,9.752c3.53-2.98,10.777-3.138,17.753-1.671a10.313,10.313,0,0,0,8.218-1.611c3.259-2.356,7.571-1.279,12.56.783a9.931,9.931,0,0,0,5.516.542c4.26-.753,11.447-.993,13.02,5.449A9.327,9.327,0,0,1,99.67,17.09Z" transform="translate(-1.255 -1.268)" fill="#f3db8c" stroke="#eacf83" stroke-linecap="round" stroke-linejoin="round" stroke-miterlimit="10" stroke-width="3"/><path d="M127.054,15.6s16.263,4.154,18.92,12.147,2.657,11.176,2.657,11.176,6.224-1.626,8.564,9.309,1.656,13.1,1.656,13.1,4.124,17.038-1.656,16.406-8.963-14.6-7.375-16.165c0,0-12.643-1.166-14.675-10.318s-2.032-9.144-2.032-9.144a10.839,10.839,0,0,1-10.882-3.74" transform="translate(-30.249 -3.857)" fill="#f3db8c" stroke="#eacf83" stroke-linecap="round" stroke-linejoin="round" stroke-miterlimit="10" stroke-width="3"/><g transform="translate(45.822 272.575)"><path d="M78.567,365.968c-.8-.444-2.213-1.949-3.567-2.115l2.265-.113h.008a8.1,8.1,0,0,1,1.611,1.1,1.273,1.273,0,0,1,.361.527,1.374,1.374,0,0,1,.045.188c.038.248,0,.5-.309.549A.662.662,0,0,1,78.567,365.968Z" transform="translate(-64.386 -362.571)" fill="#fff"/><path d="M86.37,369.39a17.377,17.377,0,0,1-7.112,1.648v-.008a10.391,10.391,0,0,0-1.008-4.448c1.249.489,1.114-.866,1.114-.866l.008-.007a.662.662,0,0,0,.414.135c.309-.045.346-.3.309-.549a1.38,1.38,0,0,0-.045-.188c.474.173,1.031-.181.813-.655a3.171,3.171,0,0,0-1.784-1.332l-.045-.09.692-.331c1.814,1.309,4.847,0,4.847,0a17.569,17.569,0,0,1,1.806,6.69Z" transform="translate(-65.19 -362.314)" fill="#ee7358"/><path d="M78.56,366.012s.135,1.355-1.114.865a2.371,2.371,0,0,0-.369-.534A18.719,18.719,0,0,0,75,363.89c1.355.166,2.769,1.671,3.567,2.115Z" transform="translate(-64.386 -362.608)" fill="#ee7358"/><path d="M79.992,365.217a1.273,1.273,0,0,0-.361-.527,8.1,8.1,0,0,0-1.611-1.1l.956-.452.045.09a3.171,3.171,0,0,1,1.784,1.332C81.023,365.036,80.466,365.39,79.992,365.217Z" transform="translate(-65.133 -362.422)" fill="#fff"/><path d="M76.619,363.364l-2.265.113a4.306,4.306,0,0,0-1.964-1.257A10.045,10.045,0,0,1,76.619,363.364Z" transform="translate(-63.74 -362.195)" fill="#fff"/><path d="M82.43,374.209c-9.332,2.679-20.937.369-21.3,0s-.2-2.619-.2-2.619a51.913,51.913,0,0,0,14.028,1.648,17.376,17.376,0,0,0,7.112-1.648C82.234,372.757,82.43,374.209,82.43,374.209Z" transform="translate(-60.896 -364.513)" fill="#ee7358"/><path d="M67.716,362.242a11.988,11.988,0,0,1,1.626-.045.69.69,0,0,1,.12.008.394.394,0,0,1,.1.008,4.3,4.3,0,0,1,1.964,1.257,18.718,18.718,0,0,1,2.077,2.453,2.367,2.367,0,0,1,.369.534,10.391,10.391,0,0,1,1.008,4.448v.008a51.909,51.909,0,0,1-14.028-1.648S62.47,362.754,67.716,362.242Z" transform="translate(-60.909 -362.187)" fill="#ee7358"/><path d="M77.273,363.74a8.1,8.1,0,0,1,1.611,1.1,1.274,1.274,0,0,1,.361.527,1.375,1.375,0,0,1,.045.188c.038.248,0,.5-.309.549a.662.662,0,0,1-.414-.136c-.8-.444-2.213-1.949-3.567-2.115" transform="translate(-64.386 -362.571)" fill="none" stroke="#e84436" stroke-linecap="round" stroke-linejoin="round" stroke-miterlimit="10" stroke-width="1.5"/><path d="M72.26,362.21a.4.4,0,0,1,.1.008,10.042,10.042,0,0,1,4.229,1.144" transform="translate(-63.708 -362.192)" fill="none" stroke="#e84436" stroke-linecap="round" stroke-linejoin="round" stroke-miterlimit="10" stroke-width="1.5"/><path d="M73.8,363.356l.956-.452.692-.331c1.814,1.309,4.847,0,4.847,0a17.569,17.569,0,0,1,1.806,6.69H82.09a17.374,17.374,0,0,1-7.112,1.648,51.9,51.9,0,0,1-14.028-1.648s1.52-6.51,6.766-7.022a11.988,11.988,0,0,1,1.626-.045" transform="translate(-60.909 -362.187)" fill="none" stroke="#e84436" stroke-linecap="round" stroke-linejoin="round" stroke-miterlimit="10" stroke-width="1.5"/><path d="M75,363.853l2.265-.113h.008" transform="translate(-64.386 -362.571)" fill="none" stroke="#e84436" stroke-linecap="round" stroke-linejoin="round" stroke-miterlimit="10" stroke-width="1.5"/><path d="M72.1,362.2a.677.677,0,0,1,.12.008.5.5,0,0,1,.1.007,4.3,4.3,0,0,1,1.964,1.257,18.714,18.714,0,0,1,2.077,2.453,2.367,2.367,0,0,1,.369.534,10.39,10.39,0,0,1,1.008,4.448" transform="translate(-63.668 -362.19)" fill="none" stroke="#e84436" stroke-linecap="round" stroke-linejoin="round" stroke-miterlimit="10" stroke-width="1.5"/><path d="M60.937,371.122s-.173,2.258.2,2.619,11.966,2.679,21.3,0c0,0-.2-1.452-.354-2.619-.1-.775-.188-1.422-.188-1.422" transform="translate(-60.896 -364.046)" fill="none" stroke="#e84436" stroke-linecap="round" stroke-linejoin="round" stroke-miterlimit="10" stroke-width="1.5"/><path d="M79.364,366.71s.135,1.355-1.114.866" transform="translate(-65.19 -363.306)" fill="none" stroke="#e84436" stroke-linecap="round" stroke-linejoin="round" stroke-miterlimit="10" stroke-width="1.5"/><path d="M79.35,363.26a3.171,3.171,0,0,1,1.784,1.332c.218.474-.339.828-.813.655" transform="translate(-65.462 -362.452)" fill="none" stroke="#e84436" stroke-linecap="round" stroke-linejoin="round" stroke-miterlimit="10" stroke-width="1.5"/></g><g transform="translate(85.14 154.694)"><path d="M118.017,210.389l-.233,2.446-4.643.361c.023-1.279.045-2.559.075-3.823s.06-2.544.105-3.823h2.867c-.083.805-.166,1.611-.241,2.408s-.135,1.611-.166,2.431c.173.008.346.008.512.008h.512c.2,0,.406,0,.61-.008Z" transform="translate(-113.14 -205.55)" fill="#fff"/></g><g transform="translate(101.421 25.352)"><path d="M134.884,34.968a12.53,12.53,0,0,0,4.32,5.471,12.872,12.872,0,0,0,3.153,1.693,5.357,5.357,0,0,0,1.829.5c.4.12.354.023-.128-.294-.293-.444-.421-.489-.391-.135a2.773,2.773,0,0,0-.045,1c-.053,5.14,3.642,10.13,9.031,10.378,1.964.09,1.166-2.333-.369-2.4a5.787,5.787,0,0,1-4.779-2.92,8.127,8.127,0,0,1-.986-3,9.125,9.125,0,0,1-.083-1.693,4.112,4.112,0,0,0-.06-1.633c-.436-1.234-1.565-1.468-2.687-1.746a8.978,8.978,0,0,1-2.642-1.151,9.092,9.092,0,0,1-3.545-4.365c-.519-1.309-3.311-1.445-2.619.286Z" transform="translate(-134.774 -33.684)" fill="#eacf83"/></g><g transform="translate(63.639 21.371)"><path d="M84.984,49.674a11.675,11.675,0,0,0,7.27-.414,12.673,12.673,0,0,0,3.417-1.934,12.2,12.2,0,0,0,1.37-1.279,8.335,8.335,0,0,1,1.294-1.468,4.439,4.439,0,0,1,1.611-.346,15.369,15.369,0,0,0,1.927-.489,15.711,15.711,0,0,0,3.7-1.7,14.524,14.524,0,0,0,5.4-5.622c1.219-2.416,1.626-5.471-.1-7.752-.685-.9-3.259.632-2.642,1.445,1.693,2.235,1.159,5.23-.286,7.458a11.039,11.039,0,0,1-6.615,4.583c-1.55.369-3.04.414-4.365,1.407-1.091.82-1.769,2.047-2.837,2.89a8.135,8.135,0,0,1-7.255,1.257c-.948-.248-3.244,1.588-1.9,1.964Z" transform="translate(-84.571 -28.394)" fill="#eacf83"/></g><g transform="translate(12.58 41.371)"><path d="M46.057,56.528c.053,2.22.135,5.336-1.573,7.037-.858.858-2.265.835-3.394.745-1.505-.12-2.973-.467-4.463-.677a4.543,4.543,0,0,0-4.109,1.332,16.657,16.657,0,0,0-2.28,4.019c-.572,1.129-1.061,2.762-2.446,3.048a9.078,9.078,0,0,1-4.071-.188c-2.717-.73-5.667-3.943-3.846-6.848.324-.519.068-.9-.527-.881A2.566,2.566,0,0,0,17.519,65.2,5.574,5.574,0,0,0,19.634,72.9a9.993,9.993,0,0,0,9.791.03A9.662,9.662,0,0,0,32.6,68.75c.459-.9.9-1.791,1.37-2.679.09-.173.2-.339.286-.519.023-.038.045-.075.075-.12q.373-.44-.294.09c0-.015,1.249.151,1.34.166,3.537.579,7.149,1.294,10.22-1.084,2.86-2.205,3.229-5.878,3.146-9.234-.023-1.039-2.709.166-2.687,1.159Z" transform="translate(-16.725 -54.97)" fill="#eacf83"/></g><g transform="translate(32.569 17.155)"><path d="M71.473,23.807a26.139,26.139,0,0,0-10.574-.79c-1.55.211-2.769.429-3.266,2.055-.542,1.784-.963,3.62-1.437,5.419l2.07.226a6.6,6.6,0,0,0-10.3,1.317,14.385,14.385,0,0,0-1.874,6.5c-.113,1.272-.158,2.551-.271,3.823a6.505,6.505,0,0,1-.3,1.829,1.943,1.943,0,0,1-.512.76c-.2.151-.715.135-.309.309-.414-.173-1.272-.444-1.407.218-.12.6.8,1.287,1.249,1.475a2.611,2.611,0,0,0,2.762-.143,3.686,3.686,0,0,0,1.114-2.642,59.63,59.63,0,0,1,.768-7.323,8.434,8.434,0,0,1,3.078-5.08c1.227-.843,3.326-1.43,4.508-.241.4.4,1.829,1.144,2.07.226.391-1.49.79-2.973,1.182-4.463.166-.632.256-1.46.881-1.814a6,6,0,0,1,2.07-.414A22.981,22.981,0,0,1,72,25.763c.5.143,1.144.075,1.039-.587-.105-.647-1-1.212-1.565-1.37Z" transform="translate(-43.286 -22.792)" fill="#eacf83"/></g><g transform="translate(74.604 11.624)"><path d="M102.09,18.962a20.136,20.136,0,0,1,4.651-2.551c1.6-.527,2.845.053,4.124,1.054a5.371,5.371,0,0,0,4.282,1.257,6.225,6.225,0,0,0,2.19-.67c.361-.181.993-.271-.09-.233-1.136.045-.519-.068-.339.211.2.316.309.452.143.828-.105.241,1.407.256,1.52.248.354-.015,1.309.008,1.49-.4.85-1.934-3.567-1.543-4.335-1.294-.226.075-1.468.474-1.5.685.045-.294,1.753.429.625-.173a4.611,4.611,0,0,1-.549-.361,10.621,10.621,0,0,0-2.566-1.618,11.645,11.645,0,0,0-6.54-.068,19.828,19.828,0,0,0-6.006,3.04c-.331.226,1.016.346,1.069.346a3.3,3.3,0,0,0,1.829-.3Z" transform="translate(-99.14 -15.442)" fill="#eacf83"/></g><g transform="translate(97.032 3.653)"><path d="M131.153,12.767c.083.286-.03-.226-.038-.278.03.211-.007-.256-.007-.3a3.13,3.13,0,0,1,.12-.85,6.578,6.578,0,0,1,.715-1.716,6.573,6.573,0,0,1,1.039-1.46,2.739,2.739,0,0,1,1.776-.527,4.6,4.6,0,0,1,1.972.166c-.068-.03-.038-.015.1.045.068.038.135.068.2.113-.188-.113.03.038.09.09-.339-.294.263.369-.053-.06.083.151.075.135-.023-.06.053.151.053.143,0-.038.023.151.023.143.008-.008-.008.135-.008.151.008.038a.971.971,0,0,1-.06.2c.053-.113.053-.113-.008-.015-.06.06-.1.135-.166.2.151-.135-.128.06-.166.083a1.507,1.507,0,0,1-.158.075c.1-.03.1-.03-.008,0a2.463,2.463,0,0,1-.339.03c.128.015.135.008.023-.008-.12-.038-.105-.03.053.03-.12-.068-.1-.053.075.06.158.173.188.2.1.075-.3-.421-1.1-.881-1.505-.346-.429.579.03,1.445.376,1.927a2.215,2.215,0,0,0,3.454.316,2.5,2.5,0,0,0,.444-2.122,4.614,4.614,0,0,0-1.452-2.483,5.638,5.638,0,0,0-4.538-1.008,3.241,3.241,0,0,0-2.077.971,7.532,7.532,0,0,0-1.174,1.7,7.955,7.955,0,0,0-.888,2.341,6.57,6.57,0,0,0,.173,3.033c.158.564.828,1.362,1.483,1.279.738-.09.587-1.008.452-1.483Z" transform="translate(-128.943 -4.85)" fill="#eacf83"/></g><g transform="translate(94.653 2.707)"><path d="M127.4,5.66c.151.045.12.03-.09-.038.15.068.113.045-.12-.06-.2-.158-.233-.181-.105-.075.113.105.09.075-.06-.075-.023.03.384.384.1.1a1.3,1.3,0,0,1,.151.241c.06.113.12.226.173.346.03.06.053.12.075.173-.053-.12-.053-.12-.008,0,.1.286.2.572.294.865a15.572,15.572,0,0,1,.67,3.665,1.886,1.886,0,0,0,1.264,1.475c.324.128,1.468.4,1.43-.309a17.114,17.114,0,0,0-.911-4.764,5.111,5.111,0,0,0-3.387-3.567c-.474-.128-1.249.015-1.061.677A2.246,2.246,0,0,0,127.4,5.66Z" transform="translate(-125.782 -3.594)" fill="#eacf83"/></g><g transform="translate(97.263 9.632)"><path d="M129.25,14.266v1.106a.3.3,0,0,0,.12.278.39.39,0,0,0,.286.166,1.1,1.1,0,0,0,.444.008,1.58,1.58,0,0,0,.519-.12c.12-.053.241-.105.369-.166a2.776,2.776,0,0,0,.625-.444c.075-.083.143-.166.218-.248a.869.869,0,0,0,.188-.474V13.265a.3.3,0,0,0-.12-.278.39.39,0,0,0-.286-.166,1.1,1.1,0,0,0-.444-.008,1.581,1.581,0,0,0-.519.12c-.12.053-.241.105-.369.166a2.775,2.775,0,0,0-.625.444c-.075.083-.143.166-.218.248a.869.869,0,0,0-.188.474Z" transform="translate(-129.249 -12.795)" fill="#eacf83"/></g><g transform="translate(2.048 29.704)"><path d="M17.879,39.559A27.816,27.816,0,0,1,9.1,45.016a8.127,8.127,0,0,1-2.19.5,4.082,4.082,0,0,0-.9-.023c-.181.075.339.1.271.143-.038.03-.278-.263-.3-.286a1.911,1.911,0,0,1-.211-2.205c.226-.361.489-.4.783-.647.5-.15.135-.339-1.076-.572.038.06.068.113.105.173a2.076,2.076,0,0,1,.053.617c-.151.768,2.672,1.671,2.762,1.2.248-1.287-1.076-2.1-2.1-2.521-1.054-.437-2.3-.64-3.123.324a2.425,2.425,0,0,0,.316,3.116A6.834,6.834,0,0,0,6.9,46.769c2.371.617,4.666-.211,6.781-1.257a30.718,30.718,0,0,0,6.766-4.568c.482-.436-2.039-1.851-2.566-1.385Z" transform="translate(-2.73 -39.466)" fill="#eacf83"/></g><g transform="translate(118.444 51.502)"><path d="M157.715,74.925a13.174,13.174,0,0,0,1.558,9.5,21.883,21.883,0,0,0,2.837,3.9c.918,1.023,2.062,2.581,3.447,2.965,3.319.933,5.99-3.168,6.9-5.787a3.782,3.782,0,0,0-.76-4.192,10.419,10.419,0,0,1-2.521-3.944,18.119,18.119,0,0,1-.73-5.652,10.135,10.135,0,0,0,.105-1.136c0-.023-.339.075-.151.113a1.583,1.583,0,0,1,.406.068,1.177,1.177,0,0,1,.542,1.55c-.339.467-.421,1.144.248,1.325a2.069,2.069,0,0,0,1.881-.888,2.805,2.805,0,0,0,.015-3.582,3.092,3.092,0,0,0-3.725-.211,3.994,3.994,0,0,0-1.994,3.861,20.4,20.4,0,0,0,.549,5.148,10.946,10.946,0,0,0,2.25,4.365c.5.587,1.242,1.1,1.467,1.866a3.324,3.324,0,0,1-.406,2.325c-.512,1.076-1.46,3.379-2.9,2.265a19.83,19.83,0,0,1-3.372-3.635c-2.393-3.108-3.959-6.984-2.988-10.927.173-.7-.655-.828-1.144-.715a2.1,2.1,0,0,0-1.52,1.422Z" transform="translate(-157.394 -68.431)" fill="#eacf83"/></g><g transform="translate(114.537 20.006)"><path d="M152.72,27.528c.7,1,1.4,1.994,2.107,3a22.432,22.432,0,0,1,2.032,3.078c.8,1.678.632,3.635,1.588,5.26a11.708,11.708,0,0,0,1.874,2.453,3.944,3.944,0,0,0,1.016.7c.218.105.452.188.677.3,1,.5-.218-.376-.083-.429.023-.008,1.663,6.51,1.8,7.082a4.887,4.887,0,0,0,1.023,1.543c.158.2.369.572.595.677.038.015.226.226.181.053-.339-1.4-.677-2.807-1.016-4.207a16.273,16.273,0,0,0-.956-3.266,11.761,11.761,0,0,0-1.957-2.822,4.263,4.263,0,0,0-1.136-.941c-.218-.12-.452-.2-.67-.3-.467-.211-.948-.768-.278.2.738,1.069.278.346.166-.015-.075-.248-.135-.5-.188-.753-.105-.482-.173-.963-.271-1.437a9.533,9.533,0,0,0-1.189-3.01c-1.362-2.318-3.055-4.478-4.6-6.683-.181-.256-.858-1.422-1.2-1.422-.188-.008.429.865.482.948Z" transform="translate(-152.203 -26.58)" fill="#eacf83"/></g><g transform="translate(99.674 13.079)"><path d="M153.839,36.743c-.211-2.325-1.844-4.214-2.205-6.525a8.6,8.6,0,0,0-1.167-3.665,12.046,12.046,0,0,0-2.288-2.423c-3.755-3.2-8.451-4.975-13-6.69a2.672,2.672,0,0,0-1.836.391c-.12.06-1.234.722-.775.888,4.463,1.686,9.046,3.417,12.764,6.487a11.564,11.564,0,0,1,2.423,2.574,8.549,8.549,0,0,1,1.084,3.537c.354,2.31,1.994,4.192,2.205,6.525.038.414,2.875-.278,2.8-1.1Z" transform="translate(-132.453 -17.376)" fill="#eacf83"/></g><g transform="translate(3.725 36.031)"><path d="M11.3,48.307A30.26,30.26,0,0,0,4.959,66.475c-.068,7.037,2.032,13.9,4.613,20.38.474,1.189,3.462.993,2.928-.354-2.468-6.209-4.538-12.749-4.538-19.492a28.747,28.747,0,0,1,5.863-17.535c1.008-1.309-1.769-2.16-2.529-1.166Z" transform="translate(-4.958 -47.874)" fill="#eacf83"/></g><g transform="translate(12.183 10.312)"><path d="M18.547,39.22a41.51,41.51,0,0,0,6.781-6.164,18.023,18.023,0,0,0,2.265-3.492c.753-1.535,1.212-3.183,1.934-4.726a15.52,15.52,0,0,1,13.1-8.677c1.5-.068-.113-2.514-1.212-2.461a16.773,16.773,0,0,0-13.757,8.429,36.53,36.53,0,0,0-1.9,4.47,16.642,16.642,0,0,1-2.371,4.1,40.212,40.212,0,0,1-6.976,6.4c-.9.692,1.159,2.882,2.13,2.122Z" transform="translate(-16.197 -13.699)" fill="#eacf83"/></g><g transform="translate(17.284 5.665)"><path d="M24.943,32.115c4.862-3.4,5.456-9.543,8.79-14.043a6.077,6.077,0,0,1,2.754-2.22A22.21,22.21,0,0,1,42.124,15a19.131,19.131,0,0,0,5.6-1.332c1.761-.738,3.4-1.731,5.118-2.559,4.275-2.055,9.008-1.769,13.622-1.46a2.66,2.66,0,0,0,1.866-.9c.256-.271.692-.971.008-1.016-4.245-.278-8.609-.512-12.719.813-3.883,1.249-7.067,3.959-11.191,4.47a51.749,51.749,0,0,0-6.006.753,12,12,0,0,0-4.847,2.408c-2.31,1.934-3.65,4.613-4.847,7.323-1.264,2.86-2.431,6.133-5.095,8-.3.211-.971.881-.489,1.212s1.452-.361,1.8-.6Z" transform="translate(-22.975 -7.523)" fill="#eacf83"/></g><g transform="translate(36.832 5.579)"><path d="M50.387,14.695a37.077,37.077,0,0,0,6.751-2.438c1.806-.865,3.552-2.122,5.584-2.386a1.834,1.834,0,0,0,1.43-1.031A.856.856,0,0,0,63.5,7.733c-4.109-1.189-7.932,1.106-11.153,3.394-.474.339-1.046.993-.549,1.565a1.658,1.658,0,0,0,1.987.053c2.363-1.678,5.155-3.785,8.218-2.9.256-.715.519-1.422.775-2.137-2.3.294-4.244,1.505-6.269,2.529a29.651,29.651,0,0,1-6.066,2.288c-.625.166-1.475.549-1.49,1.317-.008.7.865.993,1.437.85Z" transform="translate(-48.95 -7.409)" fill="#eacf83"/></g><g transform="translate(59.341 0)"><path d="M89.945,4.492c-2.476.173-5.321.339-7.315-1.43A3.266,3.266,0,0,1,81.7,1.82a1.7,1.7,0,0,1-.12-.753.911.911,0,0,1,.1-.316A.844.844,0,0,1,81.8.586c-1.784.745-2.3,1.016-1.565.828a1.565,1.565,0,0,1,1.483.3.894.894,0,0,1,.068,1.234c-.151.143.233.068.2.068a3.7,3.7,0,0,0,.85-.309,5.444,5.444,0,0,0,1.611-.926A.942.942,0,0,0,84.6.654,1.348,1.348,0,0,0,83.413,0a5.012,5.012,0,0,0-1.927.421,12.434,12.434,0,0,0-1.6.768,2.318,2.318,0,0,0-.873.715c-.5.9.3,1.927.948,2.491a6.475,6.475,0,0,0,2.92,1.355,16.576,16.576,0,0,0,4.485.09A4.752,4.752,0,0,0,89.1,5.162a3.857,3.857,0,0,0,.775-.467c.03-.03.256-.218.068-.2Z" transform="translate(-78.86 0.004)" fill="#eacf83"/></g><g transform="translate(6.345 64.001)"><path d="M33.124,86.884a13.565,13.565,0,0,0-8.226,8.9c-.331,1.091-.549,2.521-1.633,3.138a7.62,7.62,0,0,1-3.507.579c-1.3.03-2.928.09-4.011-.768-1.106-.881-1.716-2.491-2.325-3.733a53.1,53.1,0,0,1-2.115-4.9c-.549-1.475-2.89-.557-2.867.8.053,3.289,2.062,6.051,4.1,8.459,2,2.363,4.673,4.922,8.007,3.379,1.144-.534,2.182-1.693,3.424-1.957.783-.158,1.626.053,2.423-.083a4.784,4.784,0,0,0,1.972-.805c2.175-1.565,2.423-4.418,3.477-6.675a10.269,10.269,0,0,1,6.984-5.644,1.439,1.439,0,0,0,1.287-1.49A1.411,1.411,0,0,0,38.43,85.07a13.7,13.7,0,0,0-7.082,3.974,12.628,12.628,0,0,0-2.205,3.2c-.534,1.1-.828,2.288-1.257,3.424a4.431,4.431,0,0,1-1.483,2.4,3.952,3.952,0,0,1-1.784.151,5.9,5.9,0,0,0-2.3.452c-1.144.5-2.107,1.6-3.3,1.942-1.144.331-2.205-.813-2.912-1.55-2.228-2.363-4.643-5.215-4.7-8.624-.956.263-1.912.534-2.867.8a50.818,50.818,0,0,0,2.273,5.215,11.839,11.839,0,0,0,2.792,4.139,7.616,7.616,0,0,0,4.553,1.452,18.4,18.4,0,0,0,4.636-.294,5.845,5.845,0,0,0,3.853-2.468c.828-1.3.993-2.882,1.6-4.282a10.8,10.8,0,0,1,6.051-5.825c1.829-.707.512-2.943-1.166-2.288Z" transform="translate(-8.44 -85.04)" fill="#eacf83"/></g><g transform="translate(90.593 28.262)"><path d="M123.083,43.473c.278-.715.572-1.43.865-2.137.151-.346.294-.692.452-1.039a3.1,3.1,0,0,1,.489-.888c-.045.045-.083.09-.128.135a.977.977,0,0,1,.331-.218c-.068.023-.135.045-.211.075a2.015,2.015,0,0,1,.2-.053c.173-.038-.286.015-.008.008-.233-.038-.286-.045-.158-.015-.263-.083-.331-.105-.2-.053-.278-.128-.354-.158-.218-.09q-.384-.237-.226-.135c.233.166-.263-.233-.09-.068q-.237-.248-.113-.113l.068.09c-.09-.143-.105-.166-.053-.068.023.038.038.083.06.12.038.083.06.166.09.248-.023-.068-.045-.143-.06-.211a3.729,3.729,0,0,1,.045,1.415c-.03.226.3.549.437.67a3.051,3.051,0,0,0,1,.587,1.7,1.7,0,0,0,.941.135c.226-.06.339-.143.369-.391a3.428,3.428,0,0,0-.211-1.9,3.77,3.77,0,0,0-2.235-1.821,2.067,2.067,0,0,0-2.348.339,3.182,3.182,0,0,0-.429.805c-.143.324-.278.64-.414.963-.316.745-.625,1.49-.918,2.243-.211.542.647,1.091,1.039,1.279a2.411,2.411,0,0,0,1.039.309c.173.008.5.008.587-.218Z" transform="translate(-120.386 -37.55)" fill="#eacf83"/></g><g transform="translate(35.149 59.201)"><path d="M47.019,85.772a15.026,15.026,0,0,0,9.851-2.988c1.1-.805,2.875-2.325,1.392-3.635a2.48,2.48,0,0,0-2.288-.376,6.979,6.979,0,0,0-3.018,1.641c-.105.09-.316.354-.233.519s.414.151.557.135a3.635,3.635,0,0,0,1.912-.933c.008-.008.181-.045.06-.038-.03,0-.376.211-.4.173a2,2,0,0,1,.437.068,1.324,1.324,0,0,1,.828,1c.06.452-.263.738-.564.978-.2.158-.4.316-.61.459-.075.053-.083.06-.015.007l-.128.083c-.128.083-.263.158-.391.241-.226.135.023-.008-.12.068-.113.06-.226.113-.339.173a2.275,2.275,0,0,0-.233.113c.143-.068-.211.083-.241.1-.2.083-.549.2-.595.211-.241.075-.489.135-.738.2a10.241,10.241,0,0,1-3,.2,3.093,3.093,0,0,0-1.934.738c-.256.188-.858.828-.188.873Z" transform="translate(-46.714 -78.66)" fill="#eacf83"/></g><g transform="translate(116.373 53.749)"><path d="M157.2,75.385a4.441,4.441,0,0,0,1.987.2,5.122,5.122,0,0,0,1.866-.369,1.727,1.727,0,0,0,1.061-1.437,2.11,2.11,0,0,0-.783-1.641,3.812,3.812,0,0,0-2.461-.722,9.105,9.105,0,0,0-4.049.722c-.12.053-.248.1-.135.211s.595.113.7.113a7.464,7.464,0,0,0,1.159-.045,2.961,2.961,0,0,0,.888-.181c.143-.068.286-.128.429-.188.075-.03.15-.053.218-.075.2-.075-.128.023.06-.023a1.1,1.1,0,0,0,.226-.053c-.173.038-.2.038-.075.023-.068.008-.135.023-.2.03.158-.015.1-.015-.173.015-.083,0-.166.008-.248.008q-.35-.011-.135,0c-.166-.015-.211-.015-.12-.008a.583.583,0,0,1,.113.015c-.105-.015-.12-.023-.053-.008s.143.03.218.053a2.191,2.191,0,0,1,.331.143,2.4,2.4,0,0,1,.632.5c-.023-.023-.038-.045-.06-.068a1.77,1.77,0,0,1,.271,2.122.457.457,0,0,1,.053-.075,1.922,1.922,0,0,1-.512.474c-.105.075.068-.015-.06.03-.06.023-.241.068.015,0a7.935,7.935,0,0,1,1.738-.1c.083.015.083.015.008-.008.068.023.06.023-.008-.008a2.036,2.036,0,0,0-.7-.113,7.43,7.43,0,0,0-1.159.045,3.581,3.581,0,0,0-.888.181c-.068.045-.324.158-.15.233Z" transform="translate(-154.642 -71.417)" fill="#eacf83"/></g><g transform="translate(86.336 5.737)"><path d="M126.952,13.279c-2.958-3.1-6.991-6.329-11.582-5.539-1.55.263.06,2.687,1.189,2.491,3.793-.647,6.713,1.851,9.1,4.35.369.384,1.234.9,1.716.414.489-.5-.068-1.34-.421-1.716Z" transform="translate(-114.729 -7.619)" fill="#eacf83"/></g><g transform="translate(68.891 3.984)"><path d="M93.507,7.819c4.3-.753,8.474.76,12.606,1.723,4.3,1,8.64.8,13.035.753.369-.008-.331-.933-.406-1.031-.218-.294-.888-1.3-1.332-1.3-4.515.053-8.941.233-13.366-.828C99.949,6.156,95.84,4.756,91.58,5.5c-.2.038.677,1.257.745,1.34.218.263.768,1.054,1.182.978Z" transform="translate(-91.55 -5.291)" fill="#eacf83"/></g><g transform="translate(0 61.57)"><path d="M3.8,82.924q.034,1.637.023,3.274c-.008.549-.015,1.091-.03,1.641-.015.429-.008,1.084-.053,1.392a1.489,1.489,0,0,1-.075.316c.008-.015.023-.03.03-.045q-.113.147-.023.045a.521.521,0,0,1,.166-.12.743.743,0,0,1,.278-.083c.135-.023.135-.023.008-.008.068,0,.135-.008.2-.008-.3.008.233.075-.038-.008-.075-.023-.339-.143-.075-.015-.2-.1-.4-.181-.587-.293.143.083-.015-.015-.068-.053a2.343,2.343,0,0,1-.248-.218c-.053-.053-.053-.053-.008,0l-.068-.09c-.06-.09-.113-.181-.166-.278-.1-.151-.038.03-.06-.151a2.143,2.143,0,0,1-.03-.316.452.452,0,0,1,.09-.278c.384-.564-.1-1.091-.677-1.219a2.039,2.039,0,0,0-2.009.564,2.385,2.385,0,0,0,.828,3.311,4.278,4.278,0,0,0,4.4.542A2.131,2.131,0,0,0,6.73,88.937c.053-.685.06-1.377.075-2.07.03-1.422.03-2.845-.008-4.275-.008-.271-.3-.5-.512-.61a2.073,2.073,0,0,0-1.091-.158c-.579.083-1.407.391-1.392,1.1Z" transform="translate(-0.008 -81.809)" fill="#eacf83"/></g><path d="M118.052,348.254c-.534-.391-2.3,0-2.912.1a.387.387,0,0,0-.324.376l-.376,11.966a.4.4,0,0,0,.3.4c.865.2,3.236.647,3.718-.226.421-.768-.008-10.438-.083-12.244C118.376,348.442,118.2,348.367,118.052,348.254Z" transform="translate(-28.322 -86.122)" fill="#f3c8bb" stroke="#c69191" stroke-miterlimit="10" stroke-width="1.563"/><g transform="translate(83.431 272.921)"><path d="M121.8,366.916a2.507,2.507,0,0,1,.376-.534,19.023,19.023,0,0,1,2.07-2.453,4.3,4.3,0,0,1,1.964-1.257.4.4,0,0,1,.1-.008.685.685,0,0,1,.12-.008,10.9,10.9,0,0,1,1.626.053c5.245.5,6.766,7.014,6.766,7.014a51.853,51.853,0,0,1-14.028,1.648v-.007A10.391,10.391,0,0,1,121.8,366.916Z" transform="translate(-113.324 -362.647)" fill="#ee7358"/><path d="M122.138,366.8a2.51,2.51,0,0,0-.376.534c-1.249.489-1.114-.865-1.114-.865l-.008-.008c.8-.444,2.213-1.949,3.567-2.115A19.023,19.023,0,0,0,122.138,366.8Z" transform="translate(-113.287 -363.068)" fill="#ee7358"/><path d="M118.336,373.7a51.853,51.853,0,0,0,14.028-1.648s.173,2.258-.2,2.626-11.966,2.672-21.3,0c0,0,.2-1.46.354-2.626A17.4,17.4,0,0,0,118.336,373.7Z" transform="translate(-110.87 -364.973)" fill="#ee7358"/><path d="M119.458,366.991a10.391,10.391,0,0,0-1.008,4.448v.008a17.4,17.4,0,0,1-7.112-1.648h-.008a18.086,18.086,0,0,1,1.927-6.8s3.906.843,4.824-.045l.662.4-.113.188a3.132,3.132,0,0,0-1.784,1.332c-.218.467.339.82.813.655a.854.854,0,0,0-.045.188c-.038.241,0,.5.309.542a.663.663,0,0,0,.414-.136l.008.008S118.209,367.48,119.458,366.991Z" transform="translate(-110.984 -362.722)" fill="#ee7358"/><g transform="translate(0 0)"><path d="M126.028,362.67a.4.4,0,0,0-.1.007,10.16,10.16,0,0,0-4.237,1.144,8.112,8.112,0,0,0-1.611,1.1,1.231,1.231,0,0,0-.361.534.856.856,0,0,0-.045.188c-.038.241,0,.5.309.542a.663.663,0,0,0,.414-.136c.8-.444,2.213-1.949,3.567-2.115" transform="translate(-113.046 -362.653)" fill="none" stroke="#e84436" stroke-linecap="round" stroke-linejoin="round" stroke-miterlimit="10" stroke-width="1.5"/><path d="M119.631,363.816l-.888-.542-.662-.4c-.918.888-4.824.045-4.824.045a18.086,18.086,0,0,0-1.927,6.8h.008a17.4,17.4,0,0,0,7.112,1.648,51.85,51.85,0,0,0,14.028-1.648s-1.52-6.51-6.766-7.014a10.926,10.926,0,0,0-1.626-.053" transform="translate(-110.984 -362.647)" fill="none" stroke="#e84436" stroke-linecap="round" stroke-linejoin="round" stroke-miterlimit="10" stroke-width="1.5"/><path d="M126.427,362.66a.7.7,0,0,0-.12.007.5.5,0,0,0-.1.008,4.306,4.306,0,0,0-1.964,1.257,19.022,19.022,0,0,0-2.07,2.453,2.506,2.506,0,0,0-.376.534,10.39,10.39,0,0,0-1.008,4.448" transform="translate(-113.324 -362.65)" fill="none" stroke="#e84436" stroke-linecap="round" stroke-linejoin="round" stroke-miterlimit="10" stroke-width="1.5"/><path d="M132.363,371.582s.173,2.258-.2,2.626-11.966,2.672-21.3,0c0,0,.2-1.46.354-2.626.105-.768.188-1.415.188-1.422" transform="translate(-110.87 -364.506)" fill="none" stroke="#e84436" stroke-linecap="round" stroke-linejoin="round" stroke-miterlimit="10" stroke-width="1.5"/><path d="M120.649,367.17s-.135,1.355,1.114.866" transform="translate(-113.288 -363.766)" fill="none" stroke="#e84436" stroke-linecap="round" stroke-linejoin="round" stroke-miterlimit="10" stroke-width="1.5"/><path d="M120.428,363.73a3.132,3.132,0,0,0-1.784,1.332c-.218.467.339.82.813.655" transform="translate(-112.781 -362.915)" fill="none" stroke="#e84436" stroke-linecap="round" stroke-linejoin="round" stroke-miterlimit="10" stroke-width="1.5"/></g></g><path d="M64.65,304.07" transform="translate(-16.003 -75.232)" fill="#eed351" stroke="#e84436" stroke-linecap="round" stroke-miterlimit="10" stroke-width="4"/><path d="M106.05,301.49" transform="translate(-26.246 -74.594)" fill="#1d71b8" stroke="#5492c5" stroke-linecap="round" stroke-miterlimit="10" stroke-width="2"/><path d="M82.925,168.883s-21.885,14.2-29.147,36.191c-7.014,21.253-4.862,34.995,1.505,37.952,4.7,2.182,45.358,11.469,48.639-15.563,2.536-20.884-5.23-49.2-11.522-58.663,0,0-9.46,28.056-11.77,31.909a40.287,40.287,0,0,1-6.224,7.465" transform="translate(-12.234 -41.763)" fill="#fff" stroke="#497ea9" stroke-linecap="round" stroke-linejoin="round" stroke-miterlimit="10" stroke-width="3.66"/><g transform="translate(61.434 179.485)"><g transform="translate(4.387)"><path d="M119.831,261.956a1.8,1.8,0,0,1,.12,3.108c-.918.384-6.434-2.958-7.8-4s-3.936-4.184-7.006-3.7l-17.52,3.251c-.865-3.341,2.273-7.879,2.273-9.181l13.479-3.01c1.227-.158,2-3.086,2-3.086s1.37-4.463,2.19-4.658,1.385-2.529,2.3-2.137c.918.376,1.061,2.98.73,3.627s-.971,2.845-1.738,3.274c1.8,3.326,9.354-1.942,11.8-1.761s1.52,2.928.738,3.236c-.738.293-7.729,2.882-6.9,3.522s8.248-.151,8.248-.151c1.761.406.835,2.83-.045,3.071s-8.82.956-8.677,1.219,6.728,2.243,7.729,2.077c1-.15,1.987,2.423.61,3.161-1.121.6-6.495-.783-8.421-1.317-.09-.023-.128.12-.053.173C115.345,259.48,118.792,261.406,119.831,261.956Z" transform="translate(-87.469 -238.491)" fill="#f3c8bb"/><path d="M92.828,262.078c-.331.625,12.448-3.424,13.637-3.018a27.3,27.3,0,0,1,7.006,3.7c1.37,1.046,6.894,4.38,7.8,4a1.8,1.8,0,0,0-.12-3.108c-1.039-.549-4.485-2.476-5.938-3.289-.083-.045-.038-.2.053-.173,1.934.534,7.308,1.927,8.421,1.317,1.377-.738.391-3.311-.61-3.161-1,.166-7.586-1.821-7.729-2.077s7.8-.978,8.677-1.219,1.806-2.664.045-3.07c0,0-7.42.79-8.248.15s6.164-3.229,6.9-3.522c.783-.309,1.7-3.063-.738-3.236s-9.994,5.087-11.8,1.761" transform="translate(-88.794 -240.194)" fill="none" stroke="#c69191" stroke-linecap="round" stroke-linejoin="round" stroke-miterlimit="10" stroke-width="1.861"/><path d="M110.776,245.447c.768-.429,1.4-2.634,1.738-3.274s.188-3.259-.73-3.627c-.918-.384-1.475,1.942-2.3,2.137s-2.19,4.658-2.19,4.658-.775,2.928-2,3.086c0,0-8.737,3.071-10.069,2.611" transform="translate(-89.387 -238.494)" fill="none" stroke="#c69191" stroke-linecap="round" stroke-linejoin="round" stroke-miterlimit="10" stroke-width="1.861"/><path d="M95.57,254.74" transform="translate(-89.474 -242.512)" fill="#f3c8bb"/></g><path d="M103.314,247.29s4.5,1.2,4.959.783c0,0,3.778,9.121,1.8,14.51,0,0-12.387.625-16.835,1.52a30.623,30.623,0,0,1-7.706.632L81.64,250.752s16.256,1.212,18.28.527C101.929,250.594,103.314,247.29,103.314,247.29Z" transform="translate(-81.64 -240.668)" fill="#1d71b8" stroke="#5492c5" stroke-linecap="round" stroke-linejoin="round" stroke-miterlimit="10" stroke-width="1.902"/><g transform="translate(20.726 9.594)"><path d="M109.18,251.24s4.929,9.392,4.327,11.748" transform="translate(-109.18 -251.24)" fill="#1d71b8"/><path d="M109.18,251.24s.06.113.166.316" transform="translate(-109.18 -251.24)" fill="none" stroke="#5492c5" stroke-linecap="round" stroke-linejoin="round" stroke-width="0.475"/><path d="M109.81,252.49c1.1,2.19,3.725,7.646,3.891,10.107" transform="translate(-109.336 -251.549)" fill="none" stroke="#5492c5" stroke-linecap="round" stroke-linejoin="round" stroke-width="0.475" stroke-dasharray="0.932 0.932"/><path d="M114.985,266.39a2.383,2.383,0,0,1-.045.354" transform="translate(-110.605 -254.989)" fill="none" stroke="#5492c5" stroke-linecap="round" stroke-linejoin="round" stroke-width="0.475"/></g><g transform="translate(17.956 11.476)"><path d="M105.5,253.74s4.4,8.03,3.8,10.385" transform="translate(-105.5 -253.74)" fill="#1d71b8"/><path d="M105.5,253.74s.06.113.166.316" transform="translate(-105.5 -253.74)" fill="none" stroke="#5492c5" stroke-linecap="round" stroke-linejoin="round" stroke-width="0.475"/><path d="M106.15,254.98c1.008,1.949,3.236,6.487,3.356,8.752" transform="translate(-105.661 -254.047)" fill="none" stroke="#5492c5" stroke-linecap="round" stroke-linejoin="round" stroke-width="0.475" stroke-dasharray="0.927 0.927"/><path d="M110.593,267.08a1.664,1.664,0,0,1-.053.354" transform="translate(-106.747 -257.041)" fill="none" stroke="#5492c5" stroke-linecap="round" stroke-linejoin="round" stroke-width="0.475"/></g><g transform="translate(14.57 11.86)"><path d="M101,254.25s4.335,7.917,3.733,10.273" transform="translate(-101 -254.25)" fill="#1d71b8"/><path d="M101,254.25s.06.113.166.316" transform="translate(-101 -254.25)" fill="none" stroke="#5492c5" stroke-linecap="round" stroke-linejoin="round" stroke-width="0.475"/><path d="M101.65,255.47c.993,1.927,3.183,6.4,3.3,8.647" transform="translate(-101.161 -254.552)" fill="none" stroke="#5492c5" stroke-linecap="round" stroke-linejoin="round" stroke-width="0.475" stroke-dasharray="0.915 0.915"/><path d="M106.013,267.42a1.664,1.664,0,0,1-.053.354" transform="translate(-102.227 -257.509)" fill="none" stroke="#5492c5" stroke-linecap="round" stroke-linejoin="round" stroke-width="0.475"/></g><g transform="translate(11.823 11.506)"><path d="M97.35,253.78s3.093,8.5,2.491,10.852" transform="translate(-97.35 -253.78)" fill="#1d71b8"/><path d="M97.35,253.78s.045.12.12.331" transform="translate(-97.35 -253.78)" fill="none" stroke="#5492c5" stroke-linecap="round" stroke-linejoin="round" stroke-width="0.475"/><path d="M97.81,255.1c.707,2.07,2.243,6.841,2.22,9.151" transform="translate(-97.464 -254.107)" fill="none" stroke="#5492c5" stroke-linecap="round" stroke-linejoin="round" stroke-width="0.475" stroke-dasharray="0.929 0.929"/><path d="M100.72,267.73a2.3,2.3,0,0,1-.06.354" transform="translate(-98.169 -257.232)" fill="none" stroke="#5492c5" stroke-linecap="round" stroke-linejoin="round" stroke-width="0.475"/></g><g transform="translate(8.18 11.039)"><path d="M92.51,253.16s3.477,9.61,2.875,11.966" transform="translate(-92.51 -253.16)" fill="#1d71b8"/><path d="M92.51,253.16s.045.12.12.339" transform="translate(-92.51 -253.16)" fill="none" stroke="#5492c5" stroke-linecap="round" stroke-linejoin="round" stroke-width="0.475"/><path d="M92.97,254.46c.775,2.258,2.6,7.819,2.6,10.288" transform="translate(-92.624 -253.482)" fill="none" stroke="#5492c5" stroke-linecap="round" stroke-linejoin="round" stroke-width="0.475" stroke-dasharray="0.911 0.911"/><path d="M96.393,268.59a2.1,2.1,0,0,1-.053.346" transform="translate(-93.458 -256.978)" fill="none" stroke="#5492c5" stroke-linecap="round" stroke-linejoin="round" stroke-width="0.475"/></g><g transform="translate(4.764 11.032)"><path d="M87.97,253.15s3.319,9.656,2.717,12.011" transform="translate(-87.97 -253.15)" fill="#1d71b8"/><path d="M87.97,253.15s.038.12.113.339" transform="translate(-87.97 -253.15)" fill="none" stroke="#5492c5" stroke-linecap="round" stroke-linejoin="round" stroke-width="0.475"/><path d="M88.4,254.46c.738,2.273,2.476,7.857,2.461,10.333" transform="translate(-88.076 -253.474)" fill="none" stroke="#5492c5" stroke-linecap="round" stroke-linejoin="round" stroke-width="0.475" stroke-dasharray="0.912 0.912"/><path d="M91.63,268.65a2.056,2.056,0,0,1-.06.346" transform="translate(-88.861 -256.985)" fill="none" stroke="#5492c5" stroke-linecap="round" stroke-linejoin="round" stroke-width="0.475"/></g></g><path d="M90.723,169.74S71.961,226.168,86.4,246.563" transform="translate(-20.032 -41.995)" fill="none" stroke="#497ea9" stroke-linecap="round" stroke-miterlimit="10" stroke-width="3.66"/><path d="M94.95,167v4.433S98.57,168.648,94.95,167Z" transform="translate(-23.5 -41.317)" fill="#c69191"/></g><path d="M8444.969,308.253v-63.73h153.507V333.4Z" transform="translate(-6992.611 21.394)" fill="#05ccb4"/></g></svg>