<svg xmlns="http://www.w3.org/2000/svg" width="314.656" height="637.165" viewBox="0 0 314.656 637.165"><g transform="translate(0.022 0.004)"><path d="M156.778,256.1s-4.3,16.345-18.855,20.591l-1.8-9.167Z" transform="translate(93.26 175.436)" fill="#ee7358" stroke="#e84436" stroke-linecap="round" stroke-linejoin="round" stroke-miterlimit="10" stroke-width="2"/><path d="M52.54,252.81s4.3,16.345,18.855,20.591l1.8-9.167Z" transform="translate(36.006 173.182)" fill="#ee7358" stroke="#e84436" stroke-linecap="round" stroke-linejoin="round" stroke-miterlimit="10" stroke-width="2"/><path d="M145.085,254.81a51.924,51.924,0,0,1,13.733,30.617l-12.3,5.476L129.6,260.472Z" transform="translate(88.794 174.552)" fill="#f3c8bb" stroke="#c69191" stroke-linecap="round" stroke-linejoin="round" stroke-miterlimit="10" stroke-width="2.304"/><path d="M56.98,253.154s2.241,36.952,7.364,49.506c5.122,12.536,26.118-37.98,26.118-37.98S62.153,248.57,56.98,253.154Z" transform="translate(39.048 172.856)" fill="#f3c8bb" stroke="#c69191" stroke-miterlimit="10" stroke-width="2"/><g transform="translate(3.546 49.239)"><path d="M183.236,97.132c3.488,2.982,7.279,9.268,6.285,16.328-3.218,23.1-27.3,25.124-27.9,25.225a1.4,1.4,0,0,1-.455.051,1.194,1.194,0,0,1-.253-.017c.1-.522.2-1.045.286-1.567.185-.4.354-.809.522-1.213,4.6-.286,15.452-1.247,23.186-18.434,1.938-4.314.826-8.054-.607-11.121v-.017a15.191,15.191,0,0,0-1.432-2.814l-.152-.3c-2.679-5.358-9.049-6-9.15-6a1.555,1.555,0,0,1-.472-.051q.253-1.39.455-2.78C176.4,94.217,180.254,94.588,183.236,97.132Z" transform="translate(106.695 15.41)" fill="#c69191"/><path d="M183.586,104.577a13.025,13.025,0,0,1,.826,6.454c-2.123,15.233-17.794,19.395-22.461,20.844,2.039-4.988,3.825-10.026,5.341-15.064q.177-.48.3-.96,1.668-5.333,2.78-10.514a5.066,5.066,0,0,0,.118-.539c.59-2.528,1.1-5.038,1.55-7.532,0-.034.017-.067.017-.1,2.056-.286,5.375-.371,7.583,1.55a13.028,13.028,0,0,1,2.511,3.033c.438.859.96,1.8,1.432,2.814Z" transform="translate(107.408 17.216)" fill="#f3c8bb"/><path d="M184.795,107.954a13.025,13.025,0,0,0-.826-6.454c1.432,3.067,2.544,6.807.607,11.121-7.734,17.187-18.586,18.148-23.186,18.434.337-.758.64-1.5.944-2.258C167,127.348,182.672,123.186,184.795,107.954Z" transform="translate(107.024 20.293)" fill="#f3c8bb"/><path d="M177.892,102.1l.152.3a13.027,13.027,0,0,0-2.511-3.033c-2.207-1.921-5.527-1.837-7.583-1.55.118-.59.219-1.18.32-1.769a1.555,1.555,0,0,0,.472.051C168.843,96.1,175.212,96.741,177.892,102.1Z" transform="translate(111.518 16.56)" fill="#f3c8bb"/><path d="M171.386,70.97c-.219,1.129-.421,2.207-.623,3.134a4.5,4.5,0,0,1-.674,1.685.574.574,0,0,1-.236.034c-.017-.371-.067-.725-.1-1.045a2.222,2.222,0,0,0-2.022-1.938,2.165,2.165,0,0,1,1.449-1.382A16.686,16.686,0,0,1,171.386,70.97Z" transform="translate(111.367 -0.62)" fill="#936037"/><path d="M171.353,74.391a130.693,130.693,0,0,1-1.011,34.358l-.1.051h-.051c-.556.051-1.078.1-1.533.169-.034.168-.067.32-.1.472a2.119,2.119,0,0,0-.944,1.466l-2.022-.371c2.224-13.345,2.612-26.017,1.213-36.851a.932.932,0,0,1-.034-.3,2.674,2.674,0,0,0,4.583,1.011Z" transform="translate(109.901 1.03)" fill="#c69191"/><path d="M169.226,73.83c-.067.084-.135.185-.2.253a.462.462,0,0,0-.034-.219A.574.574,0,0,0,169.226,73.83Z" transform="translate(112.23 1.339)" fill="#936037"/><path d="M170.84,75.068a.462.462,0,0,1,.034.219,2.674,2.674,0,0,1-4.583-1.011v-.017a2.243,2.243,0,0,1,1.955-2.174,2.208,2.208,0,0,1,.472,0,2.265,2.265,0,0,0-.051,1.382A2.234,2.234,0,0,0,170.84,75.068Z" transform="translate(110.381 0.135)" fill="#936037"/><path d="M169.908,75.062a2.234,2.234,0,0,1-2.174-1.6,2.265,2.265,0,0,1,.051-1.382,2.222,2.222,0,0,1,2.022,1.938C169.841,74.338,169.891,74.692,169.908,75.062Z" transform="translate(111.312 0.14)" fill="#936037"/><path d="M168.451,94.37v.051h-.1Z" transform="translate(111.792 15.409)" fill="#c69191"/><path d="M169.288,94.4h.1q-.2,1.39-.455,2.78H168.9a2.539,2.539,0,0,1-.337.2c-.067.522-.135,1.062-.2,1.6a.062.062,0,0,0-.051.017,2.142,2.142,0,0,1-1.331-.927,2.382,2.382,0,0,0,.1-.371c.169-.809.354-1.7.522-2.662a2.555,2.555,0,0,1,.792-.337c.067-.034.354-.1.843-.3Z" transform="translate(110.854 15.429)" fill="#c69191"/><path d="M168.984,94.4c-.489.2-.775.27-.843.3a2.555,2.555,0,0,0-.792.337c.034-.152.067-.3.1-.472C167.906,94.5,168.428,94.451,168.984,94.4Z" transform="translate(111.107 15.429)" fill="#c69191"/><path d="M168.373,96.05c-.1.59-.2,1.18-.32,1.769-.084.017-.169.017-.253.034.067-.539.135-1.078.2-1.6a2.539,2.539,0,0,0,.337-.2Z" transform="translate(111.415 16.56)" fill="#f3c8bb"/><path d="M168.053,97.1c0,.034-.017.067-.017.1a.538.538,0,0,1-.236-.051v-.017C167.884,97.117,167.969,97.117,168.053,97.1Z" transform="translate(111.415 17.279)" fill="#f3c8bb"/><path d="M168.334,97.13a.538.538,0,0,0,.236.051c-.455,2.494-.96,5-1.55,7.532C167.559,102.151,168,99.607,168.334,97.13Z" transform="translate(110.881 17.3)" fill="#f3c8bb"/><path d="M167.821,97.12v.017c-.017.017-.034,0-.051,0A.062.062,0,0,1,167.821,97.12Z" transform="translate(111.395 17.293)" fill="#c69191"/><path d="M216.708,98.295c.017,0,.034.017.051,0-.337,2.477-.775,5.021-1.314,7.583a5.057,5.057,0,0,1-.118.539c-.809,3.488-1.736,7.01-2.78,10.514q-.126.48-.3.96a143.753,143.753,0,0,1-5.864,15.233,3.882,3.882,0,0,0-.421.152c-.051.388-.118.775-.185,1.163-.118.27-.236.539-.371.809.084,0,.168-.017.253-.017-.067.388-.135.792-.219,1.2-6.993,16.126-16.682,31.594-29.218,44.468-13.345,13.7-35.706,22.276-63.9,24.635v-.27a2.308,2.308,0,0,0-4.617,0v.607c-2.949.169-5.982.286-9.065.3v-.91a2.3,2.3,0,0,0-2.308-2.308V201.7c29.96,0,59.818-6.555,76.719-23.91a129.071,129.071,0,0,0,9.84-11.408c.489-.64.977-1.281,1.449-1.921.472-.623.927-1.247,1.348-1.87.556-.758,1.1-1.517,1.618-2.292.607-.876,1.213-1.769,1.786-2.679.674-1.028,1.331-2.056,1.971-3.1.691-1.112,1.365-2.224,2.022-3.353.3-.539.607-1.062.91-1.6,1.365-2.41,2.679-4.87,3.909-7.364.388-.775.758-1.567,1.129-2.342.2-.4.4-.809.59-1.23.455-.96.893-1.921,1.314-2.9.371-.792.708-1.584,1.028-2.393.253-.556.489-1.112.708-1.685.169-.354.3-.708.438-1.062,1.87-4.617,3.5-9.268,4.92-13.918.253-.792.489-1.584.708-2.393.59-2.039,1.146-4.078,1.651-6.117.185-.674.337-1.348.489-2.022.472-1.971.893-3.943,1.281-5.881.135-.674.253-1.331.371-1.988.185-.96.354-1.9.505-2.848l2.022.371a1.641,1.641,0,0,0,0,.809,1.913,1.913,0,0,0,.32.758,4.123,4.123,0,0,1-.573,1.314.936.936,0,0,0,.354-.067A9.927,9.927,0,0,1,216.708,98.295Z" transform="translate(62.457 16.135)" fill="#c69191"/><path d="M167.754,94.78c-.168.96-.354,1.854-.522,2.662a2.382,2.382,0,0,1-.1.371,1.914,1.914,0,0,1-.32-.758,1.642,1.642,0,0,1,0-.809A2.119,2.119,0,0,1,167.754,94.78Z" transform="translate(110.703 15.69)" fill="#c69191"/><path d="M167.213,96.58a2.142,2.142,0,0,0,1.331.927,9.916,9.916,0,0,0-1.55.32.936.936,0,0,1-.354.067A4.122,4.122,0,0,0,167.213,96.58Z" transform="translate(110.621 16.923)" fill="#c69191"/><path d="M267.781,103.934c1.4,10.835,1.011,23.506-1.213,36.851-.152.944-.32,1.887-.506,2.848-.118.657-.236,1.314-.371,1.988-.388,1.938-.809,3.909-1.281,5.881-.152.674-.32,1.348-.489,2.022-.505,2.039-1.062,4.078-1.651,6.117-.219.809-.455,1.6-.708,2.393-1.415,4.651-3.05,9.3-4.92,13.918-.135.354-.286.708-.438,1.062-.219.573-.455,1.129-.708,1.685-.32.809-.674,1.6-1.028,2.393-.421.977-.859,1.938-1.314,2.9-.185.4-.388.826-.59,1.23-.354.792-.741,1.567-1.129,2.342-1.23,2.494-2.544,4.954-3.909,7.364-.3.539-.607,1.078-.91,1.6-.657,1.129-1.331,2.241-2.022,3.353-.64,1.045-1.3,2.073-1.971,3.1-.59.893-1.18,1.786-1.786,2.679-.522.775-1.062,1.533-1.618,2.292-.421.623-.876,1.247-1.348,1.87-.472.64-.96,1.3-1.449,1.921a129.078,129.078,0,0,1-9.84,11.408c-16.9,17.356-46.759,23.91-76.719,23.91-30.5-.017-61.116-6.841-78.286-16.008-23.388-12.486-38.553-38.317-46.1-54.241-2.443-5.409-1.466-12.183-1.921-13.514l-2.595-2.8c-.067-.135-1.146-1.971-2.763-5.24-.455-14.609,9.2-35.453,21.248-37.542,5.51-.96,18.3-1.4,29.943-1.7a17.943,17.943,0,0,0-.539,2.41,2.221,2.221,0,0,0,1.87,2.528c.1,0,.219.034.32.034a2.257,2.257,0,0,0,2.207-1.887,16.65,16.65,0,0,1,.843-3.218c26.067-.725,49.978-11.357,61.52-20.018,16.311-12.233,62.767-53.988,67.62-66.642,9.335,4.3,57.459,53.836,64.351,73.972a2.2,2.2,0,0,0,.169.421v.017A.931.931,0,0,0,267.781,103.934ZM226.33,115.88a2.21,2.21,0,0,0,.826-3.033c-8.307-14.66-27.921-10.632-28.746-10.447a2.213,2.213,0,0,0,.91,4.33c.185-.034,17.255-3.539,23.978,8.307a2.228,2.228,0,0,0,1.921,1.129A2.375,2.375,0,0,0,226.33,115.88ZM206.7,141.105c0-4.465-2.022-8.375-4.684-8.644a2.275,2.275,0,0,0-.472-.067,2.175,2.175,0,0,0-.691.135.343.343,0,0,1-.084.017c-2.039.421-5.224,3.421-5.224,7.92,0,4.853,3.707,9.1,5.712,9.015a4.908,4.908,0,0,0,.674-.084C204.306,148.789,206.7,145.537,206.7,141.105ZM188,201.783a2.2,2.2,0,0,0-1.281-2.865,2.232,2.232,0,0,0-2.865,1.281c-3.572,9.554-10.75,15.3-21.349,17.12a45.539,45.539,0,0,1-15.418-.169,2.191,2.191,0,0,0-2.629,1.685,2.224,2.224,0,0,0,1.685,2.645,46.653,46.653,0,0,0,9.049.826C165.416,222.306,181.424,219.273,188,201.783Zm-23.961-28.039a2.217,2.217,0,0,0,1.719-2.629c-.371-1.668-4.162-12.284-11.559-17.069a8.682,8.682,0,0,0-6.757-1.3c-11.458,2.477-16.159,16.564-16.378,17.339a2.22,2.22,0,0,0,4.28,1.18c1.264-4.6,5.7-12.6,13.059-14.188a4.212,4.212,0,0,1,3.37.708c4.954,3.2,8.762,10.161,9.621,14.255a2.229,2.229,0,0,0,2.174,1.752A2.133,2.133,0,0,0,164.035,173.744ZM91.882,149.7c2.544-.118,5.409-3.5,5.409-8.391,0-4.87-2.376-9.065-5.409-8.627-2.022,0-5.729,3.134-5.729,8C86.153,145.537,89.86,149.783,91.882,149.7Z" transform="translate(8.923 -29.22)" fill="#f3c8bb"/><path d="M165.07,99.108c.135-.674.253-1.331.371-1.988C165.323,97.777,165.2,98.434,165.07,99.108Z" transform="translate(109.545 17.293)" fill="#c69191"/><path d="M164.02,103.812c.169-.674.337-1.348.489-2.022C164.357,102.464,164.205,103.138,164.02,103.812Z" transform="translate(108.826 20.492)" fill="#c69191"/><path d="M162.62,109.013c.253-.792.489-1.584.708-2.393C163.109,107.429,162.873,108.221,162.62,109.013Z" transform="translate(107.867 23.8)" fill="#c69191"/><path d="M167.5,108.76c-1.517,5.038-3.3,10.076-5.341,15.064-.2.067-.371.118-.522.169A143.755,143.755,0,0,0,167.5,108.76Z" transform="translate(107.196 25.266)" fill="#f3c8bb"/><path d="M161.935,117.869c.152-.051.32-.1.522-.169-.3.758-.607,1.5-.944,2.258-.118,0-.219.017-.3.017.034-.27.084-.539.118-.792C161.547,118.745,161.732,118.307,161.935,117.869Z" transform="translate(106.901 31.39)" fill="#f3c8bb"/><path d="M161.887,117.8c-.2.438-.388.876-.607,1.314.067-.388.135-.775.185-1.163A3.882,3.882,0,0,1,161.887,117.8Z" transform="translate(106.949 31.459)" fill="#c69191"/><path d="M161.3,119.057c.084,0,.185-.017.3-.017-.169.4-.337.809-.522,1.213C161.164,119.849,161.232,119.444,161.3,119.057Z" transform="translate(106.812 32.308)" fill="#c69191"/><path d="M161.431,118.58c-.034.253-.084.522-.118.792-.084,0-.169.017-.253.017C161.195,119.119,161.313,118.85,161.431,118.58Z" transform="translate(106.798 31.993)" fill="#f3c8bb"/><path d="M159.44,117.362c.152-.354.3-.708.438-1.062C159.743,116.654,159.608,117.008,159.44,117.362Z" transform="translate(105.689 30.431)" fill="#c69191"/><path d="M158.41,120.323c.354-.792.708-1.584,1.028-2.393C159.118,118.739,158.781,119.531,158.41,120.323Z" transform="translate(104.983 31.548)" fill="#c69191"/><path d="M157.28,122.3c.2-.4.4-.826.59-1.23C157.684,121.491,157.482,121.9,157.28,122.3Z" transform="translate(104.209 33.699)" fill="#c69191"/><path d="M153.75,129.161c.3-.522.607-1.062.91-1.6C154.357,128.1,154.053,128.622,153.75,129.161Z" transform="translate(101.791 38.145)" fill="#c69191"/><path d="M175.339,222.38c17.322,29.656,24.921,55.521,22.63,76.87a63.516,63.516,0,0,1-2.275,9.925c-.32,1.2-.657,2.359-.944,3.454-3.269,12.772-19.31,2.9-22.023,8.712a2.444,2.444,0,0,1-.927,1.045c-.034-.185-.067-.388-.1-.573-.438-2.376-.893-4.8-1.348-7.229,14.457-.118,11.98.472,18.619-2.528a2.187,2.187,0,0,0,1.247-1.449q.329-1.238.708-2.528a57.108,57.108,0,0,0,2.089-9.133c.185-1.7.3-3.437.354-5.19.034-1.736.017-3.5-.067-5.274-.051-1.18-.135-2.376-.253-3.572-3.218-35.251-29.976-75.337-47.939-97.512a2.949,2.949,0,0,0-.725-.657l-.2-.253a2.223,2.223,0,0,0-3.808.691c-.034.118-.084.219-.118.337-.017,0-.017.017-.017.034a2.241,2.241,0,0,0-.337.59,33.18,33.18,0,0,1-9.268,12.385c-11.071,9.268-24.719,9.15-36.548-.337q-8.012-6.395-9.925-12.705a3.083,3.083,0,0,1,.607-2.881c.388-.455.725-.859,1.062-1.247.3-.354.59-.691.859-.994,1.3-1.533,2.073-2.376,2.14-2.443.084-.118.185-.219.27-.354l.472.27a8.485,8.485,0,0,0-.893,2.46c-.775,4.179,2.089,8.88,8.509,14.036,14.188,11.34,25.865,4.061,30.246.4,7.549-6.353,10.767-15.57,8.594-19.58a11.506,11.506,0,0,0-.623-1.011l.067-.051a5.182,5.182,0,0,1,1.2,2.443,2.5,2.5,0,0,0,2.46,2.14,1.383,1.383,0,0,0,.371-.034,2.489,2.489,0,0,0,2.106-2.814,9.517,9.517,0,0,0-1.719-4.128A309.31,309.31,0,0,1,175.339,222.38Z" transform="translate(54.033 69.751)" fill="#e84436"/><path d="M214,283.469c.084,1.769.1,3.539.067,5.274-.067,1.668-.169,3.319-.354,4.954a57.108,57.108,0,0,1-2.089,9.133c-.2.691-.388,1.365-.573,2.039a3.123,3.123,0,0,1-1.887,2.089c-8.492,3.2-5.459.792-17.912,2.325a.423.423,0,0,0-.236.1c-4.364-23.169-8.88-47.737-10.211-61.234a2.307,2.307,0,0,0-4.6.337,1.366,1.366,0,0,0,0,.371c1.011,10.144,3.774,26.371,6.909,43.575-.59,1.8.185,4.87,1.466,7.92,1.1,5.881,2.207,11.8,3.286,17.524,2.578,13.7,5.055,26.876,6.622,36.363.741,4.583,1.3,8.324,1.533,10.835.017.3.051.607.067.893a15.424,15.424,0,0,1-.017,1.769,17.309,17.309,0,0,1-7.751,13.548,37.025,37.025,0,0,1-11.071,4.667c-10.969,2.915-25.006,2.848-39.328,1.23a286.672,286.672,0,0,1-52.084-11.357c-9.386-2.982-15.907-5.712-17.507-7.128a3.238,3.238,0,0,1-.2-.421.287.287,0,0,1-.017-.118,6.671,6.671,0,0,1-.084-.674c-.034-.573-.051-1.3-.017-2.14.1-2.848.556-7.077,1.281-12.351,3.218-23.826,11.947-68.445,18.384-98.776a1.56,1.56,0,0,0,.034-.623,2.27,2.27,0,0,0-1.8-2.342,2.356,2.356,0,0,0-2.763,1.786c-1.752,8.307-6.723,32.049-11.222,56.077a40.6,40.6,0,0,0-4.735-2.8c-.152-.067-.3-.152-.438-.219a12.807,12.807,0,0,0-1.281-.623c-.522-.27-1.045-.489-1.567-.708-.388-.152-.758-.32-1.112-.472-4.162-1.719-7.448-2.645-7.481-2.831a61.367,61.367,0,0,1-1.466-12.082c-.051-1.82-.017-3.64.084-5.476,2.191-40.98,37.256-86.863,50.551-102.887.792,4.735,4.263,9.554,10.312,14.39,11.829,9.487,25.477,9.6,36.548.337a33,33,0,0,0,9.6-13.211c0-.017,0-.034.017-.034a3.075,3.075,0,0,1,4.128-.775C183,203.65,210.378,244.242,213.748,279.9,213.849,281.093,213.933,282.29,214,283.469Z" transform="translate(33.334 74.766)" fill="#ee7358"/><path d="M157.937,249.9c.185-1.634.286-3.286.354-4.954-.051,1.752-.169,3.488-.354,5.19a57.109,57.109,0,0,1-2.089,9.133q-.379,1.289-.708,2.528a2.187,2.187,0,0,1-1.247,1.449c-6.639,3-4.162,2.41-18.619,2.528a.606.606,0,0,1-.034-.185.423.423,0,0,1,.236-.1c12.452-1.533,9.419.876,17.912-2.325a3.122,3.122,0,0,0,1.887-2.089c.185-.674.371-1.348.573-2.039A57.108,57.108,0,0,0,157.937,249.9Z" transform="translate(89.111 118.559)" fill="#ee7358"/><path d="M147.7,138.321c.489-.623.977-1.281,1.449-1.921C148.677,137.04,148.189,137.681,147.7,138.321Z" transform="translate(97.646 44.2)" fill="#c69191"/><path d="M154.6,83.358a2.21,2.21,0,0,1-.826,3.033,2.375,2.375,0,0,1-1.112.286,2.228,2.228,0,0,1-1.921-1.129c-6.723-11.846-23.792-8.341-23.978-8.307a2.213,2.213,0,0,1-.91-4.33C126.679,72.726,146.293,68.7,154.6,83.358Z" transform="translate(81.479 0.269)" fill="#f3db8c"/><path d="M150.4,294.2a22.079,22.079,0,0,1-9.739,20.743,39.072,39.072,0,0,1-10.3,4.55,2.5,2.5,0,0,0-2.41-2.443h-.067a4.771,4.771,0,0,0-.489.034l-.3-1.129a36.7,36.7,0,0,0,11.02-4.651,17.259,17.259,0,0,0,7.751-13.783,15.423,15.423,0,0,0,.017-1.769c-.017-.371-.034-.741-.067-1.129-.236-2.511-.792-6.251-1.533-10.852l1.483-.236a2.4,2.4,0,0,0,1.4,1.887,2.549,2.549,0,0,0,1.045.236,2.043,2.043,0,0,0,.994-.219h.017C149.78,289.057,150.2,292.006,150.4,294.2Z" transform="translate(83.535 144.987)" fill="#e84436"/><path d="M141.611,287.7c0,.051.017.084.017.135a2.043,2.043,0,0,1-.994.219,2.549,2.549,0,0,1-1.045-.236,2.4,2.4,0,0,1-1.4-1.887,2.5,2.5,0,0,1,.2-1.4c.4-.91,1.028-2.46,1.752-4.516C140.9,284.047,141.476,287.047,141.611,287.7Z" transform="translate(91.115 142.582)" fill="#e84436"/><path d="M140.671,287c.051.253.1.505.135.758-.135-.657-.708-3.656-1.466-7.684.017-.051.034-.084.051-.135C139.98,283.158,140.435,285.686,140.671,287Z" transform="translate(91.92 142.528)" fill="#e84436"/><path d="M139.454,279.79c.438,2.646.859,5.089,1.2,7.313-.236-1.314-.691-3.842-1.281-7.06A1.478,1.478,0,0,1,139.454,279.79Z" transform="translate(91.94 142.425)" fill="#e84436"/><path d="M141.756,292.018a1.483,1.483,0,0,0-.084.253c-1.584-8.442-4.061-21.669-5.662-30.212v-.017a.4.4,0,0,0,.185-.1C138.318,273.162,140.273,283.576,141.756,292.018Z" transform="translate(89.639 130.197)" fill="#e84436"/><path d="M141.726,292.222c-.017.051-.034.084-.051.135-2.123-11.121-5.746-30.212-5.746-30.28a1,1,0,0,0,.135-.067C137.666,270.553,140.143,283.78,141.726,292.222Z" transform="translate(89.584 130.245)" fill="#e84436"/><path d="M144.738,299.248c-.725,2.056-1.348,3.606-1.752,4.516a2.5,2.5,0,0,0-.2,1.4l-1.483.236c-1.567-9.47-4.044-22.647-6.622-36.346-1.062-5.594-2.14-11.357-3.218-17.1,1.938,4.566,4.954,9.032,6.15,9.032h.1a.239.239,0,0,0-.017.185c.219,1.18.741,4.01,1.432,7.717v.017a.994.994,0,0,1-.135.067C138.992,269.036,142.615,288.127,144.738,299.248Z" transform="translate(86.522 123.354)" fill="#e84436"/><path d="M142.861,316.326c.034.388.051.758.067,1.129-.017-.286-.051-.59-.067-.893-.236-2.511-.792-6.251-1.533-10.835-1.567-9.487-4.044-22.664-6.622-36.363-1.078-5.729-2.191-11.643-3.286-17.524a1.165,1.165,0,0,0,.067.169s.017,0,0,.017c1.078,5.746,2.157,11.509,3.218,17.1,2.578,13.7,5.055,26.876,6.622,36.346C142.069,310.074,142.625,313.815,142.861,316.326Z" transform="translate(86.494 123.279)" fill="#e84436"/><path d="M136.681,264.539c.034.185.067.388.1.573a.4.4,0,0,1-.185.1c-.691-3.707-1.213-6.538-1.432-7.717a.239.239,0,0,1,.017-.185h.152C135.788,259.736,136.243,262.163,136.681,264.539Z" transform="translate(89.052 127.026)" fill="#e84436"/><path d="M135.288,257.2a.606.606,0,0,0,.034.185h-.152A.436.436,0,0,1,135.288,257.2Z" transform="translate(89.063 126.95)" fill="#e84436"/><path d="M133.4,265.906c-3.151-17.271-5.931-33.549-6.942-43.743a.144.144,0,0,1,0-.118,2.307,2.307,0,0,1,4.6-.337c1.331,13.5,5.847,38.065,10.211,61.234a.437.437,0,0,0-.118.185h-.1c-1.2,0-4.213-4.465-6.15-9.032.017-.017,0-.017,0-.017C134.392,271.332,133.886,268.6,133.4,265.906Z" transform="translate(83.085 101.209)" fill="#e84436"/><path d="M138.141,305.378a17.309,17.309,0,0,0,7.751-13.548,17.259,17.259,0,0,1-7.751,13.783,36.7,36.7,0,0,1-11.02,4.651l-.051-.219A37.025,37.025,0,0,0,138.141,305.378Z" transform="translate(83.514 150.673)" fill="#e84436"/><path d="M132.083,255.262a1.156,1.156,0,0,1-.067-.169c-.489-2.662-.977-5.308-1.466-7.92a.284.284,0,0,1,.034-.084C131.072,249.786,131.578,252.516,132.083,255.262Z" transform="translate(85.898 120.025)" fill="#ee7358"/><path d="M130.632,247.14c.489,2.612.977,5.257,1.466,7.92C130.817,252.01,130.042,248.943,130.632,247.14Z" transform="translate(85.817 120.059)" fill="#ee7358"/><path d="M133.4,264.921a.285.285,0,0,0-.034.084c-3.134-17.2-5.9-33.431-6.909-43.575a1.366,1.366,0,0,1,0-.371.144.144,0,0,0,0,.118C127.466,231.372,130.246,247.65,133.4,264.921Z" transform="translate(83.085 102.194)" fill="#e84436"/><path d="M132.979,98.92c0,4.55-1.971,8.038-3.859,8.459a3.05,3.05,0,0,1-.388.051c-2.022,0-4.263-3.656-4.263-8.509,0-4.263,1.719-7.549,3.488-8.341a.342.342,0,0,0,.084-.017,3.316,3.316,0,0,1,.4-.051,3.831,3.831,0,0,1,.758-.017C131.075,91,132.979,94.421,132.979,98.92Z" transform="translate(81.733 12.747)"/><path d="M127.23,107.374c1.887-.421,3.859-3.909,3.859-8.459,0-4.5-1.9-7.92-3.774-8.425,2.662.27,4.684,4.179,4.684,8.644,0,4.432-2.393,7.684-4.769,8.29v-.051Z" transform="translate(83.624 12.751)"/><path d="M131.684,304.87v.1l-1.567,71.344a.963.963,0,0,1-.017.219,2.248,2.248,0,0,0-2.005-1.4,2.393,2.393,0,0,0-1.651.623L125.18,374.7l1.517-68.563C128.432,305.78,130.1,305.359,131.684,304.87Z" transform="translate(82.22 159.605)" fill="#497ea9"/><path d="M131.068,305.863c-1.584.489-3.252.91-4.988,1.264l.017-1.264a2.573,2.573,0,0,1,2.005-2.41,4.753,4.753,0,0,1,.489-.034h.067A2.5,2.5,0,0,1,131.068,305.863Z" transform="translate(82.836 158.612)" fill="#e84436"/><path d="M133.012,347.4a1.845,1.845,0,0,1,.185.994c-.253,6.167-10.026,11.559-11.98,12.553a2.064,2.064,0,0,1-.286.118l.034-5.291a26.773,26.773,0,0,0,6.319-5.021,4.034,4.034,0,0,0,3.673-.135A3.935,3.935,0,0,0,133.012,347.4Z" transform="translate(79.308 188.739)" fill="#497ea9"/><path d="M130.429,347.969a3.935,3.935,0,0,1-2.056,3.218,4.034,4.034,0,0,1-3.673.135,4.52,4.52,0,0,0,1.3-2.544,2.342,2.342,0,0,1,.775-1.584,2.393,2.393,0,0,1,1.651-.623A2.248,2.248,0,0,1,130.429,347.969Z" transform="translate(81.891 188.17)" fill="#497ea9"/><path d="M143.136,302.77l.3,1.129a2.573,2.573,0,0,0-2.005,2.41l-.017,1.264a97.579,97.579,0,0,1-19.395,1.736c-5.19,0-10.582-.286-16.025-.826l-.169-2.443c-.067-1.129-1.028-1.6-2.14-1.685l.034-.337h.034c14.323,1.618,28.359,1.685,39.328-1.23C143.1,302.787,143.119,302.77,143.136,302.77Z" transform="translate(67.499 158.167)" fill="#e84436"/><path d="M127.753,90.517a3.829,3.829,0,0,0-.758.017,3.312,3.312,0,0,0-.4.051,2.175,2.175,0,0,1,.691-.135A2.275,2.275,0,0,1,127.753,90.517Z" transform="translate(83.186 12.724)"/><path d="M129.826,107.34v.051a4.91,4.91,0,0,1-.674.084c-2.005.084-5.712-4.162-5.712-9.015,0-4.5,3.185-7.5,5.224-7.92-1.769.792-3.488,4.078-3.488,8.341,0,4.853,2.241,8.509,4.263,8.509A3.055,3.055,0,0,0,129.826,107.34Z" transform="translate(81.028 12.785)"/><path d="M143.072,302.64l.051.219c-.017,0-.034.017-.051.017-10.969,2.915-25.006,2.848-39.328,1.23h-.034l.034-.236C118.066,305.488,132.1,305.555,143.072,302.64Z" transform="translate(67.512 158.078)" fill="#e84436"/><path d="M140.479,305.62l-1.517,68.563a23.283,23.283,0,0,0-9.251-2.494,29.6,29.6,0,0,0-20.389,6.706L105.06,306.53c5.443.539,10.835.826,16.025.826A97.579,97.579,0,0,0,140.479,305.62Z" transform="translate(68.437 160.119)" fill="#5492c5"/><path d="M128.968,347.324l1.264,1.062a2.342,2.342,0,0,0-.775,1.584,4.52,4.52,0,0,1-1.3,2.544,4.506,4.506,0,0,1-.4-.2,17.659,17.659,0,0,0-5.847-2.19l.017-2.073a2.3,2.3,0,0,0-2.275-2.325l.067-.893A23.282,23.282,0,0,1,128.968,347.324Z" transform="translate(78.432 186.979)" fill="#497ea9"/><path d="M126.864,350.161c.135.067.27.152.4.2a26.773,26.773,0,0,1-6.319,5.021l.067-7.414A17.659,17.659,0,0,1,126.864,350.161Z" transform="translate(79.322 189.129)" fill="#1d71b8"/><path d="M122.884,347.685l-.017,2.073a18.57,18.57,0,0,0-4.617-.354l.017-1.752a2.3,2.3,0,0,1,2.308-2.292h.034A2.3,2.3,0,0,1,122.884,347.685Z" transform="translate(77.473 187.342)" fill="#497ea9"/><path d="M122.9,348.122l-.067,7.414c-.64.421-1.281.775-1.887,1.1a2.294,2.294,0,0,0-1.247,2.039l-1.5-.017.084-10.885A18.573,18.573,0,0,1,122.9,348.122Z" transform="translate(77.438 188.978)" fill="#c69191"/><path d="M122.224,352.37l-.034,5.291a2.135,2.135,0,0,1-.792.152,2.281,2.281,0,0,1-2.039-1.247,2.209,2.209,0,0,1-.27-1.062,2.294,2.294,0,0,1,1.247-2.039C120.944,353.145,121.584,352.791,122.224,352.37Z" transform="translate(78.048 192.144)" fill="#c69191"/><path d="M122.848,356.394l-.051,6.487a2.3,2.3,0,0,0-.253,4.516.954.954,0,0,0,.2.067v.354a2.308,2.308,0,0,1-2.308,2.292h-.017a2.308,2.308,0,0,1-2.292-2.308l.118-13.581,1.5.017a2.209,2.209,0,0,0,.27,1.062,2.281,2.281,0,0,0,2.039,1.247A2.136,2.136,0,0,0,122.848,356.394Z" transform="translate(77.39 193.411)" fill="#c69191"/><path d="M121.719,359.36l-.051,4.583a.947.947,0,0,1-.2-.067,2.3,2.3,0,0,1,.253-4.516Z" transform="translate(78.469 196.932)" fill="#c69191"/><path d="M121.326,181.616l.2.253a3.075,3.075,0,0,0-4.128.775c.034-.118.084-.219.118-.337A2.223,2.223,0,0,1,121.326,181.616Z" transform="translate(76.89 74.624)" fill="#ee7358"/><path d="M131.767,371.539l-.067.893h-.034a2.3,2.3,0,0,0-2.308,2.292l-.017,1.752a20.607,20.607,0,0,0-3.37.354v-1.045a2.349,2.349,0,0,0-2.292-2.342h-.017a2.308,2.308,0,0,0-2.308,2.292l-.034,2.359a21.62,21.62,0,0,0-7.229,4.415,30.431,30.431,0,0,1-3.269-3,2.332,2.332,0,0,0-3.269-.135,2.206,2.206,0,0,0-.708,1.87,3.744,3.744,0,0,1-.354-1.449L102.06,305.84c1.7.2,3.387.388,5.055.539l4.263,71.866A29.6,29.6,0,0,1,131.767,371.539Z" transform="translate(66.382 160.27)" fill="#497ea9"/><path d="M135.4,129.986a2.2,2.2,0,0,1,1.281,2.865c-6.572,17.49-22.579,20.524-32.807,20.524a46.65,46.65,0,0,1-9.049-.826,2.224,2.224,0,0,1-1.685-2.645,2.191,2.191,0,0,1,2.629-1.685,45.539,45.539,0,0,0,15.418.169c10.6-1.82,17.777-7.566,21.349-17.12A2.232,2.232,0,0,1,135.4,129.986Z" transform="translate(60.236 39.712)" fill="#c69191"/><path d="M120.693,178.082a2.489,2.489,0,0,1-2.106,2.814,1.382,1.382,0,0,1-.371.034,2.5,2.5,0,0,1-2.46-2.14,5.182,5.182,0,0,0-1.2-2.443l3.842-3.016c.185.2.371.4.573.623A9.517,9.517,0,0,1,120.693,178.082Z" transform="translate(74.945 69.498)" fill="#e84436"/><path d="M124.962,177.646l-.573-.623-3.842,3.016c-2.8-3.353-9.824-5.83-14.727-7.043V167.94C109.931,168.833,120.682,171.63,124.962,177.646Z" transform="translate(68.958 65.806)" fill="#e84436"/><path d="M118.141,348.3v1.045a24.208,24.208,0,0,0-4.651,1.264l.034-2.359a2.308,2.308,0,0,1,2.308-2.292h.017A2.349,2.349,0,0,1,118.141,348.3Z" transform="translate(74.212 187.753)" fill="#497ea9"/><path d="M118.168,347.97l-.1,11.323-1.213-.017a2.175,2.175,0,0,0-.118-.725,2.333,2.333,0,0,0-2.932-1.466,1.773,1.773,0,0,1-.354.1l.067-7.953A24.208,24.208,0,0,1,118.168,347.97Z" transform="translate(74.185 189.129)" fill="#c69191"/><path d="M118.108,354.7l-.118,13.851a2.3,2.3,0,1,1-4.6-.034v-.944c.236-.067.455-.118.623-.169a2.315,2.315,0,0,0,1.651-2.8,2.266,2.266,0,0,0-2.241-1.736l.051-5.662a5.709,5.709,0,0,0,1.837-.337,2.29,2.29,0,0,0,1.584-2.191Z" transform="translate(74.143 193.726)" fill="#c69191"/><path d="M116.743,354.891a2.176,2.176,0,0,1,.118.725,2.29,2.29,0,0,1-1.584,2.191,5.709,5.709,0,0,1-1.837.337l.017-4.617a1.773,1.773,0,0,0,.354-.1A2.333,2.333,0,0,1,116.743,354.891Z" transform="translate(74.178 192.79)" fill="#c69191"/><path d="M134.189,185.875c2.174,4.01-1.045,13.227-8.594,19.58-4.381,3.656-16.058,10.936-30.246-.4-6.42-5.156-9.284-9.857-8.509-14.036a8.485,8.485,0,0,1,.893-2.46c2.477-4.634,9.015-8.021,12.874-9.554v3.656a2.308,2.308,0,0,0,4.617,0V161.273c3.084-.017,6.117-.135,9.065-.3v21.686a2.308,2.308,0,0,0,4.617,0V177.77c4.9,1.213,11.93,3.69,14.727,7.043l-.067.051A11.5,11.5,0,0,1,134.189,185.875Z" transform="translate(55.872 61.031)" fill="#f3c8bb"/><path d="M115.665,361.276a2.315,2.315,0,0,1-1.651,2.8c-.169.051-.388.1-.623.169l.034-4.7A2.267,2.267,0,0,1,115.665,361.276Z" transform="translate(74.143 197.055)" fill="#c69191"/><path d="M116.429,348.72l-.067,7.953c-1.752.236-4.634-1.5-7.161-3.539A21.619,21.619,0,0,1,116.429,348.72Z" transform="translate(71.273 189.643)" fill="#1d71b8"/><path d="M119.307,355.392l-.017,4.617h-.27c-5.746,0-12.166-6.555-13.531-8.021a2.169,2.169,0,0,1-.59-1.4,4.251,4.251,0,0,0,2.46,2.393,4.47,4.47,0,0,0,1.584.3,4.316,4.316,0,0,0,3.084-1.314l.118-.118C114.673,353.893,117.554,355.628,119.307,355.392Z" transform="translate(68.328 190.924)" fill="#497ea9"/><path d="M112.15,352.86l-.118.118a4.316,4.316,0,0,1-3.084,1.314,4.47,4.47,0,0,1-1.584-.3,4.251,4.251,0,0,1-2.46-2.393,2.206,2.206,0,0,1,.708-1.87,2.332,2.332,0,0,1,3.269.135A30.438,30.438,0,0,0,112.15,352.86Z" transform="translate(68.323 189.918)" fill="#497ea9"/><path d="M107.7,172.111V177a2.308,2.308,0,0,1-4.617,0V169.23h.236a2.487,2.487,0,0,0,2.073,2.426C106.079,171.758,106.854,171.943,107.7,172.111Z" transform="translate(67.081 66.689)" fill="#c69191"/><path d="M107.6,168.07v5.055c-.842-.169-1.618-.354-2.308-.455a2.487,2.487,0,0,1-2.073-2.426,3.877,3.877,0,0,1,.051-.438,2.506,2.506,0,0,1,2.881-2.022c.27.034.758.135,1.449.27Z" transform="translate(67.177 65.676)" fill="#c69191"/><path d="M107.7,160.77v12.065c-.691-.135-1.18-.236-1.449-.27a2.506,2.506,0,0,0-2.881,2.022,3.877,3.877,0,0,0-.051.438h-.236V161.107C104.63,161.006,106.18,160.9,107.7,160.77Z" transform="translate(67.081 60.894)" fill="#c69191"/><path d="M107.7,161.548v.27c-1.517.135-3.067.236-4.617.337v-.607a2.308,2.308,0,1,1,4.617,0Z" transform="translate(67.081 59.846)" fill="#c69191"/><path d="M119.9,120.982a2.217,2.217,0,0,1-1.719,2.629,2.132,2.132,0,0,1-.472.051,2.229,2.229,0,0,1-2.174-1.752c-.859-4.095-4.667-11.054-9.621-14.255a4.212,4.212,0,0,0-3.37-.708c-7.364,1.584-11.8,9.588-13.059,14.188a2.22,2.22,0,1,1-4.28-1.18c.219-.775,4.92-14.862,16.378-17.339a8.682,8.682,0,0,1,6.757,1.3C115.737,108.7,119.528,119.314,119.9,120.982Z" transform="translate(54.778 20.913)" fill="#c69191"/><path d="M106.982,305.4l.169,2.443c-1.668-.152-3.353-.337-5.055-.539l-.084-1.618c-.067-1.348.758-1.9,2.14-1.988.236,0,.455,0,.691.017C105.954,303.8,106.915,304.273,106.982,305.4Z" transform="translate(66.346 158.804)" fill="#e84436"/><path d="M124.931,307.987l-.034.236a286.581,286.581,0,0,1-52.05-11.357c-.017,0-.051-.017-.067-.017l.067-.219A286.667,286.667,0,0,0,124.931,307.987Z" transform="translate(46.325 153.961)" fill="#e84436"/><path d="M125.014,308.134l-.034.337c-.236-.017-.455-.017-.691-.017-1.382.084-2.207.64-2.14,1.988l.084,1.618c-1.011-.135-2.039-.236-3.05-.371l.1-1.517a2.515,2.515,0,0,0-2.292-2.679,2.454,2.454,0,0,0-2.662,2.292l-.084,1.2a295.234,295.234,0,0,1-39.682-9.015l.017-1.854a2.514,2.514,0,0,0-1.971-2.46l.286-.893c.017,0,.051.017.067.017A286.58,286.58,0,0,0,125.014,308.134Z" transform="translate(46.208 154.05)" fill="#e84436"/><path d="M100.067,303.135a2.515,2.515,0,0,1,2.292,2.679l-.1,1.517c-1.651-.219-3.286-.472-4.937-.708l.084-1.2A2.454,2.454,0,0,1,100.067,303.135Z" transform="translate(63.135 158.408)" fill="#e84436"/><path d="M119.636,305.908l-5.645,71.445a2.689,2.689,0,0,1-.185.809,2.273,2.273,0,0,0-1.955-1.854,2.32,2.32,0,0,0-2.595,1.971,3.206,3.206,0,0,1-.539,1.314,2.941,2.941,0,0,1-.253-.219c-2.544-2.595-6.251-3.825-10.515-4.095v-.185a2.309,2.309,0,1,0-4.617-.051v.236c-1.129.1-2.292.236-3.437.4a2.326,2.326,0,0,0-2.241-1.9h-.034a2.319,2.319,0,0,0-2.308,2.292v.489a71.894,71.894,0,0,0-9.369,2.932,28.919,28.919,0,0,1-1.938-3.134,2.285,2.285,0,0,0-2.056-1.314l2.544-.286c8.307-3.2,24.584-7.936,34.812-1.112L114.7,305.2C116.35,305.436,117.985,305.689,119.636,305.908Z" transform="translate(45.756 159.831)" fill="#497ea9"/><path d="M99.577,169.94v6.572a2.308,2.308,0,0,1-4.617,0v-3.656c.607-.219,1.112-.421,1.55-.556a2.488,2.488,0,0,0,1.719-2.359Z" transform="translate(61.519 67.176)" fill="#c69191"/><path d="M99.577,161.15v14.811H98.229a2.068,2.068,0,0,0-.118-.775,2.481,2.481,0,0,0-3.134-1.6H94.96V161.15c.607.017,1.23.017,1.82.017h.96C98.364,161.167,98.987,161.167,99.577,161.15Z" transform="translate(61.519 61.154)" fill="#c69191"/><path d="M99.577,161.548v.91c-.59.017-1.213.017-1.837.017h-.96c-.59,0-1.213,0-1.82-.017v-.91a2.308,2.308,0,0,1,4.617,0Z" transform="translate(61.519 59.846)" fill="#c69191"/><path d="M113.665,308.865l-5.392,68.445c-10.228-6.824-26.505-2.089-34.812,1.112l.522-78.572A295.243,295.243,0,0,0,113.665,308.865Z" transform="translate(46.791 156.166)" fill="#5492c5"/><path d="M98.111,170.18a2.068,2.068,0,0,1,.118.775,2.488,2.488,0,0,1-1.719,2.359c-.438.135-.944.337-1.55.556v-5.291h.017A2.481,2.481,0,0,1,98.111,170.18Z" transform="translate(61.519 66.16)" fill="#c69191"/><path d="M103.291,348.5a2.2,2.2,0,0,1,.034.741c-.91,6.807-12.351,11.239-16.025,12.5l.051-4.954c4.33-1.651,9.268-4.331,10.852-6.858a3.112,3.112,0,0,0,2.056.741,3.457,3.457,0,0,0,1.078-.185A3.305,3.305,0,0,0,103.291,348.5Z" transform="translate(56.271 189.493)" fill="#497ea9"/><path d="M148.2,187.058v1.247a2.323,2.323,0,0,0-2.308,2.308v.91c-29.117-.236-59.5-6.656-78.067-16.564C48.632,164.715,35,146.129,26.946,132.346c-2.494-4.246-4.583-8.273-6.336-11.863.337,0,.539-.034.607-.034a2.3,2.3,0,0,0,2.123-2.46.6.6,0,0,0-.034-.169,4.725,4.725,0,0,0,.506-1.011c7.549,15.923,22.714,41.755,46.1,54.241C87.084,180.217,117.7,187.042,148.2,187.058Z" transform="translate(10.587 30.781)" fill="#c69191"/><path d="M96.9,347.408a2.273,2.273,0,0,1,1.955,1.854A3.305,3.305,0,0,1,96.9,351.25a3.455,3.455,0,0,1-1.078.185,3.112,3.112,0,0,1-2.056-.741,3.206,3.206,0,0,0,.539-1.314A2.32,2.32,0,0,1,96.9,347.408Z" transform="translate(60.703 188.731)" fill="#497ea9"/><path d="M101.749,168.53v5.291c-3.859,1.533-10.4,4.92-12.874,9.554l-.472-.27a2.289,2.289,0,0,0-3.353-3.016C89.819,172.507,101.041,168.783,101.749,168.53Z" transform="translate(54.73 66.21)" fill="#e84436"/><path d="M97.929,350.885a2.941,2.941,0,0,0,.253.219c-1.584,2.528-6.521,5.207-10.852,6.858l.084-11.172C91.677,347.06,95.384,348.29,97.929,350.885Z" transform="translate(56.292 188.321)" fill="#1d71b8"/><path d="M89.257,347.632v.185a32.469,32.469,0,0,0-4.617,0v-.236a2.309,2.309,0,1,1,4.617.051Z" transform="translate(54.449 187.294)" fill="#497ea9"/><path d="M89.3,346.823,89.221,358c-.741.3-1.449.556-2.14.792a2.29,2.29,0,0,0-1.584,2.19H84.57l.118-14.154A32.469,32.469,0,0,1,89.3,346.823Z" transform="translate(54.401 188.288)" fill="#c69191"/><path d="M88.844,353.42l-.051,4.954c-.27.1-.489.169-.657.236a3.26,3.26,0,0,1-.708.1,2.342,2.342,0,0,1-2.207-1.6,2.478,2.478,0,0,1-.1-.708,2.29,2.29,0,0,1,1.584-2.19C87.395,353.976,88.1,353.723,88.844,353.42Z" transform="translate(54.778 192.863)" fill="#c69191"/><path d="M89.211,357.161l-.067,6.673a2.268,2.268,0,0,0-1.837,1.365,2.335,2.335,0,0,0,.893,2.9,2.447,2.447,0,0,0,.32.489,2.294,2.294,0,0,1-1.7.758H86.8a2.309,2.309,0,0,1-2.292-2.308l.1-11.846h.927a2.479,2.479,0,0,0,.1.708,2.342,2.342,0,0,0,2.207,1.6,3.26,3.26,0,0,0,.708-.1C88.723,357.33,88.942,357.263,89.211,357.161Z" transform="translate(54.36 194.075)" fill="#c69191"/><path d="M88.086,361.516v.017a2.266,2.266,0,0,0-.944,3.05,2.335,2.335,0,0,1-.893-2.9,2.268,2.268,0,0,1,1.837-1.365Z" transform="translate(55.418 197.589)" fill="#c69191"/><path d="M87.747,361.04l-.017,2.005a2.265,2.265,0,0,1-.4,1.281c-.067-.017-.152-.067-.219-.084-.1-.051-.219-.118-.3-.152a2.266,2.266,0,0,1,.944-3.05Z" transform="translate(55.757 198.083)" fill="#c69191"/><path d="M88.879,175.689a2.317,2.317,0,0,1,.4,2.915c-.084.135-.185.236-.27.354-.067.067-.843.91-2.14,2.443-.27.3-.556.623-.859.994-.337.388-.674.792-1.062,1.247-.3.371-.64.775-.994,1.2a12.148,12.148,0,0,1,.017-4.415,12.789,12.789,0,0,1,1.955-4.836A2.3,2.3,0,0,1,88.879,175.689Z" transform="translate(53.85 70.711)" fill="#e84436"/><path d="M87.222,363.086c-.067.1-.135.169-.2.253a2.445,2.445,0,0,1-.32-.489c.084.034.2.1.3.152C87.071,363.019,87.155,363.069,87.222,363.086Z" transform="translate(55.86 199.322)" fill="#c69191"/><path d="M108.212,175.643a1.509,1.509,0,0,1,.32-.253,12.79,12.79,0,0,0-1.955,4.836,12.148,12.148,0,0,0-.017,4.415C93.249,200.7,58.066,246.734,56.01,287.764c-.1,1.837-.135,3.656-.084,5.476a61.232,61.232,0,0,0,1.466,12.317c.034.185,3.421.977,7.481,2.595.354.152.725.32,1.112.472.522.219,1.045.472,1.567.708.421.2.843.4,1.281.623.135.067.286.152.438.219a25.377,25.377,0,0,1,4.684,3.1c-.3,1.668-.623,3.319-.927,4.988-15.435-8.29-20.355-9.335-20.692-10.885-5.308-23.472,2.966-53.685,23.523-87.739A312.44,312.44,0,0,1,108.212,175.643Z" transform="translate(31.248 70.909)" fill="#e84436"/><path d="M84.545,347.03a3.546,3.546,0,0,1,.034.421l-.219,26.236a2.308,2.308,0,0,1-2.308,2.292h-.017a2.349,2.349,0,0,1-2.089-1.4v-.034c.337-.034.607-.084.792-.1a2.308,2.308,0,0,0-.388-4.6c-.1.017-.286.034-.59.067l.067-7.465c.236.017.455.051.691.067h.135a2.3,2.3,0,0,0,.152-4.6,8.712,8.712,0,0,1-.927-.118l.084-9.891C81.5,347.552,83.029,347.249,84.545,347.03Z" transform="translate(51.106 188.486)" fill="#c69191"/><path d="M80.777,353.538a2.3,2.3,0,0,1-.152,4.6h-.135c-.236-.017-.455-.051-.691-.067l.051-4.651A8.7,8.7,0,0,0,80.777,353.538Z" transform="translate(51.134 192.863)" fill="#c69191"/><path d="M82.834,362.678a2.291,2.291,0,0,1-2.089,2.494c-.185.017-.455.067-.792.1a2.007,2.007,0,0,1-.2-.91l.017-3.724c.3-.034.489-.051.59-.067A2.292,2.292,0,0,1,82.834,362.678Z" transform="translate(51.099 197.758)" fill="#c69191"/><path d="M82.222,345.9a2.326,2.326,0,0,1,2.241,1.9c-1.517.219-3.05.522-4.583.876v-.489a2.319,2.319,0,0,1,2.308-2.292Z" transform="translate(51.189 187.711)" fill="#497ea9"/><path d="M83.689,347.55l-.084,9.891c-4.128-.708-7.38-4.28-9.284-6.959A71.9,71.9,0,0,1,83.689,347.55Z" transform="translate(47.38 188.842)" fill="#1d71b8"/><path d="M86.16,357.071l-.051,4.651c-9.537-1.129-15.081-12.267-15.3-12.722a1.957,1.957,0,0,1-.219-.91,3.821,3.821,0,0,0,1.533,2.123,3.678,3.678,0,0,0,3.555.388c.4-.168.792-.32,1.2-.489C78.779,352.791,82.031,356.363,86.16,357.071Z" transform="translate(44.825 189.212)" fill="#497ea9"/><path d="M76.878,351.1c-.4.169-.792.32-1.2.489a3.678,3.678,0,0,1-3.555-.388,3.821,3.821,0,0,1-1.533-2.123,2.289,2.289,0,0,1,1.264-2.19,2.473,2.473,0,0,1,1.028-.236,2.285,2.285,0,0,1,2.056,1.314A28.915,28.915,0,0,0,76.878,351.1Z" transform="translate(44.822 188.225)" fill="#497ea9"/><path d="M78.546,222.717a2.27,2.27,0,0,1,1.8,2.342,2.289,2.289,0,0,0-1.8-2.106,2.356,2.356,0,0,0-2.763,1.786c-2.494,11.8-4.347,22.663-9.908,56.28a.483.483,0,0,1-.219.337c-.354-.27-.725-.539-1.1-.775,4.5-24.028,9.47-47.77,11.222-56.077A2.356,2.356,0,0,1,78.546,222.717Z" transform="translate(40.694 103.3)" fill="#ee7358"/><path d="M79.9,224.963a1.011,1.011,0,0,1-.034.388c-3.555,16.783-7.835,37.947-11.475,57.543l-1.533-.286c-.522-.472-1.078-.91-1.651-1.348a.483.483,0,0,0,.219-.337c5.561-33.616,7.414-44.484,9.908-56.28a2.356,2.356,0,0,1,2.763-1.786A2.289,2.289,0,0,1,79.9,224.963Z" transform="translate(41.139 103.396)" fill="#e84436"/><path d="M75.8,299.771l-.017,1.854c-1.331-.4-2.629-.809-3.842-1.213-.388-.118-.758-.236-1.112-.371v-.3a2.457,2.457,0,0,1,2.511-2.477,4.8,4.8,0,0,1,.489.051A2.514,2.514,0,0,1,75.8,299.771Z" transform="translate(44.989 154.392)" fill="#e84436"/><path d="M76.01,300.494l-.522,78.572-2.544.286a2.473,2.473,0,0,0-1.028.236,2.289,2.289,0,0,0-1.264,2.19A3.214,3.214,0,0,1,70.5,380.7l.556-81.791c.354.135.725.253,1.112.371C73.381,299.685,74.679,300.09,76.01,300.494Z" transform="translate(44.763 155.522)" fill="#497ea9"/><path d="M79.937,299.528l-.067.219c-8.257-2.645-14.289-5.072-16.682-6.555a2.273,2.273,0,0,1-.758-.792C64.031,293.815,70.552,296.545,79.937,299.528Z" transform="translate(39.235 151.063)" fill="#ee7358"/><path d="M81.83,306.275l-.286.893a4.8,4.8,0,0,0-.489-.051,2.457,2.457,0,0,0-2.511,2.477v.3c-17.153-5.645-18.2-8.341-18.552-9.234-.775-2.022-.438-8.088.607-16.5a2.39,2.39,0,0,0,1.668.708,2.433,2.433,0,0,0,.944-.236,2.253,2.253,0,0,0,1.331-1.769l.809.118c-.741,5.392-1.2,9.739-1.281,12.587-.034.842-.017,1.567.017,2.14a1.1,1.1,0,0,0,0,.236,1.835,1.835,0,0,0,.084.438.287.287,0,0,0,.017.118c.017.118.051.219.067.3a.967.967,0,0,0,.135.118,2.273,2.273,0,0,0,.758.792C67.541,301.2,73.574,303.629,81.83,306.275Z" transform="translate(37.275 144.535)" fill="#e84436"/><path d="M67.7,259.04l1.533.286c-.3,1.668-.607,3.336-.91,4.971l-.792-.152c-1.247-.691-2.426-1.331-3.555-1.938.3-1.668.623-3.32.927-4.988a6.533,6.533,0,0,1,.522.438.486.486,0,0,0,.623.034C66.625,258.13,67.182,258.568,67.7,259.04Z" transform="translate(40.297 126.964)" fill="#e84436"/><path d="M69.6,262.118l.792.152c-2.544,13.918-4.7,26.741-6,36.262l-.809-.118a2.433,2.433,0,0,0-.185-1.281,52.363,52.363,0,0,1-2.443-6.942c1.348-8.981,3.151-19.411,5.089-30.01C67.178,260.787,68.357,261.427,69.6,262.118Z" transform="translate(38.228 128.992)" fill="#e84436"/><path d="M64.581,257.04c.371.236.741.505,1.1.775a.487.487,0,0,1-.623-.034,6.533,6.533,0,0,0-.522-.438Z" transform="translate(40.673 126.841)" fill="#ee7358"/><path d="M66.485,258.177l-.051.3a25.375,25.375,0,0,0-4.684-3.1A40.6,40.6,0,0,1,66.485,258.177Z" transform="translate(38.769 125.704)" fill="#ee7358"/><path d="M69.658,99.26c0,4.887-2.865,8.273-5.409,8.391-2.022.084-5.729-4.162-5.729-9.015,0-4.87,3.707-8,5.729-8C67.282,90.195,69.658,94.39,69.658,99.26Z" transform="translate(36.557 12.827)"/><path d="M72.988,72.137,55.194,83.225c-1.887.067-3.724.1-5.544.152C55.615,72.71,69.752,70.4,70.46,70.3A2.222,2.222,0,0,1,72.988,72.137Z" transform="translate(30.48 -1.097)" fill="#eacf83"/><path d="M63.938,284.932a2.434,2.434,0,0,1,.185,1.281,2.253,2.253,0,0,1-1.331,1.769,2.434,2.434,0,0,1-.944.236,2.39,2.39,0,0,1-1.668-.708c.354-2.915.792-6.117,1.314-9.52A52.358,52.358,0,0,0,63.938,284.932Z" transform="translate(37.694 141.192)" fill="#e84436"/><path d="M62.337,292.354a1.835,1.835,0,0,1-.084-.438,1.1,1.1,0,0,1,0-.236A6.674,6.674,0,0,0,62.337,292.354Z" transform="translate(39.109 150.57)" fill="#ee7358"/><path d="M62.011,255.5c-.438-.219-.859-.421-1.281-.623A12.807,12.807,0,0,1,62.011,255.5Z" transform="translate(38.07 125.361)" fill="#e84436"/><path d="M61.367,255.168c-.522-.236-1.045-.489-1.567-.708C60.322,254.679,60.845,254.9,61.367,255.168Z" transform="translate(37.433 125.073)" fill="#e84436"/><path d="M62.777,260.242c-4.061-1.618-7.448-2.41-7.481-2.595A61.231,61.231,0,0,1,53.83,245.33,61.368,61.368,0,0,0,55.3,257.412C55.33,257.6,58.615,258.524,62.777,260.242Z" transform="translate(33.344 118.819)" fill="#ee7358"/><path d="M55.934,77.96a14.964,14.964,0,0,0-2.662,4.533l-4.4.1h-.3a19.355,19.355,0,0,1,1.82-4.482C52.21,78.061,54.046,78.027,55.934,77.96Z" transform="translate(29.741 4.168)" fill="#7d4e24"/><path d="M48.873,80.751l4.4-.1c-1.533.034-3.1.084-4.7.135v-.034Z" transform="translate(29.741 6.011)" fill="#7d4e24"/><path d="M53.5,80.65a16.65,16.65,0,0,0-.843,3.218,2.257,2.257,0,0,1-2.207,1.887c-.1,0-.219-.034-.32-.034a2.221,2.221,0,0,1-1.87-2.528,17.943,17.943,0,0,1,.539-2.41C50.4,80.734,51.968,80.684,53.5,80.65Z" transform="translate(29.511 6.011)" fill="#7d4e24"/><path d="M22.1,117.147l.691-.337a4.725,4.725,0,0,1-.506,1.011A1.823,1.823,0,0,0,22.1,117.147Z" transform="translate(11.608 30.781)" fill="#c69191"/><path d="M27.682,127.113l-.691.337a2.309,2.309,0,0,0-2.241-1.281,19.614,19.614,0,0,1-2.494-.118c-2.443-5.426-6.841-22.192-7.3-23.523l2.342.489,1.264-1.247c.455.994.893,1.9,1.314,2.747a.052.052,0,0,1,.017.034c.2.843.4,1.736.607,2.612a19.817,19.817,0,0,0,1.432,6.2c.017.034.017.067.034.1a.266.266,0,0,1,.017.067A145.4,145.4,0,0,0,27.682,127.113Z" transform="translate(6.717 20.478)" fill="#c69191"/><path d="M23.49,117.579a2.3,2.3,0,0,1-2.123,2.46c-.067,0-.27.034-.607.034-.135-.253-.253-.506-.371-.758a3.823,3.823,0,0,0,3.067-1.9A.6.6,0,0,1,23.49,117.579Z" transform="translate(10.437 31.192)" fill="#c69191"/><path d="M24.025,117.579a1.823,1.823,0,0,1,.185.674,3.823,3.823,0,0,1-3.067,1.9c-.674-1.4-1.281-2.73-1.854-3.977a19.61,19.61,0,0,0,2.494.118A2.309,2.309,0,0,1,24.025,117.579Z" transform="translate(9.683 30.349)" fill="#c69191"/><path d="M23.548,112.058c.455,1.331-.522,8.1,1.921,13.514a145.4,145.4,0,0,1-5.7-13.581.266.266,0,0,0-.017-.067c-.118-.472-.775-3.353-1.466-6.3-.051-.522-.084-1.062-.1-1.6,1.618,3.269,2.7,5.106,2.763,5.24Z" transform="translate(8.93 22.019)" fill="#f3c8bb"/><path d="M32.922,136.618c.118.253.236.506.371.758h-.219c-3.37,0-16.362-1.011-26.876-15.6-3.589-5.038-4.836-10.127-3.69-15.131,1.736-7.4,8.223-12.419,11.357-14.491.421,1.3.826,2.528,1.23,3.741-4.448,2.982-9.756,7.01-10.5,10.279-.876,3.69.118,7.515,2.932,11.391C13.713,126.187,26.367,137.292,32.922,136.618Z" transform="translate(-2.095 13.888)" fill="#c69191"/><path d="M32.031,135.1c-6.555.674-19.209-10.43-25.393-19.058-2.814-3.876-3.808-7.7-2.932-11.391.741-3.269,6.049-7.3,10.5-10.279.084.27.185.539.27.809-2.763,2.005-7.2,5.9-8.341,10.986-.876,3.673.135,7.5,2.932,11.391C16.8,128.323,25.88,130.648,30.177,131.12,30.75,132.367,31.357,133.7,32.031,135.1Z" transform="translate(-1.204 15.409)" fill="#c69191"/><path d="M19.716,111.272c-.017-.034-.017-.067-.034-.1a19.817,19.817,0,0,1-1.432-6.2C18.941,107.919,19.6,110.8,19.716,111.272Z" transform="translate(8.971 22.67)" fill="#f3c8bb"/><path d="M18.5,106.032c-.2-.876-.4-1.769-.607-2.612q.253.531.506,1.011C18.412,104.97,18.446,105.509,18.5,106.032Z" transform="translate(8.724 21.608)" fill="#f3c8bb"/><path d="M18.414,105.03c-.421-.843-.859-1.752-1.314-2.747l.337-.337c.034-.286.034-.59.051-.927C17.5,101.037,17.909,102.806,18.414,105.03Z" transform="translate(8.183 19.964)" fill="#c69191"/><path d="M25.5,108.36l-1.264,1.247-2.342-.489c.455,1.331,4.853,18.1,7.3,23.523-4.3-.472-13.379-2.8-21.113-13.564-2.8-3.892-3.808-7.717-2.932-11.391C6.29,102.6,10.722,98.7,13.485,96.7c1.365-.944,2.342-1.483,2.359-1.5a2.23,2.23,0,0,0,1.18-1.786V93.4c.809-.506,1.449-.944,1.887-1.247C21.2,98.688,23.562,104.181,25.5,108.36Z" transform="translate(-0.216 13.888)" fill="#f3c8bb"/><path d="M14.118,93.919h0c-1.062.691-2.393,1.533-3.808,2.494-.4-1.213-.809-2.443-1.23-3.741.944-.623,1.567-.944,1.685-1.011a2.338,2.338,0,0,1,2.73.388s.017,0,.017.034C13.714,92.706,13.916,93.313,14.118,93.919Z" transform="translate(2.689 13.366)" fill="#936037"/><path d="M13.618,92.9a2.23,2.23,0,0,1-1.18,1.786c-.017.017-.994.556-2.359,1.5-.084-.27-.185-.539-.27-.809C11.225,94.417,12.557,93.574,13.618,92.9Z" transform="translate(3.189 14.402)" fill="#936037"/></g><ellipse cx="11.306" cy="11.913" rx="11.306" ry="11.913" transform="translate(84.586 184.226)" fill="#ee7358"/><ellipse cx="11.306" cy="11.913" rx="11.306" ry="11.913" transform="translate(220.399 183.35)" fill="#ee7358"/><path d="M72.83,302.21s24.955,6.976,41.687,9.3" transform="translate(49.905 207.022)" fill="#497ea9" stroke="#497ea9" stroke-linejoin="round" stroke-miterlimit="10" stroke-width="5.113"/><path d="M89.446,347.921c-2.662-.927-7.936.168-7.936.168l.253,27.365s5.78,1.55,7.111-.859C89.918,372.674,89.446,347.921,89.446,347.921Z" transform="translate(55.851 238.08)" fill="#f3c8bb" stroke="#c69191" stroke-miterlimit="10" stroke-width="1.563"/><path d="M103.58,308.531s32.015,1.921,40.98-1.281" transform="translate(70.969 210.475)" fill="#497ea9" stroke="#497ea9" stroke-miterlimit="10" stroke-width="3.954"/><path d="M96.62,161.782s4.432,1.769,13.093-.2" transform="translate(66.202 110.688)" fill="#c69191" stroke="#c69191" stroke-miterlimit="10" stroke-width="2.636"/><path d="M216.919,32.352c-2.241,13.16-17,58.74-44.265,66.407A22.051,22.051,0,0,0,162,105.4c-6.622,7.5-20.237,19.967-38.4,21.282a22.553,22.553,0,0,0-12.756,5.291c-7.01,5.864-19.9,14.272-34.964,12.991-10.565-.893-20.17,5.982-23.624,16.008-1.584,4.6-.371,11.526-6.824,12.166l-7.3.741a22.731,22.731,0,0,1-22.8-12.84c-8-16.833-17.423-61.368-2.073-75.91,12.4-11.745,19.445-17.2,24.113-19.563a22.965,22.965,0,0,0,11.576-14.2c3.555-12.317,11.273-29.151,26.96-30.2a22.508,22.508,0,0,0,13.042-5.24c7.9-6.673,24.129-7.027,39.75-3.741a23.091,23.091,0,0,0,18.4-3.606c7.3-5.274,16.951-2.865,28.123,1.752a22.236,22.236,0,0,0,12.351,1.213c9.537-1.685,25.629-2.224,29.151,12.2A20.876,20.876,0,0,1,216.919,32.352Z" transform="translate(3.479 3.829)" fill="#f3db8c" stroke="#eacf83" stroke-linecap="round" stroke-linejoin="round" stroke-miterlimit="10" stroke-width="3"/><path d="M133.041,16.05s36.413,9.3,42.361,27.2,5.948,25.023,5.948,25.023,13.935-3.64,19.176,20.844,3.707,29.336,3.707,29.336,9.234,38.149-3.707,36.733-20.069-32.689-16.513-36.194c0,0-28.308-2.612-32.858-23.1l-4.55-20.473s-13.531,4.095-24.365-8.375" transform="translate(83.752 10.998)" fill="#f3db8c" stroke="#eacf83" stroke-linecap="round" stroke-linejoin="round" stroke-miterlimit="10" stroke-width="3"/><g transform="translate(102.641 611.043)"><g transform="translate(0)"><path d="M108.33,372.03c.354,2.612.775,5.881.775,5.881-20.894,6-46.86.809-47.686,0-.809-.826-.421-5.881-.421-5.881s16.26,4.465,31.409,3.707C98.2,375.451,103.831,374.389,108.33,372.03Z" transform="translate(-60.905 -356.193)" fill="#ee7358"/><path d="M96.448,378.069v.051c-4.5,2.359-10.127,3.421-15.923,3.707v-.034c-.286-5.476-1.449-8.492-2.275-9.958,2.8,1.1,2.511-1.938,2.511-1.938v-.017a1.52,1.52,0,0,0,.927.32c.691-.1.792-.674.708-1.23a3.082,3.082,0,0,0-.1-.421c1.062.371,2.308-.4,1.8-1.466C83.12,364.977,80.1,364.1,80.1,364.1l-.1-.219,1.55-.741c4.061,2.949,10.868,0,10.868,0A39.2,39.2,0,0,1,96.448,378.069Z" transform="translate(-49.023 -362.283)" fill="#ee7358"/><path d="M84.248,366.782c.506,1.062-.741,1.837-1.8,1.466h-.017a2.754,2.754,0,0,0-.809-1.2,18.01,18.01,0,0,0-3.589-2.443l2.123-1.028.1.219S83.27,364.675,84.248,366.782Z" transform="translate(-49.174 -361.981)" fill="#fff"/><path d="M84.615,368.251c.084.556-.017,1.129-.708,1.23a1.52,1.52,0,0,1-.927-.32c-1.786-1.028-4.937-4.364-7.97-4.735l5.089-.236a18.007,18.007,0,0,1,3.589,2.443,2.754,2.754,0,0,1,.809,1.2h.017A3.082,3.082,0,0,1,84.615,368.251Z" transform="translate(-51.243 -361.563)" fill="#fff"/><path d="M82.98,369.082s.286,3.033-2.511,1.938a5.3,5.3,0,0,0-.826-1.2,42.592,42.592,0,0,0-4.634-5.493c3.033.371,6.184,3.707,7.97,4.735v.017Z" transform="translate(-51.243 -361.467)" fill="#ee7358"/><path d="M92.369,382.142v.034c-15.148.758-31.409-3.707-31.409-3.707s3.4-14.575,15.131-15.7a26.961,26.961,0,0,1,3.64-.118h.084c.135.017.27.017.4.034,1.348.2,2.932,1.382,4.4,2.814h.017a42.587,42.587,0,0,1,4.634,5.493,5.3,5.3,0,0,1,.826,1.2C90.92,373.649,92.082,376.665,92.369,382.142Z" transform="translate(-60.867 -362.631)" fill="#ee7358"/><path d="M81.893,365.238l-5.089.236h-.017c-1.466-1.432-3.05-2.612-4.4-2.814A22.818,22.818,0,0,1,81.893,365.238Z" transform="translate(-53.037 -362.611)" fill="#fff"/></g><g transform="translate(0 0)"><path d="M84.514,367.734a3.08,3.08,0,0,1,.1.421c.084.556-.017,1.129-.708,1.23a1.52,1.52,0,0,1-.927-.32c-1.786-1.028-4.937-4.364-7.97-4.735" transform="translate(-51.243 -361.467)" fill="none" stroke="#e84436" stroke-linecap="round" stroke-linejoin="round" stroke-miterlimit="10" stroke-width="1.5"/><path d="M72.15,362.64c.135.017.27.017.4.034a22.818,22.818,0,0,1,9.5,2.578,18.008,18.008,0,0,1,3.589,2.443,2.754,2.754,0,0,1,.809,1.2" transform="translate(-53.202 -362.625)" fill="none" stroke="#e84436" stroke-linecap="round" stroke-linejoin="round" stroke-miterlimit="10" stroke-width="1.5"/><path d="M108.292,378.468c-4.5,2.359-10.127,3.421-15.923,3.707-15.148.758-31.409-3.707-31.409-3.707s3.4-14.575,15.131-15.7a26.971,26.971,0,0,1,3.64-.118" transform="translate(-60.867 -362.631)" fill="none" stroke="#e84436" stroke-linecap="round" stroke-linejoin="round" stroke-miterlimit="10" stroke-width="1.5"/><path d="M78.03,364.909l2.123-1.028,1.55-.741c4.061,2.949,10.868,0,10.868,0A39.2,39.2,0,0,1,96.6,378.069" transform="translate(-49.174 -362.283)" fill="none" stroke="#e84436" stroke-linecap="round" stroke-linejoin="round" stroke-miterlimit="10" stroke-width="1.5"/><line y1="0.236" x2="5.089" transform="translate(23.767 2.627)" stroke-width="1.5" stroke="#e84436" stroke-linecap="round" stroke-linejoin="round" stroke-miterlimit="10" fill="none"/><path d="M72.1,362.64h.084a3.284,3.284,0,0,1,.4.034c1.348.2,2.932,1.382,4.4,2.814H77a42.587,42.587,0,0,1,4.634,5.493,5.3,5.3,0,0,1,.826,1.2c.826,1.466,1.988,4.482,2.275,9.958" transform="translate(-53.236 -362.625)" fill="none" stroke="#e84436" stroke-linecap="round" stroke-linejoin="round" stroke-miterlimit="10" stroke-width="1.5"/><path d="M61,373.318s-.388,5.055.421,5.881c.826.809,26.792,6,47.686,0,0,0-.421-3.269-.775-5.881v-.051c-.236-1.7-.421-3.117-.438-3.117" transform="translate(-60.905 -357.481)" fill="none" stroke="#e84436" stroke-linecap="round" stroke-linejoin="round" stroke-miterlimit="10" stroke-width="1.5"/><path d="M80.761,367.15s.286,3.033-2.511,1.938" transform="translate(-49.023 -359.536)" fill="none" stroke="#e84436" stroke-linecap="round" stroke-linejoin="round" stroke-miterlimit="10" stroke-width="1.5"/><path d="M79.35,363.71s3.016.876,3.993,2.982c.506,1.062-.741,1.837-1.8,1.466h-.017" transform="translate(-48.27 -361.892)" fill="none" stroke="#e84436" stroke-linecap="round" stroke-linejoin="round" stroke-miterlimit="10" stroke-width="1.5"/></g></g><g transform="translate(190.658 347.117)"><path d="M124.059,216.835l-.522,5.476-10.4.809c.051-2.865.1-5.729.169-8.56s.135-5.7.236-8.56h6.42c-.185,1.8-.371,3.606-.539,5.392-.169,1.8-.3,3.606-.371,5.443.388.017.775.017,1.146.017h1.146c.455,0,.91,0,1.365-.017Z" transform="translate(-113.14 -206)" fill="#fff"/></g><g transform="translate(227.016 58.786)"><path d="M134.773,36.528a25.2,25.2,0,0,0,9.049,11.256,26.193,26.193,0,0,0,6.572,3.319c1.078.371,2.763.421,3.707.994.876.522.32,2.645.32,3.623-.152,11.155,7.852,20.422,19.159,20.945.944.051,3.656.236,4.128-.893.489-1.112-1.719-1.432-2.376-1.449-4.752-.219-8.863-3.488-11.273-7.414a19.563,19.563,0,0,1-2.645-7.431,24.185,24.185,0,0,1-.253-3.825c.017-1.146.388-2.477.017-3.589-.691-2.056-3.741-2.005-5.476-2.544a21.778,21.778,0,0,1-6.066-3.033A23.935,23.935,0,0,1,141.277,35.8c-.64-1.533-7.229-1.045-6.5.725Z" transform="translate(-134.717 -34.886)" fill="#eacf83"/></g><g transform="translate(143.049 48.785)"><path d="M89.847,76.383a23.07,23.07,0,0,0,14.862-.893,22.391,22.391,0,0,0,6.454-4.044c1.938-1.752,3.269-4.2,5.443-5.662,2.308-1.55,5.493-1.415,8.122-2.123a31.2,31.2,0,0,0,7.869-3.353A27.567,27.567,0,0,0,143.549,48.7c2.426-5.207,2.747-11.239-.826-15.974a14.668,14.668,0,0,0-3.471-3.05c-.286-.2-2.123-1.331-1.331-.286,4.128,5.443,2.106,13.126-1.466,18.316a30.584,30.584,0,0,1-16.311,11.526c-3.134.927-6.909.657-9.5,2.881-2.561,2.191-4.246,5.038-7.094,6.976A22.563,22.563,0,0,1,84.977,72.12c-.522-.152,1.348,1.82,1.466,1.921a10.779,10.779,0,0,0,3.4,2.342Z" transform="translate(-84.885 -28.95)" fill="#eacf83"/></g><g transform="translate(27.884 94.218)"><path d="M82.29,56.413c.135,5.392.051,11.829-3.437,16.294-4.516,5.78-11.829,4.061-18.047,3.016-2.8-.472-6.588-1.432-9.032.539-2.41,1.938-3.623,5.881-4.988,8.543-1.517,2.966-2.865,6.588-5.931,8.307-2.763,1.533-6.69,1.618-9.706.96-6.605-1.466-10.211-9.672-6.605-15.435.59-.927-5.459-3.421-6.5-1.736-3.791,6.049.152,13.345,5.7,16.614,6.049,3.572,15.452,5.274,22.107,2.41,3.64-1.567,5.224-4.971,6.925-8.324.96-1.887,1.921-3.774,2.881-5.645.859-1.685,1.786-3.96,3.96-4.044,1.752-.067,3.758.623,5.493.91a59.571,59.571,0,0,0,6,.775c3.623.253,7.4-.017,10.616-1.837C88.508,73.921,89,65.057,88.828,58.149c-.067-1.955-6.555-2.881-6.538-1.736Z" transform="translate(-16.539 -55.913)" fill="#eacf83"/></g><g transform="translate(72.645 39.976)"><path d="M108.864,26.111a61.442,61.442,0,0,0-25.309-1.8c-3.471.489-7.111.927-8.324,4.684-1.314,4.061-2.224,8.307-3.319,12.435l6.3-.556c-6.639-6.706-18.822-4.027-24.012,3.016-2.966,4.01-4.179,9.082-4.735,13.952-.32,2.848-.438,5.712-.64,8.56a39.186,39.186,0,0,1-.421,4.213,6.559,6.559,0,0,1-.691,2.174c-.118.185-.236.371-.371.573-1.045.758-.556,1.011,1.483.758a6.239,6.239,0,0,0-4.769-.152c-1.112.522-1.4,1.584-.067,2.123,4.5,1.854,9.807.522,11-4.6,1.264-5.409.674-11.189,1.668-16.682.809-4.432,2.561-9.116,6.016-12.166,3.033-2.662,6.656-3.471,9.655-.438,1.2,1.2,5.763,1.449,6.3-.556.809-3.067,1.634-6.15,2.443-9.217.32-1.2.522-3.286,1.4-4.229.96-1.028,3-.977,4.3-1.129A48.1,48.1,0,0,1,105.359,28.6c1.314.371,3.5.573,4.634-.388s-.135-1.82-1.129-2.106Z" transform="translate(-43.103 -23.723)" fill="#eacf83"/></g><g transform="translate(167.163 25.604)"><path d="M104.477,25.382c5.51-3.656,12.907-8.88,19.546-4.718,2.966,1.854,5.122,4.448,8.947,4.33a12.976,12.976,0,0,0,5.409-1.533,5.08,5.08,0,0,0,1.247-.623c.489-.169.388-.185-.354-.067-.674-.034-.842,0-.489.118.1.64.977.185.522,1.213-.623,1.415,2.022,1.736,2.8,1.685a4.265,4.265,0,0,0,3.758-2.174c.725-1.651-.455-3.117-1.87-3.876a8.126,8.126,0,0,0-6.605-.084,19.991,19.991,0,0,1-2.848,1.365c-.64.135.253.219-.607-.152a7.332,7.332,0,0,1-1.247-.775c-1.786-1.247-3.319-2.679-5.358-3.522-9.419-3.943-19.142,1.331-26.876,6.47-.994.657-1.9,1.837-.623,2.713,1.213.826,3.539.371,4.651-.371Z" transform="translate(-99.196 -15.193)" fill="#eacf83"/></g><g transform="translate(216.425 9.319)"><path d="M135.27,21.993a5.225,5.225,0,0,1-.27-1.887c0-.388.017-.758.051-1.146.017-.185.051-.388.067-.573-.034.219-.017.169.051-.169a17.017,17.017,0,0,1,1.432-3.741,19.421,19.421,0,0,1,1.112-1.769c.219-.32.455-.607.674-.927.219-.27.219-.286.017-.034a4.209,4.209,0,0,1,.388-.388c.286-.236.27-.253-.051-.017a4.642,4.642,0,0,1,.489-.286c-.893.438.64-.118-.32.118a13.859,13.859,0,0,1,2.359-.27c.118,0,1.331-.034.691-.034.4,0,.826.017,1.23.051a8.4,8.4,0,0,1,.91.118c-.506-.1.573.219.674.253.337.135.371.152.118.051a3.808,3.808,0,0,1,.438.27,3.957,3.957,0,0,1,.421.32c-.2-.169-.185-.152.051.067.152.2.32.4.472.607.169.27.185.286.034.067a3.928,3.928,0,0,1,.185.472,4.139,4.139,0,0,1,.135.489c-.051-.27-.051-.253-.034.051-.034.32-.017.337.034.051a2.18,2.18,0,0,1-.135.438c.2-.371.219-.421.067-.152-.2.27-.152.2.152-.169-.438.489.623-.4.067-.034-.32.169-.219.135.286-.118a2.387,2.387,0,0,1-.371.118c.573-.118.674-.152.32-.1.539,0,.623,0,.286-.017-.32-.051-.236-.034.236.051-.286-.1-.219-.067.185.1-.236-.169-.2-.135.1.135a1.452,1.452,0,0,1-.236-.3c-.944-1.331-3.286-1.146-4.5-.337-1.281.826-2.191,2.359-1.2,3.758,2.191,3.084,7.094,2.106,9.487-.152a5.6,5.6,0,0,0,1.769-4.583,7.072,7.072,0,0,0-2.645-4.7c-2.848-2.41-7.178-2.342-10.666-1.9a9.893,9.893,0,0,0-5.83,2.595,18.827,18.827,0,0,0-3.1,4.246c-2.005,3.555-3.168,7.549-2.022,11.576.455,1.584,2.73,1.837,4.027,1.331,1.449-.539,2.831-1.854,2.359-3.522Z" transform="translate(-128.432 -5.529)" fill="#eacf83"/></g><g transform="translate(212 7.117)"><path d="M126.6,8.313c-.168-.051.067.017.118.051a3.566,3.566,0,0,1,.354.185,4.55,4.55,0,0,1,.657.455,5.562,5.562,0,0,1,.91,1.146,15.5,15.5,0,0,1,1.5,3.522,34.945,34.945,0,0,1,1.634,8.914c.067,1.365,2.174.792,2.932.472a6.894,6.894,0,0,0,2.224-1.365c.371-.371.977-.927.944-1.5a37.974,37.974,0,0,0-1.887-9.975c-.876-2.612-2.106-5.173-4.971-5.948a4.015,4.015,0,0,0-2.089.354,7.078,7.078,0,0,0-2.224,1.365c-.725.708-1.55,1.955-.1,2.325Z" transform="translate(-125.806 -4.222)" fill="#eacf83"/></g><g transform="translate(217.63 22.262)"><path d="M129.152,14.979v2.477a1.674,1.674,0,0,0,.354.876,2.56,2.56,0,0,0,.725.809,3.627,3.627,0,0,0,1.112.623,4.326,4.326,0,0,0,1.281.388l.826.051a3.042,3.042,0,0,0,1.382-.337c.152-.118.32-.253.472-.371a1.365,1.365,0,0,0,.354-1.062V15.957a1.674,1.674,0,0,0-.354-.876,2.56,2.56,0,0,0-.725-.809,3.627,3.627,0,0,0-1.112-.623,4.326,4.326,0,0,0-1.281-.388l-.826-.051a3.042,3.042,0,0,0-1.382.337c-.152.118-.32.253-.472.371a1.345,1.345,0,0,0-.354,1.062Z" transform="translate(-129.147 -13.21)" fill="#eacf83"/></g><g transform="translate(4.99 66.555)"><path d="M36.868,39.722C31.189,44.76,24.517,49.309,17.3,51.837a20.418,20.418,0,0,1-4.583,1.1,10.331,10.331,0,0,1-2.393,0c-.185-.017-1.719-.539-1.82-.489-.034-.017-.051-.034-.084-.051q.657.733.354.253s-.371-1.129-.371-1.1a3.428,3.428,0,0,1,.573-2.393,3.3,3.3,0,0,1,1.55-1.281c.135-.051.994-.084,1.045-.152-.64-.539-1.3-1.062-1.938-1.6a1.89,1.89,0,0,1-.067.809c-.388,1.837,4.954,5.544,5.291,3.774.927-4.752-7.6-10.885-10.969-6.016C.37,49.781,7.565,55.982,11.93,57.3c5.173,1.567,10.515-.691,15.064-2.982A70.276,70.276,0,0,0,41.923,44.17c1.213-1.062-3.589-5.746-5.055-4.448Z" transform="translate(-2.952 -39.496)" fill="#eacf83"/></g><g transform="translate(265.032 116.865)"><path d="M157.989,82.945c-1.786,7.262-.067,14.794,3.64,21.164a52.343,52.343,0,0,0,6.47,8.678c2.089,2.308,4.55,5.645,7.818,6.184,7.633,1.247,13.329-6,15.62-12.385,1.281-3.555.489-6.285-2.089-8.914a22.784,22.784,0,0,1-5.594-9.5,40.119,40.119,0,0,1-1.415-12.823c.034-.944.59-1.887.64-2.747.051-.1.118-.185.168-.286-1.348.169-1.719.3-1.078.438,0,.017,1.045.607,1.1.64a3.616,3.616,0,0,1,.371,4.55c-.876,1.213.876,1.432,1.719,1.382a6.209,6.209,0,0,0,4.246-1.87c1.55-2.157,1.567-5.375-.758-7.06-2.544-1.837-6.47-.944-9,.421-3.084,1.651-3.842,4.145-3.808,7.481a43.8,43.8,0,0,0,1.415,11.93,24.026,24.026,0,0,0,5.072,9.1c1.23,1.382,2.73,2.511,3.117,4.432a9.113,9.113,0,0,1-1.045,5.426,27.55,27.55,0,0,1-2.814,4.752,12.192,12.192,0,0,1-.927,1.163c-.135.152-1.264.876-.607.725.573-.135-.4-.2-.539-.286a9.2,9.2,0,0,1-1.449-1.112,58.227,58.227,0,0,1-7.566-8.341c-5.207-6.959-8.476-15.755-6.336-24.45.472-1.8-5.9-.607-6.369,1.314Z" transform="translate(-157.279 -69.354)" fill="#eacf83"/></g><g transform="translate(255.317 45.352)"><path d="M152.031,30.7c3.1,4.432,6.5,8.762,9.284,13.4,2.258,3.758,1.921,8.139,3.724,12.031a10.46,10.46,0,0,0,4.263,4.735c1.854,1.045,3.336,1.213,4.2,3.3a46.946,46.946,0,0,1,1.955,7.246L177.525,80c.775,3.235,6.959,3.589,5.965-.506L181.417,70.9a48.93,48.93,0,0,0-1.955-7.246,11.974,11.974,0,0,0-4.213-5.51c-1.5-1.028-3.656-1.247-4.482-3.016a26.005,26.005,0,0,1-1.3-5.544,23.087,23.087,0,0,0-2.544-6.757c-2.78-4.9-6.42-9.419-9.655-14.036-.91-1.3-2.8-2.308-4.381-1.7a2.3,2.3,0,0,0-.859,3.606Z" transform="translate(-151.513 -26.913)" fill="#eacf83"/></g><g transform="translate(223.239 28.91)"><path d="M180.287,63.535c-.506-5.51-4.246-9.925-5.055-15.367a20.944,20.944,0,0,0-2.645-8.257,27.9,27.9,0,0,0-5.813-6.454c-8.88-7.616-19.782-11.93-30.6-16.008-1.3-.489-3.151-.522-3.623,1.112-.438,1.533,1.146,3.252,2.46,3.741,9.5,3.589,19.26,7.212,27.247,13.649a23.488,23.488,0,0,1,4.785,4.887c1.584,2.342,1.752,4.87,2.224,7.566.859,4.87,4.381,8.947,4.819,13.834.3,3,6.538,5.072,6.2,1.3Z" transform="translate(-132.476 -17.155)" fill="#eacf83"/></g><g transform="translate(8.419 80.824)"><path d="M19.129,49.1A68.474,68.474,0,0,0,4.992,90.133c-.169,15.805,4.566,31.24,10.346,45.782a3.773,3.773,0,0,0,4.061,2.426c1.483-.236,3.033-1.752,2.376-3.387-5.51-13.851-10.127-28.443-10.144-43.49a63.494,63.494,0,0,1,13.177-38.89c2.41-3.1-3.421-6.4-5.679-3.471Z" transform="translate(-4.987 -47.964)" fill="#eacf83"/></g><g transform="translate(27.364 24.654)"><path d="M20.223,68.719c5.24-4.095,10.548-8.24,15-13.227C39.7,50.471,42.33,44.977,44.74,38.76c2.207-5.7,5.426-10.885,10.312-14.66A29.052,29.052,0,0,1,71.4,18.523a7.581,7.581,0,0,0,3.774-1.8c.2-.152,2.275-2.123,1.449-2.089C63.578,15.22,50.4,22.9,43.156,33.755c-4.078,6.117-5.342,13.531-9.537,19.58C29.44,59.367,23.61,63.951,17.881,68.416c-.388.3-2.258,1.567-1.449,2.089.758.472,3.336-1.432,3.791-1.786Z" transform="translate(-16.231 -14.63)" fill="#eacf83"/></g><g transform="translate(38.634 13.956)"><path d="M27.875,62.318C38.709,54.736,40.007,41.2,47.455,31.145c1.668-2.241,3.724-4.448,6.386-5.459,3.741-1.432,8.071-1.331,12.014-1.719A45.636,45.636,0,0,0,78.56,20.985c4.027-1.618,7.768-3.825,11.643-5.763,9.284-4.634,19.748-3.909,29.808-3.235a7.573,7.573,0,0,0,4.4-1.432c.472-.32,2.056-1.7.556-1.8-9.672-.64-19.479-1.078-28.864,1.82C87.457,13.25,80.245,19.519,71.112,20.58c-8.863,1.045-17.676,1.3-24.989,7.144-5.055,4.044-7.92,10.06-10.481,15.856-2.848,6.437-5.577,14.137-11.593,18.35-.741.522-1.8,1.331-.556,1.8,1.112.438,3.5-.809,4.381-1.415Z" transform="translate(-22.919 -8.28)" fill="#eacf83"/></g><g transform="translate(82.557 14.658)"><path d="M55.312,22.2a76.182,76.182,0,0,0,14.12-5.173c4.229-2.056,8.341-4.937,13.126-5.544,1.752-.219-2.224-1.685-2.528-1.786a22.321,22.321,0,0,0-13.682.152c-4.128,1.432-7.734,4.01-11.273,6.521-.741.522,1.786,1.365,2.039,1.449a14.528,14.528,0,0,0,2.528.607c.4.051,1.247.253,1.6,0a57.676,57.676,0,0,1,9-5.594,22,22,0,0,1,4.92-1.668,16.347,16.347,0,0,1,2.561-.3,9.929,9.929,0,0,1,1.415.034c.741.084-.657-.219.522.135-.843-.59-1.685-1.18-2.528-1.786-4.937.64-9.032,3.3-13.413,5.459a74.561,74.561,0,0,1-14.575,5.392c-.843.219,1.938,1.415,2.039,1.449a7.472,7.472,0,0,0,4.128.657Z" transform="translate(-48.986 -8.697)" fill="#eacf83"/></g><g transform="translate(132.935 -0.004)"><path d="M98.778,10.079a40.806,40.806,0,0,1-7.987.017,9.443,9.443,0,0,1-1.415-.27c-.27-.067-.556-.152-.826-.236-.708-.185.32.152-.3-.1-.27-.1-.522-.219-.792-.337s-.741-.4-.219-.1c-.236-.152-.489-.286-.725-.438-.32-.2-.32-.185.034.051-.118-.084-.219-.169-.337-.27-.118-.084-.219-.185-.32-.27l.084.084c-.185-.2-.388-.4-.573-.623-.135-.169-.118-.152.034.051-.067-.1-.135-.2-.2-.32-.084-.152-.084-.152-.017,0a3.039,3.039,0,0,1-.135-.354c-.236-.691-.286-1.483.438-1.9a4.35,4.35,0,0,1,1.4-.421c.185-.034.59-.084.674-.084.472-.051.118.135-.051-.051a3.22,3.22,0,0,1-1.483-.994.585.585,0,0,1-.2-.32c-.168-.152.084.371.084.286.017.27-.1.489-.438.809-.371.354.034,1.247.2,1.55A5.084,5.084,0,0,0,87.471,7.5c1.112.64,2.713,1.314,3.774.3a3.011,3.011,0,0,0,.337-3.336A7.775,7.775,0,0,0,86.966.458C84.522-.4,79.771-.3,79,2.834c-.691,2.9,1.955,5.8,3.96,7.448a19.781,19.781,0,0,0,8.61,4.027,42.671,42.671,0,0,0,11.256.286c1.55-.1.826-1.938.2-2.629a5.465,5.465,0,0,0-4.246-1.887Z" transform="translate(-78.883 0.004)" fill="#eacf83"/></g><g transform="translate(14.203 145.115)"><path d="M62.745,90.316a29.782,29.782,0,0,0-13.868,11.037,28.4,28.4,0,0,0-3.589,7.785c-.843,2.8-1.466,6.218-4.145,7.886-2.275,1.415-5.325,1.348-7.9,1.432-2.713.084-5.847.152-8.1-1.618-2.528-1.988-3.96-5.712-5.342-8.509A118.9,118.9,0,0,1,15.059,97.36c-.691-1.87-6.673-2.359-6.639.084.118,7.38,4.55,13.413,9.133,18.822,4.6,5.409,10.6,10.565,18.2,7.633,2.831-1.1,5.122-3.892,8.071-4.583,1.651-.388,3.488.051,5.173-.168a10.334,10.334,0,0,0,4.465-1.6c4.87-3.235,5.291-9.84,7.65-14.71A24.392,24.392,0,0,1,77.657,89.609c1.2-.253,2.275-1.264,1.365-2.41-.96-1.2-3.235-1.213-4.566-.927a29.073,29.073,0,0,0-15.1,8.509,27.522,27.522,0,0,0-4.8,6.976c-1.163,2.46-1.82,5.106-2.78,7.65-.775,2.039-1.8,4.684-3.808,5.83-1.1.64-2.41.354-3.623.354a14.321,14.321,0,0,0-4.988.792c-2.73,1.011-4.785,3.168-7.414,4.33-2.426,1.078-4.752-1.769-6.251-3.387-4.954-5.342-10.447-11.812-10.565-19.462-2.207.034-4.432.051-6.639.084,2.258,6.032,4.819,12.334,8.425,17.693,3.319,4.937,8.931,6.437,14.626,6.487,5.173.051,11.458.1,15.738-3.235,4.229-3.3,4.263-9.571,6.706-14.036A25.583,25.583,0,0,1,67.311,93.2c1.365-.522,1.213-1.837.152-2.578a5.228,5.228,0,0,0-4.718-.3Z" transform="translate(-8.42 -86.119)" fill="#eacf83"/></g><g transform="translate(202.534 63.668)"><path d="M126.83,50.466C127.4,49,127.993,47.551,128.6,46.1a39.416,39.416,0,0,1,1.837-4.128c-.118.185-.219.388-.337.573a3.578,3.578,0,0,1,.539-.708c-.168.168-.354.32-.522.489.1-.084.219-.152.3-.236a1.6,1.6,0,0,1-.944.4.6.6,0,0,1,.169-.034c.27-.051.067-.017-.607.067.506,0-.927-.169-.421-.051.337.084.438.27-.337-.118a2.323,2.323,0,0,0,.337.135c-.051.034-.741-.455-.3-.152l.354.253c-.185-.152-.354-.32-.539-.472a3.3,3.3,0,0,1,.556.64l-.354-.556a4.664,4.664,0,0,1,.556,1.382c-.051-.2-.084-.421-.135-.623a9.183,9.183,0,0,1,.034,2.881,2.1,2.1,0,0,0,1.011,1.668,4.159,4.159,0,0,0,2.393.674,4.115,4.115,0,0,0,2.376-.725,2.32,2.32,0,0,0,.96-1.685,8.209,8.209,0,0,0-.455-4.415,6.281,6.281,0,0,0-4.415-3.4,6.128,6.128,0,0,0-6.167,1.887,10.349,10.349,0,0,0-1.2,2.258c-.32.725-.623,1.432-.927,2.157-.708,1.668-1.4,3.336-2.056,5.021-.59,1.5,1.1,2.7,2.393,2.9,1.466.219,3.522-.152,4.128-1.719Z" transform="translate(-120.188 -37.783)" fill="#eacf83"/></g><g transform="translate(78.638 133.847)"><path d="M46.812,94.257a31.315,31.315,0,0,0,11.02-1.3,41.012,41.012,0,0,0,12.1-5.527c1.348-.944,3.1-2.073,3.808-3.623a3.005,3.005,0,0,0-1.331-3.774c-1.6-1.011-3.488-.556-5.173-.051a18.674,18.674,0,0,0-7.077,3.539c-.337.286.455.185.438.185a8.582,8.582,0,0,0,1.955-.522,11.047,11.047,0,0,0,3.774-1.752c.2-.185.421-.337.623-.506,1.112-.91-4.246.843-2.578.994a3.751,3.751,0,0,1,1.6.4,3.39,3.39,0,0,1,1.719,2.41c.286,2.241-2.747,3.993-4.347,5.021q-.632.4-1.314.758c-.152.084-.3.152-.455.236-.084.051-.691.32-.354.169-.32.135-.388.135-.017.017.388-.118-.489.169-.1.034q-.657.2-1.314.354a23.991,23.991,0,0,1-6.942.438c-1.281-.1-2.831.691-3.993,1.18a7.939,7.939,0,0,0-1.82.893c-.1.067-.623.4-.219.421Z" transform="translate(-46.66 -79.432)" fill="#eacf83"/></g><g transform="translate(260.979 119.943)"><path d="M164.641,82.2c1.584.674,3.168.977,4.651-.067a3.486,3.486,0,0,0,1.449-3.336,5.982,5.982,0,0,0-2.393-3.859,19.533,19.533,0,0,0-4.634-2.831,10.131,10.131,0,0,0-3.117-.876,10.293,10.293,0,0,0-5.527,1.045c-.337.152-.185.354.034.623a7.236,7.236,0,0,0,1.584,1.281,13.032,13.032,0,0,0,2.292,1.23c.219.084.421.169.64.253a2.335,2.335,0,0,0,.893.168,9.309,9.309,0,0,1,5.443-1.011c.084.017.27.017.32.067-.1-.084-.286-.1-.034,0,.337.118-.051-.017-.169-.067a6.427,6.427,0,0,1-.96-.489,12.317,12.317,0,0,1-1.1-.725c-.506-.371.219.118-.135-.118-.219-.152,0,0,.067.067a2.139,2.139,0,0,1,.185.219c.034.034.2.286.084.1l.152.253a2.986,2.986,0,0,1,.253.522,3.876,3.876,0,0,1,.3,1.23c0-.067-.017-.152-.017-.219a3.487,3.487,0,0,1-1.921,3.387,1.839,1.839,0,0,0,.185-.1,3.823,3.823,0,0,1-1.028.32,1.275,1.275,0,0,1-.253.017c-.034,0-.286,0-.135.017.185.017-.118-.034-.118-.017-.1-.017-.084-.017.084.034a5.065,5.065,0,0,1,.539.185,3.431,3.431,0,0,0-1.55-.421c-.371.1-.135.421.034.623a7.76,7.76,0,0,0,1.584,1.281,18.911,18.911,0,0,0,2.309,1.213Z" transform="translate(-154.873 -71.18)" fill="#eacf83"/></g><g transform="translate(194.003 13.59)"><path d="M140.088,20.325c-6.3-6.605-14.693-13.682-24.517-12.014-1.078.185.1,2.123.388,2.612a10.4,10.4,0,0,0,1.584,2.073c.286.286.927,1.011,1.365.927,8.846-1.517,16.058,4.145,21.787,10.144.438.455,1.87,1.618,1.769.236-.1-1.4-1.449-3.016-2.376-3.977Z" transform="translate(-115.125 -8.063)" fill="#eacf83"/></g><g transform="translate(153.167 9.5)"><path d="M95.136,11.574c9.268-1.618,18.468,2.005,27.382,4.01,9.689,2.191,19.479,1.719,29.336,1.6,4.229-.051,4.263-5.628,0-5.594-5.038.051-10.076.2-15.115.118A65.142,65.142,0,0,1,122.1,9.653c-9.487-2.325-18.889-5.224-28.746-3.488A2.844,2.844,0,0,0,90.991,9.6c.522,1.736,2.595,2.241,4.145,1.971Z" transform="translate(-90.891 -5.636)" fill="#eacf83"/></g><g transform="translate(-0.022 137.799)"><path d="M8.575,85.034q.076,3.665.051,7.33c-.017,1.23-.034,2.443-.067,3.673-.017.59-.034,1.163-.067,1.752l-.051.96c0,.152-.135.859.017.2-.017.084-.034.169-.051.236-.1.337-.067.32.084-.051a1.257,1.257,0,0,0-.118.2,1.173,1.173,0,0,1,.371-.438,1.207,1.207,0,0,1,.607-.337c-.27.084-.27.084.034.017s.3-.067.017-.034c.135,0,.27.017.4.017-.1.084-.539-.067-.691-.084-.725-.1.573.236-.1-.034-.219-.084-.438-.169-.64-.27-.152-.067-.792-.438-.2-.067A10.393,10.393,0,0,1,7.059,97.3c-.253-.185.236.388-.051-.067-.169-.27-.354-.59-.152-.118-.084-.219-.152-.455-.236-.674.051.354.067.421.034.2a2.489,2.489,0,0,1-.017-.354c-.034-.556-.185.421.034-.135-.185.472-.084.2.1-.084a2.738,2.738,0,0,0-1.365-3.943,3.8,3.8,0,0,0-4.5,1.55C-1.08,96.627.352,100.435,3,102.39c2.612,1.921,6.487,3.033,9.419,1.146,3.185-2.039,2.7-6.3,2.763-9.588.067-3.185.067-6.369-.017-9.571-.034-3.977-6.69-3.1-6.588.657Z" transform="translate(0.022 -81.777)" fill="#eacf83"/></g><path d="M122.538,348.915c-1.2-.876-5.156,0-6.521.219a.867.867,0,0,0-.725.843l-.843,26.792a.888.888,0,0,0,.674.893c1.938.438,7.246,1.449,8.341-.505.944-1.719-.017-23.371-.185-27.415C123.263,349.336,122.875,349.168,122.538,348.915Z" transform="translate(78.415 238.755)" fill="#f3c8bb" stroke="#c69191" stroke-miterlimit="10" stroke-width="1.563"/><g transform="translate(186.85 611.821)"><path d="M158.987,372.5s.388,5.055-.421,5.864c-.826.826-26.792,6-47.686,0,0,0,.421-3.252.775-5.864,4.5,2.342,10.127,3.4,15.923,3.69C142.727,376.948,158.987,372.5,158.987,372.5Z" transform="translate(-110.88 -356.648)" fill="#ee7358"/><path d="M137.067,363.223c11.728,1.146,15.131,15.721,15.131,15.721s-16.26,4.448-31.409,3.69V382.6c.286-5.476,1.449-8.476,2.275-9.942a5.3,5.3,0,0,1,.826-1.2,42.7,42.7,0,0,1,4.651-5.51c1.466-1.415,3.067-2.612,4.415-2.814.135-.017.27-.017.4-.034h.067A30.014,30.014,0,0,1,137.067,363.223Z" transform="translate(-104.091 -363.093)" fill="#ee7358"/><path d="M128.644,364.79a42.7,42.7,0,0,0-4.651,5.51,5.3,5.3,0,0,0-.826,1.2c-2.8,1.1-2.511-1.938-2.511-1.938l-.017-.017C122.426,368.531,125.594,365.161,128.644,364.79Z" transform="translate(-104.194 -361.93)" fill="#ee7358"/><path d="M111.357,378.555a40.315,40.315,0,0,1,4.3-15.064s8.745,1.9,10.784-.1l1.5.91-.253.4s-3.016.876-3.993,2.982c-.506,1.062.741,1.837,1.8,1.466a3.082,3.082,0,0,0-.1.421c-.084.556.017,1.129.708,1.23a1.553,1.553,0,0,0,.91-.3l.017.017s-.286,3.033,2.511,1.938c-.826,1.466-1.988,4.465-2.275,9.942v.034c-5.8-.286-11.424-1.348-15.923-3.69C111.34,378.69,111.357,378.622,111.357,378.555Z" transform="translate(-110.565 -362.889)" fill="#ee7358"/><path d="M119.791,368.194a3.082,3.082,0,0,0-.1.421c-.084.556.017,1.129.708,1.23a1.553,1.553,0,0,0,.91-.3c1.786-1.011,4.954-4.381,8-4.752" transform="translate(-104.862 -361.93)" fill="none" stroke="#e84436" stroke-linecap="round" stroke-linejoin="round" stroke-miterlimit="10" stroke-width="1.5"/><path d="M124.131,364.65a18.5,18.5,0,0,0-3.572,2.443,2.855,2.855,0,0,0-.809,1.2" transform="translate(-104.804 -362.026)" fill="none" stroke="#e84436" stroke-linecap="round" stroke-linejoin="round" stroke-miterlimit="10" stroke-width="1.5"/><path d="M132.285,363.1c-.135.017-.27.017-.4.034a22.726,22.726,0,0,0-9.52,2.578" transform="translate(-103.016 -363.088)" fill="none" stroke="#e84436" stroke-linecap="round" stroke-linejoin="round" stroke-miterlimit="10" stroke-width="1.5"/><path d="M111.34,378.944c4.5,2.342,10.127,3.4,15.923,3.69,15.148.758,31.409-3.69,31.409-3.69s-3.4-14.575-15.131-15.721a30.039,30.039,0,0,0-3.64-.118" transform="translate(-110.565 -363.093)" fill="none" stroke="#e84436" stroke-linecap="round" stroke-linejoin="round" stroke-miterlimit="10" stroke-width="1.5"/><path d="M129.9,365.513h-.017l-1.955-1.213-1.5-.91c-2.039,2.005-10.784.1-10.784.1a40.315,40.315,0,0,0-4.3,15.064" transform="translate(-110.558 -362.889)" fill="none" stroke="#e84436" stroke-linecap="round" stroke-linejoin="round" stroke-miterlimit="10" stroke-width="1.5"/><path d="M133.428,363.1h-.067a3.285,3.285,0,0,0-.4.034c-1.348.2-2.949,1.4-4.415,2.814a42.7,42.7,0,0,0-4.651,5.51,5.3,5.3,0,0,0-.826,1.2c-.826,1.466-1.988,4.465-2.275,9.942" transform="translate(-104.091 -363.088)" fill="none" stroke="#e84436" stroke-linecap="round" stroke-linejoin="round" stroke-miterlimit="10" stroke-width="1.5"/><path d="M158.987,373.795s.388,5.055-.421,5.864c-.826.826-26.792,6-47.686,0,0,0,.421-3.252.775-5.864,0-.051.017-.118.017-.185.219-1.651.388-3,.4-3" transform="translate(-110.88 -357.943)" fill="none" stroke="#e84436" stroke-linecap="round" stroke-linejoin="round" stroke-miterlimit="10" stroke-width="1.5"/><path d="M120.653,367.62s-.286,3.033,2.511,1.938" transform="translate(-104.191 -359.991)" fill="none" stroke="#e84436" stroke-linecap="round" stroke-linejoin="round" stroke-miterlimit="10" stroke-width="1.5"/><path d="M122.711,364.17s-3.016.876-3.993,2.982c-.506,1.062.741,1.837,1.8,1.466h.017" transform="translate(-105.591 -362.355)" fill="none" stroke="#e84436" stroke-linecap="round" stroke-linejoin="round" stroke-miterlimit="10" stroke-width="1.5"/></g><g transform="translate(229.532 453.582)"><path d="M136.21,314.29" transform="translate(-136.21 -238.284)" fill="none" stroke="#000" stroke-miterlimit="10" stroke-width="1.164"/><g transform="translate(2.94)"><path d="M185.121,307.332c2.966-2.8,9.554-1.18,9.554,4.027,0,5.19-14.677,14.575-17.693,14.575l-.489.084c-.657-3.1-1.5-6.336-2.494-9.52l.691-.118C174.674,316.38,182.257,310.028,185.121,307.332Z" transform="translate(-113.263 -243.98)" fill="#cbbba0"/><path d="M149.4,302.194c-2.443-3.977-3.016-10.936-3.016-10.936l-.573-.152a10.012,10.012,0,0,0,.944-1.618.9.9,0,0,0,.4.2,10.773,10.773,0,0,0,1.163.236l-.067.354,5.072,8.577.2-.051s1.567-12.84,1.062-13.817H153.7s1.82-1.769,1.7-2.308a2.741,2.741,0,0,0-.607-1.062l-.539-.219a2.6,2.6,0,0,1,.2-.219,11.515,11.515,0,0,0,1.213-1.55,6.06,6.06,0,0,0-.236-1.971c.27.59.725,1.668,1.466,3.657,1.432,3.842.91,23.843.91,23.843s18.872-.657,26.91,11.256c3.134,4.634,6.251,11.93,8.594,19.479.994,3.185,1.854,6.42,2.494,9.52,1.769,8.425,2.073,15.856-.27,18.67-4.887,5.847-15.5,4.246-18.923-2.393a16.052,16.052,0,0,0-.64-1.567c-2.443-7.936,3.134-23.169.691-25.494,0,0-5.594,16.547-19.226,8.273a14.392,14.392,0,0,1-4.668-4.415c-5.156-7.835-.809-19.041.691-22.411a3.232,3.232,0,0,0,.185-2.14C153.005,311.411,151.32,305.277,149.4,302.194ZM168.254,328.7a1.611,1.611,0,0,0-.59-2.8l-1.146-.371-1.146-.371a1.7,1.7,0,0,0-2.258,1.87l.236,1.129.236,1.129a1.766,1.766,0,0,0,2.848.91l.91-.758Zm-7.364-8.931c.253-.725.152-1.4-.2-1.517-.371-.118-.859.388-1.112,1.112s-.152,1.415.219,1.517C160.15,321,160.638,320.493,160.891,319.769Z" transform="translate(-132.573 -263.377)" fill="#cbbba0"/><path d="M159.018,389.944c-.455-.034-.708-.051-.708-.051l-.27.135a3.723,3.723,0,0,1-.522-1.651c-.185-4.2,1.769-18.1,1.769-19.934,0-1.854-2.831-19.445-2.831-19.445l-.017-.135a12.664,12.664,0,0,0,4.853-1.887,13.731,13.731,0,0,0,2.241-1.786c.084,1.466,2.342,41.047,4.415,42.85,1.9,1.651,4.381,6,2.443,6.993-.152-.2-.286-.388-.455-.573C166.887,390.9,161.04,390.113,159.018,389.944Z" transform="translate(-125.292 -217.117)" fill="#cbbba0"/><path d="M169.3,376.3c.169.185.3.371.455.573a2,2,0,0,1-.842.2c-2.9.152-9.6-1.955-11.509-5.224l.27-.135a6.84,6.84,0,0,1,.708.051l10.919,4.55Z" transform="translate(-124.634 -198.944)" fill="#e99ca7"/><path d="M168.906,376.283l-.017.017-10.919-4.55C159.992,371.919,165.839,372.71,168.906,376.283Z" transform="translate(-124.244 -198.923)" fill="#e99ca7"/><path d="M150.891,364.39c-3.033,1.854-7.364.623-9.082-5.527a15.061,15.061,0,0,1-.354-4.246c0-.2.017-.421.034-.64.034-.607.067-1.23.152-1.87q.076-.859.2-1.769c.034-.286.067-.556.118-.843a3.148,3.148,0,0,1,.067-.421c.169-1.163.371-2.325.59-3.471l.152-.758c0-.034.017-.051.017-.084.051-.253.1-.489.152-.741.067-.354.152-.691.219-1.045.034-.185.084-.371.118-.556.084-.4.169-.792.27-1.18a54.017,54.017,0,0,1,3.909-11.256c.084-.2.185-.388.286-.59q.379-.809.809-1.668a.088.088,0,0,1,.034-.067c.185-.371.371-.758.556-1.129.118-.219.219-.455.337-.674l.91-1.82c.607-1.213,1.23-2.393,1.82-3.488.152-.27.3-.539.438-.792.034-.051.067-.118.1-.169a4.64,4.64,0,0,1,.286-.489,23.905,23.905,0,0,1,1.988-3.067,1.78,1.78,0,0,0,.169-.2.394.394,0,0,1,.118-.118l.067-.067.084-.084c.034-.034.067-.051.084-.067a.553.553,0,0,1,.135-.1h.017a.224.224,0,0,1,.135-.051,14.752,14.752,0,0,0,4.668,4.415c13.632,8.273,19.226-8.273,19.226-8.273,2.443,2.308-3.151,17.541-.691,25.494a9.248,9.248,0,0,0,.64,1.567c2.511,7.364-.253,18.181-1.9,23.422a15.235,15.235,0,0,1-3.876,6.336,14.48,14.48,0,0,1-2.241,1.786,12.452,12.452,0,0,1-4.853,1.887,10.892,10.892,0,0,1-2.8.118c-2.966-.236-6.369-1.6-10.178-4.9A32.288,32.288,0,0,1,150.891,364.39Zm23.927-12.638c.539-6.656-3.96-16.109-6.588-20.254a2.565,2.565,0,0,0-3.859-.489c-6.336,5.914-17.457,30.381-5.308,33.431C171.061,367.439,174.094,360.48,174.818,351.752Z" transform="translate(-135.565 -240.209)" fill="#cbbba0"/><path d="M163.27,323.829c2.629,4.145,7.128,13.6,6.588,20.254-.725,8.712-3.741,15.671-15.738,12.671-12.149-3.033-1.045-27.516,5.308-33.431A2.564,2.564,0,0,1,163.27,323.829Zm-3.016,25.6a1,1,0,0,0-1.028-.977,1.016,1.016,0,0,0-1.045.977,1,1,0,0,0,1.045.977A1.011,1.011,0,0,0,160.254,349.425Z" transform="translate(-130.606 -232.54)" fill="#e99ca7"/><path d="M160.644,306.631a1.616,1.616,0,0,1,.59,2.8l-.91.758-.91.758a1.773,1.773,0,0,1-2.848-.91l-.236-1.129-.236-1.129a1.7,1.7,0,0,1,2.258-1.87l1.146.371Z" transform="translate(-125.553 -244.089)" fill="#e99ca7"/><path d="M155.355,337.97a1,1,0,0,1,1.028.977.99.99,0,0,1-1.028.977.979.979,0,1,1,0-1.955Z" transform="translate(-126.751 -222.063)" fill="#7b6a58"/><path d="M155.143,301.757c.371.118.455.792.2,1.517s-.741,1.23-1.112,1.112-.455-.792-.219-1.517C154.283,302.128,154.789,301.639,155.143,301.757Z" transform="translate(-127.044 -246.882)"/><path d="M164.674,349.427l-.017.2a87.24,87.24,0,0,0-5.493,9.217c-1.415,3.185-3.539,17.255-4.6,24.466a6.384,6.384,0,0,1-2.292,4.246l-.32-.236c-2.73-2.578-9.47-1.331-11.239-.944a3.347,3.347,0,0,0-.371.084,3.338,3.338,0,0,1,2.207-3.319c3.016-1.163,7.262-11.9,8.492-14.575,1.247-2.679,3.286-23.86,3.286-23.86l.169-.169C158.305,347.826,161.726,349.191,164.674,349.427Z" transform="translate(-136.323 -217.563)" fill="#cbbba0"/><path d="M155,278.287a6.06,6.06,0,0,1,.236,1.971,10.4,10.4,0,0,1-1.213,1.55c-.067.067-.135.152-.2.219-1.247,1.281-3.235,2.713-5.645,2.241-.034,0-.051-.017-.084-.017-4.01-.826.472-2.8.472-2.8l-.084-.859a3.267,3.267,0,0,0,.708-.118,7.309,7.309,0,0,0,3.943-3.707,3.672,3.672,0,0,1,1.618,1.028v.017A1.964,1.964,0,0,1,155,278.287Z" transform="translate(-132.155 -263.986)" fill="#f3c8bb"/><path d="M151.562,277.724l.051.152c-.118-.253-.2-.4-.253-.505A1.212,1.212,0,0,1,151.562,277.724Z" transform="translate(-128.772 -263.575)" fill="#f3c8bb"/><path d="M155.052,281.154c.118.522-1.7,2.308-1.7,2.308a3.527,3.527,0,0,1-.4.472,5.67,5.67,0,0,1-5.173,1.146,3.041,3.041,0,0,1-1.2-.489c-1.062-1.011,1.449-1.9,1.449-1.9l.152-.573c.034,0,.051.017.084.017,2.41.472,4.4-.96,5.645-2.241l.539.219A2.478,2.478,0,0,1,155.052,281.154Z" transform="translate(-132.228 -261.849)" fill="#f3c8bb"/><path d="M152.018,277.778a3.719,3.719,0,0,0-1.618-1.028,1.825,1.825,0,0,1,1.8,1.4,1.1,1.1,0,0,0-.185-.371Z" transform="translate(-129.429 -264)" fill="#f3c8bb"/><path d="M150.93,272.832s4.314.3,3.606,3.421a11.932,11.932,0,0,1-.944,2.595c-.118.236-.489.505-.64.741-.944,1.7-2.106,3.235-3.69,3.69a2.49,2.49,0,0,1-.708.118,3.731,3.731,0,0,1-1.567-.253s-1.483-.522-.152-2.073c1.331-1.567,1.112-2.46,1.955-2.528,2.123-.169,1.4-5.426,1.4-5.426l.2-.489Z" transform="translate(-132.251 -266.822)" fill="#f3c8bb"/><path d="M153.6,282.014c.522.977-1.062,13.817-1.062,13.817l-.2.051L147.26,287.3l.067-.354c1.837.286,4.4,0,5.308-4.465l-.32-.034a5.419,5.419,0,0,0,.4-.472h.876Z" transform="translate(-131.58 -260.417)" fill="#e99ca7"/><path d="M150.883,276.32c-.118.236-.236.489-.371.725a1.273,1.273,0,0,0-.253.017C150.378,276.826,150.766,276.556,150.883,276.32Z" transform="translate(-129.525 -264.294)" fill="#f3c8bb"/><path d="M146.434,286.324c-.725-.708,1.3-2.561,1.3-2.561l.067-.337a5.736,5.736,0,0,0,5.173-1.146l.32.034c-.91,4.465-3.471,4.752-5.308,4.465-.438-.067-.826-.169-1.163-.236A.937.937,0,0,1,146.434,286.324Z" transform="translate(-132.254 -260.212)" fill="#f3c8bb"/><path d="M151.75,276.767a1.273,1.273,0,0,1,.253-.017c-.944,1.7-2.308,3.269-3.943,3.707C149.644,280,150.807,278.469,151.75,276.767Z" transform="translate(-131.032 -264)" fill="#f3c8bb"/><path d="M150,313.77a1.148,1.148,0,0,1-.135.051A.225.225,0,0,1,150,313.77Z" transform="translate(-129.792 -238.641)" fill="#cbbba0"/><path d="M149.915,313.8a.554.554,0,0,0-.135.1C149.831,313.851,149.881,313.834,149.915,313.8Z" transform="translate(-129.854 -238.62)" fill="#cbbba0"/><path d="M149.764,313.9c-.034.017-.051.051-.084.084Z" transform="translate(-129.922 -238.551)" fill="#cbbba0"/><path d="M149.688,313.99a.78.78,0,0,1-.118.118Z" transform="translate(-129.998 -238.49)" fill="#cbbba0"/><path d="M149.639,314.06a1.07,1.07,0,0,0-.169.2A1.783,1.783,0,0,0,149.639,314.06Z" transform="translate(-130.066 -238.442)" fill="#cbbba0"/><path d="M148.8,269.464c9.723-1.786,7.33,5.527,7.33,5.527l-.2.489s.725,5.257-1.4,5.426c-.842.067-.623.96-1.955,2.528s.152,2.073.152,2.073a3.73,3.73,0,0,0,1.567.253l.084.859s-4.482,1.988-.472,2.8l-.152.573s-2.511.893-1.449,1.9a2.607,2.607,0,0,0,1.2.489l-.067.337s-2.039,1.854-1.3,2.561a10.8,10.8,0,0,1-.944,1.618,9.79,9.79,0,0,1-6.4,4.128c-5.561.96-6.2-9-6.74-11.9C137.509,286.247,139.076,271.25,148.8,269.464Z" transform="translate(-137.955 -269.183)" fill="#cbbba0"/><path d="M148.406,316c-.1.169-.185.32-.286.489C148.221,316.32,148.305,316.169,148.406,316Z" transform="translate(-130.991 -237.113)" fill="#cbbba0"/><path d="M148.238,316.39c-.152.253-.286.522-.438.792C147.952,316.929,148.1,316.66,148.238,316.39Z" transform="translate(-131.21 -236.846)" fill="#cbbba0"/><path d="M151.967,370.3l.32.236c-3.016,2.376-7.987,1.651-9.908,1.3a2.524,2.524,0,0,1-2.039-2.393c.067-.017.185-.051.371-.084l.034.118Z" transform="translate(-136.32 -200.56)" fill="#e99ca7"/><path d="M151.816,370.569l-11.222-.843-.034-.118C142.346,369.237,149.086,367.974,151.816,370.569Z" transform="translate(-136.17 -200.825)" fill="#e99ca7"/><path d="M146.17,320.76l.91-1.82C146.793,319.53,146.49,320.153,146.17,320.76Z" transform="translate(-132.327 -235.099)" fill="#cbbba0"/><path d="M146.206,320.42c-.185.371-.371.758-.556,1.129C145.835,321.178,146.021,320.791,146.206,320.42Z" transform="translate(-132.683 -234.085)" fill="#cbbba0"/><path d="M145.969,321.13q-.43.859-.809,1.668Q145.539,321.964,145.969,321.13Z" transform="translate(-133.019 -233.599)" fill="#cbbba0"/><path d="M144.2,327.559s.977-2.174,2.376-5.089a53.684,53.684,0,0,0-3.909,11.256C143.479,330.154,144.2,327.559,144.2,327.559Z" transform="translate(-134.724 -232.681)" fill="#cbbba0"/><path d="M142.44,330.406c.034-.185.084-.371.118-.556C142.524,330.019,142.474,330.221,142.44,330.406Z" transform="translate(-134.882 -227.625)" fill="#cbbba0"/><path d="M142.372,330.79c-.051.236-.1.489-.152.741C142.287,331.279,142.321,331.043,142.372,330.79Z" transform="translate(-135.033 -226.982)" fill="#cbbba0"/><path d="M142.272,331.28l-.152.758A6.042,6.042,0,0,0,142.272,331.28Z" transform="translate(-135.101 -226.646)" fill="#cbbba0"/><path d="M141.807,333.79a3.656,3.656,0,0,1-.067.421C141.757,334.076,141.791,333.942,141.807,333.79Z" transform="translate(-135.361 -224.927)" fill="#cbbba0"/><path d="M141.752,334.54c-.067.607-.152,1.18-.2,1.769Q141.651,335.45,141.752,334.54Z" transform="translate(-135.492 -224.413)" fill="#cbbba0"/><path d="M141.484,336.7c-.017.219-.017.421-.034.64C141.45,337.138,141.467,336.919,141.484,336.7Z" transform="translate(-135.56 -222.933)" fill="#cbbba0"/><g transform="translate(0.012)"><path d="M149.4,296.727c-2.443-3.977-3.016-10.936-3.016-10.936l-.573-.152" transform="translate(-132.585 -257.91)" fill="none" stroke="#a48a7b" stroke-linecap="round" stroke-linejoin="round" stroke-miterlimit="10" stroke-width="0.795"/><path d="M164.35,328.167a16.057,16.057,0,0,0-.64-1.567" transform="translate(-120.323 -229.852)" fill="none" stroke="#a48a7b" stroke-linecap="round" stroke-linejoin="round" stroke-miterlimit="10" stroke-width="0.795"/><line x2="0.556" y2="0.219" transform="translate(21.65 18.024)" fill="none" stroke="#c69191" stroke-miterlimit="10" stroke-width="0.398"/><line x1="0.135" y2="0.573" transform="translate(15.786 20.248)" fill="none" stroke="#c69191" stroke-miterlimit="10" stroke-width="0.398"/><path d="M150.781,276.32c-.118.236-.236.489-.371.725" transform="translate(-129.434 -264.294)" fill="none" stroke="#c69191" stroke-linecap="round" stroke-linejoin="round" stroke-miterlimit="10" stroke-width="1.5"/><path d="M148.06,280.457A7.309,7.309,0,0,0,152,276.75a1.825,1.825,0,0,1,1.8,1.4" transform="translate(-131.044 -264)" fill="none" stroke="#c69191" stroke-linecap="round" stroke-linejoin="round" stroke-miterlimit="10" stroke-width="1.5"/><line x1="0.084" y1="0.876" transform="translate(16.308 16.575)" fill="none" stroke="#c69191" stroke-miterlimit="10" stroke-width="0.398"/><path d="M149.87,313.82a.225.225,0,0,1,.135-.051" transform="translate(-129.804 -238.641)" fill="none" stroke="#a48a7b" stroke-linecap="round" stroke-linejoin="round" stroke-miterlimit="10" stroke-width="0.795"/><path d="M149.78,313.9a.554.554,0,0,1,.135-.1" transform="translate(-129.866 -238.62)" fill="none" stroke="#a48a7b" stroke-linecap="round" stroke-linejoin="round" stroke-miterlimit="10" stroke-width="0.795"/><path d="M149.68,313.984l.084-.084" transform="translate(-129.934 -238.551)" fill="none" stroke="#a48a7b" stroke-linecap="round" stroke-linejoin="round" stroke-miterlimit="10" stroke-width="0.795"/><path d="M149.47,314.31a1.785,1.785,0,0,0,.169-.2.394.394,0,0,1,.118-.118" transform="translate(-130.078 -238.49)" fill="none" stroke="#a48a7b" stroke-linecap="round" stroke-linejoin="round" stroke-miterlimit="10" stroke-width="0.795"/><path d="M148.12,316.489c.1-.169.185-.337.286-.489" transform="translate(-131.003 -237.113)" fill="none" stroke="#a48a7b" stroke-linecap="round" stroke-linejoin="round" stroke-miterlimit="10" stroke-width="0.795"/><path d="M147.8,317.192c.152-.27.3-.539.438-.792" transform="translate(-131.222 -236.839)" fill="none" stroke="#a48a7b" stroke-linecap="round" stroke-linejoin="round" stroke-miterlimit="10" stroke-width="0.795"/><path d="M146.17,320.76l.91-1.82" transform="translate(-132.339 -235.099)" fill="none" stroke="#a48a7b" stroke-linecap="round" stroke-linejoin="round" stroke-miterlimit="10" stroke-width="0.795"/><path d="M145.65,321.549c.185-.371.371-.758.556-1.129" transform="translate(-132.695 -234.085)" fill="none" stroke="#a48a7b" stroke-linecap="round" stroke-linejoin="round" stroke-miterlimit="10" stroke-width="0.795"/><path d="M145.16,322.788q.379-.809.809-1.668" transform="translate(-133.031 -233.606)" fill="none" stroke="#a48a7b" stroke-linecap="round" stroke-linejoin="round" stroke-miterlimit="10" stroke-width="0.795"/><path d="M142.67,333.716c.809-3.555,1.55-6.167,1.55-6.167s.977-2.174,2.376-5.089" transform="translate(-134.736 -232.688)" fill="none" stroke="#a48a7b" stroke-linecap="round" stroke-linejoin="round" stroke-miterlimit="10" stroke-width="0.795"/><path d="M142.44,330.406c.034-.185.084-.371.118-.556" transform="translate(-134.894 -227.625)" fill="none" stroke="#a48a7b" stroke-linecap="round" stroke-linejoin="round" stroke-miterlimit="10" stroke-width="0.795"/><path d="M142.23,331.531c.051-.253.1-.489.152-.741" transform="translate(-135.038 -226.982)" fill="none" stroke="#a48a7b" stroke-linecap="round" stroke-linejoin="round" stroke-miterlimit="10" stroke-width="0.795"/><path d="M142.13,332.038c.051-.253.1-.522.152-.758" transform="translate(-135.106 -226.646)" fill="none" stroke="#a48a7b" stroke-linecap="round" stroke-linejoin="round" stroke-miterlimit="10" stroke-width="0.795"/><path d="M141.74,334.211a3.14,3.14,0,0,1,.067-.421" transform="translate(-135.373 -224.927)" fill="none" stroke="#a48a7b" stroke-linecap="round" stroke-linejoin="round" stroke-miterlimit="10" stroke-width="0.795"/><path d="M141.55,336.309q.076-.859.2-1.769" transform="translate(-135.503 -224.413)" fill="none" stroke="#a48a7b" stroke-linecap="round" stroke-linejoin="round" stroke-miterlimit="10" stroke-width="0.795"/><path d="M141.45,337.34c0-.2.017-.421.034-.64" transform="translate(-135.572 -222.933)" fill="none" stroke="#a48a7b" stroke-linecap="round" stroke-linejoin="round" stroke-miterlimit="10" stroke-width="0.795"/><path d="M152.7,282h.893c.522.977-1.062,13.817-1.062,13.817l-.2.051-5.072-8.577.067-.354" transform="translate(-131.592 -260.404)" fill="none" stroke="#c69191" stroke-linecap="round" stroke-linejoin="round" stroke-miterlimit="10" stroke-width="1"/><line x1="0.32" y1="0.034" transform="translate(20.706 22.068)" fill="none" stroke="#c69191" stroke-miterlimit="10" stroke-width="1"/><path d="M151.387,277.408c-.051-.084-.067-.118-.067-.118" transform="translate(-128.811 -263.63)" fill="none" stroke="#000" stroke-linecap="round" stroke-linejoin="round" stroke-miterlimit="10" stroke-width="1.5"/><path d="M146.33,290.564s.286,7.852,2.73,11.829c1.9,3.084,3.606,9.217,4.263,11.761a3.223,3.223,0,0,1-.185,2.14c-1.5,3.37-5.864,14.575-.691,22.411a14.752,14.752,0,0,0,4.668,4.415c13.632,8.273,19.226-8.273,19.226-8.273,2.443,2.308-3.151,17.541-.691,25.494a9.248,9.248,0,0,0,.64,1.567c3.421,6.656,14.036,8.257,18.923,2.393,2.342-2.814,2.039-10.245.27-18.67-.657-3.1-1.5-6.336-2.494-9.52-2.342-7.549-5.476-14.845-8.594-19.479-8.038-11.913-26.91-11.256-26.91-11.256s.522-20.018-.91-23.843c-.741-1.971-1.2-3.067-1.466-3.656-.118-.253-.2-.4-.253-.505" transform="translate(-132.229 -263.575)" fill="none" stroke="#a48a7b" stroke-linecap="round" stroke-linejoin="round" stroke-miterlimit="10" stroke-width="1.5"/><path d="M151.329,335.355s-6.925,18.451-.438,27.466c-3.033,1.854-7.364.623-9.082-5.527a15.061,15.061,0,0,1-.354-4.246c0-.2.017-.421.034-.64.034-.607.067-1.23.152-1.87q.076-.859.2-1.769c.034-.286.067-.556.118-.843a3.649,3.649,0,0,1,.067-.421c.169-1.163.371-2.325.59-3.471l.152-.758c0-.034.017-.051.017-.084.051-.253.1-.489.152-.741.067-.354.152-.691.219-1.045.034-.185.084-.371.118-.556.084-.4.169-.792.27-1.18a54.017,54.017,0,0,1,3.909-11.256c.084-.2.185-.388.286-.59q.379-.809.809-1.668a.087.087,0,0,1,.034-.067c.185-.371.371-.758.556-1.129.118-.219.219-.455.337-.674l.91-1.82c.607-1.213,1.23-2.393,1.82-3.488.152-.27.3-.539.438-.792.034-.051.067-.118.1-.169a4.64,4.64,0,0,1,.286-.489,23.91,23.91,0,0,1,1.988-3.067,1.785,1.785,0,0,0,.169-.2.394.394,0,0,1,.118-.118l.067-.067.084-.084c.034-.034.067-.051.084-.067a.554.554,0,0,1,.135-.1h.017a.224.224,0,0,1,.135-.051" transform="translate(-135.577 -238.641)" fill="none" stroke="#a48a7b" stroke-linecap="round" stroke-linejoin="round" stroke-miterlimit="10" stroke-width="1.5"/><path d="M147.05,353.4a39.508,39.508,0,0,0,2.848,2.78c3.808,3.3,7.229,4.684,10.178,4.9a10.929,10.929,0,0,0,2.8-.118,12.664,12.664,0,0,0,4.853-1.887,13.731,13.731,0,0,0,2.241-1.786,15,15,0,0,0,3.876-6.336c1.651-5.24,4.415-16.058,1.9-23.422" transform="translate(-131.736 -229.215)" fill="none" stroke="#a48a7b" stroke-linecap="round" stroke-linejoin="round" stroke-miterlimit="10" stroke-width="1.5"/><path d="M174.4,316.38s7.583-6.353,10.447-9.049c2.966-2.8,9.554-1.18,9.554,4.027,0,5.19-14.677,14.575-17.693,14.575" transform="translate(-113.001 -243.98)" fill="none" stroke="#a48a7b" stroke-linecap="round" stroke-linejoin="round" stroke-miterlimit="10" stroke-width="1.5"/><path d="M147.43,385.47a6.278,6.278,0,0,0,2.292-4.246c1.062-7.212,3.185-21.282,4.6-24.466a87.236,87.236,0,0,1,5.493-9.217" transform="translate(-131.476 -215.507)" fill="none" stroke="#a48a7b" stroke-linecap="round" stroke-linejoin="round" stroke-miterlimit="10" stroke-width="1.5"/><path d="M140.34,369.4a2.5,2.5,0,0,0,2.039,2.393c1.921.371,6.892,1.078,9.908-1.3" transform="translate(-136.332 -200.533)" fill="none" stroke="#c69191" stroke-linecap="round" stroke-linejoin="round" stroke-miterlimit="10" stroke-width="1.5"/><path d="M154.328,344.63s-2.039,21.181-3.286,23.86c-1.23,2.679-5.476,13.413-8.492,14.575a3.338,3.338,0,0,0-2.207,3.32" transform="translate(-136.335 -217.501)" fill="none" stroke="#a48a7b" stroke-linecap="round" stroke-linejoin="round" stroke-miterlimit="10" stroke-width="1.5"/><path d="M158.034,388.48a3.723,3.723,0,0,1-.522-1.651c-.185-4.2,1.769-18.1,1.769-19.934,0-1.854-2.831-19.445-2.831-19.445" transform="translate(-125.297 -215.569)" fill="none" stroke="#a48a7b" stroke-linecap="round" stroke-linejoin="round" stroke-miterlimit="10" stroke-width="1.5"/><path d="M169.751,376.811a2,2,0,0,1-.842.2c-2.9.152-9.6-1.955-11.509-5.224" transform="translate(-124.646 -198.896)" fill="none" stroke="#c69191" stroke-linecap="round" stroke-linejoin="round" stroke-miterlimit="10" stroke-width="1.5"/><path d="M160.65,345.17v.034c.084,1.466,2.342,41.047,4.415,42.85,1.9,1.651,4.381,6,2.443,6.993" transform="translate(-122.42 -217.131)" fill="none" stroke="#a48a7b" stroke-linecap="round" stroke-linejoin="round" stroke-miterlimit="10" stroke-width="1.5"/><path d="M163.27,323.829c2.629,4.145,7.128,13.6,6.588,20.254-.725,8.712-3.741,15.671-15.738,12.671-12.149-3.033-1.045-27.516,5.308-33.431A2.564,2.564,0,0,1,163.27,323.829Z" transform="translate(-130.617 -232.54)" fill="none" stroke="#c69191" stroke-linecap="round" stroke-linejoin="round" stroke-miterlimit="10" stroke-width="1.5"/><path d="M160.427,310.462l-2.089,4.162c-.219.438-.388.691-.809.438-1.87-1.23-5.763-3.269-5.207-7.262" transform="translate(-128.161 -242.73)" fill="none" stroke="#634e42" stroke-linecap="round" stroke-linejoin="round" stroke-miterlimit="10" stroke-width="0.795"/><path d="M163.895,311.32c-2.123,2.005-5.392,2.14-8.375,1.449" transform="translate(-125.934 -240.319)" fill="none" stroke="#634e42" stroke-linecap="round" stroke-linejoin="round" stroke-miterlimit="10" stroke-width="0.795"/><path d="M154.5,298.665s2.073-1.348,3.421-1.18" transform="translate(-126.632 -249.805)" fill="none" stroke="#634e42" stroke-linecap="round" stroke-linejoin="round" stroke-miterlimit="10" stroke-width="0.795"/><path d="M164.92,301.08s1.921,1.348,1.331,3" transform="translate(-119.495 -247.333)" fill="none" stroke="#634e42" stroke-linecap="round" stroke-linejoin="round" stroke-miterlimit="10" stroke-width="0.795"/><path d="M146.37,284.8a1.85,1.85,0,0,0,.118-.286" transform="translate(-132.202 -258.684)" fill="none" stroke="#000" stroke-linecap="round" stroke-linejoin="round" stroke-miterlimit="10" stroke-width="1.5"/><path d="M156.123,274.991s2.393-7.313-7.33-5.527-11.29,16.783-10.734,19.681c.539,2.9,1.18,12.857,6.74,11.9a9.879,9.879,0,0,0,6.4-4.128,10.012,10.012,0,0,0,.944-1.618" transform="translate(-137.962 -269.183)" fill="none" stroke="#a48a7b" stroke-linecap="round" stroke-linejoin="round" stroke-miterlimit="10" stroke-width="1.5"/><path d="M153.133,276.75a3.673,3.673,0,0,1,1.618,1.028v.017a3.567,3.567,0,0,1,.185.354l.051.152a6.059,6.059,0,0,1,.236,1.971,10.4,10.4,0,0,1-1.213,1.55c-.067.067-.135.152-.2.219-1.247,1.281-3.235,2.713-5.645,2.241-.034,0-.051-.017-.084-.017-4.01-.826.472-2.8.472-2.8" transform="translate(-132.174 -264)" fill="none" stroke="#c69191" stroke-linecap="round" stroke-linejoin="round" stroke-miterlimit="10" stroke-width="1.5"/><path d="M150.25,276.767a1.273,1.273,0,0,1,.253-.017" transform="translate(-129.544 -264)" fill="none" stroke="#000" stroke-linecap="round" stroke-linejoin="round" stroke-miterlimit="10" stroke-width="1.5"/><path d="M150.49,283.37s1.82-1.769,1.7-2.308a2.741,2.741,0,0,0-.607-1.062" transform="translate(-129.379 -261.774)" fill="none" stroke="#c69191" stroke-linecap="round" stroke-linejoin="round" stroke-miterlimit="10" stroke-width="1.5"/><path d="M150.25,282.472a5.419,5.419,0,0,0,.4-.472" transform="translate(-129.544 -260.404)" fill="none" stroke="#c69191" stroke-linecap="round" stroke-linejoin="round" stroke-miterlimit="10" stroke-width="1"/><path d="M148.026,281.54s-2.511.893-1.449,1.9a2.607,2.607,0,0,0,1.2.489,5.736,5.736,0,0,0,5.173-1.146" transform="translate(-132.24 -260.719)" fill="none" stroke="#c69191" stroke-linecap="round" stroke-linejoin="round" stroke-miterlimit="10" stroke-width="1.5"/><path d="M147.29,286.765c1.837.286,4.4,0,5.308-4.465" transform="translate(-131.571 -260.198)" fill="none" stroke="#c69191" stroke-linecap="round" stroke-linejoin="round" stroke-miterlimit="10" stroke-width="1"/><path d="M147.733,283.17s-2.039,1.854-1.3,2.561a.905.905,0,0,0,.4.2,10.775,10.775,0,0,0,1.163.236" transform="translate(-132.268 -259.602)" fill="none" stroke="#c69191" stroke-linecap="round" stroke-linejoin="round" stroke-miterlimit="10" stroke-width="1.5"/><path d="M150.209,273.036s.725,5.257-1.4,5.426c-.843.067-.623.961-1.955,2.528s.152,2.073.152,2.073a3.731,3.731,0,0,0,1.567.253,3.274,3.274,0,0,0,.708-.118c1.584-.455,2.747-1.988,3.69-3.69.135-.236.522-.505.64-.741a13.266,13.266,0,0,0,.944-2.595c.708-3.117-3.606-3.421-3.606-3.421" transform="translate(-132.249 -266.74)" fill="none" stroke="#c69191" stroke-linecap="round" stroke-linejoin="round" stroke-miterlimit="10" stroke-width="1.5"/><path d="M156.567,310.025l-.236-1.129-.236-1.129a1.7,1.7,0,0,1,2.258-1.87l1.146.371,1.146.371a1.616,1.616,0,0,1,.59,2.8l-.91.758-.91.758A1.778,1.778,0,0,1,156.567,310.025Z" transform="translate(-125.565 -244.095)" fill="none" stroke="#c69191" stroke-linecap="round" stroke-linejoin="round" stroke-miterlimit="10" stroke-width="0.795"/><path d="M140.31,369.713a.13.13,0,0,0,.051-.017c.067-.017.185-.051.371-.084,1.769-.388,8.509-1.634,11.239.944" transform="translate(-136.353 -200.829)" fill="none" stroke="#c69191" stroke-linecap="round" stroke-linejoin="round" stroke-miterlimit="10" stroke-width="1.5"/><path d="M157.55,371.72a6.841,6.841,0,0,1,.708.051c2.022.169,7.869.977,10.936,4.533.169.185.3.371.455.573" transform="translate(-124.543 -198.944)" fill="none" stroke="#c69191" stroke-linecap="round" stroke-miterlimit="10" stroke-width="1.5"/></g></g><path d="M163.421,306.463c-.236.725-.708,1.23-1.045,1.112-.354-.118-.438-.792-.2-1.516s.708-1.23,1.062-1.112C163.573,305.065,163.657,305.739,163.421,306.463Z" transform="translate(-118.515 -244.696)"/><ellipse cx="2.393" cy="2.713" rx="2.393" ry="2.713" transform="translate(42.075 66.3)" fill="#e99ca7"/><ellipse cx="2.393" cy="2.713" rx="2.393" ry="2.713" transform="translate(23.59 58.751)" fill="#e99ca7"/><path d="M148.75,345.54s4.3,4.246,8.476,4.246" transform="translate(-127.62 -216.878)" fill="none" stroke="#a48a7b" stroke-linecap="round" stroke-linejoin="round" stroke-miterlimit="10" stroke-width="1.164"/><path d="M157.18,348.965s4.432-.977,5.274-2.275" transform="translate(-121.845 -216.09)" fill="none" stroke="#a48a7b" stroke-linecap="round" stroke-linejoin="round" stroke-miterlimit="10" stroke-width="1.418"/><path d="M163.935,312.09s.337,9.133-.135,11.846" transform="translate(-117.31 -239.791)" fill="none" stroke="#a48a7b" stroke-linecap="round" stroke-miterlimit="10" stroke-width="0.873"/></g></g></svg>