<svg xmlns="http://www.w3.org/2000/svg" width="140.18" height="141.12" viewBox="0 0 140.18 141.12"><g transform="translate(-1409.88 -49.53)"><ellipse cx="70.09" cy="70.56" rx="70.09" ry="70.56" transform="translate(1409.88 49.53)" fill="#fdc528"/><g transform="translate(1563.859 236.507)"><g transform="translate(0.255 0.251)"><path d="M-36.16-111.52v1.35c-.04.43-.08.87-.12,1.31-.11.44-.23.87-.34,1.32a5.389,5.389,0,0,1-3.15,2.32c-2.4-.36-4.87-.07-7.14-1.37a1.693,1.693,0,0,0-2.31.6,1.912,1.912,0,0,0-.22.62c.09.27.19.53.28.8-.17,1.5-.33,3.01-.49,4.51-.09.41-.17.83-.25,1.25l-.24.93c-.19.3-.37.61-.56.91-.75.41-1.5.82-2.24,1.23-.57.04-1.14.07-1.71.11a1.9,1.9,0,0,0-1.79.33c-.28.03-.56.07-.83.11-3.03-.64-5.88.6-8.82.85-.28-.02-.56-.05-.84-.07-1.09-.52-2.45-.77-3.2.03-.89.95.08,2.1.61,3.08a.752.752,0,0,0,.15.16c.5,1.38,1,2.76,1.51,4.14.09,2.78,1.64,5.09,2.51,7.61,1.11,3.21,1.52,6.4-.1,9.52-1.6,3.08-4.44,3.22-6.63.58-3.26-3.93-3.71-8.91-5.31-13.47-.25-.71-.09-1.6-1.15-2.18a7.837,7.837,0,0,0-.14,4.05,33.147,33.147,0,0,1,.06,7.18c-.22,2.11-1.14,4.03-3.39,4.64-2.08.57-3.62-.52-4.82-2.19a8.188,8.188,0,0,1-1.44-3.16,14.5,14.5,0,0,1,.11-7.54A3.953,3.953,0,0,0-88.79-86c-1.01,2.87-2.13,5.71-2.97,8.63-.56,1.96-.99,3.94-2.32,5.57a1.2,1.2,0,0,0-.81.95,3.683,3.683,0,0,0-1.74,1.4,5.443,5.443,0,0,0-2.64,1.25l-1.35.03a1.633,1.633,0,0,0-1.31-.45c-2.55-2.31-1.91-5.2-1.42-8.03a23.247,23.247,0,0,1,.71-2.47c.32-1.45.65-2.9.97-4.36.04-.17.09-.34.13-.51.22-.72.43-1.44.64-2.17a.436.436,0,0,0,.11-.36l1.22-2.66a1.587,1.587,0,0,0,.45-1.24c.8-.7,1.95-1.36.29-2.39-1.61.05-3.22.11-4.83.16a1.9,1.9,0,0,0-1.76.36l-3.93.48a1.277,1.277,0,0,0-1.5.25,4.388,4.388,0,0,0-2.38-.88c-1.16-.69-2.32-1.37-3.48-2.06-.16-.29-.31-.58-.47-.87a12.308,12.308,0,0,1-1.29-8.22,9.034,9.034,0,0,0,.16-2.38,110.624,110.624,0,0,1-.79-16.97c.05-.41.09-.82.14-1.23.33-1.71.67-3.43,1.01-5.14.28-.57.56-1.13.84-1.7.34-.24.68-.47,1.03-.71,1.4-.54,2.97-.44,4.29-1.25-.79-1.17-1.56-2.34-2.38-3.49-1.39-1.93-.98-4.28-1.5-6.41a.987.987,0,0,0-.25-.97,16.965,16.965,0,0,1,3.13-13.18c1.9-2.73,4.85-3.8,7.82-4.26a33.769,33.769,0,0,1,9.31-.35c6.25.79,11.03,3.31,13.48,9.39a16.354,16.354,0,0,0,1.32,2.25,1.624,1.624,0,0,0,.47,1.32c.09.56.17,1.12.26,1.68-.01.34-.02.7-.03,1.04-.01.38-.02.76-.03,1.13-.07.58-.14,1.16-.22,1.72a15.421,15.421,0,0,1-1.51,4.96c-.45.86-1.68,1.75-1.07,2.64.63.92,2.03.29,3.09.34,1.56.08,1.77-.74,1.1-1.91a8.682,8.682,0,0,1-1.05-5.94,12.966,12.966,0,0,1,.38-1.61c1.79-3.99,5.37-5.9,9.21-6.89a8.92,8.92,0,0,1,9.97,5.26c1.21,2.98,1.95,5.93-.16,8.83-.4.17-.71.45-.55.9.12.31.42.25.64,0l2.53.24c.89.12,1.76.24,2.64.36a5.238,5.238,0,0,1,3.75,2.9,2.263,2.263,0,0,0,.7,1.82c.09.41.19.82.28,1.22-.14.78-.37,1.64.56,2.07.61.28,1.12.01,1.31-.7.21-.37.41-.74.62-1.1a1.462,1.462,0,0,0,.87-.96c2.82-.97,5.64-2.17,8.16.68a7.575,7.575,0,0,1,1.5,3.08c.26,1.32.51,2.65.77,3.98.05.29.09.59.15.88a4,4,0,0,0,.07,2.17,6.324,6.324,0,0,0,.18,3.94C-36.24-114.42-36.2-112.97-36.16-111.52Zm-4.04,1.53a20.706,20.706,0,0,0,.03-4.85,54.435,54.435,0,0,0-1.18-10.95c-.25-.97-.56-2.06-1.94-1.94-1.34.09-1.47,1.21-1.75,2.18a4.527,4.527,0,0,0,.22,2.36,13.652,13.652,0,0,1,.55,3.43c-.06,3.19-.02,6.38-.05,9.57a1.811,1.811,0,0,0,1.52,2.07,2.035,2.035,0,0,0,.43.02,1.87,1.87,0,0,0,2.16-1.52C-40.21-109.75-40.2-109.87-40.2-109.99Zm-6.25-2c.05-1.52.01-3.04.01-4.56-.12-2.15.25-4.35-.55-6.45a1.881,1.881,0,0,0-2.24-1.47c-.01,0-.03.01-.04.01-1.4.2-1.45,1.07-1.42,2.2.1,3.33.15,6.65.14,9.98,0,1.07-.5,2.27,1.24,2.41,1.56.1,2.8-.24,2.86-2.12Zm-9.26,12.8c2.43-.22,3.23-1.2,3.11-3.59-.4-8.2.67-16.42-.59-24.61-.61-3.97-1.3-4.94-5.33-5.35s-7.97.44-11.97.49c-10.48.15-20.89,1.48-31.34,2.17-2.83.19-5.68.02-8.48.59-4.19.86-5.45,2.29-5.5,6.54q-.09,8.5.01,17.02a22.678,22.678,0,0,0,1.11,7.31,3.236,3.236,0,0,0,3.41,2.45c3.42-.02,6.84-.01,10.27-.01,7.87-.09,15.69-1.01,23.55-1.34,7.26-.31,14.51-1.02,21.75-1.67Zm-8.44-37.36a7.12,7.12,0,0,0,1.06-8.27c-1.51-2.34-5.36-3.47-8.21-2.38-3.15,1.2-5.77,4.89-5.4,7.64.43,3.21,2.95,5.11,7.1,5.08A7.6,7.6,0,0,0-64.15-136.55Zm-5.4,63.16c.68-.19.43-.82.52-1.63-.67-2.87-1.27-6.1-2.19-9.24-1.01-3.41-2.31-6.75-3.49-10.11-.22-.62-.47-1.39-1.3-1.17-.87.23-.53,1.05-.52,1.67a3.176,3.176,0,0,0,.06.43c1.02,6.2,3.22,12.08,5.15,18.03a5.893,5.893,0,0,0,.76,1.31C-70.3-73.73-70.05-73.26-69.55-73.39Zm-8.83-12.66a4.911,4.911,0,0,0-.66-3.98A4.013,4.013,0,0,0-78.38-86.05Zm-3.88-6.34c.03-1.21.35-3.08-1.5-3.05-1.72.03-1.3,1.91-1.29,2.99q.06,6.735.47,13.48c.08,1.37-.11,2.9,1,4.37a6.254,6.254,0,0,0,.83-3.21c.19-4.86.38-9.72.49-14.58Zm-4.15-45.83c3.16-4.45,2.66-12.63-1.67-15.95-3.22-2.47-6.78-4.6-10.78-4.12-12.75-.15-16.17,11.46-11.94,20.28a5.713,5.713,0,0,0,1.51,1.84c6.54,5.4,17.51,5.5,22.88-2.05Zm-4.36,44.9c.18-.49.28-1.03-.21-1.4a1.48,1.48,0,0,0-1.65-.01,3.35,3.35,0,0,0-1.31,1.94c-1.46,3.94-2.98,7.87-4.32,11.85a23.577,23.577,0,0,0-1.52,6.01c.05.36-.09.97.51,1.18.64.23.86-.36,1.14-.76a7.008,7.008,0,0,0,.44-.75C-94.82-81.07-92.99-87.27-90.77-93.32Z" fill="#fff"/><path d="M-40.17-114.84a20.706,20.706,0,0,1-.03,4.85,1.874,1.874,0,0,1-1.83,1.91,1.983,1.983,0,0,1-.35-.03,1.816,1.816,0,0,1-1.96-1.66,1.553,1.553,0,0,1,.02-.43c.03-3.19-.01-6.38.05-9.57a13.352,13.352,0,0,0-.55-3.43,4.518,4.518,0,0,1-.22-2.36c.28-.96.41-2.08,1.75-2.18,1.38-.11,1.7.98,1.94,1.94A53.2,53.2,0,0,1-40.17-114.84Z" fill="#fcbe1e"/><path d="M-46.44-116.54c0,1.52.03,3.04-.01,4.56-.05,1.88-1.3,2.21-2.86,2.1-1.74-.14-1.24-1.34-1.24-2.41.01-3.33-.04-6.65-.14-9.98-.03-1.12.02-1.99,1.42-2.2A1.9,1.9,0,0,1-47-123.04c0,.01.01.03.01.04C-46.2-120.9-46.56-118.69-46.44-116.54Z" fill="#fcbe1e"/><path d="M-52.59-102.78c.11,2.38-.69,3.36-3.11,3.59-7.24.65-14.49,1.36-21.75,1.67-7.86.33-15.68,1.26-23.55,1.34-3.43,0-6.85-.02-10.27.01a3.243,3.243,0,0,1-3.41-2.45,22.678,22.678,0,0,1-1.11-7.31q-.09-8.5-.01-17.02c.05-4.25,1.31-5.67,5.49-6.54,2.8-.57,5.66-.41,8.48-.59,10.45-.69,20.85-2.02,31.34-2.17,4-.06,7.95-.89,11.97-.49s4.72,1.37,5.33,5.35C-51.93-119.19-52.99-110.97-52.59-102.78Z" fill="#fcbe1e"/><path d="M-63.09-144.81a7.12,7.12,0,0,1-1.06,8.27,7.675,7.675,0,0,1-5.44,2.07c-4.15.03-6.67-1.86-7.1-5.08-.36-2.75,2.25-6.45,5.4-7.64C-68.45-148.28-64.59-147.16-63.09-144.81Z" fill="#fcbe1e"/><path d="M-69.03-75.02c-.09.82.16,1.45-.52,1.63-.51.13-.75-.34-.99-.7a5.53,5.53,0,0,1-.76-1.31c-1.93-5.95-4.13-11.83-5.16-18.04a3.175,3.175,0,0,1-.06-.43c-.01-.62-.36-1.44.52-1.67.83-.22,1.08.55,1.3,1.17,1.18,3.36,2.48,6.7,3.48,10.11C-70.3-81.13-69.7-77.9-69.03-75.02Z" fill="#fcbe1e"/><path d="M-83.76-95.44c1.85-.03,1.53,1.83,1.5,3.05-.1,4.86-.29,9.72-.49,14.58a6.254,6.254,0,0,1-.83,3.21c-1.11-1.47-.92-3-1-4.37q-.4-6.735-.47-13.48C-85.06-93.53-85.48-95.42-83.76-95.44Z" fill="#fcbe1e"/><path d="M-88.08-154.17c4.33,3.32,4.83,11.5,1.67,15.95-5.37,7.55-16.34,7.45-22.88,2.04a5.714,5.714,0,0,1-1.51-1.84c-4.23-8.82-.8-20.43,11.94-20.27C-94.86-158.77-91.3-156.64-88.08-154.17Z" fill="#fcbe1e"/><path d="M-90.98-94.72c.49.36.39.9.21,1.4-2.22,6.05-4.05,12.25-6.93,18.06a5.655,5.655,0,0,1-.44.75c-.28.4-.49.99-1.14.76-.6-.22-.46-.82-.51-1.18a23.577,23.577,0,0,1,1.52-6.01c1.34-3.98,2.86-7.9,4.32-11.85a3.289,3.289,0,0,1,1.31-1.94A1.478,1.478,0,0,1-90.98-94.72Z" fill="#fcbe1e"/><path d="M-99.11-90.43v.02l-.03.03Z" fill="#272829"/></g></g></g></svg>