<svg xmlns="http://www.w3.org/2000/svg" width="140.18" height="141.12" viewBox="0 0 140.18 141.12"><g transform="translate(-990.03 -87.4)"><ellipse cx="70.09" cy="70.56" rx="70.09" ry="70.56" transform="translate(990.03 87.4)" fill="#fdc528"/><g transform="translate(1119.292 372.059)"><g transform="translate(0.25 0.248)"><path d="M-2.46-212.21a1.987,1.987,0,0,1-.31,2.58c-4.51,4.41-8.97,8.87-13.59,13.18-3.2,2.98-6.63,5.67-8.86,9.6-1.03,1.8-3.04.52-4.61.65a.917.917,0,0,0-.9-.33,16.148,16.148,0,0,0-5.11-.89,22.14,22.14,0,0,0-5.14-.3c-.59-.17-1.17-.34-1.75-.51-3.46-1.79-7.25-2.24-11.05-2.61a4.677,4.677,0,0,1-4.08-2.51c-2.4-4.1-4.66-8.26-6.87-12.46-.26-.5-.56-.97-.97-1.67a5.665,5.665,0,0,0-1.64,3.26c-.28,2-1.5,3.04-3.13,4.05-4.95,3.06-9.96,6.07-13.52,10.87a2.054,2.054,0,0,1-2.44.9,15.2,15.2,0,0,0-5.08-3.64,99.51,99.51,0,0,0-11.68-8.5c-.06-.57-.11-1.13-.17-1.69.02-.43.04-.86.05-1.28a6.462,6.462,0,0,0,.67-2.51q2.58-7.365,5.19-14.74a3.186,3.186,0,0,1,.89-1.44c5.24-4.21,9.06-9.74,13.59-14.61,1.64-.94,2.61-2.93,4.76-3.08l.9.38c.85,2.12,2.79,3.3,4.23,4.91a2.268,2.268,0,0,0,1.32,1.29c3.59,5.15,3.61,5.2,9.31,2.72,4.5-1.96,8.35-5,12.28-7.88a3.209,3.209,0,0,1,2.5-.95c6.06.88,12.04-.26,18.02-.9,3.86-.41,7.76-.08,11.59-.83,2.11-.41,3.16.77,3.79,2.62a174.625,174.625,0,0,0,9.65,22.57C-3.97-214.66-3.18-213.46-2.46-212.21Zm-5.73,2.1a3.133,3.133,0,0,0,.74-4.31c-2.08-4.17-4.06-8.4-5.75-12.77-1.19-3.07-2.76-6-4.14-9-.42-.91-.85-1.38-1.94-.7-7.1,4.39-13.66,9.56-20.68,14.04a2.843,2.843,0,0,0-1.18,2.37c.24.66.51,1.48.83,2.28,3.66,8.91,8.23,17.4,12.08,26.23.57,1.31,1.08.99,1.82.21q8.865-9.435,18.22-18.35ZM-22.88-236.7a1.2,1.2,0,0,0-1.35-.47c-6.1.35-12.2.69-18.29,1.1-1.6.11-3.29.12-4.57,1.38A127.726,127.726,0,0,0-66.72-224.5c-.44.16-1.11.23-.93.87.13.48.69.31,1.1.21,3.35.09,6.7.15,10.05.31,3.42.16,6.8.97,10.25.58.45.13,1.03.32,1.25-.19.19-.46-.36-.62-.74-.76-.48-.83-1.47-1.78-.02-2.49a3.221,3.221,0,0,1,1.4-.35,2.059,2.059,0,0,1,1.97,1.27c.64,1.43,1.18.99,2.01.37.64-.47,1.33-.85,1.99-1.29Q-30.635-231.325-22.88-236.7Zm-9.3,45.67c2.82.19,2.91.15,1.78-2.34-3.47-7.59-7.22-15.07-10.34-22.81-1.4-3.48-2.87-5.54-6.84-4.5a2.765,2.765,0,0,1-.64-.05c-4.23-.29-8.44-.91-12.7-.85-2.07-.01-4.15-.05-6.23-.03-2.13.02-2.29.25-1.36,2.22,3.81,8.08,8.8,15.51,13.08,23.33A1.825,1.825,0,0,0-54.14-195a2.928,2.928,0,0,0,1.86.63,5.417,5.417,0,0,0,2.57.46c.43.09.86.19,1.29.28a4.679,4.679,0,0,0,2.64.3c1.13.09,2.27.2,3.4.29a3.736,3.736,0,0,0,2.17.46A48.67,48.67,0,0,0-32.18-191.03ZM-68.12-214c.48-1.64-1.92-5.33-3.64-5.67a3.463,3.463,0,0,1-2.77-3.74c.43-1.99.92-2.18,3.77-1.34a1.13,1.13,0,0,0,1.33-.4c.45-.56.03-.92-.35-1.26a42.427,42.427,0,0,1-6.97-7.63c-1-1.46-1.76-1-2.54.28a30.993,30.993,0,0,0-2.31,5.81,37.686,37.686,0,0,0-2.49,8.83c-.24.92.33,1.42.82,1.95,3.56,3.86,7.14,7.69,10.65,11.59,1.23,1.37,1.7.76,2.1-.57C-69.72-208.77-68.89-211.37-68.12-214Zm-6.07,12.26c1.62-.86,1.85-1.77.59-3.1-3.55-3.75-7.11-7.51-10.62-11.3-.82-.89-1.5-.67-2.17.04-3.95,4.17-8.84,7.32-12.67,11.62-.86.97-.73,1.53.22,2.24,3.67,2.76,7.31,5.55,10.97,8.34.46.64.95,1.21,1.87.76C-81.94-195.85-78.53-199.44-74.19-201.74Zm-7.7-29.96.01-.13-.13.06Zm-.62,2.28c.16-.56.67-1.14-.13-2.11-3.03,3.48-6.59,6.34-9.29,10.05-.32.44.03.7.27,1.09.75,1.2.12,2.39-1.09,2-1.47-.47-1.51.34-1.8,1.24a25.125,25.125,0,0,1-2.65,6.33,2.539,2.539,0,0,0-.26,2.21c.75.09,1.03-.51,1.43-.87,2.87-2.6,5.66-5.29,8.61-7.79a5.884,5.884,0,0,0,2.17-3.32C-84.62-223.62-83.38-226.46-82.51-229.42Z" fill="#fff"/><path d="M-7.46-214.42a3.133,3.133,0,0,1-.74,4.31q-9.375,8.895-18.22,18.34c-.74.78-1.25,1.1-1.82-.21-3.85-8.83-8.43-17.32-12.08-26.23-.33-.79-.59-1.62-.83-2.28a2.843,2.843,0,0,1,1.18-2.37c7.03-4.48,13.59-9.65,20.68-14.04,1.09-.67,1.52-.21,1.94.7,1.39,3,2.95,5.93,4.14,9C-11.52-222.83-9.54-218.6-7.46-214.42Zm-14.82,4.21c1.28-.41,1.25-1.61,1.29-2.95a7.359,7.359,0,0,0-2.86-5.11,2.2,2.2,0,0,0-2.63-.19c-.85.52-.61,1.38-.43,2.15a12.336,12.336,0,0,0,1.92,4.77C-24.33-210.63-23.5-209.83-22.28-210.21Z" fill="#fcbe1e"/><path d="M-20.99-213.16c-.04,1.34-.01,2.54-1.29,2.95-1.21.39-2.05-.41-2.71-1.31a12.493,12.493,0,0,1-1.92-4.77c-.18-.77-.41-1.63.43-2.15a2.2,2.2,0,0,1,2.63.19A7.333,7.333,0,0,1-20.99-213.16Z" fill="#fff"/><path d="M-24.23-237.17a1.191,1.191,0,0,1,1.35.47q-7.77,5.385-15.51,10.73c-.65.45-1.35.83-1.99,1.29-.83.61-1.37,1.06-2.01-.37a2.068,2.068,0,0,0-1.97-1.27l.01-1.31h.21c.64-.16,1.88-.07,1.93-1.41.04-1-.91-1.16-1.72-1.13a6.4,6.4,0,0,0-.88.09l-.11-1.08a4.834,4.834,0,0,0,1.35-.32c.85-.32,1.6-.86,1.42-1.87-.19-1.07-1.03-1.44-2.09-1.39-.95.05-1.89.55-2.85.12a.17.17,0,0,0-.01-.07h0c1.28-1.26,2.97-1.27,4.57-1.38C-36.43-236.48-30.33-236.81-24.23-237.17Zm-9.26,5.22c.9-.35,2.1-.77,1.85-2.01-.26-1.28-1.53-1.01-2.35-1.1-1.37.05-2.61.09-3.31,1.35a1.2,1.2,0,0,0,.17,1.57C-35.99-231.13-34.69-231.48-33.49-231.95Z" fill="#fcbe1e"/><path d="M-29.83-186.21a.582.582,0,0,1-.82-.15.476.476,0,0,1-.08-.18A.91.91,0,0,1-29.83-186.21Z" fill="#6b6a6b"/><path d="M-30.41-193.37c1.13,2.48,1.04,2.52-1.78,2.34a48.667,48.667,0,0,1-8.03-1.55c-.53-1.08-1.3-1.01-2.17-.46-1.13-.09-2.27-.2-3.4-.29-.8-.85-1.51-2.46-2.64-.3-.43-.09-.86-.19-1.29-.28-.13-.92.18-2.2-1.25-2.27-1.09-.05-1.29.9-1.32,1.8a2.928,2.928,0,0,1-1.86-.63c.07-1.7-1.02-3.3-.45-5.07a1.162,1.162,0,0,0-.38-.93c-2.56-2.08-3.09-4.64-1.9-7.65,1.82.69,2.52-.01,2.5-1.88a5.893,5.893,0,0,0-1.36-3.54,3.832,3.832,0,0,0,.29-.28c.03-.04.01-.13.01-.19l-.32.48c-1.2-.17-2.08-1.42-3.45-1.07-.34-.36-.82-.92-1.16-.34-.41.7.41.65.83.78a6.042,6.042,0,0,0,.22,2.5c-.91.22-1.65,1.57-2.67.73-.92-.77-.59-1.98-.3-3.02.65-2.33.3-4.85,1.36-7.1,4.25-.06,8.47.56,12.7.85a1.981,1.981,0,0,0,.64.05c3.98-1.03,5.44,1.03,6.84,4.5C-37.63-208.44-33.87-200.96-30.41-193.37Zm-5.45-2.2a1.832,1.832,0,0,0-.08-2.52,5.435,5.435,0,0,0-2.5-2.24c-.83-.28-1.74-1.03-2.6-.31-.93.78-.12,1.7.07,2.56a1.244,1.244,0,0,0,1.03,1.4c.58.4,1.15.84,1.76,1.19.77.41,1.58.77,2.32-.08Zm-12.09-6.04c1.67-.46,2.11-1.59,1.62-3.14-.66-2.09-2.23-3.04-4.16-2.59-.48.12-.73.34-.44.85a5.272,5.272,0,0,0,1.52,4.17c-.74.89-.7,1.89.34,2.23C-47.94-199.72-48.11-200.93-47.95-201.61Z" fill="#fcbe1e"/><path d="M-31.64-233.96c.25,1.24-.95,1.66-1.85,2.01-1.2.46-2.49.82-3.63-.19a1.185,1.185,0,0,1-.17-1.57c.7-1.26,1.94-1.3,3.31-1.35C-33.16-234.97-31.89-235.24-31.64-233.96Z" fill="#fff"/><path d="M-35.93-198.1a1.842,1.842,0,0,1,.08,2.52c-.75.85-1.55.49-2.31.06-.62-.35-1.18-.79-1.76-1.19-.34-.47-.68-.93-1.03-1.4-.19-.86-1.01-1.78-.07-2.56.87-.72,1.78.02,2.6.31A5.617,5.617,0,0,1-35.93-198.1Z" fill="#fff"/><path d="M-40.96-198.09c.35.47.69.93,1.03,1.4A1.236,1.236,0,0,1-40.96-198.09Z" fill="#828284"/><path d="M-40.21-192.59a3.736,3.736,0,0,1-2.17-.46C-41.51-193.6-40.74-193.67-40.21-192.59Z" fill="#fcbe1e"/><path d="M-42.14-233.35c.19,1.01-.57,1.55-1.42,1.87a4.835,4.835,0,0,1-1.35.32,2.829,2.829,0,0,1-1.73-.42c-1.34-.83-.33-2.02-.44-3.03.97.43,1.91-.07,2.85-.12C-43.18-234.79-42.33-234.42-42.14-233.35Z" fill="#fff"/><path d="M-43.93-230.16c.81-.04,1.76.13,1.72,1.13-.05,1.34-1.29,1.25-1.93,1.41h-.21c-1.08,0-1.8-.29-1.7-1.23a1.332,1.332,0,0,1,1.24-1.23A5.234,5.234,0,0,1-43.93-230.16Z" fill="#fff"/><path d="M-44.35-227.62l-.01,1.31a3.256,3.256,0,0,0-1.4.35c-1.45.72-.45,1.66.02,2.49-.17.32-.34.63-.51.94-3.45.39-6.83-.42-10.25-.58-3.35-.16-6.7-.21-10.05-.31-.06-.36-.12-.72-.17-1.08a128.152,128.152,0,0,1,19.63-10.19h0l-.05.04a.142.142,0,0,0,.06.02c.11,1.02-.9,2.2.44,3.03a2.846,2.846,0,0,0,1.73.42l.11,1.08a1.332,1.332,0,0,0-1.24,1.23C-46.14-227.92-45.43-227.62-44.35-227.62Zm-8.54.56c.14-1.65-1.28-1.41-2.28-1.45-1.15-.05-2.6.06-2.62,1.49-.02,1.25,1.21,1.79,2.45,1.85,1.31-.02,2.34-.56,2.45-1.89Z" fill="#fcbe1e"/><path d="M-45.73-223.48c.37.14.93.3.74.76-.22.51-.8.31-1.25.19C-46.07-222.85-45.9-223.16-45.73-223.48Z" fill="#fcbe1e"/><path d="M-46.33-204.75c.49,1.54.05,2.68-1.62,3.14-.49-.24-.98-.47-1.47-.71a5.294,5.294,0,0,1-1.52-4.17c.14-.28.29-.57.44-.85C-48.57-207.79-47-206.84-46.33-204.75Z" fill="#fff"/><path d="M-45.78-193.34a4.594,4.594,0,0,1-2.64-.3C-47.28-195.8-46.58-194.19-45.78-193.34Z" fill="#fcbe1e"/><path d="M-47.09-234.68a.148.148,0,0,1,.01.07c-.02-.01-.04-.01-.06-.02Z" fill="#252526"/><path d="M-49.42-202.33c.49.24.98.48,1.47.71-.16.69.01,1.9-1.13,1.52C-50.11-200.43-50.15-201.44-49.42-202.33Z" fill="#fcbe1e"/><path d="M-49.71-193.92a5.4,5.4,0,0,1-2.57-.46c.04-.9.24-1.85,1.32-1.8C-49.54-196.12-49.85-194.84-49.71-193.92Z" fill="#fcbe1e"/><path d="M-50.5-207.35c-.14.28-.29.57-.44.85C-51.23-207-50.97-207.23-50.5-207.35Z" fill="#828284"/><path d="M-55.17-228.51c1,.04,2.42-.19,2.28,1.45-.11,1.32-1.14,1.87-2.45,1.89-1.24-.06-2.47-.61-2.45-1.85C-57.77-228.45-56.31-228.56-55.17-228.51Z" fill="#fff"/><path d="M-54.61-200.08c-.57,1.78.52,3.36.45,5.07a1.864,1.864,0,0,1-1.29-1.06c-4.28-7.82-9.26-15.25-13.08-23.33-.93-1.97-.77-2.2,1.36-2.22,2.07-.02,4.15.02,6.23.03-1.06,2.24-.71,4.77-1.36,7.1-.29,1.04-.62,2.24.3,3.02,1.02.84,1.75-.51,2.67-.73.81,1.18,1.62,2.36,2.44,3.53-1.19,3-.66,5.56,1.9,7.65A1.121,1.121,0,0,1-54.61-200.08Z" fill="#fcbe1e"/><path d="M-54.38-210.55c.02,1.87-.67,2.57-2.5,1.88-.81-1.17-1.62-2.35-2.44-3.53a6.215,6.215,0,0,1-.22-2.5l.33-.45c1.37-.35,2.24.9,3.45,1.07h.01A5.938,5.938,0,0,1-54.38-210.55Z" fill="#fff"/><path d="M-55.44-214.56a.592.592,0,0,1-.01.19,3.831,3.831,0,0,1-.29.28h-.01Z" fill="#828284"/><path d="M-59.2-215.16l-.33.45c-.42-.13-1.24-.09-.83-.78C-60.02-216.08-59.54-215.51-59.2-215.16Z" fill="#828284"/><path d="M-66.72-224.5c.06.36.12.72.17,1.08-.41.1-.97.27-1.1-.21C-67.83-224.28-67.16-224.34-66.72-224.5Z" fill="#828284"/><path d="M-71.76-219.68c1.72.35,4.12,4.03,3.64,5.67-.77,2.63-1.6,5.23-2.39,7.85-.4,1.33-.87,1.94-2.1.57-3.51-3.9-7.1-7.73-10.65-11.59-.49-.53-1.05-1.03-.82-1.95a37.686,37.686,0,0,1,2.49-8.83,31.973,31.973,0,0,1,2.31-5.81c.78-1.29,1.54-1.74,2.54-.28a42.061,42.061,0,0,0,6.97,7.63c.38.34.8.69.35,1.26a1.13,1.13,0,0,1-1.33.4c-2.85-.84-3.34-.64-3.77,1.34A3.434,3.434,0,0,0-71.76-219.68ZM-76-214.9c.48-.3.57-.79.58-1.46a5.443,5.443,0,0,0-2.39-3.77c-1.16-.72-2.23-.16-2.02,1.03a6.481,6.481,0,0,0,2.23,4.06A1.284,1.284,0,0,0-76-214.9Z" fill="#fcbe1e"/><path d="M-73.08-234.58a1.319,1.319,0,0,1,1.32,1.29A2.268,2.268,0,0,1-73.08-234.58Z" fill="#757577"/><path d="M-73.6-204.84c1.26,1.33,1.03,2.24-.59,3.1-4.34,2.3-7.76,5.9-11.81,8.6a2.184,2.184,0,0,0-1.87-.76c-3.66-2.79-7.3-5.58-10.97-8.34-.95-.72-1.08-1.27-.22-2.24,3.83-4.3,8.72-7.45,12.67-11.62.68-.71,1.35-.92,2.17-.04C-80.71-212.35-77.15-208.6-73.6-204.84Zm-12.12,3.36c1.09-.09,2.05-.65,1.91-1.8-.18-1.45-.86-2.83-2.67-2.85-1.44-.02-1.94.93-2,2.24C-88.56-201.94-87.38-201.45-85.72-201.48Z" fill="#fcbe1e"/><path d="M-75.43-216.35c0,.66-.09,1.16-.58,1.46a1.3,1.3,0,0,1-1.6-.14,6.481,6.481,0,0,1-2.23-4.06c-.22-1.19.86-1.74,2.02-1.03A5.4,5.4,0,0,1-75.43-216.35Z" fill="#fff"/><path d="M-77.31-239.48l-.9-.38C-77.76-240.1-77.47-239.95-77.31-239.48Z" fill="#757577"/><path d="M-81.88-231.83l-.01.13-.12-.07Z" fill="#757577"/><path d="M-82.65-231.52c.81.97.3,1.54.13,2.11-.87,2.96-2.11,5.8-2.75,8.83a5.908,5.908,0,0,1-2.17,3.33c-2.96,2.49-5.75,5.18-8.61,7.79-.4.36-.68.96-1.43.87a2.573,2.573,0,0,1,.26-2.21,25.126,25.126,0,0,0,2.65-6.33c.29-.9.33-1.71,1.8-1.24,1.21.39,1.84-.8,1.09-2-.24-.39-.59-.65-.27-1.09C-89.24-225.18-85.68-228.05-82.65-231.52Zm-2.91,6.56c0-.46-.2-.82-.59-.76a1.269,1.269,0,0,0-1.12,1.32.549.549,0,0,0,.49.6.5.5,0,0,0,.21-.02A1.232,1.232,0,0,0-85.56-224.96Zm-.96,5.42c.01-.51-.22-.76-.64-.71a1.435,1.435,0,0,0-1.29,1.24c-.11.53.2.84.72.74A1.623,1.623,0,0,0-86.52-219.54Zm-5.78,4.52c.07-.48-.2-.92-.71-.82-1.03.19-1.45,1.03-1.78,1.88.01.56.29.95.77.86a2.136,2.136,0,0,0,1.72-1.92Z" fill="#fcbe1e"/><path d="M-83.81-203.28c.14,1.15-.82,1.7-1.91,1.8-1.67.03-2.84-.46-2.75-2.4.06-1.31.55-2.27,2-2.24C-84.67-206.1-83.98-204.73-83.81-203.28Z" fill="#fff"/><path d="M-86.14-225.72c.39-.06.59.3.59.76a1.253,1.253,0,0,1-1.01,1.14.546.546,0,0,1-.68-.37.5.5,0,0,1-.02-.21A1.262,1.262,0,0,1-86.14-225.72Z" fill="#fff"/><path d="M-86-193.14c-.91.45-1.4-.12-1.87-.76A2.157,2.157,0,0,1-86-193.14Z" fill="#fff"/><path d="M-87.16-220.25c.42-.05.65.2.64.71a1.65,1.65,0,0,1-1.21,1.28c-.52.1-.83-.21-.72-.74A1.436,1.436,0,0,1-87.16-220.25Z" fill="#fff"/><path d="M-93.02-215.84c.51-.09.78.35.71.82a2.135,2.135,0,0,1-1.72,1.92c-.48.09-.76-.3-.77-.86C-94.47-214.81-94.05-215.65-93.02-215.84Z" fill="#fff"/></g></g></g></svg>