<svg xmlns="http://www.w3.org/2000/svg" xmlns:xlink="http://www.w3.org/1999/xlink" width="130" height="130" viewBox="0 0 130 130"><defs><filter id="a" x="0" y="0" width="130" height="130" filterUnits="userSpaceOnUse"><feOffset dy="3" input="SourceAlpha"/><feGaussianBlur stdDeviation="5" result="b"/><feFlood flood-color="#400096" flood-opacity="0.161"/><feComposite operator="in" in2="b"/><feComposite in="SourceGraphic"/></filter></defs><g transform="translate(-447.511 -44.174)"><g transform="matrix(1, 0, 0, 1, 447.51, 44.17)" filter="url(#a)"><circle cx="50" cy="50" r="50" transform="translate(15 12)" fill="#ffc626"/></g><g transform="translate(481.917 72.861)"><g transform="translate(0 0)"><path d="M106.58,141.338c.033,1.091-.47,1.59-1.572,1.531-2.948-.163-5.9-.318-8.851-.44-1.032-.044-1.387-.721-1.476-1.546-.141-1.361-.166-2.733-.244-4.1a47.773,47.773,0,0,1,.584-6.9c.311-3,2.2-4.583,4.79-5.541a3.506,3.506,0,0,1,4.923,2.434A72.222,72.222,0,0,1,106.58,141.338Z" transform="translate(-59.592 -78.262)" fill="#fcbe1d"/><path d="M119.535,9.693a13.387,13.387,0,0,1,.684,5.548c-.155.544.777,2.053-.266,2.5-1.121.488-1.872-1.017-2.715-1.724-1.705-1.431-3.469-2.807-3.033-5.507a2.779,2.779,0,0,1,2.53-2.7C118.344,7.547,119.088,8.187,119.535,9.693Z" transform="translate(-72.015 -4.978)" fill="#fcbe1d"/><path d="M63.881,34.992c1.454,2.075,1.368,2.278-.958,3.114-1.646.592-1.4,2.138-1.3,3.318.2,2.241.192,4.475.288,6.713.3,6.791-.059,13.6.658,20.383.015.141.007.288.011.433.015,3.639-2.252,5.126-5.652,3.762-.939-.377-.725-1.124-.817-1.8-.558-4.154-.444-8.381-1.306-12.505-1.472-7.042-4.978-7.652-10.8-6.214-2.648.655-3.758,3.055-4.468,5.463-1.143,3.876-.828,7.885-.784,11.858.033,2.737.037,2.733-2.744,2.7-2.744-.026-5.492,0-8.237,0v.126c-2.963,0-5.925-.037-8.884.015-1.679.03-2.456-.547-2.456-2.375,0-6.3-.825-12.549-1.017-18.845-.141-4.542-.91-9.058-1.387-13.589-.141-1.306-.677-1.661-1.842-.91-.54.344-1.254.762-1.761.126s.122-1.213.492-1.72c2.408-3.3,5.541-5.885,8.5-8.644,4.387-4.087,8.659-8.311,13.537-11.832,3.891-2.807,5.359-2.578,9.25.263a122.237,122.237,0,0,1,20.2,18.293A22.37,22.37,0,0,1,63.881,34.992Z" transform="translate(-6.544 -8.016)" fill="#fcbe1d"/><path d="M61.573,28.433c.288,2.4.333,4.575-2.615,5.611-1,.355-.939,1.853-1.006,2.933a30.94,30.94,0,0,0,.632,5.149c.647,5.97-.244,11.961.226,17.935.137,1.724.111,3.462.152,5.189.037,1.568-.547,2.419-2.3,2.326a84.413,84.413,0,0,0-12.7.681c-2.515.244-4.989-.636-7.4-1.25a15.72,15.72,0,0,0-8.932.107c-3.554,1.124-7.153,1.553-10.819.185a4.858,4.858,0,0,0-4.364.544c-.851.033-1.7.07-2.552.1a.541.541,0,0,0-.411-.089l-.84-.407c-1.361-3.758-1.276-7.73-1.712-11.629a9.725,9.725,0,0,0-.067-5.237q-.067-1.054-.137-2.108c-.007-.618-.015-1.232-.022-1.849.078-.411.155-.817.233-1.228a2.005,2.005,0,0,0-.033-2.2L5.675,38.512a1.451,1.451,0,0,0-.1-1.394q-.277-2.142-.558-4.283c-.081-.921-.658-.814-1.28-.614C.4,31.189-1.093,27.59,1.755,24.99c3.4-3.107,5.91-7.135,9.8-9.672,4.879-3.185,8.692-7.59,13.223-11.151C28.744,1.049,33.1.305,37.713,4.259c.592.507,1.18,1.017,1.72,1.483.8-.274.655-.865.71-1.324C40.517,1.359,42.074.146,45.528.25c3.273.1,4.62,1.35,4.779,4.527s.8,6.317.322,9.509a1.175,1.175,0,0,0,.473,1.128c1.291,1.154,2.567,2.323,3.85,3.484a2.384,2.384,0,0,0,1.32,1.4,11.748,11.748,0,0,0,2.637,3.373,1.414,1.414,0,0,0,.792,1.087.154.154,0,0,0,.122.2,1.494,1.494,0,0,0,.721,1.143c.237.485.473.965.706,1.45C61.358,27.845,61.466,28.137,61.573,28.433Zm-4.945,1.9c2.326-.836,2.412-1.039.958-3.114a22.37,22.37,0,0,0-1.472-1.868,122.237,122.237,0,0,0-20.2-18.293c-3.891-2.841-5.359-3.07-9.25-.263-4.879,3.521-9.15,7.745-13.537,11.832-2.959,2.759-6.092,5.348-8.5,8.644-.37.507-1.006,1.084-.492,1.72s1.221.218,1.761-.126c1.165-.751,1.7-.4,1.842.91.477,4.531,1.246,9.047,1.387,13.589.192,6.3,1.017,12.549,1.017,18.845,0,1.827.777,2.4,2.456,2.375,2.959-.052,5.922-.015,8.884-.015v-.126c2.744,0,5.492-.022,8.237,0,2.781.03,2.778.033,2.744-2.7-.044-3.972-.359-7.982.784-11.858.71-2.408,1.82-4.808,4.468-5.463,5.818-1.439,9.324-.828,10.8,6.214.862,4.124.747,8.352,1.306,12.505.092.677-.122,1.424.817,1.8,3.4,1.365,5.666-.122,5.652-3.762,0-.144,0-.292-.011-.433-.718-6.78-.362-13.593-.658-20.383-.1-2.238-.092-4.472-.288-6.713C55.226,32.472,54.982,30.926,56.628,30.334ZM48.454,10.506a13.387,13.387,0,0,0-.684-5.548c-.448-1.505-1.191-2.145-2.8-1.875a2.779,2.779,0,0,0-2.53,2.7c-.436,2.7,1.328,4.076,3.033,5.507.843.706,1.594,2.212,2.715,1.724C49.231,12.559,48.3,11.05,48.454,10.506ZM45.665,64.85c1.1.059,1.605-.44,1.572-1.531a72.222,72.222,0,0,0-1.846-14.558,3.506,3.506,0,0,0-4.923-2.434c-2.585.958-4.479,2.545-4.79,5.541a47.775,47.775,0,0,0-.584,6.9c.078,1.365.1,2.737.244,4.1.089.825.444,1.5,1.476,1.546C39.766,64.532,42.717,64.687,45.665,64.85Z" transform="translate(-0.249 -0.244)" fill="#fff"/></g></g></g></svg>