<svg xmlns="http://www.w3.org/2000/svg" width="53.327" height="53.684" viewBox="0 0 53.327 53.684"><g transform="translate(-1772.311 -24.477)"><ellipse cx="26.664" cy="26.842" rx="26.664" ry="26.842" transform="translate(1772.311 24.477)" fill="#ffc626"/><g transform="translate(1781.596 34.4)"><path d="M408.809,35.51s-8.43,6.9-9.7,9.4-6.681,9.054-2.754,13.57,10.774,6.038,17.71,6.5c0,0-9.513.928-11.975,0s-8.739-2.16-11-6.835.059-10.042,2.106-12.392C395.608,42.976,398.565,38.324,408.809,35.51Z" transform="translate(-390.158 -35.51)" fill="#fff"/><path d="M417.257,77.769s8.37-6.972,9.614-9.483,6.6-9.114,2.629-13.594-10.827-5.943-17.77-6.342c0,0,9.5-1.011,11.975-.107s8.757,2.082,11.059,6.74.03,10.042-2,12.41C430.392,70.184,427.477,74.866,417.257,77.769Z" transform="translate(-398.897 -40.516)" fill="#fff"/><circle cx="3.748" cy="3.748" r="3.748" transform="translate(14.749 15.343)" fill="#fff"/></g></g></svg>