<svg xmlns="http://www.w3.org/2000/svg" width="140.18" height="141.12" viewBox="0 0 140.18 141.12"><g transform="translate(-1192.38 -31.12)"><ellipse cx="70.09" cy="70.56" rx="70.09" ry="70.56" transform="translate(1192.38 31.12)" fill="#fdc528"/><g transform="translate(1355.891 275.751)"><g transform="translate(0.251 0.249)"><path d="M-78.88-194.84v0Z" fill="#191b1a"/><path d="M-96.33-167.85a2.136,2.136,0,0,1,.18,2.38c-.18.4-.39.79-.59,1.19a1.223,1.223,0,0,0-.29.17c-1.05,1.24-2.29,1.12-3.61.54a.208.208,0,0,0-.06-.1,8.636,8.636,0,0,0-1.54-3.27c-.64-.73-.83-1.72-1.5-2.42a.17.17,0,0,0-.06-.1.4.4,0,0,0-.25-.42l-.36-.84a2.215,2.215,0,0,0-.09-1.14c-.02-.09-.05-.19-.07-.28a.414.414,0,0,0-.09-.37c-.02-.12-.04-.23-.06-.35.05-.8.09-1.6.14-2.4.07-.16.13-.31.2-.47l-.01-.05v-.01a.741.741,0,0,0,.26-.48,21.573,21.573,0,0,1,2.51-5.04c.57-.86,1.36-1.53,1.97-2.35a.823.823,0,0,0,.48-.47,2.4,2.4,0,0,0,.75-.5.291.291,0,0,0,.32-.25l.26-.17c.51-.23,1.02-.47,1.53-.7.24-.04.47-.08.71-.13l.43.02a1.176,1.176,0,0,0,.74.04c.27.03.54.05.81.08a24.807,24.807,0,0,1,3.4,1.84l.01.01c.1.26.33.37.54.53a17.647,17.647,0,0,1,3.22,2.49,5.822,5.822,0,0,0,.74.75,5.6,5.6,0,0,1,1.7,2.94,8.932,8.932,0,0,1-1.78,7.89,5.475,5.475,0,0,0-1.37,2.59,10.269,10.269,0,0,1-4.66,7.45,1.409,1.409,0,0,0-.7,1.53,3.1,3.1,0,0,1-.49,2.35,1.252,1.252,0,0,1-1.71.48,1.054,1.054,0,0,1-.11-.07,2.409,2.409,0,0,1-1.24-1.78c-.29-1.94.64-3.29,1.99-4.48a19.54,19.54,0,0,0,2.16-1.91.256.256,0,0,0,.24-.27.06.06,0,0,0-.01-.04c.03-.07.06-.13.09-.2a.3.3,0,0,0,.13-.36,2.558,2.558,0,0,1,.05-.27,5.737,5.737,0,0,0,.09-2.26l-.03-.27.02.02a12.443,12.443,0,0,0,.93-2.3c.08-.13.17-.25.25-.37l.04.02.04-.02a1.156,1.156,0,0,0,.5-.9c.03-.07.07-.13.1-.2a.513.513,0,0,0,.25-.48l.09-.3a1.519,1.519,0,0,0,.34-1.26c.01-.23.01-.46.02-.69a1.149,1.149,0,0,0-.3-1.03c-.05-.13-.09-.26-.14-.39a.887.887,0,0,0-.44-.87.571.571,0,0,0-.29-.4,1.4,1.4,0,0,0-.49-.88,7.721,7.721,0,0,0-3.2-2.09c-1.27-.49-2.51-.4-3.27,1.03a1.128,1.128,0,0,1-.83.62c-.9.07-1.17.75-1.52,1.39a3.814,3.814,0,0,0,.05,3.95A43.684,43.684,0,0,0-96.33-167.85Z" fill="#fff"/><path d="M-90.3-200.31l-.04.02.04-.02Z" fill="#191b1a"/><path d="M-91.35-150.84a2.682,2.682,0,0,1,1.43,2.46c.21,2.09-1.99,4.22-4.1,3.23a2.367,2.367,0,0,1-1.26-3.09,5.687,5.687,0,0,1,1.85-2.5C-92.57-151.45-92.24-151.46-91.35-150.84Z" fill="#fff"/><path d="M-96.74-164.29l-.01.01v-.01C-96.75-164.28-96.74-164.28-96.74-164.29Z" fill="#191b1a"/><path d="M-96.89-177.91a2.364,2.364,0,0,1,3.27-1.03,7.721,7.721,0,0,1,3.2,2.09,1.372,1.372,0,0,1,.49.88.571.571,0,0,1,.29.4.923.923,0,0,1,.44.87c.05.13.09.26.14.39a1.122,1.122,0,0,1,.3,1.03c-.01.23-.01.46-.02.69a1.553,1.553,0,0,1-.34,1.26l-.09.3a.523.523,0,0,1-.25.48,1.866,1.866,0,0,0-.1.2,1.2,1.2,0,0,1-.5.9l-.04.02-.04-.02c-.08.13-.16.25-.25.37a13.841,13.841,0,0,1-.93,2.3l-.02-.02.03.27a5.737,5.737,0,0,1-.09,2.26,2.558,2.558,0,0,1-.05.27.3.3,0,0,1-.13.36,1.76,1.76,0,0,0-.09.2.256.256,0,0,1-.19.31c-.01,0-.03.01-.04.01a19.658,19.658,0,0,1-2.16,1.91c-1.35,1.18-2.28,2.54-1.99,4.48a2.445,2.445,0,0,0,1.24,1.78,1.252,1.252,0,0,0,1.75-.3.672.672,0,0,0,.07-.11,3.16,3.16,0,0,0,.49-2.35,1.4,1.4,0,0,1,.7-1.53,10.221,10.221,0,0,0,4.66-7.44,5.613,5.613,0,0,1,1.37-2.59,8.925,8.925,0,0,0,1.78-7.89,5.6,5.6,0,0,0-1.7-2.94,5.822,5.822,0,0,1-.74-.75,17.314,17.314,0,0,0-3.22-2.49c-.2-.16-.44-.28-.54-.53l-.01-.01a24.233,24.233,0,0,0-3.4-1.84c-.27-.03-.54-.05-.81-.08a1.11,1.11,0,0,1-.74-.04l-.43-.02c-.24.04-.47.08-.71.13-.51.23-1.02.47-1.53.7l-.26.17a.291.291,0,0,1-.32.26h0a2.524,2.524,0,0,1-.75.5.884.884,0,0,1-.48.47c-.61.82-1.4,1.5-1.97,2.35a21.97,21.97,0,0,0-2.51,5.04.788.788,0,0,1-.26.48v.01l.01.05c-.07.15-.13.31-.2.47-.05.8-.09,1.6-.14,2.4.02.12.04.23.06.35a.414.414,0,0,1,.09.37c.02.09.05.19.07.28a2.106,2.106,0,0,1,.09,1.14l.36.84a.4.4,0,0,1,.25.42.207.207,0,0,1,.06.1c.67.7.86,1.69,1.5,2.42a8.489,8.489,0,0,1,1.54,3.27.207.207,0,0,1,.06.1c1.32.58,2.56.7,3.61-.54a1.053,1.053,0,0,1,.29-.17v.01l.01-.01h-.01c.2-.4.41-.79.59-1.19a2.134,2.134,0,0,0-.18-2.38,37.392,37.392,0,0,1-2.84-4.1,3.792,3.792,0,0,1-.05-3.95c.34-.63.61-1.32,1.52-1.39A1.22,1.22,0,0,0-96.89-177.91Zm2.87,32.75c2.11.99,4.31-1.14,4.1-3.23a2.678,2.678,0,0,0-1.43-2.45c-.89-.62-1.22-.61-2.07.09a5.667,5.667,0,0,0-1.85,2.5A2.371,2.371,0,0,0-94.02-145.16Zm-.99-55.93a5.2,5.2,0,0,1,3.1-.01c.09.02.18.03.27.05a1.17,1.17,0,0,1,.94.48c.02-.01.05.01.06.03v.01a.388.388,0,0,1,.33.23l-.04.02.04-.02a4.45,4.45,0,0,1,1.71,1.68v.01c.5.71,1.09.69,1.92.54a8.954,8.954,0,0,1,6.14,1.03l.05.04a1.325,1.325,0,0,1,.76.69c.09.09.18.19.27.28a1.1,1.1,0,0,1,.52.88c.02.11.03.23.05.34v0c.03,0,.05,0,.07.03.43.3.26.78.37,1.18.01.08.01.16.02.24a.7.7,0,0,1,.25.75c.03.12.05.25.07.37a7.172,7.172,0,0,1,.57,2.66c.09.97.47,1.87.57,2.83.04.4.36.51.71.55a8.051,8.051,0,0,1,3.06,1.21,4.54,4.54,0,0,1,1.94,3.08,20.908,20.908,0,0,1,.37,7.14,5.183,5.183,0,0,1-1.45,3.14c-.38.4-.34.65-.03,1.07a2.663,2.663,0,0,1,.3,3.42,3.793,3.793,0,0,0-.61,2.96,12.334,12.334,0,0,1,.13,1.61c.02.29.05.58.4.66a.645.645,0,0,0,.72-.32c.08-.12.17-.23.25-.34a2.93,2.93,0,0,1,4.05-.85,2.475,2.475,0,0,1,.36.28A5.084,5.084,0,0,1-65.1-161a.355.355,0,0,1,.04.09,2.129,2.129,0,0,1,.6,1.59,6.364,6.364,0,0,1-1.52,5.2,1.08,1.08,0,0,1-.5.37.391.391,0,0,1-.33.22l-.24.18a.787.787,0,0,1-.76.34,1.132,1.132,0,0,1-.68.08l-.27.04a2.6,2.6,0,0,1-1.55.31c-.49.03-.89.24-.74.78a8.6,8.6,0,0,1-.21,3.97,14.8,14.8,0,0,1-2.56,6.2,20.765,20.765,0,0,1-4.62,4.5c-1.02.75-1.95,1.62-2.91,2.44a28.345,28.345,0,0,1-4.25,2.88,8.086,8.086,0,0,1-5.5.57,17.884,17.884,0,0,1-5.13-2.07c-.95-.46-1.88-.96-2.78-1.51-1.37-.86-2.85-1.52-4.2-2.42-1.01-.68-2.14-1.17-3.2-1.77a18.729,18.729,0,0,1-6.85-6.41c-1.67-2.66-1.9-5.53-1.75-8.52.04-.82-.11-.96-.95-.9-1.57.12-3.2.23-4.23-1.28-1.66-2.45-2.52-5.59-.56-8.13a5.333,5.333,0,0,1,5.55-2.04,4.035,4.035,0,0,0,1.47,0,.5.5,0,0,0,.46-.47c.01-.28-.24-.32-.44-.37a5,5,0,0,1-3.36-3.05,25.022,25.022,0,0,1-1.23-2.92,14.46,14.46,0,0,1,.3-8.73,1.376,1.376,0,0,1,.5-.75,3.058,3.058,0,0,0,1.19-2.03,7.808,7.808,0,0,1,2.97-4.61l.02-.02a.471.471,0,0,1,.42-.44c.13-.09.25-.2.37-.3a.514.514,0,0,1,.44-.37,1.959,1.959,0,0,1,.81-.61c1.06-.64,1.91-1.72,3.35-1.54.32.04.39-.24.49-.5a7.5,7.5,0,0,1,1.64-2.66.339.339,0,0,1,.28-.29,10.4,10.4,0,0,1,2.93-2.64,21.818,21.818,0,0,1,6.53-2.48,1.931,1.931,0,0,1,.34,0Z" fill="#fcbe1e"/><path d="M-91.33-127.87a.2.2,0,0,0-.26-.05,2.558,2.558,0,0,0-1.16-.16.5.5,0,0,0-.56-.08l-.83-.09a.218.218,0,0,0-.28-.07,3.116,3.116,0,0,0-.99-.28.383.383,0,0,0-.4-.19c-.05-.02-.09-.05-.14-.07a.537.537,0,0,0-.53-.37c-.4-.49-1.06-.53-1.52-.93a.493.493,0,0,0-.45-.35c-.58-.44-1.16-.87-1.74-1.3a.349.349,0,0,0-.4-.24c-.68-.4-1.06-1.14-1.73-1.55,0-.23-.14-.33-.33-.39l-.03-.03a.376.376,0,0,0-.45-.28h-.01a6.129,6.129,0,0,0-1.71-.61,1.354,1.354,0,0,0-.78-.39,16.15,16.15,0,0,0-4.15-2.33.263.263,0,0,0-.29-.16c-1.24-1.13-2.48-2.25-3.72-3.38a.554.554,0,0,0-.33-.47,1.4,1.4,0,0,0-.51-.66.537.537,0,0,0-.33-.47c-.08-.41-.42-.65-.6-1a.3.3,0,0,0-.16-.33c-.41-.7-.83-1.4-1.24-2.1a.244.244,0,0,0-.05-.29c-.08-1.53-.07-3.08-.26-4.61a1.429,1.429,0,0,0-1.39-1.49h-.05c-.46-.07-.92-.17-1.37-.26a.754.754,0,0,0-.57-.18.5.5,0,0,0-.31-.31,20.225,20.225,0,0,1-2.07-2.07l-.98-1.52a.239.239,0,0,0-.08-.3,3.42,3.42,0,0,0-.41-1.44.2.2,0,0,0-.09-.25,1.6,1.6,0,0,0-.18-.6,3.315,3.315,0,0,1-.38-2.62.34.34,0,0,0,.09-.37.784.784,0,0,0,.13-.61.482.482,0,0,0,.14-.53c.16-.87.77-1.56.95-2.42a.474.474,0,0,0,.19-.38c.5-.54,1.01-1.08,1.51-1.63a.435.435,0,0,0,.36-.14,1.42,1.42,0,0,0,1.01-.17.613.613,0,0,0,.53-.23c.71-.22.8-.37.49-1.04a27.876,27.876,0,0,1-1.79-4.39.532.532,0,0,0-.09-.54,11,11,0,0,1,.14-6.15c.25-.93.7-1.78.97-2.7a.439.439,0,0,0,.23-.4,25.519,25.519,0,0,1,2.09-2.07,4.419,4.419,0,0,0,1.15-2.49.475.475,0,0,0,.11-.41,9.511,9.511,0,0,1,3.76-4.32,16.464,16.464,0,0,1,3.08-1.33,4.779,4.779,0,0,0,2.09-1.89,21.2,21.2,0,0,1,6.62-6.51,8.2,8.2,0,0,1,3.66-.92,35.455,35.455,0,0,0,4.1-.57,11.986,11.986,0,0,1,3.78-.15,4.412,4.412,0,0,1,2.86,2.01,15.94,15.94,0,0,0,1.1,1.36,1.453,1.453,0,0,0,1.33.47,21.62,21.62,0,0,1,3.94-.08,6.212,6.212,0,0,1,3.75,1.89c1.48,1.29,1.61,2.98,1.41,4.7a7.072,7.072,0,0,0,.78,3.64.916.916,0,0,0,.24.35c1.21.97,2.21,2.23,3.69,2.85.17.36.51.56.77.85a.56.56,0,0,0,.31.43,10.2,10.2,0,0,1,1.17,2.86l.05.29a27.307,27.307,0,0,0,.37,3c.06,1.26-.35,2.46-.33,3.71a2.088,2.088,0,0,0,.13,1.16,1.79,1.79,0,0,0,.09.86.421.421,0,0,0-.02.42.661.661,0,0,0-.05.58.2.2,0,0,0-.06.25,1.755,1.755,0,0,0-.33.88.3.3,0,0,0-.17.38c-.21.51-.4,1.04-.6,1.56a2.749,2.749,0,0,0,.35,2.13c0,.2-.01.39-.01.58-.09.16-.11.33.04.44a.407.407,0,0,0,.56-.12c.23-.09.47-.19.7-.28.2.01.39.03.59.04a.384.384,0,0,0,.37.07,1.857,1.857,0,0,0,.75.32.444.444,0,0,0,.45.24c.19.21.37.43.56.65a.291.291,0,0,0,.2.34,7.357,7.357,0,0,0,1.51,2.04.2.2,0,0,0,.11.26c.01,0,.02.01.04.01.04.06.07.11.11.17a.5.5,0,0,0,.21.49,9.9,9.9,0,0,1,.78,5.07.323.323,0,0,0-.07.41l-.29,1.01a.3.3,0,0,0-.13.39.01.01,0,0,0,.01.01c-.07.28-.14.57-.21.84a.189.189,0,0,0-.09.26c0,.01.01.01.01.02a19.908,19.908,0,0,1-1.44,3.28c-.53,1.14-1.57,1.35-2.71,1.37s-1.14.04-1.42,1.1c-.35,1.34-.71,2.67-1.07,4.01a.461.461,0,0,0-.23.45,1.99,1.99,0,0,0-.44.94c-.21,1.23-.99,2.25-1.24,3.47a.729.729,0,0,0-.4.57.779.779,0,0,0-.37.71,8.07,8.07,0,0,0-1.17,1.37.841.841,0,0,0-.45.42c-.44.3-1.01.41-1.27.93-.29-.16-.47.08-.69.19a.469.469,0,0,0-.43.36,8.636,8.636,0,0,0-1.57.95,1.8,1.8,0,0,1-.21.08c-.14-.06-.24-.03-.27.14a10.754,10.754,0,0,0-1.6,1.17,1.633,1.633,0,0,0-.79.92c-.24.04-.32.24-.42.42a.521.521,0,0,0-.4.37.642.642,0,0,0-.37.37.415.415,0,0,0-.35.32c-.29.24-.59.48-.89.72a.677.677,0,0,0-.51.4.655.655,0,0,0-.5.26.376.376,0,0,0-.4.21.447.447,0,0,0-.39.14.267.267,0,0,0-.31.17,7.21,7.21,0,0,1-2.41.92,10.088,10.088,0,0,0-2.33.01.662.662,0,0,0-.48,0,.621.621,0,0,0-.56.06A1.476,1.476,0,0,1-91.33-127.87Zm-24.63-26.97c.84-.07.99.07.95.9-.16,2.99.08,5.86,1.75,8.52a18.729,18.729,0,0,0,6.85,6.41c1.06.59,2.19,1.09,3.2,1.77,1.35.91,2.83,1.56,4.2,2.42a31.163,31.163,0,0,0,2.79,1.51,17.885,17.885,0,0,0,5.13,2.07,8.21,8.21,0,0,0,5.5-.57,27.136,27.136,0,0,0,4.25-2.88c.96-.83,1.89-1.7,2.91-2.44a20.98,20.98,0,0,0,4.62-4.5,14.616,14.616,0,0,0,2.56-6.2,8.6,8.6,0,0,0,.21-3.97c-.15-.54.25-.75.74-.78a2.6,2.6,0,0,0,1.55-.31l.27-.04a1.132,1.132,0,0,0,.68-.08.787.787,0,0,0,.76-.34l.24-.18a.4.4,0,0,0,.33-.22,1.237,1.237,0,0,0,.5-.37,6.364,6.364,0,0,0,1.52-5.2,2.144,2.144,0,0,0-.6-1.59.355.355,0,0,0-.04-.09,5.164,5.164,0,0,0-1.67-2.14,2.925,2.925,0,0,0-4.13.21,3.439,3.439,0,0,0-.28.36c-.08.12-.17.23-.25.34a.645.645,0,0,1-.72.32c-.35-.09-.37-.37-.4-.66a12.337,12.337,0,0,0-.13-1.61,3.834,3.834,0,0,1,.61-2.96c.87-1.27.49-2.36-.3-3.42-.31-.42-.35-.68.03-1.07a5.183,5.183,0,0,0,1.45-3.14,20.963,20.963,0,0,0-.36-7.15A4.54,4.54,0,0,0-73.18-185a8.115,8.115,0,0,0-3.06-1.21c-.36-.04-.67-.16-.71-.55-.09-.96-.48-1.86-.57-2.83a7.129,7.129,0,0,0-.57-2.66c-.03-.13-.05-.25-.07-.37a.7.7,0,0,0-.25-.75c-.01-.08-.01-.16-.02-.24-.11-.4.05-.88-.37-1.18a.108.108,0,0,0-.07-.03h0c-.01-.11-.03-.23-.05-.34a1.1,1.1,0,0,0-.52-.88c-.09-.09-.18-.18-.27-.28a1.325,1.325,0,0,0-.76-.69l-.05-.04a9,9,0,0,0-6.14-1.03c-.83.14-1.43.17-1.92-.54v-.01a4.6,4.6,0,0,0-1.71-1.68h0a.4.4,0,0,0-.33-.23c0-.03-.02-.04-.05-.04h-.01a1.161,1.161,0,0,0-.94-.47c-.09-.02-.18-.03-.27-.05a5.283,5.283,0,0,0-3.1.01l-.7.04a1.931,1.931,0,0,0-.34,0,22.232,22.232,0,0,0-6.54,2.47,10.566,10.566,0,0,0-2.93,2.64.35.35,0,0,0-.28.29,7.7,7.7,0,0,0-1.64,2.66c-.09.26-.17.54-.49.5-1.44-.17-2.29.9-3.35,1.54a1.959,1.959,0,0,0-.81.61.529.529,0,0,0-.44.37c-.12.09-.25.2-.37.3a.463.463,0,0,0-.42.44l-.02.02a7.825,7.825,0,0,0-2.97,4.61,3.058,3.058,0,0,1-1.19,2.03,1.292,1.292,0,0,0-.5.75,14.46,14.46,0,0,0-.3,8.73,25.766,25.766,0,0,0,1.23,2.92,5.047,5.047,0,0,0,3.36,3.05c.2.06.45.09.44.37a.513.513,0,0,1-.46.47,4.035,4.035,0,0,1-1.47,0,5.328,5.328,0,0,0-5.55,2.03c-1.96,2.54-1.11,5.68.56,8.13C-119.16-154.6-117.53-154.72-115.96-154.84Z" fill="#fff"/></g></g></g></svg>