<svg xmlns="http://www.w3.org/2000/svg" width="607" height="624" viewBox="0 0 607 624"><g transform="translate(-709 -157)"><g transform="translate(727 179)" fill="#e24841" stroke="#707070" stroke-width="1"><rect width="589" height="602" rx="107" stroke="none"/><rect x="0.5" y="0.5" width="588" height="601" rx="106.5" fill="none"/></g><g transform="translate(709 157)" fill="#fff" stroke="#707070" stroke-width="1"><rect width="589" height="602" rx="107" stroke="none"/><rect x="0.5" y="0.5" width="588" height="601" rx="106.5" fill="none"/></g><path d="M67.25,93.3c10.3,0,18.4-3.1,24.4-9.3,6.1-6.3,9.1-14.9,9.1-26,0-21.6-12.4-33.4-33.2-33.4-20.7,0-32.9,11.8-32.9,33.9,0,11.2,2.9,19.8,8.8,25.8S57.25,93.3,67.25,93.3Zm.3-13.5c-10.1,0-16.1-7.4-16.1-21.4,0-13.5,5.4-20.3,16.2-20.3,10.9,0,16.3,6.7,16.3,20.2C83.95,72.2,77.85,79.8,67.55,79.8Zm69.1-32.7a20.992,20.992,0,0,0-13.9,5l-1.6-3.7h-12.6v66.9h15.5V91.5a23.582,23.582,0,0,0,9.2,1.8c13.2,0,22.4-8.5,22.4-24.1C155.65,55.5,148.65,47.1,136.65,47.1Zm-6.5,34.1a22.534,22.534,0,0,1-6.1-.9V62a14.4,14.4,0,0,1,7.6-2.4c5.5,0,8.3,3.5,8.3,10.6C139.95,77.1,136.25,81.2,130.15,81.2Zm74.3-14.5a19.072,19.072,0,0,0-5.6-14c-3.7-3.7-8.7-5.6-15.2-5.6-13.7,0-22.6,9-22.6,23.1,0,14.4,8,23.1,25.1,23.1,7.1,0,12.8-1.7,17.1-5l-2.8-9.5a23.7,23.7,0,0,1-11.7,3c-6.5,0-10.4-2.8-11.6-8.3h26.5A32.309,32.309,0,0,0,204.45,66.7Zm-27.6-1.9c.8-5.3,3.4-7.9,7.7-7.9,4.1,0,6.5,2.1,7,6.3a13.7,13.7,0,0,1,.2,1.6Zm63.3-17.7a17.548,17.548,0,0,0-12.5,5.4l-.4-4.1h-14.8V92h15.5V64.6a11.73,11.73,0,0,1,7.4-2.4c3.8,0,6.4.6,7.9,1.8l.9-.4V47.7A12.451,12.451,0,0,0,240.15,47.1Zm55.6,35.2a4.671,4.671,0,0,1-1.7.3c-3.5,0-4.3-1.8-4.3-6.7V64.3c0-13.7-10.7-17.2-20.3-17.2a37.337,37.337,0,0,0-18.7,5.1l1.6,11.5q7.65-4.5,14.4-4.5c5.2,0,7.8,2,7.8,5.9v2.3a39.976,39.976,0,0,0-7.1-.6c-12.4,0-20.3,4.3-20.3,13.5,0,8,5.9,13,15.6,13a23.288,23.288,0,0,0,13.8-4.3c1.9,2.9,5.1,4.3,9.6,4.3a20.82,20.82,0,0,0,10.2-2.2Zm-27.8.8c-3.2,0-4.8-1.2-4.8-3.5,0-2.8,2.3-4.2,6.8-4.2a31.657,31.657,0,0,1,4.6.5v5.2A12.955,12.955,0,0,1,267.95,83.1Zm67.9-4.1a15.316,15.316,0,0,1-7.6,1.9c-2.7,0-4.7-.7-5.9-2-1.1-1.3-1.7-3.3-1.7-6V60h13.9V48.4h-13.9V36.5l-15.5,1.2V48.4h-6V60h6V76.7c0,11.1,5.8,16.6,17.4,16.6,6.2,0,10.9-1.1,14.1-3.4Zm21.3-40.7a8.993,8.993,0,0,0,0-12.7,8.872,8.872,0,0,0-12.6,0,8.993,8.993,0,0,0,0,12.7A8.873,8.873,0,0,0,357.15,38.3Zm-1.8,55a19.59,19.59,0,0,0,9.7-2.2l-.5-8.8a6.873,6.873,0,0,1-2.2.3c-2.8,0-3.8-1.2-3.8-5.1V48.4h-15.5V80.1C343.05,90.1,347.35,93.3,355.35,93.3Zm56.8-26.6a19.072,19.072,0,0,0-5.6-14c-3.7-3.7-8.7-5.6-15.2-5.6-13.7,0-22.6,9-22.6,23.1,0,14.4,8,23.1,25.1,23.1,7.1,0,12.8-1.7,17.1-5l-2.8-9.5a23.7,23.7,0,0,1-11.7,3c-6.5,0-10.4-2.8-11.6-8.3h26.5A32.309,32.309,0,0,0,412.15,66.7Zm-27.6-1.9c.8-5.3,3.4-7.9,7.7-7.9,4.1,0,6.5,2.1,7,6.3a13.7,13.7,0,0,1,.2,1.6ZM43.25,165.3c-1.6-.1-2.9-.2-3.8-.2-12.7,0-20.9,6.7-20.9,17.1a15.338,15.338,0,0,0,7.7,13.9c-4.5,3.3-6.8,7.2-6.8,11.7a8.21,8.21,0,0,0,2.6,6.4c-3.3,2.7-4.9,5.7-4.9,9.1,0,6.7,6.3,11.3,20.6,11.3,8.1,0,14.7-1.5,19.6-4.4,5-2.9,7.5-6.9,7.5-12.2,0-7.9-5.9-13-18-13h-7.8c-4.5,0-6.8-1-6.8-3a3.7,3.7,0,0,1,1.9-3.1,28.336,28.336,0,0,0,5.4.4c12.7,0,20.6-6.4,20.6-17.1a16.713,16.713,0,0,0-2-8.3l6.9.4v-8.9Zm-3.8,23.9c-3.5,0-5.9-2.9-5.9-7.3,0-4.1,2.2-6.7,5.8-6.7,3.9,0,5.8,2.3,5.8,6.9C45.15,186.5,43.05,189.2,39.45,189.2Zm5.4,28c4.7,0,7,1,7,2.9,0,2.5-3.6,3.8-10.8,3.8-7.7,0-10.7-1.1-10.7-3.8a3.891,3.891,0,0,1,1.3-2.9h13.2Zm65.8-32.5a19.072,19.072,0,0,0-5.6-14c-3.7-3.7-8.7-5.6-15.2-5.6-13.7,0-22.6,9-22.6,23.1,0,14.4,8,23.1,25.1,23.1,7.1,0,12.8-1.7,17.1-5l-2.8-9.5a23.7,23.7,0,0,1-11.7,3c-6.5,0-10.4-2.8-11.6-8.3h26.5A32.309,32.309,0,0,0,110.65,184.7Zm-27.6-1.9c.8-5.3,3.4-7.9,7.7-7.9,4.1,0,6.5,2.1,7,6.3a13.7,13.7,0,0,1,.2,1.6Zm52.5,28.5c12.7,0,20.9-5.5,20.9-14.4,0-7.1-5.1-10.5-16.2-14.2-5.4-1.5-8.7-3-8.7-5,0-1.9,1.6-2.9,4.9-2.9,4.7,0,7.4,2,8.2,5.9l11.3-3.1c-1.1-7.7-8.2-12.7-18.7-12.7a25.488,25.488,0,0,0-14,3.8c-3.9,2.5-5.9,6.2-5.9,11.2,0,3.7,1.2,6.6,3.5,8.6a25.679,25.679,0,0,0,7.3,4.1c1.7.7,3.8,1.5,6.4,2.4a51.208,51.208,0,0,1,5.6,2c1.2.5,1.8,1.1,1.8,1.7,0,1.5-2.3,2.5-5.8,2.5q-7.65,0-9.3-5.7l-11.7,3.4C117.65,207.2,124.45,211.3,135.55,211.3Zm39.7,0a19.59,19.59,0,0,0,9.7-2.2l-.5-8.8a5.842,5.842,0,0,1-2.1.3c-2.9,0-3.9-1.2-3.9-5.1V140.4h-15.5v57.7C162.95,208.1,167.15,211.3,175.25,211.3Zm62.7-11a4.671,4.671,0,0,1-1.7.3c-3.5,0-4.3-1.8-4.3-6.7V182.3c0-13.7-10.7-17.2-20.3-17.2a37.337,37.337,0,0,0-18.7,5.1l1.6,11.5q7.65-4.5,14.4-4.5c5.2,0,7.8,2,7.8,5.9v2.3a39.978,39.978,0,0,0-7.1-.6c-12.4,0-20.3,4.3-20.3,13.5,0,8,5.9,13,15.6,13a23.288,23.288,0,0,0,13.8-4.3c1.9,2.9,5.1,4.3,9.6,4.3a20.82,20.82,0,0,0,10.2-2.2Zm-27.8.8c-3.2,0-4.8-1.2-4.8-3.5,0-2.8,2.3-4.2,6.8-4.2a31.658,31.658,0,0,1,4.6.5v5.2A12.955,12.955,0,0,1,210.15,201.1Zm81.1-.8a4.671,4.671,0,0,1-1.7.3c-3.5,0-4.3-1.8-4.3-6.7V182.3c0-13.7-10.7-17.2-20.3-17.2a37.337,37.337,0,0,0-18.7,5.1l1.6,11.5q7.65-4.5,14.4-4.5c5.2,0,7.8,2,7.8,5.9v2.3a39.978,39.978,0,0,0-7.1-.6c-12.4,0-20.3,4.3-20.3,13.5,0,8,5.9,13,15.6,13a23.288,23.288,0,0,0,13.8-4.3c1.9,2.9,5.1,4.3,9.6,4.3a20.82,20.82,0,0,0,10.2-2.2Zm-27.8.8c-3.2,0-4.8-1.2-4.8-3.5,0-2.8,2.3-4.2,6.8-4.2a31.658,31.658,0,0,1,4.6.5v5.2A12.955,12.955,0,0,1,263.45,201.1Zm57.2-35.8c-1.6-.1-2.9-.2-3.8-.2-12.7,0-20.9,6.7-20.9,17.1a15.338,15.338,0,0,0,7.7,13.9c-4.5,3.3-6.8,7.2-6.8,11.7a8.21,8.21,0,0,0,2.6,6.4c-3.3,2.7-4.9,5.7-4.9,9.1,0,6.7,6.3,11.3,20.6,11.3,8.1,0,14.7-1.5,19.6-4.4,5-2.9,7.5-6.9,7.5-12.2,0-7.9-5.9-13-18-13h-7.8c-4.5,0-6.8-1-6.8-3a3.7,3.7,0,0,1,1.9-3.1,28.336,28.336,0,0,0,5.4.4c12.7,0,20.6-6.4,20.6-17.1a16.712,16.712,0,0,0-2-8.3l6.9.4v-8.9Zm-3.8,23.9c-3.5,0-5.9-2.9-5.9-7.3,0-4.1,2.2-6.7,5.8-6.7,3.9,0,5.8,2.3,5.8,6.9C322.55,186.5,320.45,189.2,316.85,189.2Zm5.4,28c4.7,0,7,1,7,2.9,0,2.5-3.6,3.8-10.8,3.8-7.7,0-10.7-1.1-10.7-3.8a3.891,3.891,0,0,1,1.3-2.9h13.2Zm75.6-16.9a6.648,6.648,0,0,1-2.1.3c-2.8,0-3.9-1.2-3.9-5.1V140.4h-15.5v26.4a25.761,25.761,0,0,0-9.1-1.7,22.656,22.656,0,0,0-16.3,6.2c-4.2,4.1-6.3,10.1-6.3,17.9,0,13.7,6.8,22.1,19.2,22.1a19.944,19.944,0,0,0,14.2-5.5c1.9,3.7,5.5,5.5,10.8,5.5a19.062,19.062,0,0,0,9.5-2.2Zm-37.4-12.1c0-7.1,3.7-11,10.5-11a20.174,20.174,0,0,1,5.4.8v18.4a14.015,14.015,0,0,1-7.5,2.3Q360.45,198.7,360.45,188.2Zm60.5-1.3,2.3-46.4h-15.5l2.3,46.4Zm-14.3,15.5a8.9,8.9,0,1,0,17.8,0,8.9,8.9,0,0,0-17.8,0Z" transform="translate(780 186)" fill="#00b2a1"/><path d="M-167.31.66c6.78,0,11.52-2.88,11.52-7.92a5.654,5.654,0,0,0-2.28-4.8,26.448,26.448,0,0,0-6.96-3.48c-3.96-1.44-5.94-2.04-5.94-3.72,0-1.62,1.62-2.46,4.2-2.46,3.18,0,5.04,1.26,5.64,3.84l5.04-1.38c-.48-4.56-4.56-7.32-10.32-7.32a13.737,13.737,0,0,0-7.68,2.1,6.875,6.875,0,0,0-3.18,6.12,5.62,5.62,0,0,0,2.64,5.16,17.126,17.126,0,0,0,2.58,1.44c.72.3,1.92.84,3.66,1.5.24.06.6.24,1.08.42,3.84,1.5,5.16,2.16,5.16,3.3,0,1.38-1.86,2.34-4.8,2.34-3.24,0-5.34-1.32-6.3-3.9l-5.34,1.98C-177.27-1.62-173.49.66-167.31.66Zm32.16-27.18a12.547,12.547,0,0,0-8.76,3.54l-.78-2.82h-5.58V13.68h6.84V-.72A14.028,14.028,0,0,0-137.19.66c7.86,0,13.02-5.04,13.02-14.16C-124.17-21.66-128.13-26.52-135.15-26.52Zm-3.24,21.48a14.244,14.244,0,0,1-5.04-1.02V-18a9.566,9.566,0,0,1,6.24-2.46c4.14,0,6.12,2.94,6.12,7.5C-131.07-7.92-133.53-5.04-138.39-5.04Zm42.54-10.2c0-6.66-4.14-11.28-11.34-11.28a12.334,12.334,0,0,0-9.36,3.72q-3.42,3.69-3.42,9.9c0,8.34,4.56,13.62,13.92,13.62,4.02,0,7.32-.96,9.78-2.94l-1.26-4.26a13.971,13.971,0,0,1-7.38,2.04q-7.29,0-8.1-7.38h16.8A16.56,16.56,0,0,0-95.85-15.24Zm-17.16-.6c.54-4.02,2.82-6.24,6.18-6.24,3.12,0,4.98,2.04,5.22,5.4,0,.18.06.6.06.84Zm45.72.6c0-6.66-4.14-11.28-11.34-11.28a12.334,12.334,0,0,0-9.36,3.72q-3.42,3.69-3.42,9.9C-91.41-4.56-86.85.72-77.49.72c4.02,0,7.32-.96,9.78-2.94l-1.26-4.26a13.971,13.971,0,0,1-7.38,2.04q-7.29,0-8.1-7.38h16.8A16.56,16.56,0,0,0-67.29-15.24Zm-17.16-.6c.54-4.02,2.82-6.24,6.18-6.24,3.12,0,4.98,2.04,5.22,5.4,0,.18.06.6.06.84ZM-55.05.66A9.914,9.914,0,0,0-50.43-.36l-.24-3.96a3.629,3.629,0,0,1-1.32.24c-1.62,0-2.22-.66-2.22-3V-41.76h-6.84V-5.94C-61.05-1.08-58.95.66-55.05.66Zm34.68,0c8.22,0,13.38-5.4,13.38-13.8,0-8.34-4.98-13.38-13.14-13.38-8.22,0-13.5,5.16-13.5,13.56,0,4.14,1.2,7.5,3.6,9.96S-24.39.66-20.37.66Zm.12-21.96c3.9,0,6.36,3.06,6.36,8.28a10.393,10.393,0,0,1-1.74,6.24A5.584,5.584,0,0,1-20.31-4.5a5.584,5.584,0,0,1-4.68-2.28,10.143,10.143,0,0,1-1.68-6.24C-26.67-18.24-24.27-21.3-20.25-21.3Zm34.38-5.22a12.547,12.547,0,0,0-8.76,3.54L4.59-25.8H-.99V13.68H5.85V-.72A14.028,14.028,0,0,0,12.09.66c7.86,0,13.02-5.04,13.02-14.16C25.11-21.66,21.15-26.52,14.13-26.52ZM10.89-5.04A14.244,14.244,0,0,1,5.85-6.06V-18a9.566,9.566,0,0,1,6.24-2.46c4.14,0,6.12,2.94,6.12,7.5C18.21-7.92,15.75-5.04,10.89-5.04Zm48.66.72a3.629,3.629,0,0,1-1.32.24c-1.62,0-2.16-.72-2.16-3.12v-8.76c0-7.02-3.12-10.56-9.42-10.56a13.4,13.4,0,0,0-8.82,3.36l-.24-2.64H31.11V0h6.84V-17.94a9.746,9.746,0,0,1,6.36-2.52c3.3,0,4.92,2.04,4.92,6.12v8.4c0,4.86,2.1,6.6,5.94,6.6A10.723,10.723,0,0,0,59.85-.36Zm8.34-35.7c-3.48-.18-5.52,4.62-2.88,7.02,2.28,2.64,7.2.66,7.02-2.94A4.1,4.1,0,0,0,67.89-40.02ZM70.41.66A10,10,0,0,0,75.09-.36l-.24-3.96a4.112,4.112,0,0,1-1.32.24c-1.62,0-2.22-.66-2.22-3V-25.8H64.47V-5.94C64.47-1.08,66.57.66,70.41.66Zm32.04-15.9c0-6.66-4.14-11.28-11.34-11.28a12.334,12.334,0,0,0-9.36,3.72q-3.42,3.69-3.42,9.9C78.33-4.56,82.89.72,92.25.72c4.02,0,7.32-.96,9.78-2.94l-1.26-4.26a13.971,13.971,0,0,1-7.38,2.04q-7.29,0-8.1-7.38h16.8A16.56,16.56,0,0,0,102.45-15.24Zm-17.16-.6c.54-4.02,2.82-6.24,6.18-6.24,3.12,0,4.98,2.04,5.22,5.4,0,.18.06.6.06.84ZM136.11-4.32a4.531,4.531,0,0,1-1.74.18c-1.26-.18-1.74-.84-1.74-2.94V-25.8h-6.78V-7.5a9.115,9.115,0,0,1-5.58,2.1c-3.3,0-4.74-1.92-4.74-6.06V-25.8h-6.78V-9.84c0,7.02,3.06,10.5,9.18,10.5a12.305,12.305,0,0,0,8.4-3.24c.72,2.16,2.52,3.24,5.46,3.24a10.458,10.458,0,0,0,4.62-1.02Zm31.14-4.44L161.61-25.8h-5.88L149.97-8.94,144.69-25.8h-7.14L147.15,0h4.86l6.42-17.16L164.49,0h4.92l9.9-25.8h-6.6Z" transform="translate(1004 511)" fill="#307d7e"/><ellipse cx="80" cy="76.5" rx="80" ry="76.5" transform="translate(924 566)" fill="#1b9a82"/><g transform="translate(964.468 602.76)"><path d="M586.59-461.146l-28.867-14.319,6.527-4.355a22.858,22.858,0,0,0-6.773-3.555,26.3,26.3,0,0,0-34.091,18.319,26.274,26.274,0,0,0,20.332,32.423,26.425,26.425,0,0,0,29.241-15.1,10.632,10.632,0,0,1,1.511-2.635,6.422,6.422,0,0,1,8.249-1.316,6.442,6.442,0,0,1,2.733,7.9,37.645,37.645,0,0,1-9.3,13.768,38.432,38.432,0,0,1-20.064,10.287,38.381,38.381,0,0,1-31.441-7.691A37.882,37.882,0,0,1,509.883-452.8a38.241,38.241,0,0,1,9.013-31.171,37.676,37.676,0,0,1,24.17-13.426c12.229-1.741,23.034,1.632,32.328,9.786.051.044.111.078.286.2l8.886-5.872C585.246-482.494,585.913-471.89,586.59-461.146Z" transform="translate(-509.444 497.841)" fill="#fff"/></g></g></svg>