<svg xmlns="http://www.w3.org/2000/svg" width="499.2" height="352.79" viewBox="0 0 499.2 352.79"><g transform="translate(-1371.163 -415.375)"><path d="M183.688,70.375H150.063v-38H129.688V115h20.375V86.875h33.625V115h20.375V32.375H183.688Zm86.25,13a23.84,23.84,0,0,0-7-17.5c-4.625-4.625-10.875-7-19-7-17.125,0-28.25,11.25-28.25,28.875,0,18,10,28.875,31.375,28.875,8.875,0,16-2.125,21.375-6.25l-3.5-11.875a29.624,29.624,0,0,1-14.625,3.75c-8.125,0-13-3.5-14.5-10.375h33.125A40.386,40.386,0,0,0,269.938,83.375ZM235.438,81c1-6.625,4.25-9.875,9.625-9.875,5.125,0,8.125,2.625,8.75,7.875a17.12,17.12,0,0,1,.25,2Zm86.5,17.75a19.144,19.144,0,0,1-9.5,2.375c-3.375,0-5.875-.875-7.375-2.5-1.375-1.625-2.125-4.125-2.125-7.5V75h17.375V60.5H302.938V45.625l-19.375,1.5V60.5h-7.5V75h7.5V95.875c0,13.875,7.25,20.75,21.75,20.75,7.75,0,13.625-1.375,17.625-4.25ZM25.75,234.625a24.487,24.487,0,0,0,12.125-2.75l-.625-11a7.3,7.3,0,0,1-2.625.375c-3.625,0-4.875-1.5-4.875-6.375V146H10.375v72.125C10.375,230.625,15.625,234.625,25.75,234.625Zm36.375-68.75a11.241,11.241,0,0,0,0-15.875,11.091,11.091,0,0,0-15.75,0,11.241,11.241,0,0,0,0,15.875A11.091,11.091,0,0,0,62.125,165.875Zm-2.25,68.75A24.487,24.487,0,0,0,72,231.875l-.625-11a8.591,8.591,0,0,1-2.75.375c-3.5,0-4.75-1.5-4.75-6.375V178.5H44.5v39.625C44.5,230.625,49.875,234.625,59.875,234.625Zm46.125,0c9.625,0,18.75-3.625,23.125-7.75l-4.25-13.125a24.587,24.587,0,0,1-14.375,4.875c-9.375,0-14.125-5-14.125-14.875,0-6.875,2.5-11.875,8-11.875,4.25,0,6.625,2.75,7.25,8.375l16.75-4.625q-2.437-18.75-22.875-18.75c-8.5,0-15.5,2.5-20.875,7.5-5.375,4.875-8,12-8,21.25C76.625,223.125,86.875,234.625,106,234.625Zm96-13.75a6.436,6.436,0,0,1-2.625.375c-3.625,0-4.75-1.5-4.75-6.375v-15c0-15.375-6.75-23-20.375-23a26.479,26.479,0,0,0-16.625,5.875V146H138.25v87h19.375V197.5a15.83,15.83,0,0,1,9.75-3.5c5.375,0,8.125,3.375,8.125,10.125v14c0,12.5,5.125,16.5,15,16.5a24.659,24.659,0,0,0,12.25-2.75Zm66.125,0a5.839,5.839,0,0,1-2.125.375c-4.375,0-5.375-2.25-5.375-8.375v-14.5c0-17.125-13.375-21.5-25.375-21.5a46.671,46.671,0,0,0-23.375,6.375l2,14.375q9.563-5.625,18-5.625c6.5,0,9.75,2.5,9.75,7.375v2.875a49.971,49.971,0,0,0-8.875-.75c-15.5,0-25.375,5.375-25.375,16.875,0,10,7.375,16.25,19.5,16.25a29.11,29.11,0,0,0,17.25-5.375c2.375,3.625,6.375,5.375,12,5.375,5.125,0,9.375-.875,12.75-2.75Zm-34.75,1c-4,0-6-1.5-6-4.375,0-3.5,2.875-5.25,8.5-5.25a39.57,39.57,0,0,1,5.75.625v6.5A16.194,16.194,0,0,1,233.375,221.875Zm101.375-1a5.839,5.839,0,0,1-2.125.375c-4.375,0-5.375-2.25-5.375-8.375v-14.5c0-17.125-13.375-21.5-25.375-21.5A46.671,46.671,0,0,0,278.5,183.25l2,14.375q9.563-5.625,18-5.625c6.5,0,9.75,2.5,9.75,7.375v2.875a49.971,49.971,0,0,0-8.875-.75c-15.5,0-25.375,5.375-25.375,16.875,0,10,7.375,16.25,19.5,16.25a29.11,29.11,0,0,0,17.25-5.375c2.375,3.625,6.375,5.375,12,5.375,5.125,0,9.375-.875,12.75-2.75Zm-34.75,1c-4,0-6-1.5-6-4.375,0-3.5,2.875-5.25,8.5-5.25a39.57,39.57,0,0,1,5.75.625v6.5A16.194,16.194,0,0,1,300,221.875Zm140.875-1a6.148,6.148,0,0,1-2.5.375c-3.625,0-4.875-1.5-4.875-6.375v-15c0-15.375-6.75-23-20.25-23-6.625,0-12.75,2.75-18.625,8.25q-4.875-8.25-16.875-8.25c-5.5,0-10.75,2-15.875,5.875l-.5-4.25h-18.5V233H362.25V197.125a14.033,14.033,0,0,1,8.5-3.125c5.25,0,7.875,3.375,7.875,10v29H398V199.625a15.209,15.209,0,0,0-.125-2.625,15.029,15.029,0,0,1,8.625-3c5.125,0,7.625,3.375,7.625,10.125v14c0,12.375,5.375,16.5,15.375,16.5a25.658,25.658,0,0,0,12.25-2.75Z" transform="translate(1401 383)" fill="#00b2a1"/><path d="M-242.346-9.984c5.07-.975,7.6-4.056,7.6-9.321a15.471,15.471,0,0,0-1.4-6.669l-4.329,1.17a17.109,17.109,0,0,1,1.014,5.616c0,4.251-2.145,5.85-7.293,5.85h-1.4V-25.779h-4.68V0h4.68V-9.633h1.56Q-243.2.37-233.142.39l.39-4.368C-237.549-4.1-240.747-6.435-242.346-9.984ZM-225.3.429a6.444,6.444,0,0,0,3-.663l-.156-2.574a2.359,2.359,0,0,1-.858.156c-1.053,0-1.443-.429-1.443-1.95V-27.144H-229.2V-3.861C-229.2-.7-227.838.429-225.3.429Zm8.463-26.442a2.688,2.688,0,0,0-1.872,4.563,2.689,2.689,0,0,0,4.563-1.911A2.663,2.663,0,0,0-216.84-26.013ZM-215.2.429a6.5,6.5,0,0,0,3.042-.663l-.156-2.574a2.673,2.673,0,0,1-.858.156c-1.053,0-1.443-.429-1.443-1.95V-16.77h-4.446V-3.861C-219.063-.7-217.7.429-215.2.429Zm15.132-9.087a9.8,9.8,0,0,0,5.577-8.112h-4.173c-.468,3.12-2.34,5.148-5.655,6.045V-27.144h-4.446V0h4.446V-7.215l.9-.234C-201.591-2.5-198.432.234-193.245.429l.858-3.744a9.308,9.308,0,0,1-4.368-1.638A9.452,9.452,0,0,1-200.07-8.658ZM-173.394.429c5.343,0,8.7-3.51,8.7-8.97,0-5.421-3.237-8.7-8.541-8.7-5.343,0-8.775,3.354-8.775,8.814a8.914,8.914,0,0,0,2.34,6.474A8.378,8.378,0,0,0-173.394.429Zm.078-14.274c2.535,0,4.134,1.989,4.134,5.382a6.755,6.755,0,0,1-1.131,4.056,3.63,3.63,0,0,1-3.042,1.482A3.63,3.63,0,0,1-176.4-4.407a6.593,6.593,0,0,1-1.092-4.056C-177.489-11.856-175.929-13.845-173.316-13.845Zm22.347-3.393a8.156,8.156,0,0,0-5.694,2.3l-.507-1.833H-160.8V8.892h4.446V-.468a9.118,9.118,0,0,0,4.056.9c5.109,0,8.463-3.276,8.463-9.2C-143.832-14.079-146.406-17.238-150.969-17.238Zm-2.106,13.962a9.259,9.259,0,0,1-3.276-.663V-11.7a6.218,6.218,0,0,1,4.056-1.6c2.691,0,3.978,1.911,3.978,4.875C-148.317-5.148-149.916-3.276-153.075-3.276Zm40.365.468a2.559,2.559,0,0,1-.9.156c-1.053,0-1.4-.429-1.4-1.95v-5.85q0-6.786-6.084-6.786a8.557,8.557,0,0,0-5.655,2.106V-27.144H-131.2V0h4.446V-11.661a6.259,6.259,0,0,1,4.134-1.638c2.223,0,3.2,1.248,3.2,3.9v5.538c0,3.159,1.326,4.29,3.822,4.29a6.5,6.5,0,0,0,3.042-.663Zm17.9-7.1c0-4.329-2.691-7.332-7.371-7.332a8.017,8.017,0,0,0-6.084,2.418,9.092,9.092,0,0,0-2.223,6.435c0,5.421,2.964,8.853,9.048,8.853a9.879,9.879,0,0,0,6.357-1.911L-95.9-4.212a9.081,9.081,0,0,1-4.8,1.326q-4.739,0-5.265-4.8h10.92A10.764,10.764,0,0,0-94.809-9.906Zm-11.154-.39c.351-2.613,1.833-4.056,4.017-4.056,2.028,0,3.237,1.326,3.393,3.51,0,.117.039.39.039.546Zm26.832,6.279a6.18,6.18,0,0,1-3.12.858c-2.067,0-3.12-1.287-3.12-3.822v-6.435H-79.6V-16.77h-5.772v-4.875l-4.446.468v4.407H-92.43v3.354h2.613V-5.85c0,4.173,1.989,6.279,5.967,6.279A8.741,8.741,0,0,0-78.819-.858ZM-62.556-21.45a2.66,2.66,0,0,0,0-3.783,2.66,2.66,0,0,0-3.783,0A2.733,2.733,0,0,0-66.3-21.45,2.614,2.614,0,0,0-62.556-21.45Zm-7.1,30.615c4.368-.351,7.566-3,7.566-7.956V-16.77h-4.446V.585c0,3.549-1.248,4.875-3.9,5.538Zm30.3-11.973a2.945,2.945,0,0,1-1.131.117c-.819-.117-1.131-.546-1.131-1.911V-16.77H-46.02v11.9A5.925,5.925,0,0,1-49.647-3.51c-2.145,0-3.081-1.248-3.081-3.939V-16.77h-4.407V-6.4c0,4.563,1.989,6.825,5.967,6.825a8,8,0,0,0,5.46-2.106C-45.24-.273-44.07.429-42.159.429a6.8,6.8,0,0,0,3-.663Zm5.616-23.205a2.688,2.688,0,0,0-1.872,4.563,2.689,2.689,0,0,0,4.563-1.911A2.663,2.663,0,0,0-33.735-26.013ZM-32.1.429a6.5,6.5,0,0,0,3.042-.663l-.156-2.574a2.673,2.673,0,0,1-.858.156c-1.053,0-1.443-.429-1.443-1.95V-16.77h-4.446V-3.861C-35.958-.7-34.593.429-32.1.429Zm12.168,0c4.407,0,7.488-1.872,7.488-5.148a3.675,3.675,0,0,0-1.482-3.12A17.191,17.191,0,0,0-18.447-10.1c-2.574-.936-3.861-1.326-3.861-2.418,0-1.053,1.053-1.6,2.73-1.6,2.067,0,3.276.819,3.666,2.5l3.276-.9c-.312-2.964-2.964-4.758-6.708-4.758a8.929,8.929,0,0,0-4.992,1.365A4.469,4.469,0,0,0-26.4-11.934,3.653,3.653,0,0,0-24.687-8.58a11.132,11.132,0,0,0,1.677.936c.468.2,1.248.546,2.379.975.156.039.39.156.7.273,2.5.975,3.354,1.4,3.354,2.145,0,.9-1.209,1.521-3.12,1.521-2.106,0-3.471-.858-4.095-2.535l-3.471,1.287C-26.4-1.053-23.946.429-19.929.429Zm22.7-4.446a6.18,6.18,0,0,1-3.12.858c-2.067,0-3.12-1.287-3.12-3.822v-6.435H2.3V-16.77H-3.471v-4.875l-4.446.468v4.407H-10.53v3.354h2.613V-5.85C-7.917-1.677-5.928.429-1.95.429A8.741,8.741,0,0,0,3.081-.858ZM21.021-9.906c0-4.329-2.691-7.332-7.371-7.332A8.017,8.017,0,0,0,7.566-14.82,9.092,9.092,0,0,0,5.343-8.385c0,5.421,2.964,8.853,9.048,8.853a9.879,9.879,0,0,0,6.357-1.911l-.819-2.769a9.081,9.081,0,0,1-4.8,1.326q-4.738,0-5.265-4.8h10.92A10.764,10.764,0,0,0,21.021-9.906ZM9.867-10.3c.351-2.613,1.833-4.056,4.017-4.056,2.028,0,3.237,1.326,3.393,3.51,0,.117.039.39.039.546Zm40.794,4.6L47-16.77H43.173L39.429-5.811,36-16.77H31.356L37.6,0h3.159l4.173-11.154L48.867,0h3.2L58.5-16.77H54.21ZM68.367.429c5.343,0,8.7-3.51,8.7-8.97,0-5.421-3.237-8.7-8.541-8.7-5.343,0-8.775,3.354-8.775,8.814a8.914,8.914,0,0,0,2.34,6.474A8.378,8.378,0,0,0,68.367.429Zm.078-14.274c2.535,0,4.134,1.989,4.134,5.382a6.755,6.755,0,0,1-1.131,4.056,3.63,3.63,0,0,1-3.042,1.482,3.63,3.63,0,0,1-3.042-1.482,6.593,6.593,0,0,1-1.092-4.056C64.272-11.856,65.832-13.845,68.445-13.845ZM88.413.429c5.343,0,8.7-3.51,8.7-8.97,0-5.421-3.237-8.7-8.541-8.7-5.343,0-8.775,3.354-8.775,8.814a8.914,8.914,0,0,0,2.34,6.474A8.378,8.378,0,0,0,88.413.429Zm.078-14.274c2.535,0,4.134,1.989,4.134,5.382a6.755,6.755,0,0,1-1.131,4.056,3.63,3.63,0,0,1-3.042,1.482A3.63,3.63,0,0,1,85.41-4.407a6.593,6.593,0,0,1-1.092-4.056C84.318-11.856,85.878-13.845,88.491-13.845Zm22.152-3.393a7.036,7.036,0,0,0-5.226,2.574l-.156-2.106H101.01V0h4.446V-11.115a5.331,5.331,0,0,1,3.9-1.833,4.778,4.778,0,0,1,2.457.546l.234-.078.078-4.563A6.731,6.731,0,0,0,110.643-17.238Zm22.074,14.43a2.31,2.31,0,0,1-.819.156c-1.053,0-1.443-.429-1.443-1.95V-27.144h-4.446v10.8a9.118,9.118,0,0,0-4.056-.9c-5.031,0-8.463,3.276-8.463,9.2,0,5.265,2.613,8.463,7.137,8.463a7.931,7.931,0,0,0,5.655-2.3c.507,1.521,1.716,2.3,3.666,2.3a6.75,6.75,0,0,0,2.964-.663Zm-14.7-5.538c0-3.432,1.6-5.148,4.758-5.148a8.894,8.894,0,0,1,3.237.663v7.722a6.127,6.127,0,0,1-4.017,1.638C119.3-3.471,118.014-5.382,118.014-8.346Zm41.262-1.56c0-4.329-2.691-7.332-7.371-7.332a8.017,8.017,0,0,0-6.084,2.418A9.092,9.092,0,0,0,143.6-8.385c0,5.421,2.964,8.853,9.048,8.853A9.879,9.879,0,0,0,159-1.443l-.819-2.769a9.081,9.081,0,0,1-4.8,1.326q-4.739,0-5.265-4.8h10.92A10.765,10.765,0,0,0,159.276-9.906Zm-11.154-.39c.351-2.613,1.833-4.056,4.017-4.056,2.028,0,3.237,1.326,3.393,3.51,0,.117.039.39.039.546Zm33.7,7.488a2.359,2.359,0,0,1-.858.156c-1.053,0-1.4-.468-1.4-2.028v-5.694c0-4.563-2.028-6.864-6.123-6.864a8.711,8.711,0,0,0-5.733,2.184l-.156-1.716h-4.212V0h4.446V-11.661a6.335,6.335,0,0,1,4.134-1.638c2.145,0,3.2,1.326,3.2,3.978v5.46c0,3.159,1.365,4.29,3.861,4.29a6.97,6.97,0,0,0,3.042-.663Zm30.654,0a2.559,2.559,0,0,1-.9.156c-1.053,0-1.4-.429-1.4-1.95v-5.85q0-6.786-6.084-6.786a8.557,8.557,0,0,0-5.655,2.106V-27.144h-4.446V0h4.446V-11.661a6.259,6.259,0,0,1,4.134-1.638c2.223,0,3.2,1.248,3.2,3.9v5.538c0,3.159,1.326,4.29,3.822,4.29a6.5,6.5,0,0,0,3.042-.663Zm17.9-7.1c0-4.329-2.691-7.332-7.371-7.332a8.017,8.017,0,0,0-6.084,2.418,9.092,9.092,0,0,0-2.223,6.435c0,5.421,2.964,8.853,9.048,8.853A9.879,9.879,0,0,0,230.1-1.443l-.819-2.769a9.081,9.081,0,0,1-4.8,1.326q-4.739,0-5.265-4.8h10.92A10.765,10.765,0,0,0,230.373-9.906Zm-11.154-.39c.351-2.613,1.833-4.056,4.017-4.056,2.028,0,3.237,1.326,3.393,3.51,0,.117.039.39.039.546Zm26.832,6.279a6.18,6.18,0,0,1-3.12.858c-2.067,0-3.12-1.287-3.12-3.822v-6.435h5.772V-16.77h-5.772v-4.875l-4.446.468v4.407h-2.613v3.354h2.613V-5.85c0,4.173,1.989,6.279,5.967,6.279a8.741,8.741,0,0,0,5.031-1.287ZM-158.438,25.55a2.66,2.66,0,0,0,0-3.783,2.66,2.66,0,0,0-3.783,0,2.733,2.733,0,0,0,.039,3.783A2.614,2.614,0,0,0-158.438,25.55Zm-7.1,30.615c4.368-.351,7.566-3,7.566-7.956V30.23h-4.446V47.585c0,3.549-1.248,4.875-3.9,5.538Zm30.3-11.973a2.945,2.945,0,0,1-1.131.117c-.819-.117-1.131-.546-1.131-1.911V30.23H-141.9v11.9a5.925,5.925,0,0,1-3.627,1.365c-2.145,0-3.081-1.248-3.081-3.939V30.23h-4.407V40.6c0,4.563,1.989,6.825,5.967,6.825a8,8,0,0,0,5.46-2.106c.468,1.4,1.638,2.106,3.549,2.106a6.8,6.8,0,0,0,3-.663Zm5.616-23.205a2.688,2.688,0,0,0-1.872,4.563,2.689,2.689,0,0,0,4.563-1.911A2.663,2.663,0,0,0-129.617,20.987Zm1.638,26.442a6.5,6.5,0,0,0,3.042-.663l-.156-2.574a2.673,2.673,0,0,1-.858.156c-1.053,0-1.443-.429-1.443-1.95V30.23h-4.446V43.139C-131.84,46.3-130.475,47.429-127.979,47.429Zm12.168,0c4.407,0,7.488-1.872,7.488-5.148a3.675,3.675,0,0,0-1.482-3.12,17.191,17.191,0,0,0-4.524-2.262c-2.574-.936-3.861-1.326-3.861-2.418,0-1.053,1.053-1.6,2.73-1.6,2.067,0,3.276.819,3.666,2.5l3.276-.9c-.312-2.964-2.964-4.758-6.708-4.758a8.929,8.929,0,0,0-4.992,1.365,4.469,4.469,0,0,0-2.067,3.978,3.653,3.653,0,0,0,1.716,3.354,11.132,11.132,0,0,0,1.677.936c.468.195,1.248.546,2.379.975.156.039.39.156.7.273,2.5.975,3.354,1.4,3.354,2.145,0,.9-1.209,1.521-3.12,1.521-2.106,0-3.471-.858-4.1-2.535l-3.471,1.287C-122.285,45.947-119.828,47.429-115.811,47.429Zm22.7-4.446a6.18,6.18,0,0,1-3.12.858c-2.067,0-3.12-1.287-3.12-3.822V33.584h5.772V30.23h-5.772V25.355l-4.446.468V30.23h-2.613v3.354h2.613V41.15c0,4.173,1.989,6.279,5.967,6.279A8.741,8.741,0,0,0-92.8,46.142Zm18.252-5.889c0-4.329-2.691-7.332-7.371-7.332a8.017,8.017,0,0,0-6.084,2.418,9.092,9.092,0,0,0-2.223,6.435c0,5.421,2.964,8.853,9.048,8.853a9.879,9.879,0,0,0,6.357-1.911l-.819-2.769a9.081,9.081,0,0,1-4.8,1.326q-4.738,0-5.265-4.8h10.92A10.764,10.764,0,0,0-74.861,37.094Zm-11.154-.39c.351-2.613,1.833-4.056,4.017-4.056,2.028,0,3.237,1.326,3.393,3.51,0,.117.039.39.039.546Zm27.729,10.725a6.444,6.444,0,0,0,3-.663l-.156-2.574a2.359,2.359,0,0,1-.858.156c-1.053,0-1.443-.429-1.443-1.95V19.856h-4.446V43.139C-62.186,46.3-60.821,47.429-58.286,47.429Zm8.463-26.442a2.688,2.688,0,0,0-1.872,4.563,2.689,2.689,0,0,0,4.563-1.911A2.663,2.663,0,0,0-49.823,20.987Zm1.638,26.442a6.5,6.5,0,0,0,3.042-.663l-.156-2.574a2.673,2.673,0,0,1-.858.156c-1.053,0-1.443-.429-1.443-1.95V30.23h-4.446V43.139C-52.046,46.3-50.681,47.429-48.185,47.429Zm13.806,0a10.826,10.826,0,0,0,6.747-2.223l-1.014-3.042a7.942,7.942,0,0,1-4.758,1.6c-3.276,0-5.109-1.989-5.109-5.577,0-2.964,1.365-4.953,3.705-4.953,1.911,0,2.847,1.4,3.042,3.081l3.861-1.092c-.429-3.588-2.769-5.46-6.669-5.46A8.26,8.26,0,0,0-40.7,32.1a8.824,8.824,0,0,0-2.34,6.513C-43.037,43.88-40.034,47.429-34.379,47.429ZM-5.6,44.192a2.559,2.559,0,0,1-.9.156c-1.053,0-1.4-.429-1.4-1.95v-5.85q0-6.786-6.084-6.786a8.557,8.557,0,0,0-5.655,2.106V19.856h-4.446V47h4.446V35.339A6.259,6.259,0,0,1-15.5,33.7c2.223,0,3.2,1.248,3.2,3.9v5.538c0,3.159,1.326,4.29,3.822,4.29a6.5,6.5,0,0,0,3.042-.663Zm19.812,0a1.583,1.583,0,0,1-.741.156c-1.209,0-1.521-.663-1.521-2.379v-5.85c0-2.3-.7-3.939-2.067-4.914a8.629,8.629,0,0,0-5.148-1.443,13.085,13.085,0,0,0-6.786,1.872l.468,3.393a10.583,10.583,0,0,1,5.538-1.755c2.379,0,3.588,1.053,3.588,3.12v1.443a13.867,13.867,0,0,0-3.471-.429c-4.563,0-7.566,1.638-7.566,5.187,0,2.964,2.223,4.836,5.85,4.836A9.4,9.4,0,0,0,7.976,45.6a3.265,3.265,0,0,0,3.315,1.833,6.779,6.779,0,0,0,3.159-.663ZM1.112,42.4c0-1.287,1.365-2.067,3.666-2.067a11.966,11.966,0,0,1,2.769.351v2.184A6.186,6.186,0,0,1,3.8,44.192C2.243,44.192,1.112,43.49,1.112,42.4Zm33.111,1.794a1.583,1.583,0,0,1-.741.156c-1.209,0-1.521-.663-1.521-2.379v-5.85c0-2.3-.7-3.939-2.067-4.914a8.629,8.629,0,0,0-5.148-1.443,13.085,13.085,0,0,0-6.786,1.872l.468,3.393a10.583,10.583,0,0,1,5.538-1.755c2.379,0,3.588,1.053,3.588,3.12v1.443a13.867,13.867,0,0,0-3.471-.429c-4.563,0-7.566,1.638-7.566,5.187,0,2.964,2.223,4.836,5.85,4.836A9.4,9.4,0,0,0,27.983,45.6,3.265,3.265,0,0,0,31.3,47.429a6.779,6.779,0,0,0,3.159-.663ZM21.119,42.4c0-1.287,1.365-2.067,3.666-2.067a11.966,11.966,0,0,1,2.769.351v2.184a6.186,6.186,0,0,1-3.744,1.326C22.25,44.192,21.119,43.49,21.119,42.4Zm45.513,1.794a2.037,2.037,0,0,1-.819.156c-1.053,0-1.443-.429-1.443-1.95v-5.85c0-4.524-1.911-6.786-5.772-6.786a8.715,8.715,0,0,0-6.045,2.691c-.936-1.794-2.613-2.691-5.07-2.691a8.265,8.265,0,0,0-5.421,2.145l-.156-1.677H37.694V47H42.14V35.261a5.75,5.75,0,0,1,3.822-1.56q2.925,0,2.925,3.744V47h4.446V36.392a8.547,8.547,0,0,0-.039-1.131,5.967,5.967,0,0,1,3.783-1.56c1.911,0,2.847,1.287,2.847,3.9v5.538c0,3.159,1.4,4.29,3.9,4.29a7.226,7.226,0,0,0,3.042-.663Zm9.321,3.237c4.407,0,7.488-1.872,7.488-5.148a3.675,3.675,0,0,0-1.482-3.12A17.191,17.191,0,0,0,77.435,36.9c-2.574-.936-3.861-1.326-3.861-2.418,0-1.053,1.053-1.6,2.73-1.6,2.067,0,3.276.819,3.666,2.5l3.276-.9c-.312-2.964-2.964-4.758-6.708-4.758a8.929,8.929,0,0,0-4.992,1.365,4.469,4.469,0,0,0-2.067,3.978,3.653,3.653,0,0,0,1.716,3.354,11.132,11.132,0,0,0,1.677.936c.468.195,1.248.546,2.379.975.156.039.39.156.7.273,2.5.975,3.354,1.4,3.354,2.145,0,.9-1.209,1.521-3.12,1.521-2.106,0-3.471-.858-4.1-2.535l-3.471,1.287C69.479,45.947,71.936,47.429,75.953,47.429Zm29.133-3.237a2.31,2.31,0,0,1-.819.156c-1.053,0-1.443-.429-1.443-1.95V19.856H98.378v10.8a9.118,9.118,0,0,0-4.056-.9c-5.031,0-8.463,3.276-8.463,9.2,0,5.265,2.613,8.463,7.137,8.463a7.931,7.931,0,0,0,5.655-2.3c.507,1.521,1.716,2.3,3.666,2.3a6.75,6.75,0,0,0,2.964-.663Zm-14.7-5.538c0-3.432,1.6-5.148,4.758-5.148a8.894,8.894,0,0,1,3.237.663v7.722a6.127,6.127,0,0,1-4.017,1.638C91.67,43.529,90.382,41.618,90.382,38.654Zm32.643-1.56c0-4.329-2.691-7.332-7.371-7.332a8.017,8.017,0,0,0-6.084,2.418,9.092,9.092,0,0,0-2.223,6.435c0,5.421,2.964,8.853,9.048,8.853a9.879,9.879,0,0,0,6.357-1.911l-.819-2.769a9.081,9.081,0,0,1-4.8,1.326q-4.739,0-5.265-4.8h10.92A10.764,10.764,0,0,0,123.026,37.094Zm-11.154-.39c.351-2.613,1.833-4.056,4.017-4.056,2.028,0,3.237,1.326,3.393,3.51,0,.117.039.39.039.546Zm29.718.39c0-4.329-2.691-7.332-7.371-7.332a8.017,8.017,0,0,0-6.084,2.418,9.092,9.092,0,0,0-2.223,6.435c0,5.421,2.964,8.853,9.048,8.853a9.879,9.879,0,0,0,6.357-1.911l-.819-2.769a9.081,9.081,0,0,1-4.8,1.326q-4.739,0-5.265-4.8h10.92A10.765,10.765,0,0,0,141.59,37.094Zm-11.154-.39c.351-2.613,1.833-4.056,4.017-4.056,2.028,0,3.237,1.326,3.393,3.51,0,.117.039.39.039.546Zm19.11,10.725a6.444,6.444,0,0,0,3-.663l-.156-2.574a2.359,2.359,0,0,1-.858.156c-1.053,0-1.443-.429-1.443-1.95V19.856h-4.446V43.139C145.646,46.3,147.01,47.429,149.546,47.429Zm11.388-8.307.624-19.11h-4.446l.663,19.11Zm-4.251,5.616a2.691,2.691,0,1,0,2.691-2.652A2.648,2.648,0,0,0,156.682,44.738Z" transform="translate(1624 712)" fill="#009481"/></g></svg>