<svg xmlns="http://www.w3.org/2000/svg" xmlns:xlink="http://www.w3.org/1999/xlink" viewBox="0 0 319.99 330.07"><defs><style>.cls-1,.cls-58,.cls-7{fill:none;}.cls-2{fill:#d5ebeb;}.cls-3{fill:#eeba1a;}.cls-4{fill:#ccc8c0;}.cls-5{fill:#e2ded6;}.cls-6{fill:#f7f4e8;}.cls-7{stroke:#cdc6b2;}.cls-58,.cls-7{stroke-miterlimit:10;}.cls-8{fill:#c7c3b6;}.cls-9{fill:#67c3ce;}.cls-10{fill:#dddddb;}.cls-11{fill:#fcfbf6;}.cls-12{fill:#b1dee9;}.cls-13{fill:#cac9c9;}.cls-14{fill:#cdc6b2;}.cls-15{isolation:isolate;}.cls-16{clip-path:url(#clip-path);}.cls-17{fill:#727272;}.cls-18{clip-path:url(#clip-path-2);}.cls-19{fill:#8f8f8f;}.cls-20{fill:#8b8b8b;}.cls-21{fill:#878787;}.cls-22{fill:#9a9999;}.cls-23{fill:#6e6e6e;}.cls-24{clip-path:url(#clip-path-3);}.cls-25{fill:#767676;}.cls-26{fill:#7a7b7b;}.cls-27{fill:#7e7f7f;}.cls-28{fill:#828383;}.cls-29{fill:#bdbdbc;}.cls-30{fill:#575756;}.cls-31{fill:#edab09;}.cls-32{fill:#efce0d;}.cls-33{fill:#cf9107;}.cls-34{fill:#fad280;}.cls-35{fill:#f9dea1;}.cls-36{fill:#f3f0f0;}.cls-37{fill:#dadada;}.cls-38{clip-path:url(#clip-path-4);}.cls-39{fill:#e73736;}.cls-40{clip-path:url(#clip-path-5);}.cls-41{fill:#767474;}.cls-42{clip-path:url(#clip-path-6);}.cls-43{fill:#872a2a;}.cls-44{fill:#8c2b2b;}.cls-45{fill:#912d2d;}.cls-46{fill:#962e2e;}.cls-47{fill:#9a3030;}.cls-48{fill:#a03131;}.cls-49{fill:#a53333;}.cls-50{fill:#aa3434;}.cls-51{fill:#af3536;}.cls-52{fill:#822728;}.cls-53{fill:#db4343;}.cls-54{clip-path:url(#clip-path-7);}.cls-55{fill:#ea4e4f;}.cls-56{clip-path:url(#clip-path-8);}.cls-57{clip-path:url(#clip-path-9);}.cls-58{stroke:#767474;stroke-width:4px;}.cls-59{fill:#5c5353;}.cls-60{fill:#f6f5cf;}.cls-61{fill:#e8e6c4;}.cls-62{fill:#bf8718;}.cls-63{fill:#d59811;}.cls-64{fill:#503f17;}.cls-65{fill:#3c3b1c;}</style><clipPath id="clip-path"><path class="cls-1" d="M263.32,312.13,261.13,311a2.42,2.42,0,0,1-1.13-1.87l2.18,1.18A2.39,2.39,0,0,0,263.32,312.13Z"/></clipPath><clipPath id="clip-path-2"><path class="cls-1" d="M279.35,248.7l2.18,1.19a1.63,1.63,0,0,0-1.07-.19l-2.18-1.19A1.71,1.71,0,0,1,279.35,248.7Z"/></clipPath><clipPath id="clip-path-3"><path class="cls-1" d="M255.6,256.4l-2.18-1.19c-.2-1.66.85-3.33,2.21-3.52l2.19,1.19C256.45,253.07,255.4,254.74,255.6,256.4Z"/></clipPath><clipPath id="clip-path-4"><path class="cls-1" d="M168.38,258.82s-6.35-5.92-17.92-3.72c0,0,1,21.37-5,22.33s-20.12-12.54-21.91,2.34c-1.33,11,13.47,14.56,24.06,14.88,1.5-2.87,6-9,16-7.28C167,281.5,169.14,271.92,168.38,258.82Z"/></clipPath><clipPath id="clip-path-5"><path class="cls-1" d="M192.4,277.8s-7.51-4.35-18.3.4c0,0,5.73,20.6.17,22.87s-22.43-7.71-20.83,7.2c1.17,11,16.39,11.16,26.78,9.1.82-3.14,3.8-10.16,14-10.69C196.16,300.21,196.08,290.39,192.4,277.8Z"/></clipPath><clipPath id="clip-path-6"><path class="cls-1" d="M34.73,276.09l-1,2.51a.69.69,0,0,1-.21.28c-.67.55-2.44.36-4-.42-1.29-.67-2-1.54-1.76-2.12l1-2.51c-.23.58.47,1.45,1.76,2.11,1.52.78,3.29,1,3.95.43A.64.64,0,0,0,34.73,276.09Z"/></clipPath><clipPath id="clip-path-7"><path class="cls-1" d="M28.43,288.24l-.95,2.52a.64.64,0,0,1-.22.28c-.66.55-2.43.36-4-.42-1.28-.67-2-1.54-1.75-2.12L22.5,286c-.22.58.48,1.45,1.76,2.11,1.52.78,3.29,1,4,.43A.66.66,0,0,0,28.43,288.24Z"/></clipPath><clipPath id="clip-path-8"><path class="cls-1" d="M73.49,290l-.95,2.51a.66.66,0,0,1-.22.29c-.66.54-2.43.35-3.95-.43-1.29-.66-2-1.54-1.76-2.12l1-2.51c-.22.58.48,1.45,1.76,2.11,1.52.79,3.29,1,4,.43A.69.69,0,0,0,73.49,290Z"/></clipPath><clipPath id="clip-path-9"><path class="cls-1" d="M67.2,302.13l-1,2.51a.69.69,0,0,1-.21.28c-.67.55-2.44.36-4-.42-1.28-.66-2-1.54-1.76-2.12l1-2.51c-.22.58.47,1.45,1.76,2.11,1.52.78,3.29,1,4,.43A.69.69,0,0,0,67.2,302.13Z"/></clipPath></defs><title>Asset 3</title><g id="Layer_2" data-name="Layer 2"><g id="Laag_1" data-name="Laag 1"><circle class="cls-2" cx="48.23" cy="48.23" r="48.23"/><circle class="cls-2" cx="159.99" cy="48.23" r="48.23"/><circle class="cls-2" cx="271.76" cy="48.23" r="48.23"/><circle class="cls-2" cx="48.23" cy="164.68" r="48.23"/><circle class="cls-2" cx="159.99" cy="164.68" r="48.23"/><circle class="cls-2" cx="271.76" cy="164.68" r="48.23"/><circle class="cls-2" cx="48.23" cy="281.84" r="48.23"/><circle class="cls-2" cx="159.99" cy="281.84" r="48.23"/><circle class="cls-2" cx="271.76" cy="281.84" r="48.23"/><path class="cls-3" d="M240,32.14l-3.76.34a1.82,1.82,0,0,0-1.6,2.25l8.11,32.46A3.05,3.05,0,0,0,246,69.48l29.76-3.12,27.41.9a3.21,3.21,0,0,0,3.18-4.13l-9-30.05a2.71,2.71,0,0,0-2.66-1.94Z"/><polygon class="cls-4" points="275.11 66.13 246.08 66.59 236.27 29.82 264.88 29.82 275.11 66.13"/><polygon class="cls-4" points="304.7 66.01 274.93 66.01 265.13 29.24 293.73 29.24 304.7 66.01"/><polygon class="cls-5" points="275.4 65.84 246.79 65.84 236.56 29.53 265.17 29.53 275.4 65.84"/><polygon class="cls-5" points="304.25 65.58 275.16 65.78 265.56 29.16 293.94 29.32 304.25 65.58"/><polygon class="cls-6" points="275.39 65.55 247.45 64.66 237.22 28.36 265.13 29.24 275.39 65.55"/><polygon class="cls-6" points="303.21 64.66 275.39 65.55 265.13 29.24 293.33 28.36 303.21 64.66"/><line class="cls-7" x1="265.13" y1="29.24" x2="275.16" y2="65.78"/><polygon class="cls-8" points="263.9 46.07 244.57 46.86 240.91 31.62 259.81 31.45 263.9 46.07"/><polygon class="cls-8" points="296.99 51.04 277.66 51.82 274 36.58 292.89 36.41 296.99 51.04"/><polygon class="cls-8" points="264.33 49.03 245.35 49.56 245.09 48.42 263.81 47.47 264.33 49.03"/><polygon class="cls-8" points="264.77 51.47 245.79 51.99 245.53 50.86 264.25 49.91 264.77 51.47"/><polygon class="cls-8" points="265.38 54.26 246.4 54.78 246.14 53.65 264.86 52.69 265.38 54.26"/><polygon class="cls-8" points="291.5 32.23 272.52 32.75 272.26 31.62 290.98 30.66 291.5 32.23"/><polygon class="cls-8" points="292.28 34.76 273.3 35.28 273.04 34.15 291.76 33.19 292.28 34.76"/><polygon class="cls-8" points="297.59 53.65 278.61 54.17 278.35 53.04 297.07 52.08 297.59 53.65"/><polygon class="cls-8" points="298.29 56.17 279.31 56.7 279.05 55.56 297.77 54.61 298.29 56.17"/><polygon class="cls-8" points="299.25 59.13 280.27 59.66 280.01 58.52 298.73 57.57 299.25 59.13"/><polygon class="cls-8" points="299.94 61.66 280.96 62.18 280.7 61.05 299.42 60.09 299.94 61.66"/><path class="cls-9" d="M188.72,145.46c-.06.06-6.73,5.6-11.28,8.7a12.79,12.79,0,0,1-3.15,1.67c-.57.17-1.13.36-1.68.56.31.19.47.59-.23,1.45-1.37,1.66-36.06,23-38.23,23-2,0-2.46-.73-.68-2.22l-4.77,2.85a1.36,1.36,0,0,0-.48,1.86l.42.71a1.49,1.49,0,0,0,2,.51l35.94-21.4a40.51,40.51,0,0,1,8.77-3.85,16.46,16.46,0,0,0,4.11-2.14c2.82-1.91,6.3-4.64,8.71-6.57a3.64,3.64,0,0,0,.51-5.16Z"/><path class="cls-10" d="M175.46,149.16s1.68,3.94,5.16,3.62c0,0,5.68-1.78,7.81-5.14,0,0,1.15-3.5-.74-5.26Z"/><ellipse class="cls-11" cx="181.52" cy="145.69" rx="6.97" ry="1.36" transform="translate(-47.72 105.36) rotate(-28.77)"/><path class="cls-12" d="M172.61,156.39c-1.07.37-2.11.78-3.12,1.22a41.39,41.39,0,0,0-4.75,2.41l-4.3,2.56c.64.15,1,.37,1,.61,0,.46-1.41.83-3.15.83H158l-7.88,4.69c.61.15,1,.36,1,.6,0,.46-1.41.82-3.15.82h-.23l-5.86,3.5c.88.14,1.47.4,1.47.69,0,.46-1.41.83-3.15.83-.28,0-.56,0-.83,0l-5.93,3.53c-1.78,1.49-1.32,2.22.68,2.22,2.17,0,36.86-21.37,38.23-23C173.08,157,172.92,156.58,172.61,156.39Z"/><path class="cls-9" d="M143.38,174.32c0-.29-.59-.55-1.47-.69l-1,.59-1.52.9c.27,0,.55,0,.83,0C142,175.15,143.38,174.78,143.38,174.32Z"/><path class="cls-9" d="M151.15,169.31c0-.24-.38-.45-1-.6l-2.39,1.42H148C149.74,170.13,151.15,169.77,151.15,169.31Z"/><path class="cls-9" d="M161.48,163.19c0-.24-.4-.46-1-.61L158,164h.29C160.07,164,161.48,163.65,161.48,163.19Z"/><ellipse class="cls-10" cx="177.16" cy="147.24" rx="0.55" ry="0.17" transform="translate(-51.99 123.67) rotate(-33.86)"/><ellipse class="cls-10" cx="177.41" cy="147.54" rx="0.55" ry="0.17" transform="translate(-52.11 123.86) rotate(-33.86)"/><ellipse class="cls-10" cx="177.77" cy="147.8" rx="0.55" ry="0.17" transform="translate(-52.2 124.11) rotate(-33.86)"/><ellipse class="cls-10" cx="178.11" cy="148.12" rx="0.55" ry="0.17" transform="translate(-52.32 124.35) rotate(-33.86)"/><ellipse class="cls-10" cx="178.42" cy="148.41" rx="0.55" ry="0.17" transform="translate(-43.45 80.36) rotate(-22.7)"/><ellipse class="cls-10" cx="178.18" cy="146.53" rx="0.55" ry="0.17" transform="translate(-51.42 124.12) rotate(-33.86)"/><ellipse class="cls-10" cx="178.44" cy="146.82" rx="0.55" ry="0.17" transform="translate(-51.54 124.31) rotate(-33.86)"/><ellipse class="cls-10" cx="178.79" cy="147.09" rx="0.55" ry="0.17" transform="translate(-51.63 124.55) rotate(-33.86)"/><ellipse class="cls-10" cx="179.14" cy="147.4" rx="0.55" ry="0.17" transform="translate(-51.75 124.8) rotate(-33.86)"/><ellipse class="cls-10" cx="179.44" cy="147.7" rx="0.55" ry="0.17" transform="translate(-43.1 80.7) rotate(-22.7)"/><ellipse class="cls-10" cx="179.34" cy="145.92" rx="0.55" ry="0.17" transform="translate(-50.88 124.66) rotate(-33.86)"/><ellipse class="cls-10" cx="179.6" cy="146.21" rx="0.55" ry="0.17" transform="translate(-51 124.85) rotate(-33.86)"/><ellipse class="cls-10" cx="179.95" cy="146.48" rx="0.55" ry="0.17" transform="translate(-51.09 125.1) rotate(-33.86)"/><ellipse class="cls-10" cx="180.3" cy="146.79" rx="0.55" ry="0.17" transform="translate(-51.21 125.35) rotate(-33.86)"/><ellipse class="cls-10" cx="180.61" cy="147.09" rx="0.55" ry="0.17" transform="translate(-42.77 81.1) rotate(-22.7)"/><ellipse class="cls-10" cx="180.4" cy="145.23" rx="0.55" ry="0.17" transform="translate(-50.32 125.13) rotate(-33.86)"/><ellipse class="cls-10" cx="180.65" cy="145.52" rx="0.55" ry="0.17" transform="translate(-50.44 125.33) rotate(-33.86)"/><ellipse class="cls-10" cx="181.01" cy="145.79" rx="0.55" ry="0.17" transform="translate(-50.53 125.57) rotate(-33.86)"/><ellipse class="cls-10" cx="181.36" cy="146.1" rx="0.55" ry="0.17" transform="translate(-50.65 125.82) rotate(-33.86)"/><ellipse class="cls-10" cx="181.66" cy="146.4" rx="0.55" ry="0.17" transform="translate(-42.43 81.45) rotate(-22.7)"/><ellipse class="cls-10" cx="181.48" cy="144.63" rx="0.55" ry="0.17" transform="matrix(0.83, -0.56, 0.56, 0.83, -49.8, 125.64)"/><ellipse class="cls-10" cx="181.74" cy="144.93" rx="0.55" ry="0.17" transform="translate(-49.93 125.83) rotate(-33.86)"/><ellipse class="cls-10" cx="182.09" cy="145.19" rx="0.55" ry="0.17" transform="translate(-50.01 126.07) rotate(-33.86)"/><ellipse class="cls-10" cx="182.44" cy="145.51" rx="0.55" ry="0.17" transform="matrix(0.83, -0.56, 0.56, 0.83, -50.13, 126.32)"/><ellipse class="cls-10" cx="182.75" cy="145.8" rx="0.55" ry="0.17" transform="translate(-42.11 81.82) rotate(-22.7)"/><ellipse class="cls-10" cx="182.6" cy="143.99" rx="0.55" ry="0.17" transform="translate(-49.26 126.15) rotate(-33.86)"/><ellipse class="cls-10" cx="182.85" cy="144.29" rx="0.55" ry="0.17" transform="translate(-49.38 126.34) rotate(-33.86)"/><ellipse class="cls-10" cx="183.21" cy="144.55" rx="0.55" ry="0.17" transform="translate(-49.47 126.59) rotate(-33.86)"/><ellipse class="cls-10" cx="183.56" cy="144.87" rx="0.55" ry="0.17" transform="translate(-49.58 126.83) rotate(-33.86)"/><ellipse class="cls-10" cx="183.86" cy="145.16" rx="0.55" ry="0.17" transform="translate(-41.78 82.2) rotate(-22.7)"/><ellipse class="cls-10" cx="183.84" cy="143.5" rx="0.55" ry="0.17" transform="translate(-48.77 126.76) rotate(-33.86)"/><ellipse class="cls-10" cx="184.09" cy="143.8" rx="0.55" ry="0.17" transform="translate(-48.9 126.95) rotate(-33.86)"/><ellipse class="cls-10" cx="184.45" cy="144.06" rx="0.55" ry="0.17" transform="translate(-48.98 127.19) rotate(-33.86)"/><ellipse class="cls-10" cx="184.79" cy="144.38" rx="0.55" ry="0.17" transform="translate(-49.1 127.44) rotate(-33.86)"/><ellipse class="cls-10" cx="185.1" cy="144.67" rx="0.55" ry="0.17" transform="translate(-41.49 82.64) rotate(-22.7)"/><ellipse class="cls-10" cx="184.81" cy="142.95" rx="0.48" ry="0.15" transform="translate(-48.3 127.21) rotate(-33.86)"/><ellipse class="cls-10" cx="185.04" cy="143.2" rx="0.48" ry="0.15" transform="translate(-48.41 127.37) rotate(-33.86)"/><ellipse class="cls-10" cx="185.34" cy="143.43" rx="0.48" ry="0.15" transform="translate(-48.48 127.59) rotate(-33.86)"/><ellipse class="cls-10" cx="185.64" cy="143.71" rx="0.48" ry="0.15" transform="translate(-48.58 127.8) rotate(-33.86)"/><ellipse class="cls-10" cx="185.91" cy="143.96" rx="0.48" ry="0.15" transform="translate(-41.16 82.9) rotate(-22.7)"/><ellipse class="cls-10" cx="185.86" cy="142.53" rx="0.48" ry="0.15" transform="translate(-47.89 127.72) rotate(-33.86)"/><ellipse class="cls-10" cx="186.09" cy="142.78" rx="0.48" ry="0.15" transform="translate(-47.99 127.89) rotate(-33.86)"/><ellipse class="cls-10" cx="186.39" cy="143.01" rx="0.48" ry="0.15" transform="translate(-48.07 128.1) rotate(-33.86)"/><ellipse class="cls-10" cx="186.7" cy="143.29" rx="0.48" ry="0.15" transform="translate(-48.17 128.31) rotate(-33.86)"/><ellipse class="cls-10" cx="187" cy="142.42" rx="0.39" ry="0.12" transform="translate(-47.64 128.34) rotate(-33.86)"/><ellipse class="cls-10" cx="187.24" cy="142.64" rx="0.39" ry="0.12" transform="translate(-47.72 128.51) rotate(-33.86)"/><ellipse class="cls-10" cx="176.28" cy="147.97" rx="0.49" ry="0.15" transform="translate(-52.55 123.31) rotate(-33.86)"/><ellipse class="cls-10" cx="176.51" cy="148.23" rx="0.49" ry="0.15" transform="translate(-52.65 123.48) rotate(-33.86)"/><ellipse class="cls-10" cx="176.83" cy="148.47" rx="0.49" ry="0.15" transform="translate(-52.73 123.7) rotate(-33.86)"/><ellipse class="cls-10" cx="177.14" cy="148.75" rx="0.49" ry="0.15" transform="translate(-52.84 123.92) rotate(-33.86)"/><ellipse class="cls-10" cx="175.72" cy="148.6" rx="0.37" ry="0.11" transform="translate(-52.99 123.1) rotate(-33.86)"/><ellipse class="cls-10" cx="175.99" cy="148.86" rx="0.38" ry="0.12" transform="translate(-53.09 123.3) rotate(-33.86)"/><ellipse class="cls-10" cx="176.33" cy="149.03" rx="0.38" ry="0.12" transform="translate(-53.13 123.51) rotate(-33.86)"/><polygon class="cls-13" points="179.17 148.33 181.34 152.59 181.58 152.44 179.17 148.33"/><polygon class="cls-13" points="182.31 146.78 184.47 151.04 184.72 150.89 182.31 146.78"/><polygon class="cls-13" points="185.51 144.31 187.75 148.53 187.92 148.33 185.51 144.31"/><polygon class="cls-13" points="186.9 143.62 188.65 146.8 188.71 146.51 186.9 143.62"/><polygon class="cls-13" points="179.01 152.56 177.03 149.04 179.24 152.73 179.01 152.56"/><polygon class="cls-13" points="182.89 151.86 180.87 147.53 183.07 151.79 182.89 151.86"/><polygon class="cls-13" points="186.07 150.04 184.05 145.71 186.2 149.96 186.07 150.04"/><path class="cls-14" d="M256.75,258.46l-.63.5,9-5.37Z"/><g class="cls-15"><g class="cls-15"><g class="cls-16"><g class="cls-15"><path class="cls-17" d="M263.32,312.13,261.13,311a2.42,2.42,0,0,1-1.13-1.87l2.18,1.18a2.39,2.39,0,0,0,1.14,1.87"/></g></g></g><g class="cls-15"><g class="cls-18"><g class="cls-15"><path class="cls-19" d="M280.46,249.7l-2.18-1.19a1.94,1.94,0,0,1,.68,0l2.18,1.19a1.72,1.72,0,0,0-.68,0"/><path class="cls-20" d="M281.14,249.73,279,248.54a1.27,1.27,0,0,1,.32.13l2.19,1.18-.33-.12"/><path class="cls-21" d="M281.47,249.85l-2.19-1.18.07,0,2.18,1.19-.06,0"/></g></g></g><polygon class="cls-22" points="257.82 252.88 255.63 251.69 278.28 248.51 280.46 249.7 257.82 252.88"/><polygon class="cls-23" points="262.18 310.26 260 309.08 253.42 255.21 255.6 256.4 262.18 310.26"/><g class="cls-15"><g class="cls-24"><g class="cls-15"><path class="cls-17" d="M255.6,256.4l-2.18-1.19a3.52,3.52,0,0,1,.2-1.65l2.18,1.19a3.52,3.52,0,0,0-.2,1.65"/><path class="cls-25" d="M255.8,254.75l-2.18-1.19a3.76,3.76,0,0,1,.2-.46l2.19,1.19a3.22,3.22,0,0,0-.21.46"/><path class="cls-26" d="M256,254.29l-2.19-1.19.21-.34,2.18,1.19a3.79,3.79,0,0,0-.2.34"/><path class="cls-27" d="M256.21,254,254,252.76l.22-.27,2.18,1.19a2.88,2.88,0,0,0-.22.27"/><path class="cls-28" d="M256.43,253.68l-2.18-1.19a2.39,2.39,0,0,1,.22-.23l2.19,1.19a1.67,1.67,0,0,0-.23.23"/><path class="cls-21" d="M256.66,253.45l-2.19-1.19a2.39,2.39,0,0,1,.26-.21l2.19,1.19a1.71,1.71,0,0,0-.26.21"/><path class="cls-20" d="M256.92,253.24l-2.19-1.19.33-.19,2.18,1.19a2.07,2.07,0,0,0-.32.19"/><path class="cls-19" d="M257.24,253.05l-2.18-1.19a2.33,2.33,0,0,1,.57-.17l2.19,1.19a2.41,2.41,0,0,0-.58.17"/></g></g></g><path class="cls-29" d="M280.46,249.7c1.1-.16,2,.72,2.2,2.06l6.58,53.86c.21,1.66-.84,3.33-2.21,3.52l-22.64,3.18c-1.11.16-2-.72-2.21-2.06L255.6,256.4c-.2-1.66.85-3.33,2.22-3.52Z"/></g><polygon class="cls-30" points="286.47 299.49 263.48 302.8 257.73 260.61 280.72 257.55 286.47 299.49"/><circle class="cls-30" cx="275.77" cy="305.18" r="3"/><path class="cls-31" d="M151.69,23.46l.87-.95s2.82,3.23,6.54,3,6.81-2,6.81-3.23l1.38,1.16-.76,2.62-6.61,2-8-2.27Z"/><polygon class="cls-31" points="185.87 63.65 187.74 67.25 195.29 64.61 193.53 60.95 185.87 63.65"/><polygon class="cls-31" points="124.7 63.1 130.74 67.25 132.6 64.06 126.32 59.59 124.7 63.1"/><path class="cls-32" d="M177.76,28.19c-.13-.3-.27-.6-.43-.89l0-.06h0a7.54,7.54,0,0,0-6.54-3.78h-3.46c-.78,2.23-4,3.9-7.8,3.9s-7-1.67-7.8-3.9h-4a7.54,7.54,0,0,0-7.25,5.47L126.32,59.59l6.28,4.47,7.57-13V65.74a7.55,7.55,0,0,0,7.55,7.55h23a7.55,7.55,0,0,0,7.55-7.55V49.13l7.57,14.52,7.66-2.7Z"/><polygon class="cls-31" points="151.69 37.24 151.69 58.76 168.49 58.76 168.49 49.32 159.99 49.32 159.99 37.17 151.69 37.24"/><path class="cls-31" d="M249.46,155.65a17.44,17.44,0,0,1-2.57-1.91c-1.86,2.37-2.43,3.28-3.91,5.36a16.76,16.76,0,0,0,2.57,1.91C247,158.93,247.59,158,249.46,155.65Z"/><path class="cls-33" d="M289.17,194.4c.33.37.5.56.85.93,1.48-2.08,2.05-3,3.91-5.37-.35-.37-.52-.55-.85-.93C291.22,191.41,290.65,192.32,289.17,194.4Z"/><path class="cls-31" d="M250.57,156.3c-1.87,2.37-2.44,3.28-3.91,5.36,23.24,7.19,29.54,12,42.51,32.74,1.48-2.08,2.05-3,3.91-5.37C280.11,168.28,273.81,163.49,250.57,156.3Z"/><path class="cls-33" d="M249.46,155.65c-1.87,2.37-2.43,3.28-3.91,5.36.44.28.66.41,1.11.65,1.47-2.08,2-3,3.91-5.36C250.12,156.05,249.9,155.92,249.46,155.65Z"/><path class="cls-31" d="M290,195.33c.67.69,1,1,1.8,1.72,1.48-2.08,2-3,3.91-5.37a24.74,24.74,0,0,1-1.8-1.72C292.07,192.33,291.5,193.25,290,195.33Z"/><path class="cls-34" d="M255.93,150c-.45-.24-.67-.37-1.11-.65-1.85,2.23-3.49,4-5.36,6.34.44.27.66.4,1.11.65C252.43,153.93,254.07,152.19,255.93,150Z"/><path class="cls-35" d="M254.82,149.31a16.21,16.21,0,0,1-2.56-1.91c-1.86,2.22-3.5,4-5.37,6.34a17.44,17.44,0,0,0,2.57,1.91C251.33,153.28,253,151.54,254.82,149.31Z"/><path class="cls-35" d="M293.93,190a24.74,24.74,0,0,0,1.8,1.72c1.87-2.37,3.51-4.11,5.37-6.34a21.23,21.23,0,0,1-1.8-1.72C297.44,185.85,295.8,187.59,293.93,190Z"/><path class="cls-34" d="M293.08,189c.33.38.5.56.85.93,1.87-2.37,3.51-4.11,5.37-6.34-.36-.36-.53-.55-.85-.92C296.59,184.92,295,186.66,293.08,189Z"/><path class="cls-35" d="M293.08,189c1.87-2.37,3.51-4.11,5.37-6.33-13-20.75-19.28-25.55-42.52-32.74-1.86,2.23-3.5,4-5.36,6.34C273.81,163.49,280.11,168.28,293.08,189Z"/><path class="cls-35" d="M246.66,161.66a61.13,61.13,0,0,1-4.95,6.3c23.24,7.19,29.55,12,42.52,32.74a59.46,59.46,0,0,0,4.94-6.3C276.2,173.65,269.9,168.85,246.66,161.66Z"/><path class="cls-35" d="M243,159.1a59.46,59.46,0,0,1-4.94,6.3,16.93,16.93,0,0,0,2.57,1.91,59.46,59.46,0,0,0,4.94-6.3A16.76,16.76,0,0,1,243,159.1Z"/><path class="cls-34" d="M289.17,194.4a59.46,59.46,0,0,1-4.94,6.3c.33.37.5.55.85.92a59.51,59.51,0,0,0,4.94-6.29C289.67,195,289.5,194.77,289.17,194.4Z"/><path class="cls-34" d="M245.55,161a59.46,59.46,0,0,1-4.94,6.3c.43.27.65.4,1.1.65a61.13,61.13,0,0,0,4.95-6.3C246.21,161.42,246,161.29,245.55,161Z"/><path class="cls-35" d="M285.08,201.62a22.85,22.85,0,0,0,1.8,1.72,59.51,59.51,0,0,0,4.94-6.29c-.77-.68-1.13-1-1.8-1.72A59.51,59.51,0,0,1,285.08,201.62Z"/><path class="cls-35" d="M305.18,180.32c1.57-1.94,2.34-2.9,4.78-5.68a24.74,24.74,0,0,1-1.8-1.72c-2.43,2.78-3.21,3.74-4.78,5.68A22.85,22.85,0,0,0,305.18,180.32Z"/><path class="cls-34" d="M302.53,177.67c.33.38.5.56.85.93,1.57-1.94,2.35-2.9,4.78-5.68-.35-.36-.52-.55-.85-.92C304.88,174.77,304.1,175.73,302.53,177.67Z"/><path class="cls-35" d="M263.69,138.61a16.29,16.29,0,0,1-2.57-1.91c-2.43,2.77-3.21,3.73-4.78,5.67a16.36,16.36,0,0,0,2.57,1.92C260.48,142.34,261.25,141.38,263.69,138.61Z"/><path class="cls-34" d="M260,144.94c1.57-1.95,2.35-2.91,4.78-5.68-.44-.24-.67-.37-1.1-.65-2.44,2.77-3.21,3.73-4.78,5.68C259.34,144.56,259.56,144.69,260,144.94Z"/><path class="cls-35" d="M302.53,177.67c1.57-1.94,2.35-2.9,4.78-5.67-13-20.75-19.28-25.55-42.52-32.74-2.43,2.77-3.21,3.73-4.78,5.68C283.25,152.13,289.56,156.92,302.53,177.67Z"/><path class="cls-33" d="M260,144.94c-.45-.25-.67-.38-1.1-.65-1.61,2-2.23,2.8-4.09,5,.44.28.66.41,1.11.65C257.79,147.74,258.41,146.92,260,144.94Z"/><path class="cls-33" d="M299.3,183.62c1.85-2.22,2.48-3,4.08-5-.35-.37-.52-.55-.85-.93-1.6,2-2.23,2.8-4.08,5C298.77,183.07,298.94,183.26,299.3,183.62Z"/><path class="cls-31" d="M255.93,150c23.24,7.19,29.55,12,42.52,32.74,1.85-2.23,2.48-3,4.08-5-13-20.75-19.28-25.54-42.52-32.73C258.41,146.92,257.79,147.74,255.93,150Z"/><path class="cls-31" d="M299.3,183.62a21.23,21.23,0,0,0,1.8,1.72c1.85-2.22,2.48-3,4.08-5a22.85,22.85,0,0,1-1.8-1.72C301.78,180.58,301.15,181.4,299.3,183.62Z"/><path class="cls-31" d="M258.91,144.29a16.36,16.36,0,0,1-2.57-1.92c-1.6,2-2.23,2.8-4.08,5a16.21,16.21,0,0,0,2.56,1.91C256.68,147.09,257.3,146.27,258.91,144.29Z"/><path class="cls-36" d="M151.45,243.47s13.51-4.41,17.92,4l-1,11.44s-7.86-5.93-17.92-3.72Z"/><path class="cls-36" d="M147.66,294.73a32.78,32.78,0,0,0,8.75-.67c2.64-.74,5.2-3,7.28-6.6C153.65,285.69,149.17,291.86,147.66,294.73Z"/><path class="cls-37" d="M168.4,258.91s-6.34-5.93-17.92-3.72c0,0,1,21.36-5,22.33S125.4,265,123.6,279.86c-1.32,11,13.47,14.55,24.06,14.87,1.51-2.87,6-9,16-7.27C167.05,281.58,169.17,272,168.4,258.91Z"/><g class="cls-38"><rect class="cls-39" x="148.21" y="256.21" width="4.23" height="4.23" rx="2.11" transform="matrix(1, 0.09, -0.09, 1, 22.98, -12.07)"/><rect class="cls-39" x="156.4" y="256.46" width="4.23" height="4.23" rx="2.11" transform="translate(23.03 -12.78) rotate(4.98)"/><rect class="cls-39" x="165.54" y="257.44" width="4.23" height="4.23" rx="2.11" transform="translate(23.15 -13.57) rotate(4.98)"/><rect class="cls-39" x="161.22" y="262.6" width="4.23" height="4.23" rx="2.11" transform="translate(23.58 -13.17) rotate(4.98)"/><rect class="cls-39" x="152.96" y="263.08" width="4.23" height="4.23" rx="2.11" transform="translate(23.59 -12.45) rotate(4.98)"/><rect class="cls-39" x="148.32" y="269.78" width="4.23" height="4.23" rx="2.11" transform="translate(24.16 -12.03) rotate(4.98)"/><rect class="cls-39" x="157.62" y="270.03" width="4.23" height="4.23" rx="2.11" transform="translate(24.21 -12.83) rotate(4.98)"/><rect class="cls-39" x="166.9" y="270.38" width="4.23" height="4.23" rx="2.11" transform="translate(24.28 -13.64) rotate(4.98)"/><rect class="cls-39" x="161.47" y="276.64" width="4.23" height="4.23" rx="2.11" transform="translate(24.8 -13.14) rotate(4.98)"/><rect class="cls-39" x="152.85" y="276.07" width="4.23" height="4.23" rx="2.11" transform="translate(24.72 -12.4) rotate(4.98)"/><rect class="cls-39" x="143.39" y="276.63" width="4.23" height="4.23" rx="2.11" transform="translate(24.73 -11.57) rotate(4.98)"/><rect class="cls-39" x="133.83" y="275.25" width="4.23" height="4.23" rx="2.11" transform="translate(24.58 -10.75) rotate(4.98)"/><rect class="cls-39" x="126.03" y="274.75" width="4.23" height="4.23" rx="2.11" transform="translate(24.5 -10.07) rotate(4.98)"/><rect class="cls-39" x="129.65" y="280.79" width="4.23" height="4.23" rx="2.11" transform="translate(25.04 -10.37) rotate(4.98)"/><rect class="cls-39" x="138.81" y="282.6" width="4.23" height="4.23" rx="2.11" transform="translate(25.23 -11.15) rotate(4.98)"/><rect class="cls-39" x="149.92" y="282.09" width="4.23" height="4.23" rx="2.11" transform="translate(25.23 -12.12) rotate(4.98)"/><rect class="cls-39" x="143.71" y="287.82" width="4.23" height="4.23" rx="2.11" transform="translate(25.71 -11.56) rotate(4.98)"/><rect class="cls-39" x="133.64" y="287.96" width="4.23" height="4.23" rx="2.11" transform="translate(25.68 -10.68) rotate(4.98)"/><rect class="cls-39" x="125.09" y="285.55" width="4.23" height="4.23" rx="2.11" transform="translate(25.44 -9.95) rotate(4.98)"/></g><path class="cls-36" d="M172.53,266.69s12.2-7.28,18.36-.05L192.48,278s-9-4.05-18.3.32Z"/><path class="cls-36" d="M180.16,317.53a33.34,33.34,0,0,0,8.38-2.59c2.41-1.31,4.42-4,5.64-8.05C184,307.39,181,314.39,180.16,317.53Z"/><path class="cls-37" d="M192.48,278s-7.5-4.38-18.3.32c0,0,5.65,20.63.09,22.88s-22.4-7.79-20.86,7.12c1.14,11,16.35,11.22,26.75,9.2.83-3.14,3.84-10.14,14-10.64C196.16,300.42,196.11,290.61,192.48,278Z"/><g class="cls-40"><rect class="cls-39" x="174.77" y="280.09" width="4.23" height="4.23" rx="2.11" transform="translate(25.15 -14.28) rotate(4.98)"/><rect class="cls-39" x="182.96" y="280.34" width="4.23" height="4.23" rx="2.11" transform="translate(25.2 -14.99) rotate(4.98)"/><rect class="cls-39" x="192.1" y="281.32" width="4.23" height="4.23" rx="2.11" transform="translate(25.32 -15.78) rotate(4.98)"/><rect class="cls-39" x="187.77" y="286.48" width="4.23" height="4.23" rx="2.11" transform="translate(25.75 -15.39) rotate(4.98)"/><rect class="cls-39" x="179.52" y="286.96" width="4.23" height="4.23" rx="2.11" transform="matrix(1, 0.09, -0.09, 1, 25.77, -14.67)"/><rect class="cls-39" x="174.88" y="293.66" width="4.23" height="4.23" rx="2.11" transform="translate(26.33 -14.24) rotate(4.98)"/><rect class="cls-39" x="184.17" y="293.91" width="4.23" height="4.23" rx="2.11" transform="translate(26.39 -15.05) rotate(4.98)"/><rect class="cls-39" x="193.46" y="294.26" width="4.23" height="4.23" rx="2.11" transform="translate(26.45 -15.85) rotate(4.98)"/><rect class="cls-39" x="188.03" y="300.52" width="4.23" height="4.23" rx="2.11" transform="translate(26.97 -15.36) rotate(4.98)"/><rect class="cls-39" x="179.4" y="299.95" width="4.23" height="4.23" rx="2.11" transform="translate(26.89 -14.61) rotate(4.98)"/><rect class="cls-39" x="169.95" y="300.51" width="4.23" height="4.23" rx="2.11" transform="translate(26.91 -13.79) rotate(4.98)"/><rect class="cls-39" x="160.38" y="299.13" width="4.23" height="4.23" rx="2.11" transform="translate(26.75 -12.96) rotate(4.98)"/><rect class="cls-39" x="152.59" y="298.63" width="4.23" height="4.23" rx="2.11" transform="translate(26.68 -12.29) rotate(4.98)"/><rect class="cls-39" x="156.21" y="304.67" width="4.23" height="4.23" rx="2.11" transform="translate(27.21 -12.58) rotate(4.98)"/><rect class="cls-39" x="165.37" y="306.48" width="4.23" height="4.23" rx="2.11" transform="translate(27.41 -13.37) rotate(4.98)"/><rect class="cls-39" x="176.48" y="305.97" width="4.23" height="4.23" rx="2.11" transform="translate(27.4 -14.33) rotate(4.98)"/><rect class="cls-39" x="170.26" y="311.7" width="4.23" height="4.23" rx="2.11" transform="translate(27.88 -13.77) rotate(4.98)"/><rect class="cls-39" x="160.2" y="311.84" width="4.23" height="4.23" rx="2.11" transform="matrix(1, 0.09, -0.09, 1, 27.85, -12.9)"/><rect class="cls-39" x="151.64" y="309.44" width="4.23" height="4.23" rx="2.11" transform="translate(27.61 -12.17) rotate(4.98)"/></g><path class="cls-41" d="M84.58,292.06c-3-2.69-7.85-2.7-11.64-3.46a118.83,118.83,0,0,1-13.4-3.5c-9.18-3-17.28-8.14-26.13-11.87a58.34,58.34,0,0,0-5.63-2.08c-2.89-1.22-6.06-2.41-9.13-2a6.34,6.34,0,0,0-5.52,7c.43,7.64,8.68,12.79,14.5,16.38a81.4,81.4,0,0,0,46.6,11.95c3.72-.21,8.17-.68,11-3.47C87.8,298.34,87.27,294.43,84.58,292.06ZM41.7,281.73l-1.09-.48-.78-.55Zm-17.87-4.22L27.19,279l-3.4-1.37A.42.42,0,0,0,23.83,277.51ZM63.45,295.7l-.09-.17.79.26Z"/><g class="cls-15"><g class="cls-15"><g class="cls-42"><g class="cls-15"><path class="cls-43" d="M34.73,276.09l-1,2.51,0,.07.95-2.51a.25.25,0,0,0,0-.07"/><path class="cls-44" d="M34.69,276.16l-.95,2.51a.71.71,0,0,1-.1.14l1-2.51a.61.61,0,0,0,.1-.14"/><path class="cls-45" d="M34.59,276.3l-1,2.51-.08.07-.05,0,1-2.51,0,0,.08-.07"/><path class="cls-46" d="M34.47,276.41l-1,2.51-.15.09,1-2.51.15-.09"/><path class="cls-47" d="M34.32,276.5l-1,2.51-.18.07,1-2.51.18-.07"/><path class="cls-48" d="M34.14,276.57l-1,2.51-.21.06,1-2.51.22-.06"/><path class="cls-49" d="M33.92,276.63l-1,2.51-.27,0,.95-2.51.27,0"/><path class="cls-50" d="M33.65,276.67l-.95,2.51a2.54,2.54,0,0,1-.39,0l.95-2.51h.39"/><path class="cls-51" d="M33.26,276.68l-.95,2.51a5.68,5.68,0,0,1-1.6-.28l.95-2.51a5.8,5.8,0,0,0,1.6.28"/><path class="cls-50" d="M31.66,276.4l-.95,2.51-.47-.16,1-2.52.46.17"/><path class="cls-49" d="M31.2,276.23l-1,2.52-.36-.16,1-2.51.36.15"/><path class="cls-48" d="M30.84,276.08l-1,2.51-.28-.13,0,0,1-2.51h0l.28.14"/><path class="cls-47" d="M30.53,275.93l-1,2.51-.28-.15,1-2.52.28.16"/><path class="cls-46" d="M30.25,275.77l-1,2.52-.26-.16,1-2.52a2.26,2.26,0,0,0,.26.16"/><path class="cls-45" d="M30,275.61l-1,2.52-.25-.18,1-2.51a2.2,2.2,0,0,0,.25.17"/><path class="cls-44" d="M29.74,275.44l-1,2.51-.24-.19.95-2.52a2.43,2.43,0,0,0,.25.2"/><path class="cls-43" d="M29.49,275.24l-.95,2.52-.27-.25,1-2.52a3.07,3.07,0,0,0,.26.25"/><path class="cls-52" d="M29.23,275l-1,2.52c-.39-.42-.56-.84-.43-1.17l1-2.51c-.13.32,0,.74.43,1.16"/></g></g></g><path class="cls-53" d="M33,274c1.52.78,2.21,1.86,1.54,2.4s-2.43.35-3.95-.43-2.22-1.85-1.55-2.4S31.45,273.19,33,274Z"/></g><g class="cls-15"><g class="cls-15"><g class="cls-54"><g class="cls-15"><path class="cls-43" d="M28.43,288.24l-.95,2.52a.25.25,0,0,1,0,.07l1-2.51,0-.08"/><path class="cls-44" d="M28.4,288.32l-1,2.51a.45.45,0,0,1-.1.14l1-2.51.1-.14"/><path class="cls-45" d="M28.3,288.46l-1,2.51a.27.27,0,0,1-.08.07l0,0,1-2.51,0,0,.08-.07"/><path class="cls-46" d="M28.17,288.57l-1,2.51-.15.09.95-2.51.15-.09"/><path class="cls-47" d="M28,288.66l-.95,2.51-.18.07,1-2.51.17-.07"/><path class="cls-48" d="M27.85,288.73l-1,2.51-.22.06,1-2.51.22-.06"/><path class="cls-49" d="M27.63,288.79l-1,2.51-.27,0,1-2.51.27,0"/><path class="cls-50" d="M27.36,288.83l-1,2.51H26l1-2.51h.39"/><path class="cls-51" d="M27,288.84l-1,2.51a5.8,5.8,0,0,1-1.6-.28l1-2.51a6.13,6.13,0,0,0,1.6.28"/><path class="cls-50" d="M25.37,288.56l-1,2.51-.46-.16.95-2.52.47.17"/><path class="cls-49" d="M24.9,288.39,24,290.91l-.36-.16,1-2.51.35.15"/><path class="cls-48" d="M24.55,288.24l-1,2.51-.29-.13,0,0,1-2.51h0l.29.14"/><path class="cls-47" d="M24.24,288.09l-1,2.51-.28-.15,1-2.52.28.16"/><path class="cls-46" d="M24,287.93l-1,2.52-.26-.16,1-2.52a2.26,2.26,0,0,0,.26.16"/><path class="cls-45" d="M23.7,287.77l-1,2.52-.25-.18,1-2.51a2.2,2.2,0,0,0,.25.17"/><path class="cls-44" d="M23.45,287.6l-1,2.51a2.43,2.43,0,0,1-.25-.2l1-2.51a2.43,2.43,0,0,0,.25.2"/><path class="cls-43" d="M23.2,287.4l-1,2.51-.26-.24,1-2.52a2.06,2.06,0,0,0,.26.25"/><path class="cls-52" d="M22.94,287.15l-1,2.52c-.39-.42-.56-.84-.43-1.17L22.5,286c-.12.32,0,.74.44,1.16"/></g></g></g><path class="cls-53" d="M26.68,286.13c1.52.78,2.21,1.86,1.54,2.4s-2.44.35-4-.43-2.21-1.85-1.54-2.4S25.16,285.35,26.68,286.13Z"/></g><polyline class="cls-55" points="29.75 278.47 25.09 287.1 26.02 287.53 30.31 278.76"/><rect class="cls-55" x="25.94" y="279.85" width="4.51" height="4.74" transform="translate(120.02 13.87) rotate(24.6)"/><g class="cls-15"><g class="cls-15"><g class="cls-56"><g class="cls-15"><path class="cls-43" d="M73.49,290l-.95,2.51a.25.25,0,0,1,0,.07l1-2.51a.21.21,0,0,0,0-.07"/><path class="cls-44" d="M73.46,290l-1,2.51a.45.45,0,0,1-.1.14l1-2.51a.71.71,0,0,0,.1-.14"/><path class="cls-45" d="M73.36,290.18l-1,2.51a.6.6,0,0,1-.08.08l0,0,1-2.51a.1.1,0,0,0,0,0l.08-.07"/><path class="cls-46" d="M73.23,290.29l-1,2.51-.15.09,1-2.51.15-.09"/><path class="cls-47" d="M73.08,290.38l-1,2.51L72,293l1-2.51.17-.07"/><path class="cls-48" d="M72.91,290.45,72,293a1.41,1.41,0,0,1-.22.06l1-2.51.22-.06"/><path class="cls-49" d="M72.69,290.51l-1,2.51-.27,0,1-2.51.27,0"/><path class="cls-50" d="M72.42,290.55l-1,2.51a2.47,2.47,0,0,1-.39,0l1-2.51h.39"/><path class="cls-51" d="M72,290.56l-1,2.51a5.45,5.45,0,0,1-1.6-.28l1-2.51a5.74,5.74,0,0,0,1.6.28"/><path class="cls-50" d="M70.43,290.28l-1,2.51-.46-.16,1-2.52a4.28,4.28,0,0,0,.46.17"/><path class="cls-49" d="M70,290.11l-1,2.52-.36-.15,1-2.52.36.15"/><path class="cls-48" d="M69.61,290l-1,2.52-.28-.14,0,0,1-2.51h0l.29.14"/><path class="cls-47" d="M69.3,289.81l-1,2.51-.28-.15,1-2.51.28.15"/><path class="cls-46" d="M69,289.66l-1,2.51L67.8,292l1-2.51.26.16"/><path class="cls-45" d="M68.76,289.5l-1,2.51-.25-.17,1-2.52.25.18"/><path class="cls-44" d="M68.51,289.32l-1,2.52-.25-.2,1-2.52a2.43,2.43,0,0,0,.25.2"/><path class="cls-43" d="M68.26,289.12l-1,2.52-.26-.25,1-2.51a3.08,3.08,0,0,0,.26.24"/><path class="cls-52" d="M68,288.88l-1,2.51c-.39-.42-.56-.84-.43-1.17l1-2.51c-.12.33,0,.74.44,1.17"/></g></g></g><path class="cls-53" d="M71.74,287.85c1.52.78,2.21,1.86,1.54,2.4s-2.44.36-4-.43-2.21-1.85-1.54-2.4S70.22,287.07,71.74,287.85Z"/></g><g class="cls-15"><g class="cls-15"><g class="cls-57"><g class="cls-15"><path class="cls-43" d="M67.2,302.13l-1,2.51,0,.07,1-2.51,0-.07"/><path class="cls-44" d="M67.17,302.2l-1,2.51a.71.71,0,0,1-.1.14l1-2.51a.71.71,0,0,0,.1-.14"/><path class="cls-45" d="M67.07,302.34l-1,2.51a.27.27,0,0,1-.08.07.1.1,0,0,1,0,0l1-2.51,0,0,.08-.07"/><path class="cls-46" d="M66.94,302.45,66,305l-.15.09,1-2.51.15-.09"/><path class="cls-47" d="M66.79,302.54l-1,2.51-.17.07,1-2.51.18-.07"/><path class="cls-48" d="M66.61,302.61l-1,2.51a1.41,1.41,0,0,1-.22.06l1-2.51.21-.06"/><path class="cls-49" d="M66.4,302.67l-1,2.51-.27,0,1-2.51.27,0"/><path class="cls-50" d="M66.13,302.71l-1,2.51a2.47,2.47,0,0,1-.39,0l1-2.51h.39"/><path class="cls-51" d="M65.74,302.72l-1,2.51a5.4,5.4,0,0,1-1.6-.28l1-2.51a5.74,5.74,0,0,0,1.6.28"/><path class="cls-50" d="M64.14,302.44l-1,2.51-.47-.16,1-2.52a4.43,4.43,0,0,0,.47.17"/><path class="cls-49" d="M63.67,302.27l-1,2.52-.35-.15,1-2.52a2.17,2.17,0,0,0,.35.15"/><path class="cls-48" d="M63.32,302.12l-1,2.52-.29-.14,0,0L63,302h0l.29.14"/><path class="cls-47" d="M63,302l-1,2.51-.28-.15.95-2.51L63,302"/><path class="cls-46" d="M62.72,301.82l-.95,2.51-.26-.16,1-2.51.26.16"/><path class="cls-45" d="M62.46,301.66l-1,2.51-.25-.17,1-2.52.25.18"/><path class="cls-44" d="M62.21,301.48l-1,2.52-.25-.2,1-2.52a2.31,2.31,0,0,0,.24.2"/><path class="cls-43" d="M62,301.28l-1,2.52-.26-.25,1-2.51a2.05,2.05,0,0,0,.26.24"/><path class="cls-52" d="M61.71,301l-1,2.51a1.2,1.2,0,0,1-.44-1.17l1-2.51c-.12.33,0,.74.44,1.17"/></g></g></g><path class="cls-53" d="M65.44,300c1.52.78,2.22,1.86,1.55,2.4s-2.44.35-4-.43-2.21-1.85-1.55-2.4S63.92,299.23,65.44,300Z"/></g><polyline class="cls-55" points="68.52 292.35 63.86 300.99 64.79 301.41 69.08 292.65"/><rect class="cls-55" x="64.7" y="293.73" width="4.51" height="4.74" transform="translate(129.32 -1) rotate(24.6)"/><path class="cls-58" d="M32,137c.08.42,13.81,13.82,13.81,13.82l13.69-13.69"/><rect class="cls-59" x="17.15" y="150.61" width="60.01" height="40.12"/><rect class="cls-41" x="23.84" y="154.02" width="46.27" height="30.34"/><circle class="cls-59" cx="31.87" cy="137.59" r="2.43"/><circle class="cls-59" cx="59.44" cy="136.87" r="2.43"/><circle class="cls-41" cx="71.13" cy="187.6" r="1.56"/><polygon class="cls-41" points="77.16 150.61 80.74 156.73 80.74 185.56 77.16 190.73 77.16 150.61"/><path class="cls-60" d="M39.81,80s-2.71.12-3.08,1.85S40,83.44,40,83.44s2-.25,2.19-1.42-2.37-2-2.37-2"/><path class="cls-61" d="M33,79.42s-2.71.13-3.08,1.85,3.26,1.6,3.26,1.6,2-.25,2.19-1.42-2.37-2-2.37-2"/><path class="cls-61" d="M66.46,66.76c.57-6.14-13.87-8.53-17.85-10.35-2.56-1.17-3.29-6.82-3.48-10.69l-7.44.68L35.84,69.85a7.6,7.6,0,0,0,6.33,8.09C51,79.41,65.55,81.18,70,77.68a2.89,2.89,0,0,0,1-1.43l.06.4a26.14,26.14,0,0,0,1-3.74C69.32,72.1,66.13,70.38,66.46,66.76Z"/><path class="cls-62" d="M48.61,56.41c4,1.82,18.42,4.21,17.85,10.35-.33,3.62,2.86,5.34,5.53,6.15,2.37-12.61-1.47-31.54-.75-23.21.8,9.21-1.36,19.9-1.36,19.9h0c-4-9.94-16.15-24.69-16.15-24.69l-8.6.8C45.32,49.59,46.05,55.24,48.61,56.41Z"/><path class="cls-63" d="M51.05,15.61a16.82,16.82,0,0,0-2.47-.75C48,17.15,47,21,46.07,24.08c-1.21,4.09,5.71,13.35,8.23,20.79a16.7,16.7,0,0,0,5.17-5.66,3.08,3.08,0,0,0,2.45-.27C66.93,36.25,67.34,21,51.05,15.61Z"/><path class="cls-63" d="M42.58,27.64c1.93-3.25.58-10-.3-13.47-16.2.59-20.91,22.14-17.59,25.68,1.7,1.79,4,1.74,6.08.06a16.72,16.72,0,0,0,5.75,5.59C36.41,41,40.45,31.24,42.58,27.64Z"/><path class="cls-60" d="M46.07,24.08C47,21,48,17.15,48.58,14.86q-.63-.15-1.29-.24l-.08,0a20.45,20.45,0,0,0-4.93-.43c.88,3.46,2.23,10.22.3,13.47C40.45,31.24,36.41,41,36.52,45.5a16.65,16.65,0,0,0,17.78-.63C51.78,37.43,44.86,28.17,46.07,24.08Z"/><ellipse class="cls-64" cx="38.94" cy="26.12" rx="1.06" ry="2.43"/><ellipse class="cls-64" cx="50.01" cy="26.12" rx="1.06" ry="2.43"/><circle class="cls-64" cx="43.65" cy="33.25" r="1.74"/><path class="cls-64" d="M38.33,38.27a5.38,5.38,0,0,0,.66.82,1.34,1.34,0,0,0,.78.43c.51,0,1-.47,1.34-1a10.89,10.89,0,0,0,1-1.78c.28-.62.55-1.27.77-1.9l.67-1.91.59,2a14.34,14.34,0,0,0,1.12,2.77A4,4,0,0,0,46,38.72a1.07,1.07,0,0,0,.43.23.74.74,0,0,0,.44,0,2.09,2.09,0,0,0,.52-.31,1.87,1.87,0,0,0,.27-.24l.29-.25A10.84,10.84,0,0,0,49,37a7,7,0,0,0,.78-1.29,3.87,3.87,0,0,0,.38-1.51,3.25,3.25,0,0,1,0,1.64,5.58,5.58,0,0,1-.57,1.57,8.67,8.67,0,0,1-.92,1.4l-.27.31c-.1.11-.18.21-.3.32a2.68,2.68,0,0,1-.8.57,1.92,1.92,0,0,1-1.12.15,2.33,2.33,0,0,1-1-.43,5,5,0,0,1-1.18-1.41,10.68,10.68,0,0,1-.73-1.53,13.39,13.39,0,0,1-.5-1.59l1.26.06a16.55,16.55,0,0,1-1,2,10.35,10.35,0,0,1-1.3,1.83,4.27,4.27,0,0,1-.91.76l-.28.14c-.11,0-.21.08-.32.1a1.27,1.27,0,0,1-.34,0h-.17l-.17,0a1.67,1.67,0,0,1-.91-.79A3.7,3.7,0,0,1,38.33,38.27Z"/><path class="cls-65" d="M30.77,39.91s-.58-9.69,1.92-15.11c0,0-2.65,13.49.42,18.08C33.11,42.88,30.79,40.63,30.77,39.91Z"/><path class="cls-65" d="M59.47,39.21s-3.9-.7-2.84-8.59c0,0-2.07,8.69,2,10Z"/><ellipse class="cls-61" cx="42.74" cy="78.05" rx="5.04" ry="3.03"/><path class="cls-60" d="M66.46,79.31s-17,3-17.17,1.13S45.88,62.36,61,68.27,66.46,79.31,66.46,79.31Z"/><ellipse class="cls-60" cx="50.28" cy="80.11" rx="6.43" ry="2.9"/><path class="cls-61" d="M56.69,80.41a5.62,5.62,0,0,0-3.9-3s4,0,4.5,3Z"/><path class="cls-60" d="M43,60.23,39.47,81.41l2.71.61,6.89-22.77S46,54.57,43,60.23Z"/><path class="cls-61" d="M36.62,57.41l-4,23.36,3,.68,7.68-25.12S39.91,51.17,36.62,57.41Z"/><path class="cls-62" d="M42.84,62.16s3.43,4.55,1.46,6.62S41,71,40.87,72.37,42.84,62.16,42.84,62.16Z"/><path class="cls-62" d="M60.22,80.3s.76-4.24,3.44-3.89,3.08-.25,3-.81,2.63-.45,2.53,1.12-3.79,3-3.79,3Z"/></g></g></svg>