<svg xmlns="http://www.w3.org/2000/svg" width="96.459" height="96.459" viewBox="0 0 96.459 96.459"><g transform="translate(-251.528 -241)"><circle cx="48.23" cy="48.23" r="48.23" transform="translate(251.528 241)" fill="#cce7e6"/><g transform="translate(-541.084 131.319)"><path d="M809.083,141.824l-3.756.334a1.819,1.819,0,0,0-1.6,2.254l8.115,32.462a3.042,3.042,0,0,0,3.268,2.288l29.762-3.121,27.405.9a3.213,3.213,0,0,0,3.184-4.131l-8.971-30.05a2.722,2.722,0,0,0-2.657-1.942Z" fill="#f0aa00"/><path d="M844.189,175.809l-29.026.464L805.357,139.5h28.6Z" fill="#c2bcb3"/><path d="M873.789,175.693H844.015l-9.806-36.772h28.6Z" fill="#c2bcb3"/><path d="M844.48,175.519h-28.6l-10.23-36.307h28.6Z" fill="#dcd6cc"/><path d="M873.339,175.258l-29.1.2-9.594-36.62,28.378.157Z" fill="#dcd6cc"/><path d="M844.476,175.229l-27.945-.885L806.3,138.037l27.909.885Z" fill="#f6f1e2"/><path d="M872.294,174.344l-27.818.885-10.267-36.307,28.21-.885Z" fill="#f6f1e2"/><line x2="10.035" y2="36.539" transform="translate(834.209 138.922)" fill="none" stroke="#c4baa2" stroke-miterlimit="10" stroke-width="1"/><path d="M832.983,155.755l-19.329.784L810,141.3l18.894-.174Z" fill="#bcb6a7"/><path d="M866.069,160.718l-19.329.784-3.657-15.237,18.894-.174Z" fill="#bcb6a7"/><path d="M833.418,158.715l-18.981.522-.261-1.132,18.72-.958Z" fill="#bcb6a7"/><path d="M833.854,161.153l-18.981.522-.261-1.132,18.719-.958Z" fill="#bcb6a7"/><path d="M834.463,163.939l-18.981.522-.261-1.132,18.72-.958Z" fill="#bcb6a7"/><path d="M860.583,141.911l-18.981.522-.261-1.132,18.719-.958Z" fill="#bcb6a7"/><path d="M861.367,144.436l-18.981.522-.261-1.132,18.72-.958Z" fill="#bcb6a7"/><path d="M866.678,163.33l-18.981.522-.261-1.132,18.719-.958Z" fill="#bcb6a7"/><path d="M867.375,165.855l-18.981.522-.261-1.132,18.719-.958Z" fill="#bcb6a7"/><path d="M868.333,168.815l-18.981.522-.261-1.132,18.72-.958Z" fill="#bcb6a7"/><path d="M869.029,171.34l-18.981.522-.261-1.132,18.719-.958Z" fill="#bcb6a7"/></g></g></svg>