<svg xmlns="http://www.w3.org/2000/svg" width="96.459" height="96.459" viewBox="0 0 96.459 96.459"><g transform="translate(-139.764 -357.452)"><circle cx="48.23" cy="48.23" r="48.23" transform="translate(139.764 357.452)" fill="#cce7e6"/><g transform="translate(-541.084 131.319)"><path d="M757.808,255.145c-.067.056-6.729,5.6-11.282,8.695a12.511,12.511,0,0,1-3.151,1.667c-.569.178-1.128.367-1.682.562.316.189.471.591-.231,1.45-1.364,1.666-36.06,23.03-38.232,23.03-2,0-2.455-.727-.671-2.217l-4.778,2.846a1.361,1.361,0,0,0-.473,1.866l.419.7a1.488,1.488,0,0,0,2.04.516L735.7,272.856a41.113,41.113,0,0,1,8.768-3.848,16.242,16.242,0,0,0,4.119-2.135c2.811-1.911,6.3-4.639,8.7-6.573a3.63,3.63,0,0,0,.517-5.155Z" fill="#56b8c4"/><path d="M744.546,258.844s1.674,3.935,5.159,3.612c0,0,5.676-1.775,7.807-5.133,0,0,1.156-3.5-.743-5.263Z" fill="#d5d5d3"/><ellipse cx="6.971" cy="1.363" rx="6.971" ry="1.363" transform="translate(743.835 257.533) rotate(-28.773)" fill="#fcf9f4"/><path d="M741.693,266.069q-1.606.564-3.122,1.22a41.63,41.63,0,0,0-4.747,2.417l-4.295,2.558c.636.152,1.038.369,1.038.612,0,.456-1.41.825-3.15.825-.1,0-.2,0-.293,0l-7.879,4.694c.607.15.988.363.988.6,0,.456-1.41.826-3.149.826-.076,0-.151,0-.226,0l-5.864,3.493c.884.147,1.473.4,1.473.7,0,.456-1.41.826-3.149.826-.288,0-.566-.011-.831-.03l-5.928,3.532c-1.784,1.49-1.326,2.217.671,2.217,2.172,0,36.868-21.364,38.232-23.03C742.164,266.66,742.009,266.258,741.693,266.069Z" fill="#a2d7e4"/><path d="M712.467,284c0-.294-.589-.551-1.473-.7L710,283.9l-1.513.9c.265.019.543.03.831.03C711.057,284.83,712.467,284.46,712.467,284Z" fill="#56b8c4"/><path d="M720.233,278.99c0-.236-.381-.449-.988-.6l-2.387,1.422c.075,0,.15,0,.226,0C718.823,279.816,720.233,279.446,720.233,278.99Z" fill="#56b8c4"/><path d="M730.567,272.876c0-.243-.4-.46-1.038-.612l-2.4,1.433c.1,0,.194,0,.293,0C729.157,273.7,730.567,273.332,730.567,272.876Z" fill="#56b8c4"/><ellipse cx="0.55" cy="0.168" rx="0.55" ry="0.168" transform="translate(745.69 257.089) rotate(-33.858)" fill="#d5d5d3"/><ellipse cx="0.55" cy="0.168" rx="0.55" ry="0.168" transform="translate(745.945 257.384) rotate(-33.858)" fill="#d5d5d3"/><ellipse cx="0.55" cy="0.168" rx="0.55" ry="0.168" transform="translate(746.301 257.649) rotate(-33.858)" fill="#d5d5d3"/><ellipse cx="0.55" cy="0.168" rx="0.55" ry="0.168" transform="translate(746.648 257.965) rotate(-33.858)" fill="#d5d5d3"/><ellipse cx="0.55" cy="0.168" rx="0.55" ry="0.168" transform="matrix(0.923, -0.386, 0.386, 0.923, 746.932, 258.151)" fill="#d5d5d3"/><ellipse cx="0.55" cy="0.168" rx="0.55" ry="0.168" transform="translate(746.714 256.375) rotate(-33.858)" fill="#d5d5d3"/><ellipse cx="0.55" cy="0.168" rx="0.55" ry="0.168" transform="translate(746.969 256.671) rotate(-33.858)" fill="#d5d5d3"/><ellipse cx="0.55" cy="0.168" rx="0.55" ry="0.168" transform="translate(747.325 256.936) rotate(-33.858)" fill="#d5d5d3"/><ellipse cx="0.55" cy="0.168" rx="0.55" ry="0.168" transform="translate(747.672 257.252) rotate(-33.858)" fill="#d5d5d3"/><ellipse cx="0.55" cy="0.168" rx="0.55" ry="0.168" transform="matrix(0.923, -0.386, 0.386, 0.923, 747.956, 257.437)" fill="#d5d5d3"/><ellipse cx="0.55" cy="0.168" rx="0.55" ry="0.168" transform="translate(747.876 255.764) rotate(-33.858)" fill="#d5d5d3"/><ellipse cx="0.55" cy="0.168" rx="0.55" ry="0.168" transform="translate(748.13 256.059) rotate(-33.858)" fill="#d5d5d3"/><ellipse cx="0.55" cy="0.168" rx="0.55" ry="0.168" transform="translate(748.487 256.324) rotate(-33.858)" fill="#d5d5d3"/><ellipse cx="0.55" cy="0.168" rx="0.55" ry="0.168" transform="translate(748.834 256.64) rotate(-33.858)" fill="#d5d5d3"/><ellipse cx="0.55" cy="0.168" rx="0.55" ry="0.168" transform="matrix(0.923, -0.386, 0.386, 0.923, 749.117, 256.826)" fill="#d5d5d3"/><ellipse cx="0.55" cy="0.168" rx="0.55" ry="0.168" transform="translate(748.93 255.076) rotate(-33.858)" fill="#d5d5d3"/><ellipse cx="0.55" cy="0.168" rx="0.55" ry="0.168" transform="translate(749.185 255.371) rotate(-33.858)" fill="#d5d5d3"/><ellipse cx="0.55" cy="0.168" rx="0.55" ry="0.168" transform="translate(749.542 255.636) rotate(-33.858)" fill="#d5d5d3"/><ellipse cx="0.55" cy="0.168" rx="0.55" ry="0.168" transform="translate(749.888 255.952) rotate(-33.858)" fill="#d5d5d3"/><ellipse cx="0.55" cy="0.168" rx="0.55" ry="0.168" transform="matrix(0.923, -0.386, 0.386, 0.923, 750.172, 256.138)" fill="#d5d5d3"/><ellipse cx="0.55" cy="0.168" rx="0.55" ry="0.168" transform="translate(750.016 254.48) rotate(-33.858)" fill="#d5d5d3"/><ellipse cx="0.55" cy="0.168" rx="0.55" ry="0.168" transform="translate(750.271 254.775) rotate(-33.858)" fill="#d5d5d3"/><ellipse cx="0.55" cy="0.168" rx="0.55" ry="0.168" transform="translate(750.627 255.04) rotate(-33.858)" fill="#d5d5d3"/><ellipse cx="0.55" cy="0.168" rx="0.55" ry="0.168" transform="translate(750.974 255.356) rotate(-33.858)" fill="#d5d5d3"/><ellipse cx="0.55" cy="0.168" rx="0.55" ry="0.168" transform="matrix(0.923, -0.386, 0.386, 0.923, 751.258, 255.542)" fill="#d5d5d3"/><ellipse cx="0.55" cy="0.168" rx="0.55" ry="0.168" transform="translate(751.132 253.838) rotate(-33.858)" fill="#d5d5d3"/><ellipse cx="0.55" cy="0.168" rx="0.55" ry="0.168" transform="translate(751.387 254.133) rotate(-33.858)" fill="#d5d5d3"/><ellipse cx="0.55" cy="0.168" rx="0.55" ry="0.168" transform="translate(751.743 254.398) rotate(-33.858)" fill="#d5d5d3"/><ellipse cx="0.55" cy="0.168" rx="0.55" ry="0.168" transform="translate(752.09 254.714) rotate(-33.858)" fill="#d5d5d3"/><ellipse cx="0.55" cy="0.168" rx="0.55" ry="0.168" transform="matrix(0.923, -0.386, 0.386, 0.923, 752.374, 254.9)" fill="#d5d5d3"/><ellipse cx="0.55" cy="0.168" rx="0.55" ry="0.168" transform="translate(752.37 253.348) rotate(-33.858)" fill="#d5d5d3"/><ellipse cx="0.55" cy="0.168" rx="0.55" ry="0.168" transform="translate(752.625 253.644) rotate(-33.858)" fill="#d5d5d3"/><ellipse cx="0.55" cy="0.168" rx="0.55" ry="0.168" transform="translate(752.981 253.909) rotate(-33.858)" fill="#d5d5d3"/><ellipse cx="0.55" cy="0.168" rx="0.55" ry="0.168" transform="translate(753.328 254.225) rotate(-33.858)" fill="#d5d5d3"/><ellipse cx="0.55" cy="0.168" rx="0.55" ry="0.168" transform="matrix(0.923, -0.386, 0.386, 0.923, 753.612, 254.411)" fill="#d5d5d3"/><ellipse cx="0.477" cy="0.146" rx="0.477" ry="0.146" transform="translate(753.421 252.772) rotate(-33.858)" fill="#d5d5d3"/><ellipse cx="0.477" cy="0.146" rx="0.477" ry="0.146" transform="translate(753.642 253.029) rotate(-33.858)" fill="#d5d5d3"/><ellipse cx="0.477" cy="0.146" rx="0.477" ry="0.146" transform="translate(753.951 253.258) rotate(-33.858)" fill="#d5d5d3"/><ellipse cx="0.477" cy="0.146" rx="0.477" ry="0.146" transform="translate(754.251 253.532) rotate(-33.858)" fill="#d5d5d3"/><ellipse cx="0.477" cy="0.146" rx="0.477" ry="0.146" transform="matrix(0.923, -0.386, 0.386, 0.923, 754.497, 253.693)" fill="#d5d5d3"/><ellipse cx="0.477" cy="0.146" rx="0.477" ry="0.146" transform="translate(754.471 252.353) rotate(-33.858)" fill="#d5d5d3"/><ellipse cx="0.477" cy="0.146" rx="0.477" ry="0.146" transform="translate(754.692 252.609) rotate(-33.858)" fill="#d5d5d3"/><ellipse cx="0.477" cy="0.146" rx="0.477" ry="0.146" transform="translate(755.001 252.839) rotate(-33.858)" fill="#d5d5d3"/><ellipse cx="0.477" cy="0.146" rx="0.477" ry="0.146" transform="translate(755.302 253.113) rotate(-33.858)" fill="#d5d5d3"/><ellipse cx="0.387" cy="0.118" rx="0.387" ry="0.118" transform="translate(755.695 252.22) rotate(-33.858)" fill="#d5d5d3"/><ellipse cx="0.387" cy="0.118" rx="0.387" ry="0.118" transform="translate(755.938 252.442) rotate(-33.858)" fill="#d5d5d3"/><ellipse cx="0.492" cy="0.15" rx="0.492" ry="0.15" transform="translate(744.873 257.8) rotate(-33.858)" fill="#d5d5d3"/><ellipse cx="0.492" cy="0.15" rx="0.492" ry="0.15" transform="translate(745.101 258.064) rotate(-33.858)" fill="#d5d5d3"/><ellipse cx="0.492" cy="0.15" rx="0.492" ry="0.15" transform="translate(745.42 258.301) rotate(-33.858)" fill="#d5d5d3"/><ellipse cx="0.492" cy="0.15" rx="0.492" ry="0.15" transform="translate(745.73 258.584) rotate(-33.858)" fill="#d5d5d3"/><ellipse cx="0.373" cy="0.114" rx="0.373" ry="0.114" transform="translate(744.433 258.391) rotate(-33.858)" fill="#d5d5d3"/><ellipse cx="0.382" cy="0.117" rx="0.382" ry="0.117" transform="translate(744.695 258.658) rotate(-33.858)" fill="#d5d5d3"/><ellipse cx="0.382" cy="0.117" rx="0.382" ry="0.117" transform="translate(745.031 258.826) rotate(-33.858)" fill="#d5d5d3"/><path d="M748.258,258.007l2.161,4.26.245-.143Z" fill="#bebdbe"/><path d="M751.4,256.458l2.161,4.26.245-.143Z" fill="#bebdbe"/><path d="M754.6,253.992l2.232,4.224.176-.206Z" fill="#bebdbe"/><path d="M755.981,253.3l1.755,3.182.061-.285Z" fill="#bebdbe"/><path d="M748.1,262.246l-1.977-3.526,2.2,3.689Z" fill="#bebdbe"/><path d="M751.978,261.543l-2.028-4.331,2.2,4.26Z" fill="#bebdbe"/><path d="M755.158,259.719l-2.028-4.331,2.15,4.25Z" fill="#bebdbe"/></g></g></svg>