<svg xmlns="http://www.w3.org/2000/svg" width="96.459" height="96.459" viewBox="0 0 96.459 96.459"><g transform="translate(-28 -241)"><circle cx="48.23" cy="48.23" r="48.23" transform="translate(28 241)" fill="#cce7e6"/><g transform="translate(-541.084 131.319)"><path d="M608.894,189.672s-2.708.123-3.077,1.846,3.262,1.6,3.262,1.6,2.031-.247,2.185-1.416-2.37-2.031-2.37-2.031" fill="#f9f2c3"/><path d="M602.071,189.1s-2.708.123-3.078,1.847,3.263,1.6,3.263,1.6,2.031-.246,2.185-1.416-2.37-2.031-2.37-2.031" fill="#e7dfb6"/><path d="M635.549,176.44c.568-6.141-13.874-8.529-17.854-10.349-2.562-1.171-3.286-6.817-3.477-10.693l-7.44.686-1.851,23.442a7.6,7.6,0,0,0,6.329,8.1c8.781,1.467,23.383,3.236,27.818-.266a2.876,2.876,0,0,0,.959-1.421l.064.4a25.941,25.941,0,0,0,.972-3.744C638.4,181.785,635.213,180.062,635.549,176.44Z" fill="#e7dfb6"/><path d="M617.7,166.091c3.98,1.82,18.422,4.208,17.854,10.349-.336,3.622,2.85,5.345,5.52,6.149,2.374-12.612-1.464-31.539-.744-23.207.8,9.211-1.365,19.9-1.365,19.9v.008c-4.016-9.943-16.149-24.684-16.149-24.684l-8.594.792C614.409,159.274,615.133,164.92,617.7,166.091Z" fill="#b47209"/><path d="M620.135,125.3a16.486,16.486,0,0,0-2.471-.76c-.587,2.3-1.58,6.091-2.509,9.221-1.214,4.091,5.709,13.355,8.229,20.8a16.743,16.743,0,0,0,5.173-5.661,3.065,3.065,0,0,0,2.443-.276C636.016,145.932,636.42,130.675,620.135,125.3Z" fill="#d08400"/><path d="M611.668,137.32c1.926-3.246.577-10.007-.308-13.47-16.2.6-20.907,22.145-17.584,25.676,1.693,1.8,4.043,1.743,6.079.069a16.755,16.755,0,0,0,5.748,5.583C605.49,150.639,609.534,140.917,611.668,137.32Z" fill="#d08400"/><path d="M615.155,133.757c.929-3.13,1.922-6.923,2.509-9.221-.424-.1-.854-.176-1.29-.238l-.082-.017a20.831,20.831,0,0,0-4.932-.431c.885,3.463,2.234,10.224.308,13.47-2.134,3.6-6.178,13.319-6.065,17.858a16.655,16.655,0,0,0,17.781-.625C620.864,147.112,613.941,137.848,615.155,133.757Z" fill="#f9f2c3"/><ellipse cx="1.061" cy="2.426" rx="1.061" ry="2.426" transform="translate(606.961 133.378)" fill="#402f11"/><ellipse cx="1.061" cy="2.426" rx="1.061" ry="2.426" transform="translate(618.03 133.378)" fill="#402f11"/><circle cx="1.744" cy="1.744" r="1.744" transform="translate(610.985 141.187)" fill="#402f11"/><path d="M607.41,147.953a5.5,5.5,0,0,0,.661.819,1.348,1.348,0,0,0,.785.429c.51.031.983-.475,1.342-1.014a11.81,11.81,0,0,0,.968-1.775c.282-.621.546-1.275.768-1.9l.673-1.907.591,1.972a14.1,14.1,0,0,0,1.119,2.771,4,4,0,0,0,.807,1.057,1.093,1.093,0,0,0,.429.234.774.774,0,0,0,.439-.019,1.97,1.97,0,0,0,.518-.3,3.269,3.269,0,0,0,.275-.238l.284-.254a10.1,10.1,0,0,0,1.02-1.119,6.55,6.55,0,0,0,.788-1.3,3.85,3.85,0,0,0,.382-1.5,3.345,3.345,0,0,1,.044,1.635,5.859,5.859,0,0,1-.567,1.572,8.465,8.465,0,0,1-.923,1.4l-.273.316a4.149,4.149,0,0,1-.294.316,2.843,2.843,0,0,1-.8.572,1.99,1.99,0,0,1-1.119.153,2.348,2.348,0,0,1-1-.437,4.87,4.87,0,0,1-1.185-1.4,10.257,10.257,0,0,1-.726-1.532,13.136,13.136,0,0,1-.5-1.6l1.264.065a16.346,16.346,0,0,1-.958,1.99,9.951,9.951,0,0,1-1.293,1.828,4.191,4.191,0,0,1-.912.757c-.094.05-.187.1-.284.142a1.993,1.993,0,0,1-.316.1,1.332,1.332,0,0,1-.34.027l-.171-.012c-.056-.012-.111-.029-.166-.044a1.645,1.645,0,0,1-.91-.782A3.953,3.953,0,0,1,607.41,147.953Z" fill="#402f11"/><path d="M599.855,149.6s-.583-9.7,1.919-15.118c0,0-2.653,13.495.417,18.082C602.191,152.559,599.87,150.308,599.855,149.6Z" fill="#2f2d15"/><path d="M628.557,148.892s-3.9-.705-2.839-8.59c0,0-2.072,8.693,1.971,10.008Z" fill="#2f2d15"/><ellipse cx="5.042" cy="3.032" rx="5.042" ry="3.032" transform="translate(606.778 184.703)" fill="#e7dfb6"/><path d="M635.549,188.986s-17.058,2.957-17.172,1.138-3.411-18.082,11.713-12.168S635.549,188.986,635.549,188.986Z" fill="#f9f2c3"/><ellipse cx="6.425" cy="2.9" rx="6.425" ry="2.9" transform="translate(612.944 186.889)" fill="#f9f2c3"/><path d="M625.777,190.092a5.619,5.619,0,0,0-3.9-2.963s3.986,0,4.5,2.982Z" fill="#e7dfb6"/><path d="M612.125,169.915l-3.57,21.173,2.709.615,6.893-22.773S615.08,164.252,612.125,169.915Z" fill="#f9f2c3"/><path d="M605.708,167.1l-3.976,23.359,3.016.679,7.678-25.125S609,160.848,605.708,167.1Z" fill="#e7dfb6"/><path d="M611.92,171.84s3.437,4.549,1.466,6.621-3.336,2.224-3.437,3.589S611.92,171.84,611.92,171.84Z" fill="#b47209"/><path d="M629.307,189.985s.758-4.246,3.437-3.892,3.083-.253,3.032-.809,2.628-.455,2.527,1.112-3.791,2.982-3.791,2.982Z" fill="#b47209"/></g></g></svg>