<svg xmlns="http://www.w3.org/2000/svg" xmlns:xlink="http://www.w3.org/1999/xlink" width="96.459" height="96.459" viewBox="0 0 96.459 96.459"><defs><clipPath id="a"><path d="M832.4,421.814l-2.184-1.188a2.387,2.387,0,0,1-1.132-1.869l2.183,1.188A2.391,2.391,0,0,0,832.4,421.814Z" fill="none"/></clipPath><clipPath id="b"><path d="M848.432,358.38l2.183,1.188a1.711,1.711,0,0,0-1.07-.191l-2.183-1.188A1.718,1.718,0,0,1,848.432,358.38Z" fill="none"/></clipPath><clipPath id="c"><path d="M824.688,366.081l-2.183-1.188c-.2-1.661.846-3.329,2.214-3.522l2.183,1.188C825.534,362.751,824.486,364.42,824.688,366.081Z" fill="none"/></clipPath></defs><g transform="translate(-251.528 -474.608)"><circle cx="48.23" cy="48.23" r="48.23" transform="translate(251.528 474.608)" fill="#cce7e6"/><g transform="translate(-541.084 131.319)"><path d="M825.836,368.145c-.232.173-.44.338-.629.5l9.009-5.367Z" fill="#c4baa2"/><g style="isolation:isolate"><g style="isolation:isolate"><g clip-path="url(#a)"><g style="isolation:isolate"><path d="M832.4,421.814l-2.184-1.188a2.387,2.387,0,0,1-1.132-1.869l2.183,1.188a2.391,2.391,0,0,0,1.133,1.869" fill="#5f5f5f"/></g></g></g><g style="isolation:isolate"><g clip-path="url(#b)"><g style="isolation:isolate"><path d="M849.545,359.377l-2.183-1.188a1.744,1.744,0,0,1,.678.036l2.183,1.188a1.742,1.742,0,0,0-.678-.036" fill="#7c7c7d"/><path d="M850.223,359.413l-2.183-1.188a1.734,1.734,0,0,1,.327.121l2.183,1.188a1.71,1.71,0,0,0-.327-.121" fill="#787878"/><path d="M850.55,359.534l-2.183-1.188.065.034,2.183,1.188c-.021-.012-.043-.023-.065-.034" fill="#747474"/></g></g></g><path d="M826.9,362.559l-2.184-1.188,22.643-3.182,2.183,1.188Z" fill="#888787"/><path d="M831.268,419.945l-2.183-1.188-6.58-53.864,2.184,1.188Z" fill="#5b5b5b"/><g style="isolation:isolate"><g clip-path="url(#c)"><g style="isolation:isolate"><path d="M824.688,366.081l-2.183-1.188a3.564,3.564,0,0,1,.2-1.654l2.184,1.188a3.577,3.577,0,0,0-.2,1.654" fill="#5f5f5f"/><path d="M824.885,364.427l-2.184-1.188a3.585,3.585,0,0,1,.207-.459l2.183,1.188a3.4,3.4,0,0,0-.206.459" fill="#636363"/><path d="M825.091,363.968l-2.183-1.188a3.336,3.336,0,0,1,.206-.336l2.184,1.188a3.261,3.261,0,0,0-.207.336" fill="#676768"/><path d="M825.3,363.632l-2.184-1.188a3.229,3.229,0,0,1,.215-.273l2.184,1.187a3.061,3.061,0,0,0-.215.274" fill="#6b6b6c"/><path d="M825.513,363.358l-2.184-1.187a2.818,2.818,0,0,1,.23-.233l2.183,1.188a2.947,2.947,0,0,0-.229.232" fill="#6f7070"/><path d="M825.742,363.126l-2.183-1.188a2.657,2.657,0,0,1,.259-.2L826,362.921a2.775,2.775,0,0,0-.259.205" fill="#747474"/><path d="M826,362.921l-2.183-1.188a2.427,2.427,0,0,1,.327-.189l2.183,1.188a2.391,2.391,0,0,0-.327.189" fill="#787878"/><path d="M826.328,362.732l-2.183-1.188a2.035,2.035,0,0,1,.574-.173l2.183,1.188a2,2,0,0,0-.574.173" fill="#7c7c7d"/></g></g></g><path d="M849.545,359.377a2.064,2.064,0,0,1,2.2,2.061l6.58,53.863c.2,1.661-.846,3.33-2.214,3.522l-22.641,3.182a2.066,2.066,0,0,1-2.2-2.06l-6.58-53.864c-.2-1.661.846-3.33,2.214-3.522Z" fill="#b0afaf"/></g><path d="M855.553,409.175l-22.991,3.3-5.748-42.191,22.991-3.057Z" fill="#464544"/><circle cx="2.996" cy="2.996" r="2.996" transform="translate(841.857 411.865)" fill="#464544"/></g></g></svg>