<svg xmlns="http://www.w3.org/2000/svg" viewBox="0 0 288.91 340.6"><defs><style>.cls-1{fill:#3f3116;}.cls-2{fill:#f4c76d;}.cls-3{fill:#f7bf31;}.cls-4{fill:#b68416;}.cls-5{fill:#dbdbdb;}.cls-6{fill:#833d12;}.cls-7{fill:#d39f2a;}</style></defs><title>Asset 1</title><g id="Layer_2" data-name="Layer 2"><g id="Laag_1" data-name="Laag 1"><rect class="cls-1" x="9.04" y="30.09" width="275.55" height="265.22"/><path class="cls-2" d="M247.27,11.36H41.64A41.63,41.63,0,0,0,0,53V314.05H288.91V53A41.64,41.64,0,0,0,247.27,11.36ZM190.83,151c-74.87.59-130.28-48.93-154.71-50.7-12-.87-19.35,1.59-23.76,4.31a76.13,76.13,0,0,1,69.49-45H209.36a76.12,76.12,0,0,1,72.56,53.13C274.93,123.32,251.11,150.53,190.83,151Z"/><path class="cls-3" d="M281.92,113.3c-7,10.59-30.81,37.81-91.09,38.28-74.87.59-130.28-48.93-154.71-50.7-12-.87-19.35,1.59-23.76,4.32a75.86,75.86,0,0,0-6.62,31.08V314.05H285.46V136.28A75.87,75.87,0,0,0,281.92,113.3Z"/><path class="cls-4" d="M250.61,177.59l13.82-7.79s-3.27,68.43-2.7,99.16.47,40.77.47,40.77l-13.71,3.67Z"/><polygon class="cls-2" points="22.86 169.79 264.43 169.79 250.61 177.59 36.68 177.59 22.86 169.79"/><path class="cls-3" d="M89,18.62V30.11s56.57-38.57,113.15,0l-4.6-12.26S147.14-22.82,89,18.62Z"/><path class="cls-4" d="M89,30.11h5.74s50-32,103.19,0h4.22S154.7-10.49,89,30.11Z"/><path class="cls-5" d="M13.64,102.71a1.41,1.41,0,0,0,0,2.81A1.41,1.41,0,0,0,13.64,102.71Z"/><path class="cls-5" d="M16.37,101.71a1.41,1.41,0,0,0,0,2.81A1.41,1.41,0,0,0,16.37,101.71Z"/><path class="cls-5" d="M21.83,99.84a1.28,1.28,0,0,0-1.31,1,1.29,1.29,0,0,0-1.14-.6,1.41,1.41,0,0,0,0,2.81,1.28,1.28,0,0,0,1.31-1,1.29,1.29,0,0,0,1.14.6A1.41,1.41,0,0,0,21.83,99.84Z"/><path class="cls-5" d="M27.14,99.12a1.28,1.28,0,0,0-1.28.93,1.29,1.29,0,0,0-1.16-.64,1.41,1.41,0,0,0,0,2.81,1.28,1.28,0,0,0,1.28-.93,1.27,1.27,0,0,0,1.16.64A1.41,1.41,0,0,0,27.14,99.12Z"/><path class="cls-5" d="M32.74,99a1.26,1.26,0,0,0-1.22.77A1.27,1.27,0,0,0,30.3,99a1.41,1.41,0,0,0,0,2.81,1.29,1.29,0,0,0,1.22-.77,1.28,1.28,0,0,0,1.22.77A1.41,1.41,0,0,0,32.74,99Z"/><path class="cls-5" d="M35.47,99.12a1.41,1.41,0,0,0,0,2.81A1.41,1.41,0,0,0,35.47,99.12Z"/><path class="cls-5" d="M41.07,100a1.27,1.27,0,0,0-1.23.79,1.32,1.32,0,0,0-1.36-1.36,1.41,1.41,0,0,0,0,2.81,1.28,1.28,0,0,0,1.23-.79,1.32,1.32,0,0,0,1.36,1.36A1.41,1.41,0,0,0,41.07,100Z"/><path class="cls-5" d="M43.94,100.56a1.41,1.41,0,0,0,0,2.81A1.41,1.41,0,0,0,43.94,100.56Z"/><path class="cls-5" d="M46.67,101.56a1.41,1.41,0,0,0,0,2.81A1.41,1.41,0,0,0,46.67,101.56Z"/><path class="cls-5" d="M49.25,102.85a1.41,1.41,0,0,0,0,2.82A1.41,1.41,0,0,0,49.25,102.85Z"/><path class="cls-5" d="M51.84,104a1.41,1.41,0,0,0,0,2.81A1.41,1.41,0,0,0,51.84,104Z"/><path class="cls-5" d="M59,107.88a1.29,1.29,0,0,0-1,.39,1.36,1.36,0,0,0-1.33-1.68,1.27,1.27,0,0,0-1.12.58,1.36,1.36,0,0,0-1.32-1.73,1.41,1.41,0,0,0,0,2.81,1.26,1.26,0,0,0,1.12-.59,1.36,1.36,0,0,0,1.32,1.74,1.29,1.29,0,0,0,1-.39A1.37,1.37,0,0,0,59,110.69,1.41,1.41,0,0,0,59,107.88Z"/><path class="cls-5" d="M61.6,109a1.41,1.41,0,0,0,0,2.81A1.41,1.41,0,0,0,61.6,109Z"/><path class="cls-5" d="M64.62,110.32a1.41,1.41,0,0,0,0,2.81A1.41,1.41,0,0,0,64.62,110.32Z"/><path class="cls-5" d="M67.2,111.9a1.41,1.41,0,0,0,0,2.81A1.41,1.41,0,0,0,67.2,111.9Z"/><path class="cls-5" d="M70.22,113.48a1.41,1.41,0,0,0,0,2.81A1.41,1.41,0,0,0,70.22,113.48Z"/><path class="cls-5" d="M73.23,114.63a1.41,1.41,0,0,0,0,2.81A1.41,1.41,0,0,0,73.23,114.63Z"/><path class="cls-5" d="M75.82,116.35a1.41,1.41,0,0,0,0,2.81A1.41,1.41,0,0,0,75.82,116.35Z"/><path class="cls-5" d="M78.54,117.93a1.41,1.41,0,0,0,0,2.81A1.41,1.41,0,0,0,78.54,117.93Z"/><path class="cls-5" d="M81.42,119.37a1.41,1.41,0,0,0,0,2.81A1.41,1.41,0,0,0,81.42,119.37Z"/><path class="cls-5" d="M84.43,120.8a1.41,1.41,0,0,0,0,2.81A1.41,1.41,0,0,0,84.43,120.8Z"/><path class="cls-5" d="M87.16,122.24a1.41,1.41,0,0,0,0,2.81A1.41,1.41,0,0,0,87.16,122.24Z"/><path class="cls-5" d="M90.18,123.67a1.41,1.41,0,0,0,0,2.82A1.41,1.41,0,0,0,90.18,123.67Z"/><path class="cls-5" d="M93.05,125.25a1.41,1.41,0,0,0,0,2.82A1.41,1.41,0,0,0,93.05,125.25Z"/><path class="cls-5" d="M95.78,126.26a1.41,1.41,0,0,0,0,2.81A1.41,1.41,0,0,0,95.78,126.26Z"/><path class="cls-5" d="M98.5,127.12a1.41,1.41,0,0,0,0,2.81A1.41,1.41,0,0,0,98.5,127.12Z"/><path class="cls-5" d="M101.09,128.7a1.41,1.41,0,0,0,0,2.81A1.41,1.41,0,0,0,101.09,128.7Z"/><path class="cls-5" d="M103.67,130.14a1.41,1.41,0,0,0,0,2.81A1.41,1.41,0,0,0,103.67,130.14Z"/><path class="cls-5" d="M106.69,131.14a1.41,1.41,0,0,0,0,2.81A1.41,1.41,0,0,0,106.69,131.14Z"/><path class="cls-5" d="M109.27,132.29a1.41,1.41,0,0,0,0,2.81A1.41,1.41,0,0,0,109.27,132.29Z"/><path class="cls-5" d="M114.59,134.3a1.28,1.28,0,0,0-1.27.87,1.36,1.36,0,0,0-1.32-1.73,1.41,1.41,0,0,0,0,2.81,1.26,1.26,0,0,0,1.26-.87,1.37,1.37,0,0,0,1.33,1.73A1.41,1.41,0,0,0,114.59,134.3Z"/><path class="cls-5" d="M117.46,135.74a1.41,1.41,0,0,0,0,2.81A1.41,1.41,0,0,0,117.46,135.74Z"/><path class="cls-5" d="M122.77,137.17a1.29,1.29,0,0,0-1.24.81,1.34,1.34,0,0,0-1.34-1.53,1.41,1.41,0,0,0,0,2.82,1.27,1.27,0,0,0,1.23-.81,1.34,1.34,0,0,0,1.35,1.52A1.41,1.41,0,0,0,122.77,137.17Z"/><path class="cls-5" d="M125.64,138.61a1.41,1.41,0,0,0,0,2.81A1.41,1.41,0,0,0,125.64,138.61Z"/><path class="cls-5" d="M128.51,139.76a1.41,1.41,0,0,0,0,2.81A1.41,1.41,0,0,0,128.51,139.76Z"/><path class="cls-5" d="M131.67,140.91a1.41,1.41,0,0,0,0,2.81A1.41,1.41,0,0,0,131.67,140.91Z"/><path class="cls-5" d="M137.13,142.34a1.27,1.27,0,0,0-1.24.81,1.34,1.34,0,0,0-1.34-1.53,1.41,1.41,0,0,0,0,2.82,1.28,1.28,0,0,0,1.23-.81,1.34,1.34,0,0,0,1.35,1.52A1.41,1.41,0,0,0,137.13,142.34Z"/><path class="cls-5" d="M139.86,143.35a1.41,1.41,0,0,0,0,2.81A1.41,1.41,0,0,0,139.86,143.35Z"/><path class="cls-5" d="M142.73,144.21a1.41,1.41,0,0,0,0,2.81A1.41,1.41,0,0,0,142.73,144.21Z"/><path class="cls-5" d="M145.46,144.78a1.41,1.41,0,0,0,0,2.81A1.41,1.41,0,0,0,145.46,144.78Z"/><path class="cls-5" d="M148.47,145.36a1.41,1.41,0,0,0,0,2.81A1.41,1.41,0,0,0,148.47,145.36Z"/><path class="cls-5" d="M151.63,145.93a1.41,1.41,0,0,0,0,2.81A1.41,1.41,0,0,0,151.63,145.93Z"/><path class="cls-5" d="M154.5,146.65a1.41,1.41,0,0,0,0,2.81A1.41,1.41,0,0,0,154.5,146.65Z"/><path class="cls-5" d="M157.81,147.37a1.41,1.41,0,0,0,0,2.81A1.41,1.41,0,0,0,157.81,147.37Z"/><path class="cls-5" d="M160.82,147.8a1.41,1.41,0,0,0,0,2.81A1.41,1.41,0,0,0,160.82,147.8Z"/><path class="cls-5" d="M163.84,149.35c-1.81,0-1.81,1.83,0,1.83S165.65,149.35,163.84,149.35Z"/><path class="cls-5" d="M167.14,148.8a1.41,1.41,0,0,0,0,2.82A1.41,1.41,0,0,0,167.14,148.8Z"/><path class="cls-5" d="M170.44,149.23a1.41,1.41,0,0,0,0,2.82A1.41,1.41,0,0,0,170.44,149.23Z"/><path class="cls-5" d="M173.31,149.52a1.41,1.41,0,0,0,0,2.81A1.41,1.41,0,0,0,173.31,149.52Z"/><path class="cls-5" d="M176.47,150a1.41,1.41,0,0,0,0,2.81A1.41,1.41,0,0,0,176.47,150Z"/><path class="cls-5" d="M179.78,150a1.41,1.41,0,0,0,0,2.81A1.41,1.41,0,0,0,179.78,150Z"/><path class="cls-5" d="M182.94,150a1.41,1.41,0,0,0,0,2.81A1.41,1.41,0,0,0,182.94,150Z"/><path class="cls-5" d="M186,150.24a1.41,1.41,0,0,0,0,2.81A1.41,1.41,0,0,0,186,150.24Z"/><path class="cls-5" d="M189.25,150.1a1.41,1.41,0,0,0,0,2.81A1.41,1.41,0,0,0,189.25,150.1Z"/><path class="cls-5" d="M192.27,150.24a1.41,1.41,0,0,0,0,2.81A1.41,1.41,0,0,0,192.27,150.24Z"/><path class="cls-5" d="M195.57,150.1a1.41,1.41,0,0,0,0,2.81A1.41,1.41,0,0,0,195.57,150.1Z"/><path class="cls-5" d="M198.73,150a1.41,1.41,0,0,0,0,2.81A1.41,1.41,0,0,0,198.73,150Z"/><path class="cls-5" d="M202.18,150a1.41,1.41,0,0,0,0,2.81A1.41,1.41,0,0,0,202.18,150Z"/><path class="cls-5" d="M205.34,149.81a1.41,1.41,0,0,0,0,2.81A1.41,1.41,0,0,0,205.34,149.81Z"/><path class="cls-5" d="M208.78,149.38a1.41,1.41,0,0,0,0,2.81A1.41,1.41,0,0,0,208.78,149.38Z"/><path class="cls-5" d="M211.8,149.23a1.41,1.41,0,0,0,0,2.82A1.41,1.41,0,0,0,211.8,149.23Z"/><path class="cls-5" d="M214.81,148.56a1.41,1.41,0,0,0,0,2.82A1.41,1.41,0,0,0,214.81,148.56Z"/><path class="cls-5" d="M217.68,148a1.41,1.41,0,0,0,0,2.81A1.41,1.41,0,0,0,217.68,148Z"/><path class="cls-5" d="M220.56,147.41a1.41,1.41,0,0,0,0,2.82A1.41,1.41,0,0,0,220.56,147.41Z"/><path class="cls-5" d="M223.62,146.84a1.41,1.41,0,0,0,0,2.81A1.41,1.41,0,0,0,223.62,146.84Z"/><path class="cls-5" d="M226.68,146.07a1.41,1.41,0,0,0,0,2.82A1.41,1.41,0,0,0,226.68,146.07Z"/><path class="cls-5" d="M229.75,145.31a1.41,1.41,0,0,0,0,2.81A1.41,1.41,0,0,0,229.75,145.31Z"/><path class="cls-5" d="M232.81,144.35a1.41,1.41,0,0,0,0,2.81A1.41,1.41,0,0,0,232.81,144.35Z"/><path class="cls-5" d="M236.06,143.39a1.41,1.41,0,0,0,0,2.82A1.41,1.41,0,0,0,236.06,143.39Z"/><path class="cls-5" d="M239.32,142.44a1.41,1.41,0,0,0,0,2.81A1.41,1.41,0,0,0,239.32,142.44Z"/><path class="cls-5" d="M242.57,140.91a1.41,1.41,0,0,0,0,2.81A1.41,1.41,0,0,0,242.57,140.91Z"/><path class="cls-5" d="M246,139.76a1.41,1.41,0,0,0,0,2.81A1.41,1.41,0,0,0,246,139.76Z"/><path class="cls-5" d="M249.08,138.61a1.41,1.41,0,0,0,0,2.81A1.41,1.41,0,0,0,249.08,138.61Z"/><path class="cls-5" d="M252.53,136.88a1.41,1.41,0,0,0,0,2.82A1.41,1.41,0,0,0,252.53,136.88Z"/><path class="cls-5" d="M255.59,135.16a1.41,1.41,0,0,0,0,2.81A1.41,1.41,0,0,0,255.59,135.16Z"/><path class="cls-5" d="M258.08,133.44a1.41,1.41,0,0,0,0,2.81A1.41,1.41,0,0,0,258.08,133.44Z"/><path class="cls-5" d="M260.76,131.52a1.41,1.41,0,0,0,0,2.82A1.41,1.41,0,0,0,260.76,131.52Z"/><path class="cls-5" d="M264,129.61a1.41,1.41,0,0,0,0,2.81A1.41,1.41,0,0,0,264,129.61Z"/><path class="cls-5" d="M266.7,127.7a1.41,1.41,0,0,0,0,2.81A1.41,1.41,0,0,0,266.7,127.7Z"/><path class="cls-5" d="M269,125.59a1.41,1.41,0,0,0,0,2.81A1.41,1.41,0,0,0,269,125.59Z"/><path class="cls-5" d="M271.48,123.67a1.41,1.41,0,0,0,0,2.82A1.41,1.41,0,0,0,271.48,123.67Z"/><path class="cls-5" d="M274.16,121.19a1.41,1.41,0,0,0,0,2.81A1.41,1.41,0,0,0,274.16,121.19Z"/><path class="cls-5" d="M276.46,119.27a1.41,1.41,0,0,0,0,2.81A1.41,1.41,0,0,0,276.46,119.27Z"/><path class="cls-5" d="M278.76,116.4a1.41,1.41,0,0,0,0,2.81A1.41,1.41,0,0,0,278.76,116.4Z"/><path class="cls-5" d="M281.06,113.53a1.41,1.41,0,0,0,0,2.81A1.41,1.41,0,0,0,281.06,113.53Z"/><path class="cls-6" d="M0,314.05s122.91,59.73,288.91,0"/><path class="cls-7" d="M251.93,182.09a6.76,6.76,0,0,0-6.75-6.75H41.69a6.77,6.77,0,0,0-6.75,6.75v32h217Z"/><path class="cls-3" d="M34.94,214.11V307.3a6.77,6.77,0,0,0,6.75,6.75H245.18a6.77,6.77,0,0,0,6.75-6.75V214.11Z"/></g></g></svg>