<svg xmlns="http://www.w3.org/2000/svg" width="288.906" height="340.595" viewBox="0 0 288.906 340.595"><g transform="translate(-110.137 -107.759)"><rect width="275.548" height="265.224" transform="translate(119.179 137.849)" fill="#312411"/><path d="M357.4,119.115H151.774a41.638,41.638,0,0,0-41.637,41.638V421.806H399.043V160.753A41.638,41.638,0,0,0,357.4,119.115ZM300.968,258.767c-74.867.59-130.281-48.929-154.71-50.7-11.986-.868-19.354,1.588-23.758,4.314a76.116,76.116,0,0,1,69.484-45.02H319.493a76.134,76.134,0,0,1,72.568,53.122C385.065,231.077,361.246,258.293,300.968,258.767Z" fill="#f7b956"/><path d="M392.061,221.058c-7,10.591-30.815,37.807-91.093,38.282-74.867.589-130.281-48.929-154.71-50.7-11.986-.868-19.354,1.588-23.758,4.314a75.837,75.837,0,0,0-6.62,31.084V421.806H395.6V244.04A76.046,76.046,0,0,0,392.061,221.058Z" fill="#fcb01b"/><path d="M360.751,285.346l13.817-7.791s-3.273,68.435-2.7,99.163.462,40.77.462,40.77l-13.708,3.667Z" fill="#ab7008"/><path d="M133,277.555h241.57l-13.817,7.792H146.815Z" fill="#f7b956"/><path d="M199.164,126.379v11.487s56.575-38.571,113.15,0l-4.6-12.253S257.281,84.936,199.164,126.379Z" fill="#fcb01b"/><path d="M199.164,137.866h5.743s49.97-31.984,103.195,0h4.212S264.833,97.266,199.164,137.866Z" fill="#ab7008"/><path d="M123.778,210.47a1.407,1.407,0,0,0,0,2.812A1.407,1.407,0,0,0,123.778,210.47Z" fill="#d3d3d3"/><path d="M126.506,209.464a1.407,1.407,0,0,0,0,2.812A1.407,1.407,0,0,0,126.506,209.464Z" fill="#d3d3d3"/><path d="M131.963,207.6a1.287,1.287,0,0,0-1.309,1.032,1.272,1.272,0,0,0-1.132-.6,1.407,1.407,0,0,0,0,2.812,1.286,1.286,0,0,0,1.308-1.033,1.274,1.274,0,0,0,1.133.6A1.407,1.407,0,0,0,131.963,207.6Z" fill="#d3d3d3"/><path d="M137.276,206.88a1.282,1.282,0,0,0-1.283.926,1.274,1.274,0,0,0-1.158-.639,1.407,1.407,0,0,0,0,2.812,1.281,1.281,0,0,0,1.282-.927,1.275,1.275,0,0,0,1.159.64A1.407,1.407,0,0,0,137.276,206.88Z" fill="#d3d3d3"/><path d="M142.876,206.736a1.271,1.271,0,0,0-1.221.772,1.269,1.269,0,0,0-1.22-.772,1.407,1.407,0,0,0,0,2.812,1.271,1.271,0,0,0,1.22-.771,1.27,1.27,0,0,0,1.221.771A1.407,1.407,0,0,0,142.876,206.736Z" fill="#d3d3d3"/><path d="M145.6,206.88a1.407,1.407,0,0,0,0,2.812A1.407,1.407,0,0,0,145.6,206.88Z" fill="#d3d3d3"/><path d="M151.2,207.741a1.273,1.273,0,0,0-1.23.793,1.322,1.322,0,0,0-1.355-1.367,1.407,1.407,0,0,0,0,2.812,1.272,1.272,0,0,0,1.23-.793,1.322,1.322,0,0,0,1.355,1.367A1.407,1.407,0,0,0,151.2,207.741Z" fill="#d3d3d3"/><path d="M154.076,208.316a1.407,1.407,0,0,0,0,2.812A1.407,1.407,0,0,0,154.076,208.316Z" fill="#d3d3d3"/><path d="M156.8,209.321a1.407,1.407,0,0,0,0,2.812A1.407,1.407,0,0,0,156.8,209.321Z" fill="#d3d3d3"/><path d="M159.389,210.613a1.407,1.407,0,0,0,0,2.812A1.407,1.407,0,0,0,159.389,210.613Z" fill="#d3d3d3"/><path d="M161.973,211.762a1.407,1.407,0,0,0,0,2.812A1.407,1.407,0,0,0,161.973,211.762Z" fill="#d3d3d3"/><path d="M169.153,215.639a1.3,1.3,0,0,0-.964.388,1.36,1.36,0,0,0-1.334-1.68,1.273,1.273,0,0,0-1.121.586,1.365,1.365,0,0,0-1.32-1.735,1.407,1.407,0,0,0,0,2.812,1.271,1.271,0,0,0,1.121-.587,1.366,1.366,0,0,0,1.32,1.736,1.3,1.3,0,0,0,.964-.389,1.362,1.362,0,0,0,1.334,1.681A1.407,1.407,0,0,0,169.153,215.639Z" fill="#d3d3d3"/><path d="M171.738,216.788a1.407,1.407,0,0,0,0,2.812A1.407,1.407,0,0,0,171.738,216.788Z" fill="#d3d3d3"/><path d="M174.753,218.08a1.407,1.407,0,0,0,0,2.812A1.407,1.407,0,0,0,174.753,218.08Z" fill="#d3d3d3"/><path d="M177.338,219.659a1.407,1.407,0,0,0,0,2.812A1.407,1.407,0,0,0,177.338,219.659Z" fill="#d3d3d3"/><path d="M180.353,221.239a1.407,1.407,0,0,0,0,2.812A1.407,1.407,0,0,0,180.353,221.239Z" fill="#d3d3d3"/><path d="M183.368,222.388a1.407,1.407,0,0,0,0,2.812A1.407,1.407,0,0,0,183.368,222.388Z" fill="#d3d3d3"/><path d="M185.953,224.111a1.407,1.407,0,0,0,0,2.812A1.407,1.407,0,0,0,185.953,224.111Z" fill="#d3d3d3"/><path d="M188.681,225.69a1.407,1.407,0,0,0,0,2.812A1.407,1.407,0,0,0,188.681,225.69Z" fill="#d3d3d3"/><path d="M191.553,227.126a1.407,1.407,0,0,0,0,2.812A1.407,1.407,0,0,0,191.553,227.126Z" fill="#d3d3d3"/><path d="M194.569,228.562a1.407,1.407,0,0,0,0,2.812A1.407,1.407,0,0,0,194.569,228.562Z" fill="#d3d3d3"/><path d="M197.3,230a1.407,1.407,0,0,0,0,2.812A1.407,1.407,0,0,0,197.3,230Z" fill="#d3d3d3"/><path d="M200.312,231.434a1.407,1.407,0,0,0,0,2.812A1.407,1.407,0,0,0,200.312,231.434Z" fill="#d3d3d3"/><path d="M203.184,233.013a1.407,1.407,0,0,0,0,2.812A1.407,1.407,0,0,0,203.184,233.013Z" fill="#d3d3d3"/><path d="M205.912,234.018a1.407,1.407,0,0,0,0,2.812A1.407,1.407,0,0,0,205.912,234.018Z" fill="#d3d3d3"/><path d="M208.641,234.88a1.407,1.407,0,0,0,0,2.812A1.407,1.407,0,0,0,208.641,234.88Z" fill="#d3d3d3"/><path d="M211.225,236.46a1.407,1.407,0,0,0,0,2.812A1.407,1.407,0,0,0,211.225,236.46Z" fill="#d3d3d3"/><path d="M213.81,237.9a1.407,1.407,0,0,0,0,2.812A1.407,1.407,0,0,0,213.81,237.9Z" fill="#d3d3d3"/><path d="M216.825,238.9a1.407,1.407,0,0,0,0,2.812A1.407,1.407,0,0,0,216.825,238.9Z" fill="#d3d3d3"/><path d="M219.41,240.049a1.407,1.407,0,0,0,0,2.812A1.407,1.407,0,0,0,219.41,240.049Z" fill="#d3d3d3"/><path d="M224.723,242.06a1.278,1.278,0,0,0-1.263.867,1.365,1.365,0,0,0-1.322-1.729,1.407,1.407,0,0,0,0,2.812,1.278,1.278,0,0,0,1.263-.868,1.365,1.365,0,0,0,1.322,1.73A1.407,1.407,0,0,0,224.723,242.06Z" fill="#d3d3d3"/><path d="M227.6,243.5a1.407,1.407,0,0,0,0,2.812A1.407,1.407,0,0,0,227.6,243.5Z" fill="#d3d3d3"/><path d="M232.907,244.931a1.273,1.273,0,0,0-1.236.808,1.339,1.339,0,0,0-1.348-1.526,1.407,1.407,0,0,0,0,2.812,1.272,1.272,0,0,0,1.236-.807,1.338,1.338,0,0,0,1.348,1.525A1.407,1.407,0,0,0,232.907,244.931Z" fill="#d3d3d3"/><path d="M235.779,246.367a1.407,1.407,0,0,0,0,2.812A1.407,1.407,0,0,0,235.779,246.367Z" fill="#d3d3d3"/><path d="M238.651,247.516a1.407,1.407,0,0,0,0,2.812A1.407,1.407,0,0,0,238.651,247.516Z" fill="#d3d3d3"/><path d="M241.81,248.665a1.407,1.407,0,0,0,0,2.812A1.407,1.407,0,0,0,241.81,248.665Z" fill="#d3d3d3"/><path d="M247.267,250.1a1.273,1.273,0,0,0-1.237.807,1.338,1.338,0,0,0-1.348-1.525,1.407,1.407,0,0,0,0,2.812,1.273,1.273,0,0,0,1.236-.808,1.34,1.34,0,0,0,1.349,1.526A1.407,1.407,0,0,0,247.267,250.1Z" fill="#d3d3d3"/><path d="M249.995,251.106a1.407,1.407,0,0,0,0,2.812A1.407,1.407,0,0,0,249.995,251.106Z" fill="#d3d3d3"/><path d="M252.867,251.967a1.407,1.407,0,0,0,0,2.812A1.407,1.407,0,0,0,252.867,251.967Z" fill="#d3d3d3"/><path d="M255.6,252.542a1.407,1.407,0,0,0,0,2.812A1.407,1.407,0,0,0,255.6,252.542Z" fill="#d3d3d3"/><path d="M258.61,253.116a1.407,1.407,0,0,0,0,2.812A1.407,1.407,0,0,0,258.61,253.116Z" fill="#d3d3d3"/><path d="M261.769,253.691a1.407,1.407,0,0,0,0,2.812A1.407,1.407,0,0,0,261.769,253.691Z" fill="#d3d3d3"/><path d="M264.641,254.408a1.407,1.407,0,0,0,0,2.812A1.407,1.407,0,0,0,264.641,254.408Z" fill="#d3d3d3"/><path d="M267.944,255.126a1.407,1.407,0,0,0,0,2.812A1.407,1.407,0,0,0,267.944,255.126Z" fill="#d3d3d3"/><path d="M270.959,255.557a1.407,1.407,0,0,0,0,2.812A1.407,1.407,0,0,0,270.959,255.557Z" fill="#d3d3d3"/><path d="M273.975,257.107c-1.81,0-1.813,1.837,0,1.837S275.787,257.107,273.975,257.107Z" fill="#d3d3d3"/><path d="M277.277,256.562a1.407,1.407,0,0,0,0,2.812A1.407,1.407,0,0,0,277.277,256.562Z" fill="#d3d3d3"/><path d="M280.58,256.993a1.407,1.407,0,0,0,0,2.812A1.407,1.407,0,0,0,280.58,256.993Z" fill="#d3d3d3"/><path d="M283.452,257.28a1.407,1.407,0,0,0,0,2.812A1.407,1.407,0,0,0,283.452,257.28Z" fill="#d3d3d3"/><path d="M286.611,257.711a1.407,1.407,0,0,0,0,2.812A1.407,1.407,0,0,0,286.611,257.711Z" fill="#d3d3d3"/><path d="M289.913,257.711a1.407,1.407,0,0,0,0,2.812A1.407,1.407,0,0,0,289.913,257.711Z" fill="#d3d3d3"/><path d="M293.072,257.711a1.407,1.407,0,0,0,0,2.812A1.407,1.407,0,0,0,293.072,257.711Z" fill="#d3d3d3"/><path d="M296.088,258a1.407,1.407,0,0,0,0,2.812A1.407,1.407,0,0,0,296.088,258Z" fill="#d3d3d3"/><path d="M299.39,257.855a1.407,1.407,0,0,0,0,2.812A1.407,1.407,0,0,0,299.39,257.855Z" fill="#d3d3d3"/><path d="M302.406,258a1.407,1.407,0,0,0,0,2.812A1.407,1.407,0,0,0,302.406,258Z" fill="#d3d3d3"/><path d="M305.708,257.855a1.407,1.407,0,0,0,0,2.812A1.407,1.407,0,0,0,305.708,257.855Z" fill="#d3d3d3"/><path d="M308.867,257.711a1.407,1.407,0,0,0,0,2.812A1.407,1.407,0,0,0,308.867,257.711Z" fill="#d3d3d3"/><path d="M312.314,257.711a1.407,1.407,0,0,0,0,2.812A1.407,1.407,0,0,0,312.314,257.711Z" fill="#d3d3d3"/><path d="M315.473,257.567a1.407,1.407,0,0,0,0,2.812A1.407,1.407,0,0,0,315.473,257.567Z" fill="#d3d3d3"/><path d="M318.919,257.137a1.407,1.407,0,0,0,0,2.812A1.407,1.407,0,0,0,318.919,257.137Z" fill="#d3d3d3"/><path d="M321.934,256.993a1.407,1.407,0,0,0,0,2.812A1.407,1.407,0,0,0,321.934,256.993Z" fill="#d3d3d3"/><path d="M324.95,256.323a1.407,1.407,0,0,0,0,2.812A1.407,1.407,0,0,0,324.95,256.323Z" fill="#d3d3d3"/><path d="M327.821,255.749a1.407,1.407,0,0,0,0,2.812A1.407,1.407,0,0,0,327.821,255.749Z" fill="#d3d3d3"/><path d="M330.693,255.174a1.407,1.407,0,0,0,0,2.812A1.407,1.407,0,0,0,330.693,255.174Z" fill="#d3d3d3"/><path d="M333.757,254.6a1.407,1.407,0,0,0,0,2.812A1.407,1.407,0,0,0,333.757,254.6Z" fill="#d3d3d3"/><path d="M336.82,253.834a1.407,1.407,0,0,0,0,2.812A1.407,1.407,0,0,0,336.82,253.834Z" fill="#d3d3d3"/><path d="M339.883,253.068a1.407,1.407,0,0,0,0,2.812A1.407,1.407,0,0,0,339.883,253.068Z" fill="#d3d3d3"/><path d="M342.946,252.111a1.407,1.407,0,0,0,0,2.812A1.407,1.407,0,0,0,342.946,252.111Z" fill="#d3d3d3"/><path d="M346.2,251.154a1.407,1.407,0,0,0,0,2.812A1.407,1.407,0,0,0,346.2,251.154Z" fill="#d3d3d3"/><path d="M349.456,250.2a1.407,1.407,0,0,0,0,2.812A1.407,1.407,0,0,0,349.456,250.2Z" fill="#d3d3d3"/><path d="M352.711,248.665a1.407,1.407,0,0,0,0,2.812A1.407,1.407,0,0,0,352.711,248.665Z" fill="#d3d3d3"/><path d="M356.157,247.516a1.407,1.407,0,0,0,0,2.812A1.407,1.407,0,0,0,356.157,247.516Z" fill="#d3d3d3"/><path d="M359.22,246.367a1.407,1.407,0,0,0,0,2.812A1.407,1.407,0,0,0,359.22,246.367Z" fill="#d3d3d3"/><path d="M362.666,244.644a1.407,1.407,0,0,0,0,2.812A1.407,1.407,0,0,0,362.666,244.644Z" fill="#d3d3d3"/><path d="M365.73,242.921a1.407,1.407,0,0,0,0,2.812A1.407,1.407,0,0,0,365.73,242.921Z" fill="#d3d3d3"/><path d="M368.218,241.2a1.407,1.407,0,0,0,0,2.812A1.407,1.407,0,0,0,368.218,241.2Z" fill="#d3d3d3"/><path d="M370.9,239.284a1.407,1.407,0,0,0,0,2.812A1.407,1.407,0,0,0,370.9,239.284Z" fill="#d3d3d3"/><path d="M374.154,237.369a1.407,1.407,0,0,0,0,2.812A1.407,1.407,0,0,0,374.154,237.369Z" fill="#d3d3d3"/><path d="M376.834,235.454a1.407,1.407,0,0,0,0,2.812A1.407,1.407,0,0,0,376.834,235.454Z" fill="#d3d3d3"/><path d="M379.131,233.348a1.407,1.407,0,0,0,0,2.812A1.407,1.407,0,0,0,379.131,233.348Z" fill="#d3d3d3"/><path d="M381.62,231.434a1.407,1.407,0,0,0,0,2.812A1.407,1.407,0,0,0,381.62,231.434Z" fill="#d3d3d3"/><path d="M384.3,228.945a1.407,1.407,0,0,0,0,2.812A1.407,1.407,0,0,0,384.3,228.945Z" fill="#d3d3d3"/><path d="M386.6,227.03a1.407,1.407,0,0,0,0,2.812A1.407,1.407,0,0,0,386.6,227.03Z" fill="#d3d3d3"/><path d="M388.9,224.159a1.407,1.407,0,0,0,0,2.812A1.407,1.407,0,0,0,388.9,224.159Z" fill="#d3d3d3"/><path d="M391.193,221.287a1.407,1.407,0,0,0,0,2.812A1.407,1.407,0,0,0,391.193,221.287Z" fill="#d3d3d3"/><path d="M110.137,421.806s122.914,59.734,288.906,0" fill="#6f2c0d"/><path d="M362.07,289.846a6.768,6.768,0,0,0-6.748-6.749h-203.5a6.769,6.769,0,0,0-6.749,6.749v32.021h217Z" fill="#cd8c19"/><path d="M145.075,321.867v93.19a6.769,6.769,0,0,0,6.749,6.749h203.5a6.768,6.768,0,0,0,6.748-6.749v-93.19Z" fill="#fcb01b"/></g></svg>