<svg xmlns="http://www.w3.org/2000/svg" xmlns:xlink="http://www.w3.org/1999/xlink" viewBox="0 0 285.59 336.69"><g id="Layer_2" data-name="Layer 2"><g id="Laag_1" data-name="Laag 1"><rect class="cls-2" x="8.71" y="34.5" width="272.39" height="262.18"/><path class="cls-3" d="M79.36,61.54c0,.1,1.41,9.55,1.71,15.61a14,14,0,0,1-.24,3.92c-.16.64-.31,1.28-.44,1.91.36-.19.83-.1,1.23,1,.78,2.24,1,47.15-.28,49.2-1.15,1.87-2.1,1.89-2.48-.65l-.06,6.13a1.5,1.5,0,0,0,1.48,1.52h.91a1.64,1.64,0,0,0,1.65-1.62l.49-46.11a45.72,45.72,0,0,1,1.42-10.46A18.18,18.18,0,0,0,85.1,77c-.18-3.74-.75-8.58-1.18-12a4,4,0,0,0-4.56-3.45Z"/><path class="cls-4" d="M75.23,76.15s4.66.68,6.36-2.78c0,0,1.59-6.36-.35-10.3,0,0-2.63-3.1-5.38-2.32Z"/><ellipse class="cls-5" cx="75.44" cy="68.46" rx="7.68" ry="1.5" transform="translate(3.61 140.69) rotate(-87.38)"/><path class="cls-6" d="M80.39,83c-.26,1.22-.48,2.44-.65,3.64a47.38,47.38,0,0,0-.45,5.85L79.23,98c.51-.51,1-.76,1.17-.62.43.26,0,1.8-1,3.43a2.61,2.61,0,0,1-.17.28l-.11,10.11c.49-.49.91-.72,1.13-.59.43.26,0,1.8-1,3.44l-.13.21L79,121.76c.64-.75,1.23-1.15,1.5-1,.43.26,0,1.8-1,3.43-.16.27-.33.53-.5.77l-.09,7.6c.38,2.54,1.33,2.52,2.48.65,1.24-2,1.06-47,.28-49.2C81.22,82.88,80.75,82.79,80.39,83Z"/><path class="cls-3" d="M80.48,120.78c-.27-.17-.86.23-1.5,1V123L79,125c.17-.24.34-.5.5-.77C80.45,122.58,80.91,121,80.48,120.78Z"/><path class="cls-3" d="M80.22,110.59c-.22-.13-.64.1-1.13.59l0,3.06.13-.21C80.19,112.39,80.65,110.85,80.22,110.59Z"/><path class="cls-3" d="M80.4,97.36c-.22-.14-.66.11-1.17.62l0,3.09a2.61,2.61,0,0,0,.17-.28C80.37,99.16,80.83,97.62,80.4,97.36Z"/><ellipse class="cls-4" cx="74.39" cy="73.45" rx="0.19" ry="0.61" transform="translate(-3.09 3.27) rotate(-2.46)"/><ellipse class="cls-4" cx="74.82" cy="73.38" rx="0.19" ry="0.61" transform="translate(-3.08 3.28) rotate(-2.46)"/><ellipse class="cls-4" cx="75.27" cy="73.19" rx="0.19" ry="0.61" transform="translate(-3.08 3.3) rotate(-2.46)"/><ellipse class="cls-4" cx="75.77" cy="73.05" rx="0.19" ry="0.61" transform="translate(-3.07 3.32) rotate(-2.46)"/><ellipse class="cls-4" cx="76.22" cy="72.93" rx="0.61" ry="0.19" transform="translate(-7.39 137.25) rotate(-81.31)"/><ellipse class="cls-4" cx="74.31" cy="72.07" rx="0.19" ry="0.61" transform="translate(-3.03 3.26) rotate(-2.46)"/><ellipse class="cls-4" cx="74.73" cy="72" rx="0.19" ry="0.61" transform="translate(-3.03 3.28) rotate(-2.46)"/><ellipse class="cls-4" cx="75.19" cy="71.82" rx="0.19" ry="0.61" transform="translate(-3.02 3.3) rotate(-2.46)"/><ellipse class="cls-4" cx="75.68" cy="71.68" rx="0.19" ry="0.61" transform="translate(-3.01 3.32) rotate(-2.46)"/><ellipse class="cls-4" cx="76.14" cy="71.56" rx="0.61" ry="0.19" transform="translate(-6.11 136.01) rotate(-81.31)"/><ellipse class="cls-4" cx="74.4" cy="70.63" rx="0.19" ry="0.61" transform="translate(-2.97 3.26) rotate(-2.46)"/><ellipse class="cls-4" cx="74.83" cy="70.56" rx="0.19" ry="0.61" transform="translate(-2.96 3.28) rotate(-2.46)"/><ellipse class="cls-4" cx="75.28" cy="70.38" rx="0.19" ry="0.61" transform="translate(-2.96 3.3) rotate(-2.46)"/><ellipse class="cls-4" cx="75.78" cy="70.23" rx="0.19" ry="0.61" transform="translate(-2.95 3.32) rotate(-2.46)"/><ellipse class="cls-4" cx="76.23" cy="70.11" rx="0.61" ry="0.19" transform="translate(-4.6 134.87) rotate(-81.31)"/><ellipse class="cls-4" cx="74.36" cy="69.24" rx="0.19" ry="0.61" transform="translate(-2.91 3.26) rotate(-2.46)"/><ellipse class="cls-4" cx="74.78" cy="69.17" rx="0.19" ry="0.61" transform="translate(-2.9 3.28) rotate(-2.46)"/><ellipse class="cls-4" cx="75.24" cy="68.99" rx="0.19" ry="0.61" transform="translate(-2.9 3.3) rotate(-2.46)"/><ellipse class="cls-4" cx="75.73" cy="68.84" rx="0.19" ry="0.61" transform="translate(-2.89 3.32) rotate(-2.46)"/><ellipse class="cls-4" cx="76.19" cy="68.73" rx="0.61" ry="0.19" transform="translate(-3.26 133.65) rotate(-81.31)"/><ellipse class="cls-4" cx="74.42" cy="67.88" rx="0.19" ry="0.61" transform="translate(-2.85 3.26) rotate(-2.46)"/><ellipse class="cls-4" cx="74.85" cy="67.81" rx="0.19" ry="0.61" transform="translate(-2.85 3.28) rotate(-2.46)"/><ellipse class="cls-4" cx="75.3" cy="67.63" rx="0.19" ry="0.61" transform="translate(-2.84 3.3) rotate(-2.46)"/><ellipse class="cls-4" cx="75.8" cy="67.48" rx="0.19" ry="0.61" transform="translate(-2.83 3.32) rotate(-2.46)"/><ellipse class="cls-4" cx="76.25" cy="67.36" rx="0.61" ry="0.19" transform="translate(-1.86 132.56) rotate(-81.31)"/><ellipse class="cls-4" cx="74.46" cy="66.46" rx="0.19" ry="0.61" transform="translate(-2.79 3.26) rotate(-2.46)"/><ellipse class="cls-4" cx="74.88" cy="66.39" rx="0.19" ry="0.61" transform="translate(-2.78 3.28) rotate(-2.46)"/><ellipse class="cls-4" cx="75.34" cy="66.21" rx="0.19" ry="0.61" transform="translate(-2.78 3.3) rotate(-2.46)"/><ellipse class="cls-4" cx="75.83" cy="66.06" rx="0.19" ry="0.61" transform="translate(-2.77 3.32) rotate(-2.46)"/><ellipse class="cls-4" cx="76.29" cy="65.94" rx="0.61" ry="0.19" transform="translate(-0.43 131.39) rotate(-81.31)"/><ellipse class="cls-4" cx="74.71" cy="65.01" rx="0.19" ry="0.61" transform="translate(-2.73 3.27) rotate(-2.46)"/><ellipse class="cls-4" cx="75.13" cy="64.94" rx="0.19" ry="0.61" transform="translate(-2.72 3.29) rotate(-2.46)"/><ellipse class="cls-4" cx="75.59" cy="64.76" rx="0.19" ry="0.61" transform="translate(-2.71 3.31) rotate(-2.46)"/><ellipse class="cls-4" cx="76.08" cy="64.62" rx="0.19" ry="0.61" transform="translate(-2.71 3.33) rotate(-2.46)"/><ellipse class="cls-4" cx="76.54" cy="64.5" rx="0.61" ry="0.19" transform="translate(1.21 130.41) rotate(-81.31)"/><ellipse class="cls-4" cx="74.75" cy="63.78" rx="0.16" ry="0.53" transform="translate(-2.67 3.27) rotate(-2.46)"/><ellipse class="cls-4" cx="75.12" cy="63.72" rx="0.16" ry="0.53" transform="translate(-2.67 3.29) rotate(-2.46)"/><ellipse class="cls-4" cx="75.51" cy="63.56" rx="0.16" ry="0.53" transform="translate(-2.66 3.3) rotate(-2.46)"/><ellipse class="cls-4" cx="75.94" cy="63.43" rx="0.16" ry="0.53" transform="translate(-2.66 3.32) rotate(-2.46)"/><ellipse class="cls-4" cx="76.34" cy="63.33" rx="0.53" ry="0.16" transform="matrix(0.15, -0.99, 0.99, 0.15, 2.2, 129.22)"/><ellipse class="cls-4" cx="74.96" cy="62.55" rx="0.16" ry="0.53" transform="translate(-2.62 3.28) rotate(-2.46)"/><ellipse class="cls-4" cx="75.33" cy="62.49" rx="0.16" ry="0.53" transform="translate(-2.62 3.3) rotate(-2.46)"/><ellipse class="cls-4" cx="75.72" cy="62.33" rx="0.16" ry="0.53" transform="translate(-2.61 3.31) rotate(-2.46)"/><ellipse class="cls-4" cx="76.15" cy="62.2" rx="0.16" ry="0.53" transform="translate(-2.6 3.33) rotate(-2.46)"/><ellipse class="cls-4" cx="75.51" cy="61.42" rx="0.13" ry="0.43" transform="translate(-2.57 3.3) rotate(-2.46)"/><ellipse class="cls-4" cx="75.86" cy="61.32" rx="0.13" ry="0.43" transform="translate(-2.57 3.32) rotate(-2.46)"/><ellipse class="cls-4" cx="74.58" cy="74.69" rx="0.17" ry="0.54" transform="translate(-3.14 3.27) rotate(-2.46)"/><ellipse class="cls-4" cx="74.96" cy="74.63" rx="0.17" ry="0.54" transform="translate(-3.14 3.29) rotate(-2.46)"/><ellipse class="cls-4" cx="75.36" cy="74.46" rx="0.17" ry="0.54" transform="translate(-3.13 3.31) rotate(-2.46)"/><ellipse class="cls-4" cx="75.81" cy="74.33" rx="0.17" ry="0.54" transform="matrix(1, -0.04, 0.04, 1, -3.12, 3.33)"/><ellipse class="cls-4" cx="74.85" cy="75.58" rx="0.13" ry="0.41" transform="translate(-3.18 3.29) rotate(-2.46)"/><ellipse class="cls-4" cx="75.25" cy="75.47" rx="0.13" ry="0.42" transform="translate(-3.17 3.3) rotate(-2.46)"/><ellipse class="cls-4" cx="75.6" cy="75.25" rx="0.13" ry="0.42" transform="matrix(1, -0.04, 0.04, 1, -3.16, 3.32)"/><polygon class="cls-7" points="76.57 72.17 81.82 72.59 81.83 72.27 76.57 72.17"/><polygon class="cls-7" points="76.92 68.33 82.17 68.74 82.17 68.43 76.92 68.33"/><polygon class="cls-7" points="76.44 63.9 81.69 64.23 81.6 63.94 76.44 63.9"/><polygon class="cls-7" points="76.58 62.2 80.58 62.38 80.34 62.16 76.58 62.2"/><polygon class="cls-7" points="80.47 74.76 76.02 74.6 80.75 74.64 80.47 74.76"/><polygon class="cls-7" points="82.04 70.7 76.8 70.12 82.07 70.5 82.04 70.7"/><polygon class="cls-7" points="82.14 66.66 76.91 66.08 82.14 66.5 82.14 66.66"/><path class="cls-8" d="M197.29,79.24h38.85A21.72,21.72,0,0,1,257.86,101V137.5a21.72,21.72,0,0,1-21.72,21.72H197.29a0,0,0,0,1,0,0v-80A0,0,0,0,1,197.29,79.24Z"/><path class="cls-9" d="M195,78.5h38.85a21.72,21.72,0,0,1,21.72,21.72V137.3A21.72,21.72,0,0,1,233.81,159H195a0,0,0,0,1,0,0V78.5A0,0,0,0,1,195,78.5Z"/><ellipse class="cls-10" cx="194.61" cy="83.28" rx="4.31" ry="1.17"/><ellipse class="cls-10" cx="194.96" cy="90.31" rx="4.31" ry="1.17"/><ellipse class="cls-10" cx="194.78" cy="97.34" rx="4.31" ry="1.17"/><ellipse class="cls-10" cx="195.13" cy="104.38" rx="4.31" ry="1.17"/><ellipse class="cls-10" cx="194.87" cy="111.41" rx="4.31" ry="1.17"/><ellipse class="cls-10" cx="195.22" cy="118.44" rx="4.31" ry="1.17"/><ellipse class="cls-10" cx="195.05" cy="125.48" rx="4.31" ry="1.17"/><ellipse class="cls-10" cx="195.4" cy="132.51" rx="4.31" ry="1.17"/><ellipse class="cls-10" cx="195" cy="139.54" rx="4.31" ry="1.17"/><ellipse class="cls-10" cx="195.35" cy="146.57" rx="4.31" ry="1.17"/><ellipse class="cls-10" cx="195.18" cy="153.61" rx="4.31" ry="1.17"/><path class="cls-11" d="M78.41,103.41c-1.6-1.28-3.48-2.69-5.53-4.07l.21,15.6c2,1.34,3.78,2.69,5.32,3.92Z"/><path class="cls-12" d="M73.53,119.09l-.2-16.84C72.68,106.44,68,115.5,55.49,111c-13.73-5-14.68-13.37-14.75-14.51,0,1.16.39,9.92.8,20.25C49.43,123.41,62.39,130.61,73.53,119.09Z"/><path class="cls-13" d="M73.31,100.57l0,1.68A3.61,3.61,0,0,0,73.31,100.57Z"/><path class="cls-13" d="M40.74,96.47v-.13S40.73,96.38,40.74,96.47Z"/><path class="cls-13" d="M73.69,133.38l-.16-14.29c-11.14,11.52-24.1,4.32-32-2.37.17,4.42.36,9.13.55,13.65C49.84,137,62.61,144.22,73.69,133.38Z"/><path class="cls-12" d="M73.85,147.83l-.16-14.45c-11.08,10.84-23.85,3.61-31.6-3,.18,4.58.37,9,.52,12.66C50,149.57,62.65,157.42,73.85,147.83Z"/><path class="cls-13" d="M73.87,149.22l0-1.39c-11.2,9.59-23.85,1.74-31.24-4.8.26,5.87.45,10,.51,10.5.22,1.82,4.2,9.31,17.36,9.65S73.87,149.22,73.87,149.22Z"/><path class="cls-14" d="M70.71,108.17c2-2.44,3.05-6,2.14-10.81-2.34-12.25-17.36-6.47-17.36-6.47V102C66.07,99.29,69.6,103.88,70.71,108.17Z"/><path class="cls-15" d="M70.71,108.17c-1.11-4.29-4.64-8.88-15.22-6.22v9C60.58,113.2,67.18,112.38,70.71,108.17Z"/><path class="cls-1" d="M55.49,91.75v15.46c6,.76,12.41,4.2,17.6,7.73l-.21-15.6C67.72,95.86,61.42,92.51,55.49,91.75Z"/><path class="cls-1" d="M55.49,90.89v.86c5.93.76,12.23,4.11,17.39,7.59l0-2S66.72,86.35,55.49,90.89Z"/><path class="cls-16" d="M55.49,91.75v-.86c11.23-4.54,17.36,6.47,17.36,6.47l0,2c2.05,1.38,3.93,4.69,5.53,6V93.05A32.89,32.89,0,0,0,63.77,81c-10.1-4.31-16.45.11-18.72,1.81s-4.7,3.79-4.32,13.51a11.38,11.38,0,0,0,.3,2.14C44.7,92.61,49.93,91,55.49,91.75Z"/><path class="cls-11" d="M48.56,107.73A31.72,31.72,0,0,0,55.49,111v-3.77A15.77,15.77,0,0,0,48.56,107.73Z"/><path class="cls-16" d="M78.41,118.86c-1.54-1.23-3.34-2.58-5.32-3.92l.21,14.68c1.87,1.25,3.6,2.52,5.11,3.7Z"/><path class="cls-11" d="M41,98.48c1,4.18,4.33,7.22,7.53,9.25a15.77,15.77,0,0,1,6.93-.52V91.75C49.93,91,44.7,92.61,41,98.48Z"/><path class="cls-11" d="M78.41,151.49V133.32c-1.51-1.18-3.24-2.45-5.11-3.7L73.53,146C76,145.25,78.41,151.49,78.41,151.49Z"/><path class="cls-17" d="M153.85,79a23.47,23.47,0,0,1-11.91,5.46c-7.38,1.1-8.64,14.63-19.26,12.73S91.29,119,101.25,123.63s5,14.73,16.65,9.28,16.58-20.45,20.25-21.35,12.23-.16,17.59-2.43a80.37,80.37,0,0,1,13-3.78Z"/><ellipse class="cls-18" cx="177.05" cy="84.25" rx="2.51" ry="16.35" transform="translate(-18.19 102.31) rotate(-30.73)"/><path class="cls-18" d="M168.69,70.19,153.85,79s4.44,21.59,14.93,26.34l16.63-7S168,82.48,168.69,70.19Z"/><g class="cls-19"><circle class="cls-20" cx="149.82" cy="86.13" r="3.7"/><circle class="cls-20" cx="153.39" cy="97.13" r="3.81"/><circle class="cls-20" cx="160.07" cy="104.79" r="2.98"/><circle class="cls-20" cx="118" cy="100.87" r="3.7"/><circle class="cls-20" cx="122.33" cy="110.25" r="3.81"/><circle class="cls-20" cx="128.25" cy="119.53" r="2.98"/><circle class="cls-20" cx="141.83" cy="94.35" r="3.7"/><circle class="cls-20" cx="146.27" cy="104.83" r="3.81"/><circle class="cls-20" cx="112.78" cy="110.23" r="3.7"/><circle class="cls-20" cx="119.66" cy="120.65" r="3.81"/><circle class="cls-20" cx="135.63" cy="103.26" r="2.98"/><circle class="cls-20" cx="131.2" cy="93.73" r="2.98"/><circle class="cls-20" cx="139.88" cy="112.1" r="2.98"/><circle class="cls-20" cx="126.32" cy="101.38" r="2.98"/><circle class="cls-20" cx="131.63" cy="111.25" r="2.98"/><circle class="cls-20" cx="110.24" cy="120.5" r="2.98"/><circle class="cls-20" cx="104.11" cy="111.12" r="2.98"/><circle class="cls-20" cx="115.56" cy="130.38" r="2.98"/></g><rect class="cls-21" x="151.21" y="97.39" width="34.56" height="69.03" rx="12"/><rect class="cls-22" x="153.45" y="103.85" width="29.85" height="53.22" rx="12"/><circle class="cls-22" cx="168.38" cy="161.65" r="2.99"/><path class="cls-16" d="M109.69,110.26c6.64,0,12.19-2.9,13.56-6.77l-2.4-2c0,2.15-5.38,5.26-11.84,5.62s-11.35-5.26-11.35-5.26l-1.52,1.66C97.5,107.36,103.05,110.26,109.69,110.26Z"/><path class="cls-23" d="M141.43,111.71a13.05,13.05,0,0,0-.75-1.55l-.05-.11h0a13.12,13.12,0,0,0-11.36-6.56h-6L121.92,108l-11.47,3.47-13.87-3.94-.44-4.08H89.25a13.1,13.1,0,0,0-12.6,9.5l-.85,1.82h67.12Z"/><path class="cls-23" d="M110.45,111.51,121.92,108l1.33-4.55c-1.37,3.87-6.92,6.77-13.56,6.77s-12.19-2.9-13.55-6.77l.44,4.08Z"/><path class="cls-23" d="M75.8,114.81s-12.43,22.53,0,30.95Z"/><path class="cls-23" d="M142.92,114.81s12.44,22.53,0,30.95Z"/><path class="cls-23" d="M142.92,114.81H75.8v29.25a10.14,10.14,0,0,0,10.13,10.13h5.29v-25.5h13v23.16h23.15v2.34h5.46a10.14,10.14,0,0,0,10.13-10.13Z"/><polygon class="cls-16" points="104.18 151.85 104.18 128.69 91.22 128.69 91.22 154.19 127.33 154.19 127.33 151.85 104.18 151.85"/><path class="cls-24" d="M244.43,11.23H41.16A41.16,41.16,0,0,0,0,52.39V310.44H285.59v-258A41.16,41.16,0,0,0,244.43,11.23Zm-55.79,138c-74,.59-128.78-48.36-152.93-50.11-11.85-.86-19.14,1.57-23.49,4.26a75.25,75.25,0,0,1,68.69-44.5H207a75.27,75.27,0,0,1,71.74,52.51C271.77,121.9,248.23,148.81,188.64,149.27Z"/><path class="cls-25" d="M278.69,112c-6.92,10.47-30.46,37.37-90.05,37.84-74,.58-128.78-48.37-152.93-50.11-11.85-.86-19.14,1.56-23.49,4.26a75,75,0,0,0-6.54,30.73V310.44h276.5V134.72A75.14,75.14,0,0,0,278.69,112Z"/><path class="cls-26" d="M247.74,175.55l13.66-7.7s-3.24,67.65-2.67,98,.46,40.3.46,40.3l-13.55,3.63Z"/><polygon class="cls-24" points="22.6 167.85 261.4 167.85 247.74 175.55 36.26 175.55 22.6 167.85"/><path class="cls-25" d="M88,18.41V29.76s55.92-38.13,111.85,0l-4.55-12.11S145.46-22.56,88,18.41Z"/><path class="cls-26" d="M88,29.76h5.67s49.4-31.62,102,0h4.17S152.92-10.37,88,29.76Z"/><path class="cls-27" d="M13.48,101.53a1.39,1.39,0,0,0,0,2.78A1.39,1.39,0,0,0,13.48,101.53Z"/><path class="cls-27" d="M16.18,100.54a1.39,1.39,0,0,0,0,2.78A1.39,1.39,0,0,0,16.18,100.54Z"/><path class="cls-27" d="M21.58,98.69a1.27,1.27,0,0,0-1.3,1,1.25,1.25,0,0,0-1.12-.59,1.39,1.39,0,0,0,0,2.78,1.28,1.28,0,0,0,1.3-1,1.25,1.25,0,0,0,1.12.59A1.39,1.39,0,0,0,21.58,98.69Z"/><path class="cls-27" d="M26.83,98a1.26,1.26,0,0,0-1.27.92,1.25,1.25,0,0,0-1.15-.63,1.39,1.39,0,0,0,0,2.78,1.26,1.26,0,0,0,1.27-.92,1.25,1.25,0,0,0,1.15.63A1.39,1.39,0,0,0,26.83,98Z"/><path class="cls-27" d="M32.36,97.84a1.25,1.25,0,0,0-1.2.76A1.25,1.25,0,0,0,30,97.84a1.39,1.39,0,0,0,0,2.78,1.26,1.26,0,0,0,1.21-.76,1.25,1.25,0,0,0,1.2.76A1.39,1.39,0,0,0,32.36,97.84Z"/><path class="cls-27" d="M35.06,98a1.39,1.39,0,0,0,0,2.78A1.39,1.39,0,0,0,35.06,98Z"/><path class="cls-27" d="M40.6,98.83a1.27,1.27,0,0,0-1.22.79A1.31,1.31,0,0,0,38,98.27a1.39,1.39,0,0,0,0,2.78,1.27,1.27,0,0,0,1.22-.79,1.3,1.3,0,0,0,1.34,1.35A1.39,1.39,0,0,0,40.6,98.83Z"/><path class="cls-27" d="M43.43,99.4a1.39,1.39,0,0,0,0,2.78A1.39,1.39,0,0,0,43.43,99.4Z"/><path class="cls-27" d="M46.13,100.4a1.39,1.39,0,0,0,0,2.78A1.39,1.39,0,0,0,46.13,100.4Z"/><path class="cls-27" d="M48.69,101.67a1.39,1.39,0,0,0,0,2.78A1.39,1.39,0,0,0,48.69,101.67Z"/><path class="cls-27" d="M51.24,102.81a1.39,1.39,0,0,0,0,2.78A1.39,1.39,0,0,0,51.24,102.81Z"/><path class="cls-27" d="M58.34,106.64a1.27,1.27,0,0,0-1,.39,1.35,1.35,0,0,0-1.32-1.67,1.28,1.28,0,0,0-1.11.58,1.35,1.35,0,0,0-1.31-1.71,1.39,1.39,0,0,0,0,2.78,1.24,1.24,0,0,0,1.11-.58,1.35,1.35,0,0,0,1.31,1.71,1.28,1.28,0,0,0,1-.38,1.35,1.35,0,0,0,1.32,1.66A1.39,1.39,0,0,0,58.34,106.64Z"/><path class="cls-27" d="M60.89,107.78a1.39,1.39,0,0,0,0,2.78A1.39,1.39,0,0,0,60.89,107.78Z"/><path class="cls-27" d="M63.87,109.05a1.39,1.39,0,0,0,0,2.78A1.39,1.39,0,0,0,63.87,109.05Z"/><path class="cls-27" d="M66.43,110.62a1.39,1.39,0,0,0,0,2.78A1.39,1.39,0,0,0,66.43,110.62Z"/><path class="cls-27" d="M69.41,112.18a1.39,1.39,0,0,0,0,2.78A1.39,1.39,0,0,0,69.41,112.18Z"/><path class="cls-27" d="M72.39,113.31a1.39,1.39,0,0,0,0,2.78A1.39,1.39,0,0,0,72.39,113.31Z"/><path class="cls-27" d="M75,115a1.39,1.39,0,0,0,0,2.78A1.39,1.39,0,0,0,75,115Z"/><path class="cls-27" d="M77.64,116.58a1.39,1.39,0,0,0,0,2.78A1.39,1.39,0,0,0,77.64,116.58Z"/><path class="cls-27" d="M80.48,118a1.39,1.39,0,0,0,0,2.78A1.39,1.39,0,0,0,80.48,118Z"/><path class="cls-27" d="M83.46,119.42a1.39,1.39,0,0,0,0,2.78A1.39,1.39,0,0,0,83.46,119.42Z"/><path class="cls-27" d="M86.16,120.84a1.39,1.39,0,0,0,0,2.78A1.39,1.39,0,0,0,86.16,120.84Z"/><path class="cls-27" d="M89.14,122.26a1.39,1.39,0,0,0,0,2.78A1.39,1.39,0,0,0,89.14,122.26Z"/><path class="cls-27" d="M92,123.82a1.39,1.39,0,0,0,0,2.78A1.39,1.39,0,0,0,92,123.82Z"/><path class="cls-27" d="M94.68,124.81a1.39,1.39,0,0,0,0,2.78A1.39,1.39,0,0,0,94.68,124.81Z"/><path class="cls-27" d="M97.37,125.66a1.39,1.39,0,0,0,0,2.78A1.39,1.39,0,0,0,97.37,125.66Z"/><path class="cls-27" d="M99.93,127.22a1.39,1.39,0,0,0,0,2.78A1.39,1.39,0,0,0,99.93,127.22Z"/><path class="cls-27" d="M102.48,128.64a1.39,1.39,0,0,0,0,2.78A1.39,1.39,0,0,0,102.48,128.64Z"/><path class="cls-27" d="M105.46,129.64a1.39,1.39,0,0,0,0,2.78A1.39,1.39,0,0,0,105.46,129.64Z"/><path class="cls-27" d="M108,130.77a1.39,1.39,0,0,0,0,2.78A1.39,1.39,0,0,0,108,130.77Z"/><path class="cls-27" d="M113.27,132.76a1.27,1.27,0,0,0-1.25.86,1.35,1.35,0,0,0-1.3-1.71,1.39,1.39,0,0,0,0,2.78,1.25,1.25,0,0,0,1.24-.86,1.36,1.36,0,0,0,1.31,1.71A1.39,1.39,0,0,0,113.27,132.76Z"/><path class="cls-27" d="M116.11,134.18a1.39,1.39,0,0,0,0,2.78A1.39,1.39,0,0,0,116.11,134.18Z"/><path class="cls-27" d="M121.36,135.6a1.26,1.26,0,0,0-1.22.8,1.33,1.33,0,0,0-1.33-1.51,1.39,1.39,0,0,0,0,2.78,1.26,1.26,0,0,0,1.22-.8,1.32,1.32,0,0,0,1.33,1.51A1.39,1.39,0,0,0,121.36,135.6Z"/><path class="cls-27" d="M124.2,137a1.39,1.39,0,0,0,0,2.78A1.39,1.39,0,0,0,124.2,137Z"/><path class="cls-27" d="M127,138.15a1.39,1.39,0,0,0,0,2.78A1.39,1.39,0,0,0,127,138.15Z"/><path class="cls-27" d="M130.16,139.29a1.39,1.39,0,0,0,0,2.78A1.39,1.39,0,0,0,130.16,139.29Z"/><path class="cls-27" d="M135.56,140.71a1.27,1.27,0,0,0-1.23.8A1.31,1.31,0,0,0,133,140a1.39,1.39,0,0,0,0,2.78,1.25,1.25,0,0,0,1.22-.8,1.33,1.33,0,0,0,1.34,1.51A1.39,1.39,0,0,0,135.56,140.71Z"/><path class="cls-27" d="M138.25,141.7a1.39,1.39,0,0,0,0,2.78A1.39,1.39,0,0,0,138.25,141.7Z"/><path class="cls-27" d="M141.09,142.55a1.39,1.39,0,0,0,0,2.78A1.39,1.39,0,0,0,141.09,142.55Z"/><path class="cls-27" d="M143.79,143.12a1.39,1.39,0,0,0,0,2.78A1.39,1.39,0,0,0,143.79,143.12Z"/><path class="cls-27" d="M146.77,143.69a1.39,1.39,0,0,0,0,2.78A1.39,1.39,0,0,0,146.77,143.69Z"/><path class="cls-27" d="M149.89,144.26a1.39,1.39,0,0,0,0,2.78A1.39,1.39,0,0,0,149.89,144.26Z"/><path class="cls-27" d="M152.73,145a1.39,1.39,0,0,0,0,2.78A1.39,1.39,0,0,0,152.73,145Z"/><path class="cls-27" d="M156,145.68a1.39,1.39,0,0,0,0,2.78A1.39,1.39,0,0,0,156,145.68Z"/><path class="cls-27" d="M159,146.1a1.39,1.39,0,0,0,0,2.78A1.39,1.39,0,0,0,159,146.1Z"/><path class="cls-27" d="M162,147.63c-1.79,0-1.79,1.82,0,1.82S163.75,147.63,162,147.63Z"/><path class="cls-27" d="M165.22,147.1a1.39,1.39,0,0,0,0,2.78A1.39,1.39,0,0,0,165.22,147.1Z"/><path class="cls-27" d="M168.49,147.52a1.39,1.39,0,0,0,0,2.78A1.39,1.39,0,0,0,168.49,147.52Z"/><path class="cls-27" d="M171.33,147.81a1.39,1.39,0,0,0,0,2.77A1.39,1.39,0,0,0,171.33,147.81Z"/><path class="cls-27" d="M174.45,148.23a1.39,1.39,0,0,0,0,2.78A1.39,1.39,0,0,0,174.45,148.23Z"/><path class="cls-27" d="M177.71,148.23a1.39,1.39,0,0,0,0,2.78A1.39,1.39,0,0,0,177.71,148.23Z"/><path class="cls-27" d="M180.84,148.23a1.39,1.39,0,0,0,0,2.78A1.39,1.39,0,0,0,180.84,148.23Z"/><path class="cls-27" d="M183.82,148.51a1.39,1.39,0,0,0,0,2.78A1.39,1.39,0,0,0,183.82,148.51Z"/><path class="cls-27" d="M187.08,148.37a1.39,1.39,0,0,0,0,2.78A1.39,1.39,0,0,0,187.08,148.37Z"/><path class="cls-27" d="M190.06,148.51a1.39,1.39,0,0,0,0,2.78A1.39,1.39,0,0,0,190.06,148.51Z"/><path class="cls-27" d="M193.33,148.37a1.39,1.39,0,0,0,0,2.78A1.39,1.39,0,0,0,193.33,148.37Z"/><path class="cls-27" d="M196.45,148.23a1.39,1.39,0,0,0,0,2.78A1.39,1.39,0,0,0,196.45,148.23Z"/><path class="cls-27" d="M199.86,148.23a1.39,1.39,0,0,0,0,2.78A1.39,1.39,0,0,0,199.86,148.23Z"/><path class="cls-27" d="M203,148.09a1.39,1.39,0,0,0,0,2.78A1.39,1.39,0,0,0,203,148.09Z"/><path class="cls-27" d="M206.39,147.66a1.39,1.39,0,0,0,0,2.78A1.39,1.39,0,0,0,206.39,147.66Z"/><path class="cls-27" d="M209.37,147.52a1.39,1.39,0,0,0,0,2.78A1.39,1.39,0,0,0,209.37,147.52Z"/><path class="cls-27" d="M212.35,146.86a1.39,1.39,0,0,0,0,2.78A1.39,1.39,0,0,0,212.35,146.86Z"/><path class="cls-27" d="M215.19,146.29a1.39,1.39,0,0,0,0,2.78A1.39,1.39,0,0,0,215.19,146.29Z"/><path class="cls-27" d="M218,145.72a1.39,1.39,0,0,0,0,2.78A1.39,1.39,0,0,0,218,145.72Z"/><path class="cls-27" d="M221.05,145.16a1.39,1.39,0,0,0,0,2.78A1.39,1.39,0,0,0,221.05,145.16Z"/><path class="cls-27" d="M224.08,144.4a1.39,1.39,0,0,0,0,2.78A1.39,1.39,0,0,0,224.08,144.4Z"/><path class="cls-27" d="M227.11,143.64a1.39,1.39,0,0,0,0,2.78A1.39,1.39,0,0,0,227.11,143.64Z"/><path class="cls-27" d="M230.14,142.7a1.39,1.39,0,0,0,0,2.77A1.39,1.39,0,0,0,230.14,142.7Z"/><path class="cls-27" d="M233.36,141.75a1.39,1.39,0,0,0,0,2.78A1.39,1.39,0,0,0,233.36,141.75Z"/><path class="cls-27" d="M236.57,140.8a1.39,1.39,0,0,0,0,2.78A1.39,1.39,0,0,0,236.57,140.8Z"/><path class="cls-27" d="M239.79,139.29a1.39,1.39,0,0,0,0,2.78A1.39,1.39,0,0,0,239.79,139.29Z"/><path class="cls-27" d="M243.2,138.15a1.39,1.39,0,0,0,0,2.78A1.39,1.39,0,0,0,243.2,138.15Z"/><path class="cls-27" d="M246.23,137a1.39,1.39,0,0,0,0,2.78A1.39,1.39,0,0,0,246.23,137Z"/><path class="cls-27" d="M249.63,135.31a1.39,1.39,0,0,0,0,2.78A1.39,1.39,0,0,0,249.63,135.31Z"/><path class="cls-27" d="M252.66,133.61a1.39,1.39,0,0,0,0,2.78A1.39,1.39,0,0,0,252.66,133.61Z"/><path class="cls-27" d="M255.12,131.91a1.39,1.39,0,0,0,0,2.78A1.39,1.39,0,0,0,255.12,131.91Z"/><path class="cls-27" d="M257.77,130a1.39,1.39,0,0,0,0,2.78A1.39,1.39,0,0,0,257.77,130Z"/><path class="cls-27" d="M261,128.12a1.39,1.39,0,0,0,0,2.78A1.39,1.39,0,0,0,261,128.12Z"/><path class="cls-27" d="M263.64,126.23a1.39,1.39,0,0,0,0,2.78A1.39,1.39,0,0,0,263.64,126.23Z"/><path class="cls-27" d="M265.91,124.15a1.39,1.39,0,0,0,0,2.78A1.39,1.39,0,0,0,265.91,124.15Z"/><path class="cls-27" d="M268.37,122.26a1.39,1.39,0,0,0,0,2.78A1.39,1.39,0,0,0,268.37,122.26Z"/><path class="cls-27" d="M271,119.79a1.39,1.39,0,0,0,0,2.78A1.39,1.39,0,0,0,271,119.79Z"/><path class="cls-27" d="M273.29,117.9a1.39,1.39,0,0,0,0,2.78A1.39,1.39,0,0,0,273.29,117.9Z"/><path class="cls-27" d="M275.56,115.06a1.39,1.39,0,0,0,0,2.78A1.39,1.39,0,0,0,275.56,115.06Z"/><path class="cls-27" d="M277.83,112.22a1.39,1.39,0,0,0,0,2.78A1.39,1.39,0,0,0,277.83,112.22Z"/><path class="cls-28" d="M0,310.44s121.5,59.05,285.59,0"/><path class="cls-29" d="M249,180a6.69,6.69,0,0,0-6.67-6.67H41.21A6.69,6.69,0,0,0,34.54,180v31.65H249Z"/><path class="cls-25" d="M34.54,211.65v92.12a6.69,6.69,0,0,0,6.67,6.67H242.37a6.69,6.69,0,0,0,6.67-6.67V211.65Z"/></g></g></svg>