<svg xmlns="http://www.w3.org/2000/svg" width="375" height="812" viewBox="0 0 375 812"><defs><clipPath id="a"><path d="M832.4,421.814l-2.184-1.188a2.387,2.387,0,0,1-1.132-1.869l2.183,1.188A2.391,2.391,0,0,0,832.4,421.814Z" fill="none"/></clipPath><clipPath id="b"><path d="M848.432,358.38l2.183,1.188a1.711,1.711,0,0,0-1.07-.191l-2.183-1.188A1.718,1.718,0,0,1,848.432,358.38Z" fill="none"/></clipPath><clipPath id="c"><path d="M824.688,366.081l-2.183-1.188c-.2-1.661.846-3.329,2.214-3.522l2.183,1.188C825.534,362.751,824.486,364.42,824.688,366.081Z" fill="none"/></clipPath><clipPath id="d"><path d="M737.459,368.5s-6.341-5.927-17.919-3.722c0,0,.965,21.366-4.963,22.331s-20.124-12.544-21.916,2.343c-1.325,11,13.469,14.552,24.059,14.874,1.507-2.871,5.985-9.044,16.028-7.279C736.1,391.18,738.224,381.6,737.459,368.5Z" fill="none"/></clipPath><clipPath id="e"><path d="M761.479,387.484s-7.508-4.354-18.3.393c0,0,5.732,20.6.172,22.874s-22.425-7.71-20.832,7.2c1.177,11.021,16.389,11.16,26.782,9.1.825-3.136,3.8-10.156,13.988-10.688C765.244,409.886,765.162,400.075,761.479,387.484Z" fill="none"/></clipPath><clipPath id="f"><path d="M603.812,385.766l-.957,2.513a.685.685,0,0,1-.213.286c-.667.544-2.439.352-3.96-.429-1.286-.661-1.98-1.532-1.759-2.114l.958-2.513c-.222.582.472,1.454,1.759,2.115,1.52.781,3.292.972,3.959.428A.685.685,0,0,0,603.812,385.766Z" fill="none"/></clipPath><clipPath id="g"><path d="M597.519,397.926l-.958,2.512a.676.676,0,0,1-.213.286c-.667.544-2.439.353-3.959-.428-1.287-.661-1.981-1.533-1.759-2.115l.957-2.513c-.222.583.472,1.454,1.759,2.115,1.52.781,3.292.972,3.959.428A.684.684,0,0,0,597.519,397.926Z" fill="none"/></clipPath><clipPath id="h"><path d="M642.579,399.648l-.957,2.513a.689.689,0,0,1-.213.285c-.667.544-2.439.353-3.96-.428-1.286-.661-1.98-1.532-1.759-2.115l.958-2.512c-.222.582.472,1.453,1.759,2.114,1.52.781,3.292.973,3.959.428A.682.682,0,0,0,642.579,399.648Z" fill="none"/></clipPath><clipPath id="i"><path d="M636.286,411.807l-.958,2.513a.676.676,0,0,1-.213.286c-.667.544-2.439.353-3.959-.428-1.287-.661-1.981-1.533-1.759-2.115l.957-2.513c-.222.582.472,1.454,1.759,2.115,1.52.781,3.292.972,3.959.428A.688.688,0,0,0,636.286,411.807Z" fill="none"/></clipPath><clipPath id="k"><rect width="375" height="812"/></clipPath></defs><g id="j" clip-path="url(#k)"><rect width="375" height="812" fill="#fff"/><circle cx="48.23" cy="48.23" r="48.23" transform="translate(251.528 241)" fill="#cce7e6"/><g transform="translate(-541.084 131.319)"><path d="M809.083,141.824l-3.756.334a1.819,1.819,0,0,0-1.6,2.254l8.115,32.462a3.042,3.042,0,0,0,3.268,2.288l29.762-3.121,27.405.9a3.213,3.213,0,0,0,3.184-4.131l-8.971-30.05a2.722,2.722,0,0,0-2.657-1.942Z" fill="#f0aa00"/><path d="M844.189,175.809l-29.026.464L805.357,139.5h28.6Z" fill="#c2bcb3"/><path d="M873.789,175.693H844.015l-9.806-36.772h28.6Z" fill="#c2bcb3"/><path d="M844.48,175.519h-28.6l-10.23-36.307h28.6Z" fill="#dcd6cc"/><path d="M873.339,175.258l-29.1.2-9.594-36.62,28.378.157Z" fill="#dcd6cc"/><path d="M844.476,175.229l-27.945-.885L806.3,138.037l27.909.885Z" fill="#f6f1e2"/><path d="M872.294,174.344l-27.818.885-10.267-36.307,28.21-.885Z" fill="#f6f1e2"/><line x2="10.035" y2="36.539" transform="translate(834.209 138.922)" fill="none" stroke="#c4baa2" stroke-miterlimit="10" stroke-width="1"/><path d="M832.983,155.755l-19.329.784L810,141.3l18.894-.174Z" fill="#bcb6a7"/><path d="M866.069,160.718l-19.329.784-3.657-15.237,18.894-.174Z" fill="#bcb6a7"/><path d="M833.418,158.715l-18.981.522-.261-1.132,18.72-.958Z" fill="#bcb6a7"/><path d="M833.854,161.153l-18.981.522-.261-1.132,18.719-.958Z" fill="#bcb6a7"/><path d="M834.463,163.939l-18.981.522-.261-1.132,18.72-.958Z" fill="#bcb6a7"/><path d="M860.583,141.911l-18.981.522-.261-1.132,18.719-.958Z" fill="#bcb6a7"/><path d="M861.367,144.436l-18.981.522-.261-1.132,18.72-.958Z" fill="#bcb6a7"/><path d="M866.678,163.33l-18.981.522-.261-1.132,18.719-.958Z" fill="#bcb6a7"/><path d="M867.375,165.855l-18.981.522-.261-1.132,18.719-.958Z" fill="#bcb6a7"/><path d="M868.333,168.815l-18.981.522-.261-1.132,18.72-.958Z" fill="#bcb6a7"/><path d="M869.029,171.34l-18.981.522-.261-1.132,18.719-.958Z" fill="#bcb6a7"/></g><circle cx="48.23" cy="48.23" r="48.23" transform="translate(139.764 357.452)" fill="#cce7e6"/><g transform="translate(-541.084 131.319)"><path d="M757.808,255.145c-.067.056-6.729,5.6-11.282,8.695a12.511,12.511,0,0,1-3.151,1.667c-.569.178-1.128.367-1.682.562.316.189.471.591-.231,1.45-1.364,1.666-36.06,23.03-38.232,23.03-2,0-2.455-.727-.671-2.217l-4.778,2.846a1.361,1.361,0,0,0-.473,1.866l.419.7a1.488,1.488,0,0,0,2.04.516L735.7,272.856a41.113,41.113,0,0,1,8.768-3.848,16.242,16.242,0,0,0,4.119-2.135c2.811-1.911,6.3-4.639,8.7-6.573a3.63,3.63,0,0,0,.517-5.155Z" fill="#56b8c4"/><path d="M744.546,258.844s1.674,3.935,5.159,3.612c0,0,5.676-1.775,7.807-5.133,0,0,1.156-3.5-.743-5.263Z" fill="#d5d5d3"/><ellipse cx="6.971" cy="1.363" rx="6.971" ry="1.363" transform="translate(743.835 257.533) rotate(-28.773)" fill="#fcf9f4"/><path d="M741.693,266.069q-1.606.564-3.122,1.22a41.63,41.63,0,0,0-4.747,2.417l-4.295,2.558c.636.152,1.038.369,1.038.612,0,.456-1.41.825-3.15.825-.1,0-.2,0-.293,0l-7.879,4.694c.607.15.988.363.988.6,0,.456-1.41.826-3.149.826-.076,0-.151,0-.226,0l-5.864,3.493c.884.147,1.473.4,1.473.7,0,.456-1.41.826-3.149.826-.288,0-.566-.011-.831-.03l-5.928,3.532c-1.784,1.49-1.326,2.217.671,2.217,2.172,0,36.868-21.364,38.232-23.03C742.164,266.66,742.009,266.258,741.693,266.069Z" fill="#a2d7e4"/><path d="M712.467,284c0-.294-.589-.551-1.473-.7L710,283.9l-1.513.9c.265.019.543.03.831.03C711.057,284.83,712.467,284.46,712.467,284Z" fill="#56b8c4"/><path d="M720.233,278.99c0-.236-.381-.449-.988-.6l-2.387,1.422c.075,0,.15,0,.226,0C718.823,279.816,720.233,279.446,720.233,278.99Z" fill="#56b8c4"/><path d="M730.567,272.876c0-.243-.4-.46-1.038-.612l-2.4,1.433c.1,0,.194,0,.293,0C729.157,273.7,730.567,273.332,730.567,272.876Z" fill="#56b8c4"/><ellipse cx="0.55" cy="0.168" rx="0.55" ry="0.168" transform="translate(745.69 257.089) rotate(-33.858)" fill="#d5d5d3"/><ellipse cx="0.55" cy="0.168" rx="0.55" ry="0.168" transform="translate(745.945 257.384) rotate(-33.858)" fill="#d5d5d3"/><ellipse cx="0.55" cy="0.168" rx="0.55" ry="0.168" transform="translate(746.301 257.649) rotate(-33.858)" fill="#d5d5d3"/><ellipse cx="0.55" cy="0.168" rx="0.55" ry="0.168" transform="translate(746.648 257.965) rotate(-33.858)" fill="#d5d5d3"/><ellipse cx="0.55" cy="0.168" rx="0.55" ry="0.168" transform="matrix(0.923, -0.386, 0.386, 0.923, 746.932, 258.151)" fill="#d5d5d3"/><ellipse cx="0.55" cy="0.168" rx="0.55" ry="0.168" transform="translate(746.714 256.375) rotate(-33.858)" fill="#d5d5d3"/><ellipse cx="0.55" cy="0.168" rx="0.55" ry="0.168" transform="translate(746.969 256.671) rotate(-33.858)" fill="#d5d5d3"/><ellipse cx="0.55" cy="0.168" rx="0.55" ry="0.168" transform="translate(747.325 256.936) rotate(-33.858)" fill="#d5d5d3"/><ellipse cx="0.55" cy="0.168" rx="0.55" ry="0.168" transform="translate(747.672 257.252) rotate(-33.858)" fill="#d5d5d3"/><ellipse cx="0.55" cy="0.168" rx="0.55" ry="0.168" transform="matrix(0.923, -0.386, 0.386, 0.923, 747.956, 257.437)" fill="#d5d5d3"/><ellipse cx="0.55" cy="0.168" rx="0.55" ry="0.168" transform="translate(747.876 255.764) rotate(-33.858)" fill="#d5d5d3"/><ellipse cx="0.55" cy="0.168" rx="0.55" ry="0.168" transform="translate(748.13 256.059) rotate(-33.858)" fill="#d5d5d3"/><ellipse cx="0.55" cy="0.168" rx="0.55" ry="0.168" transform="translate(748.487 256.324) rotate(-33.858)" fill="#d5d5d3"/><ellipse cx="0.55" cy="0.168" rx="0.55" ry="0.168" transform="translate(748.834 256.64) rotate(-33.858)" fill="#d5d5d3"/><ellipse cx="0.55" cy="0.168" rx="0.55" ry="0.168" transform="matrix(0.923, -0.386, 0.386, 0.923, 749.117, 256.826)" fill="#d5d5d3"/><ellipse cx="0.55" cy="0.168" rx="0.55" ry="0.168" transform="translate(748.93 255.076) rotate(-33.858)" fill="#d5d5d3"/><ellipse cx="0.55" cy="0.168" rx="0.55" ry="0.168" transform="translate(749.185 255.371) rotate(-33.858)" fill="#d5d5d3"/><ellipse cx="0.55" cy="0.168" rx="0.55" ry="0.168" transform="translate(749.542 255.636) rotate(-33.858)" fill="#d5d5d3"/><ellipse cx="0.55" cy="0.168" rx="0.55" ry="0.168" transform="translate(749.888 255.952) rotate(-33.858)" fill="#d5d5d3"/><ellipse cx="0.55" cy="0.168" rx="0.55" ry="0.168" transform="matrix(0.923, -0.386, 0.386, 0.923, 750.172, 256.138)" fill="#d5d5d3"/><ellipse cx="0.55" cy="0.168" rx="0.55" ry="0.168" transform="translate(750.016 254.48) rotate(-33.858)" fill="#d5d5d3"/><ellipse cx="0.55" cy="0.168" rx="0.55" ry="0.168" transform="translate(750.271 254.775) rotate(-33.858)" fill="#d5d5d3"/><ellipse cx="0.55" cy="0.168" rx="0.55" ry="0.168" transform="translate(750.627 255.04) rotate(-33.858)" fill="#d5d5d3"/><ellipse cx="0.55" cy="0.168" rx="0.55" ry="0.168" transform="translate(750.974 255.356) rotate(-33.858)" fill="#d5d5d3"/><ellipse cx="0.55" cy="0.168" rx="0.55" ry="0.168" transform="matrix(0.923, -0.386, 0.386, 0.923, 751.258, 255.542)" fill="#d5d5d3"/><ellipse cx="0.55" cy="0.168" rx="0.55" ry="0.168" transform="translate(751.132 253.838) rotate(-33.858)" fill="#d5d5d3"/><ellipse cx="0.55" cy="0.168" rx="0.55" ry="0.168" transform="translate(751.387 254.133) rotate(-33.858)" fill="#d5d5d3"/><ellipse cx="0.55" cy="0.168" rx="0.55" ry="0.168" transform="translate(751.743 254.398) rotate(-33.858)" fill="#d5d5d3"/><ellipse cx="0.55" cy="0.168" rx="0.55" ry="0.168" transform="translate(752.09 254.714) rotate(-33.858)" fill="#d5d5d3"/><ellipse cx="0.55" cy="0.168" rx="0.55" ry="0.168" transform="matrix(0.923, -0.386, 0.386, 0.923, 752.374, 254.9)" fill="#d5d5d3"/><ellipse cx="0.55" cy="0.168" rx="0.55" ry="0.168" transform="translate(752.37 253.348) rotate(-33.858)" fill="#d5d5d3"/><ellipse cx="0.55" cy="0.168" rx="0.55" ry="0.168" transform="translate(752.625 253.644) rotate(-33.858)" fill="#d5d5d3"/><ellipse cx="0.55" cy="0.168" rx="0.55" ry="0.168" transform="translate(752.981 253.909) rotate(-33.858)" fill="#d5d5d3"/><ellipse cx="0.55" cy="0.168" rx="0.55" ry="0.168" transform="translate(753.328 254.225) rotate(-33.858)" fill="#d5d5d3"/><ellipse cx="0.55" cy="0.168" rx="0.55" ry="0.168" transform="matrix(0.923, -0.386, 0.386, 0.923, 753.612, 254.411)" fill="#d5d5d3"/><ellipse cx="0.477" cy="0.146" rx="0.477" ry="0.146" transform="translate(753.421 252.772) rotate(-33.858)" fill="#d5d5d3"/><ellipse cx="0.477" cy="0.146" rx="0.477" ry="0.146" transform="translate(753.642 253.029) rotate(-33.858)" fill="#d5d5d3"/><ellipse cx="0.477" cy="0.146" rx="0.477" ry="0.146" transform="translate(753.951 253.258) rotate(-33.858)" fill="#d5d5d3"/><ellipse cx="0.477" cy="0.146" rx="0.477" ry="0.146" transform="translate(754.251 253.532) rotate(-33.858)" fill="#d5d5d3"/><ellipse cx="0.477" cy="0.146" rx="0.477" ry="0.146" transform="matrix(0.923, -0.386, 0.386, 0.923, 754.497, 253.693)" fill="#d5d5d3"/><ellipse cx="0.477" cy="0.146" rx="0.477" ry="0.146" transform="translate(754.471 252.353) rotate(-33.858)" fill="#d5d5d3"/><ellipse cx="0.477" cy="0.146" rx="0.477" ry="0.146" transform="translate(754.692 252.609) rotate(-33.858)" fill="#d5d5d3"/><ellipse cx="0.477" cy="0.146" rx="0.477" ry="0.146" transform="translate(755.001 252.839) rotate(-33.858)" fill="#d5d5d3"/><ellipse cx="0.477" cy="0.146" rx="0.477" ry="0.146" transform="translate(755.302 253.113) rotate(-33.858)" fill="#d5d5d3"/><ellipse cx="0.387" cy="0.118" rx="0.387" ry="0.118" transform="translate(755.695 252.22) rotate(-33.858)" fill="#d5d5d3"/><ellipse cx="0.387" cy="0.118" rx="0.387" ry="0.118" transform="translate(755.938 252.442) rotate(-33.858)" fill="#d5d5d3"/><ellipse cx="0.492" cy="0.15" rx="0.492" ry="0.15" transform="translate(744.873 257.8) rotate(-33.858)" fill="#d5d5d3"/><ellipse cx="0.492" cy="0.15" rx="0.492" ry="0.15" transform="translate(745.101 258.064) rotate(-33.858)" fill="#d5d5d3"/><ellipse cx="0.492" cy="0.15" rx="0.492" ry="0.15" transform="translate(745.42 258.301) rotate(-33.858)" fill="#d5d5d3"/><ellipse cx="0.492" cy="0.15" rx="0.492" ry="0.15" transform="translate(745.73 258.584) rotate(-33.858)" fill="#d5d5d3"/><ellipse cx="0.373" cy="0.114" rx="0.373" ry="0.114" transform="translate(744.433 258.391) rotate(-33.858)" fill="#d5d5d3"/><ellipse cx="0.382" cy="0.117" rx="0.382" ry="0.117" transform="translate(744.695 258.658) rotate(-33.858)" fill="#d5d5d3"/><ellipse cx="0.382" cy="0.117" rx="0.382" ry="0.117" transform="translate(745.031 258.826) rotate(-33.858)" fill="#d5d5d3"/><path d="M748.258,258.007l2.161,4.26.245-.143Z" fill="#bebdbe"/><path d="M751.4,256.458l2.161,4.26.245-.143Z" fill="#bebdbe"/><path d="M754.6,253.992l2.232,4.224.176-.206Z" fill="#bebdbe"/><path d="M755.981,253.3l1.755,3.182.061-.285Z" fill="#bebdbe"/><path d="M748.1,262.246l-1.977-3.526,2.2,3.689Z" fill="#bebdbe"/><path d="M751.978,261.543l-2.028-4.331,2.2,4.26Z" fill="#bebdbe"/><path d="M755.158,259.719l-2.028-4.331,2.15,4.25Z" fill="#bebdbe"/></g><circle cx="48.23" cy="48.23" r="48.23" transform="translate(251.528 474.608)" fill="#cce7e6"/><g transform="translate(-541.084 131.319)"><path d="M825.836,368.145c-.232.173-.44.338-.629.5l9.009-5.367Z" fill="#c4baa2"/><g style="isolation:isolate"><g style="isolation:isolate"><g clip-path="url(#a)"><g style="isolation:isolate"><path d="M832.4,421.814l-2.184-1.188a2.387,2.387,0,0,1-1.132-1.869l2.183,1.188a2.391,2.391,0,0,0,1.133,1.869" fill="#5f5f5f"/></g></g></g><g style="isolation:isolate"><g clip-path="url(#b)"><g style="isolation:isolate"><path d="M849.545,359.377l-2.183-1.188a1.744,1.744,0,0,1,.678.036l2.183,1.188a1.742,1.742,0,0,0-.678-.036" fill="#7c7c7d"/><path d="M850.223,359.413l-2.183-1.188a1.734,1.734,0,0,1,.327.121l2.183,1.188a1.71,1.71,0,0,0-.327-.121" fill="#787878"/><path d="M850.55,359.534l-2.183-1.188.065.034,2.183,1.188c-.021-.012-.043-.023-.065-.034" fill="#747474"/></g></g></g><path d="M826.9,362.559l-2.184-1.188,22.643-3.182,2.183,1.188Z" fill="#888787"/><path d="M831.268,419.945l-2.183-1.188-6.58-53.864,2.184,1.188Z" fill="#5b5b5b"/><g style="isolation:isolate"><g clip-path="url(#c)"><g style="isolation:isolate"><path d="M824.688,366.081l-2.183-1.188a3.564,3.564,0,0,1,.2-1.654l2.184,1.188a3.577,3.577,0,0,0-.2,1.654" fill="#5f5f5f"/><path d="M824.885,364.427l-2.184-1.188a3.585,3.585,0,0,1,.207-.459l2.183,1.188a3.4,3.4,0,0,0-.206.459" fill="#636363"/><path d="M825.091,363.968l-2.183-1.188a3.336,3.336,0,0,1,.206-.336l2.184,1.188a3.261,3.261,0,0,0-.207.336" fill="#676768"/><path d="M825.3,363.632l-2.184-1.188a3.229,3.229,0,0,1,.215-.273l2.184,1.187a3.061,3.061,0,0,0-.215.274" fill="#6b6b6c"/><path d="M825.513,363.358l-2.184-1.187a2.818,2.818,0,0,1,.23-.233l2.183,1.188a2.947,2.947,0,0,0-.229.232" fill="#6f7070"/><path d="M825.742,363.126l-2.183-1.188a2.657,2.657,0,0,1,.259-.2L826,362.921a2.775,2.775,0,0,0-.259.205" fill="#747474"/><path d="M826,362.921l-2.183-1.188a2.427,2.427,0,0,1,.327-.189l2.183,1.188a2.391,2.391,0,0,0-.327.189" fill="#787878"/><path d="M826.328,362.732l-2.183-1.188a2.035,2.035,0,0,1,.574-.173l2.183,1.188a2,2,0,0,0-.574.173" fill="#7c7c7d"/></g></g></g><path d="M849.545,359.377a2.064,2.064,0,0,1,2.2,2.061l6.58,53.863c.2,1.661-.846,3.33-2.214,3.522l-22.641,3.182a2.066,2.066,0,0,1-2.2-2.06l-6.58-53.864c-.2-1.661.846-3.33,2.214-3.522Z" fill="#b0afaf"/></g><path d="M855.553,409.175l-22.991,3.3-5.748-42.191,22.991-3.057Z" fill="#464544"/><circle cx="2.996" cy="2.996" r="2.996" transform="translate(841.857 411.865)" fill="#464544"/></g><circle cx="48.23" cy="48.23" r="48.23" transform="translate(139.764 241)" fill="#cce7e6"/><g transform="translate(-541.084 131.319)"><path d="M720.771,133.141l.876-.955s2.821,3.234,6.536,3.028,6.812-2,6.812-3.234l1.383,1.161-.764,2.623-6.605,1.995-7.982-2.27Z" fill="#ed9900"/><path d="M754.95,173.333l1.875,3.6,7.55-2.643-1.761-3.657Z" fill="#ed9900"/><path d="M693.78,172.78l6.04,4.153,1.862-3.193-6.281-4.473Z" fill="#ed9900"/><path d="M746.842,137.876a7.457,7.457,0,0,0-.431-.9l-.031-.064h-.005a7.546,7.546,0,0,0-6.538-3.776h-3.459c-.787,2.231-3.981,3.9-7.8,3.9s-7.016-1.67-7.8-3.9h-3.962a7.551,7.551,0,0,0-7.257,5.468L695.4,169.267l6.281,4.473,7.575-12.986v14.669a7.551,7.551,0,0,0,7.551,7.55h23.028a7.55,7.55,0,0,0,7.55-7.55V158.812l7.563,14.521,7.664-2.7Z" fill="#f4c200"/><path d="M720.772,146.92v21.518h16.8V159h-8.494V146.847Z" fill="#ed9900"/></g><circle cx="48.23" cy="48.23" r="48.23" transform="translate(251.528 357.452)" fill="#cce7e6"/><g transform="translate(-541.084 131.319)"><path d="M818.545,265.329a16.616,16.616,0,0,1-2.567-1.913c-1.869,2.371-2.435,3.285-3.911,5.366a16.741,16.741,0,0,0,2.567,1.914C816.11,268.615,816.677,267.7,818.545,265.329Z" fill="#ed9900"/><path d="M858.257,304.082c.328.372.5.557.851.926,1.475-2.081,2.042-3,3.91-5.367-.353-.368-.523-.553-.85-.925C860.3,301.087,859.733,302,858.257,304.082Z" fill="#c87c00"/><path d="M819.65,265.978c-1.868,2.371-2.435,3.285-3.91,5.366,23.241,7.189,29.549,11.988,42.517,32.738,1.476-2.081,2.043-2.995,3.911-5.366C849.2,277.966,842.891,273.167,819.65,265.978Z" fill="#ed9900"/><path d="M818.545,265.329c-1.868,2.371-2.435,3.286-3.911,5.367.438.274.659.4,1.106.648,1.475-2.081,2.042-2.995,3.91-5.366C819.2,265.733,818.982,265.6,818.545,265.329Z" fill="#c87c00"/><path d="M859.108,305.008a24.525,24.525,0,0,0,1.8,1.719c1.476-2.081,2.043-2.995,3.911-5.366a24.344,24.344,0,0,1-1.8-1.72C861.15,302.012,860.583,302.927,859.108,305.008Z" fill="#ed9900"/><path d="M825.012,259.642c-.446-.245-.668-.374-1.105-.649-1.857,2.225-3.494,3.965-5.362,6.336.437.275.658.4,1.105.649C821.518,263.607,823.155,261.866,825.012,259.642Z" fill="#fec66a"/><path d="M823.907,258.993a16.666,16.666,0,0,1-2.567-1.913c-1.857,2.224-3.494,3.965-5.362,6.336a16.616,16.616,0,0,0,2.567,1.913C820.413,262.958,822.05,261.218,823.907,258.993Z" fill="#fcd58e"/><path d="M863.018,299.641a24.344,24.344,0,0,0,1.8,1.72c1.868-2.371,3.505-4.111,5.362-6.336a24.533,24.533,0,0,1-1.8-1.72C866.524,295.53,864.887,297.27,863.018,299.641Z" fill="#fcd58e"/><path d="M862.168,298.716c.327.372.5.557.85.925,1.869-2.371,3.506-4.111,5.363-6.336-.354-.368-.523-.553-.851-.925C865.673,294.6,864.036,296.345,862.168,298.716Z" fill="#fec66a"/><path d="M862.168,298.716c1.868-2.371,3.5-4.112,5.362-6.336-12.969-20.75-19.276-25.549-42.518-32.738-1.857,2.224-3.494,3.965-5.362,6.336C842.891,273.167,849.2,277.966,862.168,298.716Z" fill="#fcd58e"/><path d="M815.74,271.344a59.869,59.869,0,0,1-4.945,6.3c23.241,7.189,29.549,11.987,42.518,32.737a59.61,59.61,0,0,0,4.944-6.294C845.289,283.332,838.981,278.533,815.74,271.344Z" fill="#fcd58e"/><path d="M812.067,268.782a59.51,59.51,0,0,1-4.945,6.294,16.742,16.742,0,0,0,2.568,1.914,59.608,59.608,0,0,0,4.944-6.294A16.741,16.741,0,0,1,812.067,268.782Z" fill="#fcd58e"/><path d="M858.257,304.082a59.61,59.61,0,0,1-4.944,6.294c.327.373.5.558.85.926a59.508,59.508,0,0,0,4.945-6.294C858.754,304.639,858.585,304.454,858.257,304.082Z" fill="#fec66a"/><path d="M814.634,270.7a59.608,59.608,0,0,1-4.944,6.294c.437.275.658.4,1.1.649a59.869,59.869,0,0,0,4.945-6.3C815.293,271.1,815.072,270.97,814.634,270.7Z" fill="#fec66a"/><path d="M854.163,311.3a24.349,24.349,0,0,0,1.8,1.72,59.6,59.6,0,0,0,4.944-6.3,24.525,24.525,0,0,1-1.8-1.719A59.508,59.508,0,0,1,854.163,311.3Z" fill="#fcd58e"/><path d="M874.262,290c1.573-1.945,2.347-2.9,4.781-5.676a24.546,24.546,0,0,1-1.8-1.72c-2.435,2.772-3.208,3.731-4.782,5.676A24.542,24.542,0,0,0,874.262,290Z" fill="#fcd58e"/><path d="M871.613,287.355c.327.372.5.558.85.926,1.574-1.945,2.347-2.9,4.782-5.676-.354-.368-.523-.553-.851-.925C873.96,284.451,873.186,285.411,871.613,287.355Z" fill="#fec66a"/><path d="M832.771,248.293a16.666,16.666,0,0,1-2.567-1.913c-2.435,2.771-3.208,3.731-4.781,5.675a16.691,16.691,0,0,0,2.567,1.914C829.563,252.024,830.337,251.065,832.771,248.293Z" fill="#fcd58e"/><path d="M829.095,254.617c1.573-1.944,2.347-2.9,4.782-5.675-.447-.245-.669-.374-1.106-.649-2.434,2.772-3.208,3.731-4.781,5.676C828.427,254.244,828.648,254.373,829.095,254.617Z" fill="#fec66a"/><path d="M871.613,287.355c1.573-1.944,2.347-2.9,4.781-5.675-12.968-20.75-19.276-25.549-42.517-32.738-2.435,2.771-3.209,3.731-4.782,5.675C852.336,261.807,858.644,266.605,871.613,287.355Z" fill="#fcd58e"/><path d="M829.095,254.617c-.447-.244-.668-.373-1.1-.648-1.6,1.98-2.226,2.8-4.083,5.024.437.275.659.4,1.105.649C826.869,257.417,827.493,256.6,829.095,254.617Z" fill="#c87c00"/><path d="M868.381,293.3c1.857-2.224,2.48-3.044,4.082-5.024-.353-.368-.523-.554-.85-.926-1.6,1.98-2.226,2.8-4.083,5.025C867.858,292.752,868.027,292.937,868.381,293.3Z" fill="#c87c00"/><path d="M825.012,259.642c23.242,7.189,29.549,11.988,42.518,32.738,1.857-2.225,2.481-3.045,4.083-5.025-12.969-20.75-19.277-25.548-42.518-32.738C827.493,256.6,826.869,257.417,825.012,259.642Z" fill="#ed9900"/><path d="M868.381,293.3a24.533,24.533,0,0,0,1.8,1.72c1.857-2.225,2.481-3.044,4.083-5.024a24.542,24.542,0,0,1-1.8-1.72C870.861,290.261,870.238,291.081,868.381,293.3Z" fill="#ed9900"/><path d="M827.99,253.969a16.691,16.691,0,0,1-2.567-1.914c-1.6,1.98-2.226,2.8-4.083,5.025a16.666,16.666,0,0,0,2.567,1.913C825.764,256.769,826.388,255.949,827.99,253.969Z" fill="#ed9900"/></g><circle cx="48.23" cy="48.23" r="48.23" transform="translate(139.764 474.608)" fill="#cce7e6"/><g transform="translate(-541.084 131.319)"><path d="M720.532,353.151s13.508-4.411,17.919,4l-.965,11.441s-7.857-5.927-17.919-3.722Z" fill="#efecec"/><path d="M716.747,404.416a32.873,32.873,0,0,0,8.747-.677c2.64-.74,5.2-2.957,7.281-6.6C722.732,395.372,718.254,401.544,716.747,404.416Z" fill="#efecec"/><path d="M737.486,368.589s-6.341-5.927-17.919-3.722c0,0,.965,21.366-4.963,22.331s-20.124-12.544-21.916,2.343c-1.325,11,13.469,14.552,24.059,14.875,1.507-2.872,5.985-9.044,16.028-7.28C736.13,391.265,738.251,381.686,737.486,368.589Z" fill="#d2d2d2"/><g clip-path="url(#d)"><rect width="4.227" height="4.227" rx="2.114" transform="translate(717.488 365.712) rotate(4.977)" fill="#de1e28"/><rect width="4.227" height="4.227" rx="2.114" transform="translate(725.676 365.963) rotate(4.977)" fill="#de1e28"/><rect width="4.227" height="4.227" rx="2.114" transform="translate(734.815 366.944) rotate(4.977)" fill="#de1e28"/><rect width="4.227" height="4.227" rx="2.114" transform="matrix(0.996, 0.087, -0.087, 0.996, 730.491, 372.102)" fill="#de1e28"/><rect width="4.227" height="4.227" rx="2.114" transform="translate(722.24 372.582) rotate(4.977)" fill="#de1e28"/><rect width="4.227" height="4.227" rx="2.114" transform="translate(717.598 379.281) rotate(4.977)" fill="#de1e28"/><rect width="4.227" height="4.227" rx="2.114" transform="matrix(0.996, 0.087, -0.087, 0.996, 726.892, 379.537)" fill="#de1e28"/><rect width="4.227" height="4.227" rx="2.114" transform="translate(736.178 379.884) rotate(4.977)" fill="#de1e28"/><rect width="4.227" height="4.227" rx="2.114" transform="translate(730.744 386.145) rotate(4.977)" fill="#de1e28"/><rect width="4.227" height="4.227" rx="2.114" transform="translate(722.123 385.578) rotate(4.977)" fill="#de1e28"/><rect width="4.227" height="4.227" rx="2.114" transform="matrix(0.996, 0.087, -0.087, 0.996, 712.665, 386.138)" fill="#de1e28"/><rect width="4.227" height="4.227" rx="2.114" transform="translate(703.101 384.752) rotate(4.977)" fill="#de1e28"/><rect width="4.227" height="4.227" rx="2.114" transform="translate(695.303 384.257) rotate(4.977)" fill="#de1e28"/><rect width="4.227" height="4.227" rx="2.114" transform="translate(698.928 390.292) rotate(4.977)" fill="#de1e28"/><rect width="4.227" height="4.227" rx="2.114" transform="matrix(0.996, 0.087, -0.087, 0.996, 708.087, 392.104)" fill="#de1e28"/><rect width="4.227" height="4.227" rx="2.114" transform="translate(719.2 391.596) rotate(4.977)" fill="#de1e28"/><rect width="4.227" height="4.227" rx="2.114" transform="translate(712.982 397.327) rotate(4.977)" fill="#de1e28"/><rect width="4.227" height="4.227" rx="2.114" transform="translate(702.916 397.465) rotate(4.977)" fill="#de1e28"/><rect width="4.227" height="4.227" rx="2.114" transform="matrix(0.996, 0.087, -0.087, 0.996, 694.362, 395.06)" fill="#de1e28"/></g><path d="M741.615,376.373s12.2-7.284,18.36-.057l1.584,11.371s-8.971-4.046-18.3.327Z" fill="#efecec"/><path d="M749.242,427.209a32.819,32.819,0,0,0,8.382-2.592c2.411-1.3,4.417-4.031,5.644-8.047C753.083,417.066,750.078,424.075,749.242,427.209Z" fill="#efecec"/><path d="M761.559,387.687s-7.492-4.381-18.3.327c0,0,5.658,20.625.09,22.875s-22.4-7.791-20.858,7.124c1.137,11.025,16.349,11.219,26.749,9.2.836-3.134,3.841-10.143,14.026-10.639C765.244,410.1,765.2,400.292,761.559,387.687Z" fill="#d2d2d2"/><g clip-path="url(#e)"><rect width="4.227" height="4.227" rx="2.114" transform="translate(744.046 389.593) rotate(4.977)" fill="#de1e28"/><rect width="4.227" height="4.227" rx="2.114" transform="matrix(0.996, 0.087, -0.087, 0.996, 752.233, 389.844)" fill="#de1e28"/><rect width="4.227" height="4.227" rx="2.114" transform="matrix(0.996, 0.087, -0.087, 0.996, 761.372, 390.825)" fill="#de1e28"/><rect width="4.227" height="4.227" rx="2.114" transform="translate(757.049 395.983) rotate(4.977)" fill="#de1e28"/><rect width="4.227" height="4.227" rx="2.114" transform="translate(748.797 396.463) rotate(4.977)" fill="#de1e28"/><rect width="4.227" height="4.227" rx="2.114" transform="translate(744.155 403.162) rotate(4.977)" fill="#de1e28"/><rect width="4.227" height="4.227" rx="2.114" transform="translate(753.449 403.418) rotate(4.977)" fill="#de1e28"/><rect width="4.227" height="4.227" rx="2.114" transform="translate(762.736 403.765) rotate(4.977)" fill="#de1e28"/><rect width="4.227" height="4.227" rx="2.114" transform="translate(757.302 410.026) rotate(4.977)" fill="#de1e28"/><rect width="4.227" height="4.227" rx="2.114" transform="matrix(0.996, 0.087, -0.087, 0.996, 748.68, 409.459)" fill="#de1e28"/><rect width="4.227" height="4.227" rx="2.114" transform="matrix(0.996, 0.087, -0.087, 0.996, 739.223, 410.019)" fill="#de1e28"/><rect width="4.227" height="4.227" rx="2.114" transform="translate(729.658 408.633) rotate(4.977)" fill="#de1e28"/><rect width="4.227" height="4.227" rx="2.114" transform="matrix(0.996, 0.087, -0.087, 0.996, 721.861, 408.138)" fill="#de1e28"/><rect width="4.227" height="4.227" rx="2.114" transform="matrix(0.996, 0.087, -0.087, 0.996, 725.486, 414.173)" fill="#de1e28"/><rect width="4.227" height="4.227" rx="2.114" transform="translate(734.644 415.985) rotate(4.977)" fill="#de1e28"/><rect width="4.227" height="4.227" rx="2.114" transform="translate(745.758 415.477) rotate(4.977)" fill="#de1e28"/><rect width="4.227" height="4.227" rx="2.114" transform="translate(739.54 421.208) rotate(4.977)" fill="#de1e28"/><rect width="4.227" height="4.227" rx="2.114" transform="translate(729.473 421.346) rotate(4.977)" fill="#de1e28"/><rect width="4.227" height="4.227" rx="2.114" transform="translate(720.92 418.941) rotate(4.977)" fill="#de1e28"/></g></g><circle cx="48.23" cy="48.23" r="48.23" transform="translate(28 474.608)" fill="#cce7e6"/><g transform="translate(-541.084 131.319)"><path d="M653.667,401.746c-3.057-2.693-7.855-2.7-11.647-3.466a119,119,0,0,1-13.4-3.5c-9.176-2.99-17.281-8.14-26.127-11.875a58.556,58.556,0,0,0-5.628-2.074c-2.893-1.229-6.062-2.41-9.129-2.028a6.347,6.347,0,0,0-5.525,6.973c.427,7.642,8.684,12.8,14.5,16.377a81.362,81.362,0,0,0,46.6,11.95c3.726-.2,8.173-.673,10.955-3.461C656.889,408.018,656.357,404.115,653.667,401.746ZM610.78,391.408l-1.088-.475c-.259-.183-.517-.368-.778-.549Q609.847,390.894,610.78,391.408Zm-17.863-4.216,3.359,1.469q-1.7-.681-3.4-1.373Zm39.615,18.19a1.522,1.522,0,0,0-.091-.169c.265.085.528.174.793.258C633,405.444,632.766,405.412,632.532,405.382Z" fill="#636061"/><g style="isolation:isolate"><g style="isolation:isolate"><g clip-path="url(#f)"><g style="isolation:isolate"><path d="M603.812,385.766l-.957,2.513a.705.705,0,0,1-.034.074l.957-2.513a.705.705,0,0,0,.034-.074" fill="#731b1f"/><path d="M603.778,385.84l-.957,2.513a.685.685,0,0,1-.1.138l.958-2.513a.653.653,0,0,0,.1-.138" fill="#781c20"/><path d="M603.678,385.978l-.958,2.513a.927.927,0,0,1-.078.074l-.048.036.957-2.513.048-.036a.925.925,0,0,0,.079-.074" fill="#7d1d21"/><path d="M603.551,386.088l-.957,2.513a1.113,1.113,0,0,1-.151.089l.957-2.513a1.021,1.021,0,0,0,.151-.089" fill="#821e22"/><path d="M603.4,386.177l-.957,2.513a1.483,1.483,0,0,1-.177.072l.957-2.513a1.423,1.423,0,0,0,.177-.072" fill="#871f23"/><path d="M603.223,386.249l-.957,2.513a1.7,1.7,0,0,1-.216.057l.958-2.512a1.929,1.929,0,0,0,.215-.058" fill="#8d2024"/><path d="M603.008,386.307l-.958,2.512a2.41,2.41,0,0,1-.269.04l.957-2.512a2.641,2.641,0,0,0,.27-.04" fill="#922125"/><path d="M602.738,386.347l-.957,2.512a3.54,3.54,0,0,1-.392.015l.958-2.513a3.512,3.512,0,0,0,.391-.014" fill="#982226"/><path d="M602.347,386.361l-.958,2.513a5.812,5.812,0,0,1-1.6-.282l.957-2.513a5.812,5.812,0,0,0,1.6.282" fill="#9d2328"/><path d="M600.749,386.079l-.957,2.513q-.234-.074-.467-.165l.957-2.513q.234.092.467.165" fill="#982226"/><path d="M600.282,385.914l-.957,2.513c-.119-.047-.238-.1-.356-.152l.957-2.513c.118.054.237.105.356.152" fill="#922125"/><path d="M599.926,385.762l-.957,2.513c-.1-.044-.192-.09-.287-.139l-.025-.013.957-2.513.026.014c.094.048.19.094.286.138" fill="#8d2024"/><path d="M599.614,385.61l-.957,2.513c-.1-.05-.191-.1-.281-.154l.957-2.513c.09.052.184.1.281.154" fill="#871f23"/><path d="M599.333,385.456l-.957,2.513c-.091-.053-.177-.107-.26-.161l.957-2.513c.083.054.17.108.26.161" fill="#821e22"/><path d="M599.073,385.3l-.957,2.513c-.087-.057-.17-.115-.248-.173l.957-2.513c.079.058.161.116.248.173" fill="#7d1d21"/><path d="M598.825,385.122l-.957,2.513c-.088-.066-.171-.132-.249-.2l.957-2.513c.078.067.161.133.249.2" fill="#781c20"/><path d="M598.576,384.923l-.957,2.513c-.1-.082-.182-.166-.26-.248l.957-2.513a3.46,3.46,0,0,0,.26.248" fill="#731b1f"/><path d="M598.316,384.675l-.957,2.513c-.4-.421-.56-.839-.436-1.166l.958-2.513c-.125.327.039.745.435,1.166" fill="#6d191d"/></g></g></g><path d="M602.055,383.653c1.52.781,2.211,1.854,1.544,2.4s-2.439.353-3.959-.428-2.213-1.856-1.547-2.4S600.534,382.872,602.055,383.653Z" fill="#d02b32"/></g><g style="isolation:isolate"><g style="isolation:isolate"><g clip-path="url(#g)"><g style="isolation:isolate"><path d="M597.519,397.926l-.958,2.512a.407.407,0,0,1-.034.074l.958-2.512a.705.705,0,0,0,.034-.074" fill="#731b1f"/><path d="M597.485,398l-.958,2.512a.649.649,0,0,1-.1.139l.957-2.513a.714.714,0,0,0,.1-.138" fill="#781c20"/><path d="M597.384,398.138l-.957,2.513a.8.8,0,0,1-.079.073.6.6,0,0,1-.048.037l.957-2.513c.017-.012.033-.024.048-.037a.8.8,0,0,0,.079-.073" fill="#7d1d21"/><path d="M597.257,398.248l-.957,2.513a1.152,1.152,0,0,1-.151.089l.958-2.513a1.211,1.211,0,0,0,.15-.089" fill="#821e22"/><path d="M597.107,398.337l-.958,2.513a1.419,1.419,0,0,1-.177.072l.957-2.513a1.5,1.5,0,0,0,.178-.072" fill="#871f23"/><path d="M596.929,398.409l-.957,2.513a2.029,2.029,0,0,1-.215.057l.957-2.513a2.034,2.034,0,0,0,.215-.057" fill="#8d2024"/><path d="M596.714,398.466l-.957,2.513a2.413,2.413,0,0,1-.269.04l.957-2.513a2.41,2.41,0,0,0,.269-.04" fill="#922125"/><path d="M596.445,398.506l-.957,2.513a3.316,3.316,0,0,1-.392.014l.957-2.513a3.317,3.317,0,0,0,.392-.014" fill="#982226"/><path d="M596.053,398.52l-.957,2.513a5.781,5.781,0,0,1-1.6-.282l.958-2.513a5.733,5.733,0,0,0,1.6.282" fill="#9d2328"/><path d="M594.456,398.238l-.958,2.513c-.155-.049-.311-.1-.466-.165l.957-2.513c.155.061.311.117.467.165" fill="#982226"/><path d="M593.989,398.073l-.957,2.513c-.12-.047-.239-.1-.357-.151l.957-2.513c.118.054.237.1.357.151" fill="#922125"/><path d="M593.632,397.922l-.957,2.513c-.1-.044-.191-.09-.286-.139l-.026-.013.957-2.513.026.013c.095.049.19.1.286.139" fill="#8d2024"/><path d="M593.32,397.77l-.957,2.513c-.1-.051-.191-.1-.281-.155l.958-2.513c.09.053.183.1.28.155" fill="#871f23"/><path d="M593.04,397.615l-.958,2.513c-.09-.053-.177-.106-.259-.161l.957-2.512c.083.054.169.108.26.16" fill="#821e22"/><path d="M592.78,397.455l-.957,2.512c-.087-.057-.17-.114-.248-.173l.957-2.512c.078.058.161.116.248.173" fill="#7d1d21"/><path d="M592.532,397.282l-.957,2.512c-.089-.065-.172-.132-.249-.2l.957-2.512c.077.066.16.133.249.2" fill="#781c20"/><path d="M592.283,397.083l-.957,2.512a3.29,3.29,0,0,1-.261-.248l.958-2.513c.078.083.165.166.26.249" fill="#731b1f"/><path d="M592.023,396.834l-.958,2.513c-.4-.421-.559-.839-.435-1.166l.957-2.513c-.124.327.04.745.436,1.166" fill="#6d191d"/></g></g></g><path d="M595.761,395.812c1.521.781,2.211,1.855,1.544,2.4s-2.439.353-3.959-.428-2.213-1.856-1.546-2.4S594.241,395.031,595.761,395.812Z" fill="#d02b32"/></g><path d="M598.837,388.15l-4.664,8.633.929.423,4.291-8.761" fill="#e1353d"/><rect width="4.514" height="4.74" transform="translate(596.211 388.809) rotate(24.596)" fill="#e1353d"/><g style="isolation:isolate"><g style="isolation:isolate"><g clip-path="url(#h)"><g style="isolation:isolate"><path d="M642.579,399.648l-.957,2.513a.813.813,0,0,1-.034.074l.957-2.513a.7.7,0,0,0,.034-.074" fill="#731b1f"/><path d="M642.545,399.722l-.957,2.513a.716.716,0,0,1-.1.138l.958-2.513a.71.71,0,0,0,.1-.138" fill="#781c20"/><path d="M642.445,399.86l-.958,2.513a.779.779,0,0,1-.078.073l-.048.037.957-2.513.048-.037a.925.925,0,0,0,.079-.073" fill="#7d1d21"/><path d="M642.318,399.97l-.957,2.513a1.225,1.225,0,0,1-.151.089l.957-2.513a1.11,1.11,0,0,0,.151-.089" fill="#821e22"/><path d="M642.167,400.059l-.957,2.513a1.492,1.492,0,0,1-.177.072l.957-2.513a1.424,1.424,0,0,0,.177-.072" fill="#871f23"/><path d="M641.99,400.131l-.957,2.513a2.127,2.127,0,0,1-.216.057l.958-2.513a1.735,1.735,0,0,0,.215-.057" fill="#8d2024"/><path d="M641.775,400.188l-.958,2.513a2.411,2.411,0,0,1-.269.04l.957-2.513a2.4,2.4,0,0,0,.27-.04" fill="#922125"/><path d="M641.505,400.228l-.957,2.513a3.322,3.322,0,0,1-.392.014l.958-2.512a3.519,3.519,0,0,0,.391-.015" fill="#982226"/><path d="M641.114,400.243l-.958,2.512a5.737,5.737,0,0,1-1.6-.282l.957-2.512a5.813,5.813,0,0,0,1.6.282" fill="#9d2328"/><path d="M639.516,399.961l-.957,2.512q-.234-.073-.467-.165l.957-2.513q.234.093.467.166" fill="#982226"/><path d="M639.049,399.8l-.957,2.513c-.119-.047-.238-.1-.356-.151l.957-2.513c.118.054.237.1.356.151" fill="#922125"/><path d="M638.693,399.644l-.957,2.513c-.1-.044-.192-.09-.287-.139l-.025-.013.957-2.513.026.013c.094.049.19.1.286.139" fill="#8d2024"/><path d="M638.381,399.492l-.957,2.513c-.1-.051-.191-.1-.281-.155l.957-2.513c.09.053.184.1.281.155" fill="#871f23"/><path d="M638.1,399.337l-.957,2.513c-.091-.052-.177-.106-.26-.161l.957-2.512c.083.054.17.108.26.16" fill="#821e22"/><path d="M637.84,399.177l-.957,2.512c-.087-.056-.17-.114-.248-.172l.957-2.513c.079.058.161.116.248.173" fill="#7d1d21"/><path d="M637.592,399l-.957,2.513c-.088-.066-.171-.133-.249-.2l.957-2.513c.078.067.161.133.249.2" fill="#781c20"/><path d="M637.343,398.8l-.957,2.513c-.095-.083-.182-.166-.26-.249l.957-2.513c.078.083.165.166.26.249" fill="#731b1f"/><path d="M637.083,398.556l-.957,2.513c-.4-.421-.56-.839-.436-1.166l.958-2.512c-.125.326.039.745.435,1.165" fill="#6d191d"/></g></g></g><path d="M640.822,397.535c1.52.78,2.211,1.854,1.544,2.4s-2.439.353-3.959-.428-2.213-1.855-1.547-2.4S639.3,396.754,640.822,397.535Z" fill="#d02b32"/></g><g style="isolation:isolate"><g style="isolation:isolate"><g clip-path="url(#i)"><g style="isolation:isolate"><path d="M636.286,411.807l-.958,2.513a.452.452,0,0,1-.034.074l.958-2.513a.708.708,0,0,0,.034-.074" fill="#731b1f"/><path d="M636.252,411.881l-.958,2.513a.621.621,0,0,1-.1.138l.957-2.513a.661.661,0,0,0,.1-.138" fill="#781c20"/><path d="M636.151,412.019l-.957,2.513a.8.8,0,0,1-.079.074l-.048.036.957-2.513a.59.59,0,0,0,.048-.036.8.8,0,0,0,.079-.074" fill="#7d1d21"/><path d="M636.024,412.129l-.957,2.513a.97.97,0,0,1-.151.089l.958-2.512a1.1,1.1,0,0,0,.15-.09" fill="#821e22"/><path d="M635.874,412.219l-.958,2.512a1.419,1.419,0,0,1-.177.072l.957-2.512a1.5,1.5,0,0,0,.178-.072" fill="#871f23"/><path d="M635.7,412.291l-.957,2.512a1.821,1.821,0,0,1-.215.058l.957-2.513a2.029,2.029,0,0,0,.215-.057" fill="#8d2024"/><path d="M635.481,412.348l-.957,2.513a2.669,2.669,0,0,1-.269.04l.957-2.513a2.67,2.67,0,0,0,.269-.04" fill="#922125"/><path d="M635.212,412.388l-.957,2.513a3.555,3.555,0,0,1-.392.014l.957-2.513a3.554,3.554,0,0,0,.392-.014" fill="#982226"/><path d="M634.82,412.4l-.957,2.513a5.819,5.819,0,0,1-1.6-.282l.958-2.513a5.768,5.768,0,0,0,1.6.282" fill="#9d2328"/><path d="M633.223,412.12l-.958,2.513c-.155-.049-.311-.1-.466-.165l.957-2.513q.233.092.467.165" fill="#982226"/><path d="M632.756,411.955l-.957,2.513c-.12-.047-.239-.1-.357-.152l.957-2.512c.118.054.237.1.357.151" fill="#922125"/><path d="M632.4,411.8l-.957,2.512c-.1-.044-.191-.09-.286-.138l-.026-.014.957-2.513.026.014c.1.048.19.1.286.139" fill="#8d2024"/><path d="M632.087,411.651l-.957,2.513c-.1-.05-.191-.1-.281-.154l.958-2.513c.09.052.183.1.28.154" fill="#871f23"/><path d="M631.807,411.5l-.958,2.513c-.09-.053-.177-.107-.259-.161l.957-2.513c.083.055.169.108.26.161" fill="#821e22"/><path d="M631.547,411.336l-.957,2.513c-.087-.057-.17-.115-.248-.173l.957-2.513c.078.059.161.116.248.173" fill="#7d1d21"/><path d="M631.3,411.163l-.957,2.513c-.089-.066-.172-.132-.249-.2l.957-2.513c.077.067.16.134.249.2" fill="#781c20"/><path d="M631.05,410.964l-.957,2.513a3.291,3.291,0,0,1-.261-.248l.958-2.513a3.46,3.46,0,0,0,.26.248" fill="#731b1f"/><path d="M630.79,410.716l-.958,2.513c-.395-.421-.559-.839-.435-1.166l.957-2.513c-.124.327.04.745.436,1.166" fill="#6d191d"/></g></g></g><path d="M634.528,409.694c1.521.781,2.211,1.855,1.544,2.4s-2.439.353-3.959-.428-2.213-1.856-1.546-2.4S633.008,408.913,634.528,409.694Z" fill="#d02b32"/></g><path d="M637.6,402.032l-4.664,8.633.929.423,4.291-8.761" fill="#e1353d"/><rect width="4.514" height="4.74" transform="translate(634.978 402.69) rotate(24.596)" fill="#e1353d"/></g><circle cx="48.23" cy="48.23" r="48.23" transform="translate(28 357.452)" fill="#cce7e6"/><g transform="translate(-541.084 131.319)"><path d="M601.052,246.643c.083.416,13.816,13.816,13.816,13.816l13.691-13.691" fill="none" stroke="#636061" stroke-miterlimit="10" stroke-width="4"/><rect width="60.009" height="40.117" transform="translate(586.237 260.292)" fill="#4a4142"/><rect width="46.271" height="30.337" transform="translate(592.921 263.705)" fill="#636061"/><circle cx="2.433" cy="2.433" r="2.433" transform="translate(598.519 244.841)" fill="#4a4142"/><circle cx="2.433" cy="2.433" r="2.433" transform="translate(626.093 244.12)" fill="#4a4142"/><circle cx="1.562" cy="1.562" r="1.562" transform="translate(638.649 295.723)" fill="#636061"/><path d="M646.245,260.292l3.577,6.115v28.836l-3.577,5.166Z" fill="#636061"/></g><circle cx="48.23" cy="48.23" r="48.23" transform="translate(28 241)" fill="#cce7e6"/><g transform="translate(-541.084 131.319)"><path d="M608.894,189.672s-2.708.123-3.077,1.846,3.262,1.6,3.262,1.6,2.031-.247,2.185-1.416-2.37-2.031-2.37-2.031" fill="#f9f2c3"/><path d="M602.071,189.1s-2.708.123-3.078,1.847,3.263,1.6,3.263,1.6,2.031-.246,2.185-1.416-2.37-2.031-2.37-2.031" fill="#e7dfb6"/><path d="M635.549,176.44c.568-6.141-13.874-8.529-17.854-10.349-2.562-1.171-3.286-6.817-3.477-10.693l-7.44.686-1.851,23.442a7.6,7.6,0,0,0,6.329,8.1c8.781,1.467,23.383,3.236,27.818-.266a2.876,2.876,0,0,0,.959-1.421l.064.4a25.941,25.941,0,0,0,.972-3.744C638.4,181.785,635.213,180.062,635.549,176.44Z" fill="#e7dfb6"/><path d="M617.7,166.091c3.98,1.82,18.422,4.208,17.854,10.349-.336,3.622,2.85,5.345,5.52,6.149,2.374-12.612-1.464-31.539-.744-23.207.8,9.211-1.365,19.9-1.365,19.9v.008c-4.016-9.943-16.149-24.684-16.149-24.684l-8.594.792C614.409,159.274,615.133,164.92,617.7,166.091Z" fill="#b47209"/><path d="M620.135,125.3a16.486,16.486,0,0,0-2.471-.76c-.587,2.3-1.58,6.091-2.509,9.221-1.214,4.091,5.709,13.355,8.229,20.8a16.743,16.743,0,0,0,5.173-5.661,3.065,3.065,0,0,0,2.443-.276C636.016,145.932,636.42,130.675,620.135,125.3Z" fill="#d08400"/><path d="M611.668,137.32c1.926-3.246.577-10.007-.308-13.47-16.2.6-20.907,22.145-17.584,25.676,1.693,1.8,4.043,1.743,6.079.069a16.755,16.755,0,0,0,5.748,5.583C605.49,150.639,609.534,140.917,611.668,137.32Z" fill="#d08400"/><path d="M615.155,133.757c.929-3.13,1.922-6.923,2.509-9.221-.424-.1-.854-.176-1.29-.238l-.082-.017a20.831,20.831,0,0,0-4.932-.431c.885,3.463,2.234,10.224.308,13.47-2.134,3.6-6.178,13.319-6.065,17.858a16.655,16.655,0,0,0,17.781-.625C620.864,147.112,613.941,137.848,615.155,133.757Z" fill="#f9f2c3"/><ellipse cx="1.061" cy="2.426" rx="1.061" ry="2.426" transform="translate(606.961 133.378)" fill="#402f11"/><ellipse cx="1.061" cy="2.426" rx="1.061" ry="2.426" transform="translate(618.03 133.378)" fill="#402f11"/><circle cx="1.744" cy="1.744" r="1.744" transform="translate(610.985 141.187)" fill="#402f11"/><path d="M607.41,147.953a5.5,5.5,0,0,0,.661.819,1.348,1.348,0,0,0,.785.429c.51.031.983-.475,1.342-1.014a11.81,11.81,0,0,0,.968-1.775c.282-.621.546-1.275.768-1.9l.673-1.907.591,1.972a14.1,14.1,0,0,0,1.119,2.771,4,4,0,0,0,.807,1.057,1.093,1.093,0,0,0,.429.234.774.774,0,0,0,.439-.019,1.97,1.97,0,0,0,.518-.3,3.269,3.269,0,0,0,.275-.238l.284-.254a10.1,10.1,0,0,0,1.02-1.119,6.55,6.55,0,0,0,.788-1.3,3.85,3.85,0,0,0,.382-1.5,3.345,3.345,0,0,1,.044,1.635,5.859,5.859,0,0,1-.567,1.572,8.465,8.465,0,0,1-.923,1.4l-.273.316a4.149,4.149,0,0,1-.294.316,2.843,2.843,0,0,1-.8.572,1.99,1.99,0,0,1-1.119.153,2.348,2.348,0,0,1-1-.437,4.87,4.87,0,0,1-1.185-1.4,10.257,10.257,0,0,1-.726-1.532,13.136,13.136,0,0,1-.5-1.6l1.264.065a16.346,16.346,0,0,1-.958,1.99,9.951,9.951,0,0,1-1.293,1.828,4.191,4.191,0,0,1-.912.757c-.094.05-.187.1-.284.142a1.993,1.993,0,0,1-.316.1,1.332,1.332,0,0,1-.34.027l-.171-.012c-.056-.012-.111-.029-.166-.044a1.645,1.645,0,0,1-.91-.782A3.953,3.953,0,0,1,607.41,147.953Z" fill="#402f11"/><path d="M599.855,149.6s-.583-9.7,1.919-15.118c0,0-2.653,13.495.417,18.082C602.191,152.559,599.87,150.308,599.855,149.6Z" fill="#2f2d15"/><path d="M628.557,148.892s-3.9-.705-2.839-8.59c0,0-2.072,8.693,1.971,10.008Z" fill="#2f2d15"/><ellipse cx="5.042" cy="3.032" rx="5.042" ry="3.032" transform="translate(606.778 184.703)" fill="#e7dfb6"/><path d="M635.549,188.986s-17.058,2.957-17.172,1.138-3.411-18.082,11.713-12.168S635.549,188.986,635.549,188.986Z" fill="#f9f2c3"/><ellipse cx="6.425" cy="2.9" rx="6.425" ry="2.9" transform="translate(612.944 186.889)" fill="#f9f2c3"/><path d="M625.777,190.092a5.619,5.619,0,0,0-3.9-2.963s3.986,0,4.5,2.982Z" fill="#e7dfb6"/><path d="M612.125,169.915l-3.57,21.173,2.709.615,6.893-22.773S615.08,164.252,612.125,169.915Z" fill="#f9f2c3"/><path d="M605.708,167.1l-3.976,23.359,3.016.679,7.678-25.125S609,160.848,605.708,167.1Z" fill="#e7dfb6"/><path d="M611.92,171.84s3.437,4.549,1.466,6.621-3.336,2.224-3.437,3.589S611.92,171.84,611.92,171.84Z" fill="#b47209"/><path d="M629.307,189.985s.758-4.246,3.437-3.892,3.083-.253,3.032-.809,2.628-.455,2.527,1.112-3.791,2.982-3.791,2.982Z" fill="#b47209"/></g></g></svg>