<svg xmlns="http://www.w3.org/2000/svg" width="555" height="391.345" viewBox="0 0 555 391.345">
  <g id="finished" transform="translate(-202.723 -23.974)">
    <text id="ALLES_IS_MEE_" data-name="ALLES IS MEE!" transform="translate(202.723 172.319)" fill="#efefee" font-size="50" font-family="Laca-Bold, Laca" font-weight="700"><tspan x="118.802" y="47">ALLES IS MEE!</tspan></text>
    <g id="replay">
      <g id="Group_2" data-name="Group 2">
        <circle id="Ellipse_1" data-name="Ellipse 1" cx="55.245" cy="55.245" r="55.245" transform="translate(312.984 239.883)" fill="#4fa036"/>
        <path id="Path_1" data-name="Path 1" d="M367.457,256.212a38.527,38.527,0,0,0-16.034,3.469l-3.073,1.4,5.57,12.32L357,272a25.125,25.125,0,0,1,10.454-2.262,25.393,25.393,0,1,1-25.393,25.393c0-.124.007-.25.009-.374l4.844.843-7.385-25.059L322.65,291.376l6,1.043c-.065.906-.107,1.81-.107,2.709a38.916,38.916,0,1,0,38.916-38.916Z" fill="#fff"/>
      </g>
    </g>
    <g id="stop">
      <g id="Group_3" data-name="Group 3">
        <circle id="Ellipse_2" data-name="Ellipse 2" cx="55.245" cy="55.245" r="55.245" transform="translate(526.573 239.883)" fill="#e13313"/>
      </g>
      <path id="Path_2" data-name="Path 2" d="M614.164,273.069l-10.288-10.287L581.818,284.84,559.76,262.782l-10.288,10.287,22.058,22.058-22.058,22.058,10.288,10.287,22.058-22.058,22.058,22.058,10.288-10.287-22.058-22.058Z" fill="#fff"/>
    </g>
    <g id="Group_180" data-name="Group 180">
      <g id="Group_29" data-name="Group 29">
        <g id="Group_6" data-name="Group 6">
          <g id="Group_5" data-name="Group 5">
            <path id="Path_3" data-name="Path 3" d="M481.906,132.147" fill="none" stroke="#161615" stroke-miterlimit="10" stroke-width="4.975"/>
          </g>
        </g>
        <g id="Group_20" data-name="Group 20">
          <g id="Group_10" data-name="Group 10">
            <g id="Group_7" data-name="Group 7">
              <path id="Path_4" data-name="Path 4" d="M512,120.154a23.33,23.33,0,0,0-.215,6.442l-.078.011c.142,4.827-8.2,25.874-18.831,26.612-8.738.6-19.313-11.929-5.694-37.474a51.074,51.074,0,0,1,15.829-17.913A42.8,42.8,0,0,1,549.28,95.8a31.437,31.437,0,0,1,11.925,11.893c3.713,6.829,7.081,17.344,9.318,28.115.949,4.54,1.7,9.133,2.194,13.51,1.329,11.9.769,22.243-2.847,25.825-7.539,7.452-22.04,3.825-25.884-5.843a18.462,18.462,0,0,0-.687-2.263c-2.337-11.327,7.433-31.673,4.356-35.2,0,0-9.945,22.17-27.715,8.9a20.263,20.263,0,0,1-5.868-6.726c-.13-.249-.259-.508-.388-.766A23.457,23.457,0,0,1,512,120.154Zm24.8,2.356a2.235,2.235,0,0,0-.439-3.943l-1.535-.658-1.543-.668a2.365,2.365,0,0,0-3.368,2.3l.175,1.584.174,1.594a2.457,2.457,0,0,0,3.817,1.643l1.359-.927Zm-9.013-13.363c.449-.969.406-1.921-.084-2.132s-1.243.418-1.693,1.4-.4,1.931.093,2.133S527.347,110.125,527.788,109.147Z" fill="#c2ad8d"/>
            </g>
            <g id="Group_8" data-name="Group 8">
              <path id="Path_5" data-name="Path 5" d="M536.362,118.567a2.235,2.235,0,0,1,.439,3.943l-1.36.927-1.359.927a2.457,2.457,0,0,1-3.817-1.643l-.174-1.594-.175-1.584a2.365,2.365,0,0,1,3.368-2.3l1.543.668Z" fill="#e08797"/>
            </g>
            <g id="Group_9" data-name="Group 9">
              <path id="Path_6" data-name="Path 6" d="M527.7,107.015c.49.211.533,1.163.084,2.132s-1.193,1.6-1.684,1.4-.533-1.164-.093-2.133S527.214,106.813,527.7,107.015Z" fill="#161615"/>
            </g>
          </g>
          <g id="Group_19" data-name="Group 19">
            <g id="Group_11" data-name="Group 11">
              <path id="Path_7" data-name="Path 7" d="M513.684,134.174a.932.932,0,0,1-.841-.528,21.446,21.446,0,0,1-1.987-6.947,24.349,24.349,0,0,1,.221-6.7c1-5.915,3.87-10.956,5.413-13.665l.269-.472a.932.932,0,1,1,1.622.919l-.271.476c-1.486,2.608-4.252,7.462-5.194,13.05a22.539,22.539,0,0,0-.208,6.183,19.317,19.317,0,0,0,1.816,6.346.932.932,0,0,1-.437,1.244A.919.919,0,0,1,513.684,134.174Z" fill="#947667"/>
            </g>
            <g id="Group_12" data-name="Group 12">
              <path id="Path_8" data-name="Path 8" d="M543.986,170.231a.932.932,0,0,1-.906-.716,17.671,17.671,0,0,0-.653-2.149.933.933,0,0,1,1.744-.661,19.642,19.642,0,0,1,.722,2.376.932.932,0,0,1-.69,1.124A.953.953,0,0,1,543.986,170.231Z" fill="#947667"/>
            </g>
            <g id="Group_13" data-name="Group 13">
              <path id="Path_9" data-name="Path 9" d="M559.607,180.049a18.65,18.65,0,0,1-3.826-.4c-5.842-1.223-10.694-5.056-12.661-10a13.606,13.606,0,0,1-.733-2.418c-1.293-6.263.895-14.813,2.824-22.356.97-3.792,2.034-7.951,2.12-10.436-1.941,3.309-6.258,9.305-12.823,11.009-4.837,1.254-9.925-.078-15.125-3.96a21.312,21.312,0,0,1-6.135-7.036c-.133-.255-.261-.512-.39-.77a20.583,20.583,0,0,1-1.032-2.667c-2.379,8.143-9.747,22.506-18.888,23.14-4.008.28-7.868-1.851-10.352-5.685-2.294-3.541-6.518-13.86,3.77-33.158A51.977,51.977,0,0,1,502.471,97.07,43.683,43.683,0,0,1,549.755,95a32.256,32.256,0,0,1,12.27,12.251c3.619,6.656,7.049,17,9.411,28.369.972,4.651,1.715,9.226,2.208,13.6.882,7.9,1.651,21.868-3.118,26.591A15.394,15.394,0,0,1,559.607,180.049ZM547.655,130.9a.933.933,0,0,1,.7.32c1.673,1.921.636,6.386-1.341,14.113-1.786,6.984-4.01,15.676-2.805,21.516a11.679,11.679,0,0,0,.637,2.1c1.743,4.383,6.077,7.782,11.314,8.878,5,1.045,9.874-.2,13.051-3.345,3.075-3.045,4.015-12.178,2.577-25.057-.486-4.311-1.22-8.828-2.181-13.423-2.326-11.2-5.688-21.357-9.224-27.86A30.422,30.422,0,0,0,548.8,96.6a41.816,41.816,0,0,0-45.261,1.994A50.132,50.132,0,0,0,488,116.183c-9.822,18.424-5.966,28-3.851,31.267s5.345,5.071,8.658,4.839c9.83-.682,18.1-21.17,17.963-25.655a.926.926,0,0,1,.126-.5,28.95,28.95,0,0,1,.174-6.1c.011-.112.025-.254.05-.4a.933.933,0,0,1,1.836.329c-.017.092-.025.183-.033.276a22.462,22.462,0,0,0,1.6,12.6c.122.246.246.493.371.732a19.455,19.455,0,0,0,5.6,6.412c4.723,3.526,9.279,4.753,13.54,3.648,8.164-2.118,12.719-12.088,12.764-12.188a.933.933,0,0,1,.714-.541A1.05,1.05,0,0,1,547.655,130.9Z" fill="#947667"/>
            </g>
            <g id="Group_14" data-name="Group 14">
              <path id="Path_10" data-name="Path 10" d="M527.577,132.486a1.675,1.675,0,0,1-1-.363c-.232-.184-.455-.357-.69-.539-2.708-2.1-7.24-5.607-5.917-11.175a.932.932,0,0,1,1.814.431c-1.045,4.4,2.74,7.33,5.244,9.27.155.119.3.235.447.346l.042-.069,3.459-5.5a.933.933,0,1,1,1.579.993l-3.454,5.493a2.054,2.054,0,0,1-1.264,1.089A1.33,1.33,0,0,1,527.577,132.486Z" fill="#503d32"/>
            </g>
            <g id="Group_15" data-name="Group 15">
              <path id="Path_11" data-name="Path 11" d="M532.748,133.785a15.46,15.46,0,0,1-4.957-.873.933.933,0,1,1,.6-1.767c4.011,1.36,7.463.951,10.26-1.217a.932.932,0,1,1,1.142,1.473A11.258,11.258,0,0,1,532.748,133.785Z" fill="#503d32"/>
            </g>
            <g id="Group_16" data-name="Group 16">
              <path id="Path_12" data-name="Path 12" d="M528.19,99.589a.932.932,0,0,1-.429-1.76c.344-.178,3.417-1.725,5.516-1.263a.932.932,0,1,1-.4,1.821c-1.227-.269-3.542.727-4.257,1.1A.929.929,0,0,1,528.19,99.589Z" fill="#503d32"/>
            </g>
            <g id="Group_17" data-name="Group 17">
              <path id="Path_13" data-name="Path 13" d="M553.3,113.014a.934.934,0,0,1-.845-1.327c.715-1.531-1.186-3.2-1.205-3.222a.932.932,0,0,1,1.215-1.414c.122.1,2.995,2.608,1.681,5.425A.934.934,0,0,1,553.3,113.014Z" fill="#503d32"/>
            </g>
            <g id="Group_18" data-name="Group 18">
              <path id="Path_14" data-name="Path 14" d="M532.694,125.723a3.487,3.487,0,0,1-1.464-.326,3.227,3.227,0,0,1-1.891-2.572v0l-.348-3.177a3.118,3.118,0,0,1,1.27-2.876,3.43,3.43,0,0,1,3.393-.384l3.076,1.325a3.229,3.229,0,0,1,1.985,2.672,3.118,3.118,0,0,1-1.389,2.9l-2.719,1.853A3.4,3.4,0,0,1,532.694,125.723Zm-1.5-3.105a1.363,1.363,0,0,0,.82,1.087,1.571,1.571,0,0,0,1.549-.114l2.714-1.851a1.264,1.264,0,0,0,.583-1.183,1.389,1.389,0,0,0-.868-1.135l-3.076-1.326a1.544,1.544,0,0,0-1.543.17,1.26,1.26,0,0,0-.528,1.172Z" fill="#b87d7f"/>
            </g>
          </g>
        </g>
        <g id="Group_22" data-name="Group 22">
          <g id="Group_21" data-name="Group 21">
            <path id="Path_15" data-name="Path 15" d="M545.979,118.407c-.422.981-1.139,1.605-1.6,1.4s-.5-1.16-.078-2.131,1.147-1.6,1.611-1.4S546.41,117.437,545.979,118.407Z" fill="#161615"/>
          </g>
        </g>
        <g id="Group_24" data-name="Group 24">
          <g id="Group_23" data-name="Group 23">
            <ellipse id="Ellipse_3" data-name="Ellipse 3" cx="3.769" cy="3.32" rx="3.769" ry="3.32" transform="translate(540.744 131.819) rotate(-84.51)" fill="#e08797"/>
          </g>
        </g>
        <g id="Group_26" data-name="Group 26">
          <g id="Group_25" data-name="Group 25">
            <ellipse id="Ellipse_4" data-name="Ellipse 4" cx="3.769" cy="3.32" rx="3.769" ry="3.32" transform="translate(516.163 118.907) rotate(-84.51)" fill="#e08797"/>
          </g>
        </g>
        <g id="Group_28" data-name="Group 28">
          <g id="Group_27" data-name="Group 27">
            <path id="Path_16" data-name="Path 16" d="M545.194,150.634a1.025,1.025,0,0,1-.987-1.294c.974-3.544,1.724-16.053,1.731-16.179a1.023,1.023,0,0,1,2.043.121c-.031.523-.771,12.85-1.8,16.6A1.022,1.022,0,0,1,545.194,150.634Z" fill="#947667"/>
          </g>
        </g>
      </g>
      <g id="Group_179" data-name="Group 179">
        <g id="Group_31" data-name="Group 31">
          <g id="Group_30" data-name="Group 30">
            <path id="Path_17" data-name="Path 17" d="M511.243,68.709a.611.611,0,0,1-.579-.421c-.041-.129-.092-.257-.14-.376l0-.006a.326.326,0,0,0-.353-.2.609.609,0,0,1-.719-.648,1.529,1.529,0,0,1,.734-1.186,6.991,6.991,0,0,1,.939-.475.61.61,0,0,1,.85.524l.02.347c.022.363.042.7.055,1.014a2.552,2.552,0,0,1-.142,1,.606.606,0,0,1-.245.306.891.891,0,0,1-.266.109A.6.6,0,0,1,511.243,68.709Z" fill="#161615"/>
          </g>
        </g>
        <g id="Group_33" data-name="Group 33">
          <g id="Group_32" data-name="Group 32">
            <path id="Path_18" data-name="Path 18" d="M405.05,111.4l-.041,0a.6.6,0,0,1-.471-.277l-.277-.429c-.269-.416-.545-.843-.824-1.285a.609.609,0,0,1,.065-.738c.28-.305.486-.5.574-.586l.052-.051a1.6,1.6,0,0,1,1.819-.229.714.714,0,0,1,.073.037.637.637,0,0,1,.206.2h0c.159.252.3.474.436.687a.606.606,0,0,1,.086.215,1.562,1.562,0,0,1-.46,1.408l-.042.042c-.094.093-.381.377-.733.79A.61.61,0,0,1,405.05,111.4Zm-.329-2.243q.207.322.409.635c.121-.126.212-.216.259-.262l0,0s-.024.029-.051.071a.6.6,0,0,1,.1-.119.37.37,0,0,0,.114-.217c-.086-.136-.174-.274-.261-.413a.377.377,0,0,0-.348.089C404.891,108.994,404.816,109.066,404.721,109.162Zm.615.45h0Zm0,0h0Zm0,0h0Zm0-.007h0Z" fill="#161615"/>
          </g>
        </g>
        <g id="Group_35" data-name="Group 35">
          <g id="Group_34" data-name="Group 34">
            <path id="Path_19" data-name="Path 19" d="M510.994,68.743a1.55,1.55,0,0,1-1.544-1.7.609.609,0,0,1,.495-.537,1.538,1.538,0,0,1,1.709.953c.059.144.118.3.169.454a.609.609,0,0,1-.414.775A1.521,1.521,0,0,1,510.994,68.743Z" fill="#161615"/>
          </g>
        </g>
        <g id="Group_37" data-name="Group 37">
          <g id="Group_36" data-name="Group 36">
            <path id="Path_20" data-name="Path 20" d="M480.819,139.365" fill="none" stroke="#161615" stroke-linecap="round" stroke-linejoin="round" stroke-width="2.222"/>
          </g>
        </g>
        <g id="Group_39" data-name="Group 39">
          <g id="Group_38" data-name="Group 38">
            <path id="Path_21" data-name="Path 21" d="M510.307,69.408a1.874,1.874,0,0,1-1.492-.772.591.591,0,0,1-.113-.237l0-.009a1.56,1.56,0,0,1,.946-1.806,1.262,1.262,0,0,1,.346-.087.609.609,0,0,1,.672.667.331.331,0,0,0,.416.349.609.609,0,0,1,.678.259.88.88,0,0,1,.11.266.611.611,0,0,1-.048.428,1.76,1.76,0,0,1-1,.866A1.719,1.719,0,0,1,510.307,69.408Z" fill="#161615"/>
          </g>
        </g>
        <g id="Group_41" data-name="Group 41">
          <g id="Group_40" data-name="Group 40">
            <path id="Path_22" data-name="Path 22" d="M512.718,84.234a.611.611,0,0,1-.607-.557,54,54,0,0,0-3.334-15.053,1.164,1.164,0,0,1-.07-.2.615.615,0,0,1,.317-.7.607.607,0,0,1,.75.165.606.606,0,0,0,.671.288.525.525,0,0,0,.289-.26.623.623,0,0,1,.574-.331.611.611,0,0,1,.537.389,56.19,56.19,0,0,1,3.24,14.358.609.609,0,0,1-.237.545,3.869,3.869,0,0,1-.413.279l-.054.031a.322.322,0,0,0-.19.314.61.61,0,0,1-.56.67l-.866.066A.362.362,0,0,1,512.718,84.234Zm-2.342-14.827a56.024,56.024,0,0,1,2.86,13.2,1.584,1.584,0,0,1,.578-.508l.022-.013a55.8,55.8,0,0,0-2.815-12.842,1.627,1.627,0,0,1-.2.084A1.7,1.7,0,0,1,510.376,69.407Zm-.509-1.325h0Z" fill="#161615"/>
          </g>
        </g>
        <g id="Group_43" data-name="Group 43">
          <g id="Group_42" data-name="Group 42">
            <path id="Path_23" data-name="Path 23" d="M511.276,68.8a.507.507,0,0,1-.086-.007.7.7,0,1,1,.7-.488,1.53,1.53,0,0,1-.094.2A.61.61,0,0,1,511.276,68.8Zm-.546-.371Zm.5-.394h0l-.124-.527-.011,0Zm-.222-.48h0Z" fill="#161615"/>
          </g>
        </g>
        <g id="Group_45" data-name="Group 45">
          <g id="Group_44" data-name="Group 44">
            <path id="Path_24" data-name="Path 24" d="M514.5,85.024a1.527,1.527,0,0,1-1.374-.86,1.32,1.32,0,0,1-.149-.571,1.53,1.53,0,0,1,.838-1.49,3.059,3.059,0,0,0,.295-.2.61.61,0,0,1,.976.418c.075.686.132,1.375.169,2.048a.609.609,0,0,1-.513.636A1.666,1.666,0,0,1,514.5,85.024Z" fill="#161615"/>
          </g>
        </g>
        <g id="Group_47" data-name="Group 47">
          <g id="Group_46" data-name="Group 46">
            <path id="Path_25" data-name="Path 25" d="M429.219,94.792a.609.609,0,0,1-.609-.617,9.017,9.017,0,0,1,.3-2.18.612.612,0,0,1,.424-.431c.765-.216,1.5-.424,2.255-.645a.609.609,0,0,1,.72.85,5.933,5.933,0,0,0-.56,1.94.607.607,0,0,1-.437.518c-.3.086-.589.168-.88.25-.306.086-.61.171-.911.258l-.144.038A.611.611,0,0,1,429.219,94.792ZM430,92.64q-.076.358-.12.724l.215-.06.492-.139a7.145,7.145,0,0,1,.166-.738Z" fill="#161615"/>
          </g>
        </g>
        <g id="Group_49" data-name="Group 49">
          <g id="Group_48" data-name="Group 48">
            <path id="Path_26" data-name="Path 26" d="M430.2,96.7a1.565,1.565,0,0,1-1.553-1.392,9.452,9.452,0,0,1-.041-1.138.61.61,0,0,1,.457-.573l.119-.031c.3-.087.6-.172.912-.258q.432-.122.872-.247a.609.609,0,0,1,.774.652,6.112,6.112,0,0,0-.007,1.283,1.549,1.549,0,0,1-1.158,1.655,1.248,1.248,0,0,1-.13.026.755.755,0,0,1-.106.017C430.3,96.694,430.25,96.7,430.2,96.7Zm-.375-2.051c.006.176.017.356.035.538a.317.317,0,0,0,.344.295l.059-.01a.34.34,0,0,0,.257-.362c-.021-.214-.033-.43-.035-.646l-.062.017Zm-.482-.495h0Z" fill="#161615"/>
          </g>
        </g>
        <g id="Group_51" data-name="Group 51">
          <g id="Group_50" data-name="Group 50">
            <path id="Path_27" data-name="Path 27" d="M429.523,92.75a.626.626,0,0,1-.437-.17.612.612,0,0,1-.181-.586c1.38-5.188,6.886-7.689,7.509-7.957a1.549,1.549,0,0,1,2.031.8.609.609,0,0,1-.117.668L432.2,91.924a.619.619,0,0,1-.269.164c-.756.222-1.5.432-2.229.639A.647.647,0,0,1,429.523,92.75Zm2.233-1.247h0ZM437,85.133a.338.338,0,0,0-.111.026c-.2.087-4.753,2.085-6.443,6.089.327-.094.653-.187.981-.284Z" fill="#161615"/>
          </g>
        </g>
        <g id="Group_53" data-name="Group 53">
          <g id="Group_52" data-name="Group 52">
            <path id="Path_28" data-name="Path 28" d="M485.52,138.477" fill="#b87d7f" stroke="#b87d7f" stroke-miterlimit="10" stroke-width="2.222"/>
          </g>
        </g>
        <g id="Group_55" data-name="Group 55">
          <g id="Group_54" data-name="Group 54">
            <path id="Path_29" data-name="Path 29" d="M480.169,139.934" fill="#b87d7f" stroke="#b87d7f" stroke-miterlimit="10" stroke-width="2.222"/>
          </g>
        </g>
        <g id="Group_58" data-name="Group 58">
          <g id="Group_57" data-name="Group 57">
            <g id="Group_56" data-name="Group 56">
              <path id="Path_30" data-name="Path 30" d="M474.108,33.1l.26,1.015a1.241,1.241,0,0,0,.415.55,2.538,2.538,0,0,0,.741.533,4.937,4.937,0,0,0,1.054.44,5.6,5.6,0,0,0,1.177.3l.735.071a3.317,3.317,0,0,0,1.172-.141l.374-.2a.554.554,0,0,0,.173-.636l-.26-1.015a1.242,1.242,0,0,0-.415-.55,2.537,2.537,0,0,0-.741-.533,4.988,4.988,0,0,0-1.054-.44,5.6,5.6,0,0,0-1.177-.3l-.735-.071a3.317,3.317,0,0,0-1.172.141l-.374.205a.552.552,0,0,0-.173.635Z" fill="#eac46d"/>
            </g>
          </g>
        </g>
        <g id="Group_61" data-name="Group 61">
          <g id="Group_60" data-name="Group 60">
            <g id="Group_59" data-name="Group 59">
              <path id="Path_31" data-name="Path 31" d="M490.507,42.051l2.916,2.5c.4.347.812.693,1.216,1.042.2.176.41.353.611.535.065.059.5.49.363.342,1.128,1.191,1.526,2.988,2.614,4.362A5.527,5.527,0,0,0,501,52.739c.458.131.959.122,1.406.283q-.24-.109.068.053c-.184-.117-.178-.1.015.053l-.109-.1c.089.1.173.205.254.312-.178-.237.135.216.165.266.139.234.267.474.395.714.253.472.5.945.752,1.418L505.7,59.05a2.541,2.541,0,0,0,2.468,1.373c.968-.19,1.047-1.208.655-1.947a54.018,54.018,0,0,0-3.518-6.377,5.988,5.988,0,0,0-2.947-2.253,8.149,8.149,0,0,0-1.52-.317q-.246-.081.036.025c-.2-.12-.194-.111.035.027-.177-.156-.167-.144.029.034-.056-.063-.109-.129-.159-.2-.083-.11-.069-.089.041.065-.062-.1-.121-.2-.178-.3-.087-.157-.168-.317-.247-.479-.188-.384-.357-.777-.541-1.162a9.87,9.87,0,0,0-1.85-2.648c-1.764-1.805-3.8-3.371-5.716-5.011-.61-.522-1.848-.95-2.461-.2-.63.768.079,1.86.679,2.374Z" fill="#eac46d"/>
            </g>
          </g>
        </g>
        <g id="Group_64" data-name="Group 64">
          <g id="Group_63" data-name="Group 63">
            <g id="Group_62" data-name="Group 62">
              <path id="Path_32" data-name="Path 32" d="M403.76,77.066c2.877-3.731,5.649-7.593,6.292-12.386a22.164,22.164,0,0,1,1.367-6.409,14.533,14.533,0,0,1,3.283-4.624,14.021,14.021,0,0,1,5.553-3.232c.93-.282.767-1.368.284-1.972a2.641,2.641,0,0,0-2.656-.952,16.378,16.378,0,0,0-9.46,7.7,16.763,16.763,0,0,0-1.9,6.147,31.3,31.3,0,0,1-.573,3.855,15.158,15.158,0,0,1-1.2,3.124,42.325,42.325,0,0,1-4.528,6.736c-.586.76.5,1.847,1.1,2.182a1.858,1.858,0,0,0,2.435-.173Z" fill="#eac46d"/>
            </g>
          </g>
        </g>
        <g id="Group_67" data-name="Group 67">
          <g id="Group_66" data-name="Group 66">
            <g id="Group_65" data-name="Group 65">
              <path id="Path_33" data-name="Path 33" d="M424.357,49.994a31.8,31.8,0,0,0,5.4-3.743c1.513-1.3,2.89-2.84,4.786-3.589.488-.193.71-1.034.707-1.475a4.013,4.013,0,0,0-.454-1.771,4.216,4.216,0,0,0-1.206-1.54,2.859,2.859,0,0,0-1.717-.594c-3.888-.136-6.74,2.988-9.036,5.7a2.408,2.408,0,0,0-.262,1.8,4.516,4.516,0,0,0,1.053,2.107c.794.848,2.2,1.7,3.143.579a32,32,0,0,1,2.417-2.643l-.384.36a10.144,10.144,0,0,1,3.375-2.157l-.5.175a6.538,6.538,0,0,1,2.364-.368l-2.67-5.381c-1.9.75-3.273,2.288-4.786,3.59a31.655,31.655,0,0,1-5.4,3.742,1.757,1.757,0,0,0-.707,1.475,4.021,4.021,0,0,0,.635,2.135c.628.969,1.97,2.294,3.239,1.6Z" fill="#eac46d"/>
            </g>
          </g>
        </g>
        <g id="Group_70" data-name="Group 70">
          <g id="Group_69" data-name="Group 69">
            <g id="Group_68" data-name="Group 68">
              <path id="Path_34" data-name="Path 34" d="M424.477,101.447a12.038,12.038,0,0,0-3.842,4.394,13.207,13.207,0,0,0-1.291,5.7,4.771,4.771,0,0,1-.8,2.954,4.314,4.314,0,0,1-1.9,1.25c-.453.164-.922.3-1.386.429-.076.02-.312.081-.443.112-.432.105-.256.055-.164.038-.042.008-.349.024-.159.023a3.844,3.844,0,0,1-2.315-1.085,34.943,34.943,0,0,1-5.155-6.2c-.443-.636-4.164.085-4,.693.751,2.824,3.1,4.776,5.386,6.4a11.12,11.12,0,0,0,4.058,2.138,8.183,8.183,0,0,0,5.947-1.136c1.014-.74,1.639-1.88,2.645-2.615a5.215,5.215,0,0,1,1.575-.5,5.252,5.252,0,0,0,2.174-1.15c1.773-1.711,1.164-4.829,1.646-7.016a10.856,10.856,0,0,1,5.683-7.283c.792-.4-.636-.515-.828-.509a6.6,6.6,0,0,0-2.709.64,11.66,11.66,0,0,0-5.27,5.325,11.3,11.3,0,0,0-1.048,3.518c-.141,1.159-.128,2.333-.335,3.485A3.573,3.573,0,0,1,420.5,113.6c.082-.054.509-.122.008-.021-.146.029-.293.063-.438.1a11.684,11.684,0,0,0-1.309.385,5.54,5.54,0,0,0-1.778,1.035,12.314,12.314,0,0,0-1.131,1.2c-.2.229-.4.458-.621.672a6.669,6.669,0,0,0-.652.52c-.043.058,1.329-.256,1.361-.236a1.787,1.787,0,0,0-.424-.1,5.341,5.341,0,0,1-.941-.392,16.418,16.418,0,0,1-1.924-1.213c-2.371-1.659-4.851-3.556-5.63-6.485l-4,.693a43.007,43.007,0,0,0,5.01,6.112,5.3,5.3,0,0,0,3.283,1.585,14.253,14.253,0,0,0,4.721-.455,26.891,26.891,0,0,0,3.721-1.148,6.477,6.477,0,0,0,2.693-1.773,5.258,5.258,0,0,0,.9-3.225,14.513,14.513,0,0,1,.413-3.412,11.229,11.229,0,0,1,4.254-6.118c.686-.486-.541-.518-.827-.509a5.437,5.437,0,0,0-2.709.64Z" fill="#eac46d"/>
            </g>
          </g>
        </g>
        <g id="Group_73" data-name="Group 73">
          <g id="Group_72" data-name="Group 72">
            <g id="Group_71" data-name="Group 71">
              <path id="Path_35" data-name="Path 35" d="M430.613,100.31a16.209,16.209,0,0,0,7.878-3.661,10.46,10.46,0,0,0,2.339-2.792,1.97,1.97,0,0,0-.014-2.009,3.034,3.034,0,0,0-1.766-1.21,7.131,7.131,0,0,0-4.752.418,5.157,5.157,0,0,0-2.22,1.766c-.253.378-.445.731-.134,1.154a2.348,2.348,0,0,0,1.516.648,5.846,5.846,0,0,0,2.342-.21,3.241,3.241,0,0,0,1.7-.936,3.644,3.644,0,0,1,.406-.513c.3-.308-.118.048-.117.086.047-.036.1-.07.144-.1q.252-.163-.322.172c.4-.2-.567.174-.656.193a4.487,4.487,0,0,1-1.41.1q-.684-.164-.395-.073c.161.053.069.013-.278-.122a2.273,2.273,0,0,0,.258.166l-.356-.3a1.534,1.534,0,0,1,.374.458l-.166-.366a1.2,1.2,0,0,1,.093.6l.05-.4a2.148,2.148,0,0,1-.287.709l.251-.39a10.257,10.257,0,0,1-1.366,1.681q-.189.19-.388.372c-.058.054-.119.106-.178.159-.2.179.4-.325.107-.093s-.566.438-.865.637q-.2.132-.4.257c-.085.051-.172.1-.257.151-.259.156.53-.28.261-.145-.321.161-.64.321-.972.459-.092.038-.185.074-.277.111-.35.142.346-.137.361-.132-.092-.03-.4.132-.512.164-.172.05-.345.1-.519.139-.391.1.449-.1.444-.1-.118.018-.236.046-.353.067a5.217,5.217,0,0,0-2.065.747c-.3.212-.84.694-.726,1.152.3,1.183,2.358,1.132,3.231.977Z" fill="#eac46d"/>
            </g>
          </g>
        </g>
        <g id="Group_76" data-name="Group 76">
          <g id="Group_75" data-name="Group 75">
            <g id="Group_74" data-name="Group 74">
              <path id="Path_36" data-name="Path 36" d="M477.162,33.2c-3.694-2.3-8.6-4.541-12.922-2.612-1.131.5.3,2.115.787,2.546a6.348,6.348,0,0,0,1.981,1.266,2.268,2.268,0,0,0,1.591.187,7.1,7.1,0,0,1,1.2-.42,4.4,4.4,0,0,1,1.009-.135,9.656,9.656,0,0,1,1.284.03c-.469-.039.284.048.37.065q.315.06.627.14c.139.035.825.161.193.043a3.687,3.687,0,0,1,.621.224c.2.079.408.164.61.252.115.051.23.1.344.156q-.531-.257-.241-.113c.813.427,1.606.874,2.386,1.359a3.747,3.747,0,0,0,1.827.579c.376-.015.827-.181.837-.636.031-1.281-1.587-2.358-2.506-2.931Z" fill="#eac46d"/>
            </g>
          </g>
        </g>
        <g id="Group_79" data-name="Group 79">
          <g id="Group_78" data-name="Group 78">
            <g id="Group_77" data-name="Group 77">
              <path id="Path_37" data-name="Path 37" d="M451.188,35.82c3.628-1.655,7.61-1.309,11.488-1.379a30.021,30.021,0,0,0,6.246-.709c2.175-.5,4.324-1.127,6.479-1.7,1.858-.5-.2-3.969-1.834-3.53-2.156.577-4.3,1.2-6.479,1.7a27.56,27.56,0,0,1-5.978.656c-3.939.04-8.08-.246-11.757,1.431-.864.394-.808,1.354-.417,2.111.318.616,1.4,1.807,2.252,1.42Z" fill="#eac46d"/>
            </g>
          </g>
        </g>
        <g id="Group_98" data-name="Group 98">
          <g id="Group_97" data-name="Group 97">
            <g id="Group_96" data-name="Group 96">
              <g id="Group_84" data-name="Group 84">
                <g id="Group_80" data-name="Group 80">
                  <path id="Path_38" data-name="Path 38" d="M519.172,85.07c1.081,1.24,2.859,2.907,2.4,5.617-1.372,7.866-5.717,9.4-7.576,10a71.889,71.889,0,0,0,.759-7.675c0-.118.016-.231.013-.339.089-1.616.1-3.2.041-4.715,0-.1,0-.2-.007-.292-.023-1.1-.076-2.195-.158-3.264-.039-.057-.087-.112-.125-.161-.019-.171-.039-.35-.066-.52a.649.649,0,0,0,.122-.115.639.639,0,0,0,.216-.038A5.164,5.164,0,0,1,519.172,85.07Z" fill="#efbbad"/>
                </g>
                <g id="Group_81" data-name="Group 81">
                  <path id="Path_39" data-name="Path 39" d="M514.515,84.242c.038.049.086.1.125.161a.465.465,0,0,1-.106.01Z" fill="#efbbad"/>
                </g>
                <g id="Group_82" data-name="Group 82">
                  <path id="Path_40" data-name="Path 40" d="M514.534,84.413c.126,1.05.22,2.133.264,3.254.006.091.007.191.007.292.037,1.55.029,3.12-.041,4.715,0,.108-.01.221-.013.339a62.881,62.881,0,0,1-.983,7.749c.069-.026.148-.046.224-.074a62.829,62.829,0,0,1-7.4,21.864c-4.035,7.031-12.311,12.892-23.623,16.823q-1.652.525-3.5.965c-1.444.353-2.971.678-4.559.959-11.767,2.127-26.626,2.33-34.491.11-8.868-2.5-16.5-8.376-21.258-13.177-1.463-1.487-2.742-2.912-3.846-4.206l-.071-.015c.006-.044.014-.079.019-.122-1.57-1.971-2.216-4.917-2.544-5.412l-.616-2.173c-1.413-1.03.512.2-3.311-5.525a2.832,2.832,0,0,0-1.006-1.043c.231-1.359,23.4-131.646,106.726-25.494Z" fill="#efbbad"/>
                </g>
                <g id="Group_83" data-name="Group 83">
                  <path id="Path_41" data-name="Path 41" d="M415.266,123.889c-.005.043-.013.078-.019.122-.536,3.962-6.97-.268-11.23-3.831a5.844,5.844,0,0,1-2.4-4.366c-.051-1.932,3.593-7.512,6.167-6.076l.007,0a2.832,2.832,0,0,1,1.006,1.043c3.823,5.721,1.9,4.5,3.311,5.525l.616,2.173C413.05,118.972,413.7,121.918,415.266,123.889Z" fill="#efbbad"/>
                </g>
              </g>
              <g id="Group_95" data-name="Group 95">
                <g id="Group_85" data-name="Group 85">
                  <path id="Path_42" data-name="Path 42" d="M415.319,124.636a.627.627,0,0,1-.128-.014l-.071-.015a.609.609,0,0,1,.255-1.192l.071.015a.61.61,0,0,1-.127,1.206Z" fill="#b87d7f"/>
                </g>
                <g id="Group_86" data-name="Group 86">
                  <path id="Path_43" data-name="Path 43" d="M514.534,85.023a.611.611,0,0,1-.606-.541l-.019-.178a.61.61,0,0,1,1.213-.124l.018.165a.61.61,0,0,1-.538.674A.526.526,0,0,1,514.534,85.023Z" fill="#161615"/>
                </g>
                <g id="Group_87" data-name="Group 87">
                  <path id="Path_44" data-name="Path 44" d="M514.8,88.276a.608.608,0,0,1-.608-.585c-.041-1.047-.126-2.1-.26-3.205a.609.609,0,0,1,1.21-.145c.138,1.142.225,2.223.267,3.3a.609.609,0,0,1-.584.633Z" fill="#b87d7f"/>
                </g>
                <g id="Group_88" data-name="Group 88">
                  <path id="Path_45" data-name="Path 45" d="M514.765,93.283h-.034a.609.609,0,0,1-.575-.642c.088-1.6.1-3.168.04-4.656a.61.61,0,0,1,1.218-.051c.063,1.527.049,3.133-.041,4.774A.61.61,0,0,1,514.765,93.283Z" fill="#161615"/>
                </g>
                <g id="Group_89" data-name="Group 89">
                  <path id="Path_46" data-name="Path 46" d="M513.8,101.846a1.111,1.111,0,0,1-.712-.251,1.1,1.1,0,0,1-.4-1.037,62.064,62.064,0,0,0,.965-7.614,1.1,1.1,0,1,1,2.189.137c-.123,1.962-.346,3.962-.665,5.969,1.878-.92,4.339-3,5.308-8.552.331-1.939-.814-3.22-1.824-4.349-.111-.124-.218-.243-.319-.359a3.774,3.774,0,0,0-2.8-1.166,1.1,1.1,0,0,1-2.119-.262c-.017-.154-.035-.316-.059-.468a1.1,1.1,0,0,1,.395-1.026,1.188,1.188,0,0,1,.723-.354l.03-.008A6.228,6.228,0,0,1,520,84.35c.094.108.2.22.3.336,1.139,1.274,2.86,3.2,2.351,6.185-1.51,8.654-6.457,10.257-8.32,10.86-.015.007-.07.024-.124.042A1.152,1.152,0,0,1,513.8,101.846Zm.6-19.3h0Zm.163-.032h0Z" fill="#b87d7f"/>
                </g>
                <g id="Group_90" data-name="Group 90">
                  <path id="Path_47" data-name="Path 47" d="M413.576,126.692c-3,0-7.6-3.439-10.263-5.671a6.9,6.9,0,0,1-2.795-5.184c-.047-1.791,2.054-5.417,4.35-6.806a3.289,3.289,0,0,1,3.336-.31,1.048,1.048,0,0,1,.117.056,3.915,3.915,0,0,1,1.411,1.432c2.267,3.392,2.593,4.476,2.738,5,.062.049.156.119.282.211a1.092,1.092,0,0,1,.409.588l.581,2.05a9.117,9.117,0,0,1,.407,1.057,14.308,14.308,0,0,0,1.975,4.093,1.091,1.091,0,0,1,.229.831l-.015.1a2.7,2.7,0,0,1-1.679,2.373A2.969,2.969,0,0,1,413.576,126.692ZM406.884,110.6a1.755,1.755,0,0,0-.881.307c-1.739,1.052-3.315,3.99-3.292,4.877a4.759,4.759,0,0,0,2.01,3.554c4.648,3.887,8.124,5.517,9.144,5.122.048-.018.154-.059.233-.3a17.386,17.386,0,0,1-2.022-4.328c-.1-.3-.235-.678-.287-.777a.876.876,0,0,1-.122-.276l-.515-1.817a1.888,1.888,0,0,1-.787-1.136c-.1-.338-.346-1.238-2.482-4.435a2.061,2.061,0,0,0-.567-.657c-.023-.011-.046-.022-.069-.035A.691.691,0,0,0,406.884,110.6Z" fill="#b87d7f"/>
                </g>
                <g id="Group_91" data-name="Group 91">
                  <path id="Path_48" data-name="Path 48" d="M455.614,144.093a61.032,61.032,0,0,1-15.49-1.628c-10.509-2.961-18.7-10.4-21.739-13.461-1.329-1.351-2.605-2.746-3.9-4.266a1.1,1.1,0,1,1,1.669-1.424c1.262,1.481,2.5,2.838,3.793,4.148,2.91,2.935,10.766,10.072,20.774,12.892,7.4,2.089,22.018,2.032,34-.134,1.521-.27,3.032-.587,4.493-.945,1.176-.278,2.328-.6,3.432-.945a1.1,1.1,0,0,1,.662,2.091c-1.155.367-2.36.7-3.581.987-1.5.366-3.056.694-4.62.971A112.677,112.677,0,0,1,455.614,144.093Z" fill="#b87d7f"/>
                </g>
                <g id="Group_92" data-name="Group 92">
                  <path id="Path_49" data-name="Path 49" d="M482.974,140.473a1.1,1.1,0,0,1-.36-2.133c11.161-3.879,19.125-9.527,23.032-16.334a61.276,61.276,0,0,0,7.262-21.482,71.18,71.18,0,0,0,.747-7.561c0-.04,0-.1.008-.158,0-.036.006-.07.005-.1s0-.05,0-.075c.065-1.508.078-3.027.04-4.641,0-.1,0-.172-.006-.24l0-.055c-.022-1.065-.074-2.142-.154-3.2a1.1,1.1,0,1,1,2.187-.166c.083,1.094.137,2.2.16,3.3.006.1.007.219.008.333.039,1.633.026,3.189-.04,4.738,0,.082-.005.166-.01.252l-.005.1a73.43,73.43,0,0,1-.771,7.812,63.444,63.444,0,0,1-7.527,22.243c-4.174,7.272-12.547,13.259-24.215,17.314A1.107,1.107,0,0,1,482.974,140.473Z" fill="#b87d7f"/>
                </g>
                <g id="Group_93" data-name="Group 93">
                  <path id="Path_50" data-name="Path 50" d="M514.481,85.024a1.544,1.544,0,0,1-1.36-.849.609.609,0,0,1,1.086-.553.335.335,0,0,0,.3.183.6.6,0,0,1,.731.441.621.621,0,0,1-.448.747,1.073,1.073,0,0,1-.254.03Z" fill="#161615"/>
                </g>
                <g id="Group_94" data-name="Group 94">
                  <path id="Path_51" data-name="Path 51" d="M407.788,110.346a.609.609,0,0,1-.154-1.2l.008,0a.61.61,0,1,1,.3,1.183A.633.633,0,0,1,407.788,110.346Z" fill="#b87d7f"/>
                </g>
              </g>
            </g>
          </g>
        </g>
        <g id="Group_100" data-name="Group 100">
          <g id="Group_99" data-name="Group 99">
            <path id="Path_52" data-name="Path 52" d="M411.375,116.491" fill="#efbbad" stroke="#161615" stroke-linecap="round" stroke-linejoin="round" stroke-width="2.222"/>
          </g>
        </g>
        <g id="Group_178" data-name="Group 178">
          <g id="Group_102" data-name="Group 102">
            <g id="Group_101" data-name="Group 101">
              <path id="Path_53" data-name="Path 53" d="M485.9,70.517a.929.929,0,0,1-.02,1.326.945.945,0,0,1-1.336-.027c-4-4.15-10.633-.915-10.7-.887a.927.927,0,0,1-1.252-.417.938.938,0,0,1,.423-1.264C473.33,69.089,480.951,65.378,485.9,70.517Z" fill="#f6d276"/>
            </g>
          </g>
          <g id="Group_104" data-name="Group 104">
            <g id="Group_103" data-name="Group 103">
              <ellipse id="Ellipse_5" data-name="Ellipse 5" cx="4.787" cy="5.046" rx="4.787" ry="5.046" transform="translate(435.41 113.669) rotate(-14.377)" fill="#e85b44"/>
            </g>
          </g>
          <g id="Group_106" data-name="Group 106">
            <g id="Group_105" data-name="Group 105">
              <ellipse id="Ellipse_6" data-name="Ellipse 6" cx="4.787" cy="5.046" rx="4.787" ry="5.046" transform="translate(491.03 99.033) rotate(-14.377)" fill="#e85b44"/>
            </g>
          </g>
          <g id="Group_108" data-name="Group 108">
            <g id="Group_107" data-name="Group 107">
              <path id="Path_54" data-name="Path 54" d="M475.555,38.663c.462,5.635-.795,25.884-11.172,31.9a9.389,9.389,0,0,0-3.674,3.842c-1.929,3.776-6.2,10.321-13.513,12.765a9.517,9.517,0,0,0-4.675,3.51c-2.261,3.142-6.661,7.943-12.976,9.007a9.856,9.856,0,0,0-8.009,9.05c-.165,2.054,1.057,4.766-1.517,5.709l-2.918,1.069a9.622,9.622,0,0,1-10.7-2.871c-5.054-6.058-13.606-23.338-8.836-30.918,3.852-6.122,6.165-9.1,7.837-10.563a9.743,9.743,0,0,0,3.256-7.041c.165-5.425,1.559-13.14,7.881-15.221a9.549,9.549,0,0,0,4.8-3.52c2.542-3.568,9.158-5.422,15.915-5.712a9.779,9.779,0,0,0,7.168-3.412c2.44-2.934,6.651-2.954,11.719-2.241a9.434,9.434,0,0,0,5.2-.8c3.732-1.692,10.281-3.607,13.241,1.937A8.977,8.977,0,0,1,475.555,38.663Z" fill="#f6d276"/>
            </g>
          </g>
          <g id="Group_110" data-name="Group 110">
            <g id="Group_109" data-name="Group 109">
              <path id="Path_55" data-name="Path 55" d="M473.113,35.294S489.027,35.28,493.348,42s5.069,9.642,5.069,9.642,5.334-2.962,10.059,6.532,4.6,11.642,4.6,11.642,7.8,14.68,2.341,15.458-11.67-11.3-10.578-13.114c0,0-11.89,1.9-15.907-6.021l-4.017-7.924a10.273,10.273,0,0,1-10.873-.873" fill="#f6d276"/>
            </g>
          </g>
          <g id="Group_113" data-name="Group 113">
            <g id="Group_112" data-name="Group 112">
              <g id="Group_111" data-name="Group 111">
                <path id="Path_56" data-name="Path 56" d="M480.271,48.228a10.8,10.8,0,0,0,5.053,3.815,11.278,11.278,0,0,0,3.09.671c.324.023.649.04.975.038a2.953,2.953,0,0,1,.62-.023c.285.1.309.946.381,1.268a9.261,9.261,0,0,0,3.389,5.385,8.432,8.432,0,0,0,6.765,1.378,3.807,3.807,0,0,0,2.438-1.364c.46-.764-.618-.809-1.1-.707a6.2,6.2,0,0,1-5.337-1.8,8.108,8.108,0,0,1-1.726-2.451,14.115,14.115,0,0,1-.855-2.877c-.3-1.252-1.6-.952-2.591-.975a8.974,8.974,0,0,1-2.689-.505A9.872,9.872,0,0,1,484,46.617c-.748-1.024-4.28.858-3.729,1.611Z" fill="#eac46d"/>
              </g>
            </g>
          </g>
          <g id="Group_116" data-name="Group 116">
            <g id="Group_115" data-name="Group 115">
              <g id="Group_114" data-name="Group 114">
                <path id="Path_57" data-name="Path 57" d="M450.462,71.223a13.01,13.01,0,0,0,7.927-2.279,10.523,10.523,0,0,0,2.532-2.551c.654-.928.938-2.211,1.728-3.022a4.3,4.3,0,0,1,1.417-.749,13.443,13.443,0,0,0,1.683-.878,14.648,14.648,0,0,0,3.065-2.492,12.3,12.3,0,0,0,3.228-6.219,6.739,6.739,0,0,0-2.212-6.618,3.275,3.275,0,0,0-2.794-.183c-.58.2-1.377.776-.653,1.343a5.49,5.49,0,0,1,1.7,4.942,10.282,10.282,0,0,1-2.409,5.5,13.675,13.675,0,0,1-5.171,3.687,4.942,4.942,0,0,0-2.494,2.533,10.054,10.054,0,0,1-1.593,2.57,8.546,8.546,0,0,1-2.668,1.972,5.486,5.486,0,0,1-.62.243c-.1.032-.191.061-.286.093-.558.184.28-.037-.3.078-.107.022-.8.131-.452.093-.132.014-.266.024-.4.031-.079,0-.647,0-.261.012-.709-.017-2.107.013-2.457.806-.342.777,1,1.078,1.483,1.09Z" fill="#eac46d"/>
              </g>
            </g>
          </g>
          <g id="Group_119" data-name="Group 119">
            <g id="Group_118" data-name="Group 118">
              <g id="Group_117" data-name="Group 117">
                <path id="Path_58" data-name="Path 58" d="M429.414,77.087c.655,2.31,1.437,5.452-.107,7.591-.06.084-.258.407-.344.391-.012,0,.641-.288.367-.259-.368.038-1.049.3-1.545.378-1.276.2-2.569.241-3.853.372a6.87,6.87,0,0,0-4.988,2.743,5.592,5.592,0,0,0-.632,1.8q-.291,1.287-.579,2.575c-.152.679-.282,1.371-.5,2.034a3.956,3.956,0,0,1-.375.859c-.534.865.181-.2.218,0,0-.018.489-.171-.126.05.059-.022-.242.083-.194.067a7.6,7.6,0,0,1-.984.266,8.188,8.188,0,0,1-2.273.164,5.542,5.542,0,0,1-3.948-1.9,4.177,4.177,0,0,1-.886-3.964c.2-.609-1.442.139-1.549.195-.628.328-1.686.89-1.928,1.63-.992,3.032,1.605,5.761,4.456,6.257a10.635,10.635,0,0,0,5.066-.5,10.776,10.776,0,0,0,5.165-3.317c1.016-1.316,1.212-3.125,1.566-4.7a24.14,24.14,0,0,1,.6-2.539c.035-.1.08-.2.116-.3.356-1-2.631,1.021-1.448.935.408-.029.817-.09,1.225-.124a27.73,27.73,0,0,0,4.55-.595,11.793,11.793,0,0,0,4.987-2.695,6.387,6.387,0,0,0,2.162-4.489,15.85,15.85,0,0,0-.768-5.073c-.123-.434-3.733,1.149-3.452,2.141Z" fill="#eac46d"/>
              </g>
            </g>
          </g>
          <g id="Group_122" data-name="Group 122">
            <g id="Group_121" data-name="Group 121">
              <g id="Group_120" data-name="Group 120">
                <path id="Path_59" data-name="Path 59" d="M441.361,48.638a24.028,24.028,0,0,0-9.62,1.753,6.148,6.148,0,0,0-1.841.982,2.862,2.862,0,0,0-.811,2.137c-.072,1.753-.03,3.518-.044,5.273l1.437-.746a5.407,5.407,0,0,0-5.424-.13,7.076,7.076,0,0,0-3.339,4.676,16.794,16.794,0,0,0,.057,6.881c.212,1.21.479,2.411.652,3.628a1.823,1.823,0,0,1-.056,1.153c-.074.128-.4.444-.553.418-2-.35-.827,3.4.589,3.646a2.179,2.179,0,0,0,2.526-1.316,5.763,5.763,0,0,0,.154-3.252c-.348-2.245-1.011-4.49-.948-6.778a6.6,6.6,0,0,1,1.969-4.91c1.117-.948,2.995-1.489,4.258-.721.7.424,1.431.15,1.438-.745l.038-4.653c0-.5-.1-.969.345-1.279a8.914,8.914,0,0,1,1.891-.843,22.35,22.35,0,0,1,8.545-1.416c.929.023.78-1.361.6-1.908-.257-.773-.937-1.826-1.86-1.85Z" fill="#eac46d"/>
              </g>
            </g>
          </g>
          <g id="Group_125" data-name="Group 125">
            <g id="Group_124" data-name="Group 124">
              <g id="Group_123" data-name="Group 123">
                <path id="Path_60" data-name="Path 60" d="M459.879,41.942a19.037,19.037,0,0,1,3.393-3.242,4.719,4.719,0,0,1,1.524-.715,2.3,2.3,0,0,1,.522-.088,2.946,2.946,0,0,1,.985.122c.713.206,1.372.591,2.08.823a5.111,5.111,0,0,0,3.024.008,6.6,6.6,0,0,0,2.426-1.488c.018-.016.239-.243.274-.223l-.872.3a.591.591,0,0,1-.516-.036c-.008,0,.027.045.034.009.011-.058.04-.26-.018.028-.321,1.61,3.643.978,3.933-.478.191-.954-.58-1.57-1.42-1.8a4.6,4.6,0,0,0-3.636.663,6.25,6.25,0,0,0-1.121.916c-.234.255-.041.057.209,0a.947.947,0,0,1,.542-.054,3.479,3.479,0,0,1-.414-.1,18.461,18.461,0,0,0-2.618-.956,10.19,10.19,0,0,0-6.844,1.4,20.09,20.09,0,0,0-4.679,4.165c-.554.615-.421,1.316.426,1.527a3.138,3.138,0,0,0,2.766-.771Z" fill="#eac46d"/>
              </g>
            </g>
          </g>
          <g id="Group_128" data-name="Group 128">
            <g id="Group_127" data-name="Group 127">
              <g id="Group_126" data-name="Group 126">
                <path id="Path_61" data-name="Path 61" d="M478.3,32.914q-.162-.288.074.17-.125-.276.049.129-.087-.252.018.07c-.021-.075-.04-.15-.056-.226-.03-.147-.031-.152,0-.013-.011-.078-.019-.155-.026-.233-.014-.156-.021-.314-.021-.471a6.561,6.561,0,0,1,.3-1.778,5.384,5.384,0,0,1,.706-1.7,2.992,2.992,0,0,1,1.516-.893,5.324,5.324,0,0,1,2.039-.394,2.484,2.484,0,0,1,.9.223,1.635,1.635,0,0,1,.243.159q.17.141-.013-.015a3.852,3.852,0,0,1-.521-.771,2.62,2.62,0,0,1-.429-1.089c0,.12.007.137.013.05a1,1,0,0,1-.091.321,1.1,1.1,0,0,1-.4.439,1.24,1.24,0,0,1-.611.236c-.076,0-.152-.03-.23-.035q-.145-.061-.006.021a.889.889,0,0,1-.131-.1c-.15-.127-.369-.2-.459.018a1.834,1.834,0,0,0,.169.972,5.659,5.659,0,0,0,1.5,2.345,1.473,1.473,0,0,0,2.363-.793,4.522,4.522,0,0,0-.805-2.986,5.434,5.434,0,0,0-2.13-2.3c-1.216-.617-2.841-.152-4.009.383-1.205.553-1.637,2-1.9,3.2a7.734,7.734,0,0,0,1.01,5.575,5.993,5.993,0,0,0,.826,1.185c.086.088.422.447.617.34.467-.256-.388-1.833-.507-2.037Z" fill="#eac46d"/>
              </g>
            </g>
          </g>
          <g id="Group_131" data-name="Group 131">
            <g id="Group_130" data-name="Group 130">
              <g id="Group_129" data-name="Group 129">
                <path id="Path_62" data-name="Path 62" d="M473.545,28.41h.083l-.414-.009c.054,0,.108.011.162.015.285.02-.32-.115-.173-.052.048.021.1.038.148.057.209.077-.453-.248-.2-.091.228.143-.233-.179-.235-.181.04.038.088.069.13.1s.1.095.156.142c.173.152-.35-.385-.2-.207.165.195.326.39.472.6.041.059.175.259-.006-.01-.192-.288-.02-.027.023.04q.12.188.234.38a15.351,15.351,0,0,1,.8,1.536c.027.061.054.121.08.182s.146.345.029.061c-.111-.267-.018-.04.005.018l.072.185q.166.44.307.89a2.8,2.8,0,0,0,.832,1.232,2.655,2.655,0,0,0,1.335.654,1.146,1.146,0,0,0,1.055-.307,1.184,1.184,0,0,0,.159-1.088,17.371,17.371,0,0,0-1.909-4.142,9.461,9.461,0,0,0-1.7-2.112,5.635,5.635,0,0,0-1.468-.921,3.887,3.887,0,0,0-1.558-.276.95.95,0,0,0-.816.625,1.618,1.618,0,0,0,.191,1.2,2.979,2.979,0,0,0,1.093,1.127,2.612,2.612,0,0,0,1.31.344Z" fill="#eac46d"/>
              </g>
            </g>
          </g>
          <g id="Group_134" data-name="Group 134">
            <g id="Group_133" data-name="Group 133">
              <g id="Group_132" data-name="Group 132">
                <path id="Path_63" data-name="Path 63" d="M404.415,69.371a25.46,25.46,0,0,1-6.725,6.967c-1.14.76-2.663,1.537-4.071,1.116-.132-.039-.251-.129-.38-.164-.269-.072-.025-.048-.077-.013a2.844,2.844,0,0,1,.551,1.051v0c-.068.052.124-.452.1-.4a1.165,1.165,0,0,1,.531-.585.911.911,0,0,1,.443-.114l.169.021q1.125.462-1.025-1.929a4.177,4.177,0,0,0,1.2,2.524c.268.282,1.31,1.03,1.261.094a5.31,5.31,0,0,0-1.931-3.687,1.969,1.969,0,0,0-2.269-.349c-2.07,1.292-.314,4.5.843,5.739,3.045,3.251,6.968.3,9.464-2.052a30.131,30.131,0,0,0,4.275-5.059c.6-.892-1.715-4.107-2.357-3.155Z" fill="#eac46d"/>
              </g>
            </g>
          </g>
          <g id="Group_137" data-name="Group 137">
            <g id="Group_136" data-name="Group 136">
              <g id="Group_135" data-name="Group 135">
                <path id="Path_64" data-name="Path 64" d="M501.845,71.862a13.224,13.224,0,0,0,3.851,8.966,22.581,22.581,0,0,0,3.865,3.2c1.483,1,3.242,2.285,5.111,2.212a4.515,4.515,0,0,0,3.995-2.9,10.892,10.892,0,0,0,.984-4.266,4.293,4.293,0,0,0-.578-2.181,5.692,5.692,0,0,0-2.031-1.754A8.077,8.077,0,0,1,514.3,72.25a15.252,15.252,0,0,1-1.743-4.877,1.255,1.255,0,0,1-.013-.525c0,.008.093-.283.019-.138.026-.051.144-.213.208-.173-.02-.012-.4.056-.451.05-.149-.019-.273-.11-.409-.137a.236.236,0,0,1-.122-.119c.085.169.108.193.071.07a1.014,1.014,0,0,1,.06.523,1.543,1.543,0,0,0,1.157,1.989c.753.264,2.24.237,2.616-.677a3.217,3.217,0,0,0-1.486-4.072,4.076,4.076,0,0,0-5.276,1.051c-.952,1.438-.152,3.407.338,4.877a14.649,14.649,0,0,0,2.251,4.479,11,11,0,0,0,1.677,1.754c.66.539,1.411.919,2.08,1.43.117.089.117.1.2.288-.078-.173.1.344.089.312a2.859,2.859,0,0,1,.057.37,6.616,6.616,0,0,1-.3,1.965,8.7,8.7,0,0,1-.664,1.834,2.425,2.425,0,0,1-.515.675c-.025.024-.14.009-.076.071a1.6,1.6,0,0,0,.373.038c.154-.029-.109-.05-.22-.112-.167-.093-.333-.19-.5-.287q-.506-.3-1-.608a22.245,22.245,0,0,1-1.922-1.333c-2.624-2.078-4.917-5.052-4.935-8.55a1.888,1.888,0,0,0-1.811-1.737c-.709-.1-2.218.182-2.213,1.181Z" fill="#eac46d"/>
              </g>
            </g>
          </g>
          <g id="Group_140" data-name="Group 140">
            <g id="Group_139" data-name="Group 139">
              <g id="Group_138" data-name="Group 138">
                <path id="Path_65" data-name="Path 65" d="M503.247,52.259c-.74-2.142-2.645-3.463-3.558-5.5a11.024,11.024,0,0,0-1.828-3.22,11.83,11.83,0,0,0-3.106-2.262c-4.665-2.529-10.043-3.2-15.236-3.774-.553-.061-1.881-.122-1.751.787.118.827,1.443,1.4,2.144,1.478,4.444.489,8.973.952,12.789,2.893a6.187,6.187,0,0,1,2.038,1.475,10.6,10.6,0,0,1,1.334,2.642,11.535,11.535,0,0,0,1.781,2.567,7.36,7.36,0,0,1,1.5,2.219,2.653,2.653,0,0,0,2.145,1.478c.411.072,2.051.082,1.751-.787Z" fill="#eac46d"/>
              </g>
            </g>
          </g>
          <g id="Group_143" data-name="Group 143">
            <g id="Group_142" data-name="Group 142">
              <g id="Group_141" data-name="Group 141">
                <path id="Path_66" data-name="Path 66" d="M398.971,77.473a29.019,29.019,0,0,0-2.046,15.449,39.955,39.955,0,0,0,5.259,14.179,76.6,76.6,0,0,0,4.638,7.058c.477.654,1.456,1.541,2.352,1.207.876-.326.518-1.529.119-2.077-5.416-7.432-10.128-15.9-9.215-25.459a26.577,26.577,0,0,1,2.076-7.982c.63-1.464-2.456-4.064-3.183-2.375Z" fill="#eac46d"/>
              </g>
            </g>
          </g>
          <g id="Group_146" data-name="Group 146">
            <g id="Group_145" data-name="Group 145">
              <g id="Group_144" data-name="Group 144">
                <path id="Path_67" data-name="Path 67" d="M407.307,71.357c1.959-2.273,2.6-5.115,3.084-8,.469-2.8.79-5.808,2.359-8.246,1.8-2.793,5.074-3.481,7.966-4.613a16.187,16.187,0,0,0,4.575-2.687c1.389-1.161,2.655-2.467,4.1-3.559,3.42-2.58,7.688-3.39,11.806-4.159.9-.17.115-1.061-.259-1.328a3.809,3.809,0,0,0-2.694-.744c-3.738.7-7.581,1.448-10.9,3.413-3.149,1.868-5.338,5.019-8.679,6.6-2.978,1.411-6.54,1.838-8.825,4.436-1.944,2.21-2.522,5.1-2.992,7.923-.516,3.1-.892,6.636-3.029,9.116-.518.6.472,1.222.943,1.474.453.243,2.052.942,2.537.378Z" fill="#eac46d"/>
              </g>
            </g>
          </g>
          <g id="Group_149" data-name="Group 149">
            <g id="Group_148" data-name="Group 148">
              <g id="Group_147" data-name="Group 147">
                <path id="Path_68" data-name="Path 68" d="M448.544,32.357a20.231,20.231,0,0,1-3.185.872,5.871,5.871,0,0,1-2.842-.13c-.05-.015-.323-.13-.1-.029-.1-.046-.206-.09-.307-.141s-.2-.1-.3-.163c.381.23-.053-.069-.075-.076.084.027.484.507.358.348s.225.353.257.43a.664.664,0,0,1,.076.277c.008.113.012.1.012-.029l-.008.1c.055-.1.066-.128.033-.086a2.317,2.317,0,0,1,1.038-.555c.051-.01.279-.038.259-.033-.063-.006-.023,0,.119.029l-.434-.224a2.005,2.005,0,0,1-.742-.973.964.964,0,0,1-.257-.638c-.017-.16.018-.066-.066.072-.166.274.024.844.122,1.088a3.879,3.879,0,0,0,.886,1.294c.425.4,1.354,1.134,1.8.4a2.493,2.493,0,0,0-.344-2.342,4.247,4.247,0,0,0-2.358-2.033c-1.157-.307-2.875.425-2.968,1.738a4.2,4.2,0,0,0,.991,2.575,6.548,6.548,0,0,0,2.055,1.781,6.952,6.952,0,0,0,3.673.843,15.125,15.125,0,0,0,4.305-.981c.8-.265.371-1.334.058-1.844a3.886,3.886,0,0,0-1.038-1.175c-.256-.177-.7-.494-1.025-.385Z" fill="#eac46d"/>
              </g>
            </g>
          </g>
          <g id="Group_152" data-name="Group 152">
            <g id="Group_151" data-name="Group 151">
              <g id="Group_150" data-name="Group 150">
                <path id="Path_69" data-name="Path 69" d="M475.661,57.194q.147-1.209.332-2.412c.059-.383.118-.765.186-1.146a1.326,1.326,0,0,1,.4-.854l-.118.1a1.023,1.023,0,0,1,.431-.177l-.235.034c.018,0,.214-.011.214-.012s-.341-.038-.169-.011a4.766,4.766,0,0,1-1.085-.341,5.077,5.077,0,0,1-.883-.438c-.379-.25.1.1-.17-.124-.2-.164.045.066.09.122l-.144-.189a3.092,3.092,0,0,1,.509,1.489c.028.221.621.558.748.634a6.891,6.891,0,0,0,1.429.642,3.341,3.341,0,0,0,1.211.247l.235-.034a.161.161,0,0,0,.1-.249,3.921,3.921,0,0,0-.249-1.036,2.788,2.788,0,0,0-.917-1.124,7.774,7.774,0,0,0-2.8-1.258,2.789,2.789,0,0,0-1.638-.027c-.765.313-.761,1.271-.87,1.963q-.209,1.328-.372,2.661c-.028.235.264.443.415.557a5.608,5.608,0,0,0,1.272.682,5.526,5.526,0,0,0,1.385.409c.127.015.66.1.686-.1Z" fill="#eac46d"/>
              </g>
            </g>
          </g>
          <g id="Group_155" data-name="Group 155">
            <g id="Group_154" data-name="Group 154">
              <g id="Group_153" data-name="Group 153">
                <path id="Path_70" data-name="Path 70" d="M507.676,73.4a1.784,1.784,0,0,0,1.182-.154,1.542,1.542,0,0,0,.592-.515,1.7,1.7,0,0,0,.058-1.707,4.2,4.2,0,0,0-.956-1.148,13.743,13.743,0,0,0-2.969-1.944,6.038,6.038,0,0,0-3.558-.886,4.677,4.677,0,0,0-2.15,1.065c-.2.164.578.835.559.818a13.137,13.137,0,0,0,3.734,2.15c.278.085.729.287.988.072a5.146,5.146,0,0,1,.994-.658l-.175.086a3.321,3.321,0,0,1,1.7-.351l-.338-.027a3.559,3.559,0,0,0,.362.062l-.351-.094q.209.072-.169-.068a9.4,9.4,0,0,1-1.373-.667,12.658,12.658,0,0,1-1.076-.7q-.583-.483-.362-.288.1.093-.1-.106c-.287-.282.013.035.073.119l-.193-.279a1.72,1.72,0,0,1,.3.823l-.014-.194a1.507,1.507,0,0,1-.845,1.393l.175-.086a1.25,1.25,0,0,1-.542.11l.338.027a1.081,1.081,0,0,1-.126-.014.424.424,0,0,0-.426.015c-.119.025-.143.1-.074.238a1.549,1.549,0,0,0,.37.451,4.343,4.343,0,0,0,.662.562,13.424,13.424,0,0,0,2,1.224,6.062,6.062,0,0,0,1.717.667Z" fill="#eac46d"/>
              </g>
            </g>
          </g>
          <g id="Group_158" data-name="Group 158">
            <g id="Group_157" data-name="Group 157">
              <g id="Group_156" data-name="Group 156">
                <path id="Path_71" data-name="Path 71" d="M399.1,104.141c.544,1.931,1.068,3.889,1.434,5.862l-.086-.469a2.211,2.211,0,0,0,.032.287c0,.1.008.077.021-.064.028-.157.025-.161-.007-.012a1.6,1.6,0,0,1,.3-.518l-.059.06a.994.994,0,0,1,.435-.3c.184-.081.226-.1.128-.062a1.021,1.021,0,0,1-.125.043c0-.035.553-.074.264-.062a2,2,0,0,0-.233.017c-.184.028.514.055.19,0-.152-.027-.306-.054-.458-.078-.216-.035.453.161.1.022-.07-.028-.142-.051-.211-.08-.037-.016-.379-.179-.089-.036.269.134-.017-.035-.066-.072-.215-.161.1.043.1.105a2.043,2.043,0,0,0-.177-.266l.223.422a1.973,1.973,0,0,1-.147-.395l.085.47a2.007,2.007,0,0,0-.031-.31c.067.122-.1.418.028.063a1.682,1.682,0,0,0-1.483-2.056,2.25,2.25,0,0,0-2.418,1.51c-.593,1.675.664,3.337,2.183,3.917a4.378,4.378,0,0,0,4.64-.62,2.793,2.793,0,0,0,.785-2.368c-.116-.791-.317-1.578-.5-2.356q-.463-2-1.022-3.976a1.929,1.929,0,0,0-2.5-1.013,1.96,1.96,0,0,0-1.339,2.341Z" fill="#eac46d"/>
              </g>
            </g>
          </g>
          <g id="Group_160" data-name="Group 160">
            <g id="Group_159" data-name="Group 159">
              <path id="Path_72" data-name="Path 72" d="M447.552,96.149c.585,2.282-.346,4.212-1.525,4.57-.934.283-3.174-1.254-3.756-3.526s.775-4.178,1.719-4.419C445.358,92.2,446.97,93.878,447.552,96.149Z" fill="#161615"/>
            </g>
          </g>
          <g id="Group_162" data-name="Group 162">
            <g id="Group_161" data-name="Group 161">
              <path id="Path_73" data-name="Path 73" d="M482.352,86.369c.585,2.282-.346,4.211-1.526,4.569-.933.284-3.173-1.254-3.755-3.525s.775-4.178,1.719-4.42C480.158,82.421,481.77,84.1,482.352,86.369Z" fill="#161615"/>
            </g>
          </g>
          <g id="Group_164" data-name="Group 164">
            <g id="Group_163" data-name="Group 163">
              <path id="Path_74" data-name="Path 74" d="M472.714,104.217a.818.818,0,0,1-.369,1.1,1.381,1.381,0,0,1-.163.059.824.824,0,0,1-.94-.429,9.6,9.6,0,0,0-4.749-4.22,1.592,1.592,0,0,0-1.273.055c-2.492,1.249-3.34,4.515-3.372,6.277a.821.821,0,1,1-1.641-.028c.008-.3.4-5.77,4.274-7.711a3.209,3.209,0,0,1,2.536-.15C470.1,100.2,472.435,103.654,472.714,104.217Z" fill="#b87d7f"/>
            </g>
          </g>
          <g id="Group_177" data-name="Group 177">
            <g id="Group_166" data-name="Group 166">
              <g id="Group_165" data-name="Group 165">
                <path id="Path_75" data-name="Path 75" d="M466.151,130.911c9.128,2.009,12.7-14.228,12.7-14.228-14.19,6.8-24.064-1.469-24.064-1.469S457.014,128.911,466.151,130.911Z" fill="#efbbad"/>
              </g>
            </g>
            <g id="Group_168" data-name="Group 168">
              <g id="Group_167" data-name="Group 167">
                <path id="Path_76" data-name="Path 76" d="M472.821,127.168a.3.3,0,0,1,.079.5c-1.235,1.213-5.564,4.528-11.51.164a.318.318,0,0,1,.095-.537c1.441-.614,6.145-2.439,9.518-.942C471.971,126.773,472.513,127.023,472.821,127.168Z" fill="#d9000d"/>
              </g>
            </g>
            <g id="Group_170" data-name="Group 170">
              <g id="Group_169" data-name="Group 169">
                <path id="Path_77" data-name="Path 77" d="M478.855,116.683s-3.576,16.237-12.7,14.228-11.36-15.7-11.36-15.7S464.665,123.482,478.855,116.683Zm-5.955,10.98a.3.3,0,0,0-.079-.5c-.308-.145-.85-.395-1.818-.82-3.373-1.5-8.077.328-9.518.942a.318.318,0,0,0-.095.537C467.336,132.191,471.665,128.876,472.9,127.663Z" fill="#fff"/>
              </g>
            </g>
            <g id="Group_172" data-name="Group 172">
              <g id="Group_171" data-name="Group 171">
                <path id="Path_78" data-name="Path 78" d="M467.258,130.919a10.765,10.765,0,0,1-6.408-2.355l-.009-.006a1.206,1.206,0,0,1-.464-1.129,1.24,1.24,0,0,1,.777-.99c2.327-.993,6.789-2.449,10.22-.927.976.429,1.524.682,1.835.828a1.218,1.218,0,0,1,.322,1.984A9.268,9.268,0,0,1,467.258,130.919Zm-4.385-3.2c4.126,2.515,7.221,1.008,8.7-.121-.257-.116-.566-.254-.94-.418C468.213,126.109,464.884,126.988,462.873,127.723Zm-1,.4-.029.012Zm10.558-.126.011.005Zm-.17-.982-.011.011Z" fill="#d9000d"/>
              </g>
            </g>
            <g id="Group_174" data-name="Group 174">
              <g id="Group_173" data-name="Group 173">
                <path id="Path_79" data-name="Path 79" d="M467.733,132a8.234,8.234,0,0,1-1.778-.2c-9.632-2.108-11.971-15.859-12.066-16.443a.914.914,0,0,1,1.488-.848c.391.326,9.629,7.794,23.084,1.347a.913.913,0,0,1,1.286,1.021C479.6,117.535,476.311,132,467.733,132Zm-11.544-14.781c1.032,3.8,3.858,11.417,10.158,12.8,6.415,1.412,9.916-7.727,11.125-11.726A24.037,24.037,0,0,1,456.189,117.222Z" fill="#b87d7f"/>
              </g>
            </g>
            <g id="Group_176" data-name="Group 176">
              <g id="Group_175" data-name="Group 175">
                <path id="Path_80" data-name="Path 80" d="M457.552,121.111s11.045,3.67,18.6.821l1.337-3.768s-11.058,4.669-21.263-.947Z" fill="#e8e8e8"/>
              </g>
            </g>
          </g>
        </g>
      </g>
    </g>
  </g>
</svg>
