<svg xmlns="http://www.w3.org/2000/svg" xmlns:xlink="http://www.w3.org/1999/xlink" width="285.591" height="336.687" viewBox="0 0 285.591 336.687">
  <defs>
    <clipPath id="clip-path">
      <path id="Path_32" data-name="Path 32" d="M-196.553,170.268a23.494,23.494,0,0,1-11.909,5.455c-7.379,1.1-8.645,14.634-19.268,12.734s-31.387,21.766-21.421,26.429,5.013,14.729,16.642,9.276,16.587-20.452,20.251-21.352,12.233-.153,17.591-2.426a79.817,79.817,0,0,1,13.044-3.777Z" fill="none"/>
    </clipPath>
  </defs>
  <g id="Group_78" data-name="Group 78" transform="translate(350.281 -91.179)">
    <rect id="Rectangle_3" data-name="Rectangle 3" width="272.386" height="262.18" transform="translate(-341.575 125.677)" fill="#312411"/>
    <g id="brush">
      <path id="Path_1" data-name="Path 1" d="M-270.918,152.723c.014.095,1.4,9.546,1.7,15.608a13.741,13.741,0,0,1-.241,3.922c-.159.637-.3,1.272-.437,1.9.359-.188.827-.1,1.232,1.05.785,2.24.962,47.154-.285,49.2-1.146,1.879-2.093,1.893-2.471-.641l-.065,6.129A1.5,1.5,0,0,0-270,231.41l.9.01a1.641,1.641,0,0,0,1.657-1.622l.491-46.105a45.314,45.314,0,0,1,1.413-10.459,17.9,17.9,0,0,0,.357-5.1c-.184-3.742-.75-8.587-1.187-11.963a4,4,0,0,0-4.554-3.446Z" fill="#56b8c4"/>
      <path id="Path_2" data-name="Path 2" d="M-275.053,167.325s4.664.685,6.362-2.78c0,0,1.588-6.36-.347-10.293,0,0-2.631-3.1-5.379-2.323Z" fill="#d5d5d3"/>
      <ellipse id="Ellipse_1" data-name="Ellipse 1" cx="7.684" cy="1.503" rx="7.684" ry="1.503" transform="translate(-276.694 167.241) rotate(-87.378)" fill="#fcf9f4"/>
      <path id="Path_3" data-name="Path 3" d="M-269.893,174.158q-.39,1.836-.644,3.638a45.723,45.723,0,0,0-.452,5.854l-.059,5.511c.507-.511.942-.765,1.171-.625.429.262-.033,1.8-1.032,3.437-.057.093-.114.184-.172.274l-.108,10.108c.49-.484.909-.721,1.131-.585.429.262-.033,1.8-1.031,3.437-.044.072-.088.141-.132.21l-.081,7.524c.645-.748,1.226-1.154,1.5-.985.429.262-.033,1.8-1.032,3.437-.165.271-.335.526-.505.764l-.081,7.607c.378,2.534,1.325,2.52,2.471.641,1.247-2.043,1.07-46.957.285-49.2C-269.066,174.054-269.534,173.97-269.893,174.158Z" fill="#a2d7e4"/>
      <path id="Path_4" data-name="Path 4" d="M-269.8,211.956c-.277-.169-.858.237-1.5.985l-.013,1.276-.021,1.94c.17-.238.34-.493.505-.764C-269.832,213.756-269.37,212.218-269.8,211.956Z" fill="#56b8c4"/>
      <path id="Path_5" data-name="Path 5" d="M-270.058,201.77c-.222-.136-.641.1-1.131.585l-.032,3.062c.044-.069.088-.138.132-.21C-270.091,203.571-269.629,202.032-270.058,201.77Z" fill="#56b8c4"/>
      <path id="Path_6" data-name="Path 6" d="M-269.877,188.536c-.229-.14-.664.114-1.171.625l-.033,3.086c.058-.09.115-.181.172-.274C-269.91,190.336-269.448,188.8-269.877,188.536Z" fill="#56b8c4"/>
      <ellipse id="Ellipse_2" data-name="Ellipse 2" cx="0.185" cy="0.607" rx="0.185" ry="0.607" transform="translate(-276.1 164.029) rotate(-2.463)" fill="#d5d5d3"/>
      <ellipse id="Ellipse_3" data-name="Ellipse 3" cx="0.185" cy="0.607" rx="0.185" ry="0.607" transform="translate(-275.675 163.959) rotate(-2.463)" fill="#d5d5d3"/>
      <ellipse id="Ellipse_4" data-name="Ellipse 4" cx="0.185" cy="0.607" rx="0.185" ry="0.607" transform="translate(-275.221 163.775) rotate(-2.463)" fill="#d5d5d3"/>
      <ellipse id="Ellipse_5" data-name="Ellipse 5" cx="0.185" cy="0.607" rx="0.185" ry="0.607" transform="translate(-274.725 163.631) rotate(-2.463)" fill="#d5d5d3"/>
      <ellipse id="Ellipse_6" data-name="Ellipse 6" cx="0.607" cy="0.185" rx="0.607" ry="0.185" transform="matrix(0.151, -0.989, 0.989, 0.151, -274.335, 164.682)" fill="#d5d5d3"/>
      <ellipse id="Ellipse_7" data-name="Ellipse 7" cx="0.185" cy="0.607" rx="0.185" ry="0.607" transform="translate(-276.183 162.655) rotate(-2.463)" fill="#d5d5d3"/>
      <ellipse id="Ellipse_8" data-name="Ellipse 8" cx="0.185" cy="0.607" rx="0.185" ry="0.607" transform="translate(-275.758 162.585) rotate(-2.463)" fill="#d5d5d3"/>
      <ellipse id="Ellipse_9" data-name="Ellipse 9" cx="0.185" cy="0.607" rx="0.185" ry="0.607" transform="translate(-275.304 162.402) rotate(-2.463)" fill="#d5d5d3"/>
      <ellipse id="Ellipse_10" data-name="Ellipse 10" cx="0.185" cy="0.607" rx="0.185" ry="0.607" transform="translate(-274.808 162.257) rotate(-2.463)" fill="#d5d5d3"/>
      <ellipse id="Ellipse_11" data-name="Ellipse 11" cx="0.607" cy="0.185" rx="0.607" ry="0.185" transform="matrix(0.151, -0.989, 0.989, 0.151, -274.418, 163.309)" fill="#d5d5d3"/>
      <ellipse id="Ellipse_12" data-name="Ellipse 12" cx="0.185" cy="0.607" rx="0.185" ry="0.607" transform="translate(-276.091 161.211) rotate(-2.463)" fill="#d5d5d3"/>
      <ellipse id="Ellipse_13" data-name="Ellipse 13" cx="0.185" cy="0.607" rx="0.185" ry="0.607" transform="translate(-275.667 161.141) rotate(-2.463)" fill="#d5d5d3"/>
      <ellipse id="Ellipse_14" data-name="Ellipse 14" cx="0.185" cy="0.607" rx="0.185" ry="0.607" transform="translate(-275.213 160.958) rotate(-2.463)" fill="#d5d5d3"/>
      <ellipse id="Ellipse_15" data-name="Ellipse 15" cx="0.185" cy="0.607" rx="0.185" ry="0.607" transform="translate(-274.716 160.813) rotate(-2.463)" fill="#d5d5d3"/>
      <ellipse id="Ellipse_16" data-name="Ellipse 16" cx="0.607" cy="0.185" rx="0.607" ry="0.185" transform="matrix(0.151, -0.989, 0.989, 0.151, -274.326, 161.865)" fill="#d5d5d3"/>
      <ellipse id="Ellipse_17" data-name="Ellipse 17" cx="0.185" cy="0.607" rx="0.185" ry="0.607" transform="translate(-276.133 159.824) rotate(-2.463)" fill="#d5d5d3"/>
      <ellipse id="Ellipse_18" data-name="Ellipse 18" cx="0.185" cy="0.607" rx="0.185" ry="0.607" transform="translate(-275.708 159.754) rotate(-2.463)" fill="#d5d5d3"/>
      <ellipse id="Ellipse_19" data-name="Ellipse 19" cx="0.185" cy="0.607" rx="0.185" ry="0.607" transform="translate(-275.254 159.57) rotate(-2.463)" fill="#d5d5d3"/>
      <ellipse id="Ellipse_20" data-name="Ellipse 20" cx="0.185" cy="0.607" rx="0.185" ry="0.607" transform="translate(-274.758 159.426) rotate(-2.463)" fill="#d5d5d3"/>
      <ellipse id="Ellipse_21" data-name="Ellipse 21" cx="0.607" cy="0.185" rx="0.607" ry="0.185" transform="matrix(0.151, -0.989, 0.989, 0.151, -274.368, 160.477)" fill="#d5d5d3"/>
      <ellipse id="Ellipse_22" data-name="Ellipse 22" cx="0.185" cy="0.607" rx="0.185" ry="0.607" transform="translate(-276.07 158.46) rotate(-2.463)" fill="#d5d5d3"/>
      <ellipse id="Ellipse_23" data-name="Ellipse 23" cx="0.185" cy="0.607" rx="0.185" ry="0.607" transform="translate(-275.646 158.39) rotate(-2.463)" fill="#d5d5d3"/>
      <ellipse id="Ellipse_24" data-name="Ellipse 24" cx="0.185" cy="0.607" rx="0.185" ry="0.607" transform="translate(-275.192 158.207) rotate(-2.463)" fill="#d5d5d3"/>
      <ellipse id="Ellipse_25" data-name="Ellipse 25" cx="0.185" cy="0.607" rx="0.185" ry="0.607" transform="translate(-274.696 158.062) rotate(-2.463)" fill="#d5d5d3"/>
      <ellipse id="Ellipse_26" data-name="Ellipse 26" cx="0.607" cy="0.185" rx="0.607" ry="0.185" transform="matrix(0.151, -0.989, 0.989, 0.151, -274.306, 159.114)" fill="#d5d5d3"/>
      <ellipse id="Ellipse_27" data-name="Ellipse 27" cx="0.185" cy="0.607" rx="0.185" ry="0.607" transform="translate(-276.034 157.042) rotate(-2.463)" fill="#d5d5d3"/>
      <ellipse id="Ellipse_28" data-name="Ellipse 28" cx="0.185" cy="0.607" rx="0.185" ry="0.607" transform="translate(-275.609 156.972) rotate(-2.463)" fill="#d5d5d3"/>
      <ellipse id="Ellipse_29" data-name="Ellipse 29" cx="0.185" cy="0.607" rx="0.185" ry="0.607" transform="translate(-275.155 156.788) rotate(-2.463)" fill="#d5d5d3"/>
      <ellipse id="Ellipse_30" data-name="Ellipse 30" cx="0.185" cy="0.607" rx="0.185" ry="0.607" transform="translate(-274.659 156.643) rotate(-2.463)" fill="#d5d5d3"/>
      <ellipse id="Ellipse_31" data-name="Ellipse 31" cx="0.607" cy="0.185" rx="0.607" ry="0.185" transform="matrix(0.151, -0.989, 0.989, 0.151, -274.269, 157.695)" fill="#d5d5d3"/>
      <ellipse id="Ellipse_32" data-name="Ellipse 32" cx="0.185" cy="0.607" rx="0.185" ry="0.607" transform="translate(-275.783 155.596) rotate(-2.463)" fill="#d5d5d3"/>
      <ellipse id="Ellipse_33" data-name="Ellipse 33" cx="0.185" cy="0.607" rx="0.185" ry="0.607" transform="translate(-275.359 155.526) rotate(-2.463)" fill="#d5d5d3"/>
      <ellipse id="Ellipse_34" data-name="Ellipse 34" cx="0.185" cy="0.607" rx="0.185" ry="0.607" transform="translate(-274.904 155.342) rotate(-2.463)" fill="#d5d5d3"/>
      <ellipse id="Ellipse_35" data-name="Ellipse 35" cx="0.185" cy="0.607" rx="0.185" ry="0.607" transform="translate(-274.408 155.197) rotate(-2.463)" fill="#d5d5d3"/>
      <ellipse id="Ellipse_36" data-name="Ellipse 36" cx="0.607" cy="0.185" rx="0.607" ry="0.185" transform="matrix(0.151, -0.989, 0.989, 0.151, -274.018, 156.249)" fill="#d5d5d3"/>
      <ellipse id="Ellipse_37" data-name="Ellipse 37" cx="0.161" cy="0.526" rx="0.161" ry="0.526" transform="translate(-275.715 154.437) rotate(-2.463)" fill="#d5d5d3"/>
      <ellipse id="Ellipse_38" data-name="Ellipse 38" cx="0.161" cy="0.526" rx="0.161" ry="0.526" transform="translate(-275.347 154.377) rotate(-2.463)" fill="#d5d5d3"/>
      <ellipse id="Ellipse_39" data-name="Ellipse 39" cx="0.161" cy="0.526" rx="0.161" ry="0.526" transform="translate(-274.953 154.217) rotate(-2.463)" fill="#d5d5d3"/>
      <ellipse id="Ellipse_40" data-name="Ellipse 40" cx="0.161" cy="0.526" rx="0.161" ry="0.526" transform="translate(-274.523 154.092) rotate(-2.463)" fill="#d5d5d3"/>
      <ellipse id="Ellipse_41" data-name="Ellipse 41" cx="0.526" cy="0.161" rx="0.526" ry="0.161" transform="matrix(0.151, -0.989, 0.989, 0.151, -274.184, 155.004)" fill="#d5d5d3"/>
      <ellipse id="Ellipse_42" data-name="Ellipse 42" cx="0.161" cy="0.526" rx="0.161" ry="0.526" transform="translate(-275.506 153.208) rotate(-2.463)" fill="#d5d5d3"/>
      <ellipse id="Ellipse_43" data-name="Ellipse 43" cx="0.161" cy="0.526" rx="0.161" ry="0.526" transform="translate(-275.138 153.147) rotate(-2.463)" fill="#d5d5d3"/>
      <ellipse id="Ellipse_44" data-name="Ellipse 44" cx="0.161" cy="0.526" rx="0.161" ry="0.526" transform="translate(-274.744 152.988) rotate(-2.463)" fill="#d5d5d3"/>
      <ellipse id="Ellipse_45" data-name="Ellipse 45" cx="0.161" cy="0.526" rx="0.161" ry="0.526" transform="translate(-274.314 152.863) rotate(-2.463)" fill="#d5d5d3"/>
      <ellipse id="Ellipse_46" data-name="Ellipse 46" cx="0.13" cy="0.426" rx="0.13" ry="0.426" transform="translate(-274.919 152.18) rotate(-2.463)" fill="#d5d5d3"/>
      <ellipse id="Ellipse_47" data-name="Ellipse 47" cx="0.13" cy="0.426" rx="0.13" ry="0.426" transform="translate(-274.571 152.078) rotate(-2.463)" fill="#d5d5d3"/>
      <ellipse id="Ellipse_48" data-name="Ellipse 48" cx="0.166" cy="0.543" rx="0.166" ry="0.543" transform="translate(-275.894 165.333) rotate(-2.463)" fill="#d5d5d3"/>
      <ellipse id="Ellipse_49" data-name="Ellipse 49" cx="0.166" cy="0.543" rx="0.166" ry="0.543" transform="translate(-275.514 165.271) rotate(-2.463)" fill="#d5d5d3"/>
      <ellipse id="Ellipse_50" data-name="Ellipse 50" cx="0.166" cy="0.543" rx="0.166" ry="0.543" transform="translate(-275.108 165.106) rotate(-2.463)" fill="#d5d5d3"/>
      <ellipse id="Ellipse_51" data-name="Ellipse 51" cx="0.166" cy="0.543" rx="0.166" ry="0.543" transform="translate(-274.664 164.977) rotate(-2.463)" fill="#d5d5d3"/>
      <ellipse id="Ellipse_52" data-name="Ellipse 52" cx="0.126" cy="0.411" rx="0.126" ry="0.411" transform="translate(-275.579 166.349) rotate(-2.463)" fill="#d5d5d3"/>
      <ellipse id="Ellipse_53" data-name="Ellipse 53" cx="0.129" cy="0.421" rx="0.129" ry="0.421" transform="translate(-275.178 166.236) rotate(-2.463)" fill="#d5d5d3"/>
      <ellipse id="Ellipse_54" data-name="Ellipse 54" cx="0.129" cy="0.421" rx="0.129" ry="0.421" transform="translate(-274.827 166.016) rotate(-2.463)" fill="#d5d5d3"/>
      <path id="Path_7" data-name="Path 7" d="M-273.709,163.351l5.249.413.006-.312Z" fill="#bebdbe"/>
      <path id="Path_8" data-name="Path 8" d="M-273.364,159.509l5.249.413.006-.312Z" fill="#bebdbe"/>
      <path id="Path_9" data-name="Path 9" d="M-273.847,155.082l5.256.326-.093-.284Z" fill="#bebdbe"/>
      <path id="Path_10" data-name="Path 10" d="M-273.707,153.38l4,.176-.233-.221Z" fill="#bebdbe"/>
      <path id="Path_11" data-name="Path 11" d="M-269.813,165.939l-4.453-.165,4.735.047Z" fill="#bebdbe"/>
      <path id="Path_12" data-name="Path 12" d="M-268.245,161.882l-5.24-.579,5.272.375Z" fill="#bebdbe"/>
      <path id="Path_13" data-name="Path 13" d="M-268.136,157.843l-5.24-.579,5.233.417Z" fill="#bebdbe"/>
    </g>
    <g id="book">
      <path id="Rectangle_4" data-name="Rectangle 4" d="M0,0H38.851A21.723,21.723,0,0,1,60.575,21.723V58.26A21.723,21.723,0,0,1,38.851,79.983H0a0,0,0,0,1,0,0V0A0,0,0,0,1,0,0Z" transform="translate(-152.992 170.42)" fill="#fcfcfd"/>
      <path id="Rectangle_5" data-name="Rectangle 5" d="M0,0H38.851A21.723,21.723,0,0,1,60.575,21.723V58.8A21.723,21.723,0,0,1,38.851,80.523H0a0,0,0,0,1,0,0V0A0,0,0,0,1,0,0Z" transform="translate(-155.322 169.675)" fill="#f0aa00"/>
      <ellipse id="Ellipse_55" data-name="Ellipse 55" cx="4.31" cy="1.17" rx="4.31" ry="1.17" transform="translate(-159.982 173.288)" fill="#c7c6c6"/>
      <ellipse id="Ellipse_56" data-name="Ellipse 56" cx="4.31" cy="1.17" rx="4.31" ry="1.17" transform="translate(-159.632 180.321)" fill="#c7c6c6"/>
      <ellipse id="Ellipse_57" data-name="Ellipse 57" cx="4.31" cy="1.17" rx="4.31" ry="1.17" transform="translate(-159.807 187.354)" fill="#c7c6c6"/>
      <ellipse id="Ellipse_58" data-name="Ellipse 58" cx="4.31" cy="1.17" rx="4.31" ry="1.17" transform="translate(-159.457 194.386)" fill="#c7c6c6"/>
      <ellipse id="Ellipse_59" data-name="Ellipse 59" cx="4.31" cy="1.17" rx="4.31" ry="1.17" transform="translate(-159.719 201.419)" fill="#c7c6c6"/>
      <ellipse id="Ellipse_60" data-name="Ellipse 60" cx="4.31" cy="1.17" rx="4.31" ry="1.17" transform="translate(-159.37 208.452)" fill="#c7c6c6"/>
      <ellipse id="Ellipse_61" data-name="Ellipse 61" cx="4.31" cy="1.17" rx="4.31" ry="1.17" transform="translate(-159.545 215.485)" fill="#c7c6c6"/>
      <ellipse id="Ellipse_62" data-name="Ellipse 62" cx="4.31" cy="1.17" rx="4.31" ry="1.17" transform="translate(-159.195 222.518)" fill="#c7c6c6"/>
      <ellipse id="Ellipse_63" data-name="Ellipse 63" cx="4.31" cy="1.17" rx="4.31" ry="1.17" transform="translate(-159.588 229.55)" fill="#c7c6c6"/>
      <ellipse id="Ellipse_64" data-name="Ellipse 64" cx="4.31" cy="1.17" rx="4.31" ry="1.17" transform="translate(-159.239 236.583)" fill="#c7c6c6"/>
      <ellipse id="Ellipse_65" data-name="Ellipse 65" cx="4.31" cy="1.17" rx="4.31" ry="1.17" transform="translate(-159.414 243.616)" fill="#c7c6c6"/>
    </g>
    <g id="towel" transform="translate(-5 -9)">
      <path id="Path_14" data-name="Path 14" d="M-271.873,194.585c-1.6-1.272-3.475-2.681-5.532-4.069l.218,15.6c1.972,1.34,3.772,2.694,5.314,3.921Z" fill="#fcd58e"/>
      <path id="Path_15" data-name="Path 15" d="M-276.756,210.264l-.193-16.835c-.649,4.194-5.342,13.248-17.846,8.727-13.728-4.963-14.681-13.363-14.747-14.507.045,1.158.387,9.922.8,20.253C-300.854,214.585-287.894,221.79-276.756,210.264Z" fill="#fbb53b"/>
      <path id="Path_16" data-name="Path 16" d="M-276.968,191.744l.019,1.685A3.783,3.783,0,0,0-276.968,191.744Z" fill="#f4d9aa"/>
      <path id="Path_17" data-name="Path 17" d="M-309.542,187.649l-.006-.131S-309.547,187.564-309.542,187.649Z" fill="#f4d9aa"/>
      <path id="Path_18" data-name="Path 18" d="M-276.593,224.558l-.163-14.294c-11.138,11.526-24.1,4.321-31.987-2.362.176,4.422.366,9.13.55,13.652C-300.44,228.165-287.675,235.4-276.593,224.558Z" fill="#f4d9aa"/>
      <path id="Path_19" data-name="Path 19" d="M-276.428,239.008l-.165-14.45c-11.082,10.839-23.847,3.607-31.6-3,.187,4.572.368,8.952.526,12.652C-300.28,240.752-287.63,248.6-276.428,239.008Z" fill="#fbb53b"/>
      <path id="Path_20" data-name="Path 20" d="M-276.412,240.4l-.016-1.391c-11.2,9.589-23.852,1.744-31.239-4.8.251,5.873.443,10.029.5,10.505.227,1.816,4.2,9.305,17.362,9.646S-276.412,240.4-276.412,240.4Z" fill="#f4d9aa"/>
      <path id="Path_21" data-name="Path 21" d="M-279.574,199.353c2.045-2.441,3.058-6.023,2.141-10.814-2.343-12.247-17.362-6.468-17.362-6.468v11.056C-284.211,190.471-280.678,195.062-279.574,199.353Z" fill="#a56903"/>
      <path id="Path_22" data-name="Path 22" d="M-279.574,199.353c-1.1-4.291-4.637-8.882-15.221-6.226v9.029C-289.7,204.383-283.1,203.562-279.574,199.353Z" fill="#d0ab6e"/>
      <path id="Path_23" data-name="Path 23" d="M-294.8,182.93v15.454c6.016.766,12.409,4.2,17.608,7.734l-.218-15.6C-282.564,187.036-288.863,183.686-294.8,182.93Z" fill="none"/>
      <path id="Path_24" data-name="Path 24" d="M-294.8,182.071v.859c5.932.756,12.231,4.106,17.39,7.586l-.028-1.977S-283.561,177.531-294.8,182.071Z" fill="none"/>
      <path id="Path_25" data-name="Path 25" d="M-294.8,182.93v-.859c11.234-4.54,17.362,6.468,17.362,6.468l.028,1.977c2.057,1.388,3.934,4.694,5.532,5.966V184.227A32.9,32.9,0,0,0-286.511,172.2c-10.1-4.312-16.455.113-18.724,1.816s-4.694,3.785-4.313,13.5a11.149,11.149,0,0,0,.3,2.142C-305.581,183.791-300.349,182.223-294.8,182.93Z" fill="#ed9900"/>
      <path id="Path_26" data-name="Path 26" d="M-301.716,198.906a31.371,31.371,0,0,0,6.921,3.25v-3.772A15.828,15.828,0,0,0-301.716,198.906Z" fill="#fcd58e"/>
      <path id="Path_27" data-name="Path 27" d="M-271.873,210.039c-1.542-1.227-3.342-2.581-5.314-3.921l.205,14.683c1.87,1.249,3.6,2.52,5.109,3.7Z" fill="#ed9900"/>
      <path id="Path_28" data-name="Path 28" d="M-309.251,189.66c1,4.184,4.326,7.217,7.535,9.246a15.828,15.828,0,0,1,6.921-.522V182.93C-300.349,182.223-305.581,183.791-309.251,189.66Z" fill="#fcd58e"/>
      <path id="Path_29" data-name="Path 29" d="M-271.873,242.668V224.5c-1.512-1.18-3.239-2.451-5.109-3.7l.23,16.42C-274.256,236.427-271.873,242.668-271.873,242.668Z" fill="#fcd58e"/>
    </g>
    <g id="socks">
      <path id="Path_30" data-name="Path 30" d="M-196.428,170.193a23.5,23.5,0,0,1-11.91,5.456c-7.378,1.1-8.644,14.633-19.267,12.734s-31.388,21.766-21.421,26.429,5.013,14.729,16.642,9.275,16.587-20.451,20.251-21.351,12.232-.153,17.591-2.426a79.818,79.818,0,0,1,13.044-3.777Z" fill="#d2d2d2"/>
      <ellipse id="Ellipse_66" data-name="Ellipse 66" cx="2.511" cy="16.355" rx="2.511" ry="16.355" transform="matrix(0.86, -0.511, 0.511, 0.86, -183.748, 162.655)" fill="#efecec"/>
      <path id="Path_31" data-name="Path 31" d="M-181.59,161.371l-14.838,8.822s4.436,21.587,14.93,26.34l16.624-7.046S-182.32,173.655-181.59,161.371Z" fill="#efecec"/>
      <g id="Group_72" data-name="Group 72">
        <g id="Group_71" data-name="Group 71" clip-path="url(#clip-path)">
          <g id="Group_70" data-name="Group 70">
            <circle id="Ellipse_67" data-name="Ellipse 67" cx="3.703" cy="3.703" r="3.703" transform="translate(-204.165 173.609)" fill="#de1e28"/>
            <circle id="Ellipse_68" data-name="Ellipse 68" cx="3.806" cy="3.806" r="3.806" transform="translate(-200.694 184.499)" fill="#de1e28"/>
            <circle id="Ellipse_69" data-name="Ellipse 69" cx="2.982" cy="2.982" r="2.982" transform="translate(-193.189 192.989)" fill="#de1e28"/>
            <circle id="Ellipse_70" data-name="Ellipse 70" cx="3.703" cy="3.703" r="3.703" transform="translate(-235.985 188.346)" fill="#de1e28"/>
            <circle id="Ellipse_71" data-name="Ellipse 71" cx="3.806" cy="3.806" r="3.806" transform="translate(-231.753 197.625)" fill="#de1e28"/>
            <circle id="Ellipse_72" data-name="Ellipse 72" cx="2.982" cy="2.982" r="2.982" transform="translate(-225.009 207.726)" fill="#de1e28"/>
            <circle id="Ellipse_73" data-name="Ellipse 73" cx="3.703" cy="3.703" r="3.703" transform="translate(-212.151 181.826)" fill="#de1e28"/>
            <circle id="Ellipse_74" data-name="Ellipse 74" cx="3.806" cy="3.806" r="3.806" transform="translate(-207.813 192.2)" fill="#de1e28"/>
            <circle id="Ellipse_75" data-name="Ellipse 75" cx="3.703" cy="3.703" r="3.703" transform="translate(-241.208 197.705)" fill="#de1e28"/>
            <circle id="Ellipse_76" data-name="Ellipse 76" cx="3.806" cy="3.806" r="3.806" transform="translate(-234.427 208.024)" fill="#de1e28"/>
            <circle id="Ellipse_77" data-name="Ellipse 77" cx="2.982" cy="2.982" r="2.982" transform="translate(-217.631 191.455)" fill="#de1e28"/>
            <circle id="Ellipse_78" data-name="Ellipse 78" cx="2.982" cy="2.982" r="2.982" transform="translate(-222.061 181.931)" fill="#de1e28"/>
            <circle id="Ellipse_79" data-name="Ellipse 79" cx="2.982" cy="2.982" r="2.982" transform="translate(-213.38 200.293)" fill="#de1e28"/>
            <circle id="Ellipse_80" data-name="Ellipse 80" cx="2.982" cy="2.982" r="2.982" transform="translate(-226.943 189.575)" fill="#de1e28"/>
            <circle id="Ellipse_81" data-name="Ellipse 81" cx="2.982" cy="2.982" r="2.982" transform="translate(-221.628 199.45)" fill="#de1e28"/>
            <circle id="Ellipse_82" data-name="Ellipse 82" cx="2.982" cy="2.982" r="2.982" transform="translate(-243.019 208.699)" fill="#de1e28"/>
            <circle id="Ellipse_83" data-name="Ellipse 83" cx="2.982" cy="2.982" r="2.982" transform="translate(-249.157 199.313)" fill="#de1e28"/>
            <circle id="Ellipse_84" data-name="Ellipse 84" cx="2.982" cy="2.982" r="2.982" transform="translate(-237.705 218.574)" fill="#de1e28"/>
          </g>
        </g>
      </g>
    </g>
    <g id="phone">
      <rect id="Rectangle_6" data-name="Rectangle 6" width="34.561" height="69.031" rx="12" transform="translate(-199.075 188.571)" fill="#b0afaf"/>
      <rect id="Rectangle_7" data-name="Rectangle 7" width="29.848" height="53.216" rx="12" transform="translate(-196.828 195.034)" fill="#464544"/>
      <circle id="Ellipse_85" data-name="Ellipse 85" cx="2.994" cy="2.994" r="2.994" transform="translate(-184.897 249.834)" fill="#464544"/>
    </g>
    <g id="sweatshirt">
      <path id="Path_33" data-name="Path 33" d="M-240.589,201.443c6.641,0,12.189-2.9,13.556-6.776l-2.4-2.018c0,2.151-5.378,5.259-11.833,5.618s-11.356-5.26-11.356-5.26l-1.52,1.66C-252.778,198.542-247.229,201.443-240.589,201.443Z" fill="#ed9900"/>
      <path id="Path_34" data-name="Path 34" d="M-208.853,202.891a13.2,13.2,0,0,0-.75-1.557l-.053-.109h-.01a13.108,13.108,0,0,0-11.357-6.558h-6.01l-1.326,4.556-11.475,3.466-13.865-3.944-.445-4.078h-6.884a13.118,13.118,0,0,0-12.607,9.5l-.843,1.826h67.117Z" fill="#f4c200"/>
      <path id="Path_35" data-name="Path 35" d="M-239.834,202.689l11.475-3.466,1.326-4.556c-1.367,3.875-6.915,6.776-13.556,6.776s-12.189-2.9-13.555-6.776l.445,4.078Z" fill="#f4c200"/>
      <path id="Path_36" data-name="Path 36" d="M-274.478,205.991s-12.438,22.525,0,30.951Z" fill="#f4c200"/>
      <path id="Path_37" data-name="Path 37" d="M-207.361,205.991s12.438,22.525,0,30.951Z" fill="#f4c200"/>
      <path id="Path_38" data-name="Path 38" d="M-207.361,205.991h-67.117v29.246a10.13,10.13,0,0,0,10.131,10.13h5.282V219.873h12.959V243.03h23.157v2.337h5.457a10.13,10.13,0,0,0,10.131-10.13Z" fill="#f4c200"/>
      <path id="Path_39" data-name="Path 39" d="M-246.106,243.03V219.873h-12.959v25.494h36.116V243.03Z" fill="#ed9900"/>
    </g>
    <g id="Group_77" data-name="Group 77">
      <path id="Path_40" data-name="Path 40" d="M-105.85,102.4H-309.121a41.16,41.16,0,0,0-41.16,41.16V401.622h285.59V143.565A41.159,41.159,0,0,0-105.85,102.4Zm-55.79,138.049c-74.008.583-128.786-48.367-152.934-50.116-11.849-.858-19.133,1.57-23.486,4.265a75.243,75.243,0,0,1,68.687-44.5h126.046a75.26,75.26,0,0,1,71.735,52.512C-78.508,213.081-102.054,239.985-161.64,240.454Z" fill="#f7b956"/>
      <path id="Path_41" data-name="Path 41" d="M-71.592,203.178c-6.916,10.469-30.462,37.373-90.048,37.842-74.008.583-128.786-48.368-152.934-50.116-11.849-.858-19.133,1.57-23.486,4.265A74.968,74.968,0,0,0-344.6,225.9V401.622H-68.1V225.9A75.183,75.183,0,0,0-71.592,203.178Z" fill="#fcb01b"/>
      <path id="Path_42" data-name="Path 42" d="M-102.543,266.728l13.659-7.7s-3.236,67.65-2.668,98.026.457,40.3.457,40.3l-13.55,3.624Z" fill="#ab7008"/>
      <path id="Path_43" data-name="Path 43" d="M-327.683,259.026h238.8l-13.658,7.7H-314.024Z" fill="#f7b956"/>
      <path id="Path_44" data-name="Path 44" d="M-262.276,109.585v11.356s55.926-38.129,111.852,0l-4.543-12.113S-204.826,68.618-262.276,109.585Z" fill="#fcb01b"/>
      <path id="Path_45" data-name="Path 45" d="M-262.276,120.941h5.678s49.4-31.618,102.01,0h4.164S-197.361,80.806-262.276,120.941Z" fill="#ab7008"/>
      <g id="Group_76" data-name="Group 76">
        <path id="Path_46" data-name="Path 46" d="M-336.8,192.711a1.39,1.39,0,0,0,0,2.779A1.39,1.39,0,0,0-336.8,192.711Z" fill="#d3d3d3"/>
        <path id="Path_47" data-name="Path 47" d="M-334.1,191.717a1.391,1.391,0,0,0,0,2.78A1.391,1.391,0,0,0-334.1,191.717Z" fill="#d3d3d3"/>
        <path id="Path_48" data-name="Path 48" d="M-328.706,189.872a1.273,1.273,0,0,0-1.294,1.02,1.257,1.257,0,0,0-1.119-.594,1.39,1.39,0,0,0,0,2.779,1.272,1.272,0,0,0,1.294-1.02,1.258,1.258,0,0,0,1.119.595A1.391,1.391,0,0,0-328.706,189.872Z" fill="#d3d3d3"/>
        <path id="Path_49" data-name="Path 49" d="M-323.454,189.162a1.267,1.267,0,0,0-1.268.916,1.26,1.26,0,0,0-1.145-.632,1.391,1.391,0,0,0,0,2.78,1.267,1.267,0,0,0,1.268-.916,1.26,1.26,0,0,0,1.145.632A1.391,1.391,0,0,0-323.454,189.162Z" fill="#d3d3d3"/>
        <path id="Path_50" data-name="Path 50" d="M-317.918,189.02a1.255,1.255,0,0,0-1.206.763,1.255,1.255,0,0,0-1.207-.763,1.391,1.391,0,0,0,0,2.78,1.255,1.255,0,0,0,1.206-.763,1.255,1.255,0,0,0,1.207.763A1.391,1.391,0,0,0-317.918,189.02Z" fill="#d3d3d3"/>
        <path id="Path_51" data-name="Path 51" d="M-315.221,189.162a1.391,1.391,0,0,0,0,2.78A1.391,1.391,0,0,0-315.221,189.162Z" fill="#d3d3d3"/>
        <path id="Path_52" data-name="Path 52" d="M-309.685,190.014a1.259,1.259,0,0,0-1.216.783,1.307,1.307,0,0,0-1.339-1.351,1.391,1.391,0,0,0,0,2.78,1.256,1.256,0,0,0,1.215-.784,1.307,1.307,0,0,0,1.34,1.351A1.39,1.39,0,0,0-309.685,190.014Z" fill="#d3d3d3"/>
        <path id="Path_53" data-name="Path 53" d="M-306.846,190.581a1.391,1.391,0,0,0,0,2.78A1.391,1.391,0,0,0-306.846,190.581Z" fill="#d3d3d3"/>
        <path id="Path_54" data-name="Path 54" d="M-304.15,191.575a1.391,1.391,0,0,0,0,2.78A1.391,1.391,0,0,0-304.15,191.575Z" fill="#d3d3d3"/>
        <path id="Path_55" data-name="Path 55" d="M-301.6,192.853a1.39,1.39,0,0,0,0,2.779A1.39,1.39,0,0,0-301.6,192.853Z" fill="#d3d3d3"/>
        <path id="Path_56" data-name="Path 56" d="M-299.04,193.988a1.391,1.391,0,0,0,0,2.78A1.391,1.391,0,0,0-299.04,193.988Z" fill="#d3d3d3"/>
        <path id="Path_57" data-name="Path 57" d="M-291.942,197.821a1.28,1.28,0,0,0-.953.383,1.345,1.345,0,0,0-1.319-1.661,1.258,1.258,0,0,0-1.108.58,1.349,1.349,0,0,0-1.305-1.715,1.39,1.39,0,0,0,0,2.779,1.258,1.258,0,0,0,1.109-.58,1.349,1.349,0,0,0,1.3,1.716,1.279,1.279,0,0,0,.953-.384,1.345,1.345,0,0,0,1.319,1.661A1.39,1.39,0,0,0-291.942,197.821Z" fill="#d3d3d3"/>
        <path id="Path_58" data-name="Path 58" d="M-289.387,198.956a1.391,1.391,0,0,0,0,2.78A1.391,1.391,0,0,0-289.387,198.956Z" fill="#d3d3d3"/>
        <path id="Path_59" data-name="Path 59" d="M-286.407,200.234a1.39,1.39,0,0,0,0,2.779A1.39,1.39,0,0,0-286.407,200.234Z" fill="#d3d3d3"/>
        <path id="Path_60" data-name="Path 60" d="M-283.852,201.795a1.391,1.391,0,0,0,0,2.78A1.391,1.391,0,0,0-283.852,201.795Z" fill="#d3d3d3"/>
        <path id="Path_61" data-name="Path 61" d="M-280.871,203.356a1.391,1.391,0,0,0,0,2.78A1.391,1.391,0,0,0-280.871,203.356Z" fill="#d3d3d3"/>
        <path id="Path_62" data-name="Path 62" d="M-277.89,204.492a1.391,1.391,0,0,0,0,2.78A1.391,1.391,0,0,0-277.89,204.492Z" fill="#d3d3d3"/>
        <path id="Path_63" data-name="Path 63" d="M-275.335,206.2a1.391,1.391,0,0,0,0,2.78A1.391,1.391,0,0,0-275.335,206.2Z" fill="#d3d3d3"/>
        <path id="Path_64" data-name="Path 64" d="M-272.638,207.757a1.39,1.39,0,0,0,0,2.779A1.39,1.39,0,0,0-272.638,207.757Z" fill="#d3d3d3"/>
        <path id="Path_65" data-name="Path 65" d="M-269.8,209.176a1.391,1.391,0,0,0,0,2.78A1.391,1.391,0,0,0-269.8,209.176Z" fill="#d3d3d3"/>
        <path id="Path_66" data-name="Path 66" d="M-266.818,210.6a1.39,1.39,0,0,0,0,2.779A1.39,1.39,0,0,0-266.818,210.6Z" fill="#d3d3d3"/>
        <path id="Path_67" data-name="Path 67" d="M-264.121,212.015a1.391,1.391,0,0,0,0,2.78A1.391,1.391,0,0,0-264.121,212.015Z" fill="#d3d3d3"/>
        <path id="Path_68" data-name="Path 68" d="M-261.141,213.434a1.391,1.391,0,0,0,0,2.78A1.391,1.391,0,0,0-261.141,213.434Z" fill="#d3d3d3"/>
        <path id="Path_69" data-name="Path 69" d="M-258.3,215a1.391,1.391,0,0,0,0,2.78A1.391,1.391,0,0,0-258.3,215Z" fill="#d3d3d3"/>
        <path id="Path_70" data-name="Path 70" d="M-255.6,215.989a1.391,1.391,0,0,0,0,2.78A1.391,1.391,0,0,0-255.6,215.989Z" fill="#d3d3d3"/>
        <path id="Path_71" data-name="Path 71" d="M-252.908,216.841a1.391,1.391,0,0,0,0,2.78A1.391,1.391,0,0,0-252.908,216.841Z" fill="#d3d3d3"/>
        <path id="Path_72" data-name="Path 72" d="M-250.353,218.4a1.391,1.391,0,0,0,0,2.78A1.391,1.391,0,0,0-250.353,218.4Z" fill="#d3d3d3"/>
        <path id="Path_73" data-name="Path 73" d="M-247.8,219.822a1.391,1.391,0,0,0,0,2.78A1.391,1.391,0,0,0-247.8,219.822Z" fill="#d3d3d3"/>
        <path id="Path_74" data-name="Path 74" d="M-244.817,220.816a1.39,1.39,0,0,0,0,2.779A1.39,1.39,0,0,0-244.817,220.816Z" fill="#d3d3d3"/>
        <path id="Path_75" data-name="Path 75" d="M-242.262,221.951a1.391,1.391,0,0,0,0,2.78A1.391,1.391,0,0,0-242.262,221.951Z" fill="#d3d3d3"/>
        <path id="Path_76" data-name="Path 76" d="M-237.01,223.938a1.264,1.264,0,0,0-1.249.858,1.348,1.348,0,0,0-1.306-1.709,1.39,1.39,0,0,0,0,2.779,1.265,1.265,0,0,0,1.249-.857,1.348,1.348,0,0,0,1.306,1.709A1.391,1.391,0,0,0-237.01,223.938Z" fill="#d3d3d3"/>
        <path id="Path_77" data-name="Path 77" d="M-234.171,225.358a1.39,1.39,0,0,0,0,2.779A1.39,1.39,0,0,0-234.171,225.358Z" fill="#d3d3d3"/>
        <path id="Path_78" data-name="Path 78" d="M-228.919,226.777a1.257,1.257,0,0,0-1.222.8,1.324,1.324,0,0,0-1.333-1.508,1.391,1.391,0,0,0,0,2.78,1.258,1.258,0,0,0,1.222-.8,1.323,1.323,0,0,0,1.333,1.508A1.391,1.391,0,0,0-228.919,226.777Z" fill="#d3d3d3"/>
        <path id="Path_79" data-name="Path 79" d="M-226.081,228.2a1.39,1.39,0,0,0,0,2.779A1.39,1.39,0,0,0-226.081,228.2Z" fill="#d3d3d3"/>
        <path id="Path_80" data-name="Path 80" d="M-223.242,229.332a1.391,1.391,0,0,0,0,2.78A1.391,1.391,0,0,0-223.242,229.332Z" fill="#d3d3d3"/>
        <path id="Path_81" data-name="Path 81" d="M-220.119,230.468a1.39,1.39,0,0,0,0,2.779A1.39,1.39,0,0,0-220.119,230.468Z" fill="#d3d3d3"/>
        <path id="Path_82" data-name="Path 82" d="M-214.725,231.887a1.258,1.258,0,0,0-1.222.8,1.324,1.324,0,0,0-1.333-1.508,1.391,1.391,0,0,0,0,2.78,1.258,1.258,0,0,0,1.222-.8,1.324,1.324,0,0,0,1.333,1.508A1.391,1.391,0,0,0-214.725,231.887Z" fill="#d3d3d3"/>
        <path id="Path_83" data-name="Path 83" d="M-212.028,232.881a1.39,1.39,0,0,0,0,2.779A1.39,1.39,0,0,0-212.028,232.881Z" fill="#d3d3d3"/>
        <path id="Path_84" data-name="Path 84" d="M-209.189,233.732a1.391,1.391,0,0,0,0,2.78A1.391,1.391,0,0,0-209.189,233.732Z" fill="#d3d3d3"/>
        <path id="Path_85" data-name="Path 85" d="M-206.492,234.3a1.391,1.391,0,0,0,0,2.78A1.391,1.391,0,0,0-206.492,234.3Z" fill="#d3d3d3"/>
        <path id="Path_86" data-name="Path 86" d="M-203.511,234.868a1.391,1.391,0,0,0,0,2.78A1.391,1.391,0,0,0-203.511,234.868Z" fill="#d3d3d3"/>
        <path id="Path_87" data-name="Path 87" d="M-200.389,235.436a1.39,1.39,0,0,0,0,2.779A1.39,1.39,0,0,0-200.389,235.436Z" fill="#d3d3d3"/>
        <path id="Path_88" data-name="Path 88" d="M-197.55,236.145a1.391,1.391,0,0,0,0,2.78A1.391,1.391,0,0,0-197.55,236.145Z" fill="#d3d3d3"/>
        <path id="Path_89" data-name="Path 89" d="M-194.285,236.855a1.391,1.391,0,0,0,0,2.78A1.391,1.391,0,0,0-194.285,236.855Z" fill="#d3d3d3"/>
        <path id="Path_90" data-name="Path 90" d="M-191.3,237.281a1.391,1.391,0,0,0,0,2.78A1.391,1.391,0,0,0-191.3,237.281Z" fill="#d3d3d3"/>
        <path id="Path_91" data-name="Path 91" d="M-188.323,238.813c-1.789,0-1.792,1.816,0,1.816S-186.532,238.813-188.323,238.813Z" fill="#d3d3d3"/>
        <path id="Path_92" data-name="Path 92" d="M-185.059,238.275a1.39,1.39,0,0,0,0,2.779A1.39,1.39,0,0,0-185.059,238.275Z" fill="#d3d3d3"/>
        <path id="Path_93" data-name="Path 93" d="M-181.794,238.7a1.391,1.391,0,0,0,0,2.78A1.391,1.391,0,0,0-181.794,238.7Z" fill="#d3d3d3"/>
        <path id="Path_94" data-name="Path 94" d="M-178.955,238.984a1.391,1.391,0,0,0,0,2.78A1.391,1.391,0,0,0-178.955,238.984Z" fill="#d3d3d3"/>
        <path id="Path_95" data-name="Path 95" d="M-175.832,239.41a1.391,1.391,0,0,0,0,2.78A1.391,1.391,0,0,0-175.832,239.41Z" fill="#d3d3d3"/>
        <path id="Path_96" data-name="Path 96" d="M-172.568,239.41a1.391,1.391,0,0,0,0,2.78A1.391,1.391,0,0,0-172.568,239.41Z" fill="#d3d3d3"/>
        <path id="Path_97" data-name="Path 97" d="M-169.445,239.41a1.391,1.391,0,0,0,0,2.78A1.391,1.391,0,0,0-169.445,239.41Z" fill="#d3d3d3"/>
        <path id="Path_98" data-name="Path 98" d="M-166.464,239.694a1.391,1.391,0,0,0,0,2.78A1.391,1.391,0,0,0-166.464,239.694Z" fill="#d3d3d3"/>
        <path id="Path_99" data-name="Path 99" d="M-163.2,239.552a1.391,1.391,0,0,0,0,2.78A1.391,1.391,0,0,0-163.2,239.552Z" fill="#d3d3d3"/>
        <path id="Path_100" data-name="Path 100" d="M-160.219,239.694a1.391,1.391,0,0,0,0,2.78A1.391,1.391,0,0,0-160.219,239.694Z" fill="#d3d3d3"/>
        <path id="Path_101" data-name="Path 101" d="M-156.954,239.552a1.391,1.391,0,0,0,0,2.78A1.391,1.391,0,0,0-156.954,239.552Z" fill="#d3d3d3"/>
        <path id="Path_102" data-name="Path 102" d="M-153.831,239.41a1.391,1.391,0,0,0,0,2.78A1.391,1.391,0,0,0-153.831,239.41Z" fill="#d3d3d3"/>
        <path id="Path_103" data-name="Path 103" d="M-150.425,239.41a1.391,1.391,0,0,0,0,2.78A1.391,1.391,0,0,0-150.425,239.41Z" fill="#d3d3d3"/>
        <path id="Path_104" data-name="Path 104" d="M-147.3,239.268a1.391,1.391,0,0,0,0,2.78A1.391,1.391,0,0,0-147.3,239.268Z" fill="#d3d3d3"/>
        <path id="Path_105" data-name="Path 105" d="M-143.9,238.842a1.391,1.391,0,0,0,0,2.78A1.391,1.391,0,0,0-143.9,238.842Z" fill="#d3d3d3"/>
        <path id="Path_106" data-name="Path 106" d="M-140.914,238.7a1.391,1.391,0,0,0,0,2.78A1.391,1.391,0,0,0-140.914,238.7Z" fill="#d3d3d3"/>
        <path id="Path_107" data-name="Path 107" d="M-137.933,238.038a1.391,1.391,0,0,0,0,2.78A1.391,1.391,0,0,0-137.933,238.038Z" fill="#d3d3d3"/>
        <path id="Path_108" data-name="Path 108" d="M-135.1,237.47a1.391,1.391,0,0,0,0,2.78A1.391,1.391,0,0,0-135.1,237.47Z" fill="#d3d3d3"/>
        <path id="Path_109" data-name="Path 109" d="M-132.256,236.9a1.391,1.391,0,0,0,0,2.78A1.391,1.391,0,0,0-132.256,236.9Z" fill="#d3d3d3"/>
        <path id="Path_110" data-name="Path 110" d="M-129.228,236.335a1.39,1.39,0,0,0,0,2.779A1.39,1.39,0,0,0-129.228,236.335Z" fill="#d3d3d3"/>
        <path id="Path_111" data-name="Path 111" d="M-126.2,235.578a1.39,1.39,0,0,0,0,2.779A1.39,1.39,0,0,0-126.2,235.578Z" fill="#d3d3d3"/>
        <path id="Path_112" data-name="Path 112" d="M-123.171,234.821a1.39,1.39,0,0,0,0,2.779A1.39,1.39,0,0,0-123.171,234.821Z" fill="#d3d3d3"/>
        <path id="Path_113" data-name="Path 113" d="M-120.143,233.874a1.391,1.391,0,0,0,0,2.78A1.391,1.391,0,0,0-120.143,233.874Z" fill="#d3d3d3"/>
        <path id="Path_114" data-name="Path 114" d="M-116.926,232.928a1.391,1.391,0,0,0,0,2.78A1.391,1.391,0,0,0-116.926,232.928Z" fill="#d3d3d3"/>
        <path id="Path_115" data-name="Path 115" d="M-113.708,231.982a1.39,1.39,0,0,0,0,2.779A1.39,1.39,0,0,0-113.708,231.982Z" fill="#d3d3d3"/>
        <path id="Path_116" data-name="Path 116" d="M-110.491,230.468a1.39,1.39,0,0,0,0,2.779A1.39,1.39,0,0,0-110.491,230.468Z" fill="#d3d3d3"/>
        <path id="Path_117" data-name="Path 117" d="M-107.084,229.332a1.391,1.391,0,0,0,0,2.78A1.391,1.391,0,0,0-107.084,229.332Z" fill="#d3d3d3"/>
        <path id="Path_118" data-name="Path 118" d="M-104.056,228.2a1.39,1.39,0,0,0,0,2.779A1.39,1.39,0,0,0-104.056,228.2Z" fill="#d3d3d3"/>
        <path id="Path_119" data-name="Path 119" d="M-100.65,226.493a1.391,1.391,0,0,0,0,2.78A1.391,1.391,0,0,0-100.65,226.493Z" fill="#d3d3d3"/>
        <path id="Path_120" data-name="Path 120" d="M-97.621,224.79a1.391,1.391,0,0,0,0,2.78A1.391,1.391,0,0,0-97.621,224.79Z" fill="#d3d3d3"/>
        <path id="Path_121" data-name="Path 121" d="M-95.161,223.087a1.39,1.39,0,0,0,0,2.779A1.39,1.39,0,0,0-95.161,223.087Z" fill="#d3d3d3"/>
        <path id="Path_122" data-name="Path 122" d="M-92.511,221.194a1.391,1.391,0,0,0,0,2.78A1.391,1.391,0,0,0-92.511,221.194Z" fill="#d3d3d3"/>
        <path id="Path_123" data-name="Path 123" d="M-89.294,219.3a1.391,1.391,0,0,0,0,2.78A1.391,1.391,0,0,0-89.294,219.3Z" fill="#d3d3d3"/>
        <path id="Path_124" data-name="Path 124" d="M-86.644,217.409a1.391,1.391,0,0,0,0,2.78A1.391,1.391,0,0,0-86.644,217.409Z" fill="#d3d3d3"/>
        <path id="Path_125" data-name="Path 125" d="M-84.373,215.327a1.391,1.391,0,0,0,0,2.78A1.391,1.391,0,0,0-84.373,215.327Z" fill="#d3d3d3"/>
        <path id="Path_126" data-name="Path 126" d="M-81.913,213.434a1.391,1.391,0,0,0,0,2.78A1.391,1.391,0,0,0-81.913,213.434Z" fill="#d3d3d3"/>
        <path id="Path_127" data-name="Path 127" d="M-79.263,210.974a1.391,1.391,0,0,0,0,2.78A1.391,1.391,0,0,0-79.263,210.974Z" fill="#d3d3d3"/>
        <path id="Path_128" data-name="Path 128" d="M-76.992,209.081a1.391,1.391,0,0,0,0,2.78A1.391,1.391,0,0,0-76.992,209.081Z" fill="#d3d3d3"/>
        <path id="Path_129" data-name="Path 129" d="M-74.721,206.243a1.39,1.39,0,0,0,0,2.779A1.39,1.39,0,0,0-74.721,206.243Z" fill="#d3d3d3"/>
        <path id="Path_130" data-name="Path 130" d="M-72.45,203.4a1.391,1.391,0,0,0,0,2.78A1.391,1.391,0,0,0-72.45,203.4Z" fill="#d3d3d3"/>
      </g>
      <path id="Path_131" data-name="Path 131" d="M-350.281,401.622s121.5,59.049,285.591,0" fill="#6f2c0d"/>
      <path id="Path_132" data-name="Path 132" d="M-101.239,271.176a6.691,6.691,0,0,0-6.671-6.671H-309.073a6.691,6.691,0,0,0-6.671,6.671v31.653h214.5Z" fill="#cd8c19"/>
      <path id="Path_133" data-name="Path 133" d="M-315.744,302.829v92.122a6.691,6.691,0,0,0,6.671,6.671H-107.91a6.691,6.691,0,0,0,6.671-6.671V302.829Z" fill="#fcb01b"/>
    </g>
  </g>
</svg>
