<svg xmlns="http://www.w3.org/2000/svg" xmlns:xlink="http://www.w3.org/1999/xlink" width="96.459" height="96.459" viewBox="0 0 96.459 96.459">
  <defs>
    <clipPath id="clip-path">
      <path id="Path_38" data-name="Path 38" d="M603.812,385.766l-.957,2.513a.685.685,0,0,1-.213.286c-.667.544-2.439.352-3.96-.429-1.286-.661-1.98-1.532-1.759-2.114l.958-2.513c-.222.582.472,1.454,1.759,2.115,1.52.781,3.292.972,3.959.428A.685.685,0,0,0,603.812,385.766Z" fill="none"/>
    </clipPath>
    <clipPath id="clip-path-2">
      <path id="Path_58" data-name="Path 58" d="M597.519,397.926l-.958,2.512a.676.676,0,0,1-.213.286c-.667.544-2.439.353-3.959-.428-1.287-.661-1.981-1.533-1.759-2.115l.957-2.513c-.222.583.472,1.454,1.759,2.115,1.52.781,3.292.972,3.959.428A.684.684,0,0,0,597.519,397.926Z" fill="none"/>
    </clipPath>
    <clipPath id="clip-path-3">
      <path id="Path_79" data-name="Path 79" d="M642.579,399.648l-.957,2.513a.689.689,0,0,1-.213.285c-.667.544-2.439.353-3.96-.428-1.286-.661-1.98-1.532-1.759-2.115l.958-2.512c-.222.582.472,1.453,1.759,2.114,1.52.781,3.292.973,3.959.428A.682.682,0,0,0,642.579,399.648Z" fill="none"/>
    </clipPath>
    <clipPath id="clip-path-4">
      <path id="Path_99" data-name="Path 99" d="M636.286,411.807l-.958,2.513a.676.676,0,0,1-.213.286c-.667.544-2.439.353-3.959-.428-1.287-.661-1.981-1.533-1.759-2.115l.957-2.513c-.222.582.472,1.454,1.759,2.115,1.52.781,3.292.972,3.959.428A.688.688,0,0,0,636.286,411.807Z" fill="none"/>
    </clipPath>
  </defs>
  <g id="skateboard" transform="translate(-122 -358)">
    <g id="skateboard-2" data-name="skateboard" transform="translate(-447.084 14.712)">
      <circle id="Ellipse_11" data-name="Ellipse 11" cx="48.23" cy="48.23" r="48.23" transform="translate(569.084 343.288)" fill="#cce7e6"/>
      <g id="Group_36" data-name="Group 36">
        <path id="Path_19" data-name="Path 19" d="M653.667,401.746c-3.057-2.693-7.855-2.7-11.647-3.466a119,119,0,0,1-13.4-3.5c-9.176-2.99-17.281-8.14-26.127-11.875a58.556,58.556,0,0,0-5.628-2.074c-2.893-1.229-6.062-2.41-9.129-2.028a6.347,6.347,0,0,0-5.525,6.973c.427,7.642,8.684,12.8,14.5,16.377a81.362,81.362,0,0,0,46.6,11.95c3.726-.2,8.173-.673,10.955-3.461C656.889,408.018,656.357,404.115,653.667,401.746ZM610.78,391.408l-1.088-.475c-.259-.183-.517-.368-.778-.549Q609.847,390.894,610.78,391.408Zm-17.863-4.216,3.359,1.469q-1.7-.681-3.4-1.373Zm39.615,18.19a1.522,1.522,0,0,0-.091-.169c.265.085.528.174.793.258C633,405.444,632.766,405.412,632.532,405.382Z" fill="#636061"/>
        <g id="Group_22" data-name="Group 22">
          <g id="Group_15" data-name="Group 15">
            <g id="Group_14" data-name="Group 14" style="isolation: isolate">
              <g id="Group_12" data-name="Group 12" style="isolation: isolate">
                <g id="Group_11" data-name="Group 11" clip-path="url(#clip-path)">
                  <g id="Group_10" data-name="Group 10" style="isolation: isolate">
                    <path id="Path_20" data-name="Path 20" d="M603.812,385.766l-.957,2.513a.705.705,0,0,1-.034.074l.957-2.513a.705.705,0,0,0,.034-.074" fill="#731b1f"/>
                    <path id="Path_21" data-name="Path 21" d="M603.778,385.84l-.957,2.513a.685.685,0,0,1-.1.138l.958-2.513a.653.653,0,0,0,.1-.138" fill="#781c20"/>
                    <path id="Path_22" data-name="Path 22" d="M603.678,385.978l-.958,2.513a.927.927,0,0,1-.078.074l-.048.036.957-2.513.048-.036a.925.925,0,0,0,.079-.074" fill="#7d1d21"/>
                    <path id="Path_23" data-name="Path 23" d="M603.551,386.088l-.957,2.513a1.113,1.113,0,0,1-.151.089l.957-2.513a1.021,1.021,0,0,0,.151-.089" fill="#821e22"/>
                    <path id="Path_24" data-name="Path 24" d="M603.4,386.177l-.957,2.513a1.483,1.483,0,0,1-.177.072l.957-2.513a1.423,1.423,0,0,0,.177-.072" fill="#871f23"/>
                    <path id="Path_25" data-name="Path 25" d="M603.223,386.249l-.957,2.513a1.7,1.7,0,0,1-.216.057l.958-2.512a1.929,1.929,0,0,0,.215-.058" fill="#8d2024"/>
                    <path id="Path_26" data-name="Path 26" d="M603.008,386.307l-.958,2.512a2.41,2.41,0,0,1-.269.04l.957-2.512a2.641,2.641,0,0,0,.27-.04" fill="#922125"/>
                    <path id="Path_27" data-name="Path 27" d="M602.738,386.347l-.957,2.512a3.54,3.54,0,0,1-.392.015l.958-2.513a3.512,3.512,0,0,0,.391-.014" fill="#982226"/>
                    <path id="Path_28" data-name="Path 28" d="M602.347,386.361l-.958,2.513a5.812,5.812,0,0,1-1.6-.282l.957-2.513a5.812,5.812,0,0,0,1.6.282" fill="#9d2328"/>
                    <path id="Path_29" data-name="Path 29" d="M600.749,386.079l-.957,2.513q-.234-.074-.467-.165l.957-2.513q.234.092.467.165" fill="#982226"/>
                    <path id="Path_30" data-name="Path 30" d="M600.282,385.914l-.957,2.513c-.119-.047-.238-.1-.356-.152l.957-2.513c.118.054.237.105.356.152" fill="#922125"/>
                    <path id="Path_31" data-name="Path 31" d="M599.926,385.762l-.957,2.513c-.1-.044-.192-.09-.287-.139l-.025-.013.957-2.513.026.014c.094.048.19.094.286.138" fill="#8d2024"/>
                    <path id="Path_32" data-name="Path 32" d="M599.614,385.61l-.957,2.513c-.1-.05-.191-.1-.281-.154l.957-2.513c.09.052.184.1.281.154" fill="#871f23"/>
                    <path id="Path_33" data-name="Path 33" d="M599.333,385.456l-.957,2.513c-.091-.053-.177-.107-.26-.161l.957-2.513c.083.054.17.108.26.161" fill="#821e22"/>
                    <path id="Path_34" data-name="Path 34" d="M599.073,385.3l-.957,2.513c-.087-.057-.17-.115-.248-.173l.957-2.513c.079.058.161.116.248.173" fill="#7d1d21"/>
                    <path id="Path_35" data-name="Path 35" d="M598.825,385.122l-.957,2.513c-.088-.066-.171-.132-.249-.2l.957-2.513c.078.067.161.133.249.2" fill="#781c20"/>
                    <path id="Path_36" data-name="Path 36" d="M598.576,384.923l-.957,2.513c-.1-.082-.182-.166-.26-.248l.957-2.513a3.46,3.46,0,0,0,.26.248" fill="#731b1f"/>
                    <path id="Path_37" data-name="Path 37" d="M598.316,384.675l-.957,2.513c-.4-.421-.56-.839-.436-1.166l.958-2.513c-.125.327.039.745.435,1.166" fill="#6d191d"/>
                  </g>
                </g>
              </g>
              <g id="Group_13" data-name="Group 13">
                <path id="Path_39" data-name="Path 39" d="M602.055,383.653c1.52.781,2.211,1.854,1.544,2.4s-2.439.353-3.959-.428-2.213-1.856-1.547-2.4S600.534,382.872,602.055,383.653Z" fill="#d02b32"/>
              </g>
            </g>
          </g>
          <g id="Group_21" data-name="Group 21">
            <g id="Group_20" data-name="Group 20" style="isolation: isolate">
              <g id="Group_18" data-name="Group 18" style="isolation: isolate">
                <g id="Group_17" data-name="Group 17" clip-path="url(#clip-path-2)">
                  <g id="Group_16" data-name="Group 16" style="isolation: isolate">
                    <path id="Path_40" data-name="Path 40" d="M597.519,397.926l-.958,2.512a.407.407,0,0,1-.034.074l.958-2.512a.705.705,0,0,0,.034-.074" fill="#731b1f"/>
                    <path id="Path_41" data-name="Path 41" d="M597.485,398l-.958,2.512a.649.649,0,0,1-.1.139l.957-2.513a.714.714,0,0,0,.1-.138" fill="#781c20"/>
                    <path id="Path_42" data-name="Path 42" d="M597.384,398.138l-.957,2.513a.8.8,0,0,1-.079.073.6.6,0,0,1-.048.037l.957-2.513c.017-.012.033-.024.048-.037a.8.8,0,0,0,.079-.073" fill="#7d1d21"/>
                    <path id="Path_43" data-name="Path 43" d="M597.257,398.248l-.957,2.513a1.152,1.152,0,0,1-.151.089l.958-2.513a1.211,1.211,0,0,0,.15-.089" fill="#821e22"/>
                    <path id="Path_44" data-name="Path 44" d="M597.107,398.337l-.958,2.513a1.419,1.419,0,0,1-.177.072l.957-2.513a1.5,1.5,0,0,0,.178-.072" fill="#871f23"/>
                    <path id="Path_45" data-name="Path 45" d="M596.929,398.409l-.957,2.513a2.029,2.029,0,0,1-.215.057l.957-2.513a2.034,2.034,0,0,0,.215-.057" fill="#8d2024"/>
                    <path id="Path_46" data-name="Path 46" d="M596.714,398.466l-.957,2.513a2.413,2.413,0,0,1-.269.04l.957-2.513a2.41,2.41,0,0,0,.269-.04" fill="#922125"/>
                    <path id="Path_47" data-name="Path 47" d="M596.445,398.506l-.957,2.513a3.316,3.316,0,0,1-.392.014l.957-2.513a3.317,3.317,0,0,0,.392-.014" fill="#982226"/>
                    <path id="Path_48" data-name="Path 48" d="M596.053,398.52l-.957,2.513a5.781,5.781,0,0,1-1.6-.282l.958-2.513a5.733,5.733,0,0,0,1.6.282" fill="#9d2328"/>
                    <path id="Path_49" data-name="Path 49" d="M594.456,398.238l-.958,2.513c-.155-.049-.311-.1-.466-.165l.957-2.513c.155.061.311.117.467.165" fill="#982226"/>
                    <path id="Path_50" data-name="Path 50" d="M593.989,398.073l-.957,2.513c-.12-.047-.239-.1-.357-.151l.957-2.513c.118.054.237.1.357.151" fill="#922125"/>
                    <path id="Path_51" data-name="Path 51" d="M593.632,397.922l-.957,2.513c-.1-.044-.191-.09-.286-.139l-.026-.013.957-2.513.026.013c.095.049.19.1.286.139" fill="#8d2024"/>
                    <path id="Path_52" data-name="Path 52" d="M593.32,397.77l-.957,2.513c-.1-.051-.191-.1-.281-.155l.958-2.513c.09.053.183.1.28.155" fill="#871f23"/>
                    <path id="Path_53" data-name="Path 53" d="M593.04,397.615l-.958,2.513c-.09-.053-.177-.106-.259-.161l.957-2.512c.083.054.169.108.26.16" fill="#821e22"/>
                    <path id="Path_54" data-name="Path 54" d="M592.78,397.455l-.957,2.512c-.087-.057-.17-.114-.248-.173l.957-2.512c.078.058.161.116.248.173" fill="#7d1d21"/>
                    <path id="Path_55" data-name="Path 55" d="M592.532,397.282l-.957,2.512c-.089-.065-.172-.132-.249-.2l.957-2.512c.077.066.16.133.249.2" fill="#781c20"/>
                    <path id="Path_56" data-name="Path 56" d="M592.283,397.083l-.957,2.512a3.29,3.29,0,0,1-.261-.248l.958-2.513c.078.083.165.166.26.249" fill="#731b1f"/>
                    <path id="Path_57" data-name="Path 57" d="M592.023,396.834l-.958,2.513c-.4-.421-.559-.839-.435-1.166l.957-2.513c-.124.327.04.745.436,1.166" fill="#6d191d"/>
                  </g>
                </g>
              </g>
              <g id="Group_19" data-name="Group 19">
                <path id="Path_59" data-name="Path 59" d="M595.761,395.812c1.521.781,2.211,1.855,1.544,2.4s-2.439.353-3.959-.428-2.213-1.856-1.546-2.4S594.241,395.031,595.761,395.812Z" fill="#d02b32"/>
              </g>
            </g>
          </g>
          <path id="Path_60" data-name="Path 60" d="M598.837,388.15l-4.664,8.633.929.423,4.291-8.761" fill="#e1353d"/>
        </g>
        <rect id="Rectangle_3" data-name="Rectangle 3" width="4.514" height="4.74" transform="translate(596.211 388.809) rotate(24.596)" fill="#e1353d"/>
        <g id="Group_35" data-name="Group 35">
          <g id="Group_28" data-name="Group 28">
            <g id="Group_27" data-name="Group 27" style="isolation: isolate">
              <g id="Group_25" data-name="Group 25" style="isolation: isolate">
                <g id="Group_24" data-name="Group 24" clip-path="url(#clip-path-3)">
                  <g id="Group_23" data-name="Group 23" style="isolation: isolate">
                    <path id="Path_61" data-name="Path 61" d="M642.579,399.648l-.957,2.513a.813.813,0,0,1-.034.074l.957-2.513a.7.7,0,0,0,.034-.074" fill="#731b1f"/>
                    <path id="Path_62" data-name="Path 62" d="M642.545,399.722l-.957,2.513a.716.716,0,0,1-.1.138l.958-2.513a.71.71,0,0,0,.1-.138" fill="#781c20"/>
                    <path id="Path_63" data-name="Path 63" d="M642.445,399.86l-.958,2.513a.779.779,0,0,1-.078.073l-.048.037.957-2.513.048-.037a.925.925,0,0,0,.079-.073" fill="#7d1d21"/>
                    <path id="Path_64" data-name="Path 64" d="M642.318,399.97l-.957,2.513a1.225,1.225,0,0,1-.151.089l.957-2.513a1.11,1.11,0,0,0,.151-.089" fill="#821e22"/>
                    <path id="Path_65" data-name="Path 65" d="M642.167,400.059l-.957,2.513a1.492,1.492,0,0,1-.177.072l.957-2.513a1.424,1.424,0,0,0,.177-.072" fill="#871f23"/>
                    <path id="Path_66" data-name="Path 66" d="M641.99,400.131l-.957,2.513a2.127,2.127,0,0,1-.216.057l.958-2.513a1.735,1.735,0,0,0,.215-.057" fill="#8d2024"/>
                    <path id="Path_67" data-name="Path 67" d="M641.775,400.188l-.958,2.513a2.411,2.411,0,0,1-.269.04l.957-2.513a2.4,2.4,0,0,0,.27-.04" fill="#922125"/>
                    <path id="Path_68" data-name="Path 68" d="M641.505,400.228l-.957,2.513a3.322,3.322,0,0,1-.392.014l.958-2.512a3.519,3.519,0,0,0,.391-.015" fill="#982226"/>
                    <path id="Path_69" data-name="Path 69" d="M641.114,400.243l-.958,2.512a5.737,5.737,0,0,1-1.6-.282l.957-2.512a5.813,5.813,0,0,0,1.6.282" fill="#9d2328"/>
                    <path id="Path_70" data-name="Path 70" d="M639.516,399.961l-.957,2.512q-.234-.073-.467-.165l.957-2.513q.234.093.467.166" fill="#982226"/>
                    <path id="Path_71" data-name="Path 71" d="M639.049,399.8l-.957,2.513c-.119-.047-.238-.1-.356-.151l.957-2.513c.118.054.237.1.356.151" fill="#922125"/>
                    <path id="Path_72" data-name="Path 72" d="M638.693,399.644l-.957,2.513c-.1-.044-.192-.09-.287-.139l-.025-.013.957-2.513.026.013c.094.049.19.1.286.139" fill="#8d2024"/>
                    <path id="Path_73" data-name="Path 73" d="M638.381,399.492l-.957,2.513c-.1-.051-.191-.1-.281-.155l.957-2.513c.09.053.184.1.281.155" fill="#871f23"/>
                    <path id="Path_74" data-name="Path 74" d="M638.1,399.337l-.957,2.513c-.091-.052-.177-.106-.26-.161l.957-2.512c.083.054.17.108.26.16" fill="#821e22"/>
                    <path id="Path_75" data-name="Path 75" d="M637.84,399.177l-.957,2.512c-.087-.056-.17-.114-.248-.172l.957-2.513c.079.058.161.116.248.173" fill="#7d1d21"/>
                    <path id="Path_76" data-name="Path 76" d="M637.592,399l-.957,2.513c-.088-.066-.171-.133-.249-.2l.957-2.513c.078.067.161.133.249.2" fill="#781c20"/>
                    <path id="Path_77" data-name="Path 77" d="M637.343,398.8l-.957,2.513c-.095-.083-.182-.166-.26-.249l.957-2.513c.078.083.165.166.26.249" fill="#731b1f"/>
                    <path id="Path_78" data-name="Path 78" d="M637.083,398.556l-.957,2.513c-.4-.421-.56-.839-.436-1.166l.958-2.512c-.125.326.039.745.435,1.165" fill="#6d191d"/>
                  </g>
                </g>
              </g>
              <g id="Group_26" data-name="Group 26">
                <path id="Path_80" data-name="Path 80" d="M640.822,397.535c1.52.78,2.211,1.854,1.544,2.4s-2.439.353-3.959-.428-2.213-1.855-1.547-2.4S639.3,396.754,640.822,397.535Z" fill="#d02b32"/>
              </g>
            </g>
          </g>
          <g id="Group_34" data-name="Group 34">
            <g id="Group_33" data-name="Group 33" style="isolation: isolate">
              <g id="Group_31" data-name="Group 31" style="isolation: isolate">
                <g id="Group_30" data-name="Group 30" clip-path="url(#clip-path-4)">
                  <g id="Group_29" data-name="Group 29" style="isolation: isolate">
                    <path id="Path_81" data-name="Path 81" d="M636.286,411.807l-.958,2.513a.452.452,0,0,1-.034.074l.958-2.513a.708.708,0,0,0,.034-.074" fill="#731b1f"/>
                    <path id="Path_82" data-name="Path 82" d="M636.252,411.881l-.958,2.513a.621.621,0,0,1-.1.138l.957-2.513a.661.661,0,0,0,.1-.138" fill="#781c20"/>
                    <path id="Path_83" data-name="Path 83" d="M636.151,412.019l-.957,2.513a.8.8,0,0,1-.079.074l-.048.036.957-2.513a.59.59,0,0,0,.048-.036.8.8,0,0,0,.079-.074" fill="#7d1d21"/>
                    <path id="Path_84" data-name="Path 84" d="M636.024,412.129l-.957,2.513a.97.97,0,0,1-.151.089l.958-2.512a1.1,1.1,0,0,0,.15-.09" fill="#821e22"/>
                    <path id="Path_85" data-name="Path 85" d="M635.874,412.219l-.958,2.512a1.419,1.419,0,0,1-.177.072l.957-2.512a1.5,1.5,0,0,0,.178-.072" fill="#871f23"/>
                    <path id="Path_86" data-name="Path 86" d="M635.7,412.291l-.957,2.512a1.821,1.821,0,0,1-.215.058l.957-2.513a2.029,2.029,0,0,0,.215-.057" fill="#8d2024"/>
                    <path id="Path_87" data-name="Path 87" d="M635.481,412.348l-.957,2.513a2.669,2.669,0,0,1-.269.04l.957-2.513a2.67,2.67,0,0,0,.269-.04" fill="#922125"/>
                    <path id="Path_88" data-name="Path 88" d="M635.212,412.388l-.957,2.513a3.555,3.555,0,0,1-.392.014l.957-2.513a3.554,3.554,0,0,0,.392-.014" fill="#982226"/>
                    <path id="Path_89" data-name="Path 89" d="M634.82,412.4l-.957,2.513a5.819,5.819,0,0,1-1.6-.282l.958-2.513a5.768,5.768,0,0,0,1.6.282" fill="#9d2328"/>
                    <path id="Path_90" data-name="Path 90" d="M633.223,412.12l-.958,2.513c-.155-.049-.311-.1-.466-.165l.957-2.513q.233.092.467.165" fill="#982226"/>
                    <path id="Path_91" data-name="Path 91" d="M632.756,411.955l-.957,2.513c-.12-.047-.239-.1-.357-.152l.957-2.512c.118.054.237.1.357.151" fill="#922125"/>
                    <path id="Path_92" data-name="Path 92" d="M632.4,411.8l-.957,2.512c-.1-.044-.191-.09-.286-.138l-.026-.014.957-2.513.026.014c.1.048.19.1.286.139" fill="#8d2024"/>
                    <path id="Path_93" data-name="Path 93" d="M632.087,411.651l-.957,2.513c-.1-.05-.191-.1-.281-.154l.958-2.513c.09.052.183.1.28.154" fill="#871f23"/>
                    <path id="Path_94" data-name="Path 94" d="M631.807,411.5l-.958,2.513c-.09-.053-.177-.107-.259-.161l.957-2.513c.083.055.169.108.26.161" fill="#821e22"/>
                    <path id="Path_95" data-name="Path 95" d="M631.547,411.336l-.957,2.513c-.087-.057-.17-.115-.248-.173l.957-2.513c.078.059.161.116.248.173" fill="#7d1d21"/>
                    <path id="Path_96" data-name="Path 96" d="M631.3,411.163l-.957,2.513c-.089-.066-.172-.132-.249-.2l.957-2.513c.077.067.16.134.249.2" fill="#781c20"/>
                    <path id="Path_97" data-name="Path 97" d="M631.05,410.964l-.957,2.513a3.291,3.291,0,0,1-.261-.248l.958-2.513a3.46,3.46,0,0,0,.26.248" fill="#731b1f"/>
                    <path id="Path_98" data-name="Path 98" d="M630.79,410.716l-.958,2.513c-.395-.421-.559-.839-.435-1.166l.957-2.513c-.124.327.04.745.436,1.166" fill="#6d191d"/>
                  </g>
                </g>
              </g>
              <g id="Group_32" data-name="Group 32">
                <path id="Path_100" data-name="Path 100" d="M634.528,409.694c1.521.781,2.211,1.855,1.544,2.4s-2.439.353-3.959-.428-2.213-1.856-1.546-2.4S633.008,408.913,634.528,409.694Z" fill="#d02b32"/>
              </g>
            </g>
          </g>
          <path id="Path_101" data-name="Path 101" d="M637.6,402.032l-4.664,8.633.929.423,4.291-8.761" fill="#e1353d"/>
        </g>
        <rect id="Rectangle_4" data-name="Rectangle 4" width="4.514" height="4.74" transform="translate(634.978 402.69) rotate(24.596)" fill="#e1353d"/>
      </g>
    </g>
    <g id="wrong" transform="translate(-18)">
      <g id="Group_6" data-name="Group 6" transform="translate(-359.084 318.319)">
        <circle id="Ellipse_1" data-name="Ellipse 1" cx="48.23" cy="48.23" r="48.23" transform="translate(499.084 39.681)" fill="#ff0505" opacity="0.549"/>
      </g>
      <line id="Line_1" data-name="Line 1" x2="68" y2="68" transform="translate(154.5 372.5)" fill="none" stroke="#fff" stroke-linecap="round" stroke-width="4"/>
      <line id="Line_2" data-name="Line 2" x1="68" y2="68" transform="translate(154.5 372.5)" fill="none" stroke="#fff" stroke-linecap="round" stroke-width="4"/>
    </g>
  </g>
</svg>
