<svg xmlns="http://www.w3.org/2000/svg" xmlns:xlink="http://www.w3.org/1999/xlink" width="96.459" height="96.459" viewBox="0 0 96.459 96.459"><defs><clipPath id="a"><path d="M737.459,368.5s-6.341-5.927-17.919-3.722c0,0,.965,21.366-4.963,22.331s-20.124-12.544-21.916,2.343c-1.325,11,13.469,14.552,24.059,14.874,1.507-2.871,5.985-9.044,16.028-7.279C736.1,391.18,738.224,381.6,737.459,368.5Z" fill="none"/></clipPath><clipPath id="b"><path d="M761.479,387.484s-7.508-4.354-18.3.393c0,0,5.732,20.6.172,22.874s-22.425-7.71-20.832,7.2c1.177,11.021,16.389,11.16,26.782,9.1.825-3.136,3.8-10.156,13.988-10.688C765.244,409.886,765.162,400.075,761.479,387.484Z" fill="none"/></clipPath></defs><g transform="translate(-139.764 -474.608)"><circle cx="48.23" cy="48.23" r="48.23" transform="translate(139.764 474.608)" fill="#cce7e6"/><g transform="translate(-541.084 131.319)"><path d="M720.532,353.151s13.508-4.411,17.919,4l-.965,11.441s-7.857-5.927-17.919-3.722Z" fill="#efecec"/><path d="M716.747,404.416a32.873,32.873,0,0,0,8.747-.677c2.64-.74,5.2-2.957,7.281-6.6C722.732,395.372,718.254,401.544,716.747,404.416Z" fill="#efecec"/><path d="M737.486,368.589s-6.341-5.927-17.919-3.722c0,0,.965,21.366-4.963,22.331s-20.124-12.544-21.916,2.343c-1.325,11,13.469,14.552,24.059,14.875,1.507-2.872,5.985-9.044,16.028-7.28C736.13,391.265,738.251,381.686,737.486,368.589Z" fill="#d2d2d2"/><g clip-path="url(#a)"><rect width="4.227" height="4.227" rx="2.114" transform="translate(717.488 365.712) rotate(4.977)" fill="#de1e28"/><rect width="4.227" height="4.227" rx="2.114" transform="translate(725.676 365.963) rotate(4.977)" fill="#de1e28"/><rect width="4.227" height="4.227" rx="2.114" transform="translate(734.815 366.944) rotate(4.977)" fill="#de1e28"/><rect width="4.227" height="4.227" rx="2.114" transform="matrix(0.996, 0.087, -0.087, 0.996, 730.491, 372.102)" fill="#de1e28"/><rect width="4.227" height="4.227" rx="2.114" transform="translate(722.24 372.582) rotate(4.977)" fill="#de1e28"/><rect width="4.227" height="4.227" rx="2.114" transform="translate(717.598 379.281) rotate(4.977)" fill="#de1e28"/><rect width="4.227" height="4.227" rx="2.114" transform="matrix(0.996, 0.087, -0.087, 0.996, 726.892, 379.537)" fill="#de1e28"/><rect width="4.227" height="4.227" rx="2.114" transform="translate(736.178 379.884) rotate(4.977)" fill="#de1e28"/><rect width="4.227" height="4.227" rx="2.114" transform="translate(730.744 386.145) rotate(4.977)" fill="#de1e28"/><rect width="4.227" height="4.227" rx="2.114" transform="translate(722.123 385.578) rotate(4.977)" fill="#de1e28"/><rect width="4.227" height="4.227" rx="2.114" transform="matrix(0.996, 0.087, -0.087, 0.996, 712.665, 386.138)" fill="#de1e28"/><rect width="4.227" height="4.227" rx="2.114" transform="translate(703.101 384.752) rotate(4.977)" fill="#de1e28"/><rect width="4.227" height="4.227" rx="2.114" transform="translate(695.303 384.257) rotate(4.977)" fill="#de1e28"/><rect width="4.227" height="4.227" rx="2.114" transform="translate(698.928 390.292) rotate(4.977)" fill="#de1e28"/><rect width="4.227" height="4.227" rx="2.114" transform="matrix(0.996, 0.087, -0.087, 0.996, 708.087, 392.104)" fill="#de1e28"/><rect width="4.227" height="4.227" rx="2.114" transform="translate(719.2 391.596) rotate(4.977)" fill="#de1e28"/><rect width="4.227" height="4.227" rx="2.114" transform="translate(712.982 397.327) rotate(4.977)" fill="#de1e28"/><rect width="4.227" height="4.227" rx="2.114" transform="translate(702.916 397.465) rotate(4.977)" fill="#de1e28"/><rect width="4.227" height="4.227" rx="2.114" transform="matrix(0.996, 0.087, -0.087, 0.996, 694.362, 395.06)" fill="#de1e28"/></g><path d="M741.615,376.373s12.2-7.284,18.36-.057l1.584,11.371s-8.971-4.046-18.3.327Z" fill="#efecec"/><path d="M749.242,427.209a32.819,32.819,0,0,0,8.382-2.592c2.411-1.3,4.417-4.031,5.644-8.047C753.083,417.066,750.078,424.075,749.242,427.209Z" fill="#efecec"/><path d="M761.559,387.687s-7.492-4.381-18.3.327c0,0,5.658,20.625.09,22.875s-22.4-7.791-20.858,7.124c1.137,11.025,16.349,11.219,26.749,9.2.836-3.134,3.841-10.143,14.026-10.639C765.244,410.1,765.2,400.292,761.559,387.687Z" fill="#d2d2d2"/><g clip-path="url(#b)"><rect width="4.227" height="4.227" rx="2.114" transform="translate(744.046 389.593) rotate(4.977)" fill="#de1e28"/><rect width="4.227" height="4.227" rx="2.114" transform="matrix(0.996, 0.087, -0.087, 0.996, 752.233, 389.844)" fill="#de1e28"/><rect width="4.227" height="4.227" rx="2.114" transform="matrix(0.996, 0.087, -0.087, 0.996, 761.372, 390.825)" fill="#de1e28"/><rect width="4.227" height="4.227" rx="2.114" transform="translate(757.049 395.983) rotate(4.977)" fill="#de1e28"/><rect width="4.227" height="4.227" rx="2.114" transform="translate(748.797 396.463) rotate(4.977)" fill="#de1e28"/><rect width="4.227" height="4.227" rx="2.114" transform="translate(744.155 403.162) rotate(4.977)" fill="#de1e28"/><rect width="4.227" height="4.227" rx="2.114" transform="translate(753.449 403.418) rotate(4.977)" fill="#de1e28"/><rect width="4.227" height="4.227" rx="2.114" transform="translate(762.736 403.765) rotate(4.977)" fill="#de1e28"/><rect width="4.227" height="4.227" rx="2.114" transform="translate(757.302 410.026) rotate(4.977)" fill="#de1e28"/><rect width="4.227" height="4.227" rx="2.114" transform="matrix(0.996, 0.087, -0.087, 0.996, 748.68, 409.459)" fill="#de1e28"/><rect width="4.227" height="4.227" rx="2.114" transform="matrix(0.996, 0.087, -0.087, 0.996, 739.223, 410.019)" fill="#de1e28"/><rect width="4.227" height="4.227" rx="2.114" transform="translate(729.658 408.633) rotate(4.977)" fill="#de1e28"/><rect width="4.227" height="4.227" rx="2.114" transform="matrix(0.996, 0.087, -0.087, 0.996, 721.861, 408.138)" fill="#de1e28"/><rect width="4.227" height="4.227" rx="2.114" transform="matrix(0.996, 0.087, -0.087, 0.996, 725.486, 414.173)" fill="#de1e28"/><rect width="4.227" height="4.227" rx="2.114" transform="translate(734.644 415.985) rotate(4.977)" fill="#de1e28"/><rect width="4.227" height="4.227" rx="2.114" transform="translate(745.758 415.477) rotate(4.977)" fill="#de1e28"/><rect width="4.227" height="4.227" rx="2.114" transform="translate(739.54 421.208) rotate(4.977)" fill="#de1e28"/><rect width="4.227" height="4.227" rx="2.114" transform="translate(729.473 421.346) rotate(4.977)" fill="#de1e28"/><rect width="4.227" height="4.227" rx="2.114" transform="translate(720.92 418.941) rotate(4.977)" fill="#de1e28"/></g></g></g></svg>