<svg xmlns="http://www.w3.org/2000/svg" width="96.459" height="96.459" viewBox="0 0 96.459 96.459"><g transform="translate(-139.764 -241)"><circle cx="48.23" cy="48.23" r="48.23" transform="translate(139.764 241)" fill="#cce7e6"/><g transform="translate(-541.084 131.319)"><path d="M720.771,133.141l.876-.955s2.821,3.234,6.536,3.028,6.812-2,6.812-3.234l1.383,1.161-.764,2.623-6.605,1.995-7.982-2.27Z" fill="#ed9900"/><path d="M754.95,173.333l1.875,3.6,7.55-2.643-1.761-3.657Z" fill="#ed9900"/><path d="M693.78,172.78l6.04,4.153,1.862-3.193-6.281-4.473Z" fill="#ed9900"/><path d="M746.842,137.876a7.457,7.457,0,0,0-.431-.9l-.031-.064h-.005a7.546,7.546,0,0,0-6.538-3.776h-3.459c-.787,2.231-3.981,3.9-7.8,3.9s-7.016-1.67-7.8-3.9h-3.962a7.551,7.551,0,0,0-7.257,5.468L695.4,169.267l6.281,4.473,7.575-12.986v14.669a7.551,7.551,0,0,0,7.551,7.55h23.028a7.55,7.55,0,0,0,7.55-7.55V158.812l7.563,14.521,7.664-2.7Z" fill="#f4c200"/><path d="M720.772,146.92v21.518h16.8V159h-8.494V146.847Z" fill="#ed9900"/></g></g></svg>