<svg xmlns="http://www.w3.org/2000/svg" width="96.459" height="96.459" viewBox="0 0 96.459 96.459"><g transform="translate(-251.528 -357.452)"><circle cx="48.23" cy="48.23" r="48.23" transform="translate(251.528 357.452)" fill="#cce7e6"/><g transform="translate(-541.084 131.319)"><path d="M818.545,265.329a16.616,16.616,0,0,1-2.567-1.913c-1.869,2.371-2.435,3.285-3.911,5.366a16.741,16.741,0,0,0,2.567,1.914C816.11,268.615,816.677,267.7,818.545,265.329Z" fill="#ed9900"/><path d="M858.257,304.082c.328.372.5.557.851.926,1.475-2.081,2.042-3,3.91-5.367-.353-.368-.523-.553-.85-.925C860.3,301.087,859.733,302,858.257,304.082Z" fill="#c87c00"/><path d="M819.65,265.978c-1.868,2.371-2.435,3.285-3.91,5.366,23.241,7.189,29.549,11.988,42.517,32.738,1.476-2.081,2.043-2.995,3.911-5.366C849.2,277.966,842.891,273.167,819.65,265.978Z" fill="#ed9900"/><path d="M818.545,265.329c-1.868,2.371-2.435,3.286-3.911,5.367.438.274.659.4,1.106.648,1.475-2.081,2.042-2.995,3.91-5.366C819.2,265.733,818.982,265.6,818.545,265.329Z" fill="#c87c00"/><path d="M859.108,305.008a24.525,24.525,0,0,0,1.8,1.719c1.476-2.081,2.043-2.995,3.911-5.366a24.344,24.344,0,0,1-1.8-1.72C861.15,302.012,860.583,302.927,859.108,305.008Z" fill="#ed9900"/><path d="M825.012,259.642c-.446-.245-.668-.374-1.105-.649-1.857,2.225-3.494,3.965-5.362,6.336.437.275.658.4,1.105.649C821.518,263.607,823.155,261.866,825.012,259.642Z" fill="#fec66a"/><path d="M823.907,258.993a16.666,16.666,0,0,1-2.567-1.913c-1.857,2.224-3.494,3.965-5.362,6.336a16.616,16.616,0,0,0,2.567,1.913C820.413,262.958,822.05,261.218,823.907,258.993Z" fill="#fcd58e"/><path d="M863.018,299.641a24.344,24.344,0,0,0,1.8,1.72c1.868-2.371,3.505-4.111,5.362-6.336a24.533,24.533,0,0,1-1.8-1.72C866.524,295.53,864.887,297.27,863.018,299.641Z" fill="#fcd58e"/><path d="M862.168,298.716c.327.372.5.557.85.925,1.869-2.371,3.506-4.111,5.363-6.336-.354-.368-.523-.553-.851-.925C865.673,294.6,864.036,296.345,862.168,298.716Z" fill="#fec66a"/><path d="M862.168,298.716c1.868-2.371,3.5-4.112,5.362-6.336-12.969-20.75-19.276-25.549-42.518-32.738-1.857,2.224-3.494,3.965-5.362,6.336C842.891,273.167,849.2,277.966,862.168,298.716Z" fill="#fcd58e"/><path d="M815.74,271.344a59.869,59.869,0,0,1-4.945,6.3c23.241,7.189,29.549,11.987,42.518,32.737a59.61,59.61,0,0,0,4.944-6.294C845.289,283.332,838.981,278.533,815.74,271.344Z" fill="#fcd58e"/><path d="M812.067,268.782a59.51,59.51,0,0,1-4.945,6.294,16.742,16.742,0,0,0,2.568,1.914,59.608,59.608,0,0,0,4.944-6.294A16.741,16.741,0,0,1,812.067,268.782Z" fill="#fcd58e"/><path d="M858.257,304.082a59.61,59.61,0,0,1-4.944,6.294c.327.373.5.558.85.926a59.508,59.508,0,0,0,4.945-6.294C858.754,304.639,858.585,304.454,858.257,304.082Z" fill="#fec66a"/><path d="M814.634,270.7a59.608,59.608,0,0,1-4.944,6.294c.437.275.658.4,1.1.649a59.869,59.869,0,0,0,4.945-6.3C815.293,271.1,815.072,270.97,814.634,270.7Z" fill="#fec66a"/><path d="M854.163,311.3a24.349,24.349,0,0,0,1.8,1.72,59.6,59.6,0,0,0,4.944-6.3,24.525,24.525,0,0,1-1.8-1.719A59.508,59.508,0,0,1,854.163,311.3Z" fill="#fcd58e"/><path d="M874.262,290c1.573-1.945,2.347-2.9,4.781-5.676a24.546,24.546,0,0,1-1.8-1.72c-2.435,2.772-3.208,3.731-4.782,5.676A24.542,24.542,0,0,0,874.262,290Z" fill="#fcd58e"/><path d="M871.613,287.355c.327.372.5.558.85.926,1.574-1.945,2.347-2.9,4.782-5.676-.354-.368-.523-.553-.851-.925C873.96,284.451,873.186,285.411,871.613,287.355Z" fill="#fec66a"/><path d="M832.771,248.293a16.666,16.666,0,0,1-2.567-1.913c-2.435,2.771-3.208,3.731-4.781,5.675a16.691,16.691,0,0,0,2.567,1.914C829.563,252.024,830.337,251.065,832.771,248.293Z" fill="#fcd58e"/><path d="M829.095,254.617c1.573-1.944,2.347-2.9,4.782-5.675-.447-.245-.669-.374-1.106-.649-2.434,2.772-3.208,3.731-4.781,5.676C828.427,254.244,828.648,254.373,829.095,254.617Z" fill="#fec66a"/><path d="M871.613,287.355c1.573-1.944,2.347-2.9,4.781-5.675-12.968-20.75-19.276-25.549-42.517-32.738-2.435,2.771-3.209,3.731-4.782,5.675C852.336,261.807,858.644,266.605,871.613,287.355Z" fill="#fcd58e"/><path d="M829.095,254.617c-.447-.244-.668-.373-1.1-.648-1.6,1.98-2.226,2.8-4.083,5.024.437.275.659.4,1.105.649C826.869,257.417,827.493,256.6,829.095,254.617Z" fill="#c87c00"/><path d="M868.381,293.3c1.857-2.224,2.48-3.044,4.082-5.024-.353-.368-.523-.554-.85-.926-1.6,1.98-2.226,2.8-4.083,5.025C867.858,292.752,868.027,292.937,868.381,293.3Z" fill="#c87c00"/><path d="M825.012,259.642c23.242,7.189,29.549,11.988,42.518,32.738,1.857-2.225,2.481-3.045,4.083-5.025-12.969-20.75-19.277-25.548-42.518-32.738C827.493,256.6,826.869,257.417,825.012,259.642Z" fill="#ed9900"/><path d="M868.381,293.3a24.533,24.533,0,0,0,1.8,1.72c1.857-2.225,2.481-3.044,4.083-5.024a24.542,24.542,0,0,1-1.8-1.72C870.861,290.261,870.238,291.081,868.381,293.3Z" fill="#ed9900"/><path d="M827.99,253.969a16.691,16.691,0,0,1-2.567-1.914c-1.6,1.98-2.226,2.8-4.083,5.025a16.666,16.666,0,0,0,2.567,1.913C825.764,256.769,826.388,255.949,827.99,253.969Z" fill="#ed9900"/></g></g></svg>