<svg xmlns="http://www.w3.org/2000/svg" width="273.791" height="668.158" viewBox="0 0 273.791 668.158"><g transform="translate(-594.696 -493.057)"><path d="M31.809,76.568s-4.063-31.048-6.355-43.91S27.382,6.583,21.241,2.1,5.176.828,2.9,6.881A58.058,58.058,0,0,0,0,20.262V71.724Z" transform="translate(646.843 851.863) rotate(-175)" fill="#f2c8bb" stroke="#b69a93" stroke-width="6"/><rect width="23.538" height="149.072" transform="translate(669.898 798.861) rotate(-166)" fill="#2f2d2d"/><path d="M175.56,275.226s-24.08-53.45-34.578-122.257S133.568,0,133.568,0-27.45,6.593,4.1,44.858,55.764,189.025,55.764,189.025s7.358,61.422,4.908,79.409.1,30.076,8.281,44.014,68.076,40.61,68.076,40.61H166.1s39.479-24.007,39.725-35.548,6.695-50.219-4.945-53.2-26.3,5.367-25.316,22.571,4.788,25.562,4.788,25.562" transform="translate(804.425 1070.225) rotate(-175)" fill="#f2c8bb" stroke="#b69a93" stroke-width="5"/><path d="M0,10.577S40.672,118.818,41.206,136.491s24.789,23.015,33.872,12.329,111.524-33.483,122.21-31.313S181.008,0,181.008,0Z" transform="translate(851.298 1158.297) rotate(-175)" fill="#ee7358" stroke="#e94437" stroke-width="5"/><g transform="translate(795.226 688.333) rotate(-180)" fill="#fff" stroke="#2f2d2d" stroke-width="24"><ellipse cx="96.766" cy="97.638" rx="96.766" ry="97.638" stroke="none"/><ellipse cx="96.766" cy="97.638" rx="84.766" ry="85.638" fill="none"/></g><path d="M44.2,0S82.158,20.84,83.373,47.833,72.916,78.663,69.431,114.1s12.125,57.424,0,75.465S42.369,199.3,32.2,176.178s-10.907-67.185-10.907-67.185L0,86.154" transform="translate(744.047 904.52) rotate(167)" fill="#f2c8bb" stroke="#b79b93" stroke-linecap="round" stroke-width="5"/><g transform="translate(739.014 602.841) rotate(-175)" fill="#9a2843" stroke="#9a2843" stroke-width="8"><ellipse cx="20.051" cy="21.358" rx="20.051" ry="21.358" stroke="none"/><ellipse cx="20.051" cy="21.358" rx="24.051" ry="25.358" fill="none"/></g><path d="M0,4.953,6.992,37.729V0Z" transform="matrix(-0.875, -0.485, 0.485, -0.875, 718.29, 569.479)" fill="#9a2843"/><path d="M0,4.953,6.992,37.729V0Z" transform="matrix(0.259, 0.966, -0.966, 0.259, 715.282, 583.167)" fill="#9a2843"/><path d="M0,4.953,6.992,37.729V0Z" transform="matrix(-0.588, -0.809, 0.809, -0.588, 731.699, 578.668)" fill="#9a2843"/><path d="M0,4.953,6.992,37.729V0Z" transform="translate(724.521 571.028) rotate(133)" fill="#9a2843"/><path d="M0,4.953,6.992,37.729V0Z" transform="translate(724.986 590.769) rotate(-34)" fill="#9a2843"/><path d="M0,4.953,6.992,37.729V0Z" transform="matrix(0.087, -0.996, 0.996, 0.087, 720.828, 589.232)" fill="#9a2843"/><ellipse cx="3.487" cy="3.923" rx="3.487" ry="3.923" transform="translate(685.636 602.411) rotate(-175)" fill="#9a2843"/><ellipse cx="3.487" cy="3.923" rx="3.487" ry="3.923" transform="translate(698.238 556.252) rotate(-175)" fill="#9a2843"/><ellipse cx="3.487" cy="3.923" rx="3.487" ry="3.923" transform="translate(732.731 536.989) rotate(-175)" fill="#9a2843"/><path d="M0,4.953,6.992,37.729V0Z" transform="matrix(0.921, 0.391, -0.391, 0.921, 715.934, 582.277)" fill="#9a2843"/><ellipse cx="3.487" cy="3.923" rx="3.487" ry="3.923" transform="translate(713.716 618.194) rotate(133)" fill="#9a2843"/><g transform="translate(698.636 653.743) rotate(-175)" fill="#1573c4"><path d="M 50.38826370239258 69.31226348876953 C 50.38806915283203 69.31226348876953 50.38800048828125 69.31226348876953 50.3878059387207 69.31226348876953 C 49.38379287719727 69.31223297119141 48.31795883178711 69.19664001464844 47.0335578918457 68.94850158691406 C 44.81672286987305 68.52021789550781 42.59878158569336 66.59659576416016 41.10057067871094 63.80280685424805 C 39.71063995361328 61.2109489440918 38.24769973754883 56.62650299072266 39.1715202331543 49.50505447387695 C 40.28295516967773 40.93739700317383 35.5838623046875 34.82473754882813 31.44609832763672 31.20554733276367 C 26.5660400390625 26.93707847595215 20.61727523803711 24.51886558532715 16.88658142089844 24.01583099365234 C 14.8584041595459 23.74234771728516 11.90694522857666 22.49285507202148 9.367392539978027 20.83257102966309 C 6.352615833282471 18.86161804199219 4.137710094451904 16.50724220275879 3.130674600601196 14.2031717300415 C 2.057898283004761 11.74867725372314 2.356462955474854 9.388830184936523 4.043451309204102 6.988807201385498 C 5.078251361846924 5.51663064956665 6.497804164886475 4.390100955963135 8.262698173522949 3.640489339828491 C 10.0444507598877 2.883724689483643 12.1797571182251 2.500007152557373 14.60929775238037 2.500007152557373 C 18.9652271270752 2.500007152557373 24.0798282623291 3.7298424243927 29.4001579284668 6.056560039520264 C 34.82863998413086 8.430583953857422 40.1991081237793 11.83248901367188 44.93095779418945 15.89452457427979 C 52.31689834594727 22.23496055603027 58.16558074951172 30.07857131958008 61.39961624145508 37.98046493530273 C 62.97852325439453 41.83830261230469 63.88619232177734 45.57199478149414 64.09740447998047 49.07781982421875 C 64.30959320068359 52.59973526000977 63.8078727722168 55.78718185424805 62.60618209838867 58.55160522460938 C 58.41362380981445 68.19641876220703 53.62535095214844 69.31226348876953 50.38826370239258 69.31226348876953 Z" stroke="none"/><path d="M 14.60863494873047 5.000011444091797 C 12.51708984375 5.000011444091797 10.71078872680664 5.316795349121094 9.239917755126953 5.941581726074219 C 7.892490386962891 6.513912200927734 6.861732482910156 7.326725006103516 6.088733673095703 8.426441192626953 C 4.898246765136719 10.12012481689453 4.698677062988281 11.54831314086914 5.421421051025391 13.20193862915039 C 6.224075317382813 15.03841018676758 8.160945892333984 17.05698394775391 10.73540496826172 18.74006652832031 C 13.29621887207031 20.41425323486328 15.83781814575195 21.3517951965332 17.22064590454102 21.53825378417969 C 21.0221061706543 22.05083847045898 27.45976257324219 24.39741134643555 33.09201812744141 29.32379531860352 C 39.58914947509766 35.00666809082031 42.62869262695313 42.28805541992188 41.65076446533203 49.82666778564453 C 40.81226348876953 56.29032516479492 42.08686065673828 60.35209655761719 43.30376434326172 62.62131118774414 C 44.65364837646484 65.13852691650391 46.36051940917969 66.27223968505859 47.50778961181641 66.493896484375 C 48.63201904296875 66.71109771728516 49.54714965820313 66.812255859375 50.38771820068359 66.812255859375 C 52.11064910888672 66.812255859375 53.53043365478516 66.3616943359375 54.8558464050293 65.39429473876953 C 56.8481330871582 63.9401969909668 58.68433380126953 61.30265426635742 60.31343460083008 57.55495452880859 C 62.43788909912109 52.66773986816406 62.00194931030273 46.05235290527344 59.08589172363281 38.92739868164063 C 55.99901962280273 31.38505554199219 50.39371871948242 23.87882614135742 43.30254745483398 17.79143905639648 C 34.2509765625 10.02115249633789 22.98816299438477 5.000225067138672 14.60898971557617 5.000011444091797 L 14.60863494873047 5.000011444091797 M 14.60929870605469 7.62939453125e-06 C 24.16503524780273 0.0002593994140625 36.51707458496094 5.376853942871094 46.55934906005859 13.99759674072266 C 62.2845458984375 27.496826171875 70.46492004394531 46.74394226074219 64.89893341064453 59.54825592041016 C 60.54880905151367 69.55551910400391 55.16518020629883 71.812255859375 50.38772201538086 71.812255859375 C 49.05242156982422 71.812255859375 47.76402282714844 71.63584899902344 46.55933380126953 71.40311431884766 C 41.04447555541992 70.33765411376953 34.93130493164063 62.75832366943359 36.69230651855469 49.18344116210938 C 38.45329284667969 35.60856628417969 23.26561737060547 27.39859771728516 16.55250549316406 26.49341201782227 C 9.839405059814453 25.58821105957031 -5.450653076171875 16.14838409423828 1.998161315917969 5.551166534423828 C 4.690086364746094 1.721450805664063 9.20172119140625 -0.0001373291015625 14.60929870605469 7.62939453125e-06 Z" stroke="none" fill="#295384"/></g><g transform="translate(684.389 642.147) rotate(-175)" fill="none" stroke="#295384" stroke-width="1"><ellipse cx="3.051" cy="2.615" rx="3.051" ry="2.615" stroke="none"/><ellipse cx="3.051" cy="2.615" rx="2.551" ry="2.115" fill="none"/></g><g transform="translate(655.523 601.992) rotate(-175)" fill="none" stroke="#295384" stroke-width="1"><ellipse cx="1.744" cy="2.179" rx="1.744" ry="2.179" stroke="none"/><ellipse cx="1.744" cy="2.179" rx="1.244" ry="1.679" fill="none"/></g><g transform="translate(660.984 629.598) rotate(-175)" fill="none" stroke="#295384" stroke-width="1"><ellipse cx="2.615" cy="2.615" rx="2.615" ry="2.615" stroke="none"/><ellipse cx="2.615" cy="2.615" rx="2.115" ry="2.115" fill="none"/></g><g transform="translate(652.733 593.872) rotate(-175)" fill="none" stroke="#295384" stroke-width="1"><ellipse cx="2.179" cy="2.179" rx="2.179" ry="2.179" stroke="none"/><ellipse cx="2.179" cy="2.179" rx="1.679" ry="1.679" fill="none"/></g><g transform="translate(652.646 614.867) rotate(-175)" fill="none" stroke="#295384" stroke-width="1"><ellipse cx="2.179" cy="2.179" rx="2.179" ry="2.179" stroke="none"/><ellipse cx="2.179" cy="2.179" rx="1.679" ry="1.679" fill="none"/></g><g transform="translate(670.656 619.068) rotate(-175)" fill="none" stroke="#295384" stroke-width="5"><ellipse cx="2.615" cy="3.051" rx="2.615" ry="3.051" stroke="none"/><ellipse cx="2.615" cy="3.051" rx="0.115" ry="0.551" fill="none"/></g><g transform="translate(662.928 581.638) rotate(-175)" fill="none" stroke="#295384" stroke-width="5"><ellipse cx="2.615" cy="2.615" rx="2.615" ry="2.615" stroke="none"/><ellipse cx="2.615" cy="2.615" rx="0.115" ry="0.115" fill="none"/></g><g transform="translate(639.62 613.728) rotate(-175)" fill="none" stroke="#295384" stroke-width="5"><ellipse cx="1.744" cy="1.744" rx="1.744" ry="1.744" stroke="none"/><ellipse cx="1.744" cy="1.744" rx="0.756" ry="0.756" fill="none"/></g><g transform="translate(675.737 651.016) rotate(-175)" fill="none" stroke="#295384" stroke-width="6"><ellipse cx="2.179" cy="1.744" rx="2.179" ry="1.744" stroke="none"/><ellipse cx="2.179" cy="1.744" rx="0.821" ry="1.256" fill="none"/></g><circle cx="3" cy="3" r="3" transform="translate(710 567)" fill="#fff"/><circle cx="3" cy="3" r="3" transform="translate(730 573)" fill="#fff"/><path d="M3524.092,1899.624c-.005-1.237,16.978-2.6,16.978-2.6s-.316,12.1-5.821,11.945S3524.1,1900.86,3524.092,1899.624Z" transform="translate(-2807 -1310)" fill="#fff"/><circle cx="1.5" cy="1.5" r="1.5" transform="translate(713 569)" fill="#0b0101"/><circle cx="1.5" cy="1.5" r="1.5" transform="translate(730 575)" fill="#0b0101"/><circle cx="3" cy="3" r="3" transform="translate(643 598)" fill="#fff"/><circle cx="1.5" cy="1.5" r="1.5" transform="translate(646 600)" fill="#0b0101"/><circle cx="3" cy="3" r="3" transform="translate(655 606)" fill="#fff"/><circle cx="1.5" cy="1.5" r="1.5" transform="translate(655 608)" fill="#0b0101"/></g></svg>