<svg xmlns="http://www.w3.org/2000/svg" width="356.667" height="656.253" viewBox="0 0 356.667 656.253"><g transform="translate(-1012.342 -540.842)"><path d="M32.4,0s-4.139,31.628-6.473,44.73,1.965,26.562-4.292,31.129S5.273,77.154,2.951,70.988A59.144,59.144,0,0,1,0,57.357V4.935Z" transform="translate(1226.825 824.105) rotate(-3)" fill="#f2c8bb" stroke="#b69a93" stroke-width="6"/><path d="M178.837,79.284s-24.53,54.448-35.224,124.539-7.552,155.825-7.552,155.825-164.024-6.716-131.889-45.7S56.8,167.094,56.8,167.094s7.5-62.569,5-80.891.106-30.637,8.435-44.836S139.587,0,139.587,0H169.2s40.216,24.455,40.467,36.211,6.82,51.156-5.037,54.188-26.793-5.467-25.789-22.992,4.877-26.04,4.877-26.04" transform="translate(1056.258 747.143) rotate(-3)" fill="#f2c8bb" stroke="#b69a93" stroke-width="5"/><path d="M0,146.415S41.431,36.153,41.975,18.151,67.227-5.294,76.48,5.591,190.085,39.7,200.971,37.489s-16.584,119.7-16.584,119.7Z" transform="translate(1016.003 1037.32) rotate(-3)" fill="#ee7358" stroke="#e94437" stroke-width="5"/><g transform="translate(1201.76 540.842) rotate(22)"><g transform="translate(0)" fill="#fff" stroke="#707070" stroke-linecap="round" stroke-width="4"><rect width="180.384" height="278.67" stroke="none"/><rect x="2" y="2" width="176.384" height="274.67" fill="none"/></g><line x2="90.192" transform="translate(27.173 39.893)" fill="none" stroke="#707070" stroke-linecap="round" stroke-width="3"/><line x2="90.192" transform="translate(27.173 73.425)" fill="none" stroke="#707070" stroke-linecap="round" stroke-width="3"/><line x2="90.192" transform="translate(27.173 106.958)" fill="none" stroke="#707070" stroke-linecap="round" stroke-width="3"/><line x2="90.192" transform="translate(27.173 140.491)" fill="none" stroke="#707070" stroke-linecap="round" stroke-width="3"/><line x2="90.192" transform="translate(27.173 174.024)" fill="none" stroke="#707070" stroke-linecap="round" stroke-width="3"/><line x2="90.192" transform="translate(27.173 207.557)" fill="none" stroke="#707070" stroke-linecap="round" stroke-width="3"/><line x2="90.192" transform="translate(27.173 241.09)" fill="none" stroke="#707070" stroke-linecap="round" stroke-width="3"/><path d="M0,10.735l7.921,8.008S13.16,1.858,17.2,0" transform="translate(137.168 24.443)" fill="none" stroke="#e94437" stroke-linecap="round" stroke-width="4"/><path d="M0,10.735l7.921,8.008S13.16,1.858,17.2,0" transform="translate(137.168 59.133)" fill="none" stroke="#e94437" stroke-linecap="round" stroke-width="4"/><path d="M0,10.735l7.921,8.008S13.16,1.858,17.2,0" transform="translate(136.012 126.198)" fill="none" stroke="#e94437" stroke-linecap="round" stroke-width="4"/><path d="M0,10.735l7.921,8.008S13.16,1.858,17.2,0" transform="translate(136.012 222.172)" fill="none" stroke="#e94437" stroke-linecap="round" stroke-width="4"/></g><path d="M44.155,224.411s37.927-23.459,39.14-53.846S72.848,135.86,69.366,95.974s12.114-64.642,0-84.951S42.329.054,32.169,26.087s-10.9,75.63-10.9,75.63L0,127.428" transform="matrix(1, 0.017, -0.017, 1, 1157.182, 728.171)" fill="#f2c8bb" stroke="#b79b93" stroke-linecap="round" stroke-width="5"/></g></svg>