<svg xmlns="http://www.w3.org/2000/svg" xmlns:xlink="http://www.w3.org/1999/xlink" width="1110.744" height="325.251" viewBox="0 0 1110.744 325.251"><defs><clipPath id="a"><path d="M44.2,12.1l21.433,3.128a43.215,43.215,0,0,0-8.889-.373L35.311,11.72A43.378,43.378,0,0,1,44.2,12.1Z" transform="translate(-35.311 -11.641)" fill="none"/></clipPath><clipPath id="b"><path d="M24.986,149.9,3.553,146.773c0-.211-.009-.431-.012-.641C3.009,74.372,35.942,14.18,77.107,11.675l21.433,3.13c-41.164,2.5-74.1,62.695-73.565,134.454C24.977,149.47,24.984,149.69,24.986,149.9Z" transform="translate(-3.535 -11.675)" fill="none"/></clipPath></defs><g transform="translate(-487.168 -239.888)"><path d="M3.744-47.592v8.928H12.6v23.328c0,8.064-2.448,10.872-9.432,10.872l.36,9.216c13.464,0,20.232-5.976,20.232-18V-47.592ZM66.024-6.984a3.363,3.363,0,0,1-1.224.216c-2.52,0-3.1-1.3-3.1-4.824v-8.352c0-9.864-7.7-12.384-14.616-12.384a26.883,26.883,0,0,0-13.464,3.672l1.152,8.28a20.607,20.607,0,0,1,10.368-3.24c3.744,0,5.616,1.44,5.616,4.248v1.656a28.783,28.783,0,0,0-5.112-.432c-8.928,0-14.616,3.1-14.616,9.72,0,5.76,4.248,9.36,11.232,9.36A16.767,16.767,0,0,0,52.2-2.16c1.368,2.088,3.672,3.1,6.912,3.1A14.991,14.991,0,0,0,66.456-.648Zm-20.016.576c-2.3,0-3.456-.864-3.456-2.52,0-2.016,1.656-3.024,4.9-3.024a22.793,22.793,0,0,1,3.312.36v3.744A9.328,9.328,0,0,1,46.008-6.408Zm81.144-.576a3.541,3.541,0,0,1-1.44.216c-2.088,0-2.808-.864-2.808-3.672v-8.64c0-8.856-3.888-13.248-11.664-13.248-3.816,0-7.344,1.584-10.728,4.752q-2.808-4.752-9.72-4.752a15,15,0,0,0-9.144,3.384l-.288-2.448H70.7V0h11.16V-20.664a8.083,8.083,0,0,1,4.9-1.8c3.024,0,4.536,1.944,4.536,5.76V0h11.16V-19.224a8.761,8.761,0,0,0-.072-1.512,8.656,8.656,0,0,1,4.968-1.728c2.952,0,4.392,1.944,4.392,5.832v8.064c0,7.128,3.1,9.5,8.856,9.5a14.779,14.779,0,0,0,7.056-1.584Zm61.2,0a3.541,3.541,0,0,1-1.44.216c-2.088,0-2.808-.864-2.808-3.672v-8.64c0-8.856-3.888-13.248-11.664-13.248-3.816,0-7.344,1.584-10.728,4.752q-2.808-4.752-9.72-4.752a15,15,0,0,0-9.144,3.384l-.288-2.448H131.9V0h11.16V-20.664a8.083,8.083,0,0,1,4.9-1.8c3.024,0,4.536,1.944,4.536,5.76V0h11.16V-19.224a8.76,8.76,0,0,0-.072-1.512,8.656,8.656,0,0,1,4.968-1.728c2.952,0,4.392,1.944,4.392,5.832v8.064c0,7.128,3.1,9.5,8.856,9.5a14.779,14.779,0,0,0,7.056-1.584ZM222.7-18.216a13.732,13.732,0,0,0-4.032-10.08C216-30.96,212.4-32.328,207.72-32.328c-9.864,0-16.272,6.48-16.272,16.632,0,10.368,5.76,16.632,18.072,16.632,5.112,0,9.216-1.224,12.312-3.6L219.816-9.5a17.063,17.063,0,0,1-8.424,2.16c-4.68,0-7.488-2.016-8.352-5.976h19.08A23.262,23.262,0,0,0,222.7-18.216Zm-19.872-1.368c.576-3.816,2.448-5.688,5.544-5.688,2.952,0,4.68,1.512,5.04,4.536a9.863,9.863,0,0,1,.144,1.152ZM248.4-32.328a12.634,12.634,0,0,0-9,3.888l-.288-2.952H228.456V0h11.16V-19.728a8.446,8.446,0,0,1,5.328-1.728c2.736,0,4.608.432,5.688,1.3l.648-.288V-31.9A8.964,8.964,0,0,0,248.4-32.328Zm19.584,15.7L269.64-50.04H258.48l1.656,33.408Zm-10.3,11.16A6.422,6.422,0,0,0,264.1.936,6.422,6.422,0,0,0,270.5-5.472,6.245,6.245,0,0,0,264.1-11.88,6.245,6.245,0,0,0,257.688-5.472Zm37.44-42.12v8.928h8.856v23.328c0,8.064-2.448,10.872-9.432,10.872l.36,9.216c13.464,0,20.232-5.976,20.232-18V-47.592ZM353.3-18.216a13.732,13.732,0,0,0-4.032-10.08c-2.664-2.664-6.264-4.032-10.944-4.032-9.864,0-16.272,6.48-16.272,16.632,0,10.368,5.76,16.632,18.072,16.632,5.112,0,9.216-1.224,12.312-3.6L350.424-9.5A17.063,17.063,0,0,1,342-7.344c-4.68,0-7.488-2.016-8.352-5.976h19.08A23.261,23.261,0,0,0,353.3-18.216Zm-19.872-1.368c.576-3.816,2.448-5.688,5.544-5.688,2.952,0,4.68,1.512,5.04,4.536a9.857,9.857,0,0,1,.144,1.152Zm78.336,12.6a3.707,3.707,0,0,1-1.512.216c-2.088,0-2.736-.864-2.736-3.672v-8.64c0-8.856-3.888-13.248-11.736-13.248a15.252,15.252,0,0,0-9.576,3.384V-50.112h-11.16V0h11.16V-20.448a9.118,9.118,0,0,1,5.616-2.016c3.1,0,4.68,1.944,4.68,5.832v8.064c0,7.2,2.952,9.5,8.64,9.5A14.2,14.2,0,0,0,412.2-.648ZM446.04-18.216a13.732,13.732,0,0,0-4.032-10.08c-2.664-2.664-6.264-4.032-10.944-4.032-9.864,0-16.272,6.48-16.272,16.632,0,10.368,5.76,16.632,18.072,16.632,5.112,0,9.216-1.224,12.312-3.6L443.16-9.5a17.063,17.063,0,0,1-8.424,2.16c-4.68,0-7.488-2.016-8.352-5.976h19.08A23.261,23.261,0,0,0,446.04-18.216Zm-19.872-1.368c.576-3.816,2.448-5.688,5.544-5.688,2.952,0,4.68,1.512,5.04,4.536a9.857,9.857,0,0,1,.144,1.152Zm46.224-12.744a14.675,14.675,0,0,0-9.072,2.88V-50.112H452.16V.072h8.712l.5-1.368A16.01,16.01,0,0,0,469.944.936a15.97,15.97,0,0,0,11.592-4.464c3.024-2.952,4.536-7.272,4.536-12.888C486.072-26.28,480.96-32.328,472.392-32.328ZM467.64-7.776a15.729,15.729,0,0,1-4.32-.648V-21.6a9.264,9.264,0,0,1,5.4-1.728c3.96,0,5.976,2.52,5.976,7.632C474.7-10.728,472.032-7.776,467.64-7.776ZM515.808-9.36a11.027,11.027,0,0,1-5.472,1.368,5.6,5.6,0,0,1-4.248-1.44,6.579,6.579,0,0,1-1.224-4.32V-23.04h10.008v-8.352H504.864V-39.96L493.7-39.1v7.7h-4.32v8.352h4.32v12.024C493.7-3.024,497.88.936,506.232.936c4.464,0,7.848-.792,10.152-2.448Zm38.016-22.824c-1.152-.072-2.088-.144-2.736-.144-9.144,0-15.048,4.824-15.048,12.312a11.043,11.043,0,0,0,5.544,10.008c-3.24,2.376-4.9,5.184-4.9,8.424a5.911,5.911,0,0,0,1.872,4.608c-2.376,1.944-3.528,4.1-3.528,6.552,0,4.824,4.536,8.136,14.832,8.136,5.832,0,10.584-1.08,14.112-3.168,3.6-2.088,5.4-4.968,5.4-8.784,0-5.688-4.248-9.36-12.96-9.36H550.8c-3.24,0-4.9-.72-4.9-2.16a2.662,2.662,0,0,1,1.368-2.232,20.4,20.4,0,0,0,3.888.288c9.144,0,14.832-4.608,14.832-12.312a12.033,12.033,0,0,0-1.44-5.976l4.968.288v-6.408Zm-2.736,17.208c-2.52,0-4.248-2.088-4.248-5.256,0-2.952,1.584-4.824,4.176-4.824,2.808,0,4.176,1.656,4.176,4.968C555.192-16.92,553.68-14.976,551.088-14.976Zm3.888,20.16c3.384,0,5.04.72,5.04,2.088,0,1.8-2.592,2.736-7.776,2.736-5.544,0-7.7-.792-7.7-2.736a2.8,2.8,0,0,1,.936-2.088h9.5Zm47.376-23.4A13.732,13.732,0,0,0,598.32-28.3c-2.664-2.664-6.264-4.032-10.944-4.032-9.864,0-16.272,6.48-16.272,16.632,0,10.368,5.76,16.632,18.072,16.632,5.112,0,9.216-1.224,12.312-3.6L599.472-9.5a17.063,17.063,0,0,1-8.424,2.16c-4.68,0-7.488-2.016-8.352-5.976h19.08A23.263,23.263,0,0,0,602.352-18.216ZM582.48-19.584c.576-3.816,2.448-5.688,5.544-5.688,2.952,0,4.68,1.512,5.04,4.536a9.856,9.856,0,0,1,.144,1.152ZM637.7-18.216a13.732,13.732,0,0,0-4.032-10.08c-2.664-2.664-6.264-4.032-10.944-4.032-9.864,0-16.272,6.48-16.272,16.632,0,10.368,5.76,16.632,18.072,16.632,5.112,0,9.216-1.224,12.312-3.6L634.824-9.5a17.063,17.063,0,0,1-8.424,2.16c-4.68,0-7.488-2.016-8.352-5.976h19.08A23.263,23.263,0,0,0,637.7-18.216Zm-19.872-1.368c.576-3.816,2.448-5.688,5.544-5.688,2.952,0,4.68,1.512,5.04,4.536a9.856,9.856,0,0,1,.144,1.152Zm62.424,12.6a4.207,4.207,0,0,1-1.512.216c-2.088,0-2.808-1.008-2.808-3.672v-8.64c0-8.856-3.96-13.248-11.808-13.248a15.118,15.118,0,0,0-9.72,3.528l-.288-2.592H643.464V0h11.16V-20.52a9.443,9.443,0,0,1,5.544-1.944c3.1,0,4.608,1.944,4.608,5.9v7.992c0,7.128,3.1,9.5,8.856,9.5a13.38,13.38,0,0,0,6.984-1.584Zm57.384,0a3.707,3.707,0,0,1-1.512.216c-2.088,0-2.736-.864-2.736-3.672v-8.64c0-8.856-3.888-13.248-11.736-13.248a15.252,15.252,0,0,0-9.576,3.384V-50.112H700.92V0h11.16V-20.448a9.118,9.118,0,0,1,5.616-2.016c3.1,0,4.68,1.944,4.68,5.832v8.064c0,7.2,2.952,9.5,8.64,9.5a14.2,14.2,0,0,0,7.056-1.584Zm38.088,0a3.363,3.363,0,0,1-1.224.216c-2.52,0-3.1-1.3-3.1-4.824v-8.352c0-9.864-7.7-12.384-14.616-12.384a26.883,26.883,0,0,0-13.464,3.672l1.152,8.28a20.607,20.607,0,0,1,10.368-3.24c3.744,0,5.616,1.44,5.616,4.248v1.656a28.783,28.783,0,0,0-5.112-.432c-8.928,0-14.616,3.1-14.616,9.72,0,5.76,4.248,9.36,11.232,9.36a16.767,16.767,0,0,0,9.936-3.1c1.368,2.088,3.672,3.1,6.912,3.1A14.991,14.991,0,0,0,776.16-.648Zm-20.016.576c-2.3,0-3.456-.864-3.456-2.52,0-2.016,1.656-3.024,4.9-3.024a22.792,22.792,0,0,1,3.312.36v3.744A9.328,9.328,0,0,1,755.712-6.408Zm44.64-25.92a12.634,12.634,0,0,0-9,3.888l-.288-2.952H780.408V0h11.16V-19.728a8.445,8.445,0,0,1,5.328-1.728c2.736,0,4.608.432,5.688,1.3l.648-.288V-31.9A8.964,8.964,0,0,0,800.352-32.328ZM832.176-9.36A11.027,11.027,0,0,1,826.7-7.992a5.6,5.6,0,0,1-4.248-1.44,6.579,6.579,0,0,1-1.224-4.32V-23.04H831.24v-8.352H821.232V-39.96l-11.16.864v7.7h-4.32v8.352h4.32v12.024c0,7.992,4.176,11.952,12.528,11.952,4.464,0,7.848-.792,10.152-2.448ZM837.5-43.272a6.392,6.392,0,0,0,6.408,6.48,6.333,6.333,0,0,0,6.336-6.48,6.361,6.361,0,0,0-6.336-6.408A6.331,6.331,0,0,0,837.5-43.272ZM833.328,17.5c5.472-.288,10.368-2.088,13.824-7.056a15.262,15.262,0,0,0,2.592-9V-31.392h-11.16V-.216c0,6.624-2.376,8.928-7.2,10.152Zm53.28-35.712a13.732,13.732,0,0,0-4.032-10.08c-2.664-2.664-6.264-4.032-10.944-4.032-9.864,0-16.272,6.48-16.272,16.632,0,10.368,5.76,16.632,18.072,16.632,5.112,0,9.216-1.224,12.312-3.6L883.728-9.5a17.063,17.063,0,0,1-8.424,2.16c-4.68,0-7.488-2.016-8.352-5.976h19.08A23.263,23.263,0,0,0,886.608-18.216Zm-19.872-1.368c.576-3.816,2.448-5.688,5.544-5.688,2.952,0,4.68,1.512,5.04,4.536a9.856,9.856,0,0,1,.144,1.152Zm37.8,20.52c9.144,0,15.048-3.96,15.048-10.368,0-5.112-3.672-7.56-11.664-10.224-3.888-1.08-6.264-2.16-6.264-3.6,0-1.368,1.152-2.088,3.528-2.088,3.384,0,5.328,1.44,5.9,4.248l8.136-2.232c-.792-5.544-5.9-9.144-13.464-9.144a18.351,18.351,0,0,0-10.08,2.736,8.952,8.952,0,0,0-4.248,8.064,7.818,7.818,0,0,0,2.52,6.192,18.488,18.488,0,0,0,5.256,2.952c1.224.5,2.736,1.08,4.608,1.728a36.87,36.87,0,0,1,4.032,1.44c.864.36,1.3.792,1.3,1.224,0,1.08-1.656,1.8-4.176,1.8q-5.508,0-6.7-4.1l-8.424,2.448C891.648-2.016,896.544.936,904.536.936Zm91.872-7.92a3.541,3.541,0,0,1-1.44.216c-2.088,0-2.808-.864-2.808-3.672v-8.64c0-8.856-3.888-13.248-11.664-13.248-3.816,0-7.344,1.584-10.728,4.752q-2.808-4.752-9.72-4.752a14.994,14.994,0,0,0-9.144,3.384l-.288-2.448H939.96V0h11.16V-20.664a8.083,8.083,0,0,1,4.9-1.8c3.024,0,4.536,1.944,4.536,5.76V0h11.16V-19.224a8.765,8.765,0,0,0-.072-1.512,8.656,8.656,0,0,1,4.968-1.728c2.952,0,4.392,1.944,4.392,5.832v8.064c0,7.128,3.1,9.5,8.856,9.5a14.779,14.779,0,0,0,7.056-1.584Zm34.344-11.232a13.731,13.731,0,0,0-4.032-10.08c-2.664-2.664-6.264-4.032-10.944-4.032-9.864,0-16.272,6.48-16.272,16.632,0,10.368,5.76,16.632,18.072,16.632,5.112,0,9.216-1.224,12.312-3.6l-2.016-6.84a17.063,17.063,0,0,1-8.424,2.16c-4.68,0-7.488-2.016-8.352-5.976h19.08A23.263,23.263,0,0,0,1030.752-18.216Zm-19.872-1.368c.576-3.816,2.448-5.688,5.544-5.688,2.952,0,4.68,1.512,5.04,4.536a9.856,9.856,0,0,1,.144,1.152Zm55.224,1.368a13.732,13.732,0,0,0-4.032-10.08c-2.664-2.664-6.264-4.032-10.944-4.032-9.864,0-16.272,6.48-16.272,16.632,0,10.368,5.76,16.632,18.072,16.632,5.112,0,9.216-1.224,12.312-3.6l-2.016-6.84a17.064,17.064,0,0,1-8.424,2.16c-4.68,0-7.488-2.016-8.352-5.976h19.08A23.263,23.263,0,0,0,1066.1-18.216Zm-19.872-1.368c.576-3.816,2.448-5.688,5.544-5.688,2.952,0,4.68,1.512,5.04,4.536a9.88,9.88,0,0,1,.144,1.152Zm45.576-12.744a12.635,12.635,0,0,0-9,3.888l-.288-2.952h-10.656V0h11.16V-19.728a8.445,8.445,0,0,1,5.328-1.728c2.736,0,4.608.432,5.688,1.3l.648-.288V-31.9A8.964,8.964,0,0,0,1091.808-32.328Zm19.584,15.7,1.656-33.408h-11.16l1.656,33.408Zm-10.3,11.16A6.422,6.422,0,0,0,1107.5.936a6.422,6.422,0,0,0,6.408-6.408,6.245,6.245,0,0,0-6.408-6.408A6.245,6.245,0,0,0,1101.1-5.472Z" transform="translate(484 290)" fill="#fff"/><g transform="translate(1270.852 370.457) rotate(39)"><g transform="translate(0 0)"><path d="M16.79,133.054c.527-2.533.982-4.734,1.443-6.933,1.146-5.456,2.272-10.916,3.464-16.361a2.643,2.643,0,0,0-.6-2.423Q10.919,94.28.8,81.179c-.239-.308-.457-.634-.8-1.11l29.828-24.4c-.352-.428-.6-.777-.9-1.084-4.91-5.1-9.8-10.213-14.761-15.268a2.986,2.986,0,0,1-.91-3c1.1-6.117,2.049-12.261,3.069-18.393a2.487,2.487,0,0,1,.45-1.21c4.819-5.427,9.96-10.482,16.5-13.852C41.272-1.251,49.43-.56,57.4,2.589c13.676,5.4,21.8,15.913,26.15,29.633A48.686,48.686,0,0,1,85.58,51.567C84.888,59,82.216,65.852,78.6,72.349A64.71,64.71,0,0,1,66.308,88.642C54.258,99.812,42.093,110.859,29.924,121.9c-3.922,3.558-8,6.942-12.013,10.4C17.665,132.511,17.369,132.667,16.79,133.054Z" transform="translate(59.209 0.029)" fill="#e85b44"/><path d="M82.252,55.319,52.668,79.287c.651.865,1.23,1.647,1.822,2.418q10.266,13.359,20.552,26.7a2.931,2.931,0,0,1,.632,2.683c-1.673,7.7-3.278,15.417-4.966,23.418-.751-.615-1.355-1.075-1.92-1.578C54.264,120,39.7,107.108,25.241,94.1,18.185,87.756,11.883,80.74,7.27,72.34,3.645,65.74.752,58.839.176,51.293c-1.03-13.5,2.439-25.787,11.087-36.37A39.646,39.646,0,0,1,34.555.643,28.362,28.362,0,0,1,57.7,5.745,68.957,68.957,0,0,1,70.115,17.4a3.043,3.043,0,0,1,.421,2.183c-.981,6.337-2.073,12.656-3.034,19a2.824,2.824,0,0,0,.734,2.037c4.27,4.545,8.607,9.026,12.924,13.527C81.494,54.49,81.817,54.85,82.252,55.319Z" fill="#e85b44"/></g></g><g transform="matrix(0.899, -0.438, 0.438, 0.899, 670.257, 422.736)"><g transform="translate(0 0)"><path d="M686.886,287.783c.527-2.533.982-4.734,1.443-6.933,1.146-5.456,2.272-10.916,3.464-16.361a2.643,2.643,0,0,0-.6-2.423q-10.177-13.056-20.3-26.157c-.239-.309-.457-.634-.8-1.11l29.828-24.4c-.352-.428-.6-.777-.9-1.084-4.91-5.1-9.8-10.213-14.761-15.268a2.986,2.986,0,0,1-.91-3c1.1-6.117,2.049-12.261,3.069-18.393a2.487,2.487,0,0,1,.45-1.21c4.819-5.427,9.96-10.482,16.5-13.852,7.988-4.115,16.146-3.424,24.12-.274,13.676,5.4,21.8,15.913,26.15,29.633a48.688,48.688,0,0,1,2.025,19.344c-.691,7.434-3.365,14.286-6.978,20.782A64.713,64.713,0,0,1,736.4,243.371c-12.05,11.171-24.215,22.217-36.384,33.258-3.922,3.558-8,6.942-12.013,10.4C687.761,287.241,687.465,287.4,686.886,287.783Z" transform="translate(-610.887 -154.7)" fill="#e85b44"/><path d="M591.7,209.97l-29.584,23.968c.651.865,1.23,1.647,1.822,2.418q10.266,13.359,20.552,26.7a2.931,2.931,0,0,1,.632,2.683c-1.673,7.7-3.278,15.417-4.966,23.418-.751-.615-1.355-1.075-1.92-1.578-14.524-12.933-29.088-25.822-43.547-38.828-7.056-6.347-13.358-13.363-17.971-21.762-3.625-6.6-6.518-13.5-7.094-21.047-1.03-13.5,2.439-25.787,11.087-36.37A39.646,39.646,0,0,1,544,155.293a28.362,28.362,0,0,1,23.149,5.1,68.958,68.958,0,0,1,12.411,11.655,3.043,3.043,0,0,1,.421,2.183c-.981,6.337-2.073,12.656-3.034,19a2.824,2.824,0,0,0,.734,2.037c4.27,4.545,8.607,9.026,12.924,13.527C590.938,209.141,591.261,209.5,591.7,209.97Z" transform="translate(-509.444 -154.65)" fill="#e85b44"/></g></g><g transform="translate(893.58 331.071)"><g transform="translate(3.535 11.641)"><g style="isolation:isolate"><g transform="translate(73.572)" style="isolation:isolate"><g clip-path="url(#a)"><g transform="translate(0 -0.001)" style="isolation:isolate"><path d="M56.744,14.851,35.311,11.72q1.521-.09,3.026-.079l21.433,3.13q-1.507-.014-3.026.079" transform="translate(-35.311 -11.641)" fill="#606160"/><path d="M58.051,14.771l-21.433-3.13a43.343,43.343,0,0,1,5.862.454l21.433,3.128a42.97,42.97,0,0,0-5.862-.451" transform="translate(-33.592 -11.64)" fill="#5e5e5e"/></g></g></g><g transform="translate(0 0.079)" style="isolation:isolate"><g clip-path="url(#b)"><g transform="translate(0)" style="isolation:isolate"><path d="M24.986,106.383,3.553,103.255c0-.211-.009-.431-.012-.641A216.461,216.461,0,0,1,10.761,44.76l21.433,3.128a216.461,216.461,0,0,0-7.219,57.853c0,.211.009.431.012.641" transform="translate(-3.535 31.843)" fill="#575858"/><path d="M28.089,66.705,6.656,63.577A164.355,164.355,0,0,1,19.395,30.454l21.433,3.128A164.409,164.409,0,0,0,28.089,66.705" transform="translate(0.57 13.026)" fill="#595a5a"/><path d="M33.591,45.374,12.158,42.246A113.635,113.635,0,0,1,25.9,21.489l21.433,3.128A113.636,113.636,0,0,0,33.591,45.374" transform="translate(7.807 1.234)" fill="#5c5c5c"/><path d="M39.528,33.414,18.1,30.286A73.31,73.31,0,0,1,35.756,14.8l21.433,3.128A73.36,73.36,0,0,0,39.528,33.414" transform="translate(15.616 -7.563)" fill="#5e5e5e"/><path d="M47.156,22.041,25.723,18.913a48.21,48.21,0,0,1,22.2-7.238l21.433,3.13a48.18,48.18,0,0,0-22.2,7.235" transform="translate(25.649 -11.675)" fill="#606160"/></g></g></g><g transform="translate(21.433 3.129)"><path d="M86.364,13.073c41.155-2.5,74.957,53.63,75.489,125.387,0,.213,0,.433,0,.644L12.81,148.168c0-.211-.009-.431-.012-.641C12.266,75.767,45.2,15.576,86.364,13.073Z" transform="translate(-12.792 -12.992)" fill="#828282"/></g></g><g transform="translate(81.77 34.108)"><g transform="translate(11.645 24.465)" style="isolation:isolate"><g transform="translate(0 0.047)"><path d="M49.331,78.084l-5.45-.079.128-41.046,5.45.079Z" transform="translate(-43.881 -36.959)" fill="#514f4f"/></g><g transform="translate(0.128)"><path d="M49.386,37.064l-5.45-.079,9.335-.047,5.45.079Z" transform="translate(-43.937 -36.939)" fill="#4f4e4d"/></g><g transform="translate(5.45 0.079)"><path d="M46.235,78.066l.128-41.046,9.335-.047L55.57,78.019Z" transform="translate(-46.235 -36.973)" fill="#676565"/></g></g><g style="isolation:isolate"><g transform="translate(21.144 12.844)"><path d="M53.434,32.055l-5.45-.079,11.367-.057L64.8,32Z" transform="translate(-47.984 -31.92)" fill="#4f4e4d"/></g><g transform="translate(11.809 12.9)"><path d="M49.4,32.069l-5.45-.079,9.335-.047,5.45.079Z" transform="translate(-43.952 -31.944)" fill="#4f4e4d"/></g><g transform="translate(11.809 0.047)"><path d="M49.4,39.372l-5.45-.079.04-12.9,5.45.079Z" transform="translate(-43.952 -26.392)" fill="#514f4f"/></g><g transform="translate(11.849)"><path d="M49.419,26.5l-5.45-.079,9.335-.047,5.45.079Z" transform="translate(-43.97 -26.372)" fill="#4f4e4d"/></g><g transform="translate(17.259 0.079)"><path d="M46.346,26.453l9.335-.047-.04,12.9-9.335.047Z" transform="translate(-46.306 -26.406)" fill="#676565"/></g><g transform="translate(0.036 12.947)"><path d="M44.317,32.1l-5.45-.079,11.773-.059,5.45.079Z" transform="translate(-38.867 -31.964)" fill="#4f4e4d"/></g><g transform="translate(0 13.006)"><path d="M44.3,43.633l-5.45-.079.036-11.565,5.45.079Z" transform="translate(-38.852 -31.99)" fill="#514f4f"/></g><g transform="translate(5.45 12.922)"><path d="M73.717,31.954l-.036,11.565-11.367.057-9.335.047-11.773.059.036-11.565,11.773-.059,9.335-.047Z" transform="translate(-41.206 -31.954)" fill="#676565"/></g></g></g></g><path d="M12.625,82.135c4.464,4.112,9.625,5.332,15.552,6.5a76.661,76.661,0,0,0,14.589,1.95c1.577,0,3.156-.125,4.733-.079,3.394.1,5.24,2.13,8.256,3.443a32.2,32.2,0,0,0,9.653,2.292,31.338,31.338,0,0,1,5.712.556c3.311.891,6.258,2.7,9.377,4.052a101.688,101.688,0,0,0,17.779,5.855c9.444,2.144,17.731,6.985,26.953,9.581,7.719,2.172,15.541,4.105,23.4,5.71,7.138,1.456,14.242,1.866,21.435,2.785,5.557.711,10.947,2.028,16.46,2.829,5.615.815,11.4.725,16.96,1.929a34.57,34.57,0,0,1,7.425,2.892c5.441,2.568,11.755,3.948,17.576,5.147a217.072,217.072,0,0,0,44.223,4.619c7.573,0,15.67.5,22.94-1.954,1.3-3.079-4.344-8.743-6.587-10.176-2.978-1.9-7-2.76-10.317-4.008-3.193-1.2-6.471-1.329-9.78-1.933-1.984-.364-2.415-.574-2.489-2.746-.137-4.008-1.375-6.971-4.589-9.532a17.286,17.286,0,0,0-4.858-2.857c-1.334-.451-2.774-.454-4.147-.783-2.9-.692-5.689-1.882-8.523-2.815a71.3,71.3,0,0,1-12.781-5.066c-2.037-1.13-3.709-2.612-5.652-3.874-3.982-2.586-8.84-2.711-13.246-1.551-2.086.549-3.281.632-5.23-.424a48.117,48.117,0,0,0-9.419-3.918c-3.225-.956-6.529-1.66-9.748-2.614-1.843-.546-2.9-1.558-4.427-2.7-3.892-2.91-7.844-5.51-12.649-6.638-1.818-.426-3.116-.2-4.631-1.294a36.952,36.952,0,0,1-3.936-3.45c-1.649-1.563-4.6-2.13-6.77-2.741-2.984-.838-5.392-2.521-8.284-3.5a22.1,22.1,0,0,0-10.243-1.2c-3.015.539-5.406,2.369-8.284,3.165-1.649.456-2.892-.273-4.452-.725-4.584-1.329-9.569-3.022-14.337-3.441-7.756-.685-13.873,1.366-20.711,5.047-1.667.9-3.975,3.091-6.036,3.093a6.72,6.72,0,0,1-3.005-1.206,35.263,35.263,0,0,0-6.863-3.209c-5.816-1.632-14.008-3.059-19.407.5-2.894,1.91-6.636,6.511-10.313,5.724-3.894-.834-7.488-2.825-11.452-3.626-3.024-.611-7.55-1.7-10.618-1.188-4.395.741-8.509,5.228-10.535,8.984" transform="translate(10.257 70.575)" fill="#60370b"/></g></g></svg>