<svg xmlns="http://www.w3.org/2000/svg" width="67.489" height="63.007" viewBox="0 0 67.489 63.007"><g transform="translate(-316.631 -159.837)"><g transform="translate(316.631 159.837)"><path d="M350.375,222.844c-.649-.546-1.292-1.081-1.928-1.624-3.7-3.158-7.31-6.409-10.71-9.885-2.024-2.069-3.985-4.2-5.947-6.33-2.415-2.621-4.759-5.306-6.93-8.136a49.043,49.043,0,0,1-5.409-8.533,33.384,33.384,0,0,1-2-5.506,19.723,19.723,0,0,1-.74-3.683,16.868,16.868,0,0,1,4.888-13.847,18.34,18.34,0,0,1,10.247-5.272,14.641,14.641,0,0,1,3.632-.137,18.8,18.8,0,0,1,5.831,1.458,22.041,22.041,0,0,1,4.393,2.479,23.123,23.123,0,0,1,4.33,4.048c.169.206.33.205.5.006a22.828,22.828,0,0,1,9.51-6.867,16.435,16.435,0,0,1,5.137-1.119,22.821,22.821,0,0,1,2.645.039,15.532,15.532,0,0,1,3.62.781,18.912,18.912,0,0,1,3.778,1.685,18.26,18.26,0,0,1,2.354,1.636,17.911,17.911,0,0,1,2.69,2.7,16.747,16.747,0,0,1,2.534,4.353,18.313,18.313,0,0,1,1.239,4.8,16.661,16.661,0,0,1-.566,6.372,42.111,42.111,0,0,1-1.478,4.537,39.149,39.149,0,0,1-3.668,6.7,80.236,80.236,0,0,1-6.535,8.348c-3.052,3.464-6.143,6.894-9.419,10.151-3.784,3.762-7.753,7.321-11.855,10.733C350.474,222.768,350.436,222.8,350.375,222.844Zm-7.335-33.869a8.2,8.2,0,0,0,2.2-.248,5.678,5.678,0,0,0,4.024-3.409,6.884,6.884,0,0,0,.422-3.612,5.421,5.421,0,0,0-2.816-4.27,7.141,7.141,0,0,0-5.949-.408,5.606,5.606,0,0,0-3.529,3.366,6.756,6.756,0,0,0-.31,3.915,5.5,5.5,0,0,0,2.216,3.48A6.462,6.462,0,0,0,343.04,188.975Zm23.441-5.757h.261c1.633,0,3.266,0,4.9,0,.176,0,.24-.056.234-.233-.011-.3,0-.594,0-.891s0-.284-.278-.284h-5.11V178.2h.244c1.734,0,3.469,0,5.2,0,.2,0,.256-.062.248-.254-.014-.31-.014-.621,0-.931.009-.193-.062-.238-.245-.238q-3.573.008-7.147,0c-.2,0-.248.065-.247.256q.009,3.3,0,6.6c0,1.633,0,3.266,0,4.9,0,.2.061.248.253.247q3.715-.009,7.43-.005c.262,0,.262,0,.263-.272s0-.553,0-.83c0-.3,0-.3-.315-.3l-5.466,0c-.077,0-.155-.008-.226-.012Zm-9.8,3.679c-.112-.37-.207-.735-.332-1.089q-.923-2.6-1.861-5.188c-.443-1.222-.9-2.438-1.348-3.658-.035-.094-.05-.184-.194-.182-.58.008-1.161.005-1.741,0-.171,0-.2.067-.135.213.108.261.207.527.307.791q2.067,5.416,4.131,10.835a.207.207,0,0,0,.232.16c.574-.007,1.147-.01,1.721,0a.238.238,0,0,0,.26-.184q.914-2.2,1.838-4.4l3-7.174c.088-.212.068-.241-.169-.241-.54,0-1.08.005-1.62,0a.222.222,0,0,0-.245.174c-.948,2.384-1.909,4.763-2.846,7.152C357.321,185.018,357.016,185.951,356.678,186.9Zm-26.466.475V177.048c0-.263,0-.263-.271-.263-.472,0-.945.008-1.417,0-.189,0-.242.055-.242.242q.008,5.76,0,11.52c0,.186.051.242.24.241,1.1-.009,2.2-.005,3.3-.006,1.363,0,2.726,0,4.09,0,.19,0,.248-.057.24-.243-.013-.3,0-.594,0-.891,0-.277,0-.278-.281-.277l-5.406,0Z" transform="translate(-316.631 -159.837)" fill="#e85b44"/><path d="M425.549,256.972a6.462,6.462,0,0,1-3.736-1.187,5.5,5.5,0,0,1-2.216-3.48,6.756,6.756,0,0,1,.31-3.915,5.606,5.606,0,0,1,3.529-3.366,7.141,7.141,0,0,1,5.949.408,5.421,5.421,0,0,1,2.816,4.27,6.884,6.884,0,0,1-.422,3.612,5.678,5.678,0,0,1-4.024,3.409A8.2,8.2,0,0,1,425.549,256.972Zm4.721-6.169c-.047-.4-.065-.807-.145-1.2a4.437,4.437,0,0,0-1.9-2.984,4.282,4.282,0,0,0-2.882-.625,3.758,3.758,0,0,0-2.8,1.537,5.443,5.443,0,0,0-.635,5.378,3.949,3.949,0,0,0,3.779,2.684,4.009,4.009,0,0,0,3.866-2.074A5.767,5.767,0,0,0,430.27,250.8Z" transform="translate(-399.14 -227.834)" fill="#e85b44"/><path d="M561.193,252.073v4.142c.072,0,.149.012.226.012l5.466,0c.315,0,.315,0,.315.3q0,.415,0,.83c0,.272,0,.272-.263.272q-3.715,0-7.43.005c-.192,0-.254-.048-.253-.247.008-1.633,0-3.266,0-4.9q0-3.3,0-6.6c0-.19.046-.256.247-.256q3.573.01,7.147,0c.183,0,.254.045.245.238-.015.31-.015.621,0,.931.009.192-.048.255-.248.254-1.734-.008-3.469,0-5.2,0H561.2v3.615h5.11c.278,0,.278,0,.278.284s-.009.594,0,.891c.007.178-.057.234-.234.233-1.633-.005-3.266,0-4.9,0Z" transform="translate(-511.343 -228.692)" fill="#e85b44"/><path d="M496.5,255.753c.337-.946.642-1.88,1-2.792.937-2.388,1.9-4.768,2.846-7.152a.222.222,0,0,1,.245-.174c.54.01,1.08,0,1.62,0,.237,0,.257.03.169.241q-1.5,3.587-3,7.174-.92,2.2-1.838,4.4a.238.238,0,0,1-.26.184c-.573-.01-1.147-.008-1.721,0a.207.207,0,0,1-.232-.16q-2.061-5.419-4.131-10.835c-.1-.264-.2-.529-.307-.791-.06-.146-.036-.214.135-.213.58,0,1.161.007,1.741,0,.144,0,.16.088.194.182.449,1.219.905,2.436,1.348,3.658q.939,2.591,1.861,5.188C496.3,255.018,496.392,255.382,496.5,255.753Z" transform="translate(-456.457 -228.692)" fill="#e85b44"/><path d="M377.568,256.226h.252l5.406,0c.281,0,.281,0,.281.277,0,.3-.01.594,0,.891.008.186-.05.244-.24.243-1.363-.008-2.726,0-4.09,0-1.1,0-2.2,0-3.3.006-.189,0-.24-.055-.24-.241q.007-5.76,0-11.52c0-.187.054-.247.242-.242.472.012.945,0,1.417,0,.271,0,.271,0,.271.263q0,5.041,0,10.082Z" transform="translate(-363.987 -228.69)" fill="#e85b44"/><path d="M438.509,256.472a5.767,5.767,0,0,1-.724,2.715,4.009,4.009,0,0,1-3.866,2.074,3.949,3.949,0,0,1-3.779-2.684,5.443,5.443,0,0,1,.635-5.378,3.758,3.758,0,0,1,2.8-1.537,4.282,4.282,0,0,1,2.882.625,4.436,4.436,0,0,1,1.9,2.984C438.444,255.665,438.462,256.071,438.509,256.472Z" transform="translate(-407.379 -233.504)" fill="#e85b44"/></g><ellipse cx="26.718" cy="13.952" rx="26.718" ry="13.952" transform="translate(323.162 168.041)" fill="#e85b44"/></g></svg>