<svg xmlns="http://www.w3.org/2000/svg" width="332.77" height="876.548" viewBox="0 0 332.77 876.548"><g transform="translate(-284.341 -142.452)"><ellipse cx="81.5" cy="29.5" rx="81.5" ry="29.5" transform="translate(371 960)" fill="#205455"/><path d="M330.1,468.116c-.691-32.473-1.987-64.934-3.087-97.407a26.506,26.506,0,0,0-1.043-7.424c-7.992-24.256-7.823-49.292-11.318-73.983-4.073-28.736-9.57-57.395-28.3-83.046-2.424-7.066-9.133-10.6-17.139-12.8-19.239-5.3-38.732-9.881-58.817-12.685h0c-5.652-3.366-10.05-7.3-9.627-13.427q.571-4.589,1.114-9.178h0c28.2-17.344,34.574-43.571,44.088-68.518,3.594-9.421,3.115-18.381-4.989-26.47-.8-.794-.282-2.432-.366-3.674C238.061,25.1,214.494,5.144,171.576,1.048c-47.851-4.582-85.329,20.365-87.3,58.111-.127,2.483.31,5.094-2,7.142-6.625,5.824-4.834,12.813-4.553,19.635.254,6.182,5.92,10.88,7.16,16.678,4.3,19.993,15.222,37.043,32.911,51.737,14.066,11.686,8.076,24.409-12.15,28.8-16.406,3.571-32.883,7.117-48.472,12.749-13.94,1.882-18.436,11.238-22.636,19.7C16.661,251.606,11.757,289.443,11.08,327.791c-.085,4.672.226,9.267-1.748,13.9-5.088,11.942-6.949,24.281-7.076,36.9-.282,26.278.536,52.543-1.254,78.822-1.339,19.75-.747,39.564,12.46,57.369,2.452,3.315,5.116,8.281,11.346,6.4,6.512-1.971,2.467-6.72,2.763-10.521.437-5.53-9.937-9.331-3.3-15.411,3.087.717,6.2,3.917,9.274-.051h0c4.919-7.974.211-15.578-3.016-22.5-4.51-9.677-4.045-18.585-.775-28.237,15.913-46.988,25.413-95.077,38.323-142.591,1.353,1.792,2.692,3.571,4.045,5.363h0c2.664,31.347-3.51,62.361-5.342,93.541-3.932,66.662,1.409,133.093,14.377,199.051,2.481,12.608,9.288,25.216,8.443,37.593-3.5,51.609,7.794,101.529,24.384,150.821,5.046,15,4.383,28.633-2.41,42.636h0c-3.1,2.8-6.582,5.4-9.218,8.474-6.695,7.769-3.834,13.248,7.625,14.323,9.979.934,20.043,1.561,30.092,1.715,6.582.1,12.3-1.894,14.222-7.757h0c3.989-3.533,5.116-7.6,3.665-12.185-3.763-11.93,2.875-24.985-6.2-36.377-.7-.9-.183-2.458-.085-3.7,1-11.52,2.3-23.04,3-34.572,2.128-34.278,7.16-68.518,2.4-102.885-.817-5.888-2.636-12.006-1.452-17.689,6.075-28.928,2.537-58.035,3.693-87.039,2.819-3.7,1.9-7.77,1.945-11.75h0q.169-4.646.324-9.306c2.114-.013,4.243-.013,6.357-.026h0c1,3.712,2,7.437,3,11.149,0,3.955-.691,7.987,2.072,11.622a.013.013,0,0,0,.014.013c1.367,24.96-1.565,50.035,2.974,74.918,1.522,8.333,2.467,16.55,1.1,25.126-4.186,26.176-2.312,52.377,1.1,78.527,4.355,33.292,5.751,66.61.324,99.916-2.932,18.009,10.162,26.073,32.249,19.507,4.468,2.406,9.091.845,13.658.294,4.524-.55,10.049.051,11.938-4.454,1.9-4.557-.042-8.6-4.243-11.968-7.71-6.182-10.557-13.645-13.178-22.208-3.27-10.688,1.748-19.661,3.2-29.376h0c13.9-42.112,23.411-84.812,22.115-128.421a168.149,168.149,0,0,1,5.793-49.907c1.748-6.387,2.495-12.941,3.622-19.43,5.455-31.245,8.358-62.694,10.134-94.156,1.846-32.768,2.988-65.689-1.226-98.341-3.975-30.784-8.09-61.465-6.047-92.466h0c1.325-.563,2.65-1.126,3.975-1.677h0c3.157,17.625,10.627,34.47,13.982,52.121,6.286,33.049,19.112,64.959,28.429,97.5,1.466,5.133,1.466,9.625-.733,14.553-4.651,10.419-6.695,21.158-4.355,32.2.226,3.712,5.06,2.24,7.033,3.968h0c1.635,5.747-5.892,11.354-.451,17.165,4.679,3.123,7.837,2,9.866-2.266h0C327.688,501.754,330.465,485.14,330.1,468.116Z" transform="translate(286.487 142.493)" fill="#fac59e" stroke="#cea386" stroke-miterlimit="10" stroke-width="1"/><path d="M5362.411,1671.5s24,25.912,50.268,0" transform="translate(-4936 -1401)" fill="none" stroke="#c69191" stroke-linecap="round" stroke-width="3"/><path d="M132.582,98.074c0,4.337-1.9,7.662-3.695,8.064a1.337,1.337,0,0,1-.353.048c-1.928,0-4.064-3.47-4.064-8.112,0-4.064,1.622-7.2,3.325-7.936a.7.7,0,0,0,.08-.016,1.585,1.585,0,0,1,.386-.048,2.1,2.1,0,0,1,.707-.016C130.751,90.54,132.582,93.8,132.582,98.074Z" transform="translate(357.833 108.854)"/><path d="M104.276,112.193a1.223,1.223,0,0,1-.938,1.458c-.093.009-.176.019-.26.019a1.221,1.221,0,0,1-1.2-.966,14.378,14.378,0,0,0-5.3-7.856,2.365,2.365,0,0,0-1.857-.39c-4.067.882-6.5,5.284-7.2,7.819a1.228,1.228,0,0,1-2.368-.65c.13-.427,2.721-8.181,9.035-9.555a4.8,4.8,0,0,1,3.724.724C101.992,105.424,104.081,111.274,104.276,112.193Z" transform="translate(356.973 127.358)" fill="#c69191"/><path d="M69.144,98.4c0,4.659-2.731,7.9-5.173,8-1.928.1-5.462-3.952-5.462-8.594,0-4.626,3.534-7.614,5.462-7.614C66.879,89.758,69.144,93.774,69.144,98.4Z" transform="translate(350.836 108.929)"/><path d="M-10906.694-873.49h-110.271s-.23-107.645,0-136.349,7.988-153.247,7.988-153.247l-5.138,26.437s-53.869-48.523-55.433-48.924c12.34-83.682,41.69-110.636,41.69-110.636s49.312-10.258,67.352-13.081c-.708-.407-1.077-.642-1.077-.642l1.282.61c3.608-.561,5.92-.813,6.261-.61a96.458,96.458,0,0,0,46.058,13.4,96.454,96.454,0,0,0,46.056-13.4c.342-.2,2.655.049,6.264.61l1.283-.61s-.369.234-1.078.642c18.042,2.823,67.352,13.081,67.352,13.081s29.351,26.951,41.688,110.633c-1.557.423-52.579,46.813-52.579,46.813l-7.99-24.322s7.76,124.541,7.99,153.247,0,136.349,0,136.349Zm160.276-312.086c.044-.012.049.013.012.077Zm-323.129,0c0,.026-.007.048-.011.074C-11069.594-1185.56-11069.589-1185.584-11069.547-1185.573Z" transform="translate(11357.56 1631.709)" fill="#fff" stroke="#e2e2e2" stroke-width="1"/><rect width="219" height="8" transform="translate(340 750)" fill="#e24841"/><rect width="72" height="8" transform="translate(555.505 490.547) rotate(-39)" fill="#e24841"/><rect width="75" height="8" transform="translate(289.694 440.931) rotate(42)" fill="#e24841"/><circle cx="5" cy="5" r="5" transform="translate(414 341)" fill="#307d7e"/><circle cx="5" cy="5" r="5" transform="translate(478 341)" fill="#307d7e"/><ellipse cx="5.5" cy="5" rx="5.5" ry="5" transform="translate(445 383)" fill="#307d7e"/><ellipse cx="5" cy="5.5" rx="5" ry="5.5" transform="translate(414 416)" fill="#307d7e"/><ellipse cx="5" cy="5.5" rx="5" ry="5.5" transform="translate(478 416)" fill="#307d7e"/><circle cx="5" cy="5" r="5" transform="translate(509 379)" fill="#307d7e"/><circle cx="5" cy="5" r="5" transform="translate(573 379)" fill="#307d7e"/><ellipse cx="5.5" cy="5" rx="5.5" ry="5" transform="translate(540 421)" fill="#307d7e"/><ellipse cx="5" cy="5.5" rx="5" ry="5.5" transform="translate(509 454)" fill="#307d7e"/><ellipse cx="5" cy="5.5" rx="5" ry="5.5" transform="translate(573 454)" fill="#307d7e"/><circle cx="5" cy="5" r="5" transform="translate(381 454)" fill="#307d7e"/><circle cx="5" cy="5" r="5" transform="translate(445 454)" fill="#307d7e"/><ellipse cx="5.5" cy="5" rx="5.5" ry="5" transform="translate(412 496)" fill="#307d7e"/><ellipse cx="5" cy="5.5" rx="5" ry="5.5" transform="translate(381 529)" fill="#307d7e"/><ellipse cx="5" cy="5.5" rx="5" ry="5.5" transform="translate(445 529)" fill="#307d7e"/><circle cx="5" cy="5" r="5" transform="translate(345 666)" fill="#307d7e"/><circle cx="5" cy="5" r="5" transform="translate(409 666)" fill="#307d7e"/><ellipse cx="5.5" cy="5" rx="5.5" ry="5" transform="translate(376 708)" fill="#307d7e"/><ellipse cx="5" cy="5.5" rx="5" ry="5.5" transform="translate(345 741)" fill="#307d7e"/><ellipse cx="5" cy="5.5" rx="5" ry="5.5" transform="translate(409 741)" fill="#307d7e"/><circle cx="5" cy="5" r="5" transform="translate(453 627)" fill="#307d7e"/><circle cx="5" cy="5" r="5" transform="translate(517 627)" fill="#307d7e"/><ellipse cx="5.5" cy="5" rx="5.5" ry="5" transform="translate(484 669)" fill="#307d7e"/><ellipse cx="5" cy="5.5" rx="5" ry="5.5" transform="translate(453 702)" fill="#307d7e"/><ellipse cx="5" cy="5.5" rx="5" ry="5.5" transform="translate(517 702)" fill="#307d7e"/><path d="M69.144,98.4c0,4.659-2.731,7.9-5.173,8-1.928.1-5.462-3.952-5.462-8.594,0-4.626,3.534-7.614,5.462-7.614C66.879,89.758,69.144,93.774,69.144,98.4Z" transform="translate(422.836 108.929)"/></g></svg>