<svg xmlns="http://www.w3.org/2000/svg" width="328.811" height="567.036" viewBox="0 0 328.811 567.036"><g transform="translate(-42.742 -587.801)"><circle cx="128.002" cy="128.002" r="128.002" transform="matrix(0.995, 0.105, -0.105, 0.995, 116.952, 873.476)" fill="#fff"/><path d="M168.8,216.5s81.107,30.13,84.994,59.156S189.017,219.394,168.8,216.5Z" transform="matrix(0.995, 0.105, -0.105, 0.995, 114.228, 670.132)" fill="#ededed"/><g transform="matrix(0.995, 0.105, -0.105, 0.995, 228.609, 837.863)"><path d="M151.505,179.233l.713,3.957-7.159,2.629c-.531-2.027-1.049-4.055-1.566-6.068s-1.021-4.041-1.524-6.082l4.516-1.258c.224,1.3.447,2.615.685,3.915s.5,2.6.811,3.9c.28-.07.545-.14.811-.21s.531-.154.811-.224c.322-.084.643-.182.951-.28S151.184,179.317,151.505,179.233Z" transform="translate(-141.97 -172.41)" fill="#fff"/></g><g transform="matrix(0.995, 0.105, -0.105, 0.995, 163.788, 893.034)"><path d="M108,275.432c-.573,2.629-3.565,3.034-4.614,1.286-.909-1.51,2.083-12.542,3.146-15.352s4.838-8.487,3.006-13.814l-9.507-23.377c4.7-2.7,10.556-7.215,12.514-7.676l9.759,24.8c.685,2.139,5.369,2.517,5.369,2.517s7.2.923,7.788,2.321,4.292,1.608,4.055,3.384-4.083,2.936-5.187,2.559-4.614-.755-5.551-1.985c-4.334,4.362,6.334,16.065,6.963,20.511s-3.845,3.733-4.586,2.433c-.713-1.216-7.159-12.849-7.8-11.143-.671,1.706,3.23,14.709,3.23,14.709.028,3.3-3.943,2.475-4.628.979s-4.656-15.464-4.991-15.114-.909,12.807-.294,14.555-2.908,4.4-4.516,2.181c-1.314-1.79-1.188-11.884-1.091-15.534a.141.141,0,0,0-.28-.028C110.083,266.54,108.447,273.391,108,275.432Z" transform="translate(-99.97 -216.5)" fill="#f3c8bb"/><path d="M100.061,222c-1.063-.378,9.689,21.1,9.507,23.377a54.132,54.132,0,0,1-3.006,13.814c-1.063,2.81-4.069,13.842-3.146,15.352,1.049,1.748,4.041,1.342,4.614-1.286.447-2.041,2.083-8.892,2.768-11.773a.141.141,0,0,1,.28.028c-.1,3.649-.224,13.744,1.091,15.534,1.608,2.209,5.117-.433,4.516-2.181s-.042-14.205.294-14.555,4.32,13.632,4.991,15.114,4.656,2.321,4.628-.979c0,0-3.9-13-3.23-14.709s7.089,9.927,7.8,11.143c.755,1.3,5.215,1.985,4.586-2.433-.615-4.446-11.283-16.135-6.963-20.511" transform="translate(-99.987 -214.312)" fill="none" stroke="#c69191" stroke-linecap="round" stroke-linejoin="round" stroke-miterlimit="10" stroke-width="1.68"/><path d="M124.607,247.922c.923,1.23,4.46,1.594,5.551,1.985s4.949-.783,5.187-2.559-3.453-1.971-4.055-3.384-7.788-2.321-7.788-2.321-4.67-.378-5.369-2.517c0,0-7.8-14.583-7.592-17.127" transform="translate(-95.787 -214.31)" fill="none" stroke="#c69191" stroke-linecap="round" stroke-linejoin="round" stroke-miterlimit="10" stroke-width="1.68"/><path d="M110.94,222.25" transform="translate(-95.626 -214.211)" fill="#f3c8bb"/></g><ellipse cx="16.96" cy="15.03" rx="16.96" ry="15.03" transform="matrix(0.995, 0.105, -0.105, 0.995, 226.394, 730.798)" fill="#fff"/><g transform="matrix(0.995, 0.105, -0.105, 0.995, 94.803, 613.502)"><path d="M133.92,110.374l20.791-11.339C154.7,99.035,139.023,88.283,133.92,110.374Z" transform="translate(11.351 6.478)" fill="#ededed"/><path d="M138.62,118.531s7.522-15.086,21.434-12.024C160.04,106.521,159.564,125.27,138.62,118.531Z" transform="translate(13.222 10.331)" fill="#e30613"/><g transform="translate(0 0)"><path d="M234.074,125.281c1.077-.5,6.46,1.664,5.3,3.4s-13.171,4.125-15.8,5.439c-2.587,1.3-3.887,1.86-3.467,2.223-.336-.07-5.663-1.468-7.326-3.076-1.454-1.412-4.88-.657-5.9-.391.517-.154,1.049-.322,1.594-.489C218.764,129.252,233.4,125.6,234.074,125.281Z" transform="translate(40.4 17.94)" fill="#f3c8bb"/><path d="M226.634,137.883s1.049,3.607-.7,4.1c-.308.084-.881.224-1.636.391-3.426.769-10.514,2.1-12.444,1.035-.2-.1-.391-.224-.587-.322-.713-.35-2.181-1.16-2.279-1.957-.112-.965-.993-2.768-.378-3.467a1.043,1.043,0,0,1,.182-.154c1.664-1.188,5.145-1.832,6.222-.6,1.356,1.566,6.935.056,8.417-.461a2.13,2.13,0,0,0,.825-.5C225.068,135.436,226.634,137.883,226.634,137.883Z" transform="translate(41.004 22.186)" fill="#f3c8bb"/><path d="M225.084,141.858c2.041,1.133,1.9,2.782,1.258,4.153a6.518,6.518,0,0,1-3.565,3.258c-.28.112-.587.224-.909.336a11.705,11.705,0,0,1-6.068.629c-3.439-.769-6.837,0-8.109-1.524a2.276,2.276,0,0,1-.419-.8c-.643-2.307-1.16-4.936-.629-5.984.07-.1.154-.182.224-.294a10.907,10.907,0,0,0,1.8-3.523,1.812,1.812,0,0,1,.7-.951c-.629.713.266,2.5.378,3.467.1.8,1.58,1.608,2.279,1.957.2.1.391.224.587.322C214.57,143.955,221.659,142.627,225.084,141.858Z" transform="translate(40.218 22.699)" fill="#f3c8bb"/><path d="M212.128,144.633c-.531,1.035-.014,3.663.629,5.984a1.972,1.972,0,0,0,.419.8h-.014a36.263,36.263,0,0,0,1.021,4.306,3.816,3.816,0,0,0,.965,1.258l-.252.364-.937,1.063c-.937,1.063-6.292,4.306-8.711,4.544-1.188.112-3.831,1.412-6.166,2.656l-6.25-14.876-.154-.391c.419-.769.881-1.58,1.328-2.363l.336-.587a41.5,41.5,0,0,1,3.118-4.838l.042-.042.182-.182c1.762-1.65,2.573-6.711,6.921-8.794a67.789,67.789,0,0,1,6.8-2.363c.28-.084.573-.182.867-.28a.606.606,0,0,1,.07-.014c.042-.014.126-.042.224-.07,1.035-.266,4.446-1.021,5.9.391,1.664,1.608,6.991,2.992,7.326,3.076l.014.014a7.2,7.2,0,0,1,5.173,2.531,1.667,1.667,0,0,1-.447,1.314,2.258,2.258,0,0,1-.825.5c-1.482.517-7.061,2.027-8.417.461-1.063-1.23-4.544-.587-6.222.6a.662.662,0,0,0-.182.154,1.811,1.811,0,0,0-.7.951,10.631,10.631,0,0,1-1.8,3.523A.9.9,0,0,0,212.128,144.633Z" transform="translate(34.747 19.994)" fill="#f3c8bb"/><path d="M222.756,148.126c.671,1.58-.475,3.593-1.985,4.866a6.52,6.52,0,0,1-3.2.853,10.482,10.482,0,0,1-8.263-2.88,3.871,3.871,0,0,1-.965-1.258,35.626,35.626,0,0,1-1.021-4.306h.014c1.272,1.524,4.67.741,8.109,1.524a11.721,11.721,0,0,0,6.068-.629l.014.028C221.525,146.351,222.1,146.56,222.756,148.126Z" transform="translate(40.576 25.98)" fill="#f3c8bb"/><path d="M245.232,174.671a4.978,4.978,0,0,1-3.929,6.851c-15.687,2.083-54.752,7.48-58.094,9.815-4.194,2.936,12.863,43.4,12.863,43.4a189.471,189.471,0,0,0-32.088,1.915c-18.526,2.712-29.445,7.27-29.445,7.27l.028-28.439a36.871,36.871,0,0,0-5.97,13.7,30.942,30.942,0,0,0,.14,13.954l1.119,4.67a3.791,3.791,0,0,1-2.615,4.516L121.481,254l-18.232,5.341a6.711,6.711,0,0,1-7.872-3.4c-8.752-17.407-6.264-21.378-5.984-29.977.909-29.264,21.658-46.978,21.658-46.978s16.442-15.072,22.119-15.869a4.826,4.826,0,0,0-1.985,2.629,8.44,8.44,0,0,0,2.125,8.934c4.824,4.7,15.715,8.892,23.517,3.37,6.026-4.264,5.788-6.725,5.2-10.207-.629-3.663-8.78-6.851-10.011-6.739l31.808-6.627s23.783-5.872,37.471-16.75a6.036,6.036,0,0,1,9.354,2.335l3.3,7.858.154.391,6.25,14.876Z" transform="translate(-6.592 22.393)" fill="#ee7358"/><path d="M204.4,57.311c15.03,11.2,16.121,33.542,13.814,51.676-4.069,31.976-15.967,54.263-37.331,70.146a105.621,105.621,0,0,1-8.892,5.928c-1.049.629-2.1,1.23-3.188,1.846-2.656,1.482-8.193,3.16-11.073,4.5-23.223,10.85-46.279,14.876-71.656,11.3-17.239-2.433-28.439-11.8-37.89-26.118,0,0-12.094,8.039-16.526-2.475s1.119-16.219,4.991-16.428C36.648,157.671,47.721-59.436,204.4,57.311Zm-1.1,82.366a13.977,13.977,0,1,0-8.305,12.807A13.957,13.957,0,0,0,203.295,139.676Z" transform="translate(-30.019 -22.825)" fill="#f3c8bb"/><path d="M139.34,160.178l.7-.028.1-.014c1.23-.112,9.368,3.062,10.011,6.739.587,3.481.825,5.942-5.2,10.207-7.8,5.523-18.693,1.314-23.517-3.37a8.439,8.439,0,0,1-2.125-8.934,4.928,4.928,0,0,1,1.985-2.629c2.447-1.412,6.012-.8,7.284-.5l1.258-.042c-.447-1.468-.993-2.922-1.524-4.236l-5.914-12.15c2.88-1.342,8.417-3.034,11.073-4.5,1.091-.6,2.139-1.216,3.188-1.846v.014Z" transform="translate(5.33 23.38)" fill="#f3c8bb"/></g><g transform="translate(0.014)"><path d="M157.738,191.394c-23.223,10.85-46.279,14.876-71.656,11.3-17.239-2.433-28.439-11.8-37.89-26.118,0,0-12.094,8.039-16.526-2.475s1.119-16.219,4.991-16.428c0,0,11.073-217.106,167.751-100.36,15.03,11.2,16.121,33.542,13.814,51.676-4.069,31.976-15.967,54.263-37.331,70.146A105.623,105.623,0,0,1,172,185.061c-1.049.629-2.1,1.23-3.188,1.846C166.155,188.374,160.6,190.052,157.738,191.394Z" transform="translate(-30.029 -22.825)" fill="none" stroke="#c69191" stroke-miterlimit="10" stroke-width="2.023"/><path d="M196.11,139.1l.182-.182" transform="translate(36.098 23.4)" fill="none" stroke="#c69191" stroke-linecap="round" stroke-linejoin="round" stroke-miterlimit="10" stroke-width="2.023"/><path d="M193.85,143.918a41.493,41.493,0,0,1,3.118-4.838" transform="translate(35.198 23.464)" fill="none" stroke="#c69191" stroke-linecap="round" stroke-linejoin="round" stroke-miterlimit="10" stroke-width="2.023"/><path d="M192.66,145.323c.419-.769.881-1.58,1.328-2.363" transform="translate(34.725 25.009)" fill="none" stroke="#c69191" stroke-linecap="round" stroke-linejoin="round" stroke-miterlimit="10" stroke-width="2.023"/><path d="M203.416,153.66c-1.188.112-3.831,1.412-6.166,2.656" transform="translate(36.552 29.269)" fill="none" stroke="#c69191" stroke-linecap="round" stroke-linejoin="round" stroke-miterlimit="10" stroke-width="2.023"/><line y1="0.028" x2="0.699" transform="translate(144.655 183.53)" stroke-width="2.023" stroke="#000" stroke-linecap="round" stroke-linejoin="round" stroke-miterlimit="10" fill="none"/><path d="M161.921,110.394a14.007,14.007,0,1,1-2.391-7.844A14.148,14.148,0,0,1,161.921,110.394Z" transform="translate(11.341 6.458)" fill="none" stroke="#c69191" stroke-linecap="round" stroke-linejoin="round" stroke-miterlimit="10" stroke-width="2.023"/><path d="M133.19,163.12c-5.677.8-22.119,15.869-22.119,15.869S90.322,196.7,89.413,225.967c-.28,8.6-2.768,12.569,5.984,29.977a6.7,6.7,0,0,0,7.872,3.4L121.5,254l5.76-1.678a3.792,3.792,0,0,0,2.615-4.516l-1.119-4.67a30.938,30.938,0,0,1-.14-13.954,36.872,36.872,0,0,1,5.97-13.7l-.028,28.439s10.906-4.558,29.445-7.27a190.936,190.936,0,0,1,32.088-1.915s-17.058-40.463-12.863-43.4c3.342-2.335,42.406-7.732,58.094-9.815a4.982,4.982,0,0,0,3.929-6.851L240.428,163.2l-6.25-14.876-.154-.391-3.3-7.858a6.028,6.028,0,0,0-9.354-2.335c-13.688,10.878-37.471,16.75-37.471,16.75l-31.808,6.627-.1.014" transform="translate(-6.598 22.396)" fill="none" stroke="#e84436" stroke-linecap="round" stroke-linejoin="round" stroke-miterlimit="10" stroke-width="2.023"/><path d="M129.029,155.693s-.168-.042-.475-.112c-1.258-.28-4.824-.909-7.284.5a4.826,4.826,0,0,0-1.985,2.629,8.44,8.44,0,0,0,2.125,8.934c4.824,4.7,15.715,8.892,23.517,3.37,6.026-4.264,5.788-6.725,5.2-10.207-.629-3.663-8.78-6.851-10.011-6.739" transform="translate(5.308 29.431)" fill="none" stroke="#e84436" stroke-linecap="round" stroke-linejoin="round" stroke-miterlimit="10" stroke-width="2.023"/><path d="M220.107,134.273c-.336-.07-5.663-1.468-7.326-3.076-1.454-1.412-4.88-.657-5.9-.391" transform="translate(40.386 19.994)" fill="none" stroke="#c69191" stroke-linecap="round" stroke-linejoin="round" stroke-miterlimit="10" stroke-width="2.023"/><path d="M216.364,133.174a.014.014,0,0,1-.014-.014" transform="translate(44.157 21.107)" fill="none" stroke="#000" stroke-linecap="round" stroke-linejoin="round" stroke-miterlimit="10" stroke-width="2.023"/><path d="M206.88,132.859c.517-.154,1.049-.322,1.594-.489,10.29-3.118,24.929-6.767,25.6-7.089,1.077-.5,6.46,1.664,5.3,3.4s-13.171,4.125-15.8,5.439c-2.587,1.3-3.887,1.86-3.467,2.223" transform="translate(40.386 17.94)" fill="none" stroke="#c69191" stroke-linecap="round" stroke-linejoin="round" stroke-miterlimit="10" stroke-width="2.023"/><path d="M206.944,130.68a1.068,1.068,0,0,0-.224.07" transform="translate(40.323 20.119)" fill="none" stroke="#c69191" stroke-linecap="round" stroke-linejoin="round" stroke-miterlimit="10" stroke-width="2.023"/><path d="M193.61,147.829l.336-.587a25.219,25.219,0,0,1,3.118-4.838l.042-.042a2.229,2.229,0,0,1,.182-.182c1.762-1.65,2.573-6.711,6.921-8.794a67.8,67.8,0,0,1,6.8-2.363c.28-.084.573-.182.867-.28a.6.6,0,0,1,.07-.014" transform="translate(35.103 20.139)" fill="none" stroke="#c69191" stroke-linecap="round" stroke-linejoin="round" stroke-miterlimit="10" stroke-width="2.023"/><path d="M211.439,137.16a1.812,1.812,0,0,0-.7.951,10.63,10.63,0,0,1-1.8,3.523c-.07.1-.154.2-.224.294a7.134,7.134,0,0,1-3.5,2.587c-2.852.8-3.957,1.119-3.957,1.119" transform="translate(38.149 22.699)" fill="none" stroke="#c69191" stroke-linecap="round" stroke-linejoin="round" stroke-miterlimit="10" stroke-width="2.023"/><path d="M219.418,133.17a7.2,7.2,0,0,1,5.173,2.531,1.667,1.667,0,0,1-.447,1.314,2.257,2.257,0,0,1-.825.5c-1.482.517-7.061,2.027-8.417.461-1.063-1.23-4.544-.587-6.222.6" transform="translate(41.103 21.111)" fill="none" stroke="#c69191" stroke-linecap="round" stroke-linejoin="round" stroke-miterlimit="10" stroke-width="2.023"/><path d="M224.243,135.95c.825-.5,2.391,1.929,2.391,1.929s1.049,3.607-.7,4.1c-.308.084-.881.224-1.636.391-3.426.769-10.514,2.1-12.444,1.035-.2-.1-.391-.224-.587-.322-.713-.35-2.181-1.16-2.279-1.957-.112-.965-.993-2.768-.378-3.467a1.043,1.043,0,0,1,.182-.154" transform="translate(40.99 22.19)" fill="none" stroke="#c69191" stroke-linecap="round" stroke-linejoin="round" stroke-miterlimit="10" stroke-width="2.023"/><path d="M225.084,140.584c2.041,1.133,1.9,2.782,1.258,4.153a6.518,6.518,0,0,1-3.565,3.258c-.28.112-.587.224-.909.336a11.705,11.705,0,0,1-6.068.629c-3.439-.769-6.837,0-8.109-1.524a2.276,2.276,0,0,1-.419-.8c-.643-2.307-1.16-4.936-.629-5.984a.817.817,0,0,1,.224-.294" transform="translate(40.204 23.973)" fill="none" stroke="#c69191" stroke-linecap="round" stroke-linejoin="round" stroke-miterlimit="10" stroke-width="2.023"/><path d="M221.525,146.351s.573.224,1.23,1.776c.671,1.58-.475,3.593-1.985,4.866a6.52,6.52,0,0,1-3.2.853,10.482,10.482,0,0,1-8.263-2.88,3.871,3.871,0,0,1-.965-1.258,35.626,35.626,0,0,1-1.021-4.306" transform="translate(40.562 25.98)" fill="none" stroke="#c69191" stroke-linecap="round" stroke-linejoin="round" stroke-miterlimit="10" stroke-width="2.023"/><path d="M198.5,157c2.335-1.258,3.23-1.636,4.418-1.748,2.419-.238,7.76-3.481,8.711-4.544s.937-1.063.937-1.063" transform="translate(37.05 27.672)" fill="none" stroke="#c69191" stroke-linecap="round" stroke-linejoin="round" stroke-miterlimit="10" stroke-width="2.023"/><path d="M131.56,138.86l2.7,21.322.252,5.788" transform="translate(10.397 23.376)" fill="none" stroke="#c69191" stroke-linecap="round" stroke-miterlimit="10" stroke-width="2.023"/><path d="M129.791,164.163a27.939,27.939,0,0,0-.993-4.376c-.447-1.468-.993-2.922-1.524-4.236L121.36,143.4" transform="translate(6.336 25.184)" fill="none" stroke="#c69191" stroke-linecap="round" stroke-miterlimit="10" stroke-width="2.023"/></g></g><g transform="matrix(0.995, 0.105, -0.105, 0.995, 202.309, 606.986)"><g transform="translate(7.334)"><path d="M116.578,29.668a10.131,10.131,0,0,1-.671-6.641,18.658,18.658,0,0,1,1.021-3.328,10.842,10.842,0,0,1,1.552-3.02,5.125,5.125,0,0,1,2.684-1.454,16.814,16.814,0,0,1,3.9-.8,6.771,6.771,0,0,1,1.678.1,3.278,3.278,0,0,1,1.119.419c-.168-.112.168.126.154.112l.294.252a2.513,2.513,0,0,1,.28.266c-.042-.056-.168-.2-.014.014a1.828,1.828,0,0,1,.405.825,1.025,1.025,0,0,1,0,.545c-.042.238,0,.014.014-.028-.014.042-.224.5-.112.308.042-.07-.238.308-.336.405-.014.014-.252.224-.1.1s-.168.112-.2.126c-.1.056-.6.266-.322.182-.1.028-.182.056-.28.084-.322.084.294-.028-.028.014a1.867,1.867,0,0,1-.28,0c.252.014.168-.056.014-.014.014,0,.35,0,.126.042-.112-.07-.112-.056.028.014.154.112.14.084-.042-.07a2.208,2.208,0,0,0-3.076-.028c-.825.965-.28,2.265.517,3.034a5.11,5.11,0,0,0,7.676-1.035c2.083-3.23-.252-7.075-3.188-8.78-3.272-1.915-7.494-1.133-10.878.042a7.607,7.607,0,0,0-4.139,2.992,20.353,20.353,0,0,0-2.153,4.768c-1.2,3.789-1.524,7.983.322,11.619a2.652,2.652,0,0,0,2.908,1.552,1.849,1.849,0,0,0,1.119-2.615Z" transform="translate(-111.248 -10.152)" fill="#eacf83"/></g><g transform="translate(0 1.087)"><path d="M109.453,14.034a4.055,4.055,0,0,1,.825.126c.238.056.489.252.713.294-.336-.056-.671-.573-.937-.741a.482.482,0,0,1-.126-.112,3.515,3.515,0,0,0,.447.573,25.55,25.55,0,0,1,2.027,3.5,38.812,38.812,0,0,1,2.908,7.9,2.752,2.752,0,0,0,.685.853,12.264,12.264,0,0,0,1.356,1.2,4.834,4.834,0,0,0,1.174.8c.112.042.419.224.35-.042A39.082,39.082,0,0,0,114.724,18.2a18.416,18.416,0,0,0-3.384-4.25c-1.426-1.314-3.216-2.88-5.243-3.02-.461-.028.895,1.314.979,1.384a15.776,15.776,0,0,0,1.4,1.16c.28.2.657.545.979.559Z" transform="translate(-106.002 -10.93)" fill="#eacf83"/></g></g><ellipse cx="11.073" cy="11.675" rx="11.073" ry="11.675" transform="matrix(0.995, 0.105, -0.105, 0.995, 177.829, 728.323)" fill="#ee7358"/><circle cx="8.277" cy="8.277" r="8.277" transform="matrix(0.995, 0.105, -0.105, 0.995, 252.256, 690.188)" fill="#ee7358"/><path d="M111.412,77.885c2.027,3.761,1.244,7.564-.671,8.711-1.51.909-6.138-.811-8.165-4.544s-.475-7.69,1.077-8.529C105.819,71.9,109.384,74.138,111.412,77.885Z" transform="matrix(0.995, 0.105, -0.105, 0.995, 93.594, 610.508)"/><path d="M141.722,53.717c2.041,2.754,1.846,5.872.461,7-1.1.895-4.977.056-7-2.684s-1.258-6.068-.112-6.907C136.591,49.606,139.694,50.976,141.722,53.717Z" transform="matrix(0.995, 0.105, -0.105, 0.995, 107.325, 602.947)"/><path d="M145.377,75.139a.94.94,0,0,1-.405,1.286.965.965,0,0,1-1.286-.405,11.221,11.221,0,0,0-5.621-4.768,1.859,1.859,0,0,0-1.482.1c-2.852,1.51-3.761,5.327-3.747,7.368a.958.958,0,0,1-1.915.014c0-.35.308-6.711,4.754-9.06a3.745,3.745,0,0,1,2.936-.238C142.231,70.553,145.041,74.5,145.377,75.139Z" transform="matrix(0.995, 0.105, -0.105, 0.995, 105.357, 610.245)" fill="#c69191" stroke="#c69191" stroke-miterlimit="10" stroke-width="0.674"/><path d="M83.21,15.975S111.089,3.853,122.736,11.5s14.737,11.828,14.737,11.828,7.55-8.878,21.588,2.978,15.128,15.436,15.128,15.436,22.58,17.952,13.478,23.363-27.306-9.507-26.5-13.3c0,0-19.672,12.136-31.529,2.307S117.8,44.288,117.8,44.288a21.277,21.277,0,0,1-19.588,6.851" transform="matrix(0.995, 0.105, -0.105, 0.995, 88.973, 584.393)" fill="#f3db8c"/><g transform="matrix(0.995, 0.105, -0.105, 0.995, 160.119, 586.765)"><g transform="translate(9.905)"><path d="M88.915,23c-2.545-1.119-4.167-4.153-5.159-6.6a16.611,16.611,0,0,1-1.328-4.824c-.126-1.846.8-3.342,1.818-4.8a14.847,14.847,0,0,1,3.2-3.537,6.493,6.493,0,0,1,2.125-1.077A12.867,12.867,0,0,1,91.5,1.982Q89.425.829,90.327,1.563a2.824,2.824,0,0,1,.364.447,3.455,3.455,0,0,1,.322.643,3.146,3.146,0,0,1,0,1.762c-.294,1.091-1.16,2.279-2.419,2.209-.979-.056.35.783.545.895a7.939,7.939,0,0,0,3.048,1.063,3.288,3.288,0,0,0,2.978-4.768C94.437,2.332,92.634,1.493,91.18.906A9.848,9.848,0,0,0,86.286.067C83.014.486,80.651,3.6,79.058,6.233a6.28,6.28,0,0,0-.741,5.117,23.663,23.663,0,0,0,1.58,4.614A15.129,15.129,0,0,0,89.124,24c.14.042.909.28,1.1.154.475-.35-1.174-1.1-1.314-1.16Z" transform="translate(-78.083 -0.008)" fill="#eacf83"/></g><g transform="translate(0 12.344)"><path d="M74.356,13.875a3.691,3.691,0,0,1,2.894-.489A18.552,18.552,0,0,1,81.1,14.672a36.452,36.452,0,0,1,7.62,4.362,1.807,1.807,0,0,0,2.684-.741,2.7,2.7,0,0,0-1.188-3.076,40.836,40.836,0,0,0-9.186-5.047c-2.88-1.146-6.473-2.209-9.256-.224a2.23,2.23,0,0,0-.336,3.034c.587.867,1.929,1.594,2.922.895Z" transform="translate(-70.998 -8.837)" fill="#eacf83"/></g></g><path d="M147.5,21c1.846,10.584,2.922,49.159-15.9,62.456a18.084,18.084,0,0,0-6.362,7.956c-3.048,7.508-10.095,20.693-23.657,26.663a18.389,18.389,0,0,0-8.333,7.508c-3.789,6.362-11.381,16.275-23.279,19.448A18.948,18.948,0,0,0,56.2,163.641c.042,3.915,2.838,8.822-1.929,11.087l-5.4,2.559A18.52,18.52,0,0,1,27.92,173.82C17.21,163.278-2.1,132.141,5.717,116.9c6.32-12.3,10.235-18.372,13.171-21.448a18.55,18.55,0,0,0,5.019-13.926c-.615-10.3.727-25.167,12.458-30.27a18.493,18.493,0,0,0,8.585-7.55c4.25-7.228,16.582-11.954,29.459-13.744a19.048,19.048,0,0,0,13.129-7.788c4.167-6.012,12.22-6.823,22.035-6.4a18.42,18.42,0,0,0,9.8-2.475c6.851-3.887,19.043-8.725,25.656,1.23A16.46,16.46,0,0,1,147.5,21Z" transform="matrix(0.995, 0.105, -0.105, 0.995, 57.583, 580.96)" fill="#f3db8c"/><g transform="matrix(0.995, 0.105, -0.105, 0.995, 147.547, 626.203)"><path d="M72.029,83.275a18.586,18.586,0,0,0,9.759-7.9,17.66,17.66,0,0,0,2.321-6.04c.447-2.377.1-4.88,1.86-6.767A43.4,43.4,0,0,0,90.527,57.4a24.916,24.916,0,0,0,3.16-6.487,21.365,21.365,0,0,0,.294-12.793c-1.44-4.544-4.586-8.6-9.228-10.109-1.077-.35-1.72.35-1.524,1.412a4.038,4.038,0,0,0,2.5,2.726c3.817,1.244,4.963,5.788,4.963,9.4a22.568,22.568,0,0,1-5.732,14.6c-1.706,1.929-3.817,3.3-4.39,5.97-.517,2.433-.433,4.8-1.342,7.159a16.789,16.789,0,0,1-10.053,9.759c-2.083.727,1.035,4.88,2.852,4.25Z" transform="translate(-68.486 -27.915)" fill="#eacf83"/></g><g transform="matrix(0.995, 0.105, -0.105, 0.995, 77.843, 693.275)"><path d="M56.511,82.212c2.936,4.013,6.138,9.494,3.453,14.457-1.985,3.649-6.11,5.411-9.7,7.075-1.72.8-4.25,1.538-4.949,3.481-.8,2.237.168,5.257.475,7.536.364,2.657,1.174,5.746-.056,8.277-1.049,2.167-3.23,3.789-5.243,4.991a13.824,13.824,0,0,1-8.165,2.139c-2.8-.238-4.278-1.5-4.418-4.334-.056-.993-1.314-2.013-2.027-2.559-.2-.154-2-1.412-1.957-.587.252,5.089,5.453,9.857,10.221,10.948,5.313,1.216,12.374-1.832,15.17-6.557,1.664-2.81.853-6.138.447-9.172-.364-2.671-1.9-7.047.811-8.85,4.208-2.8,9.731-3.593,12.751-8.039,4.041-5.942-.433-13.017-4.027-17.924-.559-.769-1.8-2.153-2.81-2.251s-.336.881.028,1.37Z" transform="translate(-23.919 -80.835)" fill="#eacf83"/></g><g transform="matrix(0.995, 0.105, -0.105, 0.995, 89.468, 673.748)"><path d="M31.486,66.836c-2.88,8.151,3.118,15.576,6.837,22.287.378.685,2.013.5,2.657.475.182-.014,2.824-.336,2.587-.755-3.719-6.711-9.717-14.135-6.837-22.287.182-.5-2.433-.489-2.657-.475-.6.042-2.335.028-2.587.755Z" transform="translate(-30.728 -66.077)" fill="#eacf83"/></g><g transform="matrix(0.995, 0.105, -0.105, 0.995, 139.466, 608.243)"><path d="M64.436,38.71c2.153-5.439,5.089-12.43,11.633-13.576,2.5-.433,5.691.811,7.858-.951,1.049-.853,1.426-2.181,2.153-3.258a2.387,2.387,0,0,1,1.133-.965,3.677,3.677,0,0,1,.769-.126c.084,0,.168.014.252.014.895.322.461-.322-1.328-1.9a4.361,4.361,0,0,0,1.874,2.768c.8.461,1.3.154,1.16-.783-.405-2.6-3.8-5.774-6.236-3.286-1.1,1.133-1.356,2.95-2.726,3.845-1.454.951-3.453.489-5.075.447-8.053-.21-11.926,7.942-14.443,14.289-.531,1.342,2.475,4.74,2.978,3.481Z" transform="translate(-61.395 -15.744)" fill="#eacf83"/></g><g transform="matrix(0.995, 0.105, -0.105, 0.995, 46.483, 671.649)"><path d="M28.51,68.109A57.885,57.885,0,0,1,14.1,82.873c-2.391,1.636-6.04,3.565-9.018,2.447a1.935,1.935,0,0,1-1.119-2.7A2.909,2.909,0,0,1,5.1,81.153c.168-.1.951-.2,1.035-.266.042.014.1.014.14.028q-.692-1.153-.545-.252a3.53,3.53,0,0,0,2.027,2.545c.7.336,1.818.461,1.776-.629-.126-3.328-4.628-6.865-7.732-4.754-3.23,2.2-1.594,6.585.7,8.766C9.09,92.9,17.437,86.7,22.694,81.908a61.93,61.93,0,0,0,9.214-10.556c1.021-1.44-2.489-4.544-3.4-3.244Z" transform="translate(0.004 -67.797)" fill="#eacf83"/></g><g transform="matrix(0.995, 0.105, -0.105, 0.995, 69.953, 626.41)"><path d="M20.469,92.511c3.8-4.8,7.578-9.661,10.36-15.142a34.967,34.967,0,0,0,3.02-8.277c.727-3.286.867-6.669,1.51-9.969a30.339,30.339,0,0,1,6.529-13.716,27.9,27.9,0,0,1,2.349-2.461c.364-.336.755-.671,1.146-.979-.266.21,1.23-.895.643-.475a19.7,19.7,0,0,1,5.607-2.587,13.962,13.962,0,0,0,5.2-2.95c.378-.336,2.363-2.531.559-2.013-9.661,2.8-18.875,9.1-24.468,17.547a33,33,0,0,0-5.089,12.737c-.489,2.88-.671,5.816-1.272,8.683a34.265,34.265,0,0,1-2.573,7.536c-2.643,5.593-6.571,10.5-10.4,15.324-1.174,1.482,1.664.5,2.069.308a13.646,13.646,0,0,0,4.81-3.565Z" transform="translate(-13.308 -33.864)" fill="#eacf83"/></g><g transform="matrix(0.995, 0.105, -0.105, 0.995, 55.404, 742.475)"><path d="M16.815,119.719c.573,2.153,1.119,4.32,1.608,6.487q.378,1.636.713,3.272c.182.867.5,2.139.573,2.81a3.96,3.96,0,0,1-.014.461c-.014-.2.042.014-.07.056.308-.112-.084.056-.182.112.308-.182-.182.042-.238.056-.308.1.014.014-.168.042a3.028,3.028,0,0,1-.5.014c-.014,0-.643-.042-.266,0-.224-.028-.447-.084-.671-.126-.2-.042-.391-.1-.587-.154-.07-.014-.5-.182-.28-.084a5.619,5.619,0,0,1-.643-.336c.252.168-.112-.1-.182-.168-.126-.126-.126-.112.042.042-.042-.056-.1-.126-.14-.182.126.21.112.2-.014-.056.014.042.028.084.042.14-.042-.238-.056-.294-.056-.168v-.168c-.028.28.1-.322.112-.336.825-2.223-2.992-4.74-3.971-2.1-1.077,2.908,1.063,6.012,3.649,7.2,2.041.923,5.117,1.524,7-.056a4.2,4.2,0,0,0,1.188-3.929c-.182-1.44-.559-2.894-.867-4.306-.629-2.88-1.314-5.732-2.083-8.571a2.733,2.733,0,0,0-2.489-2.167,1.7,1.7,0,0,0-1.51,2.209Z" transform="translate(-11.636 -117.51)" fill="#eacf83"/></g><g transform="matrix(0.995, 0.105, -0.105, 0.995, 199.823, 623.45)"><path d="M107.01,25.043c5.663.154,13.143.461,16.009,6.376,1.077,2.223,1.091,5.005,3.286,6.543,1.258.881,2.768.881,4.208,1.174a1.361,1.361,0,0,1,1.035.643,6.323,6.323,0,0,1,.252.657c.224.447-.559.433.336-.07-.825.461-1.44,1.454-.489,2.111.979.671,2.684.224,3.607-.294a2.7,2.7,0,0,0,1.482-3.425,4.266,4.266,0,0,0-3.481-2.489c-1.622-.308-2.936-.252-3.733-1.9-.643-1.314-.825-2.8-1.426-4.125-3.3-7.215-12.15-8.011-19.085-8.193-1.119-.028-2.754.224-3.384,1.3-.559.993.433,1.664,1.384,1.692Z" transform="translate(-105.464 -22.049)" fill="#eacf83"/></g><g transform="matrix(0.995, 0.105, -0.105, 0.995, 238.816, 629.209)"><path d="M133.979,30.4a14.2,14.2,0,0,0,1.762,10.416,26.077,26.077,0,0,0,3.244,4.376c1.119,1.23,2.363,2.894,4.111,3.132,4.125.559,7.284-2.866,8.641-6.376a3.938,3.938,0,0,0-.615-4.334,12.65,12.65,0,0,1-2.922-4.5,19.977,19.977,0,0,1-.853-6.166A4.449,4.449,0,0,1,147.5,25.4a3.073,3.073,0,0,0,.21-.433c-1.636.154-2.153.378-1.538.671a.5.5,0,0,1,.2.14c.35.7.853,1.272.28,2.083-.6.839.6,1.007,1.2.965a4.281,4.281,0,0,0,2.964-1.314,2.628,2.628,0,0,0-.266-3.607c-1.384-1.146-3.691-.615-5.159.056A3.962,3.962,0,0,0,142.858,28a22.4,22.4,0,0,0,.587,5.621,11.859,11.859,0,0,0,2.4,4.656,8.214,8.214,0,0,1,1.622,2,3.493,3.493,0,0,1-.2,2.573,12.49,12.49,0,0,1-1.216,2.251,8.087,8.087,0,0,1-.7.965c-.084.1-.294.224-.35.336.951-.126,1.216-.308.769-.545a1.622,1.622,0,0,1-.294-.224,25.5,25.5,0,0,1-3.775-4.083c-2.6-3.412-4.264-7.774-3.216-12.066.28-1.258-4.18-.433-4.516.923Z" transform="translate(-133.631 -23.23)" fill="#eacf83"/></g><path d="M122.23,145.251l13.059-5.2,1.146,7.522-10.64,6.963Z" transform="matrix(0.995, 0.105, -0.105, 0.995, 98.969, 637.922)" fill="#c69191" stroke="#c69191" stroke-linecap="round" stroke-miterlimit="10" stroke-width="2.023"/></g></svg>