<svg xmlns="http://www.w3.org/2000/svg" width="339.364" height="339.711" viewBox="0 0 339.364 339.711">
  <g id="back" transform="translate(-129.121 -246.551)">
    <rect id="Rectangle_1" data-name="Rectangle 1" width="0.013" height="125.75" transform="translate(204.472 459.801)" fill="#69b5ab"/>
    <path id="Path_1" data-name="Path 1" d="M158.961,333.85V322.478h10.724V333.85H225.8c10.8-5.284,22.124-10.569,24.5-10.7,2.186-.121,32.282-.131,64.317-.107l9.489-9.493h2.366V299.475H337.2v14.076h35.766l9.052,9.579,11.369.021.08-.11v50.622H437.1v-6.849h10.724v14.719l6.307,7.63h-.85V406.7l15.209-7.025V304.551a58,58,0,0,0-58-58h-223a58,58,0,0,0-58,58v52.366L151.2,333.85Z" fill="#69b5ab"/>
    <path id="Path_2" data-name="Path 2" d="M129.485,356.917l-.282.3v37.159l.282-.08Z" fill="#399d88"/>
    <path id="Path_3" data-name="Path 3" d="M160.242,385.568h44.243V344.551h0s10.388-5.351,21.32-10.7h-56.12v9.365H158.961V333.85H151.2l-21.718,23.067V394.3Z" fill="#399d88"/>
    <path id="Path_4" data-name="Path 4" d="M186.485,411.1v.1l17.987-14.817V459.8h.013V395.953Z" fill="#399d88"/>
    <path id="Path_5" data-name="Path 5" d="M453.276,406.7V389.163h.85l-6.307-7.63v6.018H437.095V373.663H393.47v60.659Z" fill="#399d88"/>
    <path id="Path_6" data-name="Path 6" d="M372.969,313.551H337.2v6.661H326.479v-6.661h-2.366l-9.489,9.493c25.685.02,52.6.061,67.4.086Z" fill="#399d88"/>
    <rect id="Rectangle_2" data-name="Rectangle 2" width="10.724" height="11.372" transform="translate(158.961 322.478)" fill="#399d88"/>
    <rect id="Rectangle_3" data-name="Rectangle 3" width="10.724" height="9.365" transform="translate(158.961 333.85)" fill="#399d88"/>
    <rect id="Rectangle_4" data-name="Rectangle 4" width="10.724" height="14.076" transform="translate(326.479 299.475)" fill="#399d88"/>
    <rect id="Rectangle_5" data-name="Rectangle 5" width="10.724" height="6.661" transform="translate(326.479 313.551)" fill="#399d88"/>
    <path id="Path_7" data-name="Path 7" d="M447.819,381.533V366.814H437.095v6.849h4.218Z" fill="#399d88"/>
    <path id="Path_8" data-name="Path 8" d="M447.819,387.551v-6.018l-6.506-7.87h-4.218v13.888Z" fill="#399d88"/>
    <path id="Path_9" data-name="Path 9" d="M171.054,459.8v2.367H150.9V459.8h-11.3v2.367H129.485v17.6h10.108v33.4H129.485v14.383c0,1.08.035,2.152.093,3.218h10.015v29.495a58.169,58.169,0,0,0,27.284,21.505h4.177v1.406a57.9,57.9,0,0,0,15.431,2.35V459.8Zm0,104.367H150.9v-33.4h20.156Zm0-51H150.9v-33.4h20.156Z" fill="#fff"/>
    <rect id="Rectangle_6" data-name="Rectangle 6" width="18.081" height="0.282" transform="matrix(0.009, -1, 1, 0.009, 129.121, 428.767)" fill="#fff"/>
    <path id="Path_10" data-name="Path 10" d="M129.485,410.689v18.079h10.108V459.8H150.9V428.769h20.156V459.8h15.431V411.2h0v-.1l-.115.1Z" fill="#fff"/>
    <path id="Path_11" data-name="Path 11" d="M129.485,410.551V394.3l-.282.08v16.175Z" fill="#c5c4c4"/>
    <path id="Path_12" data-name="Path 12" d="M186.485,411.1l18-15.151V385.568H160.242L129.485,394.3v16.256h57Z" fill="#c5c4c4"/>
    <rect id="Rectangle_7" data-name="Rectangle 7" width="0.282" height="0.137" transform="translate(129.203 410.551)" fill="#c5c4c4"/>
    <path id="Path_13" data-name="Path 13" d="M186.37,411.2l.115-.1v-.554h-57v.139Z" fill="#c5c4c4"/>
    <path id="Path_14" data-name="Path 14" d="M252.459,576.34l71.429.711v9.211l53.706-.711v-122.3H319.3v32.921H299.144v-33.4h5.919v-13.6h-5.919v-33.4h5.919v-13.6h-5.919V374.042a24.248,24.248,0,0,1-7.224,3.282s5.558-4.706,7.224-7.023v-1.532h.9c1.435-2.417,4.244-6.8,1.534-9.913-3.131-3.593-8.531-4.76-14.016-5.083,0,0,7.491-.815,9.442-.082,1.748.657,5.909,1.487,8.06,4.335V344.551H243.988l9.852,12.666V459.8H204.485v125.75h47.974Zm82.383-112.415H355v33.4H334.842Zm0,47H355v33.4H334.842Zm-35.7-1.156H319.3v33.4H299.144Zm-7.116-149.981a2.957,2.957,0,1,1-2.957,3A2.956,2.956,0,0,1,292.028,359.788Zm-28.591,8.981h17.7a7.623,7.623,0,0,1-2.95-3.137c-1.777-3.737.044-8.038,1.659-9.916,1.9-2.241,4.218-5.958,12.3-8.213,0,0-6.648,5.525-7.646,7.523s-5.27,7.245-2.168,10.863,8.49,4.83,13.967,5.212c0,0-7.5.736-9.441,0-.754-.287-1.964-.614-3.264-1.124v32.191H263.437Zm0,47h20.156v33.4H263.437Zm0,47h20.156v33.4H263.437Zm0,47h20.156v33.4H263.437Zm-15.543,33.4H227.738v-33.4h20.156Zm0-47H227.738v-33.4h20.156Z" fill="#fff"/>
    <path id="Path_15" data-name="Path 15" d="M305.063,368.769V367.7a9.4,9.4,0,0,1-.7,1.067Z" fill="#fff"/>
    <path id="Path_16" data-name="Path 16" d="M204.485,385.568h12.338l-12.338,10.385V459.8H253.84V357.217l-9.852-12.666h-39.5Zm23.253-16.8h20.156v33.4H227.738Zm0,47h20.156v33.4H227.738Z" fill="#fff"/>
    <path id="Path_17" data-name="Path 17" d="M367.348,453.579V389.163h-1.04l11.286-11.286v-33.1l.168-.231h-72.7v13.475a6.421,6.421,0,0,1,.664,1.065c1.47,3.019.578,6.419-.664,8.611v1.067H319.3v33.4H305.063v13.6H319.3v33.4H305.063v13.6H319.3v.478h58.294v-9.668ZM355,450.324H334.842v-33.4H355Zm0-47H334.842v-33.4H355Z" fill="#fff"/>
    <path id="Path_18" data-name="Path 18" d="M366.308,389.163h1.04v64.416h10.246v-75.7Z" fill="#fff"/>
    <path id="Path_19" data-name="Path 19" d="M216.823,385.568H204.485v10.385Z" fill="#fff"/>
    <path id="Path_20" data-name="Path 20" d="M314.624,323.044c-32.035-.024-62.131-.014-64.317.107-2.378.13-13.705,5.415-24.5,10.7h9.86l8.323,10.7h61.075v-11.94Z" fill="#c5c4c4"/>
    <path id="Path_21" data-name="Path 21" d="M393.39,323.151l-11.369-.021,6.421,6.8Z" fill="#c5c4c4"/>
    <path id="Path_22" data-name="Path 22" d="M225.8,333.85c-10.932,5.35-21.32,10.7-21.32,10.7h39.5l-8.323-10.7Z" fill="#c5c4c4"/>
    <path id="Path_23" data-name="Path 23" d="M388.442,329.926l-6.421-6.8c-14.795-.025-41.712-.066-67.4-.086l-9.561,9.567v11.94h72.7Z" fill="#c5c4c4"/>
    <path id="Path_24" data-name="Path 24" d="M390.98,332.611v41.052h2.49V323.151l-4.9,6.911Z" fill="#787676"/>
    <rect id="Rectangle_8" data-name="Rectangle 8" width="9" height="122.304" transform="translate(378.485 463.247)" fill="#787676"/>
    <path id="Path_25" data-name="Path 25" d="M393.47,323.041l-.08.11h.08Z" fill="#787676"/>
    <path id="Path_26" data-name="Path 26" d="M390.98,435.472l2.49-1.15V373.663h-2.49Z" fill="#787676"/>
    <path id="Path_27" data-name="Path 27" d="M378.485,344.551v32.435l3.323-3.323h9.172V332.611l-2.409-2.549L378.3,344.551Z" fill="#787676"/>
    <rect id="Rectangle_9" data-name="Rectangle 9" width="9" height="9.668" transform="translate(378.485 453.579)" fill="#787676"/>
    <path id="Path_28" data-name="Path 28" d="M387.485,437.087h0v-.536h1.16l2.334-1.078v-61.81h-9.172l-3.323,3.323v76.593h9Z" fill="#787676"/>
    <rect id="Rectangle_10" data-name="Rectangle 10" width="0.891" height="122.304" transform="translate(377.594 463.247)" fill="#787676"/>
    <rect id="Rectangle_11" data-name="Rectangle 11" width="0.891" height="9.668" transform="translate(377.594 453.579)" fill="#787676"/>
    <path id="Path_29" data-name="Path 29" d="M378.485,344.551h-.723l-.169.231v33.1l.891-.891Z" fill="#787676"/>
    <path id="Path_30" data-name="Path 30" d="M377.594,377.877v75.7h.891V376.986Z" fill="#787676"/>
    <path id="Path_31" data-name="Path 31" d="M388.571,330.062l4.9-6.911h-.08l-4.948,6.775Z" fill="#787676"/>
    <path id="Path_32" data-name="Path 32" d="M388.571,330.062l-.129-.136-10.68,14.625h.538Z" fill="#787676"/>
    <path id="Path_33" data-name="Path 33" d="M453.276,453.579H393.47V585.551h15.513V553.769h20.156v28.7a57.733,57.733,0,0,0,11.3-5.242V553.769h20.156v2.979a57.711,57.711,0,0,0,7.892-29.2V437.087H453.276Zm-46.293,33.589v-33.4h20.156v33.4Zm22.156,50H408.983v-33.4h20.156Zm31.454,0H440.437v-33.4h20.156Zm-2-50H438.437v-33.4h20.156Z" fill="#fff"/>
    <rect id="Rectangle_12" data-name="Rectangle 12" width="59.806" height="16.492" transform="translate(393.47 437.087)" fill="#fff"/>
    <path id="Path_34" data-name="Path 34" d="M390.98,453.579v9.668h-3.495v122.3h5.985V453.579Z" fill="#fff"/>
    <rect id="Rectangle_13" data-name="Rectangle 13" width="2.49" height="16.492" transform="translate(390.98 437.087)" fill="#fff"/>
    <rect id="Rectangle_14" data-name="Rectangle 14" width="3.495" height="9.668" transform="translate(387.485 453.579)" fill="#fff"/>
    <rect id="Rectangle_15" data-name="Rectangle 15" width="3.495" height="16.492" transform="translate(387.485 437.087)" fill="#fff"/>
    <path id="Path_35" data-name="Path 35" d="M387.485,436.551v.536l1.16-.536Z" fill="#fff"/>
    <path id="Path_36" data-name="Path 36" d="M453.276,436.551h15.209V399.67L453.276,406.7Z" fill="#c5c4c4"/>
    <path id="Path_37" data-name="Path 37" d="M393.47,436.551h59.806V406.7L393.47,434.322Z" fill="#c5c4c4"/>
    <path id="Path_38" data-name="Path 38" d="M393.47,436.551v-2.229l-2.49,1.15v1.078Z" fill="#c5c4c4"/>
    <path id="Path_39" data-name="Path 39" d="M387.485,437.087h0Z" fill="#c5c4c4"/>
    <path id="Path_40" data-name="Path 40" d="M390.98,436.551v-1.078l-2.334,1.078Z" fill="#c5c4c4"/>
    <rect id="Rectangle_16" data-name="Rectangle 16" width="15.209" height="0.536" transform="translate(453.276 436.551)" fill="#c5c4c4"/>
    <rect id="Rectangle_17" data-name="Rectangle 17" width="59.806" height="0.536" transform="translate(393.47 436.551)" fill="#c5c4c4"/>
    <rect id="Rectangle_18" data-name="Rectangle 18" width="2.49" height="0.536" transform="translate(390.98 436.551)" fill="#c5c4c4"/>
    <path id="Path_41" data-name="Path 41" d="M388.645,436.551l-1.16.536h3.495v-.536Z" fill="#c5c4c4"/>
    <path id="Path_42" data-name="Path 42" d="M186.485,459.8V585.525c.334.006.665.026,1,.026h16.987V459.8Z" fill="#787676"/>
    <path id="Path_43" data-name="Path 43" d="M186.485,411.2v48.6h17.987V396.383Z" fill="#787676"/>
    <rect id="Rectangle_19" data-name="Rectangle 19" height="125.725" transform="translate(186.485 459.801)" fill="#787676"/>
    <rect id="Rectangle_20" data-name="Rectangle 20" height="48.601" transform="translate(186.485 411.2)" fill="#787676"/>
    <rect id="Rectangle_21" data-name="Rectangle 21" width="20.156" height="33.399" transform="translate(227.738 368.769)" fill="#c5c4c4"/>
    <rect id="Rectangle_22" data-name="Rectangle 22" width="20.156" height="33.399" transform="translate(227.738 415.769)" fill="#c5c4c4"/>
    <rect id="Rectangle_23" data-name="Rectangle 23" width="20.156" height="33.399" transform="translate(227.738 462.769)" fill="#c5c4c4"/>
    <rect id="Rectangle_24" data-name="Rectangle 24" width="20.156" height="33.399" transform="translate(227.738 509.769)" fill="#c5c4c4"/>
    <rect id="Rectangle_25" data-name="Rectangle 25" width="20.156" height="33.399" transform="translate(406.983 453.769)" fill="#c5c4c4"/>
    <rect id="Rectangle_26" data-name="Rectangle 26" width="20.156" height="33.399" transform="translate(408.983 503.769)" fill="#c5c4c4"/>
    <path id="Path_44" data-name="Path 44" d="M408.983,553.769v31.782h1.5a57.884,57.884,0,0,0,18.654-3.084v-28.7Z" fill="#c5c4c4"/>
    <path id="Path_45" data-name="Path 45" d="M283.593,369.977a14.85,14.85,0,0,1-2.457-1.208h-17.7v33.4h20.156Z" fill="#c5c4c4"/>
    <rect id="Rectangle_27" data-name="Rectangle 27" width="20.156" height="33.399" transform="translate(263.437 415.769)" fill="#c5c4c4"/>
    <rect id="Rectangle_28" data-name="Rectangle 28" width="20.156" height="33.399" transform="translate(263.437 462.769)" fill="#c5c4c4"/>
    <rect id="Rectangle_29" data-name="Rectangle 29" width="20.156" height="33.399" transform="translate(263.437 509.769)" fill="#c5c4c4"/>
    <rect id="Rectangle_30" data-name="Rectangle 30" width="10.108" height="2.367" transform="translate(129.485 459.801)" fill="#c5c4c4"/>
    <rect id="Rectangle_31" data-name="Rectangle 31" width="0.282" height="31.032" transform="translate(129.203 428.769)" fill="#c5c4c4"/>
    <rect id="Rectangle_32" data-name="Rectangle 32" width="10.108" height="31.032" transform="translate(129.485 428.769)" fill="#c5c4c4"/>
    <rect id="Rectangle_33" data-name="Rectangle 33" width="10.108" height="33.399" transform="translate(129.485 479.769)" fill="#c5c4c4"/>
    <path id="Path_46" data-name="Path 46" d="M129.578,530.769a57.672,57.672,0,0,0,10.015,29.495V530.769Z" fill="#c5c4c4"/>
    <rect id="Rectangle_34" data-name="Rectangle 34" width="20.156" height="33.399" transform="translate(438.437 453.769)" fill="#c5c4c4"/>
    <rect id="Rectangle_35" data-name="Rectangle 35" width="20.156" height="33.399" transform="translate(440.437 503.769)" fill="#c5c4c4"/>
    <path id="Path_47" data-name="Path 47" d="M440.437,553.769v23.456a58.273,58.273,0,0,0,20.156-20.477v-2.979Z" fill="#c5c4c4"/>
    <path id="Path_48" data-name="Path 48" d="M304.359,368.769c-.067.087-.134.176-.2.255a23.5,23.5,0,0,1-5.015,5.018v28.126h5.919v-33.4Z" fill="#c5c4c4"/>
    <path id="Path_49" data-name="Path 49" d="M300.043,368.769h-.9V370.3a4.288,4.288,0,0,0,.357-.563C299.631,369.471,299.822,369.141,300.043,368.769Z" fill="#c5c4c4"/>
    <rect id="Rectangle_36" data-name="Rectangle 36" width="14.237" height="33.399" transform="translate(305.063 368.769)" fill="#c5c4c4"/>
    <rect id="Rectangle_37" data-name="Rectangle 37" width="5.919" height="33.399" transform="translate(299.144 415.769)" fill="#c5c4c4"/>
    <rect id="Rectangle_38" data-name="Rectangle 38" width="14.237" height="33.399" transform="translate(305.063 415.769)" fill="#c5c4c4"/>
    <path id="Path_50" data-name="Path 50" d="M305.063,462.769h-5.919v33.4H319.3V463.247H305.063Z" fill="#c5c4c4"/>
    <rect id="Rectangle_39" data-name="Rectangle 39" width="14.237" height="0.478" transform="translate(305.063 462.769)" fill="#c5c4c4"/>
    <rect id="Rectangle_40" data-name="Rectangle 40" width="20.156" height="33.399" transform="translate(299.144 509.769)" fill="#c5c4c4"/>
    <rect id="Rectangle_41" data-name="Rectangle 41" width="20.156" height="2.367" transform="translate(150.898 459.801)" fill="#c5c4c4"/>
    <rect id="Rectangle_42" data-name="Rectangle 42" width="20.156" height="31.032" transform="translate(150.898 428.769)" fill="#c5c4c4"/>
    <rect id="Rectangle_43" data-name="Rectangle 43" width="20.156" height="33.399" transform="translate(150.898 479.769)" fill="#c5c4c4"/>
    <rect id="Rectangle_44" data-name="Rectangle 44" width="20.156" height="33.399" transform="translate(150.898 530.769)" fill="#c5c4c4"/>
    <path id="Path_51" data-name="Path 51" d="M166.877,581.769q2.052.78,4.177,1.406v-1.406Z" fill="#c5c4c4"/>
    <rect id="Rectangle_45" data-name="Rectangle 45" width="20.156" height="33.399" transform="translate(334.842 369.925)" fill="#c5c4c4"/>
    <rect id="Rectangle_46" data-name="Rectangle 46" width="20.156" height="33.399" transform="translate(334.842 416.925)" fill="#c5c4c4"/>
    <rect id="Rectangle_47" data-name="Rectangle 47" width="20.156" height="33.399" transform="translate(334.842 463.925)" fill="#c5c4c4"/>
    <rect id="Rectangle_48" data-name="Rectangle 48" width="20.156" height="33.399" transform="translate(334.842 510.925)" fill="#c5c4c4"/>
    <path id="Path_52" data-name="Path 52" d="M288.1,541.486h-4.221v4.447H288.1v4.222h4.444v-4.222h4.222v-4.445l-4.222,0v-4.221H288.1Z" fill="#d6121c" stroke="#d6121c" stroke-miterlimit="10" stroke-width="3.42"/>
    <rect id="Rectangle_49" data-name="Rectangle 49" width="77.249" height="28" transform="translate(248.756 558.045)" fill="#c5c4c4"/>
    <path id="Path_53" data-name="Path 53" d="M283.593,369.977c1.3.51,2.51.837,3.264,1.124,1.941.736,9.441,0,9.441,0-5.477-.382-10.865-1.594-13.967-5.212s1.17-8.865,2.168-10.863,7.646-7.523,7.646-7.523c-8.082,2.255-10.4,5.972-12.3,8.213-1.615,1.878-3.436,6.179-1.659,9.916a7.623,7.623,0,0,0,2.95,3.137h2.457Z" fill="#1f725b"/>
    <path id="Path_54" data-name="Path 54" d="M283.593,368.769h-2.457a14.85,14.85,0,0,0,2.457,1.208Z" fill="#1f725b"/>
    <path id="Path_55" data-name="Path 55" d="M291.92,377.324a24.248,24.248,0,0,0,7.224-3.282V370.3C297.478,372.618,291.92,377.324,291.92,377.324Z" fill="#1f725b"/>
    <path id="Path_56" data-name="Path 56" d="M305.063,367.7v-9.676c-2.151-2.848-6.312-3.678-8.06-4.335-1.951-.733-9.442.082-9.442.082,5.485.323,10.885,1.49,14.016,5.083,2.71,3.113-.1,7.5-1.534,9.913h4.316A9.4,9.4,0,0,0,305.063,367.7Z" fill="#1f725b"/>
    <path id="Path_57" data-name="Path 57" d="M305.727,359.091a6.421,6.421,0,0,0-.664-1.065V367.7C306.3,365.51,307.2,362.11,305.727,359.091Z" fill="#1f725b"/>
    <path id="Path_58" data-name="Path 58" d="M304.159,369.024c.066-.079.133-.168.2-.255h-4.316c-.221.372-.412.7-.542.969a4.288,4.288,0,0,1-.357.563v3.741A23.5,23.5,0,0,0,304.159,369.024Z" fill="#1f725b"/>
    <path id="Path_59" data-name="Path 59" d="M292.07,365.7a2.957,2.957,0,1,0-3-2.913A2.956,2.956,0,0,0,292.07,365.7Z" fill="#1f725b"/>
  </g>
</svg>
