<svg xmlns="http://www.w3.org/2000/svg" width="339.364" height="340.045" viewBox="0 0 339.364 340.045"><g transform="translate(6014 -3644)"><path d="M0,0H250a0,0,0,0,1,0,0V253a0,0,0,0,1,0,0H61A61,61,0,0,1,0,192V0A0,0,0,0,1,0,0Z" transform="translate(-6014 3731)" fill="#fff"/><g transform="translate(-6143.121 3397.449)"><path d="M158.961,333.85V322.478h10.724V333.85H225.8c10.8-5.284,22.124-10.569,24.5-10.7,2.186-.121,32.282-.131,64.317-.107l9.489-9.493h2.366V299.475H337.2v14.076h35.766l9.052,9.579,11.369.021.08-.11v50.622H437.1v-6.849h10.724v14.719l6.307,7.63h-.85V406.7l15.209-7.025V304.551a58,58,0,0,0-58-58h-223a58,58,0,0,0-58,58v52.366L151.2,333.85Z" fill="#69b5ab"/><path d="M129.485,356.917l-.282.3v37.159l.282-.08Z" fill="#399d88"/><path d="M160.242,385.568h44.243V344.551h0s10.388-5.351,21.32-10.7h-56.12v9.365H158.961V333.85H151.2l-21.718,23.067V394.3Z" fill="#399d88"/><path d="M453.276,406.7V389.163h.85l-6.307-7.63v6.018H437.095V373.663H393.47v60.659Z" fill="#399d88"/><path d="M372.969,313.551H337.2v6.661H326.479v-6.661h-2.366l-9.489,9.493c25.685.02,52.6.061,67.4.086Z" fill="#399d88"/><rect width="10.724" height="11.372" transform="translate(158.961 322.478)" fill="#399d88"/><rect width="10.724" height="9.365" transform="translate(158.961 333.85)" fill="#399d88"/><rect width="10.724" height="14.076" transform="translate(326.479 299.475)" fill="#399d88"/><rect width="10.724" height="6.661" transform="translate(326.479 313.551)" fill="#399d88"/><path d="M447.819,381.533V366.814H437.095v6.849h4.218Z" fill="#399d88"/><path d="M447.819,387.551v-6.018l-6.506-7.87h-4.218v13.888Z" fill="#399d88"/><rect width="18.081" height="0.282" transform="matrix(0.009, -1, 1, 0.009, 129.121, 428.767)" fill="#fff"/><path d="M129.485,410.551V394.3l-.282.08v16.175Z" fill="#c5c4c4"/><path d="M186.485,411.1l18-15.151V385.568H160.242L129.485,394.3v16.256h57Z" fill="#c5c4c4"/><rect width="0.282" height="0.137" transform="translate(129.203 410.551)" fill="#c5c4c4"/><path d="M186.37,411.2l.115-.1v-.554h-57v.139Z" fill="#c5c4c4"/><path d="M305.063,368.769V367.7a9.4,9.4,0,0,1-.7,1.067Z" fill="#fff"/><path d="M382.021,323.13c-14.795-.025-41.712-.066-67.4-.086-32.035-.024-62.131-.014-64.317.107-2.378.13-13.705,5.415-24.5,10.7-10.932,5.35-21.32,10.7-21.32,10.7H377.762l10.68-14.626,4.948-6.774Z" fill="#c5c4c4"/><path d="M393.47,323.041l-.08.11h.08Z" fill="#787676"/><path d="M453.276,437.087H387.485V585.551h21.5V553.769h20.156v28.7a57.733,57.733,0,0,0,11.3-5.242V553.769h20.156v2.979a57.711,57.711,0,0,0,7.892-29.2V437.087Zm-46.293,50.081v-33.4h20.156v33.4Zm22.156,50H408.983v-33.4h20.156Zm9.3-50v-33.4h20.156v33.4Zm22.156,50H440.437v-33.4h20.156Z" fill="#fff"/><path d="M393.39,323.151l-4.948,6.774-10.68,14.626-.168.231V585.551h9.891V437.087h0l1.16-.536,2.335-1.079,2.49-1.15V323.151Z" fill="#787676"/><path d="M387.485,437.087h0Z" fill="#c5c4c4"/><path d="M453.276,406.7,393.47,434.322l-2.49,1.15-2.334,1.078-1.16.536h81V399.67Z" fill="#c5c4c4"/><rect width="20.156" height="33.399" transform="translate(227.738 368.769)" fill="#c5c4c4"/><rect width="20.156" height="33.399" transform="translate(227.738 415.769)" fill="#c5c4c4"/><rect width="20.156" height="33.399" transform="translate(227.738 462.769)" fill="#c5c4c4"/><rect width="20.156" height="33.399" transform="translate(227.738 509.769)" fill="#c5c4c4"/><rect width="20.156" height="33.399" transform="translate(406.983 453.769)" fill="#c5c4c4"/><rect width="20.156" height="33.399" transform="translate(408.983 503.769)" fill="#c5c4c4"/><path d="M408.983,553.769v31.782h1.5a57.884,57.884,0,0,0,18.654-3.084v-28.7Z" fill="#c5c4c4"/><path d="M283.593,369.977a14.85,14.85,0,0,1-2.457-1.208h-17.7v33.4h20.156Z" fill="#c5c4c4"/><rect width="20.156" height="33.399" transform="translate(263.437 415.769)" fill="#c5c4c4"/><rect width="20.156" height="33.399" transform="translate(263.437 462.769)" fill="#c5c4c4"/><rect width="20.156" height="33.399" transform="translate(263.437 509.769)" fill="#c5c4c4"/><rect width="0.282" height="31.032" transform="translate(129.203 428.769)" fill="#c5c4c4"/><path d="M129.485,428.769v33.4h10.108v-33.4Z" fill="#c5c4c4"/><rect width="10.108" height="33.399" transform="translate(129.485 479.769)" fill="#c5c4c4"/><path d="M129.578,530.769a57.672,57.672,0,0,0,10.015,29.495V530.769Z" fill="#c5c4c4"/><rect width="20.156" height="33.399" transform="translate(438.437 453.769)" fill="#c5c4c4"/><rect width="20.156" height="33.399" transform="translate(440.437 503.769)" fill="#c5c4c4"/><path d="M440.437,553.769v23.456a58.273,58.273,0,0,0,20.156-20.477v-2.979Z" fill="#c5c4c4"/><path d="M300.043,368.769h-.9V370.3a4.288,4.288,0,0,0,.357-.563C299.631,369.471,299.822,369.141,300.043,368.769Z" fill="#c5c4c4"/><path d="M305.063,368.769h-.7c-.067.087-.134.176-.2.255a23.5,23.5,0,0,1-5.015,5.018v28.126H319.3v-33.4Z" fill="#c5c4c4"/><path d="M305.063,415.769h-5.919v33.4H319.3v-33.4Z" fill="#c5c4c4"/><path d="M305.063,462.769h-5.919v33.4H319.3V463.247H305.063Z" fill="#c5c4c4"/><rect width="14.237" height="0.478" transform="translate(305.063 462.769)" fill="#c5c4c4"/><rect width="20.156" height="33.399" transform="translate(299.144 509.769)" fill="#c5c4c4"/><path d="M150.9,428.769v33.4h20.156v-33.4Z" fill="#c5c4c4"/><rect width="20.156" height="33.399" transform="translate(150.898 479.769)" fill="#c5c4c4"/><rect width="20.156" height="33.399" transform="translate(150.898 530.769)" fill="#c5c4c4"/><path d="M166.877,581.769q2.052.78,4.177,1.406v-1.406Z" fill="#c5c4c4"/><rect width="20.156" height="33.399" transform="translate(334.842 369.925)" fill="#c5c4c4"/><rect width="20.156" height="33.399" transform="translate(334.842 416.925)" fill="#c5c4c4"/><rect width="20.156" height="33.399" transform="translate(334.842 463.925)" fill="#c5c4c4"/><rect width="20.156" height="33.399" transform="translate(334.842 510.925)" fill="#c5c4c4"/><path d="M289.381,543.784H285.16v4.447h4.221v4.222h4.444v-4.222h4.222v-4.445l-4.222,0v-4.221h-4.444Z" fill="#d6121c" stroke="#d6121c" stroke-miterlimit="10" stroke-width="3.42"/><rect width="77.249" height="28" transform="translate(248.756 558.045)" fill="#c5c4c4"/><path d="M283.593,369.977c1.3.51,2.51.837,3.264,1.124,1.941.736,9.441,0,9.441,0-5.477-.382-10.865-1.594-13.967-5.212s1.17-8.865,2.168-10.863,7.646-7.523,7.646-7.523c-8.082,2.255-10.4,5.972-12.3,8.213-1.615,1.878-3.436,6.179-1.659,9.916a7.623,7.623,0,0,0,2.95,3.137h2.457Z" fill="#1f725b"/><path d="M283.593,368.769h-2.457a14.85,14.85,0,0,0,2.457,1.208Z" fill="#1f725b"/><path d="M291.92,377.324a24.248,24.248,0,0,0,7.224-3.282V370.3C297.478,372.618,291.92,377.324,291.92,377.324Z" fill="#1f725b"/><path d="M305.063,367.7v-9.676c-2.151-2.848-6.312-3.678-8.06-4.335-1.951-.733-9.442.082-9.442.082,5.485.323,10.885,1.49,14.016,5.083,2.71,3.113-.1,7.5-1.534,9.913h4.316A9.4,9.4,0,0,0,305.063,367.7Z" fill="#1f725b"/><path d="M305.727,359.091a6.421,6.421,0,0,0-.664-1.065V367.7C306.3,365.51,307.2,362.11,305.727,359.091Z" fill="#1f725b"/><path d="M304.159,369.024c.066-.079.133-.168.2-.255h-4.316c-.221.372-.412.7-.542.969a4.288,4.288,0,0,1-.357.563v3.741A23.5,23.5,0,0,0,304.159,369.024Z" fill="#1f725b"/><path d="M292.07,365.7a2.957,2.957,0,1,0-3-2.913A2.956,2.956,0,0,0,292.07,365.7Z" fill="#1f725b"/><path d="M186.485,410.551l18-14.6V586.6H186.319Z" fill="#787676"/></g></g></svg>