<svg xmlns="http://www.w3.org/2000/svg" width="607" height="624" viewBox="0 0 607 624">
  <g id="finished" transform="translate(-709 -157)">
    <g id="background">
      <g id="Rectangle_126" data-name="Rectangle 126" transform="translate(727 179)" fill="#e24841" stroke="#707070" stroke-width="1">
        <rect width="589" height="602" rx="107" stroke="none"/>
        <rect x="0.5" y="0.5" width="588" height="601" rx="106.5" fill="none"/>
      </g>
      <g id="Rectangle_125" data-name="Rectangle 125" transform="translate(709 157)" fill="#fff" stroke="#707070" stroke-width="1">
        <rect width="589" height="602" rx="107" stroke="none"/>
        <rect x="0.5" y="0.5" width="588" height="601" rx="106.5" fill="none"/>
      </g>
      <text id="Het_is_gelukt_" data-name="Het is gelukt!" transform="translate(780 186)" fill="#00b2a1" font-size="100" font-family="Laca-Bold, Laca" font-weight="700"><tspan x="95.95" y="93">Het is </tspan><tspan x="68.6" y="211">gelukt!</tspan></text>
      <text id="speel_opnieuw" data-name="speel opnieuw" transform="translate(1004 511)" fill="#307d7e" font-size="60" font-family="Laca-Medium, Laca" font-weight="500"><tspan x="-179.94" y="0">speel opnieuw</tspan></text>
    </g>
    <g id="knop" transform="translate(-103)">
      <ellipse id="Ellipse_255" data-name="Ellipse 255" cx="80" cy="76.5" rx="80" ry="76.5" transform="translate(924 566)" fill="#1b9a82"/>
      <g id="Group_805" data-name="Group 805" transform="translate(964.468 602.76)">
        <path id="Path_2213" data-name="Path 2213" d="M586.59-461.146l-28.867-14.319,6.527-4.355a22.858,22.858,0,0,0-6.773-3.555,26.3,26.3,0,0,0-34.091,18.319,26.274,26.274,0,0,0,20.332,32.423,26.425,26.425,0,0,0,29.241-15.1,10.632,10.632,0,0,1,1.511-2.635,6.422,6.422,0,0,1,8.249-1.316,6.442,6.442,0,0,1,2.733,7.9,37.645,37.645,0,0,1-9.3,13.768,38.432,38.432,0,0,1-20.064,10.287,38.381,38.381,0,0,1-31.441-7.691A37.882,37.882,0,0,1,509.883-452.8a38.241,38.241,0,0,1,9.013-31.171,37.676,37.676,0,0,1,24.17-13.426c12.229-1.741,23.034,1.632,32.328,9.786.051.044.111.078.286.2l8.886-5.872C585.246-482.494,585.913-471.89,586.59-461.146Z" transform="translate(-509.444 497.841)" fill="#fff"/>
      </g>
    </g>
    <g id="stopknop" transform="translate(99)">
      <ellipse id="Ellipse_255-2" data-name="Ellipse 255" cx="80" cy="76.5" rx="80" ry="76.5" transform="translate(924 566)" fill="#e24841"/>
      <g id="Group_806" data-name="Group 806">
        <line id="Line_7" data-name="Line 7" x2="60" y2="60" transform="translate(974.5 612.5)" fill="none" stroke="#fff" stroke-linecap="round" stroke-width="15"/>
        <line id="Line_8" data-name="Line 8" x2="60" y2="60" transform="translate(1034.5 612.5) rotate(90)" fill="none" stroke="#fff" stroke-linecap="round" stroke-width="15"/>
      </g>
    </g>
  </g>
</svg>
