<svg xmlns="http://www.w3.org/2000/svg" width="465.263" height="300.025" viewBox="0 0 465.263 300.025"><g transform="translate(-1161.71 -81.531)"><g transform="translate(1161.71 81.531)"><ellipse cx="100.495" cy="111.769" rx="100.495" ry="111.769" transform="translate(0 215.551) rotate(-67.795)" fill="#fff"/><ellipse cx="100.495" cy="111.769" rx="100.495" ry="111.769" transform="translate(118.583 186.076) rotate(-67.795)" fill="#fff"/><path d="M989.676,198.2c-7.516,18.448-39,19.359-75.385,10.59-64.852-15.658-145.02-62.176-131.583-95.086,20.953-51.358,84.325-74.133,141.433-50.788C981.306,86.206,1010.629,146.788,989.676,198.2Z" transform="translate(-531.182 59.722)" fill="#fff"/><path d="M1008.628,153.452l-123.782-3.075L761.12,148.213,823.011,65.54l111.883,23Z" transform="translate(-625.518 115.063)" fill="#fff"/></g><text transform="translate(1322 201)" fill="#f17343" font-size="19" font-family="Laca-Bold, Laca" font-weight="700"><tspan x="0" y="0">kinderafdeling</tspan></text><text transform="translate(1256 260)" fill="#f17343" font-size="36" font-family="Laca-Bold, Laca" font-weight="700"><tspan x="0" y="0">lachen</tspan></text><text transform="translate(1399 267)" fill="#f17343" font-size="40" font-family="Laca-Bold, Laca" font-weight="700"><tspan x="0" y="0">opbeuren</tspan></text><text transform="translate(1288 315)" fill="#f17343" font-size="39" font-family="Laca-Bold, Laca" font-weight="700"><tspan x="0" y="0">amuseren</tspan></text></g></svg>