<svg xmlns="http://www.w3.org/2000/svg" width="223.84" height="403.761" viewBox="0 0 223.84 403.761"><g transform="translate(0.022 0.004)"><path d="M52.54,252.81s2.721,10.35,11.94,13.039l1.142-5.8Z" transform="translate(3.522 16.942)" fill="#ee7358" stroke="#e84436" stroke-linecap="round" stroke-linejoin="round" stroke-miterlimit="10" stroke-width="2"/><path d="M56.98,252.853s1.419,23.4,4.663,31.349,16.539-24.05,16.539-24.05S60.256,249.95,56.98,252.853Z" transform="translate(3.82 16.91)" fill="#f3c8bb" stroke="#c69191" stroke-miterlimit="10" stroke-width="2"/><ellipse cx="7.16" cy="7.544" rx="7.16" ry="7.544" transform="translate(53.555 116.657)" fill="#ee7358"/><ellipse cx="7.16" cy="7.544" rx="7.16" ry="7.544" transform="translate(139.556 116.102)" fill="#ee7358"/><path d="M72.83,302.21s15.8,4.417,26.4,5.89" transform="translate(4.882 20.252)" fill="#497ea9" stroke="#497ea9" stroke-linejoin="round" stroke-miterlimit="10" stroke-width="5.113"/><path d="M86.536,347.785c-1.686-.587-5.026.107-5.026.107l.16,17.328s3.66.982,4.5-.544C86.834,363.459,86.536,347.785,86.536,347.785Z" transform="translate(5.464 23.29)" fill="#f3c8bb" stroke="#c69191" stroke-miterlimit="10" stroke-width="1.563"/><path d="M103.58,308.061s20.273,1.216,25.95-.811" transform="translate(6.943 20.59)" fill="#497ea9" stroke="#497ea9" stroke-miterlimit="10" stroke-width="3.954"/><path d="M96.62,161.708s2.806,1.12,8.291-.128" transform="translate(6.476 10.828)" fill="#c69191" stroke="#c69191" stroke-miterlimit="10" stroke-width="2.636"/><g transform="translate(64.989 386.927)"><g transform="translate(0)"><path d="M90.936,372.03c.224,1.654.5,3.724.5,3.724-13.231,3.788-29.674.512-30.2,0s-.277-3.724-.277-3.724,10.3,2.817,19.889,2.337A24.676,24.676,0,0,0,90.936,372.03Z" transform="translate(-60.906 -361.997)" fill="#ee7358"/><path d="M89.773,372.626a24.676,24.676,0,0,1-10.083,2.337v-.011a14.407,14.407,0,0,0-1.43-6.306c1.771.694,1.59-1.227,1.59-1.227v-.011a.963.963,0,0,0,.587.2c.437-.075.5-.437.437-.779a1.212,1.212,0,0,0-.064-.267c.672.235,1.472-.267,1.152-.928a4.463,4.463,0,0,0-2.529-1.889l-.064-.139.982-.47c2.572,1.867,6.882,0,6.882,0a25.053,25.053,0,0,1,2.55,9.486Z" transform="translate(-59.743 -362.592)" fill="#ee7358"/><path d="M81.979,365.607c.32.662-.48,1.163-1.152.928a1.743,1.743,0,0,0-.512-.758,11.647,11.647,0,0,0-2.294-1.558h.021l1.344-.64.064.139A4.463,4.463,0,0,1,81.979,365.607Z" transform="translate(-59.759 -362.563)" fill="#fff"/><path d="M81.092,366.762c.064.341,0,.7-.437.779a.963.963,0,0,1-.587-.2c-1.131-.651-3.126-2.774-5.058-3l3.212-.16a11.647,11.647,0,0,1,2.294,1.558,1.743,1.743,0,0,1,.512.758A1.212,1.212,0,0,1,81.092,366.762Z" transform="translate(-59.961 -362.523)" fill="#fff"/><path d="M80.068,367.339s.181,1.921-1.59,1.227a3.356,3.356,0,0,0-.523-.758,26.538,26.538,0,0,0-2.945-3.478c1.931.224,3.927,2.347,5.058,3.009Z" transform="translate(-59.961 -362.513)" fill="#ee7358"/><path d="M80.849,374.986V375c-9.592.48-19.889-2.337-19.889-2.337s2.166-9.23,9.592-9.945a15.487,15.487,0,0,1,2.3-.075h.053c.085.011.171.011.256.021a6.05,6.05,0,0,1,2.785,1.782,26.535,26.535,0,0,1,2.945,3.478,3.358,3.358,0,0,1,.523.758A14.406,14.406,0,0,1,80.849,374.986Z" transform="translate(-60.902 -362.627)" fill="#ee7358"/><path d="M78.4,364.282l-3.212.16A6.05,6.05,0,0,0,72.4,362.66,14.24,14.24,0,0,1,78.4,364.282Z" transform="translate(-60.136 -362.625)" fill="#fff"/></g><path d="M72.16,362.64c.085.011.171.011.256.021a14.24,14.24,0,0,1,6,1.622,11.647,11.647,0,0,1,2.294,1.558,1.743,1.743,0,0,1,.512.758,1.212,1.212,0,0,1,.064.267c.064.341,0,.7-.437.779a.963.963,0,0,1-.587-.2c-1.131-.651-3.126-2.774-5.058-3" transform="translate(-60.152 -362.626)" fill="none" stroke="#e84436" stroke-linecap="round" stroke-linejoin="round" stroke-miterlimit="10" stroke-width="1.5"/><path d="M79.185,364.284l1.344-.64.982-.47c2.572,1.867,6.882,0,6.882,0a25.053,25.053,0,0,1,2.55,9.486h-.011A24.676,24.676,0,0,1,80.849,375c-9.592.48-19.889-2.337-19.889-2.337s2.166-9.23,9.592-9.945a15.487,15.487,0,0,1,2.3-.075" transform="translate(-60.902 -362.627)" fill="none" stroke="#e84436" stroke-linecap="round" stroke-linejoin="round" stroke-miterlimit="10" stroke-width="1.5"/><path d="M75.01,364.34l3.212-.16h.021" transform="translate(-59.961 -362.523)" fill="none" stroke="#e84436" stroke-linecap="round" stroke-linejoin="round" stroke-miterlimit="10" stroke-width="1.5"/><path d="M72.11,362.64h.053a2.076,2.076,0,0,1,.256.021,6.05,6.05,0,0,1,2.785,1.782,26.537,26.537,0,0,1,2.945,3.478,3.357,3.357,0,0,1,.523.758,14.406,14.406,0,0,1,1.43,6.306" transform="translate(-60.155 -362.626)" fill="none" stroke="#e84436" stroke-linecap="round" stroke-linejoin="round" stroke-miterlimit="10" stroke-width="1.5"/><path d="M60.964,372.157s-.245,3.2.277,3.724,16.965,3.788,30.2,0c0,0-.277-2.07-.5-3.724-.139-1.1-.256-2.006-.267-2.017" transform="translate(-60.906 -362.123)" fill="none" stroke="#e84436" stroke-linecap="round" stroke-linejoin="round" stroke-miterlimit="10" stroke-width="1.5"/><path d="M79.85,367.15s.181,1.921-1.59,1.227" transform="translate(-59.743 -362.324)" fill="none" stroke="#e84436" stroke-linecap="round" stroke-linejoin="round" stroke-miterlimit="10" stroke-width="1.5"/><path d="M79.36,363.71a4.463,4.463,0,0,1,2.529,1.889c.32.662-.48,1.163-1.152.928" transform="translate(-59.669 -362.554)" fill="none" stroke="#e84436" stroke-linecap="round" stroke-linejoin="round" stroke-miterlimit="10" stroke-width="1.5"/></g><g transform="translate(120.723 219.805)"><path d="M120.054,212.861l-.331,3.468-6.583.512c.032-1.814.064-3.628.107-5.42s.085-3.607.149-5.42h4.065c-.117,1.142-.235,2.283-.341,3.414s-.192,2.283-.235,3.446c.245.011.491.011.726.011h.726c.288,0,.576,0,.864-.011Z" transform="translate(-113.14 -206)" fill="#fff"/></g><g transform="translate(143.918 36.929)"><path d="M134.9,34.887a17.44,17.44,0,0,0,5.623,7.3,22.518,22.518,0,0,0,4.492,2.678,19.536,19.536,0,0,0,2.155.832q.56.176,1.12.32.352.1.7.16,1.056.256-.64-.416c-.331-.277-.662-.566-.992-.843.437.683.032,2.326.064,3.137a14.174,14.174,0,0,0,.491,3.2,13.057,13.057,0,0,0,2.689,5.1,15.654,15.654,0,0,0,10.745,5.4c.928.043-.032-.886-.288-1.088a5.132,5.132,0,0,0-2.678-1.184c-2.945-.139-4.834-2.049-6.018-4.674a13.538,13.538,0,0,1-1.11-4.289,16.985,16.985,0,0,1-.011-2.657,2.356,2.356,0,0,0-.267-1.611c-1.515-2.379-5.1-2.07-7.309-3.446a13.185,13.185,0,0,1-4.994-6.263c-.309-.779-1.387-1.3-2.113-1.611-.16-.064-1.91-.662-1.665-.043Z" transform="translate(-134.878 -34.609)" fill="#eacf83"/></g><g transform="translate(137.803 14.096)"><path d="M129.15,14.33V15.9a1.06,1.06,0,0,0,.224.555,1.621,1.621,0,0,0,.459.512,2.3,2.3,0,0,0,.7.395,2.739,2.739,0,0,0,.811.245l.523.032a1.926,1.926,0,0,0,.875-.213l.3-.235a.865.865,0,0,0,.224-.672V14.949a1.06,1.06,0,0,0-.224-.555,1.621,1.621,0,0,0-.459-.512,2.3,2.3,0,0,0-.7-.395,2.739,2.739,0,0,0-.811-.245l-.523-.032a1.926,1.926,0,0,0-.875.213l-.3.235a.852.852,0,0,0-.224.672Z" transform="translate(-129.147 -13.21)" fill="#eacf83"/></g><g transform="translate(167.82 74.002)"><path d="M157.728,77.961a18.152,18.152,0,0,0,2.3,13.4,33.146,33.146,0,0,0,4.1,5.5c1.323,1.462,2.881,3.574,4.951,3.916,4.834.79,8.44-3.8,9.891-7.843a4.93,4.93,0,0,0-1.323-5.644,14.427,14.427,0,0,1-3.542-6.018,25.4,25.4,0,0,1-.9-8.12c.021-.6.373-1.2.405-1.739.032-.064.075-.117.107-.181-.854.107-1.088.192-.683.277,0,.011.662.384.694.405a2.29,2.29,0,0,1,.235,2.881c-.555.768.555.907,1.088.875a3.931,3.931,0,0,0,2.689-1.184,3.19,3.19,0,0,0-.48-4.471c-1.611-1.163-4.1-.6-5.7.267-1.953,1.046-2.433,2.625-2.411,4.738a27.738,27.738,0,0,0,.9,7.554,15.214,15.214,0,0,0,3.212,5.762c.779.875,1.729,1.59,1.974,2.806a5.771,5.771,0,0,1-.662,3.436,17.446,17.446,0,0,1-1.782,3.009,7.711,7.711,0,0,1-.587.736c-.085.1-.8.555-.384.459.363-.085-.256-.128-.341-.181a5.826,5.826,0,0,1-.918-.7,36.871,36.871,0,0,1-4.791-5.282c-3.3-4.407-5.367-9.977-4.012-15.482.3-1.142-3.735-.384-4.033.832Z" transform="translate(-157.279 -69.354)" fill="#eacf83"/></g><g transform="translate(161.667 28.717)"><path d="M151.841,29.311c1.963,2.806,4.119,5.548,5.879,8.483,1.43,2.379,1.216,5.154,2.358,7.618a6.623,6.623,0,0,0,2.7,3c1.174.662,2.113.768,2.657,2.091a29.726,29.726,0,0,1,1.238,4.588l1.312,5.442c.491,2.049,4.407,2.273,3.777-.32l-1.312-5.442a30.984,30.984,0,0,0-1.238-4.588,7.583,7.583,0,0,0-2.668-3.489c-.95-.651-2.315-.79-2.838-1.91a16.466,16.466,0,0,1-.822-3.51,14.62,14.62,0,0,0-1.611-4.279c-1.761-3.105-4.065-5.965-6.114-8.888a2.549,2.549,0,0,0-2.774-1.078,1.458,1.458,0,0,0-.544,2.283Z" transform="translate(-151.513 -26.913)" fill="#eacf83"/></g><g transform="translate(5.323 51.179)"><path d="M13.942,48.685A43.36,43.36,0,0,0,4.99,74.667c-.107,10.009,2.892,19.782,6.551,28.991a2.389,2.389,0,0,0,2.571,1.536c.939-.149,1.921-1.11,1.5-2.145C12.128,94.279,9.2,85.038,9.194,75.51a40.207,40.207,0,0,1,8.344-24.627c1.526-1.963-2.166-4.055-3.6-2.2Z" transform="translate(-4.987 -47.964)" fill="#eacf83"/></g><g transform="translate(17.32 15.61)"><path d="M18.759,48.881a70.853,70.853,0,0,0,9.5-8.376,32.973,32.973,0,0,0,6.029-10.6,20.961,20.961,0,0,1,6.53-9.283,18.4,18.4,0,0,1,10.35-3.532,4.8,4.8,0,0,0,2.39-1.142c.128-.1,1.44-1.344.918-1.323A28.007,28.007,0,0,0,33.281,26.741c-2.582,3.873-3.382,8.568-6.039,12.4s-6.338,6.722-9.966,9.55c-.245.192-1.43.992-.918,1.323.48.3,2.113-.907,2.4-1.131Z" transform="translate(-16.231 -14.63)" fill="#eacf83"/></g><g transform="translate(24.456 8.836)"><path d="M26.057,42.5c6.861-4.8,7.682-13.37,12.4-19.74A9.612,9.612,0,0,1,42.5,19.3c2.369-.907,5.111-.843,7.608-1.088a28.9,28.9,0,0,0,8.045-1.889c2.55-1.024,4.919-2.422,7.373-3.649C71.405,9.742,78.031,10.2,84.4,10.627a4.8,4.8,0,0,0,2.785-.907c.3-.2,1.3-1.078.352-1.142C81.414,8.173,75.2,7.9,69.26,9.731c-5.474,1.7-10.041,5.666-15.824,6.338-5.612.662-11.193.822-15.824,4.524-3.2,2.561-5.015,6.37-6.637,10.041-1.8,4.076-3.532,8.952-7.341,11.62-.469.331-1.142.843-.352,1.142.7.277,2.219-.512,2.774-.9Z" transform="translate(-22.919 -8.28)" fill="#eacf83"/></g><g transform="translate(52.27 9.281)"><path d="M52.992,17.247a48.241,48.241,0,0,0,8.942-3.276c2.678-1.3,5.282-3.126,8.312-3.51,1.11-.139-1.408-1.067-1.6-1.131a14.135,14.135,0,0,0-8.664.1,29.279,29.279,0,0,0-7.138,4.129c-.469.331,1.131.864,1.291.918a9.2,9.2,0,0,0,1.6.384c.256.032.79.16,1.014,0a36.523,36.523,0,0,1,5.7-3.542,13.934,13.934,0,0,1,3.116-1.056,10.352,10.352,0,0,1,1.622-.192,6.287,6.287,0,0,1,.9.021c.469.053-.416-.139.331.085-.534-.373-1.067-.747-1.6-1.131-3.126.405-5.719,2.091-8.493,3.457a47.215,47.215,0,0,1-9.23,3.414c-.534.139,1.227.9,1.291.918a4.732,4.732,0,0,0,2.614.416Z" transform="translate(-48.986 -8.697)" fill="#eacf83"/></g><g transform="translate(8.986 91.89)"><path d="M42.82,88.777a18.859,18.859,0,0,0-8.782,6.989,17.986,17.986,0,0,0-2.273,4.93c-.534,1.771-.928,3.937-2.625,4.994-1.44.9-3.372.854-5,.907-1.718.053-3.7.1-5.132-1.024-1.6-1.259-2.507-3.617-3.382-5.388a75.29,75.29,0,0,1-3-6.946c-.437-1.184-4.225-1.494-4.2.053.075,4.674,2.881,8.493,5.783,11.919s6.712,6.69,11.524,4.834c1.793-.694,3.244-2.465,5.111-2.9,1.046-.245,2.209.032,3.276-.107a6.544,6.544,0,0,0,2.828-1.014c3.084-2.049,3.35-6.231,4.844-9.315a15.446,15.446,0,0,1,10.478-8.376c.758-.16,1.44-.8.864-1.526-.608-.758-2.049-.768-2.892-.587a18.41,18.41,0,0,0-9.56,5.388,17.428,17.428,0,0,0-3.041,4.417c-.736,1.558-1.152,3.233-1.761,4.844-.491,1.291-1.142,2.966-2.411,3.692a4.388,4.388,0,0,1-2.294.224,9.069,9.069,0,0,0-3.158.5c-1.729.64-3.03,2.006-4.695,2.742-1.536.683-3.009-1.12-3.959-2.145-3.137-3.382-6.615-7.48-6.69-12.324-1.4.021-2.806.032-4.2.053a53.971,53.971,0,0,0,5.335,11.2c2.1,3.126,5.655,4.076,9.262,4.108,3.276.032,7.256.064,9.966-2.049,2.678-2.091,2.7-6.061,4.247-8.888a16.2,16.2,0,0,1,8.44-7.384c.864-.331.768-1.163.1-1.633a3.311,3.311,0,0,0-2.988-.192Z" transform="translate(-8.42 -86.119)" fill="#eacf83"/></g><g transform="translate(128.244 40.315)"><path d="M124.394,45.814c.363-.928.736-1.846,1.12-2.764a24.957,24.957,0,0,1,1.163-2.614c-.075.117-.139.245-.213.363a2.266,2.266,0,0,1,.341-.448c-.107.107-.224.2-.331.309.064-.053.139-.1.192-.149a1.012,1.012,0,0,1-.6.256.379.379,0,0,1,.107-.021c.171-.032.043-.011-.384.043.32,0-.587-.107-.267-.032.213.053.277.171-.213-.075a1.472,1.472,0,0,0,.213.085c-.032.021-.469-.288-.192-.1l.224.16c-.117-.1-.224-.2-.341-.3a2.087,2.087,0,0,1,.352.405l-.224-.352a2.954,2.954,0,0,1,.352.875c-.032-.128-.053-.267-.085-.395a5.815,5.815,0,0,1,.021,1.825,1.328,1.328,0,0,0,.64,1.056,2.633,2.633,0,0,0,1.515.427,2.606,2.606,0,0,0,1.5-.459,1.469,1.469,0,0,0,.608-1.067,5.2,5.2,0,0,0-.288-2.8,3.978,3.978,0,0,0-2.8-2.155,3.881,3.881,0,0,0-3.905,1.2,6.554,6.554,0,0,0-.758,1.43c-.2.459-.395.907-.587,1.366-.448,1.056-.886,2.113-1.3,3.18-.373.95.694,1.707,1.515,1.835.928.139,2.23-.1,2.614-1.088Z" transform="translate(-120.188 -37.783)" fill="#eacf83"/></g><g transform="translate(49.788 84.755)"><path d="M46.756,88.82A19.83,19.83,0,0,0,53.734,88,25.97,25.97,0,0,0,61.4,84.5,6.725,6.725,0,0,0,63.807,82.2a1.9,1.9,0,0,0-.843-2.39,3.9,3.9,0,0,0-3.276-.032,11.825,11.825,0,0,0-4.481,2.241c-.213.181.288.117.277.117a5.434,5.434,0,0,0,1.238-.331,7,7,0,0,0,2.39-1.11c.128-.117.267-.213.395-.32.7-.576-2.689.534-1.633.63a2.375,2.375,0,0,1,1.014.256,2.146,2.146,0,0,1,1.088,1.526c.181,1.419-1.739,2.529-2.753,3.18q-.4.256-.832.48c-.1.053-.192.1-.288.149-.053.032-.437.2-.224.107-.2.085-.245.085-.011.011s-.309.107-.064.021q-.416.128-.832.224a15.192,15.192,0,0,1-4.4.277,6.181,6.181,0,0,0-2.529.747,5.027,5.027,0,0,0-1.152.566c-.064.043-.395.256-.139.267Z" transform="translate(-46.66 -79.432)" fill="#eacf83"/></g><g transform="translate(165.253 75.95)"><path d="M161.058,78.158A2.859,2.859,0,0,0,164,78.116,2.208,2.208,0,0,0,164.921,76a3.788,3.788,0,0,0-1.515-2.443,12.369,12.369,0,0,0-2.934-1.793,6.415,6.415,0,0,0-1.974-.555,6.518,6.518,0,0,0-3.5.662c-.213.1-.117.224.021.395a4.582,4.582,0,0,0,1,.811,8.252,8.252,0,0,0,1.451.779c.139.053.267.107.405.16a1.479,1.479,0,0,0,.566.107,5.9,5.9,0,0,1,3.446-.64c.053.011.171.011.2.043-.064-.053-.181-.064-.021,0,.213.075-.032-.011-.107-.043a4.071,4.071,0,0,1-.608-.309,7.8,7.8,0,0,1-.694-.459c-.32-.235.139.075-.085-.075-.139-.1,0,0,.043.043a1.353,1.353,0,0,1,.117.139c.021.021.128.181.053.064l.1.16a1.89,1.89,0,0,1,.16.331,2.454,2.454,0,0,1,.192.779c0-.043-.011-.1-.011-.139a2.208,2.208,0,0,1-1.216,2.145,1.165,1.165,0,0,0,.117-.064,2.422,2.422,0,0,1-.651.2.807.807,0,0,1-.16.011c-.021,0-.181,0-.085.011.117.011-.075-.021-.075-.011-.064-.011-.053-.011.053.021a3.208,3.208,0,0,1,.341.117,2.173,2.173,0,0,0-.982-.267c-.235.064-.085.267.021.395a4.913,4.913,0,0,0,1,.811,11.973,11.973,0,0,0,1.462.768Z" transform="translate(-154.873 -71.18)" fill="#eacf83"/></g><g transform="translate(122.842 8.604)"><path d="M130.933,15.828c-3.991-4.183-9.3-8.664-15.525-7.608-.683.117.064,1.344.245,1.654a6.587,6.587,0,0,0,1,1.312c.181.181.587.64.864.587,5.6-.96,10.169,2.625,13.8,6.423.277.288,1.184,1.024,1.12.149a4.963,4.963,0,0,0-1.5-2.518Z" transform="translate(-115.125 -8.063)" fill="#eacf83"/></g><g transform="translate(96.983 6.014)"><path d="M93.579,9.4c5.869-1.024,11.694,1.27,17.339,2.539,6.135,1.387,12.335,1.088,18.577,1.014,2.678-.032,2.7-3.564,0-3.542-3.19.032-6.381.128-9.571.075a41.25,41.25,0,0,1-9.272-1.3c-6.007-1.472-11.961-3.308-18.2-2.209a1.8,1.8,0,0,0-1.494,2.177A2.242,2.242,0,0,0,93.579,9.4Z" transform="translate(-90.891 -5.636)" fill="#eacf83"/></g><path d="M119.572,348.775c-.758-.555-3.265,0-4.129.139a.549.549,0,0,0-.459.534l-.534,16.965a.562.562,0,0,0,.427.566c1.227.277,4.588.918,5.282-.32.6-1.088-.011-14.8-.117-17.36C120.031,349.042,119.785,348.935,119.572,348.775Z" transform="translate(7.671 23.356)" fill="#f3c8bb" stroke="#c69191" stroke-miterlimit="10" stroke-width="1.563"/><g transform="translate(118.312 387.435)"><g transform="translate(0 0)"><path d="M141.343,372.5s.245,3.212-.267,3.724-16.976,3.8-30.2,0c0,0,.267-2.07.491-3.724a24.639,24.639,0,0,0,10.083,2.347C131.047,375.328,141.343,372.5,141.343,372.5Z" transform="translate(-110.88 -362.473)" fill="#ee7358"/><path d="M131.1,363.185c7.426.715,9.582,9.945,9.582,9.945s-10.3,2.828-19.889,2.347v-.021a14.667,14.667,0,0,1,1.43-6.3,3.556,3.556,0,0,1,.533-.758,27.039,27.039,0,0,1,2.945-3.489,6.051,6.051,0,0,1,2.785-1.782c.085-.011.171-.011.256-.021h.043A19.175,19.175,0,0,1,131.1,363.185Z" transform="translate(-110.216 -363.103)" fill="#ee7358"/><path d="M125.708,364.8a27.041,27.041,0,0,0-2.945,3.489,3.556,3.556,0,0,0-.534.758c-1.771.694-1.579-1.238-1.579-1.238V367.8C121.781,367.147,123.777,365.024,125.708,364.8Z" transform="translate(-110.226 -362.989)" fill="#ee7358"/><path d="M111.34,373.078a25.722,25.722,0,0,1,2.732-9.614s5.538,1.206,6.829-.064l.939.576-.16.256a4.452,4.452,0,0,0-2.518,1.889c-.32.672.469,1.163,1.142.928a1.951,1.951,0,0,0-.064.267c-.053.352,0,.715.448.779a.963.963,0,0,0,.587-.2v.011s-.192,1.931,1.579,1.238a14.667,14.667,0,0,0-1.43,6.3v.021a24.638,24.638,0,0,1-10.083-2.347C111.34,373.1,111.34,373.089,111.34,373.078Z" transform="translate(-110.849 -363.083)" fill="#ee7358"/></g><path d="M119.745,366.955a1.95,1.95,0,0,0-.064.267c-.053.352,0,.715.448.779a.963.963,0,0,0,.587-.2c1.131-.651,3.126-2.774,5.058-3" transform="translate(-110.291 -362.989)" fill="none" stroke="#e84436" stroke-linecap="round" stroke-linejoin="round" stroke-miterlimit="10" stroke-width="1.5"/><path d="M122.524,364.66a11.715,11.715,0,0,0-2.262,1.547,1.743,1.743,0,0,0-.512.758" transform="translate(-110.286 -362.998)" fill="none" stroke="#e84436" stroke-linecap="round" stroke-linejoin="round" stroke-miterlimit="10" stroke-width="1.5"/><path d="M128.634,363.11c-.085.011-.171.011-.256.021a14.337,14.337,0,0,0-6.018,1.633" transform="translate(-110.111 -363.102)" fill="none" stroke="#e84436" stroke-linecap="round" stroke-linejoin="round" stroke-miterlimit="10" stroke-width="1.5"/><path d="M111.34,373.13a24.639,24.639,0,0,0,10.083,2.347c9.592.48,19.889-2.347,19.889-2.347s-2.155-9.23-9.582-9.945a19.2,19.2,0,0,0-2.315-.075" transform="translate(-110.849 -363.103)" fill="none" stroke="#e84436" stroke-linecap="round" stroke-linejoin="round" stroke-miterlimit="10" stroke-width="1.5"/><path d="M123.1,364.744h0l-1.259-.768-.939-.576c-1.291,1.27-6.829.064-6.829.064a25.721,25.721,0,0,0-2.732,9.614" transform="translate(-110.849 -363.083)" fill="none" stroke="#e84436" stroke-linecap="round" stroke-linejoin="round" stroke-miterlimit="10" stroke-width="1.5"/><path d="M128.782,363.11h-.043a2.076,2.076,0,0,0-.256.021,6.05,6.05,0,0,0-2.785,1.782,27.041,27.041,0,0,0-2.945,3.489,3.556,3.556,0,0,0-.534.758,14.667,14.667,0,0,0-1.43,6.3" transform="translate(-110.216 -363.102)" fill="none" stroke="#e84436" stroke-linecap="round" stroke-linejoin="round" stroke-miterlimit="10" stroke-width="1.5"/><path d="M141.343,372.626s.245,3.212-.267,3.724-16.976,3.8-30.2,0c0,0,.267-2.07.491-3.724v-.032c.139-1.078.256-1.974.267-1.974" transform="translate(-110.88 -362.599)" fill="none" stroke="#e84436" stroke-linecap="round" stroke-linejoin="round" stroke-miterlimit="10" stroke-width="1.5"/><path d="M120.65,367.62s-.192,1.931,1.579,1.238" transform="translate(-110.226 -362.8)" fill="none" stroke="#e84436" stroke-linecap="round" stroke-linejoin="round" stroke-miterlimit="10" stroke-width="1.5"/><path d="M121.193,364.18a4.452,4.452,0,0,0-2.518,1.889c-.32.672.469,1.163,1.142.928h.011" transform="translate(-110.363 -363.03)" fill="none" stroke="#e84436" stroke-linecap="round" stroke-linejoin="round" stroke-miterlimit="10" stroke-width="1.5"/></g><g transform="translate(170.254 170.058)"><path d="M209.261,181.947c2.379-.245,3.542,2.177,2.358,3.542-1.024,1.184-11.172,1.7-13.839,1.579s-8.515-1.739-12.505,1.28l-22.439,17.883c-3.574-3.233-2.347-11.076-3.276-12.591l16.912-14.362c1.622-1.174.651-5.228.651-5.228s-1.206-6.338-.192-7.224.171-4.076,1.739-4.364,3.607,2.646,3.585,3.671.64,4.119-.149,5.239c4.887,2.454,11.833-9.8,15.408-11.545s4.215,2.219,3.329,3.212c-.832.939-8.878,9.592-7.256,9.678s11.534-6.8,11.534-6.8c2.785-.939,3.169,2.646,2.1,3.639s-11.78,8.205-11.4,8.4,11.076-2.774,12.377-3.767,4.524,1.248,3.094,3.212c-1.152,1.611-9.72,4.289-12.825,5.218a.121.121,0,0,0,.053.235C201.184,182.64,207.415,182.139,209.261,181.947Z" transform="translate(-159.56 -159.377)" fill="#f3c8bb"/><path d="M167.61,202.829c-.032,1,15.162-14.01,17.126-14.49a48.885,48.885,0,0,1,12.505-1.28c2.678.117,12.826-.395,13.839-1.579,1.184-1.376.011-3.788-2.358-3.542-1.857.192-8.088.694-10.713.907a.121.121,0,0,1-.053-.235c3.105-.928,11.673-3.607,12.826-5.218,1.43-1.974-1.782-4.2-3.094-3.212s-11.993,3.948-12.377,3.767,10.329-7.416,11.4-8.4.672-4.577-2.1-3.639c0,0-9.913,6.893-11.534,6.8s6.434-8.739,7.256-9.678c.886-.992.245-4.962-3.329-3.212s-10.521,14-15.408,11.545" transform="translate(-159.021 -159.378)" fill="none" stroke="#c69191" stroke-linecap="round" stroke-linejoin="round" stroke-miterlimit="10" stroke-width="1.957"/><path d="M181.841,171.191c.779-1.12.117-4.2.149-5.239s-2.027-3.969-3.585-3.671-.715,3.457-1.739,4.364c-1.024.886.192,7.224.192,7.224s.971,4.055-.651,5.228c0,0-10.169,10.617-12.377,11.15" transform="translate(-159.274 -159.185)" fill="none" stroke="#c69191" stroke-linecap="round" stroke-linejoin="round" stroke-miterlimit="10" stroke-width="1.957"/><path d="M163.95,187.94" transform="translate(-159.266 -157.464)" fill="#f3c8bb"/></g><path d="M170.994,203.15c-2.817-3.756-7.394-13.668-8.525-16.336A2.929,2.929,0,0,0,159.364,185c-2.977.437-8.525,1.163-14.074,1.43-8.152.395-28.34-8.6-28.34-8.6s10,53.82,9.155,48.1,3.393-3.425,6.274-10.275c2.017-4.8,32.437.534,36.823-8.376C170.1,205.434,172.211,204.772,170.994,203.15Z" transform="translate(7.839 11.917)" fill="#ee7358"/><path d="M87.329,177.445s.107,8.013,5.89,9.934,14.927,6.039,18.363-2.177,5.89-12.783,7.544-11.865,3.692,9.987,1.8,12.313-16.24,14.682-24.018,9.283-15.973-8.942-13.839-14.17S87.329,177.445,87.329,177.445Z" transform="translate(5.545 11.608)" fill="#e84436"/><g transform="translate(2.236 31.178)"><path d="M175.048,96.13a12.021,12.021,0,0,1,3.98,10.339c-2.038,14.629-17.286,15.909-17.67,15.973a.919.919,0,0,1-.3.032.7.7,0,0,1-.149-.011c.064-.32.117-.64.171-.96.117-.267.235-.534.341-.8,2.913-.181,9.774-.79,14.682-11.684a7.934,7.934,0,0,0-.341-6.925,9.867,9.867,0,0,0-.95-1.9l-.1-.192c-1.7-3.393-5.73-3.8-5.794-3.8a.985.985,0,0,1-.3-.032c.107-.587.2-1.174.277-1.761A8.446,8.446,0,0,1,175.048,96.13Z" transform="translate(8.549 -24.853)" fill="#c69191"/><path d="M175.693,101.918a8.334,8.334,0,0,1,.48,3.98c-1.344,9.635-11.246,12.281-14.223,13.2,1.291-3.158,2.422-6.349,3.382-9.539q.112-.3.192-.608,1.056-3.377,1.761-6.658a3.208,3.208,0,0,0,.075-.341c.373-1.6.694-3.19.982-4.77,0-.021.011-.053.011-.075,1.3-.181,3.4-.224,4.8.992a8.25,8.25,0,0,1,1.59,1.921C175.042,100.6,175.384,101.235,175.693,101.918Z" transform="translate(8.618 -24.677)" fill="#f3c8bb"/><path d="M176.211,105.59a8.334,8.334,0,0,0-.48-3.98,7.934,7.934,0,0,1,.341,6.925c-4.908,10.894-11.769,11.5-14.682,11.684.213-.48.405-.95.6-1.43C164.964,117.871,174.866,115.225,176.211,105.59Z" transform="translate(8.581 -24.369)" fill="#f3c8bb"/><path d="M174.245,99.891l.1.192a8.249,8.249,0,0,0-1.59-1.921c-1.4-1.216-3.5-1.174-4.8-.992.075-.373.139-.747.2-1.11a.985.985,0,0,0,.3.032C168.516,96.092,172.549,96.5,174.245,99.891Z" transform="translate(9.02 -24.741)" fill="#f3c8bb"/><path d="M169.239,74.02a82.748,82.748,0,0,1-.64,21.756.446.446,0,0,1-.107.043c-.011.011-.011.011-.021.011-.341.021-.662.053-.939.1-.021.107-.043.2-.064.3a1.321,1.321,0,0,0-.6.918l-1.28-.224a81.328,81.328,0,0,0,.758-23.346,1.036,1.036,0,0,1-.011-.181,1.806,1.806,0,0,0,1.75,1.216A1.777,1.777,0,0,0,169.239,74.02Z" transform="translate(8.862 -26.26)" fill="#c69191"/><path d="M168.99,73.851a.564.564,0,0,0,.139-.011.561.561,0,0,1-.117.149A.34.34,0,0,0,168.99,73.851Z" transform="translate(9.09 -26.23)" fill="#936037"/><path d="M168.417,94.37a.064.064,0,0,1-.011.043h-.1A.446.446,0,0,0,168.417,94.37Z" transform="translate(9.044 -24.854)" fill="#c69191"/><path d="M168.4,94.41h.1c-.075.587-.171,1.174-.277,1.761H168.2c-.075.043-.149.1-.213.128-.043.331-.085.672-.128,1.014H167.8a1.3,1.3,0,0,1-.822-.576,1.508,1.508,0,0,0,.064-.235c.107-.512.224-1.078.331-1.686a1.4,1.4,0,0,1,.5-.213c.043-.021.213-.064.5-.181C168.388,94.421,168.388,94.421,168.4,94.41Z" transform="translate(8.955 -24.851)" fill="#c69191"/><path d="M168.163,96.06c-.064.363-.128.736-.2,1.11l-.16.032c.043-.341.085-.683.128-1.014.064-.032.139-.085.213-.128Z" transform="translate(9.01 -24.741)" fill="#f3c8bb"/><path d="M167.96,97.1c0,.021-.011.053-.011.075a.377.377,0,0,1-.149-.032v-.011Z" transform="translate(9.01 -24.671)" fill="#f3c8bb"/><path d="M167.852,97.14a.377.377,0,0,0,.149.032c-.288,1.579-.608,3.169-.982,4.77C167.361,100.32,167.639,98.709,167.852,97.14Z" transform="translate(8.958 -24.669)" fill="#f3c8bb"/><path d="M168.353,94.42c-.288.117-.459.16-.5.181a1.4,1.4,0,0,0-.5.213c.021-.1.043-.192.064-.3C167.691,94.473,168.012,94.441,168.353,94.42Z" transform="translate(8.98 -24.851)" fill="#c69191"/><path d="M167.8,97.13v.011c-.011.011-.032,0-.053-.011Z" transform="translate(9.007 -24.669)" fill="#c69191"/><path d="M172.536,97.243c.021.011.043.021.053.011-.213,1.569-.491,3.18-.832,4.8a3.2,3.2,0,0,1-.075.341c-.512,2.209-1.1,4.439-1.761,6.658q-.08.3-.192.608a90.873,90.873,0,0,1-3.713,9.635c-.107.043-.2.075-.277.107-.032.256-.075.512-.117.768l-.224.48c.043,0,.1-.011.149-.011-.043.267-.085.523-.139.79a93.88,93.88,0,0,1-18.491,28.126c-8.451,8.675-22.61,14.106-40.461,15.6v-.171a1.462,1.462,0,0,0-2.924,0v.373c-1.867.117-3.788.192-5.741.2v-.576a1.464,1.464,0,0,0-1.462-1.462v-.79c18.971,0,37.868-4.151,48.57-15.152.886-.907,1.739-1.825,2.572-2.774.427-.469.843-.95,1.238-1.43.416-.48.811-.96,1.206-1.451.309-.384.619-.768.918-1.163.928-1.2,1.814-2.4,2.678-3.639.3-.427.587-.854.875-1.28.736-1.1,1.451-2.209,2.145-3.34.427-.7.854-1.408,1.259-2.123q1.5-2.609,2.828-5.282c.373-.736.736-1.472,1.078-2.219a.319.319,0,0,0,.043-.085c.373-.79.726-1.579,1.067-2.379.117-.245.224-.491.32-.747.256-.576.5-1.163.726-1.739.341-.832.672-1.665.982-2.5s.619-1.665.907-2.507.576-1.675.843-2.518c.256-.779.5-1.558.726-2.337.075-.235.139-.459.2-.694.437-1.5.843-3.009,1.2-4.5.373-1.515.7-3.03.992-4.524.075-.373.149-.747.213-1.11.117-.608.224-1.206.32-1.8l1.28.224a1.083,1.083,0,0,0,0,.523,1.212,1.212,0,0,0,.2.48,2.4,2.4,0,0,1-.373.832.908.908,0,0,0,.235-.043A6.667,6.667,0,0,1,172.536,97.243Z" transform="translate(4.221 -24.782)" fill="#c69191"/><path d="M167.39,94.79c-.107.608-.224,1.174-.331,1.686a1.508,1.508,0,0,1-.064.235,1.212,1.212,0,0,1-.2-.48,1.083,1.083,0,0,1,0-.523A1.321,1.321,0,0,1,167.39,94.79Z" transform="translate(8.941 -24.826)" fill="#c69191"/><path d="M167,96.59a1.3,1.3,0,0,0,.822.576,6.658,6.658,0,0,0-.96.213.907.907,0,0,1-.235.043A2.4,2.4,0,0,0,167,96.59Z" transform="translate(8.932 -24.705)" fill="#c69191"/><path d="M176.226,76.531a81.328,81.328,0,0,1-.758,23.346c-.1.6-.2,1.2-.32,1.8-.064.363-.128.736-.213,1.11-.288,1.494-.619,3.009-.992,4.524-.363,1.494-.758,3-1.2,4.5-.064.235-.128.459-.2.694-.235.779-.469,1.558-.726,2.337-.267.843-.544,1.675-.843,2.518s-.6,1.675-.907,2.507-.64,1.665-.982,2.5c-.235.587-.469,1.163-.726,1.739-.1.256-.2.5-.32.747-.341.8-.7,1.59-1.067,2.379a.32.32,0,0,1-.043.085c-.352.747-.7,1.483-1.078,2.219q-1.328,2.673-2.828,5.282c-.405.7-.822,1.419-1.259,2.123-.694,1.131-1.408,2.241-2.145,3.34-.288.437-.576.854-.875,1.28-.864,1.238-1.75,2.443-2.678,3.639-.3.384-.608.779-.918,1.163-.395.48-.8.971-1.206,1.451s-.811.96-1.238,1.43c-.832.95-1.686,1.867-2.572,2.774-10.7,11-29.6,15.152-48.57,15.152-19.313-.011-38.7-4.332-49.573-10.137-14.81-7.907-24.413-24.264-29.193-34.347-1.547-3.436-.928-7.715-1.216-8.557l-1.643-1.782c-.043-.085-.736-1.248-1.761-3.329-.267-9.251,5.837-22.429,13.466-23.752,3.959-.694,13.893-.96,21.938-1.174,16.507-.448,31.648-7.181,38.957-12.665,10.329-7.747,39.746-34.187,42.819-42.211,5.911,2.732,36.385,34.091,40.749,46.853a1.481,1.481,0,0,0,.107.277A1.03,1.03,0,0,0,176.226,76.531ZM149.989,84.1a1.387,1.387,0,0,0,.523-1.91c-5.26-9.283-17.68-6.733-18.2-6.626a1.4,1.4,0,0,0-1.078,1.675,1.377,1.377,0,0,0,1.654,1.067c.117-.011,10.926-2.23,15.173,5.26a1.4,1.4,0,0,0,1.931.534ZM137.558,100.08c0-2.828-1.28-5.3-2.966-5.474a.964.964,0,0,0-.3-.043,1.377,1.377,0,0,0-.437.085.217.217,0,0,1-.053.011c-1.291.267-3.308,2.166-3.308,5,0,3.084,2.347,5.773,3.617,5.719a1.874,1.874,0,0,0,.416-.064C136.043,104.946,137.558,102.887,137.558,100.08Zm-27.017,20.668a1.4,1.4,0,0,0,1.078-1.675c-.224-1.056-2.625-7.779-7.309-10.8a5.5,5.5,0,0,0-4.279-.832c-7.256,1.579-10.233,10.5-10.371,10.99a1.406,1.406,0,0,0,2.71.747c.8-2.913,3.6-7.981,8.269-8.995a2.717,2.717,0,0,1,2.134.459c3.137,2.017,5.548,6.434,6.093,9.027a1.409,1.409,0,0,0,1.675,1.078ZM64.852,105.522c1.611-.075,3.425-2.219,3.425-5.314s-1.5-5.741-3.425-5.463c-1.28,0-3.628,1.985-3.628,5.068S63.571,105.575,64.852,105.522Z" transform="translate(-1.017 -29.22)" fill="#f3c8bb"/><path d="M165.09,98.24c.085-.373.149-.747.213-1.11C165.239,97.493,165.165,97.866,165.09,98.24Z" transform="translate(8.829 -24.669)" fill="#c69191"/><path d="M165.353,108.77c-.96,3.19-2.091,6.381-3.382,9.539-.128.032-.235.075-.331.1A90.876,90.876,0,0,0,165.353,108.77Z" transform="translate(8.598 -23.889)" fill="#f3c8bb"/><path d="M161.669,117.806c.1-.021.2-.064.331-.1-.192.48-.384.95-.6,1.43-.075,0-.139.011-.2.011.032-.16.053-.309.075-.469C161.413,118.382,161.541,118.094,161.669,117.806Z" transform="translate(8.568 -23.29)" fill="#f3c8bb"/><path d="M161.665,117.8c-.128.288-.256.576-.395.875.043-.256.085-.512.117-.768C161.462,117.875,161.558,117.843,161.665,117.8Z" transform="translate(8.573 -23.284)" fill="#c69191"/><path d="M161.209,119.061c.064,0,.128-.011.2-.011-.107.267-.224.534-.341.8C161.123,119.584,161.166,119.327,161.209,119.061Z" transform="translate(8.559 -23.2)" fill="#c69191"/><path d="M161.284,118.62c-.021.16-.043.309-.075.469-.053,0-.107.011-.149.011Z" transform="translate(8.559 -23.229)" fill="#f3c8bb"/><path d="M149.92,134.59c.3-.427.587-.843.875-1.28C150.507,133.737,150.219,134.164,149.92,134.59Z" transform="translate(7.812 -22.245)" fill="#c69191"/><path d="M146.55,139.083c.309-.384.619-.779.918-1.163C147.169,138.315,146.859,138.7,146.55,139.083Z" transform="translate(7.586 -21.936)" fill="#c69191"/><path d="M145.42,140.461c.405-.48.811-.971,1.206-1.451C146.231,139.5,145.836,139.981,145.42,140.461Z" transform="translate(7.511 -21.863)" fill="#c69191"/><path d="M144.26,141.8c.427-.469.832-.95,1.238-1.43C145.1,140.85,144.687,141.33,144.26,141.8Z" transform="translate(7.433 -21.772)" fill="#c69191"/><path d="M143.413,79.3a1.387,1.387,0,0,1-.523,1.91,1.4,1.4,0,0,1-1.931-.533c-4.247-7.49-15.056-5.271-15.173-5.26a1.377,1.377,0,0,1-1.654-1.067,1.4,1.4,0,0,1,1.078-1.675C125.733,72.568,138.153,70.018,143.413,79.3Z" transform="translate(6.082 -26.335)" fill="#f3db8c"/><path d="M141.867,290.278a13.975,13.975,0,0,1-6.178,13.028,24.567,24.567,0,0,1-6.519,2.892,1.588,1.588,0,0,0-1.526-1.547H127.6a3.029,3.029,0,0,0-.309.021l-.192-.715a23.793,23.793,0,0,0,6.978-2.945,10.9,10.9,0,0,0,4.9-8.707,10,10,0,0,0,.011-1.131,5.681,5.681,0,0,0-.043-.736c-.107-1.238.149-3.084.032-5.218.011.064.021.117.032.171l1.27.9c.043-.011,1.4,4.513,1.526,4.247A1.448,1.448,0,0,0,141.867,290.278Z" transform="translate(6.283 -12.065)" fill="#e84436"/><path d="M141.736,284.132c.149,5.879.277,9.454.107,10.521,0-.032-.011-.064-.011-.1-.128-1.376-.395-3.244-.747-5.538h-.011a1.426,1.426,0,0,1-.63.139,1.614,1.614,0,0,1-.662-.149,1.534,1.534,0,0,1-.886-1.2l-.128-.053a14.026,14.026,0,0,1,.181,1.846c-.982-6.05-1.889-17.286-3.51-25.886-2.785-14.81-6.658-33.59-7.971-43.9a1.257,1.257,0,0,1,.213-.043,1.466,1.466,0,0,1,1.611,1.312l1.28-.171c1.451,10.446,5.079,28.169,7.736,42.264,1.238,6.594,2.4,12.751,3.318,17.9A19.282,19.282,0,0,1,141.736,284.132Z" transform="translate(6.308 -16.451)" fill="#e84436"/><path d="M139.543,286.4l-1.27-.9c-.011-.053-.021-.107-.032-.171a14.031,14.031,0,0,0-.181-1.846l.128.053a1.534,1.534,0,0,0,.886,1.2,1.614,1.614,0,0,0,.662.149,1.426,1.426,0,0,0,.63-.139h.011c.352,2.294.619,4.161.747,5.538,0,.032.011.064.011.1v.011a1.451,1.451,0,0,1-.064.256C140.941,290.916,139.586,286.392,139.543,286.4Z" transform="translate(7.017 -12.181)" fill="#e84436"/><path d="M139.02,289.6c.117,2.134-.139,3.98-.032,5.218a5.681,5.681,0,0,1,.043.736c-.011-.192-.021-.384-.043-.576-.139-1.59-.491-3.959-.971-6.872-.982-6-2.55-14.341-4.183-23.015-3.009-15.995-6.434-34.123-7.384-43.715a1.455,1.455,0,0,1,1.088-1.558c1.312,10.307,5.186,29.087,7.971,43.9C137.131,272.317,138.038,283.553,139.02,289.6Z" transform="translate(6.239 -16.447)" fill="#ee7358"/><path d="M132.257,221.294c.043.405.1.832.149,1.28a1.455,1.455,0,0,0-1.088,1.558c.95,9.592,4.375,27.721,7.384,43.715,1.633,8.675,3.2,17.019,4.183,23.015.48,2.913.832,5.282.971,6.872.021.192.032.384.043.576a10,10,0,0,1-.011,1.131,10.927,10.927,0,0,1-4.9,8.557,24.008,24.008,0,0,1-7.01,2.956c-6.946,1.846-15.834,1.8-24.915.768a180.761,180.761,0,0,1-32.971-7.181c-5.943-1.889-10.073-3.617-11.086-4.513a1.549,1.549,0,0,1-.128-.267.182.182,0,0,1-.011-.075,4.609,4.609,0,0,1-.064-.63c-.011-.32-.011-.694,0-1.131.064-1.814.352-4.5.811-7.843,2.038-15.1,7.565-43.353,11.641-62.548a.988.988,0,0,0,.021-.395,1.447,1.447,0,0,0-1.142-1.483,1.487,1.487,0,0,0-1.75,1.131c-1.11,5.26-4.257,20.295-7.106,35.51a22.7,22.7,0,0,0-2.764-1.643c-.1-.064-.2-.107-.3-.16a27.6,27.6,0,0,0-2.913-1.323c-.192-.075-.384-.16-.566-.224-2.273-.9-3.969-1.387-3.991-1.494-6.114-26.985,19.2-61.705,29.823-74.819l.021-.021c.459-.512.9-.992,1.3-1.43.5,3,2.7,6.05,6.53,9.112,7.49,6.007,16.133,6.082,23.143.213,3.767-3.158,7.01-7.618,7.608-11.374.128-.843.672-.245,1.2.437,2.646,3.35,5.527,9.2,8.483,13.423,5.346,7.629,3.831,16.5.395,25.736a1.449,1.449,0,0,0-1.1,1.558C132.182,220.611,132.214,220.952,132.257,221.294Z" transform="translate(1.372 -19.201)" fill="#ee7358"/><path d="M134.08,300.417a10.927,10.927,0,0,0,4.9-8.557,10.9,10.9,0,0,1-4.9,8.707,23.794,23.794,0,0,1-6.978,2.945l-.032-.139A24.009,24.009,0,0,0,134.08,300.417Z" transform="translate(6.281 -11.62)" fill="#e84436"/><path d="M130.584,221.163l-1.28.171a1.466,1.466,0,0,0-1.611-1.312,1.259,1.259,0,0,0-.213.043c-.053-.448-.107-.875-.149-1.28q.512-1.28.992-2.561a1.132,1.132,0,0,1,.2-.043,1.458,1.458,0,0,1,1.611,1.3C130.243,218.571,130.392,219.808,130.584,221.163Z" transform="translate(6.298 -16.692)" fill="#e84436"/><path d="M129.858,95.835c0,2.881-1.248,5.09-2.454,5.356a1.6,1.6,0,0,1-.235.021c-1.28,0-2.7-2.3-2.7-5.378,0-2.71,1.078-4.791,2.209-5.282a.217.217,0,0,0,.053-.011,2.1,2.1,0,0,1,.256-.032,2.426,2.426,0,0,1,.48-.011C128.642,90.821,129.858,92.987,129.858,95.835Z" transform="translate(6.107 -25.114)"/><path d="M127.22,101.191c1.206-.267,2.454-2.475,2.454-5.356,0-2.849-1.216-5.015-2.39-5.335,1.686.171,2.966,2.646,2.966,5.474,0,2.806-1.515,4.866-3.03,5.239v-.021Z" transform="translate(6.291 -25.113)"/><path d="M129.3,304.88v.064l-.992,45.177a.315.315,0,0,1-.021.139,1.381,1.381,0,0,0-1.259-.886,1.515,1.515,0,0,0-1.046.395l-.8-.672.96-43.417C127.239,305.456,128.285,305.189,129.3,304.88Z" transform="translate(6.154 -10.747)" fill="#497ea9"/><path d="M129.238,304.977c-1.014.309-2.059.576-3.158.8l.011-.8a1.62,1.62,0,0,1,1.27-1.526,3.011,3.011,0,0,1,.309-.021h.043A1.587,1.587,0,0,1,129.238,304.977Z" transform="translate(6.215 -10.845)" fill="#e84436"/><path d="M128.57,347.41a1.068,1.068,0,0,1,.128.63c-.16,3.895-6.349,7.32-7.586,7.949a1.028,1.028,0,0,1-.192.075l.032-3.35a16.887,16.887,0,0,0,3.991-3.18,2.576,2.576,0,0,0,2.337-.085A2.511,2.511,0,0,0,128.57,347.41Z" transform="translate(5.869 -7.897)" fill="#497ea9"/><path d="M128.318,347.466a2.511,2.511,0,0,1-1.291,2.038,2.576,2.576,0,0,1-2.337.085,2.814,2.814,0,0,0,.832-1.622,1.481,1.481,0,0,1,.491-.992,1.515,1.515,0,0,1,1.046-.395A1.381,1.381,0,0,1,128.318,347.466Z" transform="translate(6.121 -7.953)" fill="#497ea9"/><path d="M128.329,216.22q-.48,1.28-.992,2.561c-.043-.341-.075-.683-.107-1A1.449,1.449,0,0,1,128.329,216.22Z" transform="translate(6.291 -16.689)" fill="#e84436"/><path d="M128.669,302.78l.192.715a1.62,1.62,0,0,0-1.27,1.526l-.011.8a61.789,61.789,0,0,1-12.281,1.1c-3.286,0-6.712-.192-10.147-.523l-.107-1.547c-.043-.715-.662-1.014-1.366-1.067l.021-.224h.021c9.08,1.035,17.968,1.078,24.915-.768C128.648,302.791,128.659,302.78,128.669,302.78Z" transform="translate(4.713 -10.888)" fill="#e84436"/><path d="M127.326,90.5a2.425,2.425,0,0,0-.48.011,2.1,2.1,0,0,0-.256.032,1.377,1.377,0,0,1,.437-.085A.964.964,0,0,1,127.326,90.5Z" transform="translate(6.249 -25.116)"/><path d="M127.473,101.188v.021a1.874,1.874,0,0,1-.416.064c-1.27.053-3.617-2.636-3.617-5.719,0-2.838,2.017-4.738,3.308-5-1.131.491-2.209,2.572-2.209,5.282,0,3.073,1.419,5.378,2.7,5.378A1.6,1.6,0,0,0,127.473,101.188Z" transform="translate(6.038 -25.11)"/><path d="M128.636,302.65l.032.139c-.011,0-.021.011-.032.011-6.946,1.846-15.834,1.8-24.915.768H103.7l.021-.149C112.8,304.453,121.69,304.5,128.636,302.65Z" transform="translate(4.715 -10.897)" fill="#e84436"/><path d="M127.489,305.63l-.96,43.417a14.569,14.569,0,0,0-5.858-1.579,18.742,18.742,0,0,0-12.911,4.247l-2.7-45.508c3.436.331,6.861.523,10.147.523A61.789,61.789,0,0,0,127.489,305.63Z" transform="translate(4.806 -10.697)" fill="#5492c5"/><path d="M125.551,346.419l.8.672a1.481,1.481,0,0,0-.491.992,2.814,2.814,0,0,1-.832,1.622c-.075-.032-.16-.085-.245-.128a11.181,11.181,0,0,0-3.7-1.387l.011-1.312a1.455,1.455,0,0,0-1.44-1.472l.043-.566A14.569,14.569,0,0,1,125.551,346.419Z" transform="translate(5.784 -8.07)" fill="#497ea9"/><path d="M124.7,349.367c.085.043.171.1.245.128a16.888,16.888,0,0,1-3.991,3.18l.043-4.695A11.181,11.181,0,0,1,124.7,349.367Z" transform="translate(5.871 -7.859)" fill="#1d71b8"/><path d="M121.184,346.842l-.011,1.312a11.757,11.757,0,0,0-2.924-.224l.011-1.12a1.453,1.453,0,0,1,1.462-1.44h.021A1.455,1.455,0,0,1,121.184,346.842Z" transform="translate(5.69 -8.034)" fill="#497ea9"/><path d="M121.177,347.995l-.043,4.695a11.639,11.639,0,0,1-1.2.683,1.481,1.481,0,0,0-.79,1.3l-.95-.011.053-6.893A11.757,11.757,0,0,1,121.177,347.995Z" transform="translate(5.686 -7.874)" fill="#c69191"/><path d="M121.075,352.38l-.032,3.35a1.258,1.258,0,0,1-.491.1,1.465,1.465,0,0,1-1.291-.79,1.4,1.4,0,0,1-.171-.672,1.481,1.481,0,0,1,.79-1.3A11.638,11.638,0,0,0,121.075,352.38Z" transform="translate(5.746 -7.564)" fill="#c69191"/><path d="M121.107,355.606l-.021,4.1a1.461,1.461,0,0,0-.16,2.87.6.6,0,0,0,.128.043v.224a1.469,1.469,0,0,1-1.462,1.451h-.011a1.462,1.462,0,0,1-1.451-1.462l.075-8.6.95.011a1.4,1.4,0,0,0,.171.672,1.465,1.465,0,0,0,1.291.79A1.258,1.258,0,0,0,121.107,355.606Z" transform="translate(5.682 -7.44)" fill="#c69191"/><path d="M120.98,359.36l-.032,2.913a.6.6,0,0,1-.128-.043,1.461,1.461,0,0,1,.16-2.87Z" transform="translate(5.787 -7.097)" fill="#c69191"/><path d="M120.871,347.453l-.043.566h-.021a1.453,1.453,0,0,0-1.462,1.44l-.011,1.12a12.927,12.927,0,0,0-2.134.224v-.662a1.487,1.487,0,0,0-1.451-1.483h-.021a1.476,1.476,0,0,0-1.462,1.451l-.011,1.494a13.854,13.854,0,0,0-4.588,2.8,19.1,19.1,0,0,1-2.059-1.9,1.477,1.477,0,0,0-2.07-.085,1.4,1.4,0,0,0-.448,1.184,2.371,2.371,0,0,1-.224-.918L102.06,305.85c1.078.128,2.145.245,3.2.341l2.7,45.508A18.743,18.743,0,0,1,120.871,347.453Z" transform="translate(4.605 -10.682)" fill="#497ea9"/><path d="M118.444,176.349a1.59,1.59,0,0,1-1.344,1.782.762.762,0,0,1-.224.021,1.581,1.581,0,0,1-1.558-1.355,3.281,3.281,0,0,0-.758-1.547l2.433-1.91c.107.128.235.245.363.395A6.1,6.1,0,0,1,118.444,176.349Z" transform="translate(5.443 -19.562)" fill="#e84436"/><path d="M117.941,174.1c-.128-.149-.256-.267-.363-.395l-2.433,1.91c-1.771-2.123-6.221-3.7-9.326-4.46v-3.2C108.424,168.5,115.231,170.276,117.941,174.1Z" transform="translate(4.857 -19.923)" fill="#e84436"/><path d="M116.435,347.453v.662a14.589,14.589,0,0,0-2.945.8l.011-1.494a1.476,1.476,0,0,1,1.462-1.451h.021A1.487,1.487,0,0,1,116.435,347.453Z" transform="translate(5.371 -7.994)" fill="#497ea9"/><path d="M116.438,347.98l-.064,7.16-.768-.011a1.317,1.317,0,0,0-.075-.448,1.482,1.482,0,0,0-1.857-.928,1.119,1.119,0,0,1-.224.064l.043-5.036A14.591,14.591,0,0,1,116.438,347.98Z" transform="translate(5.368 -7.859)" fill="#c69191"/><path d="M116.378,354.691l-.085,8.782a1.451,1.451,0,1,1-2.9-.021v-.6c.149-.043.288-.085.384-.107a1.464,1.464,0,0,0,1.056-1.771,1.433,1.433,0,0,0-1.419-1.1l.032-3.585a3.929,3.929,0,0,0,1.163-.213,1.477,1.477,0,0,0,1-1.4Z" transform="translate(5.364 -7.41)" fill="#c69191"/><path d="M115.531,354.323a1.317,1.317,0,0,1,.075.448,1.477,1.477,0,0,1-1,1.4,3.93,3.93,0,0,1-1.163.213l.011-2.924a1.121,1.121,0,0,0,.224-.064A1.482,1.482,0,0,1,115.531,354.323Z" transform="translate(5.368 -7.501)" fill="#c69191"/><path d="M116.778,176.751c1.376,2.54-.662,8.376-5.442,12.388-2.774,2.326-10.169,6.936-19.153-.245-4.065-3.265-5.879-6.242-5.388-8.888a5.52,5.52,0,0,1,.555-1.569c1.579-2.924,5.719-5.068,8.163-6.039v2.315a1.462,1.462,0,0,0,2.924,0v-13.54c1.953-.011,3.873-.085,5.741-.2v13.743a1.462,1.462,0,0,0,2.924,0v-3.094c3.105.758,7.554,2.337,9.326,4.46l-.043.032A7.288,7.288,0,0,1,116.778,176.751Z" transform="translate(3.577 -20.391)" fill="#f3c8bb"/><path d="M114.83,360.649a1.464,1.464,0,0,1-1.056,1.771c-.1.021-.235.064-.384.107l.021-2.977A1.433,1.433,0,0,1,114.83,360.649Z" transform="translate(5.364 -7.084)" fill="#c69191"/><path d="M113.778,348.73l-.043,5.036c-1.11.149-2.934-.95-4.545-2.241A13.854,13.854,0,0,1,113.778,348.73Z" transform="translate(5.083 -7.809)" fill="#1d71b8"/><path d="M114.023,353.641l-.011,2.924h-.171c-3.639,0-7.7-4.151-8.568-5.079a1.374,1.374,0,0,1-.373-.886,2.723,2.723,0,0,0,1.558,1.515,2.812,2.812,0,0,0,1,.181,2.722,2.722,0,0,0,1.953-.822c.021-.032.043-.043.064-.075C111.089,352.691,112.913,353.79,114.023,353.641Z" transform="translate(4.795 -7.684)" fill="#497ea9"/><path d="M109.478,351.5c-.021.032-.043.043-.064.075a2.722,2.722,0,0,1-1.953.822,2.811,2.811,0,0,1-1-.181A2.723,2.723,0,0,1,104.9,350.7a1.4,1.4,0,0,1,.448-1.184,1.477,1.477,0,0,1,2.07.085A19.1,19.1,0,0,0,109.478,351.5Z" transform="translate(4.795 -7.782)" fill="#497ea9"/><path d="M106,171.065v3.094a1.462,1.462,0,0,1-2.924,0V169.24h.149a1.575,1.575,0,0,0,1.312,1.537C104.979,170.841,105.47,170.958,106,171.065Z" transform="translate(4.673 -19.837)" fill="#c69191"/><path d="M105.994,167.963v3.2c-.534-.107-1.024-.224-1.462-.288a1.575,1.575,0,0,1-1.312-1.537,2.453,2.453,0,0,1,.032-.277,1.573,1.573,0,0,1,1.825-1.28c.171.021.48.075.918.16v.021Z" transform="translate(4.683 -19.936)" fill="#c69191"/><path d="M106,160.78v7.629c-.437-.085-.747-.139-.918-.16a1.573,1.573,0,0,0-1.825,1.28,2.453,2.453,0,0,0-.032.277h-.149v-8.824C104.062,160.929,105.043,160.865,106,160.78Z" transform="translate(4.673 -20.404)" fill="#c69191"/><path d="M106,160.712v.171c-.96.085-1.942.149-2.924.2v-.373a1.462,1.462,0,1,1,2.924,0Z" transform="translate(4.673 -20.506)" fill="#c69191"/><path d="M107.132,114.169a1.4,1.4,0,0,1-1.078,1.675,1.409,1.409,0,0,1-1.675-1.078c-.544-2.593-2.956-7.01-6.093-9.027a2.717,2.717,0,0,0-2.134-.459c-4.674,1.014-7.469,6.082-8.269,8.995a1.406,1.406,0,0,1-2.71-.747c.139-.491,3.116-9.411,10.371-10.99a5.5,5.5,0,0,1,4.279.832C104.508,106.39,106.908,113.112,107.132,114.169Z" transform="translate(3.47 -24.315)" fill="#c69191"/><path d="M105.158,304.788l.107,1.547c-1.056-.1-2.123-.213-3.2-.341l-.053-1.024c-.043-.854.48-1.206,1.355-1.27a2.8,2.8,0,0,1,.427.021C104.5,303.775,105.115,304.073,105.158,304.788Z" transform="translate(4.601 -10.826)" fill="#e84436"/><path d="M105.793,303.821l-.021.149a180.7,180.7,0,0,1-32.949-7.181c-.011,0-.032-.011-.043-.011l.043-.139A180.761,180.761,0,0,0,105.793,303.821Z" transform="translate(2.643 -11.3)" fill="#e84436"/><path d="M105.783,303.962l-.021.224a2.8,2.8,0,0,0-.427-.021c-.875.064-1.4.416-1.355,1.27l.053,1.024c-.64-.085-1.291-.149-1.942-.235l.075-.96a1.586,1.586,0,0,0-1.451-1.7,1.547,1.547,0,0,0-1.686,1.44l-.053.768a185.206,185.206,0,0,1-25.128-5.719l.011-1.163a1.592,1.592,0,0,0-1.248-1.558l.181-.566c.011,0,.032.011.043.011A180.708,180.708,0,0,0,105.783,303.962Z" transform="translate(2.631 -11.291)" fill="#e84436"/><path d="M99.059,303.14a1.586,1.586,0,0,1,1.451,1.7l-.075.96c-1.035-.139-2.081-.3-3.116-.448l.053-.768A1.547,1.547,0,0,1,99.059,303.14Z" transform="translate(4.287 -10.864)" fill="#e84436"/><path d="M102.136,305.658,98.572,350.9a2.461,2.461,0,0,1-.117.5,1.441,1.441,0,0,0-1.238-1.163,1.461,1.461,0,0,0-1.643,1.248,2.188,2.188,0,0,1-.341.832,1.848,1.848,0,0,1-.16-.139,9.939,9.939,0,0,0-6.658-2.593v-.128a1.462,1.462,0,1,0-2.924-.021v.149c-.715.064-1.451.139-2.177.256a1.473,1.473,0,0,0-1.419-1.206h-.021a1.46,1.46,0,0,0-1.462,1.44v.309a49.049,49.049,0,0,0-5.933,1.857,17.665,17.665,0,0,1-1.227-1.974,1.447,1.447,0,0,0-1.3-.832l1.611-.181c5.26-2.027,15.568-5.026,22.044-.7L99.02,305.21C100.055,305.359,101.1,305.519,102.136,305.658Z" transform="translate(2.587 -10.725)" fill="#497ea9"/><path d="M97.884,169.95v4.161a1.462,1.462,0,0,1-2.924,0V171.8c.384-.139.7-.267.982-.352a1.575,1.575,0,0,0,1.088-1.494Z" transform="translate(4.129 -19.789)" fill="#c69191"/><path d="M97.884,161.16v9.379H97.03a1.57,1.57,0,0,0-2.059-1.5H94.96V161.16c.384.011.768.011,1.152.011h.608C97.115,161.171,97.51,161.171,97.884,161.16Z" transform="translate(4.129 -20.378)" fill="#c69191"/><path d="M97.884,160.712v.576c-.373.011-.768.011-1.163.011h-.608c-.384,0-.768,0-1.152-.011v-.576a1.462,1.462,0,1,1,2.924,0Z" transform="translate(4.129 -20.506)" fill="#c69191"/><path d="M98.919,305.569,95.5,348.911c-6.477-4.321-16.784-1.323-22.044.7l.331-49.765A185.2,185.2,0,0,0,98.919,305.569Z" transform="translate(2.688 -11.084)" fill="#5492c5"/><path d="M96.955,169.558a1.583,1.583,0,0,1-1.014,1.985c-.277.085-.6.213-.982.352v-3.35h.011A1.571,1.571,0,0,1,96.955,169.558Z" transform="translate(4.129 -19.889)" fill="#c69191"/><path d="M97.426,348.5a1.218,1.218,0,0,1,.011.48c-.576,4.3-7.811,7.117-10.137,7.917l.032-3.137c2.742-1.056,5.858-2.742,6.872-4.343a1.961,1.961,0,0,0,1.3.459,2.171,2.171,0,0,0,.683-.107A2.11,2.11,0,0,0,97.426,348.5Z" transform="translate(3.616 -7.824)" fill="#497ea9"/><path d="M96.992,348.574a2.11,2.11,0,0,1-1.238,1.27,2.171,2.171,0,0,1-.683.107,1.962,1.962,0,0,1-1.3-.459,2.188,2.188,0,0,0,.341-.832,1.461,1.461,0,0,1,1.643-1.248A1.44,1.44,0,0,1,96.992,348.574Z" transform="translate(4.049 -7.898)" fill="#497ea9"/><path d="M101.4,161.3v.79a1.471,1.471,0,0,0-1.462,1.462v.576c-18.438-.16-37.676-4.215-49.435-10.489-12.153-6.487-20.785-18.257-25.886-27-1.579-2.678-2.9-5.228-4.012-7.5.213,0,.341-.021.384-.021a1.457,1.457,0,0,0,1.344-1.558.316.316,0,0,0-.021-.107,2.992,2.992,0,0,0,.32-.64c4.78,10.083,14.383,26.441,29.193,34.347C62.7,156.972,82.091,161.293,101.4,161.3Z" transform="translate(-0.853 -23.35)" fill="#c69191"/><path d="M95.624,168.54v3.35c-2.443.971-6.583,3.116-8.163,6.039l-.288-.16a1.454,1.454,0,0,0-2.123-1.921C88.07,171.058,95.176,168.7,95.624,168.54Z" transform="translate(3.465 -19.884)" fill="#e84436"/><path d="M94.042,349.393a1.854,1.854,0,0,0,.16.139c-1.014,1.6-4.129,3.286-6.872,4.343l.053-7.074A9.939,9.939,0,0,1,94.042,349.393Z" transform="translate(3.618 -7.938)" fill="#1d71b8"/><path d="M87.564,346.772v.128a19.1,19.1,0,0,0-2.924,0v-.149a1.462,1.462,0,1,1,2.924.021Z" transform="translate(3.438 -8.039)" fill="#497ea9"/><path d="M87.568,346.8l-.053,7.074c-.469.181-.918.352-1.355.491a1.483,1.483,0,0,0-1.014,1.4H84.57l.075-8.963A19.1,19.1,0,0,1,87.568,346.8Z" transform="translate(3.433 -7.942)" fill="#c69191"/><path d="M87.479,353.43l-.032,3.137c-.171.053-.309.1-.416.139a1.651,1.651,0,0,1-.459.075,1.47,1.47,0,0,1-1.387-1.014,1.642,1.642,0,0,1-.075-.448,1.483,1.483,0,0,1,1.014-1.4C86.561,353.782,87.009,353.611,87.479,353.43Z" transform="translate(3.469 -7.494)" fill="#c69191"/><path d="M87.487,356.448l-.043,4.225a1.436,1.436,0,0,0-1.163.864,1.479,1.479,0,0,0,.566,1.835,1.194,1.194,0,0,0,.2.309,1.483,1.483,0,0,1-1.078.469h-.011a1.448,1.448,0,0,1-1.451-1.462l.064-7.49h.576a1.642,1.642,0,0,0,.075.448,1.47,1.47,0,0,0,1.387,1.014,1.652,1.652,0,0,0,.459-.075C87.178,356.544,87.316,356.5,87.487,356.448Z" transform="translate(3.429 -7.375)" fill="#c69191"/><path d="M87.341,361.088v.011a1.472,1.472,0,0,0-.715.9,1.487,1.487,0,0,0,.117,1.035,1.479,1.479,0,0,1-.566-1.835,1.436,1.436,0,0,1,1.163-.864Z" transform="translate(3.532 -7.032)" fill="#c69191"/><path d="M87.308,361.05l-.011,1.27a1.461,1.461,0,0,1-.256.811c-.043-.011-.1-.043-.139-.053-.075-.032-.139-.075-.192-.1a1.487,1.487,0,0,1-.117-1.035A1.472,1.472,0,0,1,87.308,361.05Z" transform="translate(3.566 -6.983)" fill="#c69191"/><path d="M87,175.484a1.467,1.467,0,0,1,.256,1.846c-.053.085-.117.149-.171.224-.075.064-1.28,1.408-3.212,3.724a7.936,7.936,0,0,1,.021-2.8,8.147,8.147,0,0,1,1.238-3.073A1.467,1.467,0,0,1,87,175.484Z" transform="translate(3.379 -19.444)" fill="#e84436"/><path d="M87.031,363.009c-.043.053-.085.1-.128.16a1.192,1.192,0,0,1-.2-.309c.053.021.117.064.192.1C86.935,362.967,86.988,363,87.031,363.009Z" transform="translate(3.576 -6.862)" fill="#c69191"/><path d="M87.144,175.561a1.014,1.014,0,0,1,.2-.171,8.147,8.147,0,0,0-1.238,3.073,7.936,7.936,0,0,0-.021,2.8c-.405.48-.832,1.014-1.291,1.579l-.021.021c-11.31,12.729-35.948,47.909-29.823,74.968.021.1,1.771.523,3.991,1.344.181.064.373.149.566.224.918.373,1.91.811,2.913,1.323.1.053.2.1.3.16a16.032,16.032,0,0,1,2.732,1.825c-.192,1.056-.395,2.113-.587,3.169-9.774-5.25-12.89-5.911-13.1-6.893-3.361-14.863,1.867-34,14.9-55.559A197.846,197.846,0,0,1,87.144,175.561Z" transform="translate(1.168 -19.425)" fill="#e84436"/><path d="M82.79,347.04a2.246,2.246,0,0,1,.021.267l-.139,16.613a1.453,1.453,0,0,1-1.462,1.44H81.2a1.453,1.453,0,0,1-1.323-.886v-.011c.213-.032.373-.053.5-.075a1.456,1.456,0,0,0-.245-2.9c-.064.011-.192.021-.373.043L79.8,356.8c.139.011.288.021.437.043h.085a1.458,1.458,0,0,0,.1-2.913,5.517,5.517,0,0,1-.587-.075l.053-6.274C80.859,347.36,81.83,347.179,82.79,347.04Z" transform="translate(3.111 -7.922)" fill="#c69191"/><path d="M80.419,353.5a1.458,1.458,0,0,1-.1,2.913h-.085c-.149-.021-.3-.032-.437-.043l.032-2.945A5.525,5.525,0,0,0,80.419,353.5Z" transform="translate(3.113 -7.494)" fill="#c69191"/><path d="M81.7,361.914a1.442,1.442,0,0,1-1.323,1.569c-.128.021-.288.043-.5.075a1.27,1.27,0,0,1-.128-.576l.011-2.358c.181-.021.309-.032.373-.043A1.437,1.437,0,0,1,81.7,361.914Z" transform="translate(3.11 -7.015)" fill="#c69191"/><path d="M81.363,345.91a1.473,1.473,0,0,1,1.419,1.206c-.96.139-1.931.32-2.9.544v-.309a1.46,1.46,0,0,1,1.462-1.44Z" transform="translate(3.119 -7.998)" fill="#497ea9"/><path d="M80.253,347.55l-.053,6.274c-2.614-.448-4.674-2.71-5.879-4.417A49.05,49.05,0,0,1,80.253,347.55Z" transform="translate(2.746 -7.888)" fill="#1d71b8"/><path d="M80.449,353.788l-.032,2.945c-6.05-.715-9.55-7.768-9.688-8.067a1.209,1.209,0,0,1-.139-.576,2.4,2.4,0,0,0,3.222,1.59c.245-.1.5-.192.758-.309C75.776,351.078,77.835,353.34,80.449,353.788Z" transform="translate(2.496 -7.852)" fill="#497ea9"/><path d="M74.57,349.466c-.256.117-.512.213-.758.309a2.4,2.4,0,0,1-3.222-1.59,1.435,1.435,0,0,1,.8-1.376,1.566,1.566,0,0,1,.651-.149,1.447,1.447,0,0,1,1.3.832A17.669,17.669,0,0,0,74.57,349.466Z" transform="translate(2.496 -7.948)" fill="#497ea9"/><path d="M73.416,222.712a1.447,1.447,0,0,1,1.142,1.483,1.451,1.451,0,0,0-1.142-1.334,1.487,1.487,0,0,0-1.75,1.131c-1.579,7.469-2.753,14.341-6.274,35.638a.344.344,0,0,1-.139.213c-.224-.171-.459-.341-.694-.491,2.849-15.216,6-30.25,7.106-35.51A1.487,1.487,0,0,1,73.416,222.712Z" transform="translate(2.092 -16.255)" fill="#ee7358"/><path d="M74.514,224.185a.64.64,0,0,1-.021.245c-2.251,10.627-4.962,24.029-7.266,36.439l-.971-.181c-.331-.3-.683-.576-1.046-.854a.344.344,0,0,0,.139-.213c3.521-21.3,4.695-28.169,6.274-35.638a1.487,1.487,0,0,1,1.75-1.131A1.451,1.451,0,0,1,74.514,224.185Z" transform="translate(2.136 -16.246)" fill="#e84436"/><path d="M73.978,298.86l-.011,1.163c-.854-.245-1.665-.5-2.433-.758-.245-.085-.48-.149-.7-.235v-.2a1.553,1.553,0,0,1,1.59-1.558,1.524,1.524,0,0,1,.309.032A1.592,1.592,0,0,1,73.978,298.86Z" transform="translate(2.512 -11.257)" fill="#e84436"/><path d="M73.989,299.912l-.331,49.765-1.611.181a1.566,1.566,0,0,0-.651.149,1.435,1.435,0,0,0-.8,1.376,1.934,1.934,0,0,1-.1-.672l.352-51.793c.224.085.459.149.7.235C72.325,299.411,73.136,299.667,73.989,299.912Z" transform="translate(2.49 -11.147)" fill="#497ea9"/><path d="M73.516,296.923l-.043.139A58.87,58.87,0,0,1,62.9,292.9a1.221,1.221,0,0,1-.469-.491C63.444,293.306,67.573,295.035,73.516,296.923Z" transform="translate(1.949 -11.583)" fill="#ee7358"/><path d="M73.665,297.7l-.181.566a1.524,1.524,0,0,0-.309-.032,1.553,1.553,0,0,0-1.59,1.558v.2c-10.862-3.574-11.524-5.292-11.748-5.847-.491-1.28-.277-5.122.384-10.457a1.469,1.469,0,0,0,1.056.448,1.523,1.523,0,0,0,.6-.139,1.427,1.427,0,0,0,.843-1.12l.512.064c-.469,3.436-.758,6.189-.811,8-.011.438-.011.811,0,1.131,0,.128,0,.256.011.363a1.076,1.076,0,0,0,.053.267.182.182,0,0,0,.011.075c.011.075.032.139.043.192a.614.614,0,0,0,.085.075,1.221,1.221,0,0,0,.469.491A58.863,58.863,0,0,0,73.665,297.7Z" transform="translate(1.757 -12.222)" fill="#e84436"/><path d="M66.338,258.383l.971.181c-.192,1.056-.384,2.1-.576,3.148l-.5-.1c-.79-.437-1.536-.843-2.251-1.227.192-1.056.395-2.113.587-3.169a4.131,4.131,0,0,1,.331.277.3.3,0,0,0,.395.032C65.655,257.807,66.007,258.084,66.338,258.383Z" transform="translate(2.053 -13.941)" fill="#e84436"/><path d="M66.434,261.417l.5.1c-1.611,8.8-2.977,16.923-3.8,22.951l-.512-.064a1.486,1.486,0,0,0-.128-.822,36.291,36.291,0,0,1-1.547-4.385c.854-5.687,2-12.292,3.233-19C64.9,260.574,65.645,260.98,66.434,261.417Z" transform="translate(1.85 -13.742)" fill="#e84436"/><path d="M64.562,257.05c.235.149.469.32.694.491a.3.3,0,0,1-.395-.032,4.139,4.139,0,0,0-.331-.277C64.541,257.167,64.551,257.114,64.562,257.05Z" transform="translate(2.09 -13.953)" fill="#ee7358"/><path d="M64.734,257.153c-.011.064-.021.117-.032.181a16.032,16.032,0,0,0-2.732-1.825A22.707,22.707,0,0,1,64.734,257.153Z" transform="translate(1.918 -14.056)" fill="#ee7358"/><path d="M65.573,96.094c0,3.094-1.814,5.239-3.425,5.314-1.28.053-3.628-2.636-3.628-5.709s2.347-5.068,3.628-5.068C64.068,90.354,65.573,93.011,65.573,96.094Z" transform="translate(1.687 -25.106)"/><path d="M64.428,71.465,53.16,78.486l-3.51.1c3.777-6.754,12.719-8.216,13.178-8.291A1.422,1.422,0,0,1,64.428,71.465Z" transform="translate(1.093 -26.469)" fill="#eacf83"/><path d="M62.549,282.385a1.486,1.486,0,0,1,.128.822,1.427,1.427,0,0,1-.843,1.12,1.523,1.523,0,0,1-.6.139,1.469,1.469,0,0,1-1.056-.448c.224-1.835.5-3.863.822-6.018A36.286,36.286,0,0,0,62.549,282.385Z" transform="translate(1.798 -12.549)" fill="#e84436"/><path d="M62.3,292.13a1.076,1.076,0,0,1-.053-.267c-.011-.107-.011-.235-.011-.363A4.607,4.607,0,0,0,62.3,292.13Z" transform="translate(1.936 -11.644)" fill="#ee7358"/><path d="M61.873,255.443c-1-.512-2-.95-2.913-1.323A27.6,27.6,0,0,1,61.873,255.443Z" transform="translate(1.717 -14.149)" fill="#e84436"/><path d="M54.751,257.209c.021.107,1.718.6,3.991,1.494-2.219-.822-3.969-1.248-3.991-1.344C48.626,230.3,73.263,195.119,84.574,182.39,73.946,195.5,48.637,230.224,54.751,257.209Z" transform="translate(1.37 -18.956)" fill="#ee7358"/><path d="M22.1,117.033l.437-.213a2.992,2.992,0,0,1-.32.64A1.05,1.05,0,0,0,22.1,117.033Z" transform="translate(-0.753 -23.35)" fill="#c69191"/><path d="M23.016,117.828l-.437.213a1.481,1.481,0,0,0-1.419-.822,11.292,11.292,0,0,1-1.579-.064c-1.547-3.436-4.332-14.053-4.62-14.9l1.483.309.8-.79c.3.63.576,1.206.843,1.739v.021c.117.491.235,1.024.363,1.547v.021a12.726,12.726,0,0,0,.918,4.012c.011.021.021.053.032.075a.033.033,0,0,1,.011.021A90.082,90.082,0,0,0,23.016,117.828Z" transform="translate(-1.232 -24.358)" fill="#c69191"/><path d="M22.353,117.527a1.457,1.457,0,0,1-1.344,1.558c-.043,0-.171.021-.384.021-.085-.16-.16-.32-.235-.48a2.421,2.421,0,0,0,1.942-1.206A.316.316,0,0,1,22.353,117.527Z" transform="translate(-0.868 -23.31)" fill="#c69191"/><path d="M22.288,117.076a1.05,1.05,0,0,1,.117.427,2.421,2.421,0,0,1-1.942,1.206c-.427-.886-.811-1.729-1.174-2.518a11.292,11.292,0,0,0,1.579.064A1.481,1.481,0,0,1,22.288,117.076Z" transform="translate(-0.942 -23.392)" fill="#c69191"/><path d="M21.584,109.121c.288.843-.331,5.122,1.216,8.557a90.084,90.084,0,0,1-3.607-8.611.033.033,0,0,0-.011-.021c-.053-.245-.5-2.155-.95-4.087v-.021c-.032-.3-.043-.608-.053-.928,1.024,2.081,1.718,3.244,1.761,3.329Z" transform="translate(-1.016 -24.208)" fill="#f3c8bb"/><path d="M21.616,120.318c.075.16.149.32.235.48h-.139c-2.145,0-10.371-.64-17.019-9.881-2.283-3.19-3.062-6.413-2.337-9.592,1.1-4.674,5.207-7.853,7.192-9.166.267.822.523,1.6.779,2.369-2.817,1.889-6.189,4.439-6.658,6.509-.544,2.337.085,4.759,1.857,7.213C9.452,113.714,17.465,120.745,21.616,120.318Z" transform="translate(-2.094 -25.002)" fill="#c69191"/><path d="M21.529,120.17c-4.151.427-12.164-6.6-16.091-12.068-1.771-2.454-2.4-4.876-1.857-7.213.469-2.07,3.841-4.62,6.658-6.509.053.171.117.341.171.512-1.75,1.27-4.556,3.735-5.282,6.946-.555,2.337.085,4.759,1.857,7.224,4.887,6.818,10.638,8.291,13.37,8.589C20.718,118.441,21.1,119.284,21.529,120.17Z" transform="translate(-2.007 -24.853)" fill="#c69191"/><path d="M19.18,108.987c-.011-.021-.021-.053-.032-.075a12.726,12.726,0,0,1-.918-4.012C18.678,106.831,19.126,108.741,19.18,108.987Z" transform="translate(-1.013 -24.149)" fill="#f3c8bb"/><path d="M18.2,104.049c.011.32.021.63.053.928-.128-.523-.245-1.056-.363-1.547Z" transform="translate(-1.036 -24.247)" fill="#f3c8bb"/><path d="M17.943,103.569c-.267-.534-.544-1.11-.843-1.739l.213-.213c.011-.181.011-.384.032-.587C17.356,101.041,17.612,102.161,17.943,103.569Z" transform="translate(-1.088 -24.408)" fill="#c69191"/><path d="M17.922,102.425l-.8.79-1.483-.309c.288.843,3.073,11.46,4.62,14.9-2.732-.3-8.483-1.771-13.37-8.589-1.771-2.465-2.411-4.887-1.857-7.224.726-3.212,3.532-5.677,5.282-6.946-.053-.171-.117-.341-.171-.512,1.569-1.056,2.977-1.91,3.607-2.369C15.211,96.289,16.695,99.778,17.922,102.425Z" transform="translate(-1.91 -25.002)" fill="#f3c8bb"/></g><path d="M129.383,16.05s23.058,5.89,26.825,17.222,3.767,15.845,3.767,15.845,8.824-2.3,12.143,13.2,2.347,18.577,2.347,18.577,5.847,24.157-2.347,23.261-12.708-20.7-10.457-22.919c0,0-17.926-1.654-20.807-14.629l-2.881-12.964S124.56,49.768,117.71,41.872" transform="translate(7.89 1.076)" fill="#f3db8c" stroke="#eacf83" stroke-linecap="round" stroke-linejoin="round" stroke-miterlimit="10" stroke-width="3"/><path d="M139.216,22.535c-1.419,8.333-10.766,37.2-28.03,42.051a13.963,13.963,0,0,0-6.744,4.2c-4.193,4.748-12.815,12.644-24.317,13.476a14.281,14.281,0,0,0-8.077,3.35c-4.439,3.713-12.6,9.038-22.14,8.227a14.74,14.74,0,0,0-14.96,10.137c-1,2.913-.235,7.3-4.321,7.7l-4.62.469a14.394,14.394,0,0,1-14.437-8.131C6.5,93.363.536,65.162,10.257,55.953,18.11,48.516,22.57,45.059,25.525,43.565a14.542,14.542,0,0,0,7.33-8.995c2.251-7.8,7.138-18.459,17.072-19.121a14.253,14.253,0,0,0,8.259-3.318c5-4.225,15.28-4.449,25.171-2.369A14.622,14.622,0,0,0,95.009,7.479c4.62-3.34,10.734-1.814,17.808,1.11a14.081,14.081,0,0,0,7.821.768c6.039-1.067,16.229-1.408,18.459,7.725A13.22,13.22,0,0,1,139.216,22.535Z" transform="translate(0.34 0.375)" fill="#f3db8c" stroke="#eacf83" stroke-linecap="round" stroke-linejoin="round" stroke-miterlimit="10" stroke-width="3"/><g transform="translate(90.654 30.687)"><path d="M87.564,59.159a14.81,14.81,0,0,0,9.528-.48,13.95,13.95,0,0,0,4.257-2.636c1.259-1.142,2.134-2.817,3.617-3.7,1.536-.928,3.7-.832,5.41-1.355a20.124,20.124,0,0,0,4.716-2.113,17.253,17.253,0,0,0,7-7.789,10.144,10.144,0,0,0-1.014-10.361c-.48-.63-1.334-1.814-2.187-1.953-.8-.117-.32.694-.021,1.088,2.454,3.244.726,8.195-1.408,11.108a19.235,19.235,0,0,1-10.542,7.085c-1.963.512-4.14.395-5.719,1.846-1.472,1.355-2.507,3-4.193,4.172A14.059,14.059,0,0,1,85.4,56.118c-.854-.235-.235.779-.021,1.088a4.967,4.967,0,0,0,2.187,1.953Z" transform="translate(-84.959 -28.759)" fill="#eacf83"/></g><g transform="translate(17.649 59.661)"><path d="M58.175,56.23c.085,3.414.032,7.49-2.177,10.318-2.86,3.66-7.49,2.572-11.428,1.91-1.771-.3-4.172-.907-5.719.341-1.526,1.227-2.294,3.724-3.158,5.41-.96,1.878-1.814,4.172-3.756,5.26a9.369,9.369,0,0,1-6.146.608A6.686,6.686,0,0,1,21.608,70.3c.373-.587-3.457-2.166-4.119-1.1-2.4,3.831.1,8.451,3.607,10.521,3.831,2.262,9.785,3.34,14,1.526,2.3-.992,3.308-3.148,4.385-5.271.608-1.2,1.216-2.39,1.825-3.574.544-1.067,1.131-2.507,2.507-2.561a18.64,18.64,0,0,1,3.478.576,37.724,37.724,0,0,0,3.8.491,11.855,11.855,0,0,0,6.722-1.163c4.3-2.433,4.609-8.045,4.5-12.42-.043-1.238-4.151-1.825-4.14-1.1Z" transform="translate(-16.539 -55.913)" fill="#eacf83"/></g><g transform="translate(45.993 25.313)"><path d="M84.745,25.235a38.907,38.907,0,0,0-16.027-1.142c-2.2.309-4.5.587-5.271,2.966-.832,2.572-1.408,5.26-2.1,7.875l3.991-.352c-4.2-4.247-11.919-2.55-15.2,1.91a18.217,18.217,0,0,0-3,8.835c-.2,1.8-.277,3.617-.405,5.42a24.813,24.813,0,0,1-.267,2.668,4.154,4.154,0,0,1-.437,1.376c-.075.117-.149.235-.235.363-.662.48-.352.64.939.48a3.951,3.951,0,0,0-3.02-.1c-.7.331-.886,1-.043,1.344,2.849,1.174,6.21.331,6.968-2.913.8-3.425.427-7.085,1.056-10.563.512-2.806,1.622-5.773,3.809-7.7,1.921-1.686,4.215-2.2,6.114-.277.758.758,3.649.918,3.991-.352.512-1.942,1.035-3.895,1.547-5.837a6.968,6.968,0,0,1,.886-2.678c.608-.651,1.9-.619,2.721-.715a30.456,30.456,0,0,1,11.769.971,3.56,3.56,0,0,0,2.934-.245c.715-.608-.085-1.152-.715-1.334Z" transform="translate(-43.103 -23.723)" fill="#eacf83"/></g><g transform="translate(105.845 16.212)"><path d="M102.54,21.645c3.489-2.315,8.173-5.623,12.377-2.988,1.878,1.174,3.244,2.817,5.666,2.742a8.217,8.217,0,0,0,3.425-.971,3.217,3.217,0,0,0,.79-.395c.309-.107.245-.117-.224-.043-.427-.021-.534,0-.309.075.064.405.619.117.331.768-.395.9,1.28,1.1,1.771,1.067a2.7,2.7,0,0,0,2.379-1.376,1.962,1.962,0,0,0-1.184-2.454,5.145,5.145,0,0,0-4.183-.053,12.659,12.659,0,0,1-1.8.864c-.405.085.16.139-.384-.1a4.643,4.643,0,0,1-.79-.491,18.259,18.259,0,0,0-3.393-2.23c-5.965-2.5-12.121.843-17.019,4.1-.63.416-1.206,1.163-.395,1.718a3.112,3.112,0,0,0,2.945-.235Z" transform="translate(-99.196 -15.193)" fill="#eacf83"/></g><g transform="translate(137.04 5.9)"><path d="M132.762,15.955a3.309,3.309,0,0,1-.171-1.2c0-.245.011-.48.032-.726.011-.117.032-.245.043-.363-.021.139-.011.107.032-.107A10.776,10.776,0,0,1,133.6,11.2a12.3,12.3,0,0,1,.7-1.12c.139-.2.288-.384.427-.587.139-.171.139-.181.011-.021a2.666,2.666,0,0,1,.245-.245c.181-.149.171-.16-.032-.011a2.94,2.94,0,0,1,.309-.181c-.566.277.405-.075-.2.075a8.776,8.776,0,0,1,1.494-.171c.075,0,.843-.021.437-.021.256,0,.523.011.779.032a5.321,5.321,0,0,1,.576.075c-.32-.064.363.139.427.16.213.085.235.1.075.032a2.411,2.411,0,0,1,.277.171,2.506,2.506,0,0,1,.267.2c-.128-.107-.117-.1.032.043.1.128.2.256.3.384.107.171.117.181.021.043a2.486,2.486,0,0,1,.117.3,2.622,2.622,0,0,1,.085.309c-.032-.171-.032-.16-.021.032-.021.2-.011.213.021.032a1.381,1.381,0,0,1-.085.277c.128-.235.139-.267.043-.1-.128.171-.1.128.1-.107-.277.309.395-.256.043-.021-.2.107-.139.085.181-.075a1.511,1.511,0,0,1-.235.075c.363-.075.427-.1.2-.064.341,0,.395,0,.181-.011-.2-.032-.149-.021.149.032-.181-.064-.139-.043.117.064-.149-.107-.128-.085.064.085a.92.92,0,0,1-.149-.192c-.6-.843-2.081-.726-2.849-.213a1.679,1.679,0,0,0-.758,2.379c1.387,1.953,4.492,1.334,6.007-.1a3.544,3.544,0,0,0,1.12-2.9,4.478,4.478,0,0,0-1.675-2.977c-1.8-1.526-4.545-1.483-6.754-1.206a6.265,6.265,0,0,0-3.692,1.643A11.922,11.922,0,0,0,130,10.012a9.529,9.529,0,0,0-1.28,7.33c.288,1,1.729,1.163,2.55.843a1.968,1.968,0,0,0,1.494-2.23Z" transform="translate(-128.432 -5.529)" fill="#eacf83"/></g><g transform="translate(134.238 4.505)"><path d="M126.312,6.813c-.107-.032.043.011.075.032a2.258,2.258,0,0,1,.224.117,2.882,2.882,0,0,1,.416.288,3.522,3.522,0,0,1,.576.726,9.814,9.814,0,0,1,.95,2.23,22.129,22.129,0,0,1,1.035,5.644c.043.864,1.376.5,1.857.3a4.365,4.365,0,0,0,1.408-.864c.235-.235.619-.587.6-.95a24.046,24.046,0,0,0-1.2-6.317c-.555-1.654-1.334-3.276-3.148-3.767a2.542,2.542,0,0,0-1.323.224,4.482,4.482,0,0,0-1.408.864c-.459.448-.982,1.238-.064,1.472Z" transform="translate(-125.806 -4.222)" fill="#eacf83"/></g><g transform="translate(3.151 42.143)"><path d="M24.429,39.639a38.341,38.341,0,0,1-12.388,7.672,12.929,12.929,0,0,1-2.9.694,6.542,6.542,0,0,1-1.515,0c-.117-.011-1.088-.341-1.152-.309-.021-.011-.032-.021-.053-.032q.416.464.224.16s-.235-.715-.235-.694a2.171,2.171,0,0,1,.363-1.515,2.089,2.089,0,0,1,.982-.811c.085-.032.63-.053.662-.1-.405-.341-.822-.672-1.227-1.014a1.2,1.2,0,0,1-.043.512c-.245,1.163,3.137,3.51,3.35,2.39.587-3.009-4.812-6.893-6.946-3.809-2.23,3.222,2.326,7.149,5.09,7.981,3.276.992,6.658-.437,9.539-1.889a44.5,44.5,0,0,0,9.454-6.423c.768-.672-2.273-3.639-3.2-2.817Z" transform="translate(-2.952 -39.496)" fill="#eacf83"/></g><g transform="translate(84.171 -0.004)"><path d="M91.481,6.381a25.84,25.84,0,0,1-5.058.011,5.98,5.98,0,0,1-.9-.171c-.171-.043-.352-.1-.523-.149-.448-.117.2.1-.192-.064-.171-.064-.331-.139-.5-.213s-.469-.256-.139-.064c-.149-.1-.309-.181-.459-.277-.2-.128-.2-.117.021.032-.075-.053-.139-.107-.213-.171s-.139-.117-.2-.171l.053.053c-.117-.128-.245-.256-.363-.395-.085-.107-.075-.1.021.032-.043-.064-.085-.128-.128-.2-.053-.1-.053-.1-.011,0a1.924,1.924,0,0,1-.085-.224c-.149-.437-.181-.939.277-1.206a2.754,2.754,0,0,1,.886-.267c.117-.021.373-.053.427-.053.3-.032.075.085-.032-.032a2.039,2.039,0,0,1-.939-.63.37.37,0,0,1-.128-.2c-.107-.1.053.235.053.181.011.171-.064.309-.277.512-.235.224.021.79.128.982a3.22,3.22,0,0,0,1.12,1.056c.7.405,1.718.832,2.39.192a1.907,1.907,0,0,0,.213-2.113A4.924,4.924,0,0,0,84,.288c-1.547-.544-4.556-.48-5.047,1.5-.437,1.835,1.238,3.671,2.507,4.716a12.526,12.526,0,0,0,5.452,2.55,27.021,27.021,0,0,0,7.128.181c.982-.064.523-1.227.128-1.665a3.461,3.461,0,0,0-2.689-1.2Z" transform="translate(-78.883 0.004)" fill="#eacf83"/></g><g transform="translate(-0.022 87.257)"><path d="M5.422,83.84q.048,2.321.032,4.641c-.011.779-.021,1.547-.043,2.326-.011.373-.021.736-.043,1.11l-.032.608c0,.1-.085.544.011.128-.011.053-.021.107-.032.149-.064.213-.043.2.053-.032a.8.8,0,0,0-.075.128.743.743,0,0,1,.235-.277.764.764,0,0,1,.384-.213c-.171.053-.171.053.021.011s.192-.043.011-.021c.085,0,.171.011.256.011-.064.053-.341-.043-.437-.053-.459-.064.363.149-.064-.021-.139-.053-.277-.107-.405-.171-.1-.043-.5-.277-.128-.043a6.582,6.582,0,0,1-.7-.512c-.16-.117.149.245-.032-.043-.107-.171-.224-.373-.1-.075-.053-.139-.1-.288-.149-.427.032.224.043.267.021.128a1.576,1.576,0,0,1-.011-.224c-.021-.352-.117.267.021-.085-.117.3-.053.128.064-.053a1.733,1.733,0,0,0-.864-2.5,2.406,2.406,0,0,0-2.849.982C-.692,91.181.215,93.592,1.89,94.83,3.544,96.046,6,96.75,7.855,95.555c2.017-1.291,1.707-3.991,1.75-6.071.043-2.017.043-4.033-.011-6.061-.021-2.518-4.236-1.963-4.172.416Z" transform="translate(0.022 -81.777)" fill="#eacf83"/></g><g transform="translate(141.355 18.305)"><path d="M162.751,46.524c-.32-3.489-2.689-6.285-3.2-9.731a13.263,13.263,0,0,0-1.675-5.228,17.669,17.669,0,0,0-3.681-4.087c-5.623-4.823-12.527-7.554-19.377-10.137-.822-.309-2-.331-2.294.7-.277.971.726,2.059,1.558,2.369,6.018,2.273,12.2,4.567,17.254,8.643a14.873,14.873,0,0,1,3.03,3.094c1,1.483,1.11,3.084,1.408,4.791.544,3.084,2.774,5.666,3.052,8.76.192,1.9,4.14,3.212,3.927.822Z" transform="translate(-132.476 -17.155)" fill="#eacf83"/></g><path d="M118.283,176.15s20.167,8.621,25.875,8.408,13.231-.864,15.034-1.526,5.73.651,6.061,2.454,5.42,17.147,7.224,18.673-2.5,6.391-3.542,7.373-18.086,2.657-29.044,3.82c-9.507,1.014-11.3,4.257-11.63,5.73s-4.428,4.428-4.428,4.428l-.491-3.276s4.065-1.088,4.492-4.065,9.294-6.263,12.292-6c3.478.309,29.418-1.408,29.076-4.791s2.433-2.262-.341-7.49-5.122-11.513-6.391-12.964-9.8-.907-12.751-.683a53.077,53.077,0,0,1-19.356-3.041c-7.747-2.892-13.4-5.26-13.4-5.26Z" transform="translate(7.839 11.805)" fill="#e84436" stroke="#e84436" stroke-miterlimit="10" stroke-width="0.8"/><ellipse cx="7.16" cy="7.544" rx="7.16" ry="7.544" transform="translate(53.203 119.495)" fill="#ee7358"/><ellipse cx="7.16" cy="7.544" rx="7.16" ry="7.544" transform="translate(131.617 119.495)" fill="#ee7358"/><g transform="translate(84.455 133.761)"><path d="M88.571,149.047c10.958,5.527,20.807-13.957,20.807-13.957-20.273,4.023-30.132-9.72-30.132-9.72S77.6,143.52,88.571,149.047Z" transform="translate(-79.149 -125.359)" fill="#f3c8bb"/><path d="M98.012,145.372a.4.4,0,0,1-.064.662c-1.963,1.142-8.557,3.948-14.693-3.542a.416.416,0,0,1,.3-.651c2.038-.309,8.611-1.1,12.42,1.9C97.062,144.594,97.67,145.084,98.012,145.372Z" transform="translate(-78.88 -124.278)" fill="#e30613"/><path d="M109.378,135.08s-9.849,19.494-20.807,13.957-9.336-23.677-9.336-23.677S89.105,139.1,109.378,135.08ZM98.218,147.116a.4.4,0,0,0,.064-.662c-.341-.288-.95-.779-2.049-1.633-3.8-3.009-10.382-2.219-12.42-1.9a.418.418,0,0,0-.3.651C89.671,151.054,96.254,148.247,98.218,147.116Z" transform="translate(-79.149 -125.36)" fill="#fff"/><path d="M83.255,142.482c6.146,7.49,12.729,4.684,14.693,3.542a.4.4,0,0,0,.064-.662c-.341-.288-.95-.779-2.049-1.633-3.8-3.009-10.382-2.219-12.42-1.9A.419.419,0,0,0,83.255,142.482Z" transform="translate(-78.88 -124.279)" fill="none" stroke="#e30613" stroke-miterlimit="10" stroke-width="2.249"/><path d="M79.245,125.37s9.87,13.743,30.132,9.72c0,0-9.849,19.494-20.807,13.957S79.245,125.37,79.245,125.37Z" transform="translate(-79.149 -125.359)" fill="none" stroke="#c69191" stroke-linecap="round" stroke-linejoin="round" stroke-miterlimit="10" stroke-width="2.249"/><path d="M80.756,133.578s12.857,8.269,23.389,7.106l2.934-4.353S91.49,138.668,80.34,128.19Z" transform="translate(-79.07 -125.17)" fill="#ededed"/></g><g transform="translate(121.577 222.152)"><path d="M120.854,215.061l-.331,3.468-6.583.512c.032-1.814.064-3.628.107-5.42s.085-3.607.149-5.42h4.065c-.117,1.142-.235,2.283-.341,3.414s-.192,2.283-.235,3.446c.245.011.491.011.726.011h.726c.288,0,.576,0,.864-.011Z" transform="translate(-113.94 -208.2)" fill="#fff"/></g></g></svg>