<svg xmlns="http://www.w3.org/2000/svg" width="53.564" height="47.893" viewBox="0 0 53.564 47.893"><g transform="translate(0 1.038)"><path d="M209.261,181.947c2.379-.245,3.542,2.177,2.358,3.542-1.024,1.184-11.172,1.7-13.839,1.579s-8.515-1.739-12.505,1.28l-22.439,17.883c-3.574-3.233-2.347-11.076-3.276-12.591l16.912-14.362c1.622-1.174.651-5.228.651-5.228s-1.206-6.338-.192-7.224.171-4.076,1.739-4.364,3.607,2.646,3.585,3.671.64,4.119-.149,5.239c4.887,2.454,11.833-9.8,15.408-11.545s4.215,2.219,3.329,3.212c-.832.939-8.878,9.592-7.256,9.678s11.534-6.8,11.534-6.8c2.785-.939,3.169,2.646,2.1,3.639s-11.78,8.205-11.4,8.4,11.076-2.774,12.377-3.767,4.524,1.248,3.094,3.212c-1.152,1.611-9.72,4.289-12.825,5.218a.121.121,0,0,0,.053.235C201.184,182.64,207.415,182.139,209.261,181.947Z" transform="translate(-159.56 -159.377)" fill="#f3c8bb"/><path d="M167.61,202.829c-.032,1,15.162-14.01,17.126-14.49a48.885,48.885,0,0,1,12.505-1.28c2.678.117,12.826-.395,13.839-1.579,1.184-1.376.011-3.788-2.358-3.542-1.857.192-8.088.694-10.713.907a.121.121,0,0,1-.053-.235c3.105-.928,11.673-3.607,12.826-5.218,1.43-1.974-1.782-4.2-3.094-3.212s-11.993,3.948-12.377,3.767,10.329-7.416,11.4-8.4.672-4.577-2.1-3.639c0,0-9.913,6.893-11.534,6.8s6.434-8.739,7.256-9.678c.886-.992.245-4.962-3.329-3.212s-10.521,14-15.408,11.545" transform="translate(-159.021 -159.378)" fill="none" stroke="#c69191" stroke-linecap="round" stroke-linejoin="round" stroke-miterlimit="10" stroke-width="1.957"/><path d="M181.841,171.191c.779-1.12.117-4.2.149-5.239s-2.027-3.969-3.585-3.671-.715,3.457-1.739,4.364c-1.024.886.192,7.224.192,7.224s.971,4.055-.651,5.228c0,0-10.169,10.617-12.377,11.15" transform="translate(-159.274 -159.185)" fill="none" stroke="#c69191" stroke-linecap="round" stroke-linejoin="round" stroke-miterlimit="10" stroke-width="1.957"/><path d="M163.95,187.94" transform="translate(-159.266 -157.464)" fill="#f3c8bb"/></g></svg>