<svg xmlns="http://www.w3.org/2000/svg" width="148.611" height="315.748" viewBox="0 0 148.611 315.748"><path d="M23.21,331.13" transform="translate(-3.837 -54.633)" fill="none" stroke="#000" stroke-linecap="round" stroke-linejoin="round" stroke-miterlimit="10" stroke-width="1.5"/><path d="M122.4,329.37" transform="translate(-20.203 -54.343)" fill="none" stroke="#000" stroke-linecap="round" stroke-linejoin="round" stroke-miterlimit="10" stroke-width="1.865"/><path d="M87.78,177.11" transform="translate(-14.491 -29.22)" fill="none" stroke="#000" stroke-linecap="round" stroke-linejoin="round" stroke-width="0.5"/><path d="M146.347,255.66s-2.129,8.1-9.344,10.2l-.893-4.543Z" transform="translate(-22.465 -42.181)" fill="#ee7358" stroke="#e84436" stroke-linecap="round" stroke-linejoin="round" stroke-miterlimit="10" stroke-width="2"/><path d="M141.9,257.838a51.721,51.721,0,0,1-7.807,21.819l-6.388-.442,6.655-22.654Z" transform="translate(-21.078 -42.329)" fill="#f3c8bb" stroke="#c69191" stroke-linecap="round" stroke-linejoin="round" stroke-miterlimit="10" stroke-width="2.615"/><g transform="translate(1.738 24.026)"><path d="M171.974,95.3a9.387,9.387,0,0,1,3.115,8.091c-1.595,11.439-13.535,12.442-13.828,12.5a.744.744,0,0,1-.234.025.284.284,0,0,1-.117-.017c.05-.251.092-.493.134-.743.092-.217.184-.426.267-.635,2.288-.134,7.657-.626,11.49-9.135a6.277,6.277,0,0,0-.309-5.519.35.35,0,0,0-.033-.084,7.9,7.9,0,0,0-.61-1.219l-.008-.008c-.042-.075-.084-.159-.125-.234a6.025,6.025,0,0,0-4.534-2.964,1.056,1.056,0,0,1-.234-.025c.083-.468.159-.927.225-1.386A6.6,6.6,0,0,1,171.974,95.3Z" transform="translate(-28.295 -39.52)" fill="#c69191"/><path d="M172.663,100.3a6.509,6.509,0,0,1,.418,3.215c-1.052,7.548-8.809,9.611-11.131,10.329,1.01-2.48,1.9-4.977,2.647-7.465.058-.159.1-.317.15-.476.518-1.662.96-3.3,1.3-4.91q.513-2.167.9-4.3c0-.017.008-.042.008-.058a4.833,4.833,0,0,1,3.749.768,6.811,6.811,0,0,1,1.3,1.587l.008.008c.184.376.4.785.61,1.219A.346.346,0,0,1,172.663,100.3Z" transform="translate(-28.467 -39.955)" fill="#f3c8bb"/><path d="M172.988,104.255a6.508,6.508,0,0,0-.418-3.215,6.277,6.277,0,0,1,.309,5.519c-3.833,8.509-9.2,9-11.49,9.135.167-.376.317-.743.468-1.111C164.179,113.866,171.936,111.8,172.988,104.255Z" transform="translate(-28.374 -40.694)" fill="#f3c8bb"/><path d="M172.876,98.6c.042.075.083.159.125.234a6.812,6.812,0,0,0-1.3-1.586,4.833,4.833,0,0,0-3.749-.768c.059-.292.109-.576.159-.868a1.057,1.057,0,0,0,.234.025A6.025,6.025,0,0,1,172.876,98.6Z" transform="translate(-29.457 -39.798)" fill="#f3c8bb"/><path d="M169.54,70.53c-.109.559-.209,1.085-.309,1.545a2.272,2.272,0,0,1-.342.843.475.475,0,0,1-.109.008,5.161,5.161,0,0,0-.058-.518,1.094,1.094,0,0,0-1-.96,1.1,1.1,0,0,1,.718-.676A6.445,6.445,0,0,1,169.54,70.53Z" transform="translate(-29.419 -35.66)" fill="#936037"/><path d="M168.437,73.433a64.376,64.376,0,0,1-.493,17.026c-.025.008-.042.017-.067.025-.276.017-.534.05-.768.084-.017.083-.033.159-.05.234a1.051,1.051,0,0,0-.468.726l-1-.175a63.65,63.65,0,0,0,.593-18.27.817.817,0,0,1-.008-.142,1.4,1.4,0,0,0,1.361.944A1.3,1.3,0,0,0,168.437,73.433Z" transform="translate(-29.067 -36.058)" fill="#c69191"/><path d="M169.1,73.39a1.476,1.476,0,0,1-.1.117.077.077,0,1,1,.1-.117Z" transform="translate(-29.628 -36.132)" fill="#936037"/><path d="M168.545,73.107a.477.477,0,0,1,.008.109,1.3,1.3,0,0,1-.9.451,1.4,1.4,0,0,1-1.361-.944v-.017a1.111,1.111,0,0,1,.969-1.077,1.016,1.016,0,0,1,.225,0,1.124,1.124,0,0,0-.017.685A1.107,1.107,0,0,0,168.545,73.107Z" transform="translate(-29.183 -35.841)" fill="#936037"/><path d="M168.768,73.108a1.107,1.107,0,0,1-1.077-.793,1.123,1.123,0,0,1,.017-.685,1.094,1.094,0,0,1,1,.96A5.158,5.158,0,0,1,168.768,73.108Z" transform="translate(-29.406 -35.842)" fill="#936037"/><path d="M168.4,93.92v.025h-.067C168.355,93.937,168.372,93.928,168.4,93.92Z" transform="translate(-29.519 -39.52)" fill="#c69191"/><path d="M168.107,93.95h.067c-.067.459-.142.918-.225,1.386h-.017a1.879,1.879,0,0,1-.175.1c-.033.259-.058.518-.1.785a.106.106,0,0,1-.05.008H167.6a1.125,1.125,0,0,1-.618-.451c.017-.058.033-.125.05-.192.084-.392.175-.843.259-1.319a1.266,1.266,0,0,1,.392-.167A2.325,2.325,0,0,0,168.107,93.95Z" transform="translate(-29.297 -39.525)" fill="#c69191"/><path d="M168.082,95.61c-.05.292-.1.576-.159.868-.05.008-.092.008-.134.017.042-.267.067-.526.1-.785a1.882,1.882,0,0,0,.175-.1Z" transform="translate(-29.43 -39.799)" fill="#f3c8bb"/><path d="M167.924,96.65c0,.017-.008.042-.008.058a.665.665,0,0,1-.125-.025v-.017C167.832,96.658,167.874,96.658,167.924,96.65Z" transform="translate(-29.43 -39.97)" fill="#f3c8bb"/><path d="M167.637,96.69a.667.667,0,0,0,.125.025q-.388,2.129-.9,4.3Q167.361,98.811,167.637,96.69Z" transform="translate(-29.277 -39.977)" fill="#f3c8bb"/><path d="M168.168,93.95a2.329,2.329,0,0,1-.426.15,1.266,1.266,0,0,0-.392.167c.017-.075.033-.15.05-.234C167.634,94,167.893,93.967,168.168,93.95Z" transform="translate(-29.358 -39.525)" fill="#c69191"/><path d="M167.78,96.67v.017a.106.106,0,0,1-.05-.008A.106.106,0,0,0,167.78,96.67Z" transform="translate(-29.42 -39.973)" fill="#c69191"/><path d="M155.949,96.4a.106.106,0,0,0,.05.008q-.276,2.117-.777,4.325-.564,2.442-1.3,4.91c-.05.159-.092.317-.15.476a70.639,70.639,0,0,1-2.914,7.548,1.926,1.926,0,0,0-.209.075c-.025.192-.058.392-.092.593l-.175.376a.589.589,0,0,0,.117-.008c-.033.209-.067.418-.109.626a73.571,73.571,0,0,1-14.471,22.011c-6.613,6.789-17.7,11.039-31.663,12.2v-.134a1.144,1.144,0,1,0-2.288,0v.3c-1.47.092-2.964.142-4.492.159v-.459a1.146,1.146,0,0,0-1.144-1.144v-.61c14.846,0,29.634-3.248,38.009-11.857q1.791-1.841,3.424-3.824c.276-.326.543-.651.8-.985.276-.351.551-.7.818-1.052.234-.3.459-.6.676-.91.251-.326.493-.66.726-.994.1-.142.192-.276.292-.417.234-.334.459-.668.685-1s.434-.651.643-.977c.359-.543.7-1.094,1.035-1.645s.668-1.1.985-1.662c.067-.109.134-.217.192-.334.317-.551.626-1.111.935-1.678.008-.008.008-.025.017-.042.342-.626.668-1.261.985-1.9s.626-1.269.927-1.912a.249.249,0,0,0,.033-.067c.292-.618.568-1.244.835-1.87.292-.643.568-1.294.818-1.946.276-.651.526-1.3.768-1.954.726-1.912,1.369-3.841,1.937-5.77.217-.7.409-1.394.593-2.1q.263-.977.5-1.954c.15-.618.292-1.236.426-1.845.033-.125.058-.251.084-.376.092-.443.184-.885.267-1.319.058-.292.117-.584.167-.877q.138-.7.251-1.4l1,.175a.848.848,0,0,0,0,.409,1.16,1.16,0,0,0,.159.376,2.094,2.094,0,0,1-.292.643.411.411,0,0,0,.175-.033,5.731,5.731,0,0,1,.743-.159Z" transform="translate(-17.639 -39.696)" fill="#c69191"/><path d="M167.253,94.33c-.083.476-.175.927-.259,1.319-.017.067-.033.134-.05.192a1.16,1.16,0,0,1-.159-.376.847.847,0,0,1,0-.409A1.05,1.05,0,0,1,167.253,94.33Z" transform="translate(-29.26 -39.587)" fill="#c69191"/><path d="M166.922,96.14a1.125,1.125,0,0,0,.618.451,5.778,5.778,0,0,0-.735.159.411.411,0,0,1-.175.033A2.1,2.1,0,0,0,166.922,96.14Z" transform="translate(-29.239 -39.886)" fill="#c69191"/><path d="M141.859,65.794a63.653,63.653,0,0,1-.593,18.27q-.113.7-.251,1.4c-.05.292-.109.584-.167.877-.083.434-.175.877-.267,1.319-.025.125-.05.25-.084.376-.134.61-.276,1.227-.426,1.845q-.238.977-.5,1.954c-.184.7-.376,1.394-.593,2.1-.568,1.92-1.211,3.849-1.937,5.77-.251.651-.5,1.3-.768,1.954s-.534,1.3-.818,1.946c-.267.626-.551,1.252-.835,1.87a.25.25,0,0,1-.033.067c-.3.643-.61,1.278-.927,1.912s-.651,1.269-.985,1.9c-.008.017-.008.033-.017.042-.309.568-.618,1.127-.935,1.678-.058.117-.125.225-.192.334-.317.559-.643,1.111-.985,1.662s-.676,1.1-1.035,1.645c-.209.326-.426.651-.643.977-.225.342-.459.668-.685,1-.1.142-.192.276-.292.417-.242.334-.476.668-.726.994-.217.309-.443.61-.676.91-.267.351-.543.7-.818,1.052-.259.334-.526.66-.8.985q-1.628,1.979-3.424,3.824c-8.375,8.609-23.163,11.857-38.009,11.857-15.114-.017-30.285-3.39-38.794-7.941-11.59-6.179-19.1-18.98-22.854-26.87-1.2-2.689-.718-6.045-.952-6.705l-1.278-1.386c-.025-.058-.568-.985-1.378-2.614-.217-7.248,4.559-17.552,10.538-18.587,2.722-.468,9.06-.685,14.83-.843a9.013,9.013,0,0,0-.259,1.2,1.105,1.105,0,0,0,.918,1.253c.058,0,.109.008.167.008a1.111,1.111,0,0,0,1.094-.935,7.324,7.324,0,0,1,.417-1.595C58.8,71.363,70.65,66.095,76.37,61.8c8.074-6.062,31.1-26.762,33.509-33.033,4.626,2.138,28.474,26.678,31.88,36.657a1.817,1.817,0,0,0,.092.225A.808.808,0,0,0,141.859,65.794Zm-20.533,5.92a1.085,1.085,0,0,0,.4-1.495c-4.108-7.265-13.828-5.277-14.237-5.185a1.111,1.111,0,0,0-.852,1.311,1.09,1.09,0,0,0,1.3.835c.092-.008,8.55-1.753,11.874,4.117a1.115,1.115,0,0,0,1.511.418Zm-9.728,12.5c0-2.213-1-4.15-2.33-4.275a.7.7,0,0,0-.225-.033.861.861,0,0,0-.342.067.359.359,0,0,1-.042.008,4.019,4.019,0,0,0-2.589,3.916c0,2.413,1.837,4.509,2.831,4.467a1.451,1.451,0,0,0,.326-.042C110.4,88.022,111.6,86.418,111.6,84.214ZM90.456,100.4a1.1,1.1,0,0,0,.843-1.311c-.175-.827-2.054-6.087-5.72-8.45a4.32,4.32,0,0,0-3.348-.651c-5.678,1.236-8.008,8.208-8.125,8.592a1.1,1.1,0,0,0,2.129.584c.626-2.28,2.814-6.237,6.471-7.031a2.127,2.127,0,0,1,1.67.351,12.929,12.929,0,0,1,4.768,7.064,1.1,1.1,0,0,0,1.077.868C90.3,100.413,90.373,100.4,90.456,100.4Zm-4.033,24.282a.854.854,0,0,0,.643-1.152c-3.257-7.006-11.2-8.216-16.257-8.216a28.9,28.9,0,0,0-4.492.326.91.91,0,0,0-.835,1.06,1.118,1.118,0,0,0,1.311.676,27.474,27.474,0,0,1,7.64-.067c5.244.726,8.8,3.031,10.571,6.855A1.21,1.21,0,0,0,86.423,124.678ZM54.693,88.473c1.269-.05,2.689-1.737,2.689-4.158,0-2.4-1.177-4.492-2.689-4.267-1,0-2.839,1.553-2.839,3.958S53.691,88.523,54.693,88.473Z" transform="translate(-4.743 -28.77)" fill="#f3c8bb"/><path d="M165.09,97.547c.058-.292.117-.585.167-.877C165.207,96.962,165.148,97.255,165.09,97.547Z" transform="translate(-28.985 -39.973)" fill="#c69191"/><path d="M164.544,108.32c-.751,2.488-1.637,4.985-2.647,7.465-.1.033-.192.058-.267.084A70.626,70.626,0,0,0,164.544,108.32Z" transform="translate(-28.414 -41.896)" fill="#f3c8bb"/><path d="M161.559,117.344c.075-.025.167-.05.267-.083-.15.367-.3.735-.468,1.111a1.066,1.066,0,0,1-.159.008c.025-.125.042-.242.058-.367C161.359,117.786,161.459,117.569,161.559,117.344Z" transform="translate(-28.343 -43.371)" fill="#f3c8bb"/><path d="M161.571,117.36c-.1.225-.2.443-.3.668.033-.2.067-.4.092-.593A1.922,1.922,0,0,1,161.571,117.36Z" transform="translate(-28.355 -43.387)" fill="#c69191"/><path d="M161.179,118.6a1.066,1.066,0,0,0,.159-.008c-.083.209-.175.417-.267.635C161.112,119.016,161.145,118.807,161.179,118.6Z" transform="translate(-28.321 -43.59)" fill="#c69191"/><path d="M161.235,118.16c-.017.125-.033.242-.058.367a.591.591,0,0,1-.117.008Z" transform="translate(-28.32 -43.519)" fill="#f3c8bb"/><path d="M129.271,197.373c8.584,14.7,12.35,27.513,11.214,38.093a31.948,31.948,0,0,1-1.119,4.918c-.167.593-.326,1.169-.476,1.72-1.612,6.329-9.569,1.428-10.905,4.309a1.235,1.235,0,0,1-.459.526c-.025-.1-.042-.192-.058-.292-.225-1.186-.443-2.38-.668-3.582,7.173-.05,5.937.234,9.235-1.244a1.143,1.143,0,0,0,.618-.726q.163-.614.351-1.252a30.374,30.374,0,0,0,1.035-4.517c.1-.885.159-1.779.175-2.689.017-.827.008-1.653-.033-2.5-.81-17.877-14.679-38.736-23.889-50.1a1.278,1.278,0,0,0-.359-.317l-.1-.125a1.1,1.1,0,0,0-1.887.342l-.075.2a1.453,1.453,0,0,0-.15.276,16.509,16.509,0,0,1-4.6,6.129c-5.478,4.593-12.249,4.534-18.1-.159q-3.97-3.181-4.918-6.3a1.549,1.549,0,0,1,.3-1.436c.017-.017.025-.033.033-.042.234-.275.451-.534.651-.76.81-.952,1.286-1.478,1.328-1.52s.083-.109.134-.175l.225.134a4.565,4.565,0,0,0-.443,1.219c-.384,2.071,1.035,4.409,4.217,6.956,7.039,5.628,12.826,2.021,14.988.2,3.749-3.148,5.344-7.715,4.267-9.694-.1-.175-.2-.351-.309-.509l.033-.017a2.568,2.568,0,0,1,.593,1.211,1.231,1.231,0,0,0,1.219,1.052,1.178,1.178,0,0,0,.175-.008,1.235,1.235,0,0,0,1.044-1.4,4.848,4.848,0,0,0-.843-2.046A154.18,154.18,0,0,1,129.271,197.373Z" transform="translate(-15.61 -52.609)" fill="#e84436"/><path d="M149.92,133.862c.225-.334.459-.66.685-1C150.379,133.194,150.154,133.528,149.92,133.862Z" transform="translate(-26.482 -45.945)" fill="#c69191"/><path d="M148.7,135.554c.251-.326.484-.66.726-.994C149.193,134.894,148.951,135.228,148.7,135.554Z" transform="translate(-26.28 -46.225)" fill="#c69191"/><path d="M63.329,244.441a.231.231,0,0,0,.1-.167c1.728-10.421.192-4.651-.868-.376a19.668,19.668,0,0,0-1.979-1.152,1.425,1.425,0,0,0-.192-.1,22.7,22.7,0,0,0-2.338-1.06c-.125-.05-.259-.1-.384-.15-1.77-.71-3.106-1.094-3.123-1.169a31.714,31.714,0,0,1-.726-5.979c-.017-.9-.008-1.8.042-2.714,1.085-20.307,18.462-43.061,25.05-50.994.4,2.338,2.113,4.726,5.119,7.131,5.853,4.7,12.625,4.751,18.1.167a16.313,16.313,0,0,0,4.751-6.53,1.5,1.5,0,0,1,2.062-.417c9.185,11.222,23.363,32.323,24.248,50.417.042.843.05,1.67.033,2.5-.025.86-.084,1.72-.175,2.564a30.234,30.234,0,0,1-1.035,4.526c-.1.342-.2.685-.292,1.019a1.533,1.533,0,0,1-.935,1.027c-4.2,1.595-2.705.392-8.868,1.152a.292.292,0,0,0-.125.058c-2.154-11.481-4.392-23.664-5.06-30.352a1.144,1.144,0,0,0-2.28.184.559.559,0,0,0,0,.167c.5,5.035,1.87,13.068,3.432,21.585-.3.885.084,2.43.726,3.949.534,2.906,1.086,5.828,1.62,8.667,1.278,6.8,2.513,13.318,3.282,18.019.376,2.28.651,4.125.76,5.369.008.15.025.3.033.451a7.679,7.679,0,0,1-.008.877,8.6,8.6,0,0,1-3.833,6.713,18.841,18.841,0,0,1-5.494,2.313c-5.436,1.436-12.391,1.4-19.489.6a142.252,142.252,0,0,1-25.81-5.62c-4.643-1.486-7.874-2.839-8.667-3.532a1.023,1.023,0,0,1-.1-.217.124.124,0,0,1-.008-.058,3.894,3.894,0,0,1-.05-.5c-.008-.25-.017-.551,0-.893.05-1.419.267-3.524.626-6.121.1-.735.184-1.394.259-2q.025-.225.05-.426c1.094-8.225-.008-1.144,2.948-15.047a1.139,1.139,0,0,0-.643-1.269A.142.142,0,0,1,64.1,247a1.142,1.142,0,0,0-.885-1.353,1.154,1.154,0,0,0-1.227.534c.15-.593.342-1.361.543-2.171.167.125.334.267.493.409A.253.253,0,0,0,63.329,244.441Z" transform="translate(-10.624 -53.818)" fill="#ee7358"/><path d="M146.486,246.933c.092-.843.15-1.7.175-2.563-.017.91-.075,1.8-.175,2.689a30.382,30.382,0,0,1-1.035,4.517q-.188.639-.351,1.252a1.142,1.142,0,0,1-.618.726c-3.3,1.478-2.062,1.194-9.235,1.244a.3.3,0,0,1-.017-.083.29.29,0,0,1,.125-.058c6.162-.76,4.668.443,8.868-1.152a1.533,1.533,0,0,0,.935-1.027c.092-.334.192-.676.292-1.019A30.236,30.236,0,0,0,146.486,246.933Z" transform="translate(-24.058 -64.344)" fill="#ee7358"/><path d="M139.2,77.323a1.085,1.085,0,0,1-.4,1.495,1.115,1.115,0,0,1-1.511-.417c-3.323-5.87-11.782-4.125-11.874-4.117a1.09,1.09,0,0,1-1.3-.835,1.111,1.111,0,0,1,.852-1.311C125.376,72.046,135.1,70.058,139.2,77.323Z" transform="translate(-22.22 -35.873)" fill="#f3db8c"/><path d="M138.646,288.366a10.947,10.947,0,0,1-4.835,10.279,19.307,19.307,0,0,1-5.093,2.254,1.256,1.256,0,0,0-1.2-1.211h-.033c-.075,0-.159.017-.242.025l-.15-.559a18.672,18.672,0,0,0,5.469-2.3,8.544,8.544,0,0,0,3.833-6.83,7.674,7.674,0,0,0,.008-.877c-.008-.192-.017-.376-.033-.568-.109-1.244-.384-3.09-.76-5.369l.735-.125a1.2,1.2,0,0,0,.7.935,1.094,1.094,0,0,0,.509.125,1.178,1.178,0,0,0,.5-.109h.008C138.337,285.827,138.546,287.288,138.646,288.366Z" transform="translate(-22.715 -70.731)" fill="#e84436"/><path d="M139.872,283.384c0,.025.008.042.008.067a1.179,1.179,0,0,1-.5.109,1.094,1.094,0,0,1-.509-.125,1.2,1.2,0,0,1-.7-.935,1.341,1.341,0,0,1,.1-.693c.209-.443.518-1.227.868-2.246.317,1.67.568,2.981.685,3.565a.091.091,0,0,1,.008.042A2.032,2.032,0,0,0,139.872,283.384Z" transform="translate(-24.541 -70.15)" fill="#e84436"/><path d="M140.185,284c.008.033.008.067.017.1a2.028,2.028,0,0,1-.042-.217C140.168,283.922,140.177,283.964,140.185,284Z" transform="translate(-24.871 -70.863)" fill="#e84436"/><path d="M140.053,283.248c-.008-.033-.017-.075-.025-.117a.091.091,0,0,0-.008-.042c-.109-.618-.351-1.929-.66-3.624a.727.727,0,0,1,.042-.125C139.652,280.76,139.869,282.07,140.053,283.248Z" transform="translate(-24.739 -70.114)" fill="#e84436"/><path d="M138.847,276.4a.728.728,0,0,0-.042.125c-.785-4.192-2.012-10.738-2.806-14.972a.377.377,0,0,0,.1-.05C137.144,267.061,138.121,272.213,138.847,276.4Z" transform="translate(-24.185 -67.17)" fill="#e84436"/><path d="M139.355,279.49c.309,1.7.551,3.006.66,3.624-.117-.585-.367-1.9-.685-3.565A.4.4,0,0,0,139.355,279.49Z" transform="translate(-24.734 -70.138)" fill="#e84436"/><path d="M138.794,276.532a.411.411,0,0,1-.025.058c-1.044-5.511-2.839-14.938-2.839-15a.21.21,0,0,0,.058-.033C136.782,265.793,138.009,272.34,138.794,276.532Z" transform="translate(-24.173 -67.18)" fill="#e84436"/><path d="M138.031,274.933c-.351,1.019-.66,1.8-.868,2.246a1.342,1.342,0,0,0-.1.693l-.735.125c-.768-4.7-2-11.222-3.282-18.019-.518-2.772-1.06-5.62-1.587-8.459.96,2.255,2.455,4.459,3.048,4.459h.05a.116.116,0,0,0-.017.092c.109.585.367,1.987.71,3.833a.21.21,0,0,1-.058.033C135.192,260,136.988,269.422,138.031,274.933Z" transform="translate(-23.436 -65.523)" fill="#e84436"/><path d="M137.081,283.349c.017.192.025.376.033.568-.008-.15-.025-.3-.033-.451-.109-1.244-.384-3.089-.76-5.369-.768-4.7-2-11.222-3.282-18.019-.534-2.839-1.086-5.762-1.62-8.667.008.033.025.058.033.092.526,2.839,1.069,5.686,1.587,8.459,1.278,6.8,2.513,13.318,3.282,18.019C136.7,280.259,136.973,282.1,137.081,283.349Z" transform="translate(-23.429 -65.505)" fill="#e84436"/><path d="M135.9,260.442c.017.1.033.192.058.292a.372.372,0,0,1-.1.05c-.342-1.845-.6-3.248-.71-3.833a.116.116,0,0,1,.017-.092h.067C135.458,258.062,135.675,259.256,135.9,260.442Z" transform="translate(-24.044 -66.405)" fill="#e84436"/><path d="M135.22,256.76a.3.3,0,0,0,.017.083h-.067A.173.173,0,0,1,135.22,256.76Z" transform="translate(-24.048 -66.388)" fill="#e84436"/><path d="M129.88,242.11c-1.561-8.55-2.931-16.617-3.44-21.668v-.05a1.144,1.144,0,0,1,2.28-.184c.668,6.688,2.906,18.871,5.06,30.352a.174.174,0,0,0-.05.083h-.05c-.593,0-2.088-2.2-3.048-4.459C130.381,244.815,130.13,243.454,129.88,242.11Z" transform="translate(-22.607 -60.188)" fill="#e84436"/><path d="M132.554,298.1a8.6,8.6,0,0,0,3.833-6.713,8.544,8.544,0,0,1-3.833,6.83,18.674,18.674,0,0,1-5.469,2.3l-.025-.109A18.836,18.836,0,0,0,132.554,298.1Z" transform="translate(-22.71 -72.102)" fill="#e84436"/><path d="M131.31,250.715c-.008-.033-.025-.058-.033-.092-.251-1.328-.493-2.647-.726-3.95,0-.017,0-.025.008-.033C130.809,247.984,131.059,249.345,131.31,250.715Z" transform="translate(-23.286 -64.718)" fill="#ee7358"/><path d="M130.529,246.68c.234,1.3.476,2.622.726,3.95C130.613,249.11,130.229,247.565,130.529,246.68Z" transform="translate(-23.265 -64.725)" fill="#ee7358"/><path d="M129.879,242.348c-.008.008-.008.017-.008.033-1.561-8.517-2.931-16.55-3.432-21.585a.558.558,0,0,1,0-.167v.05C126.948,225.732,128.318,233.8,129.879,242.348Z" transform="translate(-22.606 -60.427)" fill="#e84436"/><path d="M128.687,94.214c0,2.255-.985,3.983-1.921,4.192a.7.7,0,0,1-.184.025c-1,0-2.113-1.8-2.113-4.217,0-2.113.843-3.741,1.728-4.125a.362.362,0,0,0,.042-.008.824.824,0,0,1,.2-.025,1.092,1.092,0,0,1,.367-.008C127.735,90.3,128.687,91.993,128.687,94.214Z" transform="translate(-22.283 -38.879)"/><path d="M127.22,98.408c.935-.209,1.92-1.937,1.92-4.192,0-2.221-.952-3.916-1.879-4.167,1.328.125,2.33,2.062,2.33,4.275s-1.194,3.808-2.371,4.108Z" transform="translate(-22.736 -38.881)"/><path d="M128.4,304.42v.058l-.785,35.346a.551.551,0,0,1-.008.117,1.09,1.09,0,0,0-.985-.693,1.219,1.219,0,0,0-.818.3l-.626-.526.751-33.976C126.783,304.871,127.61,304.662,128.4,304.42Z" transform="translate(-22.4 -74.252)" fill="#497ea9"/><path d="M128.552,304.181c-.793.242-1.62.451-2.472.626l.008-.626a1.251,1.251,0,0,1,.985-1.186c.083-.008.167-.025.242-.025h.033A1.256,1.256,0,0,1,128.552,304.181Z" transform="translate(-22.548 -74.013)" fill="#e84436"/><path d="M126.907,346.96a.986.986,0,0,1,.1.493c-.134,3.048-4.977,5.72-5.945,6.221a.562.562,0,0,1-.142.05l.025-2.622a12.983,12.983,0,0,0,3.123-2.48,2.016,2.016,0,0,0,1.829-.067A1.965,1.965,0,0,0,126.907,346.96Z" transform="translate(-21.697 -81.271)" fill="#497ea9"/><path d="M127.529,346.823a1.965,1.965,0,0,1-1.01,1.595,2.017,2.017,0,0,1-1.829.067,2.226,2.226,0,0,0,.651-1.269,1.178,1.178,0,0,1,.384-.785,1.219,1.219,0,0,1,.818-.3A1.09,1.09,0,0,1,127.529,346.823Z" transform="translate(-22.319 -81.134)" fill="#497ea9"/><path d="M123.227,302.33l.15.559a1.251,1.251,0,0,0-.985,1.186l-.008.626a47.743,47.743,0,0,1-9.611.86c-2.58,0-5.252-.142-7.949-.409l-.075-1.211c-.033-.559-.518-.785-1.069-.835l.017-.167h.017c7.1.8,14.053.835,19.489-.6C123.211,302.338,123.219,302.33,123.227,302.33Z" transform="translate(-18.852 -73.907)" fill="#e84436"/><path d="M127.158,90.043a1.091,1.091,0,0,0-.367.008.824.824,0,0,0-.2.025.86.86,0,0,1,.342-.067A.7.7,0,0,1,127.158,90.043Z" transform="translate(-22.632 -38.875)"/><path d="M126.6,98.417v.025a1.45,1.45,0,0,1-.326.042c-.994.042-2.831-2.054-2.831-4.467a4.019,4.019,0,0,1,2.588-3.916c-.885.384-1.728,2.012-1.728,4.125,0,2.413,1.111,4.217,2.113,4.217A.7.7,0,0,0,126.6,98.417Z" transform="translate(-22.113 -38.889)"/><path d="M123.206,302.2l.025.109c-.008,0-.017.008-.025.008-5.436,1.436-12.391,1.4-19.489.6H103.7l.017-.117C110.814,303.6,117.77,303.636,123.206,302.2Z" transform="translate(-18.855 -73.886)" fill="#e84436"/><path d="M122.61,305.17l-.751,33.976a11.39,11.39,0,0,0-4.593-1.228,14.7,14.7,0,0,0-10.1,3.323l-2.113-35.621c2.7.267,5.369.409,7.949.409A47.746,47.746,0,0,0,122.61,305.17Z" transform="translate(-19.078 -74.376)" fill="#5492c5"/><path d="M124.266,345.617l.626.526a1.179,1.179,0,0,0-.384.785,2.226,2.226,0,0,1-.651,1.269c-.067-.025-.134-.067-.2-.1A8.917,8.917,0,0,0,120.767,347l.008-1.019a1.148,1.148,0,0,0-1.136-1.161l.033-.434A11.389,11.389,0,0,1,124.266,345.617Z" transform="translate(-21.486 -80.847)" fill="#497ea9"/><path d="M123.873,348.614c.067.033.134.075.2.1a12.982,12.982,0,0,1-3.123,2.48l.033-3.674A8.916,8.916,0,0,1,123.873,348.614Z" transform="translate(-21.702 -81.363)" fill="#1d71b8"/><path d="M120.546,346.071l-.008,1.019a9.611,9.611,0,0,0-2.288-.175l.008-.868a1.144,1.144,0,0,1,1.144-1.136h.008A1.148,1.148,0,0,1,120.546,346.071Z" transform="translate(-21.256 -80.933)" fill="#497ea9"/><path d="M120.53,347.484l-.033,3.674a10.257,10.257,0,0,1-.935.543,1.146,1.146,0,0,0-.618,1.01l-.743-.008.042-5.394A9.612,9.612,0,0,1,120.53,347.484Z" transform="translate(-21.248 -81.327)" fill="#c69191"/><path d="M120.643,351.92l-.025,2.622a.854.854,0,0,1-.384.075,1.147,1.147,0,0,1-1.144-1.144,1.146,1.146,0,0,1,.618-1.01A10.25,10.25,0,0,0,120.643,351.92Z" transform="translate(-21.395 -82.089)" fill="#c69191"/><path d="M120.46,354.847l-.017,3.215a1.148,1.148,0,0,0-.969.868,1.136,1.136,0,0,0,.843,1.378c.033.008.067.025.1.033v.175a1.149,1.149,0,0,1-1.144,1.136h-.008a1.139,1.139,0,0,1-1.136-1.144l.058-6.738.743.008a1.147,1.147,0,0,0,1.144,1.144A.854.854,0,0,0,120.46,354.847Z" transform="translate(-21.236 -82.394)" fill="#c69191"/><path d="M120.7,358.91l-.025,2.28c-.033-.008-.067-.025-.1-.033a1.136,1.136,0,0,1-.843-1.378A1.148,1.148,0,0,1,120.7,358.91Z" transform="translate(-21.496 -83.243)" fill="#c69191"/><path d="M119.332,180.771l.1.125a1.5,1.5,0,0,0-2.062.417l.075-.2A1.1,1.1,0,0,1,119.332,180.771Z" transform="translate(-21.111 -53.784)" fill="#ee7358"/><path d="M116.773,337.957l-.033.434h-.008a1.144,1.144,0,0,0-1.144,1.136l-.008.868a10.214,10.214,0,0,0-1.678.175v-.518a1.138,1.138,0,0,0-1.127-1.152h-.017a1.149,1.149,0,0,0-1.144,1.136L111.6,341.2a10.767,10.767,0,0,0-3.59,2.2,16.937,16.937,0,0,1-1.62-1.486,1.136,1.136,0,0,0-1.971.86,2.322,2.322,0,0,1-.175-.718L102.06,305.4c.835.1,1.67.184,2.5.259l2.113,35.621A14.7,14.7,0,0,1,116.773,337.957Z" transform="translate(-18.585 -74.414)" fill="#497ea9"/><path d="M117.591,175.235a1.235,1.235,0,0,1-1.044,1.4,1.174,1.174,0,0,1-.175.008,1.231,1.231,0,0,1-1.219-1.052,2.568,2.568,0,0,0-.593-1.211l1.9-1.5c.083.1.184.2.284.309A4.849,4.849,0,0,1,117.591,175.235Z" transform="translate(-20.647 -52.548)" fill="#e84436"/><path d="M115.306,172.3c-.1-.109-.2-.209-.284-.309l-1.9,1.5c-1.394-1.662-4.868-2.9-7.3-3.49V167.49C107.857,167.933,113.176,169.319,115.306,172.3Z" transform="translate(-19.205 -51.659)" fill="#e84436"/><path d="M115.786,346.672v.518a12.07,12.07,0,0,0-2.3.626l.008-1.161a1.149,1.149,0,0,1,1.144-1.136h.017A1.139,1.139,0,0,1,115.786,346.672Z" transform="translate(-20.471 -81.033)" fill="#497ea9"/><path d="M115.78,347.52l-.05,5.611-.593-.008a1.031,1.031,0,0,0-.058-.351,1.156,1.156,0,0,0-1.453-.726.6.6,0,0,1-.175.042l.033-3.941A12.071,12.071,0,0,1,115.78,347.52Z" transform="translate(-20.464 -81.363)" fill="#c69191"/><path d="M115.718,354.238l-.058,6.872a1.144,1.144,0,0,1-1.144,1.135,1.158,1.158,0,0,1-1.136-1.161v-.459c.125-.033.234-.067.309-.092a1.144,1.144,0,0,0,.827-1.386,1.13,1.13,0,0,0-1.111-.86l.025-2.806a2.9,2.9,0,0,0,.91-.159,1.156,1.156,0,0,0,.785-1.094Z" transform="translate(-20.453 -82.47)" fill="#c69191"/><path d="M115.077,353.655a1.031,1.031,0,0,1,.058.351,1.156,1.156,0,0,1-.785,1.094,2.9,2.9,0,0,1-.91.159l.008-2.288a.6.6,0,0,0,.175-.042A1.156,1.156,0,0,1,115.077,353.655Z" transform="translate(-20.463 -82.246)" fill="#c69191"/><path d="M110.24,172.87c1.077,1.979-.518,6.546-4.267,9.694-2.163,1.82-7.949,5.428-14.988-.2-3.181-2.547-4.6-4.885-4.217-6.956a4.564,4.564,0,0,1,.443-1.219c1.236-2.288,4.467-3.975,6.388-4.734v1.82a1.144,1.144,0,1,0,2.288,0v-10.6c1.528-.017,3.023-.067,4.492-.159v10.755a1.144,1.144,0,1,0,2.288,0v-2.421c2.43.593,5.9,1.829,7.3,3.49l-.033.017C110.039,172.519,110.14,172.694,110.24,172.87Z" transform="translate(-16.052 -50.509)" fill="#f3c8bb"/><path d="M114.516,359.95a1.144,1.144,0,0,1-.827,1.386c-.075.025-.184.058-.309.092l.025-2.338A1.13,1.13,0,0,1,114.516,359.95Z" transform="translate(-20.453 -83.272)" fill="#c69191"/><path d="M112.781,348.27l-.033,3.941c-.868.125-2.3-.735-3.557-1.745A10.768,10.768,0,0,1,112.781,348.27Z" transform="translate(-19.761 -81.487)" fill="#1d71b8"/><path d="M112.038,352.521l-.008,2.288H111.9c-2.856,0-6.037-3.24-6.705-3.966a1.131,1.131,0,0,1-.3-.693,2.169,2.169,0,0,0,2,1.328,2.124,2.124,0,0,0,1.536-.651.279.279,0,0,1,.05-.05C109.733,351.787,111.169,352.647,112.038,352.521Z" transform="translate(-19.052 -81.797)" fill="#497ea9"/><path d="M108.48,350.533a.282.282,0,0,0-.05.05,2.124,2.124,0,0,1-1.536.651,2.169,2.169,0,0,1-2-1.328,1.136,1.136,0,0,1,1.971-.86A16.952,16.952,0,0,0,108.48,350.533Z" transform="translate(-19.051 -81.554)" fill="#497ea9"/><path d="M105.368,170.216v2.421a1.144,1.144,0,1,1-2.288,0V168.78h.117a1.225,1.225,0,0,0,1.027,1.2C104.566,170.041,104.95,170.124,105.368,170.216Z" transform="translate(-18.753 -51.871)" fill="#c69191"/><path d="M105.391,167.459v2.513c-.417-.092-.8-.175-1.144-.234a1.225,1.225,0,0,1-1.027-1.2.961.961,0,0,1,.025-.217,1.244,1.244,0,0,1,1.428-1c.134.025.376.067.718.134v.008Z" transform="translate(-18.776 -51.627)" fill="#c69191"/><path d="M105.368,160.32V166.3c-.342-.067-.584-.109-.718-.134a1.244,1.244,0,0,0-1.428,1,.961.961,0,0,0-.025.217h-.117v-6.9C103.848,160.445,104.616,160.387,105.368,160.32Z" transform="translate(-18.753 -50.476)" fill="#c69191"/><path d="M105.368,159.934v.134c-.751.067-1.52.125-2.288.167v-.3a1.144,1.144,0,1,1,2.288,0Z" transform="translate(-18.753 -50.223)" fill="#c69191"/><path d="M102.345,111.162a1.1,1.1,0,0,1-.843,1.311c-.083.008-.159.017-.234.017a1.1,1.1,0,0,1-1.077-.868,12.929,12.929,0,0,0-4.768-7.064,2.127,2.127,0,0,0-1.67-.351c-3.657.793-5.845,4.751-6.471,7.031a1.1,1.1,0,0,1-2.129-.585c.117-.384,2.447-7.356,8.125-8.592a4.32,4.32,0,0,1,3.348.651C100.291,105.074,102.17,110.335,102.345,111.162Z" transform="translate(-15.789 -40.846)" fill="#c69191"/><path d="M104.473,304.093l.075,1.211c-.827-.075-1.662-.159-2.5-.259l-.042-.8c-.033-.676.376-.952,1.052-.994.125,0,.234,0,.342.008C103.955,303.308,104.439,303.534,104.473,304.093Z" transform="translate(-18.576 -74.059)" fill="#e84436"/><path d="M98.613,301.81l-.017.117a141.509,141.509,0,0,1-25.793-5.62c-.008,0-.025-.008-.033-.008l.033-.109A142.259,142.259,0,0,0,98.613,301.81Z" transform="translate(-13.752 -72.894)" fill="#e84436"/><path d="M98.569,301.948l-.017.167c-.109-.008-.217-.008-.342-.008-.676.042-1.085.317-1.052.994l.042.8c-.509-.067-1.01-.125-1.52-.192l.058-.743a1.26,1.26,0,0,0-1.136-1.336,1.207,1.207,0,0,0-1.319,1.136l-.042.593a143.912,143.912,0,0,1-19.673-4.467l.017-.91a1.261,1.261,0,0,0-.985-1.228l.142-.434c.008,0,.025.008.033.008A141.5,141.5,0,0,0,98.569,301.948Z" transform="translate(-13.724 -72.915)" fill="#e84436"/><path d="M96.409,140.626a.854.854,0,0,1-.643,1.152,1.21,1.21,0,0,1-1.42-.518c-1.77-3.824-5.327-6.129-10.571-6.855a27.475,27.475,0,0,0-7.64.067,1.118,1.118,0,0,1-1.311-.676.91.91,0,0,1,.835-1.061,28.909,28.909,0,0,1,4.492-.326C85.212,132.41,93.153,133.621,96.409,140.626Z" transform="translate(-14.087 -45.87)" fill="#c69191"/><path d="M98.681,302.679a1.26,1.26,0,0,1,1.136,1.336l-.058.743c-.81-.109-1.628-.226-2.438-.351l.042-.593A1.207,1.207,0,0,1,98.681,302.679Z" transform="translate(-17.803 -73.964)" fill="#e84436"/><path d="M95.571,305.1l-2.8,35.4a1.631,1.631,0,0,1-.084.4,1.127,1.127,0,0,0-.969-.91,1.139,1.139,0,0,0-1.286.977,1.768,1.768,0,0,1-.267.651,1.478,1.478,0,0,1-.134-.117,7.734,7.734,0,0,0-5.2-2.021v-.1a1.151,1.151,0,0,0-1.136-1.152,1.138,1.138,0,0,0-1.152,1.127v.125c-.568.042-1.136.109-1.712.2a1.16,1.16,0,0,0-1.111-.952h-.008a1.149,1.149,0,0,0-1.144,1.136v.242a36.536,36.536,0,0,0-4.643,1.453,12.872,12.872,0,0,1-.96-1.553,1.154,1.154,0,0,0-1.027-.651l1.269-.142c4.117-1.586,12.183-3.924,17.243-.551l2.68-33.918C93.942,304.875,94.761,304.992,95.571,305.1Z" transform="translate(-13.615 -74.306)" fill="#497ea9"/><path d="M97.248,169.5v3.257a1.144,1.144,0,0,1-2.288,0v-1.82c.292-.109.551-.209.768-.276a1.207,1.207,0,0,0,.843-1.161Z" transform="translate(-17.413 -51.99)" fill="#c69191"/><path d="M97.248,160.71v7.34h-.676a1.186,1.186,0,0,0-.05-.384,1.23,1.23,0,0,0-1.553-.793H94.96V160.71c.292.008.6.008.9.008h.468C96.638,160.718,96.947,160.718,97.248,160.71Z" transform="translate(-17.413 -50.54)" fill="#c69191"/><path d="M97.248,159.934v.459c-.3.008-.61.008-.919.008h-.468c-.3,0-.61,0-.9-.008v-.459a1.144,1.144,0,1,1,2.288,0Z" transform="translate(-17.413 -50.223)" fill="#c69191"/><path d="M93.383,303.867,90.7,337.785c-5.06-3.374-13.126-1.035-17.243.551l.25-38.936A143.917,143.917,0,0,0,93.383,303.867Z" transform="translate(-13.866 -73.424)" fill="#5492c5"/><path d="M95.224,348.05a.946.946,0,0,1,.008.376c-.451,3.365-6.121,5.569-7.932,6.2l.025-2.455c2.146-.827,4.584-2.146,5.377-3.4a1.514,1.514,0,0,0,1.01.359,2.037,2.037,0,0,0,.543-.083A1.7,1.7,0,0,0,95.224,348.05Z" transform="translate(-16.15 -81.451)" fill="#497ea9"/><path d="M83.836,151.181v.61a1.151,1.151,0,0,0-1.144,1.144v.459c-14.429-.125-29.484-3.307-38.686-8.216-9.511-5.068-16.266-14.287-20.265-21.117-1.227-2.1-2.263-4.092-3.131-5.878.159,0,.259-.008.292-.008a1.147,1.147,0,0,0,1.06-1.219.3.3,0,0,0-.017-.092,2.083,2.083,0,0,0,.242-.493c3.749,7.891,11.264,20.691,22.854,26.87C53.551,147.791,68.723,151.165,83.836,151.181Z" transform="translate(-5.146 -43.224)" fill="#c69191"/><path d="M95.323,346.958a1.127,1.127,0,0,1,.969.91,1.7,1.7,0,0,1-.969.994,2.039,2.039,0,0,1-.543.083,1.513,1.513,0,0,1-1.01-.359,1.767,1.767,0,0,0,.267-.651A1.139,1.139,0,0,1,95.323,346.958Z" transform="translate(-17.217 -81.269)" fill="#497ea9"/><path d="M93.325,168.09V170.7c-1.921.76-5.152,2.447-6.388,4.734l-.225-.134a1.136,1.136,0,0,0-1.662-1.495C87.413,170.061,92.966,168.207,93.325,168.09Z" transform="translate(-15.778 -51.758)" fill="#e84436"/><path d="M92.574,348.371a1.479,1.479,0,0,0,.134.117c-.793,1.253-3.231,2.572-5.377,3.4l.042-5.536A7.734,7.734,0,0,1,92.574,348.371Z" transform="translate(-16.154 -81.17)" fill="#1d71b8"/><path d="M86.928,346v.1a13.936,13.936,0,0,0-2.288,0v-.125a1.138,1.138,0,0,1,1.152-1.127A1.151,1.151,0,0,1,86.928,346Z" transform="translate(-15.711 -80.923)" fill="#497ea9"/><path d="M86.916,346.341l-.042,5.536c-.367.142-.718.276-1.06.384a1.158,1.158,0,0,0-.793,1.086H84.57l.058-7.006A13.994,13.994,0,0,1,86.916,346.341Z" transform="translate(-15.699 -81.161)" fill="#c69191"/><path d="M86.964,352.98l-.025,2.455c-.134.042-.242.075-.334.109a1.185,1.185,0,0,1-.351.059,1.142,1.142,0,0,1-1.086-.793,1.343,1.343,0,0,1-.058-.359,1.158,1.158,0,0,1,.793-1.086C86.246,353.256,86.6,353.122,86.964,352.98Z" transform="translate(-15.788 -82.264)" fill="#c69191"/><path d="M86.838,355.725l-.033,3.3a1.11,1.11,0,0,0-.91.685,1.152,1.152,0,0,0,.434,1.428,1.033,1.033,0,0,0,.167.242,1.136,1.136,0,0,1-.843.376h-.017A1.144,1.144,0,0,1,84.5,360.61l.058-5.87h.451a1.344,1.344,0,0,0,.058.359,1.142,1.142,0,0,0,1.085.793,1.187,1.187,0,0,0,.351-.058C86.6,355.8,86.7,355.767,86.838,355.725Z" transform="translate(-15.688 -82.555)" fill="#c69191"/><path d="M87.061,360.463v.017a1.1,1.1,0,0,0-.559.7,1.192,1.192,0,0,0,.083.8,1.152,1.152,0,0,1-.434-1.428,1.11,1.11,0,0,1,.91-.685Z" transform="translate(-15.944 -83.401)" fill="#c69191"/><path d="M87.143,360.6l-.008.985a1.242,1.242,0,0,1-.2.643c-.033-.017-.075-.033-.109-.05a.924.924,0,0,1-.159-.075,1.192,1.192,0,0,1-.084-.8A1.1,1.1,0,0,1,87.143,360.6Z" transform="translate(-16.026 -83.521)" fill="#c69191"/><path d="M86.3,174.951a1.135,1.135,0,0,1,.2,1.436c-.05.067-.092.125-.134.175s-.518.568-1.328,1.52c-.2.225-.417.476-.651.76-.008.008-.017.025-.033.042-.159.184-.326.392-.5.6a6.064,6.064,0,0,1,.017-2.2,6.337,6.337,0,0,1,.969-2.4A1.138,1.138,0,0,1,86.3,174.951Z" transform="translate(-15.565 -52.841)" fill="#e84436"/><path d="M86.957,362.525c-.033.042-.067.075-.1.117a1.037,1.037,0,0,1-.167-.242.924.924,0,0,0,.159.075C86.882,362.492,86.924,362.509,86.957,362.525Z" transform="translate(-16.049 -83.818)" fill="#c69191"/><path d="M79.235,175.074a.485.485,0,0,1,.159-.134,6.338,6.338,0,0,0-.969,2.4,6.064,6.064,0,0,0-.017,2.2c-6.6,7.949-24.031,30.778-25.05,51.11-.05.91-.058,1.812-.042,2.714a30.259,30.259,0,0,0,.726,6.1c.017.075,1.378.4,3.123,1.052.125.05.259.1.384.15.735.3,1.536.651,2.338,1.06a1.43,1.43,0,0,1,.192.1,12.724,12.724,0,0,1,1.946,1.261c-.2.81-.392,1.578-.543,2.171a.793.793,0,0,0-.109.276c-7.315-3.908-9.669-4.417-9.828-5.169-2.63-11.64,1.461-26.612,11.657-43.479A153.634,153.634,0,0,1,79.235,175.074Z" transform="translate(-10.122 -52.888)" fill="#e84436"/><path d="M82.123,346.59a.892.892,0,0,1,.025.209l-.109,12.993a1.144,1.144,0,0,1-1.144,1.136h-.017a1.134,1.134,0,0,1-1.027-.693v-.008c.159-.025.292-.05.392-.059a1.144,1.144,0,0,0-.2-2.279,1.283,1.283,0,0,1-.284.033l.033-3.7c.109.017.217.025.342.033H80.2a1.141,1.141,0,0,0,.075-2.28,4.047,4.047,0,0,1-.459-.05l.042-4.91C80.62,346.841,81.38,346.7,82.123,346.59Z" transform="translate(-14.905 -81.21)" fill="#c69191"/><path d="M80.284,353.03a1.141,1.141,0,0,1-.075,2.28h-.067c-.125-.008-.234-.017-.342-.033l.025-2.3A4.09,4.09,0,0,0,80.284,353.03Z" transform="translate(-14.912 -82.264)" fill="#c69191"/><path d="M81.278,361.163a1.142,1.142,0,0,1-1.035,1.236c-.1.008-.234.033-.392.059a1.02,1.02,0,0,1-.1-.451l.008-1.854a1.275,1.275,0,0,0,.284-.033A1.143,1.143,0,0,1,81.278,361.163Z" transform="translate(-14.904 -83.442)" fill="#c69191"/><path d="M81.032,345.45a1.16,1.16,0,0,1,1.111.952c-.743.109-1.5.251-2.263.426v-.242a1.149,1.149,0,0,1,1.144-1.136Z" transform="translate(-14.925 -81.022)" fill="#497ea9"/><path d="M78.963,347.1l-.042,4.91c-2.054-.351-3.657-2.121-4.6-3.457A36.542,36.542,0,0,1,78.963,347.1Z" transform="translate(-14.008 -81.294)" fill="#1d71b8"/><path d="M78.305,352.1l-.025,2.3c-4.734-.559-7.473-6.07-7.582-6.3a.946.946,0,0,1-.109-.451,1.9,1.9,0,0,0,.76,1.06,1.829,1.829,0,0,0,1.754.184c.2-.075.4-.15.6-.242C74.648,349.978,76.251,351.748,78.305,352.1Z" transform="translate(-13.392 -81.383)" fill="#497ea9"/><path d="M73.7,348.4c-.2.092-.4.167-.6.242a1.829,1.829,0,0,1-1.754-.184,1.9,1.9,0,0,1-.76-1.06,1.115,1.115,0,0,1,.626-1.077,1.2,1.2,0,0,1,.5-.125,1.154,1.154,0,0,1,1.027.651A12.866,12.866,0,0,0,73.7,348.4Z" transform="translate(-13.392 -81.145)" fill="#497ea9"/><path d="M73.292,298.064l-.017.91c-.66-.2-1.294-.392-1.9-.593-.184-.067-.376-.125-.551-.184v-.159a1.206,1.206,0,0,1,1.244-1.219,2.079,2.079,0,0,1,.242.017A1.261,1.261,0,0,1,73.292,298.064Z" transform="translate(-13.43 -72.998)" fill="#e84436"/><path d="M73.22,299.247l-.25,38.936-1.269.142a1.2,1.2,0,0,0-.5.125,1.115,1.115,0,0,0-.626,1.077A1.579,1.579,0,0,1,70.49,339l.276-40.531c.175.058.367.117.551.184C71.926,298.854,72.561,299.046,73.22,299.247Z" transform="translate(-13.376 -73.27)" fill="#497ea9"/><path d="M71.1,295.492l-.033.108a47.131,47.131,0,0,1-8.267-3.256,1.075,1.075,0,0,1-.367-.384C63.223,292.653,66.455,294.006,71.1,295.492Z" transform="translate(-12.046 -72.196)" fill="#ee7358"/><path d="M70.591,294.027l-.142.434a2.059,2.059,0,0,0-.242-.017,1.205,1.205,0,0,0-1.244,1.219v.159c-8.492-2.8-9.01-4.142-9.185-4.584-.384-1-.225-4.008.292-8.175a1.2,1.2,0,0,0,.827.351,1.231,1.231,0,0,0,.476-.109,1.179,1.179,0,0,0,.66-.885l.392.058c-.367,2.68-.585,4.818-.626,6.237-.017.342-.008.643,0,.893a1.659,1.659,0,0,0,.008.292.84.84,0,0,0,.042.209.124.124,0,0,0,.008.059.884.884,0,0,0,.033.159.473.473,0,0,0,.067.058,1.075,1.075,0,0,0,.367.384A47.132,47.132,0,0,0,70.591,294.027Z" transform="translate(-11.573 -70.622)" fill="#e84436"/><path d="M65.548,260.733c.033-.175.075-.359.117-.543a1.14,1.14,0,0,1,.643,1.269c-2.956,13.9-1.854,6.822-2.948,15.047C64.337,268.356,62.775,273.809,65.548,260.733Z" transform="translate(-12.199 -66.954)" fill="#ee7358"/><path d="M64.29,255.324c1.06-4.275,2.6-10.045.868.376a.231.231,0,0,1-.1.167C64.808,255.674,64.557,255.491,64.29,255.324Z" transform="translate(-12.353 -65.244)" fill="#ee7358"/><path d="M64.814,258.5a1.142,1.142,0,0,1,.885,1.353.141.141,0,0,0-.008.058.832.832,0,0,0-.242-.084,1.169,1.169,0,0,0-.793.117c-.392-.209-.777-.417-1.136-.618a2.525,2.525,0,0,0,.067-.292A1.154,1.154,0,0,1,64.814,258.5Z" transform="translate(-12.226 -66.67)" fill="#e84436"/><path d="M65.915,260.169c-.042.184-.083.367-.117.543l-.919-.509a1.169,1.169,0,0,1,.793-.117A.835.835,0,0,1,65.915,260.169Z" transform="translate(-12.45 -66.933)" fill="#e84436"/><path d="M65.052,256.953a.253.253,0,0,1-.309-.025c-.159-.142-.326-.284-.493-.409a.541.541,0,0,1,.033-.109C64.551,256.577,64.8,256.761,65.052,256.953Z" transform="translate(-12.346 -66.33)" fill="#ee7358"/><path d="M64.232,260.23l.919.509c-2.772,13.076-1.211,7.624-2.188,15.773q-.025.2-.05.426c-.084.559-.167,1.186-.259,1.879l-.392-.058a1.135,1.135,0,0,0-.1-.635,28.941,28.941,0,0,1-1.211-3.432c2.288-15.264,1.394-7.456,2.714-13.7A1.153,1.153,0,0,1,64.232,260.23Z" transform="translate(-11.802 -66.961)" fill="#e84436"/><path d="M64.038,94.444c0,2.421-1.419,4.108-2.689,4.158-1,.05-2.839-2.054-2.839-4.467s1.837-3.958,2.839-3.958C62.86,89.951,64.038,92.039,64.038,94.444Z" transform="translate(-11.399 -38.899)"/><path d="M63.9,256.182a.542.542,0,0,0-.033.109,12.732,12.732,0,0,0-1.946-1.261A19.664,19.664,0,0,1,63.9,256.182Z" transform="translate(-11.962 -66.103)" fill="#ee7358"/><path d="M63.579,259.14a2.531,2.531,0,0,1-.067.292.063.063,0,0,1-.042-.017A.793.793,0,0,1,63.579,259.14Z" transform="translate(-12.218 -66.781)" fill="#e84436"/><path d="M63.43,259.47a.063.063,0,0,0,.042.017c-.276,1.119-.351,1.4-.067.05C63.413,259.512,63.413,259.487,63.43,259.47Z" transform="translate(-12.177 -66.835)" fill="#e84436"/><path d="M61.213,70.748,52.4,76.242q-1.4.05-2.756.075C52.6,71.04,59.6,69.9,59.952,69.838A1.111,1.111,0,0,1,61.213,70.748Z" transform="translate(-9.936 -35.544)" fill="#eacf83"/><path d="M62.032,280.982a1.135,1.135,0,0,1,.1.635,1.179,1.179,0,0,1-.66.885,1.23,1.23,0,0,1-.476.109,1.2,1.2,0,0,1-.827-.351c.175-1.445.4-3.031.651-4.709A28.927,28.927,0,0,0,62.032,280.982Z" transform="translate(-11.673 -69.818)" fill="#e84436"/><path d="M62.289,291.531a.842.842,0,0,1-.042-.209,1.661,1.661,0,0,1-.008-.292A3.9,3.9,0,0,0,62.289,291.531Z" transform="translate(-12.014 -72.042)" fill="#ee7358"/><path d="M61.228,254.7c-.8-.409-1.6-.76-2.338-1.06A22.7,22.7,0,0,1,61.228,254.7Z" transform="translate(-11.462 -65.873)" fill="#e84436"/><path d="M54.546,250.879c.017.075,1.353.459,3.123,1.169-1.745-.651-3.106-.977-3.123-1.052a30.261,30.261,0,0,1-.726-6.1A31.718,31.718,0,0,0,54.546,250.879Z" transform="translate(-10.625 -64.431)" fill="#ee7358"/><path d="M52.217,77.51A7.623,7.623,0,0,0,50.9,79.756c-.743.025-1.47.033-2.179.058H48.56a10.043,10.043,0,0,1,.9-2.229Q50.815,77.56,52.217,77.51Z" transform="translate(-9.757 -36.812)" fill="#7d4e24"/><path d="M48.665,80.258c.71-.025,1.436-.033,2.179-.058a7.324,7.324,0,0,0-.418,1.595,1.111,1.111,0,0,1-1.094.935c-.058,0-.109-.008-.167-.008a1.105,1.105,0,0,1-.918-1.252,9.012,9.012,0,0,1,.259-1.2.959.959,0,0,1,.159-.008Z" transform="translate(-9.704 -37.256)" fill="#7d4e24"/><path d="M48.71,80.27a.906.906,0,0,0-.15.008V80.27Z" transform="translate(-9.757 -37.267)" fill="#7d4e24"/><path d="M22.1,116.529l.334-.159a2.082,2.082,0,0,1-.242.493A1.3,1.3,0,0,0,22.1,116.529Z" transform="translate(-5.392 -43.224)" fill="#c69191"/><path d="M21.254,113.887l-.334.159a1.166,1.166,0,0,0-1.111-.635,8.183,8.183,0,0,1-1.236-.059c-1.211-2.68-3.39-11-3.624-11.657l1.169.242.626-.618c.225.493.451.952.651,1.369H17.4c.083.384.184.8.284,1.219v.025a9.959,9.959,0,0,0,.718,3.14.278.278,0,0,1,.025.05.065.065,0,0,1,.008.025A72.676,72.676,0,0,0,21.254,113.887Z" transform="translate(-4.212 -40.741)" fill="#c69191"/><path d="M21.926,117.052a1.147,1.147,0,0,1-1.06,1.219c-.033,0-.134.008-.292.008-.058-.125-.125-.251-.184-.367a1.884,1.884,0,0,0,1.52-.952A.3.3,0,0,1,21.926,117.052Z" transform="translate(-5.109 -43.321)" fill="#c69191"/><path d="M21.636,116.423a1.3,1.3,0,0,1,.092.334,1.884,1.884,0,0,1-1.52.952c-.334-.693-.643-1.361-.918-1.979a8.178,8.178,0,0,0,1.236.058A1.166,1.166,0,0,1,21.636,116.423Z" transform="translate(-4.928 -43.118)" fill="#c69191"/><path d="M20.835,107.55c.234.66-.251,4.016.952,6.705a72.672,72.672,0,0,1-2.814-6.738.065.065,0,0,0-.008-.025c-.042-.192-.392-1.687-.743-3.19v-.025c-.025-.242-.033-.484-.042-.726.81,1.628,1.353,2.555,1.378,2.614Z" transform="translate(-4.745 -41.109)" fill="#f3c8bb"/><path d="M17.37,113.746c.058.117.125.242.184.367h-.109c-1.678,0-8.116-.493-13.318-7.724A9.08,9.08,0,0,1,2.3,98.883c.86-3.666,4.075-6.154,5.62-7.173.209.635.418,1.244.618,1.845-2.2,1.486-4.843,3.482-5.21,5.1A6.848,6.848,0,0,0,4.779,104.3C7.851,108.577,14.122,114.08,17.37,113.746Z" transform="translate(-2.09 -39.155)" fill="#c69191"/><path d="M17.585,114.11c-3.248.334-9.519-5.169-12.592-9.444a6.848,6.848,0,0,1-1.453-5.645c.367-1.62,3.006-3.616,5.21-5.1.042.134.092.276.134.409-1.378.985-3.565,2.914-4.142,5.436A6.841,6.841,0,0,0,6.2,105.41c3.833,5.336,8.333,6.5,10.471,6.722C16.942,112.749,17.251,113.417,17.585,114.11Z" transform="translate(-2.305 -39.52)" fill="#c69191"/><path d="M18.973,107.64a.277.277,0,0,0-.025-.05,9.959,9.959,0,0,1-.718-3.14C18.581,105.953,18.931,107.448,18.973,107.64Z" transform="translate(-4.753 -41.257)" fill="#f3c8bb"/><path d="M18.132,103.453c.008.242.017.484.042.726-.1-.418-.2-.835-.284-1.219C17.973,103.135,18.049,103.294,18.132,103.453Z" transform="translate(-4.697 -41.011)" fill="#f3c8bb"/><path d="M17.751,102.566c-.2-.417-.426-.877-.651-1.369l.167-.159c.008-.15.008-.3.017-.468C17.292,100.578,17.492,101.455,17.751,102.566Z" transform="translate(-4.567 -40.617)" fill="#c69191"/><path d="M15.076,99.734l-.626.618-1.169-.242c.234.66,2.413,8.976,3.624,11.657-2.138-.225-6.638-1.386-10.471-6.722A6.841,6.841,0,0,1,4.981,99.4c.576-2.522,2.764-4.451,4.142-5.436.668-.476,1.152-.735,1.169-.751a1.093,1.093,0,0,0,.585-.885V92.32c.4-.251.726-.459.935-.61C12.947,94.95,14.116,97.672,15.076,99.734Z" transform="translate(-2.542 -39.155)" fill="#f3c8bb"/><path d="M11.575,92.193h0c-.526.342-1.186.768-1.887,1.236-.2-.6-.409-1.211-.618-1.845.476-.309.785-.476.843-.509a1.16,1.16,0,0,1,1.353.2.008.008,0,0,1,.008.008C11.375,91.591,11.475,91.9,11.575,92.193Z" transform="translate(-3.242 -39.028)" fill="#936037"/><path d="M11.7,92.45a1.093,1.093,0,0,1-.584.885c-.017.017-.5.276-1.169.752-.042-.134-.092-.276-.134-.409C10.511,93.21,11.171,92.784,11.7,92.45Z" transform="translate(-3.364 -39.277)" fill="#936037"/><g transform="translate(77.547 116.272)"><line y2="2.614" transform="translate(0 0.06)" fill="none" stroke="#c69191" stroke-miterlimit="10" stroke-width="1"/><path d="M94.96,170.936c.292-.109.551-.209.768-.276a1.207,1.207,0,0,0,.843-1.161" transform="translate(-94.96 -168.262)" fill="none" stroke="#c69191" stroke-miterlimit="10" stroke-width="1"/><path d="M96.572,169.255a1.186,1.186,0,0,0-.05-.384,1.23,1.23,0,0,0-1.553-.793H94.96" transform="translate(-94.96 -168.018)" fill="none" stroke="#c69191" stroke-miterlimit="10" stroke-width="1"/></g></g><ellipse cx="5.603" cy="5.903" rx="5.603" ry="5.903" transform="translate(41.893 90.918)" fill="#ee7358"/><ellipse cx="5.603" cy="5.903" rx="5.603" ry="5.903" transform="translate(109.194 90.484)" fill="#ee7358"/><path d="M72.82,301.76a200.255,200.255,0,0,0,20.658,4.609" transform="translate(-12.022 -49.787)" fill="#497ea9" stroke="#497ea9" stroke-linejoin="round" stroke-miterlimit="10" stroke-width="5.113"/><path d="M85.433,347.284a10.032,10.032,0,0,0-3.933.083l.125,13.56s2.864.768,3.524-.426C85.667,359.55,85.433,347.284,85.433,347.284Z" transform="translate(-13.455 -57.268)" fill="#f3c8bb" stroke="#c69191" stroke-miterlimit="10" stroke-width="1.563"/><path d="M103.57,307.435s15.865.952,20.307-.635" transform="translate(-17.096 -50.619)" fill="#497ea9" stroke="#497ea9" stroke-miterlimit="10" stroke-width="3.954"/><path d="M96.61,161.23s2.2.877,6.488-.1" transform="translate(-15.948 -26.583)" fill="#c69191" stroke="#c69191" stroke-miterlimit="10" stroke-width="2.636"/><path d="M110.034,18.4c-1.111,6.521-8.425,29.108-21.935,32.907a10.927,10.927,0,0,0-5.277,3.29c-3.282,3.724-10.028,9.9-19.03,10.546a11.176,11.176,0,0,0-6.321,2.622C54,70.67,47.61,74.837,40.145,74.2a11.535,11.535,0,0,0-11.707,7.933c-.785,2.28-.184,5.711-3.382,6.029l-3.616.367a11.264,11.264,0,0,1-11.3-6.363C6.177,73.826,1.509,51.757,9.116,44.551c6.146-5.82,9.636-8.525,11.949-9.694A11.38,11.38,0,0,0,26.8,27.818c1.762-6.1,5.586-14.446,13.36-14.963a11.154,11.154,0,0,0,6.463-2.6C50.54,6.951,58.581,6.776,66.322,8.4A11.443,11.443,0,0,0,75.44,6.617C79.056,4,83.84,5.2,89.376,7.485a11.019,11.019,0,0,0,6.121.6c4.726-.835,12.7-1.1,14.446,6.045A10.348,10.348,0,0,1,110.034,18.4Z" transform="translate(-0.84 -0.844)" fill="#f3db8c" stroke="#eacf83" stroke-linecap="round" stroke-linejoin="round" stroke-miterlimit="10" stroke-width="3"/><path d="M127.582,15.6s18.044,4.609,20.992,13.477,2.948,12.4,2.948,12.4,6.905-1.8,9.5,10.329,1.837,14.537,1.837,14.537,4.576,18.9-1.837,18.2-9.945-16.2-8.183-17.936c0,0-14.028-1.294-16.283-11.448S134.3,45.017,134.3,45.017a12.027,12.027,0,0,1-12.074-4.15" transform="translate(-20.175 -2.571)" fill="#f3db8c" stroke="#eacf83" stroke-linecap="round" stroke-linejoin="round" stroke-miterlimit="10" stroke-width="3"/><g transform="translate(50.841 302.429)"><path d="M78.958,366.212c-.885-.493-2.455-2.163-3.958-2.346l2.513-.125h.008a8.984,8.984,0,0,1,1.787,1.219,1.412,1.412,0,0,1,.4.584,1.525,1.525,0,0,1,.05.209c.042.276,0,.559-.342.61A.735.735,0,0,1,78.958,366.212Z" transform="translate(-63.223 -362.443)" fill="#fff"/><path d="M87.26,370.123a19.28,19.28,0,0,1-7.891,1.829v-.008a11.528,11.528,0,0,0-1.119-4.935c1.386.543,1.236-.96,1.236-.96l.008-.008a.735.735,0,0,0,.459.15c.342-.05.384-.334.342-.61a1.532,1.532,0,0,0-.05-.209c.526.192,1.144-.2.9-.726a3.518,3.518,0,0,0-1.979-1.478l-.05-.1.768-.367c2.012,1.453,5.377,0,5.377,0a19.493,19.493,0,0,1,2,7.423Z" transform="translate(-63.759 -362.271)" fill="#ee7358"/><path d="M78.95,366.245s.15,1.5-1.236.96a2.63,2.63,0,0,0-.409-.593A20.768,20.768,0,0,0,75,363.89c1.5.184,3.073,1.854,3.958,2.346Z" transform="translate(-63.223 -362.468)" fill="#ee7358"/><path d="M80.208,365.445a1.413,1.413,0,0,0-.4-.585,8.991,8.991,0,0,0-1.787-1.219l1.06-.5.05.1a3.518,3.518,0,0,1,1.979,1.478C81.352,365.244,80.734,365.637,80.208,365.445Z" transform="translate(-63.722 -362.344)" fill="#fff"/><path d="M77.083,363.489l-2.513.125a4.778,4.778,0,0,0-2.179-1.394A11.145,11.145,0,0,1,77.083,363.489Z" transform="translate(-62.793 -362.192)" fill="#fff"/><path d="M84.789,374.5c-10.354,2.973-23.23.409-23.631,0s-.217-2.906-.217-2.906a57.6,57.6,0,0,0,15.564,1.829A19.279,19.279,0,0,0,84.4,371.59C84.572,372.884,84.789,374.5,84.789,374.5Z" transform="translate(-60.896 -363.738)" fill="#ee7358"/><path d="M68.457,362.248a13.3,13.3,0,0,1,1.8-.05.766.766,0,0,1,.134.008.437.437,0,0,1,.109.008,4.776,4.776,0,0,1,2.179,1.394,20.767,20.767,0,0,1,2.3,2.722,2.626,2.626,0,0,1,.409.593,11.529,11.529,0,0,1,1.119,4.935v.008a57.6,57.6,0,0,1-15.564-1.829S62.637,362.816,68.457,362.248Z" transform="translate(-60.905 -362.187)" fill="#ee7358"/><path d="M77.522,363.74a8.988,8.988,0,0,1,1.787,1.219,1.414,1.414,0,0,1,.4.585,1.525,1.525,0,0,1,.05.209c.042.275,0,.559-.342.61a.735.735,0,0,1-.459-.15c-.885-.493-2.455-2.163-3.958-2.346" transform="translate(-63.223 -362.443)" fill="none" stroke="#e84436" stroke-linecap="round" stroke-linejoin="round" stroke-miterlimit="10" stroke-width="1.5"/><path d="M72.26,362.21a.439.439,0,0,1,.109.008,11.142,11.142,0,0,1,4.693,1.269" transform="translate(-62.771 -362.19)" fill="none" stroke="#e84436" stroke-linecap="round" stroke-linejoin="round" stroke-miterlimit="10" stroke-width="1.5"/><path d="M75.2,363.484l1.06-.5.768-.367c2.012,1.453,5.377,0,5.377,0a19.493,19.493,0,0,1,2,7.423h-.008a19.277,19.277,0,0,1-7.891,1.829,57.589,57.589,0,0,1-15.564-1.829s1.687-7.223,7.507-7.791a13.3,13.3,0,0,1,1.8-.05" transform="translate(-60.905 -362.187)" fill="none" stroke="#e84436" stroke-linecap="round" stroke-linejoin="round" stroke-miterlimit="10" stroke-width="1.5"/><path d="M75,363.865l2.513-.125h.008" transform="translate(-63.223 -362.443)" fill="none" stroke="#e84436" stroke-linecap="round" stroke-linejoin="round" stroke-miterlimit="10" stroke-width="1.5"/><path d="M72.1,362.2a.75.75,0,0,1,.134.009.56.56,0,0,1,.109.008,4.777,4.777,0,0,1,2.179,1.395,20.763,20.763,0,0,1,2.3,2.722,2.626,2.626,0,0,1,.409.593,11.528,11.528,0,0,1,1.119,4.935" transform="translate(-62.745 -362.189)" fill="none" stroke="#e84436" stroke-linecap="round" stroke-linejoin="round" stroke-miterlimit="10" stroke-width="1.5"/><path d="M60.941,371.278s-.192,2.505.217,2.906,13.277,2.973,23.631,0c0,0-.217-1.612-.392-2.906-.109-.86-.209-1.578-.209-1.578" transform="translate(-60.896 -363.426)" fill="none" stroke="#e84436" stroke-linecap="round" stroke-linejoin="round" stroke-miterlimit="10" stroke-width="1.5"/><path d="M79.486,366.71s.15,1.5-1.236.96" transform="translate(-63.759 -362.933)" fill="none" stroke="#e84436" stroke-linecap="round" stroke-linejoin="round" stroke-miterlimit="10" stroke-width="1.5"/><path d="M79.35,363.26a3.518,3.518,0,0,1,1.979,1.478c.242.526-.376.919-.9.727" transform="translate(-63.941 -362.364)" fill="none" stroke="#e84436" stroke-linecap="round" stroke-linejoin="round" stroke-miterlimit="10" stroke-width="1.5"/></g><g transform="translate(94.465 171.638)"><path d="M118.551,210.919l-.259,2.714-5.152.4c.025-1.42.05-2.839.084-4.242s.067-2.822.117-4.242h3.181c-.092.893-.184,1.787-.267,2.672s-.15,1.787-.184,2.7c.192.008.384.008.568.008h.568c.225,0,.451,0,.676-.008Z" transform="translate(-113.14 -205.55)" fill="#fff"/></g><g transform="translate(112.53 28.129)"><path d="M134.9,35.109a13.9,13.9,0,0,0,4.793,6.07,14.282,14.282,0,0,0,3.5,1.879,5.944,5.944,0,0,0,2.029.559c.443.134.392.025-.142-.326-.326-.493-.468-.543-.434-.15a3.077,3.077,0,0,0-.05,1.111c-.059,5.7,4.041,11.239,10.02,11.515,2.179.1,1.294-2.589-.409-2.664a6.421,6.421,0,0,1-5.3-3.24,9.017,9.017,0,0,1-1.094-3.323,10.123,10.123,0,0,1-.092-1.879,4.562,4.562,0,0,0-.067-1.812c-.484-1.369-1.737-1.628-2.981-1.937a9.962,9.962,0,0,1-2.931-1.278,10.088,10.088,0,0,1-3.933-4.843c-.576-1.453-3.674-1.6-2.906.317Z" transform="translate(-134.774 -33.684)" fill="#eacf83"/></g><g transform="translate(70.61 23.712)"><path d="M85.029,52a12.954,12.954,0,0,0,8.066-.459A14.062,14.062,0,0,0,96.886,49.4a13.54,13.54,0,0,0,1.52-1.42,9.248,9.248,0,0,1,1.436-1.628,4.925,4.925,0,0,1,1.787-.384,17.053,17.053,0,0,0,2.138-.543,17.432,17.432,0,0,0,4.108-1.887,16.115,16.115,0,0,0,6-6.237c1.353-2.68,1.8-6.07-.109-8.6-.76-1-3.616.7-2.931,1.6,1.879,2.48,1.286,5.8-.317,8.275a12.248,12.248,0,0,1-7.34,5.085c-1.72.409-3.373.459-4.843,1.561-1.211.91-1.962,2.271-3.148,3.206a9.026,9.026,0,0,1-8.049,1.394c-1.052-.276-3.6,1.762-2.1,2.179Z" transform="translate(-84.571 -28.394)" fill="#eacf83"/></g><g transform="translate(13.958 45.903)"><path d="M49.269,56.7c.058,2.463.15,5.92-1.745,7.807-.952.952-2.513.927-3.766.827-1.67-.134-3.3-.518-4.952-.751a5.041,5.041,0,0,0-4.559,1.478c-1.152,1.2-1.779,3-2.53,4.459C31.083,71.77,30.54,73.582,29,73.9a10.072,10.072,0,0,1-4.517-.209c-3.014-.81-6.288-4.375-4.267-7.6.359-.576.075-1-.585-.977a2.847,2.847,0,0,0-2.029,1.211,6.184,6.184,0,0,0,2.346,8.534,11.088,11.088,0,0,0,10.863.033c1.745-1.111,2.614-2.847,3.524-4.634.509-.994,1-1.987,1.52-2.973.1-.192.225-.376.317-.576.025-.042.05-.083.083-.134q.413-.488-.326.1c0-.017,1.386.167,1.486.184,3.925.643,7.933,1.436,11.339-1.2,3.173-2.447,3.582-6.521,3.49-10.245-.025-1.152-3.006.184-2.981,1.286Z" transform="translate(-16.725 -54.97)" fill="#eacf83"/></g><g transform="translate(36.136 19.034)"><path d="M74.56,23.918a29,29,0,0,0-11.732-.877c-1.72.234-3.073.476-3.624,2.28-.6,1.979-1.069,4.016-1.595,6.012l2.3.251a7.323,7.323,0,0,0-11.423,1.461A15.961,15.961,0,0,0,46.4,40.259c-.125,1.411-.175,2.831-.3,4.242a7.218,7.218,0,0,1-.334,2.029,2.156,2.156,0,0,1-.568.843c-.217.167-.793.15-.342.342-.459-.192-1.411-.493-1.561.242-.134.668.885,1.428,1.386,1.637a2.9,2.9,0,0,0,3.064-.159A4.09,4.09,0,0,0,48.984,46.5c.3-2.705.217-5.461.852-8.125a9.357,9.357,0,0,1,3.415-5.636c1.361-.935,3.691-1.587,5-.267.443.443,2.029,1.269,2.3.25.434-1.653.877-3.3,1.311-4.952.184-.7.284-1.62.977-2.012a6.656,6.656,0,0,1,2.3-.459,25.5,25.5,0,0,1,10.012.785c.559.159,1.269.083,1.152-.651-.117-.718-1.111-1.344-1.737-1.52Z" transform="translate(-43.286 -22.792)" fill="#eacf83"/></g><g transform="translate(82.775 12.897)"><path d="M102.413,19.348a22.341,22.341,0,0,1,5.16-2.831c1.77-.585,3.156.058,4.576,1.169a5.959,5.959,0,0,0,4.751,1.394,6.907,6.907,0,0,0,2.43-.743c.4-.2,1.1-.3-.1-.259-1.261.05-.576-.075-.376.234.225.351.342.5.159.918-.117.267,1.561.284,1.687.276.392-.017,1.453.008,1.653-.443.944-2.146-3.958-1.712-4.81-1.436-.251.083-1.628.526-1.662.76.05-.326,1.946.476.693-.192a5.117,5.117,0,0,1-.61-.4,11.784,11.784,0,0,0-2.847-1.8,12.921,12.921,0,0,0-7.256-.075A22,22,0,0,0,99.2,19.3c-.367.251,1.127.384,1.186.384a3.664,3.664,0,0,0,2.029-.334Z" transform="translate(-99.14 -15.442)" fill="#eacf83"/></g><g transform="translate(107.66 4.053)"><path d="M131.4,13.634c.092.317-.033-.251-.042-.309.033.234-.008-.284-.008-.334a3.474,3.474,0,0,1,.134-.944,7.3,7.3,0,0,1,.793-1.9,7.293,7.293,0,0,1,1.152-1.62,3.039,3.039,0,0,1,1.971-.585,5.107,5.107,0,0,1,2.188.184c-.075-.033-.042-.017.109.05.075.042.15.075.225.125-.209-.125.033.042.1.1-.376-.326.292.409-.058-.067.092.167.084.15-.025-.067.058.167.058.159,0-.042.025.167.025.159.008-.008-.008.15-.008.167.008.042a1.078,1.078,0,0,1-.067.217c.058-.125.058-.125-.008-.017-.067.067-.109.15-.184.217.167-.15-.142.067-.184.092a1.672,1.672,0,0,1-.175.083c.109-.033.109-.033-.008,0a2.733,2.733,0,0,1-.376.033c.142.017.15.008.025-.008-.134-.042-.117-.033.058.033-.134-.075-.109-.058.083.067.175.192.209.217.109.083-.334-.468-1.219-.977-1.67-.384-.476.643.033,1.6.417,2.138a2.457,2.457,0,0,0,3.833.351,2.777,2.777,0,0,0,.493-2.355,5.12,5.12,0,0,0-1.612-2.756,6.255,6.255,0,0,0-5.035-1.119,3.6,3.6,0,0,0-2.3,1.077,8.357,8.357,0,0,0-1.3,1.887,8.827,8.827,0,0,0-.985,2.6,7.29,7.29,0,0,0,.192,3.365c.175.626.919,1.511,1.645,1.42.818-.1.651-1.119.5-1.645Z" transform="translate(-128.943 -4.85)" fill="#eacf83"/></g><g transform="translate(105.021 3.004)"><path d="M127.576,5.887c.167.05.134.033-.1-.042.167.075.125.05-.134-.067-.217-.175-.259-.2-.117-.084.125.117.1.084-.067-.083-.025.033.426.426.109.109a1.441,1.441,0,0,1,.167.267c.067.125.134.25.192.384.033.067.058.134.084.192-.058-.134-.058-.134-.008,0,.109.317.225.635.326.96a17.278,17.278,0,0,1,.743,4.066,2.092,2.092,0,0,0,1.4,1.637c.359.142,1.628.443,1.586-.342a18.988,18.988,0,0,0-1.01-5.286,5.671,5.671,0,0,0-3.758-3.958c-.526-.142-1.386.017-1.177.752a2.492,2.492,0,0,0,1.762,1.495Z" transform="translate(-125.782 -3.594)" fill="#eacf83"/></g><g transform="translate(107.916 10.686)"><path d="M129.25,14.427v1.227a.33.33,0,0,0,.134.309.432.432,0,0,0,.317.184,1.224,1.224,0,0,0,.493.008,1.753,1.753,0,0,0,.576-.134c.134-.058.267-.117.409-.184a3.08,3.08,0,0,0,.693-.493c.084-.092.159-.184.242-.276a.964.964,0,0,0,.209-.526V13.317a.33.33,0,0,0-.134-.309.432.432,0,0,0-.317-.184,1.224,1.224,0,0,0-.493-.008,1.754,1.754,0,0,0-.576.134c-.134.058-.267.117-.409.184a3.079,3.079,0,0,0-.693.493c-.084.092-.159.184-.242.276a.964.964,0,0,0-.209.526Z" transform="translate(-129.249 -12.795)" fill="#eacf83"/></g><g transform="translate(2.273 32.957)"><path d="M19.539,39.57A30.862,30.862,0,0,1,9.8,45.623a9.017,9.017,0,0,1-2.43.559,4.529,4.529,0,0,0-1-.025c-.2.084.376.109.3.159-.042.033-.309-.292-.334-.317A2.121,2.121,0,0,1,6.1,43.553c.25-.4.543-.443.868-.718.551-.167.15-.376-1.194-.635.042.067.075.125.117.192a2.3,2.3,0,0,1,.058.685c-.167.852,2.964,1.854,3.064,1.328.276-1.428-1.194-2.33-2.33-2.8-1.169-.484-2.555-.71-3.465.359a2.691,2.691,0,0,0,.351,3.457,7.583,7.583,0,0,0,3.783,2.146c2.63.685,5.177-.234,7.523-1.394a34.083,34.083,0,0,0,7.507-5.068c.534-.484-2.263-2.054-2.847-1.536Z" transform="translate(-2.73 -39.466)" fill="#eacf83"/></g><g transform="translate(131.417 57.143)"><path d="M157.75,75.636a14.617,14.617,0,0,0,1.728,10.538,24.28,24.28,0,0,0,3.148,4.325c1.019,1.136,2.288,2.864,3.824,3.29,3.682,1.035,6.647-3.515,7.657-6.421a4.2,4.2,0,0,0-.843-4.651,11.56,11.56,0,0,1-2.8-4.375,20.1,20.1,0,0,1-.81-6.271,11.241,11.241,0,0,0,.117-1.261c0-.025-.376.083-.167.125a1.757,1.757,0,0,1,.451.075,1.306,1.306,0,0,1,.6,1.72c-.376.518-.468,1.269.276,1.47a2.3,2.3,0,0,0,2.087-.985,3.112,3.112,0,0,0,.017-3.975c-1.085-1.144-2.872-.935-4.133-.234a4.432,4.432,0,0,0-2.213,4.284A22.637,22.637,0,0,0,167.3,79a12.144,12.144,0,0,0,2.5,4.843c.559.651,1.378,1.219,1.628,2.071a3.688,3.688,0,0,1-.451,2.58c-.568,1.194-1.62,3.749-3.215,2.513a22,22,0,0,1-3.741-4.033c-2.655-3.449-4.392-7.749-3.315-12.124.192-.777-.727-.919-1.269-.793a2.335,2.335,0,0,0-1.687,1.578Z" transform="translate(-157.394 -68.431)" fill="#eacf83"/></g><g transform="translate(127.082 22.197)"><path d="M152.777,27.632c.777,1.111,1.553,2.213,2.338,3.323a24.889,24.889,0,0,1,2.254,3.415c.885,1.862.7,4.033,1.762,5.837a12.991,12.991,0,0,0,2.079,2.722,4.376,4.376,0,0,0,1.127.777c.242.117.5.209.751.334,1.111.551-.242-.418-.092-.476.025-.008,1.845,7.223,2,7.857a5.422,5.422,0,0,0,1.136,1.712c.175.217.409.635.66.752.042.017.25.25.2.058-.376-1.553-.751-3.115-1.127-4.668a18.055,18.055,0,0,0-1.06-3.624,13.049,13.049,0,0,0-2.171-3.131,4.73,4.73,0,0,0-1.261-1.044c-.242-.134-.5-.225-.743-.334-.518-.234-1.052-.852-.309.217.818,1.186.309.384.184-.017-.083-.276-.15-.559-.209-.835-.117-.534-.192-1.069-.3-1.595a10.576,10.576,0,0,0-1.319-3.34c-1.511-2.572-3.39-4.968-5.1-7.415-.2-.284-.952-1.578-1.328-1.578-.209-.008.476.96.534,1.052Z" transform="translate(-152.203 -26.58)" fill="#eacf83"/></g><g transform="translate(110.592 14.512)"><path d="M156.181,38.864c-.234-2.58-2.046-4.676-2.447-7.239a9.544,9.544,0,0,0-1.294-4.066,13.365,13.365,0,0,0-2.538-2.689c-4.167-3.549-9.377-5.519-14.429-7.423a2.964,2.964,0,0,0-2.037.434c-.134.067-1.369.8-.86.985,4.952,1.87,10.037,3.791,14.162,7.2a12.832,12.832,0,0,1,2.689,2.856,9.486,9.486,0,0,1,1.2,3.925c.392,2.563,2.213,4.651,2.447,7.239.042.459,3.19-.309,3.106-1.219Z" transform="translate(-132.453 -17.376)" fill="#eacf83"/></g><g transform="translate(4.133 39.978)"><path d="M11.99,48.355A33.574,33.574,0,0,0,4.96,68.512c-.075,7.807,2.255,15.422,5.119,22.612.526,1.319,3.841,1.1,3.248-.392C10.588,83.842,8.291,76.586,8.291,69.1a31.9,31.9,0,0,1,6.5-19.456c1.119-1.453-1.962-2.4-2.806-1.294Z" transform="translate(-4.958 -47.874)" fill="#eacf83"/></g><g transform="translate(13.517 11.442)"><path d="M18.8,42.015a46.057,46.057,0,0,0,7.523-6.839A20,20,0,0,0,28.841,31.3c.835-1.7,1.344-3.532,2.146-5.244A17.22,17.22,0,0,1,45.525,16.43c1.662-.075-.125-2.789-1.344-2.73a18.611,18.611,0,0,0-15.264,9.352,40.531,40.531,0,0,0-2.1,4.96,18.465,18.465,0,0,1-2.63,4.551,44.617,44.617,0,0,1-7.74,7.1c-.994.768,1.286,3.2,2.363,2.355Z" transform="translate(-16.197 -13.699)" fill="#eacf83"/></g><g transform="translate(19.177 6.285)"><path d="M25.159,34.808c5.394-3.774,6.054-10.588,9.753-15.581a6.743,6.743,0,0,1,3.056-2.463,24.643,24.643,0,0,1,6.254-.944,21.226,21.226,0,0,0,6.212-1.478c1.954-.818,3.774-1.921,5.678-2.839,4.743-2.28,9.995-1.962,15.113-1.62A2.951,2.951,0,0,0,73.3,8.89c.284-.3.768-1.077.008-1.127-4.709-.309-9.552-.568-14.112.9-4.309,1.386-7.841,4.392-12.416,4.96a57.417,57.417,0,0,0-6.663.835,13.308,13.308,0,0,0-5.377,2.672c-2.563,2.146-4.05,5.119-5.377,8.125-1.4,3.173-2.7,6.805-5.653,8.876-.334.234-1.077.977-.543,1.344s1.612-.4,2-.668Z" transform="translate(-22.975 -7.523)" fill="#eacf83"/></g><g transform="translate(40.866 6.19)"><path d="M50.545,15.493a41.138,41.138,0,0,0,7.49-2.705c2-.96,3.941-2.355,6.2-2.647A2.034,2.034,0,0,0,65.817,9a.95.95,0,0,0-.726-1.227C60.531,6.45,56.29,9,52.716,11.535c-.526.376-1.161,1.1-.61,1.737a1.84,1.84,0,0,0,2.2.058c2.622-1.862,5.72-4.2,9.118-3.215.284-.793.576-1.578.86-2.371-2.547.326-4.709,1.67-6.956,2.806a32.9,32.9,0,0,1-6.73,2.538c-.693.184-1.637.61-1.653,1.461-.008.777.96,1.1,1.595.944Z" transform="translate(-48.95 -7.409)" fill="#eacf83"/></g><g transform="translate(65.841 0)"><path d="M91.16,4.984c-2.747.192-5.9.376-8.116-1.587A3.624,3.624,0,0,1,82.016,2.02a1.891,1.891,0,0,1-.134-.835,1.011,1.011,0,0,1,.109-.351.936.936,0,0,1,.134-.184c-1.979.827-2.555,1.127-1.737.919a1.737,1.737,0,0,1,1.645.334.992.992,0,0,1,.075,1.369c-.167.159.259.075.225.075a4.109,4.109,0,0,0,.944-.342,6.04,6.04,0,0,0,1.787-1.027A1.045,1.045,0,0,0,85.231.726,1.5,1.5,0,0,0,83.912,0a5.561,5.561,0,0,0-2.138.468A13.8,13.8,0,0,0,80,1.319a2.572,2.572,0,0,0-.969.793c-.559.994.334,2.138,1.052,2.764a7.184,7.184,0,0,0,3.24,1.5,18.391,18.391,0,0,0,4.977.1,5.273,5.273,0,0,0,1.921-.752,4.279,4.279,0,0,0,.86-.518c.033-.033.284-.242.075-.225Z" transform="translate(-78.86 0.004)" fill="#eacf83"/></g><g transform="translate(7.04 71.011)"><path d="M35.828,87.086A15.051,15.051,0,0,0,26.7,96.964c-.367,1.211-.61,2.8-1.812,3.482a8.455,8.455,0,0,1-3.891.643c-1.445.033-3.248.1-4.451-.852-1.227-.977-1.9-2.764-2.58-4.142a58.917,58.917,0,0,1-2.346-5.436c-.61-1.637-3.206-.618-3.181.885.058,3.649,2.288,6.713,4.551,9.385,2.221,2.622,5.185,5.461,8.884,3.749,1.269-.593,2.422-1.879,3.8-2.171.868-.175,1.8.058,2.689-.092a5.308,5.308,0,0,0,2.188-.893c2.413-1.737,2.689-4.9,3.858-7.406a11.393,11.393,0,0,1,7.749-6.263A1.6,1.6,0,0,0,43.585,86.2a1.566,1.566,0,0,0-1.87-1.127,15.2,15.2,0,0,0-7.857,4.409,14.011,14.011,0,0,0-2.447,3.549c-.593,1.219-.918,2.538-1.394,3.8-.334.885-.752,2.171-1.645,2.664a4.385,4.385,0,0,1-1.979.167,6.544,6.544,0,0,0-2.555.5c-1.269.559-2.338,1.77-3.666,2.154-1.269.367-2.447-.9-3.231-1.72-2.472-2.622-5.152-5.787-5.21-9.569-1.06.292-2.121.593-3.181.885A56.384,56.384,0,0,0,11.07,97.7a13.135,13.135,0,0,0,3.1,4.593A8.45,8.45,0,0,0,19.22,103.9a20.414,20.414,0,0,0,5.144-.326,6.485,6.485,0,0,0,4.275-2.739c.919-1.445,1.1-3.2,1.77-4.751a11.977,11.977,0,0,1,6.713-6.463c2.029-.785.568-3.265-1.294-2.538Z" transform="translate(-8.44 -85.04)" fill="#eacf83"/></g><g transform="translate(100.516 31.357)"><path d="M123.379,44.121c.309-.793.635-1.587.96-2.371.167-.384.326-.768.5-1.152a3.445,3.445,0,0,1,.543-.985c-.05.05-.092.1-.142.15a1.084,1.084,0,0,1,.367-.242c-.075.025-.15.05-.234.084a2.236,2.236,0,0,1,.225-.058c.192-.042-.317.017-.008.008-.259-.042-.317-.05-.175-.017-.292-.092-.367-.117-.217-.058-.309-.142-.392-.175-.242-.1q-.426-.263-.25-.15c.259.184-.292-.259-.1-.075q-.263-.276-.125-.125l.075.1c-.1-.159-.117-.184-.058-.075.025.042.042.092.067.134.042.092.067.184.1.276-.025-.075-.05-.159-.067-.234a4.138,4.138,0,0,1,.05,1.57c-.033.25.334.61.484.743a3.386,3.386,0,0,0,1.111.651,1.884,1.884,0,0,0,1.044.15c.25-.067.376-.159.409-.434a3.8,3.8,0,0,0-.234-2.113,4.182,4.182,0,0,0-2.48-2.021,2.294,2.294,0,0,0-2.605.376,3.531,3.531,0,0,0-.476.893c-.159.359-.309.71-.459,1.069-.351.827-.693,1.653-1.019,2.488-.234.6.718,1.211,1.152,1.42a2.676,2.676,0,0,0,1.152.342c.192.008.559.008.651-.242Z" transform="translate(-120.386 -37.55)" fill="#eacf83"/></g><g transform="translate(38.999 65.685)"><path d="M47.053,86.551a16.672,16.672,0,0,0,10.93-3.315c1.219-.893,3.19-2.58,1.545-4.033a2.751,2.751,0,0,0-2.538-.417,7.743,7.743,0,0,0-3.348,1.82c-.117.1-.351.392-.259.576s.459.167.618.15A4.034,4.034,0,0,0,56.121,80.3c.008-.008.2-.05.067-.042-.033,0-.417.234-.443.192a2.218,2.218,0,0,1,.484.075,1.469,1.469,0,0,1,.918,1.111c.067.5-.292.818-.626,1.086-.217.175-.443.351-.676.509-.083.058-.092.067-.017.008l-.142.092c-.142.092-.292.175-.434.267-.25.15.025-.008-.134.075-.125.067-.251.125-.376.192a2.522,2.522,0,0,0-.259.125c.159-.075-.234.092-.267.109-.225.092-.61.217-.66.234-.267.083-.543.15-.818.217a11.363,11.363,0,0,1-3.332.217,3.431,3.431,0,0,0-2.146.818c-.284.209-.952.919-.209.969Z" transform="translate(-46.714 -78.66)" fill="#eacf83"/></g><g transform="translate(129.119 59.636)"><path d="M157.479,75.82a4.927,4.927,0,0,0,2.2.225,5.683,5.683,0,0,0,2.071-.409,1.916,1.916,0,0,0,1.177-1.595,2.341,2.341,0,0,0-.868-1.82,4.23,4.23,0,0,0-2.73-.8,10.1,10.1,0,0,0-4.492.8c-.134.058-.276.109-.15.234s.66.125.777.125a8.282,8.282,0,0,0,1.286-.05,3.286,3.286,0,0,0,.985-.2c.159-.075.317-.142.476-.209.084-.033.167-.058.242-.083.225-.084-.142.025.067-.025a1.218,1.218,0,0,0,.25-.058c-.192.042-.225.042-.083.025-.075.008-.15.025-.225.033.175-.017.109-.017-.192.017-.092,0-.184.008-.276.008q-.388-.013-.15,0c-.184-.017-.234-.017-.134-.008a.647.647,0,0,1,.125.017c-.117-.017-.134-.025-.058-.008s.159.033.242.058a2.43,2.43,0,0,1,.367.159,2.66,2.66,0,0,1,.7.551c-.025-.025-.042-.05-.067-.075a1.964,1.964,0,0,1,.3,2.355.509.509,0,0,1,.059-.083,2.132,2.132,0,0,1-.568.526c-.117.084.075-.017-.067.033-.067.025-.267.075.017,0a8.8,8.8,0,0,1,1.929-.109c.092.017.092.017.008-.008.075.025.067.025-.008-.008a2.259,2.259,0,0,0-.777-.125,8.244,8.244,0,0,0-1.286.05,3.973,3.973,0,0,0-.985.2c-.075.05-.359.175-.167.259Z" transform="translate(-154.642 -71.417)" fill="#eacf83"/></g><g transform="translate(95.792 6.365)"><path d="M128.29,13.9c-3.282-3.44-7.757-7.022-12.851-6.146-1.72.292.067,2.981,1.319,2.764,4.208-.718,7.448,2.054,10.1,4.826.409.426,1.369.994,1.9.459.543-.551-.075-1.486-.468-1.9Z" transform="translate(-114.729 -7.619)" fill="#eacf83"/></g><g transform="translate(76.437 4.421)"><path d="M93.721,8.1c4.768-.835,9.4.843,13.986,1.912,4.776,1.111,9.586.885,14.462.835.409-.008-.367-1.035-.451-1.144-.242-.326-.985-1.445-1.478-1.445-5.01.058-9.92.259-14.83-.919-4.542-1.086-9.1-2.639-13.828-1.812-.225.042.752,1.394.827,1.486.242.292.852,1.169,1.311,1.085Z" transform="translate(-91.55 -5.291)" fill="#eacf83"/></g><g transform="translate(0 68.314)"><path d="M4.218,83.046q.038,1.816.025,3.632c-.008.61-.017,1.211-.033,1.82-.017.476-.008,1.2-.058,1.545a1.652,1.652,0,0,1-.084.351c.008-.017.025-.033.033-.05q-.125.163-.025.05a.578.578,0,0,1,.184-.134.825.825,0,0,1,.309-.092c.15-.025.15-.025.008-.008.075,0,.15-.008.225-.008-.334.008.259.083-.042-.008-.083-.025-.376-.159-.083-.017-.217-.109-.443-.2-.651-.326.159.092-.017-.017-.075-.058a2.6,2.6,0,0,1-.276-.242c-.058-.058-.058-.058-.008,0l-.075-.1c-.067-.1-.125-.2-.184-.309-.109-.167-.042.033-.067-.167a2.378,2.378,0,0,1-.033-.351.5.5,0,0,1,.1-.309c.426-.626-.109-1.211-.752-1.353a2.263,2.263,0,0,0-2.229.626,2.647,2.647,0,0,0,.919,3.674,4.747,4.747,0,0,0,4.876.6,2.364,2.364,0,0,0,1.244-2.1c.058-.76.067-1.528.084-2.3.033-1.578.033-3.156-.008-4.743-.008-.3-.334-.559-.568-.676a2.3,2.3,0,0,0-1.211-.175c-.643.092-1.561.434-1.545,1.219Z" transform="translate(-0.008 -81.809)" fill="#eacf83"/></g><path d="M118.448,348.273c-.593-.434-2.555,0-3.231.108a.43.43,0,0,0-.359.418l-.417,13.276a.44.44,0,0,0,.334.443c.96.217,3.59.718,4.125-.251.468-.852-.008-11.581-.092-13.585C118.807,348.481,118.615,348.4,118.448,348.273Z" transform="translate(-18.89 -57.43)" fill="#f3c8bb" stroke="#c69191" stroke-miterlimit="10" stroke-width="1.563"/><g transform="translate(92.569 302.814)"><path d="M121.909,367.384a2.78,2.78,0,0,1,.418-.593,21.107,21.107,0,0,1,2.3-2.722,4.776,4.776,0,0,1,2.179-1.394.442.442,0,0,1,.109-.008.763.763,0,0,1,.134-.008,12.1,12.1,0,0,1,1.8.058c5.82.559,7.507,7.782,7.507,7.782a57.533,57.533,0,0,1-15.564,1.829v-.008A11.529,11.529,0,0,1,121.909,367.384Z" transform="translate(-112.507 -362.647)" fill="#ee7358"/><path d="M122.3,367.072a2.785,2.785,0,0,0-.418.593c-1.386.543-1.236-.96-1.236-.96l-.008-.008c.885-.493,2.455-2.163,3.958-2.346A21.106,21.106,0,0,0,122.3,367.072Z" transform="translate(-112.482 -362.928)" fill="#ee7358"/><path d="M119.153,373.879a57.533,57.533,0,0,0,15.564-1.829s.192,2.505-.217,2.914-13.277,2.964-23.631,0c0,0,.217-1.62.392-2.914A19.31,19.31,0,0,0,119.153,373.879Z" transform="translate(-110.87 -364.198)" fill="#ee7358"/><path d="M120.348,367.434a11.529,11.529,0,0,0-1.119,4.935v.008a19.307,19.307,0,0,1-7.891-1.829h-.008A20.067,20.067,0,0,1,113.468,363s4.334.935,5.352-.05l.735.443-.125.209a3.475,3.475,0,0,0-1.979,1.478c-.242.518.376.91.9.726a.947.947,0,0,0-.05.209c-.042.267,0,.551.342.6a.735.735,0,0,0,.459-.15l.008.008S118.962,367.977,120.348,367.434Z" transform="translate(-110.946 -362.697)" fill="#ee7358"/><g transform="translate(0 0)"><path d="M126.725,362.67a.447.447,0,0,0-.109.008,11.273,11.273,0,0,0-4.7,1.269,9,9,0,0,0-1.787,1.219,1.366,1.366,0,0,0-.4.593.95.95,0,0,0-.05.209c-.042.267,0,.551.342.6a.735.735,0,0,0,.459-.15c.885-.493,2.455-2.163,3.958-2.346" transform="translate(-112.321 -362.651)" fill="none" stroke="#e84436" stroke-linecap="round" stroke-linejoin="round" stroke-miterlimit="10" stroke-width="1.5"/><path d="M120.54,363.944l-.985-.6-.735-.443c-1.019.985-5.352.05-5.352.05a20.067,20.067,0,0,0-2.138,7.548h.008a19.311,19.311,0,0,0,7.891,1.829,57.529,57.529,0,0,0,15.564-1.829s-1.687-7.223-7.507-7.782a12.123,12.123,0,0,0-1.8-.058" transform="translate(-110.946 -362.647)" fill="none" stroke="#e84436" stroke-linecap="round" stroke-linejoin="round" stroke-miterlimit="10" stroke-width="1.5"/><path d="M127.044,362.66a.774.774,0,0,0-.134.008.555.555,0,0,0-.109.008,4.778,4.778,0,0,0-2.179,1.395,21.1,21.1,0,0,0-2.3,2.722,2.781,2.781,0,0,0-.418.593,11.528,11.528,0,0,0-1.119,4.935" transform="translate(-112.507 -362.649)" fill="none" stroke="#e84436" stroke-linecap="round" stroke-linejoin="round" stroke-miterlimit="10" stroke-width="1.5"/><path d="M134.718,371.738s.192,2.505-.217,2.914-13.277,2.964-23.631,0c0,0,.217-1.62.392-2.914.117-.852.209-1.57.209-1.578" transform="translate(-110.87 -363.887)" fill="none" stroke="#e84436" stroke-linecap="round" stroke-linejoin="round" stroke-miterlimit="10" stroke-width="1.5"/><path d="M120.649,367.17s-.15,1.5,1.236.96" transform="translate(-112.483 -363.393)" fill="none" stroke="#e84436" stroke-linecap="round" stroke-linejoin="round" stroke-miterlimit="10" stroke-width="1.5"/><path d="M120.628,363.73a3.475,3.475,0,0,0-1.979,1.478c-.242.518.376.91.9.727" transform="translate(-112.145 -362.826)" fill="none" stroke="#e84436" stroke-linecap="round" stroke-linejoin="round" stroke-miterlimit="10" stroke-width="1.5"/></g></g><path d="M64.65,304.07" transform="translate(-10.674 -50.168)" fill="#eed351" stroke="#e84436" stroke-linecap="round" stroke-miterlimit="10" stroke-width="4"/><path d="M106.05,301.49" transform="translate(-17.505 -49.742)" fill="#1d71b8" stroke="#5492c5" stroke-linecap="round" stroke-miterlimit="10" stroke-width="2"/><path d="M86.594,168.892s-24.282,15.756-32.34,40.155c-7.782,23.58-5.394,38.828,1.67,42.109,5.219,2.422,50.325,12.725,53.966-17.268,2.814-23.171-5.8-54.584-12.784-65.088,0,0-10.5,31.129-13.059,35.4a44.7,44.7,0,0,1-6.905,8.283" transform="translate(-8.161 -27.849)" fill="#fff" stroke="#497ea9" stroke-linecap="round" stroke-linejoin="round" stroke-miterlimit="10" stroke-width="3.66"/><g transform="translate(68.162 199.143)"><g transform="translate(4.868)"><path d="M123.375,264.526a1.993,1.993,0,0,1,.134,3.449c-1.019.426-7.139-3.281-8.659-4.442s-4.367-4.643-7.774-4.108l-19.439,3.607c-.96-3.707,2.522-8.743,2.522-10.187l14.955-3.34c1.361-.175,2.221-3.423,2.221-3.423s1.52-4.952,2.43-5.169,1.536-2.806,2.555-2.371c1.019.417,1.177,3.307.81,4.025s-1.077,3.156-1.929,3.632c2,3.691,10.379-2.154,13.093-1.954s1.687,3.248.818,3.591c-.818.326-8.575,3.2-7.657,3.908s9.152-.167,9.152-.167c1.954.451.927,3.14-.05,3.407s-9.786,1.06-9.628,1.353,7.465,2.488,8.575,2.3c1.111-.167,2.2,2.689.676,3.507-1.244.668-7.206-.868-9.344-1.461-.1-.025-.142.134-.058.192C118.4,261.778,122.223,263.916,123.375,264.526Z" transform="translate(-87.469 -238.491)" fill="#f3c8bb"/><path d="M92.829,263.908c-.367.693,13.811-3.8,15.13-3.348a30.288,30.288,0,0,1,7.774,4.108c1.52,1.161,7.649,4.86,8.659,4.442a1.993,1.993,0,0,0-.134-3.449c-1.152-.61-4.977-2.747-6.588-3.649-.092-.05-.042-.217.058-.192,2.146.593,8.108,2.138,9.344,1.461,1.528-.818.434-3.674-.676-3.507-1.111.184-8.417-2.021-8.575-2.3s8.659-1.085,9.628-1.353,2-2.956.05-3.407c0,0-8.233.877-9.152.167s6.839-3.582,7.657-3.908c.868-.342,1.887-3.4-.818-3.591s-11.089,5.645-13.093,1.954" transform="translate(-88.353 -239.627)" fill="none" stroke="#c69191" stroke-linecap="round" stroke-linejoin="round" stroke-miterlimit="10" stroke-width="1.861"/><path d="M112.479,246.208c.852-.476,1.553-2.922,1.929-3.632s.209-3.616-.81-4.025c-1.019-.426-1.637,2.154-2.555,2.371s-2.43,5.169-2.43,5.169-.86,3.248-2.221,3.423c0,0-9.694,3.407-11.172,2.9" transform="translate(-88.748 -238.493)" fill="none" stroke="#c69191" stroke-linecap="round" stroke-linejoin="round" stroke-miterlimit="10" stroke-width="1.861"/><path d="M95.57,254.74" transform="translate(-88.806 -241.172)" fill="#f3c8bb"/></g><path d="M105.688,247.29s4.993,1.336,5.5.868c0,0,4.192,10.12,2,16.1,0,0-13.744.693-18.679,1.687a33.978,33.978,0,0,1-8.55.7L81.64,251.131s18.036,1.344,20.282.584C104.152,250.956,105.688,247.29,105.688,247.29Z" transform="translate(-81.64 -239.943)" fill="#1d71b8" stroke="#5492c5" stroke-linecap="round" stroke-linejoin="round" stroke-miterlimit="10" stroke-width="1.902"/><g transform="translate(22.996 10.645)"><path d="M109.18,251.24s5.469,10.421,4.8,13.034" transform="translate(-109.18 -251.24)" fill="#1d71b8"/><path d="M109.18,251.24s.067.125.184.351" transform="translate(-109.18 -251.24)" fill="none" stroke="#5492c5" stroke-linecap="round" stroke-linejoin="round" stroke-width="0.475"/><path d="M109.81,252.49c1.219,2.43,4.133,8.484,4.317,11.214" transform="translate(-109.284 -251.446)" fill="none" stroke="#5492c5" stroke-linecap="round" stroke-linejoin="round" stroke-width="0.475" stroke-dasharray="0.932 0.932"/><path d="M114.99,266.39a2.645,2.645,0,0,1-.05.392" transform="translate(-110.13 -253.74)" fill="none" stroke="#5492c5" stroke-linecap="round" stroke-linejoin="round" stroke-width="0.475"/></g><g transform="translate(19.923 12.733)"><path d="M105.5,253.74s4.876,8.909,4.217,11.523" transform="translate(-105.5 -253.74)" fill="#1d71b8"/><path d="M105.5,253.74s.067.125.184.351" transform="translate(-105.5 -253.74)" fill="none" stroke="#5492c5" stroke-linecap="round" stroke-linejoin="round" stroke-width="0.475"/><path d="M106.15,254.98c1.119,2.163,3.591,7.2,3.724,9.711" transform="translate(-105.607 -253.945)" fill="none" stroke="#5492c5" stroke-linecap="round" stroke-linejoin="round" stroke-width="0.475" stroke-dasharray="0.927 0.927"/><path d="M110.6,267.08a1.847,1.847,0,0,1-.058.392" transform="translate(-106.332 -255.941)" fill="none" stroke="#5492c5" stroke-linecap="round" stroke-linejoin="round" stroke-width="0.475"/></g><g transform="translate(16.166 13.159)"><path d="M101,254.25s4.81,8.784,4.142,11.4" transform="translate(-101 -254.25)" fill="#1d71b8"/><path d="M101,254.25s.067.125.184.351" transform="translate(-101 -254.25)" fill="none" stroke="#5492c5" stroke-linecap="round" stroke-linejoin="round" stroke-width="0.475"/><path d="M101.65,255.47c1.1,2.138,3.532,7.1,3.657,9.594" transform="translate(-101.107 -254.451)" fill="none" stroke="#5492c5" stroke-linecap="round" stroke-linejoin="round" stroke-width="0.475" stroke-dasharray="0.915 0.915"/><path d="M106.018,267.42a1.845,1.845,0,0,1-.058.392" transform="translate(-101.818 -256.423)" fill="none" stroke="#5492c5" stroke-linecap="round" stroke-linejoin="round" stroke-width="0.475"/></g><g transform="translate(13.118 12.766)"><path d="M97.35,253.78s3.432,9.427,2.764,12.041" transform="translate(-97.35 -253.78)" fill="#1d71b8"/><path d="M97.35,253.78s.05.134.134.367" transform="translate(-97.35 -253.78)" fill="none" stroke="#5492c5" stroke-linecap="round" stroke-linejoin="round" stroke-width="0.475"/><path d="M97.81,255.1c.785,2.3,2.488,7.59,2.463,10.154" transform="translate(-97.426 -253.998)" fill="none" stroke="#5492c5" stroke-linecap="round" stroke-linejoin="round" stroke-width="0.475" stroke-dasharray="0.929 0.929"/><path d="M100.727,267.73a2.556,2.556,0,0,1-.067.392" transform="translate(-97.896 -256.082)" fill="none" stroke="#5492c5" stroke-linecap="round" stroke-linejoin="round" stroke-width="0.475"/></g><g transform="translate(9.076 12.249)"><path d="M92.51,253.16s3.858,10.663,3.19,13.277" transform="translate(-92.51 -253.16)" fill="#1d71b8"/><path d="M92.51,253.16s.05.134.134.376" transform="translate(-92.51 -253.16)" fill="none" stroke="#5492c5" stroke-linecap="round" stroke-linejoin="round" stroke-width="0.475"/><path d="M92.97,254.46c.86,2.5,2.881,8.676,2.889,11.414" transform="translate(-92.586 -253.375)" fill="none" stroke="#5492c5" stroke-linecap="round" stroke-linejoin="round" stroke-width="0.475" stroke-dasharray="0.911 0.911"/><path d="M96.4,268.59a2.329,2.329,0,0,1-.058.384" transform="translate(-93.142 -255.706)" fill="none" stroke="#5492c5" stroke-linecap="round" stroke-linejoin="round" stroke-width="0.475"/></g><g transform="translate(5.286 12.24)"><path d="M87.97,253.15s3.682,10.713,3.014,13.327" transform="translate(-87.97 -253.15)" fill="#1d71b8"/><path d="M87.97,253.15s.042.134.125.376" transform="translate(-87.97 -253.15)" fill="none" stroke="#5492c5" stroke-linecap="round" stroke-linejoin="round" stroke-width="0.475"/><path d="M88.4,254.46c.818,2.522,2.747,8.717,2.73,11.465" transform="translate(-88.041 -253.366)" fill="none" stroke="#5492c5" stroke-linecap="round" stroke-linejoin="round" stroke-width="0.475" stroke-dasharray="0.912 0.912"/><path d="M91.637,268.65a2.281,2.281,0,0,1-.067.384" transform="translate(-88.564 -255.708)" fill="none" stroke="#5492c5" stroke-linecap="round" stroke-linejoin="round" stroke-width="0.475"/></g></g><path d="M91.795,169.74s-20.817,62.608-4.8,85.237" transform="translate(-13.362 -28.004)" fill="none" stroke="#497ea9" stroke-linecap="round" stroke-miterlimit="10" stroke-width="3.66"/><path d="M94.95,167v4.918S98.966,168.829,94.95,167Z" transform="translate(-15.674 -27.552)" fill="#c69191"/></svg>