<svg xmlns="http://www.w3.org/2000/svg" width="250.675" height="250.675" viewBox="0 0 250.675 250.675"><g transform="translate(-429.325 -186.047)"><path d="M1112.28,337.73l.57-162.858c0-25.2-19.683-45.631-43.963-45.631H906.138c-24.281,0-43.963,20.43-43.963,45.631V343.795a47.668,47.668,0,0,0,.292,5.2V270.922H865.4l50.78-9.049H923v9.049h.373l-.9-22.99-1.885-48.172h-.018v-.005l.018-.009-.021-.513s.923-.333,2.662-.861L945.24,186.92a22.256,22.256,0,0,1,8.3-2.436c15.608-1.4,67.968-5.034,86.878,7.183l0,0v0l.005,0-.005.007v72.569h.912l14.953-8.567h39.74a4.181,4.181,0,0,1,1.988,7.86l-2.276,1.23h0" transform="translate(-432.85 56.806)" fill="#78c1b9"/><line y1="9.089" x2="16.822" transform="translate(662.886 312.486)" fill="#78c1b9"/><path d="M941.949,239.449h-62.9l-16.382,17.4v76.388h92.812V256.85Z" transform="translate(-433.053 11.571)" fill="#3eab9a"/><path d="M1227.553,301.281l-9.541-11.54H1173.7l-11.54,11.54h.774v47.968h63.987V301.281Z" transform="translate(-555.979 -9.071)" fill="#3eab9a"/><path d="M1135.367,213.81h-36.381L1084.8,228v97.279h63.979V228Z" transform="translate(-524.226 22.094)" fill="#3eab9a"/><rect width="7.985" height="15.442" transform="translate(451.777 242.552)" fill="#3eab9a"/><rect width="7.985" height="15.442" transform="translate(576.521 225.423)" fill="#3eab9a"/><rect width="7.985" height="15.442" transform="translate(658.893 275.567)" fill="#3eab9a"/><g transform="translate(509.31 396.138)" style="isolation:isolate"><text transform="translate(0 8)" fill="#19836e" font-size="9" font-family="Laca-Bold, Laca" font-weight="700" style="isolation:isolate"><tspan x="0" y="0">AZ SINT LUCAS</tspan></text></g><path d="M1153.479,244.486c-.018.808-.06,2.564-.123,5.131l.129-5.131Z" transform="translate(-552.365 9.503)" fill="#fb9f1f"/><path d="M1151.8,290.959c-.251,9.943-.554,21.888-.881,34.73h.011Z" transform="translate(-551.363 -9.571)" fill="#fb9f1f"/><path d="M1165.427,349.868h-.908v.5Z" transform="translate(-556.947 -33.751)" fill="#fff"/><path d="M1164.519,350.723v120.1h28.464a43.758,43.758,0,0,0,26.849-9.163V350.723Zm15.861,104.551h-10.718V431.259h10.718Zm0-35.372h-10.718V395.887h10.718Zm0-35.378h-10.718V360.509h10.718Zm15.865,70.75h-10.718V431.259h10.718Zm0-35.372h-10.718V395.887h10.718Zm0-35.378h-10.718V360.509h10.718Zm15.865,70.75h-10.718V431.259h10.718Zm0-35.372h-10.718V395.887h10.718Zm-10.718-35.378V360.509h10.718v24.015Z" transform="translate(-556.946 -34.101)" fill="#fff"/><path d="M965.717,360.88l0-.1h-.372v.115Z" transform="translate(-475.194 -38.228)" fill="#fff"/><path d="M868.638,435.386h10.77V459.4h-7.048a44.163,44.163,0,0,0,33.7,15.549h15.752l-4-113.668H862.175l2.951-.5h-2.951v75.214a43.53,43.53,0,0,0,6.463,18.351ZM900.63,369.35h10.718v24.015H900.63Zm0,33.021h10.718v24.015H900.63Zm0,33.015h10.718V459.4H900.63ZM884.764,369.35h10.717v24.015H884.764Zm0,33.021h10.717v24.015H884.764Zm0,33.015h10.717V459.4H884.764ZM868.9,369.35h10.718v24.015H868.9Zm0,33.021h10.718v24.015H868.9Z" transform="translate(-432.85 -38.229)" fill="#fff"/><rect width="0.005" height="0.502" transform="translate(607.568 316.118)" fill="#ebebeb"/><path d="M1148.769,350.372l.012-.5h-.011c-1.149,45.183-2.59,101.451-3.08,120.6h11.1v-120.1h-8.021Z" transform="translate(-549.218 -33.75)" fill="#ebebeb"/><path d="M961.743,360.964v.389h-5.167l3.984,113.668h6.192l-4.633-114.07Z" transform="translate(-471.596 -38.3)" fill="#ebebeb"/><path d="M973.479,312.818l.008.228h1.476V298.787h15.009v18.439H975.6v7.394H989.75v18.439H975.6V373.29l1.891,53.929H997.9v-29.7h38.163v29.7h27.874v-120.6h9.135c.327-12.842.63-24.786.881-34.73l.558-22.267c.063-2.568.106-4.323.123-5.131H961.248l1.885,46.411.9,22.149h2.932Zm24.268,30.24V324.62h15.009v18.439Zm.222-25.832V298.787h15.009v18.439Zm15.966,53.495H998.925V352.282h15.009Zm6.814,12.422v3.143h-3.31v-3.143H1014.3v-3.31h3.143V376.69h3.31v3.143h3.143v3.31Zm15.018-58.524v18.439h-15.009V324.62Zm-14.787-7.394V298.787h15.01v18.439Zm15.96,53.495h-15.009V352.282h15.009Zm23.011.856h-15.009V353.138h15.009ZM1050.305,265.4h15.01v24.871h-15.01Zm-6.32,34.242h15.009v18.439h-15.009Zm-.222,25.838h15.009v18.439h-15.009Zm-5.032-36.07h-15.009V264.541h15.009Zm-41.6-24.871h15.009v24.871H997.133Zm-6.21,106.18H975.914V352.282h15.009ZM970.55,264.541h15.009v24.871H970.55Z" transform="translate(-473.514 9.503)" fill="#fff"/><path d="M961.213,243.046l.021.494,2.642-1.324C962.136,242.725,961.213,243.046,961.213,243.046Z" transform="translate(-473.5 10.435)" fill="#fff"/><rect width="2.146" height="120.604" transform="translate(590.418 316.118)" fill="#fff"/><path d="M968.9,360.778h-2.932l0,.1Z" transform="translate(-475.453 -38.228)" fill="#fff"/><path d="M984.12,390.791h-.858V372.352h.858v-7.394h-.636v-4.18h-1.476l2.112,60.244Z" transform="translate(-482.035 -38.228)" fill="#fff"/><path d="M1139.061,349.868v120.6h3.908c.49-19.154,1.931-75.421,3.08-120.6Z" transform="translate(-546.497 -33.75)" fill="#fff"/><path d="M985.59,516.892h1.891l-1.891-53.928Z" transform="translate(-483.505 -80.171)" fill="#fff"/><path d="M977.459,360.392l-6.515.227h6.523Z" transform="translate(-477.494 -38.07)" fill="#fff"/><path d="M977.541,421.022l-2.112-60.244h-6.523l-2.928.1,4.633,114.07h6.929Z" transform="translate(-475.456 -38.228)" fill="#fff"/><rect width="15.009" height="24.871" transform="translate(497.036 274.044)" fill="#cfcfcf"/><rect width="15.009" height="24.871" transform="translate(523.62 274.044)" fill="#cfcfcf"/><rect width="15.009" height="24.871" transform="translate(550.209 274.044)" fill="#cfcfcf"/><rect width="15.009" height="24.871" transform="translate(576.792 274.905)" fill="#cfcfcf"/><path d="M985.148,355.031h14.373V336.592H984.512v14.259h.636Z" transform="translate(-483.063 -28.301)" fill="#cfcfcf"/><rect width="0.636" height="4.18" transform="translate(501.449 322.549)" fill="#cfcfcf"/><rect width="14.152" height="18.439" transform="translate(502.085 334.123)" fill="#cfcfcf"/><rect width="0.858" height="18.439" transform="translate(501.227 334.123)" fill="#cfcfcf"/><rect width="15.009" height="18.439" transform="translate(502.4 361.785)" fill="#cfcfcf"/><rect width="15.009" height="18.439" transform="translate(524.455 308.29)" fill="#cfcfcf"/><rect width="15.009" height="18.439" transform="translate(524.233 334.123)" fill="#cfcfcf"/><rect width="15.009" height="18.439" transform="translate(525.411 361.785)" fill="#cfcfcf"/><rect width="15.009" height="18.439" transform="translate(547.466 308.29)" fill="#cfcfcf"/><rect width="15.009" height="18.439" transform="translate(547.243 334.123)" fill="#cfcfcf"/><rect width="15.009" height="18.439" transform="translate(548.417 361.785)" fill="#cfcfcf"/><rect width="15.009" height="18.439" transform="translate(570.471 309.147)" fill="#cfcfcf"/><rect width="15.009" height="18.439" transform="translate(570.249 334.985)" fill="#cfcfcf"/><rect width="15.009" height="18.439" transform="translate(571.428 362.641)" fill="#cfcfcf"/><rect width="38.163" height="29.703" transform="translate(524.381 407.019)" fill="#cfcfcf"/><rect width="10.718" height="24.015" transform="translate(436.049 331.122)" fill="#cfcfcf"/><rect width="10.718" height="24.015" transform="translate(436.049 364.142)" fill="#cfcfcf"/><path d="M884.3,487.328H873.579v18.958a44.115,44.115,0,0,0,3.7,5.058H884.3Z" transform="translate(-437.53 -90.171)" fill="#cfcfcf"/><rect width="10.718" height="24.015" transform="translate(451.914 331.122)" fill="#cfcfcf"/><rect width="10.718" height="24.015" transform="translate(451.914 364.142)" fill="#cfcfcf"/><rect width="10.718" height="24.015" transform="translate(451.914 397.157)" fill="#cfcfcf"/><rect width="10.718" height="24.015" transform="translate(467.78 331.122)" fill="#cfcfcf"/><rect width="10.718" height="24.015" transform="translate(467.78 364.142)" fill="#cfcfcf"/><rect width="10.718" height="24.015" transform="translate(467.78 397.157)" fill="#cfcfcf"/><rect width="10.718" height="24.015" transform="translate(612.715 326.408)" fill="#cfcfcf"/><rect width="10.718" height="24.015" transform="translate(612.715 361.785)" fill="#cfcfcf"/><rect width="10.718" height="24.015" transform="translate(612.715 397.157)" fill="#cfcfcf"/><rect width="10.718" height="24.015" transform="translate(628.58 326.408)" fill="#cfcfcf"/><rect width="10.718" height="24.015" transform="translate(628.58 361.785)" fill="#cfcfcf"/><rect width="10.718" height="24.015" transform="translate(628.58 397.157)" fill="#cfcfcf"/><rect width="10.718" height="24.015" transform="translate(644.446 326.408)" fill="#cfcfcf"/><rect width="10.718" height="24.015" transform="translate(644.446 361.785)" fill="#cfcfcf"/><rect width="10.718" height="24.015" transform="translate(644.446 397.157)" fill="#cfcfcf"/><path d="M925.244,345.99h-6.812l-50.78,8.718h57.592Z" transform="translate(-435.098 -32.159)" fill="#bbbab9"/><path d="M918.032,361.282l-.007-.208,5.174-.18v-.115H865.607l-2.936.5Z" transform="translate(-433.053 -38.228)" fill="#bbbab9"/><path d="M961.738,360.974l-5.174.18.007.208h5.167Z" transform="translate(-471.591 -38.309)" fill="#bbbab9"/><path d="M1076.477,231.263c0,.014,0,.192-.01.509h.005v-.005l6.446-7.794c-18.51-13.538-70.495-11.693-86.878-6.92-2.784.811-5.706,1.046-8.3,2.347l-22.015,11.034C976.883,227.169,1021.912,216.092,1076.477,231.263Z" transform="translate(-475.353 22.218)" fill="#bbbab9"/><path d="M1164.517,231.261l-.005,0v.01Z" transform="translate(-556.943 14.933)" fill="#bbbab9"/><path d="M961.217,244.47v.006h.019v-.015Z" transform="translate(-473.501 9.514)" fill="#bbbab9"/><path d="M1074.638,238.2c-54.565-15.171-99.594-4.094-110.748-.829l-2.642,1.324v.015h113.381C1074.636,238.389,1074.639,238.211,1074.638,238.2Z" transform="translate(-473.514 15.284)" fill="#bbbab9"/><path d="M1152.49,239.064l-.129,5.131c-.12,4.866-.314,12.625-.558,22.267l-.87,34.73h8V231.275l-6.443,7.789Z" transform="translate(-551.37 14.926)" fill="#8b8989"/><path d="M1164.511,231.254v0h0Z" transform="translate(-556.943 14.934)" fill="#8b8989"/><path d="M1150.913,350.372h8.017v-.5h-8Z" transform="translate(-551.362 -33.751)" fill="#8b8989"/><path d="M1152.41,275.457c.244-9.642.438-17.4.558-22.267Z" transform="translate(-551.976 5.931)" fill="#8b8989"/><path d="M1153.574,239.056h.006l6.442-7.789v-.01h0l-6.447,7.794Z" transform="translate(-552.454 14.933)" fill="#8b8989"/><path d="M1220.465,344.626h0l16.822-8.757h-56.274l-14.953,8.254h54.405Z" transform="translate(-557.579 -28.004)" fill="#d0d0d1"/><path d="M1164.519,350.372h55.313v-.5h-54.405l-.908.5Z" transform="translate(-556.947 -33.751)" fill="#d0d0d1"/><path d="M1164.512,350.721h0v0Z" transform="translate(-556.943 -34.099)" fill="#d0d0d1"/><path d="M1258.343,344.626V455.564a43.9,43.9,0,0,0,16.822-29.795v-89.9Z" transform="translate(-595.456 -28.005)" fill="#8b8989"/><path d="M1050.273,262.662c1.114.423,5.42,0,5.42,0-3.144-.219-6.237-.915-8.017-2.992s.671-5.089,1.245-6.236,4.389-4.318,4.389-4.318a11.813,11.813,0,0,0-7.061,4.715,5.648,5.648,0,0,0-.952,5.692C1046.317,261.668,1049.159,262.239,1050.273,262.662Z" transform="translate(-507.839 7.603)" fill="#19836e"/><path d="M1062.761,257.984c1.8,2.062-.63,5.1-1.192,6.247s-4.352,4.354-4.352,4.354a11.956,11.956,0,0,0,7.026-4.767,5.65,5.65,0,0,0,.9-5.7c-1.041-2.139-3.889-2.679-5.008-3.1s-5.419.047-5.419.047C1057.863,255.252,1060.966,255.922,1062.761,257.984Z" transform="translate(-511.878 5.251)" fill="#19836e"/><path d="M1056.186,262.8a1.7,1.7,0,1,0,1.7-1.723A1.711,1.711,0,0,0,1056.186,262.8Z" transform="translate(-512.481 2.694)" fill="#19836e"/><path d="M1057.68,471.875v-3.143h-3.31v3.143h-3.143v3.31h3.143v3.144h3.31v-3.144h3.144v-3.31Z" transform="translate(-510.446 -82.538)" fill="#e02b27" stroke="#e02b27" stroke-miterlimit="10" stroke-width="3.42"/></g></svg>