<svg xmlns="http://www.w3.org/2000/svg" width="1354.785" height="774.282" viewBox="0 0 1354.785 774.282">
  <g id="Group_833" data-name="Group 833" transform="translate(-347.438 -219.22)">
    <g id="background">
      <rect id="Rectangle_124" data-name="Rectangle 124" width="1318.785" height="749.282" rx="74.98" transform="translate(383.438 244.22)" fill="#e54c43"/>
      <rect id="Rectangle_123" data-name="Rectangle 123" width="1318.785" height="749.282" rx="74.98" transform="translate(347.438 219.22)" fill="#ffd45c"/>
      <text id="Kies_de_moeilijkheidsgraad:" data-name="Kies de moeilijkheidsgraad:" transform="translate(1017 325)" fill="#1b9a82" font-size="65" font-family="Laca-Bold, Laca" font-weight="700"><tspan x="-389.87" y="0">Kies de moeilijkheidsgraad:</tspan></text>
    </g>
    <g id="Group_836" data-name="Group 836" transform="translate(0 -27)">
      <g id="makkelijk">
        <text id="_Makkelijk_2-5j_" data-name="
Makkelijk (2-5j)
" transform="translate(1007 431)" fill="#fff" font-size="72" font-family="Laca-Bold, Laca" font-weight="700"><tspan x="0" y="0"></tspan><tspan x="-253.296" y="86">Makkelijk (2-5j)</tspan><tspan x="0" y="172"></tspan></text>
      </g>
      <g id="Rectangle_201" data-name="Rectangle 201" transform="translate(656 408)" fill="none" stroke="#ffbc00" stroke-width="1">
        <rect width="702" height="170" rx="30" stroke="none"/>
        <rect x="0.5" y="0.5" width="701" height="169" rx="29.5" fill="none"/>
      </g>
    </g>
    <g id="Group_834" data-name="Group 834" transform="translate(0 -27)">
      <g id="gemiddeld" transform="translate(0 46)">
        <text id="gemiddeld-2" data-name="gemiddeld" transform="translate(1007 659)" fill="#fff" font-size="72" font-family="Laca-Bold, Laca" font-weight="700"><tspan x="-277.02" y="0">Gemiddeld (6-8j)</tspan></text>
      </g>
      <g id="Rectangle_202" data-name="Rectangle 202" transform="translate(656 596)" fill="none" stroke="#ffbc00" stroke-width="1">
        <rect width="702" height="170" rx="30" stroke="none"/>
        <rect x="0.5" y="0.5" width="701" height="169" rx="29.5" fill="none"/>
      </g>
    </g>
    <g id="Group_835" data-name="Group 835" transform="translate(0 -27)">
      <g id="moeilijk" transform="translate(0 73)">
        <text id="Moeilijk_8-15j_" data-name="Moeilijk (8-15j)" transform="translate(1007 813)" fill="#fff" font-size="72" font-family="Laca-Bold, Laca" font-weight="700"><tspan x="-243" y="0">Moeilijk (8-15j)</tspan></text>
      </g>
      <g id="Rectangle_203" data-name="Rectangle 203" transform="translate(656 777)" fill="none" stroke="#ffbc00" stroke-width="1">
        <rect width="702" height="170" rx="30" stroke="none"/>
        <rect x="0.5" y="0.5" width="701" height="169" rx="29.5" fill="none"/>
      </g>
    </g>
  </g>
</svg>
