<svg xmlns="http://www.w3.org/2000/svg" xmlns:xlink="http://www.w3.org/1999/xlink" width="100%" height="100%" viewBox="0 0 1920 1080"><defs><clipPath id="b"><rect width="1920" height="1080"/></clipPath></defs><g id="a" clip-path="url(#b)"><rect width="1920" height="1080" fill="#fff"/><path d="M269.261,609.66H2299.725v768.032L240.89,1413.6Z" transform="translate(-343.875 -186.428)" fill="#8dd9aa"/><rect width="1991.938" height="491.304" transform="translate(-36.715 -332.04)" fill="#c1f4ea"/><path d="M0,150.732l243.541-75.6,296.88,73.857L643.53,117.324l99.539,75.622L1185.736,62.82,1822.15,207,1953.7,170.085l-3.57,314.756L5.332,447.925Z" transform="translate(-0.223 -51.381)" fill="#70efd9"/><g transform="translate(-19.628 94.078)"><path d="M1976.446,376.432,2.78,374.666V183.09H221l304.555-1.766,1.806-35.244H887.691l.1,31.713,364.416-1.766,285.378,1.766,438.867-29.97Z" transform="translate(0.171 -35.283)" fill="#39e5cc"/><rect width="89.678" height="142.439" transform="translate(0 43.979)" fill="#39e5cc"/><rect width="89.678" height="142.439" transform="translate(179.356 77.388)" fill="#39e5cc"/><rect width="89.678" height="142.439" transform="translate(381.713 49.253)" fill="#39e5cc"/><rect width="89.678" height="142.439" transform="translate(1071.298 36.94)" fill="#39e5cc"/><rect width="89.678" height="142.439" transform="translate(1186.53)" fill="#39e5cc"/><rect width="89.678" height="61.543" transform="translate(1344.986 80.896)" fill="#39e5cc"/><rect width="89.678" height="61.543" transform="translate(714.801 52.088)" fill="#39e5cc"/></g><g transform="translate(489.407 81.788)"><rect width="188.208" height="142.114" transform="translate(820.926 210.836)" fill="#05ccb4"/><path d="M453.723,128.76h-196.5L206.04,179.942V404.625H496.007V179.942Z" transform="translate(-206.04 -45.912)" fill="#05ccb4"/><path d="M652.813,203.623,624.748,169.68H494.413L460.47,203.623h2.277V344.715H650.955V203.623Z" transform="translate(130.639 8.236)" fill="#05ccb4"/><path d="M558.91,203.672l33.455-33.432H720.772l27.647,33.432" transform="translate(260.901 8.977)" fill="#05ccb4"/><path d="M501.425,106.37H394.416L352.69,148.119V434.253H540.875V148.119Z" transform="translate(-11.983 -75.54)" fill="#05ccb4"/><rect width="23.488" height="45.42" transform="translate(82.151 57.942)" fill="#05ccb4"/><rect width="23.488" height="45.42" transform="translate(387.614)" fill="#05ccb4"/><rect width="23.488" height="45.42" transform="translate(725.974 162.907)" fill="#05ccb4"/></g><g transform="translate(37.158 289.279)"><path d="M220.5,199.02H44.68v23.442H67.007v87.912h131.1V222.462h22.42V199.02ZM188.908,301.2H76.183V224.808H188.908Z" transform="translate(21.742 -160.431)" fill="#00b2a1"/><rect width="4.577" height="144.182" fill="#00b2a1"/><rect width="29.761" height="42.353" transform="translate(8.015 6.854)" fill="#00b2a1"/><path d="M345.451,262.656c2.044-4.809,1.045-10.548-5.181-13.289-8.619-3.787-17.448-6.3-26.95-6.18-2.834.046-7.551,1.557-10.292,1.115.023,1.626-.465,1.371-1.487-.767a23.429,23.429,0,0,0-3.694-4.042,18.431,18.431,0,0,0-20.189-2.277c-7.481-11.616-19.237-19.562-35.058-17.308a30.418,30.418,0,0,0-22.118,14.683,56.477,56.477,0,0,0-43.422-8.155c-7.876,1.742-16.588,6.528-21.792,12.987a41.681,41.681,0,0,0-14.172,4.345C126,241.84,111.8,258.1,117,272.971c1.975,5.669,8.317,9.758,14.335,7.644a10,10,0,0,0,1.138-.511,11.781,11.781,0,0,0,4.391.7q90.4-2.056,180.8-.07c6.087.883,12.2,1.789,18.284,2.811C348.89,285.68,354.721,268.162,345.451,262.656Z" transform="translate(115.996 -133.297)" fill="#00b2a1"/><path d="M853.311,261.146c2.044-4.809,1.046-10.548-5.181-13.289-8.619-3.787-17.448-6.3-26.95-6.18-2.834.046-7.551,1.557-10.292,1.115.023,1.626-.465,1.371-1.487-.767a23.427,23.427,0,0,0-3.694-4.043,18.431,18.431,0,0,0-20.189-2.277c-7.481-11.616-19.237-19.562-35.058-17.308a30.418,30.418,0,0,0-22.117,14.683,56.477,56.477,0,0,0-43.422-8.155c-7.876,1.742-16.588,6.528-21.792,12.987a41.681,41.681,0,0,0-14.172,4.345c-15.1-1.928-29.3,14.335-24.092,29.2,1.975,5.669,8.317,9.758,14.334,7.644a10.013,10.013,0,0,0,1.139-.511,11.779,11.779,0,0,0,4.391.7q90.4-2.056,180.8-.07c6.087.883,12.2,1.789,18.284,2.811C856.75,284.146,862.581,266.629,853.311,261.146Z" transform="translate(809.217 -135.295)" fill="#00b2a1"/><path d="M609.379,269.248a21.507,21.507,0,0,0-5.622-6.761,12.237,12.237,0,0,0-.557-2.741,21.576,21.576,0,0,0-2.021-4.368,10.352,10.352,0,0,0-10.408-8.155,28.77,28.77,0,0,0-4.484-1.045c-4.832-.65-9.8.046-14.59.813-.558.093-1.324.279-2.161.511l-15.125.209a35.738,35.738,0,0,0-4.507-3.973,37.7,37.7,0,0,0-22.4-5.134,32.325,32.325,0,0,0-32.177-23.4c-17.657.511-30.644,13.5-34.431,29.459a57.977,57.977,0,0,0-30.5,1,10.8,10.8,0,0,0-7.039,6.064c-.3.232-.558.511-.836.767a11.72,11.72,0,0,0-4.275,2.927,11.28,11.28,0,0,0-6.691,5.111c-1.743,2.951-3.508,5.878-5.251,8.828-3.09,5.181-1.324,12.848,4.135,15.729a13.491,13.491,0,0,0,2,.836,9.781,9.781,0,0,0,8.945,3.926Q479.509,286.51,537.707,287c21.583,2.021,43.05,3.206,64.842-.906C610.1,284.7,612.655,275.288,609.379,269.248Zm-106.5-20.793a10.048,10.048,0,0,0,2.556-3c.07-.139.139-.279.186-.395a9.817,9.817,0,0,1,.372,3.346C504.972,248.431,503.926,248.455,502.881,248.455Z" transform="translate(511.549 -139.029)" fill="#00b2a1"/></g><g transform="translate(1032.332 36.252)"><ellipse cx="41.006" cy="45.606" rx="41.006" ry="45.606" transform="translate(0 87.953) rotate(-67.795)" fill="#fff"/><ellipse cx="41.006" cy="45.606" rx="41.006" ry="45.606" transform="translate(48.386 75.926) rotate(-67.795)" fill="#fff"/><path d="M866.277,112.692c-3.067,7.527-15.914,7.9-30.76,4.321-26.462-6.389-59.174-25.37-53.691-38.8,8.549-20.956,34.407-30.249,57.71-20.724C862.862,66.993,874.827,91.713,866.277,112.692Z" transform="translate(-679.194 -7.449)" fill="#fff"/><path d="M862.112,101.411,811.6,100.157l-50.485-.883L786.374,65.54l45.652,9.386Z" transform="translate(-705.79 8.153)" fill="#fff"/></g><path d="M721.28,627.79V374.74s20.51,23.25,25.46,4.1l-1.38,248.94H721.28Z" transform="translate(-117 -186.99)" fill="#936037"/><circle cx="58.98" cy="58.98" r="58.98" transform="translate(489.72 107.27)" fill="#009481"/><circle cx="58.98" cy="58.98" r="58.98" transform="translate(541.79 64.94)" fill="#009481"/><circle cx="58.98" cy="58.98" r="58.98" transform="translate(604.29 87.69)" fill="#009481"/><circle cx="58.98" cy="58.98" r="58.98" transform="translate(577.84 158.77)" fill="#009481"/><circle cx="58.98" cy="58.98" r="58.98" transform="translate(528.99 173.15)" fill="#009481"/><path d="M.15-173.5l2.53.72.36.36.36-1.09H.15Z" transform="translate(1831.191 461.022)" fill="#86cccf"/><text transform="translate(1650.115 405.358)" fill="#009481" font-size="14" font-family="Laca-Black, Laca" font-weight="800"><tspan x="0" y="0">AZ SINT LUCAS</tspan></text><g transform="translate(1536.357 179.691)"><rect width="102.534" height="180.19" transform="translate(227.517 99.653)" fill="#fff"/><rect width="102.534" height="171.09" transform="translate(0 108.753)" fill="#fff"/><rect width="21.237" height="180.19" transform="translate(230.553 99.653)" fill="#efefef"/><path d="M95.06,161.78l21.214-.74,5.99,170.918-21.214.74Z" transform="translate(-16.738 -52.608)" fill="#efefef"/><g transform="translate(82.201)"><path d="M1.237,295.877-6.981,93.448-9.68,27.06s71.225-24.811,160.464,0c.045.725-6.827,268.816-6.827,268.816Z" transform="translate(9.68 -16.033)" fill="#fff"/><rect width="21.237" height="35.19" transform="translate(13.191 40.123)" fill="#d8d8d8"/><rect width="21.237" height="35.19" transform="translate(50.804 40.123)" fill="#d8d8d8"/><rect width="21.237" height="35.19" transform="translate(88.424 40.123)" fill="#d8d8d8"/><rect width="21.237" height="35.19" transform="translate(126.037 41.342)" fill="#d8d8d8"/><rect width="21.237" height="26.09" transform="translate(19.435 88.579)" fill="#d8d8d8"/><rect width="21.237" height="26.09" transform="translate(19.121 125.13)" fill="#d8d8d8"/><rect width="21.237" height="26.09" transform="translate(20.781 164.268)" fill="#d8d8d8"/><rect width="21.237" height="26.09" transform="translate(51.985 88.579)" fill="#d8d8d8"/><rect width="21.237" height="26.09" transform="translate(51.671 125.13)" fill="#d8d8d8"/><rect width="21.237" height="26.09" transform="translate(53.339 164.268)" fill="#d8d8d8"/><rect width="21.237" height="26.09" transform="translate(84.543 88.579)" fill="#d8d8d8"/><rect width="21.237" height="26.09" transform="translate(84.229 125.13)" fill="#d8d8d8"/><rect width="21.237" height="26.09" transform="translate(85.889 164.268)" fill="#d8d8d8"/><rect width="21.237" height="26.09" transform="translate(117.093 89.79)" fill="#d8d8d8"/><rect width="21.237" height="26.09" transform="translate(116.779 126.348)" fill="#d8d8d8"/><rect width="21.237" height="26.09" transform="translate(118.447 165.479)" fill="#d8d8d8"/><rect width="53.997" height="51.574" transform="translate(51.88 228.27)" fill="#d8d8d8"/></g><rect width="15.165" height="33.979" transform="translate(9.1 120.882)" fill="#d8d8d8"/><rect width="15.165" height="33.979" transform="translate(9.1 167.603)" fill="#d8d8d8"/><rect width="15.165" height="33.979" transform="translate(9.1 214.316)" fill="#d8d8d8"/><rect width="15.165" height="33.979" transform="translate(31.548 120.882)" fill="#d8d8d8"/><rect width="15.165" height="33.979" transform="translate(31.548 167.603)" fill="#d8d8d8"/><rect width="15.165" height="33.979" transform="translate(31.548 214.316)" fill="#d8d8d8"/><rect width="15.165" height="33.979" transform="translate(53.997 120.882)" fill="#d8d8d8"/><rect width="15.165" height="33.979" transform="translate(53.997 167.603)" fill="#d8d8d8"/><rect width="15.165" height="33.979" transform="translate(53.997 214.316)" fill="#d8d8d8"/><rect width="15.165" height="33.979" transform="translate(259.065 114.212)" fill="#d8d8d8"/><rect width="15.165" height="33.979" transform="translate(259.065 164.268)" fill="#d8d8d8"/><rect width="15.165" height="33.979" transform="translate(259.065 214.316)" fill="#d8d8d8"/><rect width="15.165" height="33.979" transform="translate(281.513 114.212)" fill="#d8d8d8"/><rect width="15.165" height="33.979" transform="translate(281.513 164.268)" fill="#d8d8d8"/><rect width="15.165" height="33.979" transform="translate(281.513 214.316)" fill="#d8d8d8"/><rect width="15.165" height="33.979" transform="translate(303.961 114.212)" fill="#d8d8d8"/><rect width="15.165" height="33.979" transform="translate(303.961 164.268)" fill="#d8d8d8"/><rect width="15.165" height="33.979" transform="translate(303.961 214.316)" fill="#d8d8d8"/></g><path d="M0,157.069,76,144.02h9.639v13.049Z" transform="translate(1536.358 132.089)" fill="#c6c6c5"/><path d="M109.93,23.018l34.913-17.5a32.386,32.386,0,0,1,11.74-3.32C178.673.286,252.769-4.665,279.517,12l-9.123,11.03H109.93Z" transform="translate(1508.631 168.414)" fill="#c6c6c5"/><path d="M332.862,115.494V16.03l-9.105,11.008-2.217,88.456Z" transform="translate(1456.475 164.91)" fill="#9c9b9b"/><path d="M336.71,145.121l22.448-12.391h79.623l-23.8,12.391Z" transform="translate(1451.43 134.937)" fill="#d9d9d9"/><path d="M441.38,325.311l23.8-25.783V132.73l-23.8,12.391Z" transform="translate(1425.029 134.937)" fill="#9c9b9b"/><g transform="translate(1689.302 192.912)"><path d="M2044.765,332.7s-5.481,4.487-6.3,6.109-4.345,5.885-1.787,8.824,7,3.926,11.516,4.232c0,0-6.184.6-7.784,0s-5.683-1.406-7.149-4.442.037-6.528,1.368-8.053C2036.188,337.553,2038.1,334.532,2044.765,332.7Z" transform="translate(-2032.654 -332.7)" fill="#009481"/><path d="M2047.39,358.532s5.444-4.539,6.252-6.162,4.292-5.922,1.712-8.839-7.037-3.866-11.553-4.128c0,0,6.177-.658,7.784-.067s5.7,1.353,7.194,4.382.022,6.528-1.294,8.068C2055.929,353.6,2054.03,356.64,2047.39,358.532Z" transform="translate(-2035.465 -334.312)" fill="#009481"/><ellipse cx="2.438" cy="2.438" rx="2.438" ry="2.438" transform="translate(9.576 9.975)" fill="#009481"/></g><g transform="translate(1694.643 378.495)"><path d="M17.577,8.447H13.129V4H8.447V8.447H4v4.681H8.447v4.448h4.681V13.129h4.448Z" transform="translate(-4 -4)" fill="#e84436" stroke="#e84436" stroke-miterlimit="10" stroke-width="4"/></g><path d="M1660.67,632.77V430.34s16.4,18.6,20.37,3.28l-1.1,199.15Z" transform="translate(-301 -181.99)" fill="#936037"/><circle cx="47.19" cy="47.19" r="47.19" transform="translate(1268.01 183.96)" fill="#009481"/><circle cx="47.19" cy="47.19" r="47.19" transform="translate(1309.67 150.1)" fill="#009481"/><circle cx="47.19" cy="47.19" r="47.19" transform="translate(1338.51 225.16)" fill="#009481"/><circle cx="47.19" cy="47.19" r="47.19" transform="translate(1299.43 236.67)" fill="#009481"/><path d="M1749.54,283.26l-5.06,1.45-.72.36-.36-1.81Z" transform="translate(-301 -181.99)" fill="#86cccf"/><circle cx="47.19" cy="47.19" r="47.19" transform="translate(1359.66 168.3)" fill="#009481"/></g></svg>