<svg xmlns="http://www.w3.org/2000/svg" xmlns:xlink="http://www.w3.org/1999/xlink" width="1920" height="1080" viewBox="0 0 1920 1080">
  <defs>
    <clipPath id="clip-bg_main">
      <rect width="1920" height="1080"/>
    </clipPath>
  </defs>
  <g id="bg_main" clip-path="url(#clip-bg_main)">
    <rect width="1920" height="1080" fill="#fff"/>
    <g id="Group_431" data-name="Group 431" transform="translate(-86 -46)">
      <ellipse id="Ellipse_12_4_" cx="44.82" cy="45.12" rx="44.82" ry="45.12" transform="translate(111.55 66.84)" fill="#fff"/>
      <g id="Group_366" data-name="Group 366" transform="translate(-263 48.01)">
        <path id="Path_1047" data-name="Path 1047" d="M421.51,35.51s-14.17,11.6-16.31,15.8-11.23,15.22-4.63,22.81,18.11,10.15,29.77,10.93c0,0-15.99,1.56-20.13,0s-14.69-3.63-18.49-11.49.1-16.88,3.54-20.83C399.32,48.06,404.29,40.24,421.51,35.51Z" fill="#009481"/>
        <path id="Path_1048" data-name="Path 1048" d="M421.02,98.13s14.07-11.72,16.16-15.94,11.09-15.32,4.42-22.85-18.2-9.99-29.87-10.66c0,0,15.97-1.7,20.13-.18s14.72,3.5,18.59,11.33.05,16.88-3.36,20.86C443.1,85.38,438.2,93.25,421.02,98.13Z" fill="#009481"/>
        <circle id="Ellipse_76" data-name="Ellipse 76" cx="6.3" cy="6.3" r="6.3" transform="translate(414.95 61.3)" fill="#009481"/>
      </g>
    </g>
    <rect id="Rectangle_82" data-name="Rectangle 82" width="1951.938" height="325.304" transform="translate(-17.715 65.96)" fill="#c1f4ea"/>
    <path id="Path_1409" data-name="Path 1409" d="M0,150.732l243.541-75.6,296.88,73.857L643.53,117.324l99.539,75.622L1185.736,62.82,1822.15,207,1953.7,170.085l-3.57,314.756L5.332,447.925Z" transform="translate(-21.223 180.619)" fill="#70efd9"/>
    <g id="Group_513" data-name="Group 513" transform="translate(-17.715 326.078)">
      <path id="Path_1410" data-name="Path 1410" d="M1953.533,376.432,2.78,374.666V183.09H218.468l301.019-1.766,1.785-35.244H877.417l.094,31.713,360.185-1.766,282.065,1.766,433.772-29.97Z" transform="translate(0.171 -35.283)" fill="#39e5cc"/>
      <rect id="Rectangle_83" data-name="Rectangle 83" width="89.678" height="142.439" transform="translate(0 43.979)" fill="#39e5cc"/>
      <rect id="Rectangle_84" data-name="Rectangle 84" width="89.678" height="142.439" transform="translate(179.356 77.388)" fill="#39e5cc"/>
      <rect id="Rectangle_85" data-name="Rectangle 85" width="89.678" height="142.439" transform="translate(377.077 49.253)" fill="#39e5cc"/>
      <rect id="Rectangle_86" data-name="Rectangle 86" width="89.678" height="142.439" transform="translate(1058.289 36.94)" fill="#39e5cc"/>
      <rect id="Rectangle_87" data-name="Rectangle 87" width="89.678" height="142.439" transform="translate(1172.121)" fill="#39e5cc"/>
      <rect id="Rectangle_88" data-name="Rectangle 88" width="89.678" height="61.543" transform="translate(1328.653 80.896)" fill="#39e5cc"/>
      <rect id="Rectangle_89" data-name="Rectangle 89" width="89.678" height="61.543" transform="translate(706.121 52.088)" fill="#39e5cc"/>
    </g>
    <g id="Group_514" data-name="Group 514" transform="translate(468.407 313.788)">
      <rect id="Rectangle_90" data-name="Rectangle 90" width="188.208" height="142.114" transform="translate(820.926 210.836)" fill="#05ccb4"/>
      <path id="Path_1411" data-name="Path 1411" d="M453.723,128.76h-196.5L206.04,179.942V404.625H496.007V179.942Z" transform="translate(-206.04 -45.912)" fill="#05ccb4"/>
      <path id="Path_1412" data-name="Path 1412" d="M652.813,203.623,624.748,169.68H494.413L460.47,203.623h2.277V344.715H650.955V203.623Z" transform="translate(130.639 8.236)" fill="#05ccb4"/>
      <path id="Path_1413" data-name="Path 1413" d="M558.91,203.672l33.455-33.432H720.772l27.647,33.432" transform="translate(260.901 8.977)" fill="#05ccb4"/>
      <path id="Path_1414" data-name="Path 1414" d="M501.425,106.37H394.416L352.69,148.119V434.253H540.875V148.119Z" transform="translate(-11.983 -75.54)" fill="#05ccb4"/>
      <rect id="Rectangle_91" data-name="Rectangle 91" width="23.488" height="45.42" transform="translate(82.151 57.942)" fill="#05ccb4"/>
      <rect id="Rectangle_92" data-name="Rectangle 92" width="23.488" height="45.42" transform="translate(387.614)" fill="#05ccb4"/>
      <rect id="Rectangle_93" data-name="Rectangle 93" width="23.488" height="45.42" transform="translate(725.974 162.907)" fill="#05ccb4"/>
    </g>
    <g id="Group_516" data-name="Group 516" transform="translate(16.158 521.279)">
      <path id="Path_1415" data-name="Path 1415" d="M220.5,199.02H44.68v23.442H67.007v87.912h131.1V222.462h22.42V199.02ZM188.908,301.2H76.183V224.808H188.908Z" transform="translate(21.742 -160.431)" fill="#00b2a1"/>
      <g id="Group_515" data-name="Group 515">
        <rect id="Rectangle_94" data-name="Rectangle 94" width="4.577" height="144.182" fill="#00b2a1"/>
        <rect id="Rectangle_95" data-name="Rectangle 95" width="29.761" height="42.353" transform="translate(8.015 6.854)" fill="#00b2a1"/>
      </g>
      <path id="Path_1416" data-name="Path 1416" d="M345.451,262.656c2.044-4.809,1.045-10.548-5.181-13.289-8.619-3.787-17.448-6.3-26.95-6.18-2.834.046-7.551,1.557-10.292,1.115.023,1.626-.465,1.371-1.487-.767a23.429,23.429,0,0,0-3.694-4.042,18.431,18.431,0,0,0-20.189-2.277c-7.481-11.616-19.237-19.562-35.058-17.308a30.418,30.418,0,0,0-22.118,14.683,56.477,56.477,0,0,0-43.422-8.155c-7.876,1.742-16.588,6.528-21.792,12.987a41.681,41.681,0,0,0-14.172,4.345C126,241.84,111.8,258.1,117,272.971c1.975,5.669,8.317,9.758,14.335,7.644a10,10,0,0,0,1.138-.511,11.781,11.781,0,0,0,4.391.7q90.4-2.056,180.8-.07c6.087.883,12.2,1.789,18.284,2.811C348.89,285.68,354.721,268.162,345.451,262.656Z" transform="translate(115.996 -133.297)" fill="#00b2a1"/>
      <path id="Path_1417" data-name="Path 1417" d="M853.311,261.146c2.044-4.809,1.046-10.548-5.181-13.289-8.619-3.787-17.448-6.3-26.95-6.18-2.834.046-7.551,1.557-10.292,1.115.023,1.626-.465,1.371-1.487-.767a23.427,23.427,0,0,0-3.694-4.043,18.431,18.431,0,0,0-20.189-2.277c-7.481-11.616-19.237-19.562-35.058-17.308a30.418,30.418,0,0,0-22.117,14.683,56.477,56.477,0,0,0-43.422-8.155c-7.876,1.742-16.588,6.528-21.792,12.987a41.681,41.681,0,0,0-14.172,4.345c-15.1-1.928-29.3,14.335-24.092,29.2,1.975,5.669,8.317,9.758,14.334,7.644a10.013,10.013,0,0,0,1.139-.511,11.779,11.779,0,0,0,4.391.7q90.4-2.056,180.8-.07c6.087.883,12.2,1.789,18.284,2.811C856.75,284.146,862.581,266.629,853.311,261.146Z" transform="translate(809.217 -135.295)" fill="#00b2a1"/>
      <path id="Path_1418" data-name="Path 1418" d="M609.379,269.248a21.507,21.507,0,0,0-5.622-6.761,12.237,12.237,0,0,0-.557-2.741,21.576,21.576,0,0,0-2.021-4.368,10.352,10.352,0,0,0-10.408-8.155,28.77,28.77,0,0,0-4.484-1.045c-4.832-.65-9.8.046-14.59.813-.558.093-1.324.279-2.161.511l-15.125.209a35.738,35.738,0,0,0-4.507-3.973,37.7,37.7,0,0,0-22.4-5.134,32.325,32.325,0,0,0-32.177-23.4c-17.657.511-30.644,13.5-34.431,29.459a57.977,57.977,0,0,0-30.5,1,10.8,10.8,0,0,0-7.039,6.064c-.3.232-.558.511-.836.767a11.72,11.72,0,0,0-4.275,2.927,11.28,11.28,0,0,0-6.691,5.111c-1.743,2.951-3.508,5.878-5.251,8.828-3.09,5.181-1.324,12.848,4.135,15.729a13.491,13.491,0,0,0,2,.836,9.781,9.781,0,0,0,8.945,3.926Q479.509,286.51,537.707,287c21.583,2.021,43.05,3.206,64.842-.906C610.1,284.7,612.655,275.288,609.379,269.248Zm-106.5-20.793a10.048,10.048,0,0,0,2.556-3c.07-.139.139-.279.186-.395a9.817,9.817,0,0,1,.372,3.346C504.972,248.431,503.926,248.455,502.881,248.455Z" transform="translate(511.549 -139.029)" fill="#00b2a1"/>
    </g>
    <g id="Group_435" data-name="Group 435">
      <path id="Path_1037" data-name="Path 1037" d="M348.52,622.71V420.28s16.4,18.6,20.37,3.28l-1.1,199.15H348.52Z" transform="translate(-263 48.01)" fill="#936037"/>
      <circle id="Ellipse_51" data-name="Ellipse 51" cx="47.19" cy="47.19" r="47.19" transform="translate(-6.14 403.9)" fill="#009481"/>
      <circle id="Ellipse_52" data-name="Ellipse 52" cx="47.19" cy="47.19" r="47.19" transform="translate(35.52 370.04)" fill="#009481"/>
      <circle id="Ellipse_53" data-name="Ellipse 53" cx="47.19" cy="47.19" r="47.19" transform="translate(85.51 388.24)" fill="#009481"/>
      <circle id="Ellipse_54" data-name="Ellipse 54" cx="47.19" cy="47.19" r="47.19" transform="translate(64.36 445.1)" fill="#009481"/>
      <circle id="Ellipse_55" data-name="Ellipse 55" cx="47.19" cy="47.19" r="47.19" transform="translate(25.28 456.61)" fill="#009481"/>
    </g>
    <path id="Path_1038" data-name="Path 1038" d="M721.28,627.79V374.74s20.51,23.25,25.46,4.1l-1.38,248.94H721.28Z" transform="translate(-263 48.01)" fill="#936037"/>
    <circle id="Ellipse_56" data-name="Ellipse 56" cx="58.98" cy="58.98" r="58.98" transform="translate(343.72 342.27)" fill="#009481"/>
    <circle id="Ellipse_57" data-name="Ellipse 57" cx="58.98" cy="58.98" r="58.98" transform="translate(395.79 299.94)" fill="#009481"/>
    <circle id="Ellipse_58" data-name="Ellipse 58" cx="58.98" cy="58.98" r="58.98" transform="translate(458.29 322.69)" fill="#009481"/>
    <circle id="Ellipse_59" data-name="Ellipse 59" cx="58.98" cy="58.98" r="58.98" transform="translate(431.84 393.77)" fill="#009481"/>
    <circle id="Ellipse_60" data-name="Ellipse 60" cx="58.98" cy="58.98" r="58.98" transform="translate(382.99 408.15)" fill="#009481"/>
    <path id="Path_1036_1_" d="M269.261,609.66H2299.725v458.857L240.89,1089.968Z" transform="translate(-313.875 51.572)" fill="#8dd9aa"/>
    <path id="Path_1_1_" d="M0,0S176.44,166.41,311.69,163.53s261.11-61.72,406.08-32.86,275.79,139.4,419.43,107.89S1397.47,84.15,1495.38,84.03s187.86,14.19,322.05,79.49,480.37,95,516.35,0,0-163.53,0-163.53Z" transform="translate(-255 -1.99)" fill="#fff"/>
    <path id="Path_258_1_" d="M1927.45,643.41v.36h-.36Z" transform="translate(-263 48.01)" fill="#86cccf"/>
    <path id="Path_259_1_" d="M1927.08,643.77l-1.45,2.53v-2.53Z" transform="translate(-263 48.01)" fill="#86cccf"/>
    <path id="Path_275_1_" d="M-95.67,20.31v.36h0Z" transform="translate(1812.191 670.022)" fill="#86cccf"/>
    <path id="Path_276_1_" d="M-95.67,20.67l1.09,1.09-.36-1.09Z" transform="translate(1812.191 670.022)" fill="#86cccf"/>
    <path id="Path_280_1_" d="M.15-173.5l2.53.72.36.36.36-1.09H.15Z" transform="translate(1810.191 693.022)" fill="#86cccf"/>
    <path id="Path_1042" data-name="Path 1042" d="M818.2,713.11V510.68s16.4,18.6,20.37,3.28l-1.1,199.15h0a18.725,18.725,0,0,1-18.42.45Z" transform="translate(-263 48.01)" fill="#936037"/>
    <circle id="Ellipse_67" data-name="Ellipse 67" cx="47.19" cy="47.19" r="47.19" transform="translate(463.54 494.3)" fill="#628352"/>
    <circle id="Ellipse_68" data-name="Ellipse 68" cx="47.19" cy="47.19" r="47.19" transform="translate(505.2 460.44)" fill="#628352"/>
    <circle id="Ellipse_69" data-name="Ellipse 69" cx="47.19" cy="47.19" r="47.19" transform="translate(555.19 478.63)" fill="#628352"/>
    <circle id="Ellipse_70" data-name="Ellipse 70" cx="47.19" cy="47.19" r="47.19" transform="translate(534.04 535.5)" fill="#628352"/>
    <circle id="Ellipse_71" data-name="Ellipse 71" cx="47.19" cy="47.19" r="47.19" transform="translate(494.96 547.01)" fill="#628352"/>
    <path id="Path_1039" data-name="Path 1039" d="M1660.67,632.77V430.34s16.4,18.6,20.37,3.28l-1.1,199.15Z" transform="translate(-322 50.01)" fill="#936037"/>
    <circle id="Ellipse_61" data-name="Ellipse 61" cx="47.19" cy="47.19" r="47.19" transform="translate(1247.01 415.96)" fill="#009481"/>
    <circle id="Ellipse_62" data-name="Ellipse 62" cx="47.19" cy="47.19" r="47.19" transform="translate(1288.67 382.1)" fill="#009481"/>
    <circle id="Ellipse_63" data-name="Ellipse 63" cx="47.19" cy="47.19" r="47.19" transform="translate(1317.51 457.16)" fill="#009481"/>
    <circle id="Ellipse_64" data-name="Ellipse 64" cx="47.19" cy="47.19" r="47.19" transform="translate(1278.43 468.67)" fill="#009481"/>
    <path id="Path_263_1_" d="M1749.54,283.26l-5.06,1.45-.72.36-.36-1.81Z" transform="translate(-322 50.01)" fill="#86cccf"/>
    <circle id="Ellipse_66" data-name="Ellipse 66" cx="47.19" cy="47.19" r="47.19" transform="translate(1338.66 400.3)" fill="#009481"/>
    <ellipse id="Ellipse_106" data-name="Ellipse 106" cx="9.5" cy="9" rx="9.5" ry="9" transform="translate(1339 673)" fill="#936037"/>
    <path id="Path_536_1_" d="M0,445.737S71.257,181.861,174.98,174.654s258.138,74.992,333.867,0,172.5,31.369,241.8-11.873c79.529-49.617,138.855-19.115,245-41.29S1121.106,0,1121.106,0h65.362s-34.45,173.43-79.539,186.077c-53.28,14.945-116.987,170.543-188.445,147.894-80.472-25.49-164.984-8.339-219.126,34.326s-149.653,86.646-156.1,119S0,445.737,0,445.737Z" transform="translate(467.54 673.594)" fill="#e4ad25"/>
    <g id="Group_561" data-name="Group 561" transform="translate(4 -3)">
      <path id="Path_1053" data-name="Path 1053" d="M998.09,811.65s3.02,11.48,13.25,14.47l1.27-6.45Z" transform="translate(-263 48.01)" fill="#ee7358" stroke="#e84436" stroke-linecap="round" stroke-linejoin="round" stroke-miterlimit="10" stroke-width="2.368"/>
      <path id="Path_1054" data-name="Path 1054" d="M1003.35,811.66s1.58,25.97,5.18,34.77,18.35-26.68,18.35-26.68S1006.99,808.45,1003.35,811.66Z" transform="translate(-263 48.01)" fill="#f3c8bb" stroke="#c69191" stroke-miterlimit="10" stroke-width="2.368"/>
      <ellipse id="Ellipse_77" data-name="Ellipse 77" cx="7.94" cy="8.37" rx="7.94" ry="8.37" transform="translate(732.31 689.81)" fill="#ee7358"/>
      <ellipse id="Ellipse_78" data-name="Ellipse 78" cx="7.94" cy="8.37" rx="7.94" ry="8.37" transform="translate(827.72 689.2)" fill="#ee7358"/>
      <path id="Path_1055" data-name="Path 1055" d="M1022.11,870.12s17.53,4.9,29.29,6.54" transform="translate(-263 48.01)" fill="#497ea9" stroke="#497ea9" stroke-linejoin="round" stroke-miterlimit="10" stroke-width="6.052"/>
      <path id="Path_1056" data-name="Path 1056" d="M1037.96,924.05c-1.87-.65-5.58.11-5.58.11l.18,19.22s4.06,1.08,4.99-.6C1038.3,941.45,1037.96,924.05,1037.96,924.05Z" transform="translate(-263 48.01)" fill="#f3c8bb" stroke="#c69191" stroke-miterlimit="10" stroke-width="1.85"/>
      <path id="Path_1057" data-name="Path 1057" d="M1058.51,876.99s22.49,1.35,28.79-.89" transform="translate(-263 48.01)" fill="#497ea9" stroke="#497ea9" stroke-miterlimit="10" stroke-width="4.681"/>
      <path id="Path_1058" data-name="Path 1058" d="M1050.27,703.8s3.11,1.24,9.2-.14" transform="translate(-263 48.01)" fill="#c69191" stroke="#c69191" stroke-miterlimit="10" stroke-width="3.12"/>
      <g id="XMLID_5_" transform="translate(-263 48.01)">
        <g id="Group_368" data-name="Group 368">
          <path id="Path_1059" data-name="Path 1059" d="M1031.44,946.35c.06.38-.01.78-.5.86a1.109,1.109,0,0,1-.65-.22c-1.25-.71-3.47-3.07-5.6-3.33l3.57-.17a12.737,12.737,0,0,1,2.52,1.72,1.939,1.939,0,0,1,.57.84h.01A1.016,1.016,0,0,1,1031.44,946.35Z" fill="#fff"/>
          <path id="Path_1060" data-name="Path 1060" d="M1030.3,946.99a1,1,0,0,0,.65.22c.49-.08.56-.49.5-.86a2.659,2.659,0,0,0-.07-.3c.75.26,1.62-.28,1.27-1.03a4.982,4.982,0,0,0-2.81-2.1l-.07-.15,1.09-.52c2.85,2.07,7.64,0,7.64,0a27.536,27.536,0,0,1,2.83,10.49v.04a27.413,27.413,0,0,1-11.19,2.6v-.02a16.093,16.093,0,0,0-1.6-7c1.96.77,1.76-1.36,1.76-1.36v-.01Z" fill="#ee7358"/>
          <path id="Path_1061" data-name="Path 1061" d="M1030.3,947s.2,2.13-1.76,1.36a3.776,3.776,0,0,0-.58-.84,29.2,29.2,0,0,0-3.26-3.86c2.13.26,4.34,2.62,5.6,3.33Z" fill="#ee7358"/>
          <path id="Path_1062" data-name="Path 1062" d="M1032.64,945.02c.36.75-.52,1.29-1.27,1.03h-.01a1.94,1.94,0,0,0-.57-.84,13.179,13.179,0,0,0-2.52-1.72l1.49-.72.07.15A5.034,5.034,0,0,1,1032.64,945.02Z" fill="#fff"/>
          <path id="Path_1063" data-name="Path 1063" d="M1028.27,943.49l-3.57.17h-.01a6.646,6.646,0,0,0-3.09-1.98A16.13,16.13,0,0,1,1028.27,943.49Z" fill="#fff"/>
          <path id="Path_1064" data-name="Path 1064" d="M1008.06,952.78s11.42,3.14,22.07,2.6a27.615,27.615,0,0,0,11.19-2.6c.25,1.83.54,4.13.54,4.13-14.68,4.21-32.92.57-33.5,0S1008.06,952.78,1008.06,952.78Z" fill="#ee7358"/>
          <path id="Path_1065" data-name="Path 1065" d="M1021.44,941.67a.662.662,0,0,1,.15.01,6.567,6.567,0,0,1,3.09,1.98h.01a30.121,30.121,0,0,1,3.26,3.86,3.774,3.774,0,0,1,.58.84,16.093,16.093,0,0,1,1.6,7v.02c-10.64.53-22.07-2.6-22.07-2.6s2.39-10.24,10.63-11.03a18.678,18.678,0,0,1,2.56-.08A.6.6,0,0,1,1021.44,941.67Z" fill="#ee7358"/>
        </g>
        <g id="Group_369" data-name="Group 369">
          <path id="Path_1066" data-name="Path 1066" d="M1031.37,946.05a2.2,2.2,0,0,1,.07.3c.06.38-.01.78-.5.86a1.109,1.109,0,0,1-.65-.22c-1.25-.71-3.47-3.07-5.6-3.33" fill="none" stroke="#e84436" stroke-linecap="round" stroke-linejoin="round" stroke-miterlimit="10" stroke-width="1.776"/>
          <path id="Path_1067" data-name="Path 1067" d="M1021.44,941.67a.662.662,0,0,1,.15.01,16.027,16.027,0,0,1,6.68,1.81,12.737,12.737,0,0,1,2.52,1.72,1.939,1.939,0,0,1,.57.84" fill="none" stroke="#e84436" stroke-linecap="round" stroke-linejoin="round" stroke-miterlimit="10" stroke-width="1.776"/>
          <path id="Path_1068" data-name="Path 1068" d="M1041.32,952.78a27.413,27.413,0,0,1-11.19,2.6c-10.64.53-22.07-2.6-22.07-2.6s2.39-10.24,10.63-11.03a18.678,18.678,0,0,1,2.56-.08" fill="none" stroke="#e84436" stroke-linecap="round" stroke-linejoin="round" stroke-miterlimit="10" stroke-width="1.776"/>
          <path id="Path_1069" data-name="Path 1069" d="M1028.27,943.49l1.49-.72,1.09-.52c2.85,2.07,7.64,0,7.64,0a27.536,27.536,0,0,1,2.83,10.49" fill="none" stroke="#e84436" stroke-linecap="round" stroke-linejoin="round" stroke-miterlimit="10" stroke-width="1.776"/>
          <line id="Line_4" data-name="Line 4" y1="0.17" x2="3.57" transform="translate(1024.7 943.49)" fill="none" stroke="#e84436" stroke-linecap="round" stroke-linejoin="round" stroke-miterlimit="10" stroke-width="1.776"/>
          <path id="Path_1070" data-name="Path 1070" d="M1021.25,941.66a1.274,1.274,0,0,1,.19.01.808.808,0,0,1,.15.01,6.567,6.567,0,0,1,3.09,1.98h.01a30.121,30.121,0,0,1,3.26,3.86,3.774,3.774,0,0,1,.58.84,16.093,16.093,0,0,1,1.6,7" fill="none" stroke="#e84436" stroke-linecap="round" stroke-linejoin="round" stroke-miterlimit="10" stroke-width="1.776"/>
          <path id="Path_1071" data-name="Path 1071" d="M1008.06,952.78s-.27,3.55.3,4.13,18.82,4.21,33.5,0c0,0-.3-2.3-.54-4.13v-.04c-.17-1.21-.3-2.19-.31-2.2" fill="none" stroke="#e84436" stroke-linecap="round" stroke-linejoin="round" stroke-miterlimit="10" stroke-width="1.776"/>
          <path id="Path_1072" data-name="Path 1072" d="M1030.3,947s.2,2.13-1.76,1.36" fill="none" stroke="#e84436" stroke-linecap="round" stroke-linejoin="round" stroke-miterlimit="10" stroke-width="1.776"/>
          <path id="Path_1073" data-name="Path 1073" d="M1029.83,942.93a4.982,4.982,0,0,1,2.81,2.1c.36.75-.52,1.29-1.27,1.03h-.01" fill="none" stroke="#e84436" stroke-linecap="round" stroke-linejoin="round" stroke-miterlimit="10" stroke-width="1.776"/>
        </g>
      </g>
      <g id="Group_370" data-name="Group 370" transform="translate(-263 48.01)">
        <path id="Path_1074" data-name="Path 1074" d="M1077.5,763.85l-.36,3.85-7.3.57c.03-2.02.07-4.02.12-6.02s.1-4,.16-6.02h4.51c-.13,1.27-.26,2.53-.38,3.79s-.21,2.54-.26,3.82c.27.01.54.02.81.02h.81c.32,0,.64,0,.95-.01Z" fill="#fff"/>
      </g>
      <g id="Group_372" data-name="Group 372" transform="translate(-263 48.01)">
        <g id="Group_371" data-name="Group 371">
          <path id="Path_1075" data-name="Path 1075" d="M1095.42,555.26a19.009,19.009,0,0,0,6.3,8.23,19.342,19.342,0,0,0,4.61,2.53,20,20,0,0,0,2.64.78l.72.15c-.28-.59-.39-.64-.34-.15a4.332,4.332,0,0,0-.09,1.35c-.26,7.81,5.09,15.57,13.35,15.94a2.8,2.8,0,0,0,2.92-1.56,1.7,1.7,0,0,0-1.54-2.21,10.066,10.066,0,0,1-7.96-4.62,13,13,0,0,1-1.9-4.89,13.891,13.891,0,0,1-.21-2.81,12.55,12.55,0,0,0,.04-2.45c-.36-2.06-2.28-2.17-3.94-2.63a14.731,14.731,0,0,1-4.15-1.9,15.612,15.612,0,0,1-5.89-7.13c-.95-2.27-5.48-.9-4.56,1.37Z" fill="#eacf83"/>
        </g>
      </g>
      <g id="Group_374" data-name="Group 374" transform="translate(-263 48.01)">
        <g id="Group_373" data-name="Group 373">
          <path id="Path_1076" data-name="Path 1076" d="M1089.84,527.68v1.74a2.364,2.364,0,0,0,.15.4,5.541,5.541,0,0,0,.29.6,17.424,17.424,0,0,0,.92,1.57c.1.16.21.31.31.47.16.24.33.46.51.68l.17.17c.09.07.13.05.11-.07V531.5a2.364,2.364,0,0,0-.15-.4,5.541,5.541,0,0,0-.29-.6,17.424,17.424,0,0,0-.92-1.57c-.1-.16-.21-.31-.31-.47-.16-.24-.33-.46-.51-.68l-.17-.17c-.1-.07-.14-.05-.11.07Z" fill="#eacf83"/>
        </g>
      </g>
      <g id="Group_376" data-name="Group 376" transform="translate(-263 48.01)">
        <g id="Group_375" data-name="Group 375">
          <path id="Path_1077" data-name="Path 1077" d="M1122.45,603.55c-1.29,5.2.11,10.66,2.8,15.18a37.932,37.932,0,0,0,4.59,6.03c1.71,1.87,3.53,4.13,6.17,4.55a7.538,7.538,0,0,0,7.01-2.51,16.572,16.572,0,0,0,3.46-6.35,5.6,5.6,0,0,0-.03-3.17,8.679,8.679,0,0,0-2.28-3,15.482,15.482,0,0,1-3.59-6.93,27.589,27.589,0,0,1-.61-4.52,20.039,20.039,0,0,1-.04-4.31,3.74,3.74,0,0,1,.75-1.58c.15-.24.52-.05-.03-.14-.6-.1-.29-.03-.22.21.17.53.49.79.51,1.42a2.372,2.372,0,0,1-.53,1.59c-.61.83,1.15,1.36,1.64,1.43.93.14,2.3.07,2.92-.77a3.7,3.7,0,0,0-.95-5.2,6.811,6.811,0,0,0-7.17.06c-2.05,1.43-1.77,4.09-1.67,6.3a25.887,25.887,0,0,0,1.46,8.14,20.2,20.2,0,0,0,4.29,6.29c1.88,2.09.79,4.71-.44,6.85a15.293,15.293,0,0,1-2.05,3.02c-.33.34-.87.56-1.15.89-.16.19-.29.05-.08.08.6.09-.28-.46-.41-.58a39.193,39.193,0,0,1-5.32-5.9c-3.61-4.91-5.8-10.95-4.29-17.04.33-1.33-4.32-1.72-4.74-.04Z" fill="#eacf83"/>
        </g>
      </g>
      <g id="Group_378" data-name="Group 378" transform="translate(-263 48.01)">
        <g id="Group_377" data-name="Group 377">
          <path id="Path_1078" data-name="Path 1078" d="M1115.29,547.2c2.23,3.17,4.7,6.28,6.66,9.64a13.99,13.99,0,0,1,1.64,4.47,17.5,17.5,0,0,0,1.04,4.16,5.847,5.847,0,0,0,3.13,2.86,4.941,4.941,0,0,1,2.9,2.98,37.459,37.459,0,0,1,1.29,4.81c.5,2.08,1,4.15,1.5,6.23.38,1.59,4.76-.12,4.32-1.93-.48-2-.96-3.99-1.44-5.99a36.871,36.871,0,0,0-1.35-5.05,6.273,6.273,0,0,0-2.59-3.23c-1.38-.79-2.7-1.06-3.44-2.61a16.917,16.917,0,0,1-1.04-4.16,13.987,13.987,0,0,0-1.64-4.47c-1.96-3.35-4.43-6.46-6.66-9.64-1.06-1.52-5.25.59-4.32,1.93Z" fill="#eacf83"/>
        </g>
      </g>
      <g id="Group_380" data-name="Group 380" transform="translate(-263 48.01)">
        <g id="Group_379" data-name="Group 379">
          <path id="Path_1079" data-name="Path 1079" d="M951.75,569.89a45.887,45.887,0,0,0-9.05,21.02c-1.28,8.39-.15,16.95,2.09,25.08a127.3,127.3,0,0,0,4.6,13.43c.28.71,1.72,1.36,2.34,1.74.22.14,1.64.88,1.55.66-6.07-15.26-10.24-32.23-3.96-48.12a46.12,46.12,0,0,1,6.39-11.21c.15-.2-3.66-2.99-3.96-2.6Z" fill="#eacf83"/>
        </g>
      </g>
      <g id="Group_382" data-name="Group 382" transform="translate(-263 48.01)">
        <g id="Group_381" data-name="Group 381">
          <path id="Path_1080" data-name="Path 1080" d="M959.23,568.45c5.79-4.52,11.76-9.33,14.73-16.26,1.49-3.49,2.56-7.04,4.83-10.14a25.091,25.091,0,0,1,7.58-6.74,23.6,23.6,0,0,1,10.78-3.24c.89-.04.99-.54.32-1.06a5.371,5.371,0,0,0-3.21-.96,26.292,26.292,0,0,0-18.25,8.48,28.187,28.187,0,0,0-5.37,9.18,31.968,31.968,0,0,1-5.93,10.43,73.009,73.009,0,0,1-9.73,8.6c-.76.59,3.23,2.51,4.25,1.71Z" fill="#eacf83"/>
        </g>
      </g>
      <g id="Group_384" data-name="Group 384" transform="translate(-263 48.01)">
        <g id="Group_383" data-name="Group 383">
          <path id="Path_1081" data-name="Path 1081" d="M966.57,561.9c3.83-2.67,6.13-6.71,8.03-10.86,1.81-3.94,3.27-8.22,6.06-11.61a11.953,11.953,0,0,1,4.89-3.66c2.87-1.11,5.99-1.19,9.01-1.48a28.747,28.747,0,0,0,9-2.1c2.86-1.24,5.52-2.86,8.35-4.17,6.73-3.13,14.23-2.66,21.44-2.18a1.858,1.858,0,0,0,1.83-2.2,2.7,2.7,0,0,0-2.57-2.15c-6.59-.44-13.43-.84-19.8,1.26-5.97,1.96-10.92,6.17-17.27,7.01-5.91.78-11.94.55-16.67,4.75-3.4,3.02-5.31,7.31-7.11,11.4-1.95,4.43-3.88,9.36-8,12.24-2.27,1.58.69,5.23,2.81,3.75Z" fill="#eacf83"/>
        </g>
      </g>
      <g id="Group_386" data-name="Group 386" transform="translate(-263 48.01)">
        <g id="Group_385" data-name="Group 385">
          <path id="Path_1082" data-name="Path 1082" d="M997.52,533.31a52.433,52.433,0,0,0,9.92-3.64c2.91-1.42,5.8-3.47,9.08-3.89.92-.12,1.11-.83.79-1.65a3.684,3.684,0,0,0-2.27-2.13c-6.14-1.78-11.6,1.71-16.39,5.12-.84.6.27,2.16.73,2.62.64.64,1.75,1.35,2.62.73,4-2.84,8.91-6.27,14.08-4.77-.49-1.26-.99-2.52-1.48-3.78-3.54.46-6.42,2.29-9.55,3.85a52.7,52.7,0,0,1-10.24,3.79c-1.05.27-.38,1.8,0,2.33.56.81,1.66,1.69,2.71,1.42Z" fill="#eacf83"/>
        </g>
      </g>
      <g id="Group_388" data-name="Group 388" transform="translate(-263 48.01)">
        <g id="Group_387" data-name="Group 387">
          <path id="Path_1083" data-name="Path 1083" d="M983.97,617.71a20.336,20.336,0,0,0-12.42,13.65c-.48,1.67-.95,3.47-2.29,4.69a6.565,6.565,0,0,1-4.1,1.4c-3.26.25-6.49.31-8.59-2.6a37.141,37.141,0,0,1-3.12-5.71q-1.575-3.285-2.85-6.71c-.4-1.06-4.75-1.21-4.73,0,.06,5.12,3.29,9.35,6.48,13.07,1.55,1.81,3.19,3.68,5.4,4.67a10.2,10.2,0,0,0,7.51.22,13.031,13.031,0,0,0,2.78-1.54,8.977,8.977,0,0,1,2.97-1.72c1.12-.21,2.37.06,3.52-.1a7.3,7.3,0,0,0,3.2-1.11c3.4-2.31,3.62-7.13,5.37-10.52a17.477,17.477,0,0,1,11.46-9.1c.57-.12,1.62-.48.85-1.09-.73-.58-2.4-.47-3.24-.29a20.5,20.5,0,0,0-10.71,5.93,18.409,18.409,0,0,0-3.4,5.1c-.76,1.71-1.21,3.53-1.89,5.27-.57,1.47-1.46,3.52-3.03,4.18a9.2,9.2,0,0,1-2.88.13,10.139,10.139,0,0,0-3.63.85c-1.7.78-3.29,1.98-4.9,2.92-.74.43.22-.45.26.08,0,.01-.63-.23-.51-.18a6.618,6.618,0,0,1-1.27-.77,16.088,16.088,0,0,1-2.42-2.32c-3.43-3.85-7.16-8.27-7.22-13.69h-4.73a67.274,67.274,0,0,0,5.68,12.16c2.3,3.67,6.35,4.48,10.42,4.56,3.64.06,8.33.11,11.35-2.23a8.557,8.557,0,0,0,2.69-4.57,24.789,24.789,0,0,1,2.11-5.46,18.408,18.408,0,0,1,9.2-8.03c.82-.32.81-.81,0-1.13a5.169,5.169,0,0,0-3.32-.01Z" fill="#eacf83"/>
        </g>
      </g>
      <g id="Group_390" data-name="Group 390" transform="translate(-263 48.01)">
        <g id="Group_389" data-name="Group 389">
          <path id="Path_1084" data-name="Path 1084" d="M1082.77,566.45c.44-1.13.9-2.24,1.37-3.36.23-.55.47-1.09.71-1.63a4.9,4.9,0,0,1,.77-1.4c-.05.05-.1.11-.15.16a2.688,2.688,0,0,1,.44-.31c.17-.1-.13,0-.02,0a.691.691,0,0,0,.2-.03c-.26,0-.31.01-.15.01-.11-.01-.22-.03-.32-.04.15.03.11.02-.11-.03a2.7,2.7,0,0,1-.63-.19l-.42-.18c-.36-.2-.46-.26-.31-.17.17.11-.41-.34-.12-.08.14.12-.24-.27-.07-.07.05.07.11.13.16.2-.13-.17,0,.01.04.09a2.44,2.44,0,0,1,.1.24,3.978,3.978,0,0,1,.22,1.19c0-.07-.01-.15-.01-.22a9.082,9.082,0,0,1-.07,1.28c-.04.32.24.56.46.75a6.531,6.531,0,0,0,3.13,1.19c.2,0,.8.04.84-.25a5.321,5.321,0,0,0-.24-2.88c-.68-1.49-2.37-2.28-3.85-2.73-1.17-.36-2.67-.58-3.57.44a4.546,4.546,0,0,0-.68,1.24c-.23.52-.46,1.05-.68,1.58-.5,1.17-.98,2.35-1.44,3.53-.11.27.31.62.46.75a6.531,6.531,0,0,0,3.13,1.19c.22-.01.69.02.81-.27Z" fill="#eacf83"/>
        </g>
      </g>
      <g id="Group_392" data-name="Group 392" transform="translate(-263 48.01)">
        <g id="Group_391" data-name="Group 391">
          <path id="Path_1085" data-name="Path 1085" d="M993.26,617.87a21.424,21.424,0,0,0,14.34-4.17,7.039,7.039,0,0,0,2.72-3.08,3.716,3.716,0,0,0-1.04-3.75c-2.22-2.29-5.92-1.69-8.13.27a1.729,1.729,0,0,0-.12,2.71,2.735,2.735,0,0,0,3.34.15c.18-.16.36-.3.54-.44.06-.04.13-.09.19-.13-.12.06-.12.05.02-.01.1-.05.61-.23.47-.2-.21.04.4-.04-.02,0,.4-.04.08-.02-.13-.08a1.626,1.626,0,0,1,.18.1c-.15-.11-.16-.12-.04-.02.1.1.11.09,0-.03.04.06.08.11.12.17-.13-.27.07.23.08.27-.06-.21.11-.34-.07,0,.09-.16-.17.21-.19.25a8.641,8.641,0,0,1-.77.68,17.86,17.86,0,0,1-2.18,1.49c.22-.13-.18.1-.24.13l-.54.27c-.43.21-.87.4-1.32.58-.37.15-.75.28-1.13.4q-.315.105-1.05.27a18.948,18.948,0,0,1-2.49.38c-.25.02.22,0-.21.01-.24.01-.48.01-.72.01q-.72,0-1.44-.06a2.2,2.2,0,0,0-2.45,1.81c-.06,1.23,1.21,1.94,2.28,2.02Z" fill="#eacf83"/>
        </g>
      </g>
      <g id="Group_394" data-name="Group 394" transform="translate(-263 48.01)">
        <g id="Group_393" data-name="Group 393">
          <path id="Path_1086" data-name="Path 1086" d="M1124.09,605.12a5,5,0,0,0,4.83-.56,4.168,4.168,0,0,0,1.8-3.36,5.033,5.033,0,0,0-1.71-3.59,6.6,6.6,0,0,0-4.25-1.62,9.786,9.786,0,0,0-4.69,1.04,1.793,1.793,0,0,0-.82,2.65,2.719,2.719,0,0,0,3.25.65c.18-.09.37-.17.56-.25.09-.03.44-.17.06-.03-.4.14,0,.01.07-.01a6.582,6.582,0,0,1,1.17-.25c-.21.03-.42.05-.63.08a6.764,6.764,0,0,1,1.19-.02l-.63-.06a4.1,4.1,0,0,1,.7.12c.09.02.45.13.06.01-.41-.13.02.02.1.06s.17.08.25.12c.34.16-.43-.32-.14-.08a5.846,5.846,0,0,1,.47.4c-.12-.13-.25-.26-.37-.39a3.677,3.677,0,0,1,.6.82c-.08-.15-.16-.31-.24-.46a3.479,3.479,0,0,1,.32.94l-.09-.51a2.988,2.988,0,0,1,.01.79c.03-.17.05-.34.08-.51a2.4,2.4,0,0,1-.23.7c.08-.15.16-.31.23-.46a3.253,3.253,0,0,1-.37.52c.12-.13.24-.26.37-.39a3.194,3.194,0,0,1-.27.25c-.01.01-.15.1-.15.11-.01-.04.56-.3.2-.14a.8.8,0,0,0-.16.08c-.18.11.51-.14.31-.11-.13.02-.26.06-.39.08.21-.03.42-.05.63-.08a3.226,3.226,0,0,1-.44,0l.63.06a1.694,1.694,0,0,0-.22-.04c-.2-.02.6.22.27.08a2.945,2.945,0,0,0-1.83-.17,2.4,2.4,0,0,0-1.4.9,1.776,1.776,0,0,0,.87,2.63Z" fill="#eacf83"/>
        </g>
      </g>
      <g id="Group_396" data-name="Group 396" transform="translate(-263 48.01)">
        <g id="Group_395" data-name="Group 395">
          <path id="Path_1087" data-name="Path 1087" d="M1091.93,531.13a31.617,31.617,0,0,0-7.98-6.41,17.387,17.387,0,0,0-10.99-1.77c-.65.11-2.07.7-1.56,1.59s2.13.82,2.96.68a7.9,7.9,0,0,1,3.24.19,13.531,13.531,0,0,1,3.72,1.56,32.532,32.532,0,0,1,6.6,5.62c1.06,1.11,5.56.16,4.01-1.46Z" fill="#eacf83"/>
        </g>
      </g>
      <g id="Group_398" data-name="Group 398" transform="translate(-263 48.01)">
        <g id="Group_397" data-name="Group 397">
          <path id="Path_1088" data-name="Path 1088" d="M1047.02,523.31c6.69-1.19,13.16,1.16,19.59,2.67,6.9,1.61,13.85,1.29,20.88,1.21,1.01-.01.25-1.75.03-2.12-.48-.8-1.37-1.84-2.39-1.82-3.55.04-7.11.14-10.65.08a46.805,46.805,0,0,1-10.4-1.45c-6.35-1.55-12.81-3.68-19.41-2.51-1.58.27.87,4.2,2.35,3.94Z" fill="#eacf83"/>
        </g>
      </g>
      <path id="Path_1089" data-name="Path 1089" d="M1077.06,925.23c-.84-.62-3.63,0-4.59.16a.619.619,0,0,0-.51.59l-.59,18.82a.624.624,0,0,0,.48.63c1.36.31,5.1,1.02,5.85-.35.67-1.21-.01-16.42-.13-19.26C1077.57,925.52,1077.3,925.41,1077.06,925.23Z" transform="translate(-263 48.01)" fill="#f3c8bb" stroke="#c69191" stroke-miterlimit="10" stroke-width="1.851"/>
      <g id="XMLID_4_" transform="translate(-263 48.01)">
        <g id="Group_399" data-name="Group 399">
          <path id="Path_1090" data-name="Path 1090" d="M1090.32,942.29c8.24.8,10.63,11.03,10.63,11.03s-11.42,3.14-22.07,2.6v-.02a15.974,15.974,0,0,1,1.6-6.98,3.776,3.776,0,0,1,.58-.84,29.261,29.261,0,0,1,3.27-3.87,6.835,6.835,0,0,1,3.1-1.98.66.66,0,0,1,.14-.01,1.273,1.273,0,0,1,.19-.01A22.532,22.532,0,0,1,1090.32,942.29Z" fill="#ee7358"/>
          <path id="Path_1091" data-name="Path 1091" d="M1084.33,944.21a30.186,30.186,0,0,0-3.27,3.87,3.774,3.774,0,0,0-.58.84c-1.96.77-1.76-1.37-1.76-1.37C1079.97,946.83,1082.2,944.47,1084.33,944.21Z" fill="#ee7358"/>
          <path id="Path_1092" data-name="Path 1092" d="M1100.65,957.46c-.58.58-18.82,4.21-33.5,0,0,0,.3-2.3.54-4.13a27.413,27.413,0,0,0,11.19,2.6c10.64.53,22.07-2.6,22.07-2.6S1101.22,956.89,1100.65,957.46Z" fill="#ee7358"/>
          <path id="Path_1093" data-name="Path 1093" d="M1078.72,947.55s-.2,2.14,1.76,1.37a16.019,16.019,0,0,0-1.6,6.98v.02a27.615,27.615,0,0,1-11.19-2.6v-.04a28.509,28.509,0,0,1,3.03-10.67s6.14,1.34,7.58-.07l1.05.64-.18.28a4.982,4.982,0,0,0-2.81,2.1c-.36.75.52,1.29,1.27,1.03a2.2,2.2,0,0,0-.07.3c-.06.39.01.79.5.86A1.025,1.025,0,0,0,1078.72,947.55Z" fill="#ee7358"/>
        </g>
        <g id="Group_400" data-name="Group 400">
          <path id="Path_1094" data-name="Path 1094" d="M1077.64,946.6a2.2,2.2,0,0,0-.07.3c-.06.39.01.79.5.86a1.159,1.159,0,0,0,.65-.21c1.25-.72,3.48-3.08,5.61-3.34" fill="none" stroke="#e84436" stroke-linecap="round" stroke-linejoin="round" stroke-miterlimit="10" stroke-width="1.776"/>
          <path id="Path_1095" data-name="Path 1095" d="M1080.73,944.05a12.586,12.586,0,0,0-2.51,1.72,1.939,1.939,0,0,0-.57.84" fill="none" stroke="#e84436" stroke-linecap="round" stroke-linejoin="round" stroke-miterlimit="10" stroke-width="1.776"/>
          <path id="Path_1096" data-name="Path 1096" d="M1087.57,942.22a.66.66,0,0,0-.14.01,15.973,15.973,0,0,0-6.69,1.81" fill="none" stroke="#e84436" stroke-linecap="round" stroke-linejoin="round" stroke-miterlimit="10" stroke-width="1.776"/>
          <path id="Path_1097" data-name="Path 1097" d="M1067.7,953.33a27.413,27.413,0,0,0,11.19,2.6c10.64.53,22.07-2.6,22.07-2.6s-2.39-10.23-10.63-11.03a20.419,20.419,0,0,0-2.56-.08" fill="none" stroke="#e84436" stroke-linecap="round" stroke-linejoin="round" stroke-miterlimit="10" stroke-width="1.776"/>
          <path id="Path_1098" data-name="Path 1098" d="M1080.74,944.05h-.01l-1.37-.85-1.05-.64c-1.43,1.41-7.58.07-7.58.07a28.51,28.51,0,0,0-3.03,10.67" fill="none" stroke="#e84436" stroke-linecap="round" stroke-linejoin="round" stroke-miterlimit="10" stroke-width="1.776"/>
          <path id="Path_1099" data-name="Path 1099" d="M1087.76,942.21a1.272,1.272,0,0,0-.19.01.66.66,0,0,0-.14.01,6.67,6.67,0,0,0-3.1,1.98,30.186,30.186,0,0,0-3.27,3.87,3.774,3.774,0,0,0-.58.84,16.019,16.019,0,0,0-1.6,6.98" fill="none" stroke="#e84436" stroke-linecap="round" stroke-linejoin="round" stroke-miterlimit="10" stroke-width="1.776"/>
          <path id="Path_1100" data-name="Path 1100" d="M1100.95,953.33s.27,3.56-.3,4.13-18.82,4.21-33.5,0c0,0,.3-2.3.54-4.13v-.04c.15-1.2.28-2.19.3-2.19" fill="none" stroke="#e84436" stroke-linecap="round" stroke-linejoin="round" stroke-miterlimit="10" stroke-width="1.776"/>
          <path id="Path_1101" data-name="Path 1101" d="M1078.72,947.55s-.2,2.14,1.76,1.37" fill="none" stroke="#e84436" stroke-linecap="round" stroke-linejoin="round" stroke-miterlimit="10" stroke-width="1.776"/>
          <path id="Path_1102" data-name="Path 1102" d="M1079.18,943.48a4.982,4.982,0,0,0-2.81,2.1c-.36.75.52,1.29,1.27,1.03h.01" fill="none" stroke="#e84436" stroke-linecap="round" stroke-linejoin="round" stroke-miterlimit="10" stroke-width="1.776"/>
        </g>
      </g>
      <g id="Group_401" data-name="Group 401" transform="translate(-263 48.01)">
        <path id="Path_1103" data-name="Path 1103" d="M1179.92,726.09c2.64-.27,3.93,2.41,2.62,3.93-1.13,1.31-12.39,1.88-15.36,1.75s-9.44-1.93-13.87,1.42l-24.89,19.84c-3.97-3.58-2.6-12.28-3.63-13.97l18.76-15.93c1.8-1.3.72-5.8.72-5.8s-1.34-7.03-.21-8.01c1.14-1,.19-4.52,1.93-4.84s4,2.93,3.98,4.08.71,4.56-.16,5.81c5.42,2.73,13.13-10.86,17.1-12.81s4.68,2.46,3.69,3.56c-.92,1.04-9.85,10.64-8.05,10.73s12.8-7.54,12.8-7.54c3.08-1.04,3.52,2.94,2.34,4.03s-13.07,9.11-12.64,9.32,12.29-3.08,13.73-4.18,5.02,1.38,3.43,3.57c-1.28,1.78-10.78,4.76-14.23,5.79a.139.139,0,0,0,.06.27C1170.95,726.86,1177.87,726.3,1179.92,726.09Z" fill="#f3c8bb"/>
        <path id="Path_1104" data-name="Path 1104" d="M1134.31,749.26c-.03,1.11,16.82-15.55,19-16.07a53.909,53.909,0,0,1,13.87-1.42c2.96.13,14.23-.43,15.36-1.75,1.31-1.52.02-4.21-2.62-3.93-2.06.21-8.97.77-11.88,1.01a.139.139,0,0,1-.06-.27c3.45-1.02,12.95-4,14.23-5.79,1.58-2.19-1.98-4.66-3.43-3.57-1.44,1.11-13.31,4.38-13.73,4.18s11.46-8.22,12.64-9.32.75-5.07-2.34-4.03c0,0-11,7.64-12.8,7.54s7.13-9.69,8.05-10.73c.99-1.1.27-5.5-3.69-3.56s-11.67,15.53-17.1,12.81" fill="none" stroke="#c69191" stroke-linecap="round" stroke-linejoin="round" stroke-miterlimit="10" stroke-width="2.317"/>
        <path id="Path_1105" data-name="Path 1105" d="M1149.81,714.36c.87-1.25.13-4.67.16-5.81s-2.25-4.41-3.98-4.08-.8,3.84-1.93,4.84.21,8.01.21,8.01,1.08,4.5-.72,5.8c0,0-11.28,11.78-13.73,12.37" fill="none" stroke="#c69191" stroke-linecap="round" stroke-linejoin="round" stroke-miterlimit="10" stroke-width="2.317"/>
        <path id="Path_1106" data-name="Path 1106" d="M1129.97,734.86" fill="#f3c8bb"/>
      </g>
      <path id="Path_1107" data-name="Path 1107" d="M1074.33,722.89s22.39,9.98,31.44,9.54c6.16-.3,12.31-1.1,15.62-1.58a3.244,3.244,0,0,1,3.44,2.01c1.26,2.96,6.34,13.95,9.46,18.12,1.35,1.8-.99,2.53-2,4.58-4.86,9.89-38.61,3.98-40.85,9.3-3.19,7.59-7.89,5.04-6.96,11.39S1074.33,722.89,1074.33,722.89Z" transform="translate(-263 48.01)" fill="#ee7358"/>
      <path id="Path_1108" data-name="Path 1108" d="M1038.93,722.13s.12,8.89,6.53,11.02,16.56,6.7,20.37-2.42,6.53-14.18,8.37-13.16,4.09,11.09,2,13.66-18.02,16.29-26.64,10.29-17.72-9.92-15.35-15.72S1038.93,722.13,1038.93,722.13Z" transform="translate(-263 48.01)" fill="#e84436"/>
      <g id="XMLID_2_" transform="translate(-263 48.01)">
        <g id="XMLID_3_">
          <g id="Group_402" data-name="Group 402">
            <path id="Path_1109" data-name="Path 1109" d="M1142.81,632.54a9.2,9.2,0,0,1,.58,4.53c-1.49,10.7-12.5,13.62-15.78,14.64,1.43-3.5,2.69-7.04,3.75-10.58.08-.22.15-.45.21-.67q1.17-3.75,1.95-7.39a2.313,2.313,0,0,0,.08-.38q.615-2.67,1.09-5.29c0-.02.01-.05.01-.07,1.44-.2,3.78-.26,5.33,1.09a8.854,8.854,0,0,1,1.76,2.13c.31.6.67,1.27,1.01,1.98v.01Z" fill="#f3c8bb"/>
            <path id="Path_1110" data-name="Path 1110" d="M1143.23,640.34c-5.43,12.09-13.06,12.76-16.29,12.96.24-.53.45-1.05.66-1.59,3.28-1.02,14.29-3.94,15.78-14.64a9.2,9.2,0,0,0-.58-4.53C1143.81,634.7,1144.59,637.31,1143.23,640.34Z" fill="#f3c8bb"/>
            <path id="Path_1111" data-name="Path 1111" d="M1135.96,599.97a.5.5,0,0,0-.02-.17.97.97,0,0,0,.17-.01C1136.06,599.85,1136.01,599.92,1135.96,599.97Z" fill="#936037"/>
            <path id="Path_1112" data-name="Path 1112" d="M1135.25,624.1v.04h-.09C1135.19,624.13,1135.22,624.11,1135.25,624.1Z" fill="#c69191"/>
            <path id="Path_1113" data-name="Path 1113" d="M1135.16,624.14c-.34.14-.56.19-.6.21a1.862,1.862,0,0,0-.56.24c.02-.11.05-.21.07-.33A10.675,10.675,0,0,1,1135.16,624.14Z" fill="#c69191"/>
            <path id="Path_1114" data-name="Path 1114" d="M1140.04,628.42c-1.55-1.35-3.88-1.29-5.33-1.09.08-.41.15-.83.22-1.24a1.345,1.345,0,0,0,.33.04c.07,0,4.55.45,6.43,4.21.04.07.07.14.11.21A9.577,9.577,0,0,0,1140.04,628.42Z" fill="#f3c8bb"/>
            <path id="Path_1115" data-name="Path 1115" d="M1134.93,626.09c-.07.41-.14.83-.22,1.24-.06.01-.12.01-.18.02.05-.38.09-.76.14-1.12.07-.04.15-.08.24-.14Z" fill="#f3c8bb"/>
            <path id="Path_1116" data-name="Path 1116" d="M1134.71,627.33c0,.02-.01.05-.01.07a.329.329,0,0,1-.17-.04v-.01A.557.557,0,0,0,1134.71,627.33Z" fill="#f3c8bb"/>
            <path id="Path_1117" data-name="Path 1117" d="M1133.63,626.46c.12-.57.25-1.2.37-1.87a1.86,1.86,0,0,1,.56-.24c.05-.02.26-.07.6-.21h.09c-.09.65-.2,1.29-.32,1.95h-.02a1.234,1.234,0,0,1-.24.14c-.05.37-.09.75-.14,1.12a.076.076,0,0,0-.04.01,1.523,1.523,0,0,1-.94-.65A.67.67,0,0,0,1133.63,626.46Z" fill="#c69191"/>
            <path id="Path_1118" data-name="Path 1118" d="M1134.53,627.36v.01c-.01.01-.02,0-.04,0A.076.076,0,0,1,1134.53,627.36Z" fill="#c69191"/>
            <path id="Path_1119" data-name="Path 1119" d="M1133.61,632.7c.38-1.8.69-3.59.92-5.33a.471.471,0,0,0,.17.04Q1134.22,630.035,1133.61,632.7Z" fill="#f3c8bb"/>
            <path id="Path_1120" data-name="Path 1120" d="M1133.34,626.19a1.139,1.139,0,0,1,0-.58,1.528,1.528,0,0,1,.66-1.02c-.12.67-.25,1.3-.37,1.87a1.991,1.991,0,0,1-.07.26A1.246,1.246,0,0,1,1133.34,626.19Z" fill="#c69191"/>
            <path id="Path_1121" data-name="Path 1121" d="M1133.41,627.59a.587.587,0,0,1-.25.05,2.69,2.69,0,0,0,.4-.92,1.5,1.5,0,0,0,.94.65A6.949,6.949,0,0,0,1133.41,627.59Z" fill="#c69191"/>
            <path id="Path_1122" data-name="Path 1122" d="M1134.07,624.26c-.02.12-.05.22-.07.33a1.473,1.473,0,0,0-.66,1.02l-1.42-.25a90.437,90.437,0,0,0,.85-25.9.647.647,0,0,1-.02-.2,1.878,1.878,0,0,0,3.22.71,91.689,91.689,0,0,1-.71,24.14.247.247,0,0,0-.09.04A8.522,8.522,0,0,0,1134.07,624.26Z" fill="#c69191"/>
            <path id="Path_1123" data-name="Path 1123" d="M1131.3,628.75c.09-.47.18-.94.26-1.4C1131.48,627.82,1131.39,628.28,1131.3,628.75Z" fill="#c69191"/>
            <path id="Path_1124" data-name="Path 1124" d="M1130.06,634.31c.12-.47.24-.95.34-1.42C1130.29,633.36,1130.19,633.83,1130.06,634.31Z" fill="#c69191"/>
            <path id="Path_1125" data-name="Path 1125" d="M1127.24,651.84a101.464,101.464,0,0,0,4.12-10.7c-1.07,3.54-2.32,7.08-3.75,10.58C1127.46,651.77,1127.35,651.8,1127.24,651.84Z" fill="#f3c8bb"/>
            <path id="Path_1126" data-name="Path 1126" d="M1128.9,638.6c-.15.56-.32,1.12-.5,1.68C1128.58,639.73,1128.74,639.17,1128.9,638.6Z" fill="#c69191"/>
            <path id="Path_1127" data-name="Path 1127" d="M1127.24,651.84c.11-.04.22-.07.37-.12-.21.53-.43,1.05-.66,1.59-.08,0-.15.01-.21.01.02-.19.06-.38.08-.56C1126.97,652.45,1127.1,652.15,1127.24,651.84Z" fill="#f3c8bb"/>
            <path id="Path_1128" data-name="Path 1128" d="M1127.24,651.84c-.14.31-.27.62-.43.92.05-.27.09-.54.13-.82C1127.03,651.91,1127.12,651.87,1127.24,651.84Z" fill="#c69191"/>
            <path id="Path_1129" data-name="Path 1129" d="M1126.94,653.31c-.11.28-.24.57-.37.85.06-.28.11-.57.15-.84C1126.79,653.32,1126.86,653.31,1126.94,653.31Z" fill="#c69191"/>
            <path id="Path_1130" data-name="Path 1130" d="M1126.81,652.76c-.02.18-.06.37-.08.56-.06,0-.12.01-.18.01C1126.65,653.14,1126.73,652.95,1126.81,652.76Z" fill="#f3c8bb"/>
            <path id="Path_1131" data-name="Path 1131" d="M1126.87,655.24a.881.881,0,0,1-.32.04,1.029,1.029,0,0,1-.18-.01c.07-.37.14-.73.2-1.1.13-.28.26-.57.37-.85,3.23-.2,10.85-.88,16.29-12.96a8.837,8.837,0,0,0-.43-7.8v-.01a10.51,10.51,0,0,0-1.01-1.98c-.04-.07-.07-.14-.11-.21-1.88-3.76-6.36-4.21-6.43-4.21a.992.992,0,0,1-.33-.04c.12-.66.22-1.3.32-1.95a9.413,9.413,0,0,1,6.81,1.91,13.367,13.367,0,0,1,4.42,11.47C1144.21,653.74,1127.3,655.16,1126.87,655.24Z" fill="#c69191"/>
            <path id="Path_1132" data-name="Path 1132" d="M1124.94,650.06a7.883,7.883,0,0,1-.31.75C1124.74,650.56,1124.85,650.31,1124.94,650.06Z" fill="#c69191"/>
            <path id="Path_1133" data-name="Path 1133" d="M1123.42,653.67c.25-.56.5-1.11.72-1.68C1123.91,652.56,1123.68,653.12,1123.42,653.67Z" fill="#c69191"/>
            <path id="Path_1134" data-name="Path 1134" d="M1122.49,655.71c-.13.3-.27.58-.41.86C1122.22,656.29,1122.36,655.99,1122.49,655.71Z" fill="#c69191"/>
            <path id="Path_1135" data-name="Path 1135" d="M1117.9,664.52c.21-.37.43-.75.64-1.12C1118.33,663.77,1118.11,664.14,1117.9,664.52Z" fill="#c69191"/>
            <path id="Path_1136" data-name="Path 1136" d="M1110.74,675.21c.34-.44.69-.9,1.02-1.35C1111.43,674.31,1111.08,674.76,1110.74,675.21Z" fill="#c69191"/>
            <path id="Path_1137" data-name="Path 1137" d="M1099.55,856.6a10.2,10.2,0,0,1-.01,1.24,12.192,12.192,0,0,1-5.45,9.52,26.394,26.394,0,0,1-7.78,3.28c-7.71,2.05-17.57,2-27.63.86a201.324,201.324,0,0,1-36.59-7.98c-6.59-2.1-11.17-4.01-12.3-5.01a1.033,1.033,0,0,1-.14-.3.22.22,0,0,1-.01-.08,4.344,4.344,0,0,1-.07-.7c-.01-.36-.01-.77,0-1.25.07-2.01.39-5,.9-8.7,2.26-16.75,8.39-48.08,12.91-69.39a.939.939,0,0,0,.02-.44,1.6,1.6,0,0,0-1.27-1.65,1.651,1.651,0,0,0-1.94,1.25c-1.23,5.84-4.72,22.51-7.88,39.4a23.831,23.831,0,0,0-3.07-1.82c-.11-.07-.22-.12-.33-.18a30.2,30.2,0,0,0-3.23-1.47c-.22-.09-.43-.18-.63-.25-2.51-.99-4.39-1.54-4.42-1.66-6.82-30.07,21.53-68.8,33.24-83.19.46-.51.89-.98,1.3-1.42.56,3.33,2.99,6.71,7.24,10.11,8.31,6.66,17.9,6.75,25.68.24,4.18-3.5,7.78-8.45,8.44-12.62.14-.94.75-.26,1.33.49,2.94,3.72,6.14,10.2,9.41,14.89,5.93,8.46,4.25,18.31.44,28.55a1.617,1.617,0,0,0-1.22,1.73c.04.36.07.73.12,1.11-4.57,11.36-11.13,23.12-12.29,33.93-.21,1.95,4.47,9.04,3.85,11.25-.17.59-.33,1.17-.49,1.74a1.651,1.651,0,0,1-.86,1.05c-3.98,1.78,14.29-.84,14.29-1.69l1.59-.3c.36,1.91.71,3.8,1.07,5.67,1.81,9.62,3.55,18.88,4.65,25.55.52,3.22.91,5.85,1.08,7.61C1099.52,856.19,1099.54,856.4,1099.55,856.6Z" fill="#ee7358"/>
            <path id="Path_1138" data-name="Path 1138" d="M1102.67,855.9c-.14.3-1.65-4.71-1.69-4.7l-1.41-1.01c-.01-.05-.01-.11-.02-.15a15.6,15.6,0,0,0-.21-2.08l.14.06a1.675,1.675,0,0,0,.98,1.33,1.767,1.767,0,0,0,.73.17,1.66,1.66,0,0,0,.7-.15h.01c.39,2.55.69,4.62.83,6.16a.248.248,0,0,0,.01.09v.01C1102.71,855.75,1102.69,855.85,1102.67,855.9Z" fill="#e84436"/>
            <path id="Path_1139" data-name="Path 1139" d="M1099.54,857.85a12.116,12.116,0,0,1-5.45,9.68,25.984,25.984,0,0,1-7.74,3.27l-.04-.15a26.245,26.245,0,0,0,7.78-3.28A12.192,12.192,0,0,0,1099.54,857.85Z" fill="#e84436"/>
            <path id="Path_1140" data-name="Path 1140" d="M1092.71,817.15l-1.59.3c0-.17-.7-.26-2.39-.25-1.47.01-1.07-9.71,1.65-12.58C1091.14,808.76,1091.93,812.98,1092.71,817.15Z" fill="#ee7358"/>
            <path id="Path_1141" data-name="Path 1141" d="M1089.74,769.73c.12,1.21.28,2.58.5,4.08l-1.42.19a1.632,1.632,0,0,0-1.79-1.46.932.932,0,0,0-.24.05c-.06-.5-.12-.97-.17-1.42.39-.95.76-1.89,1.1-2.84a1.417,1.417,0,0,1,.22-.05A1.634,1.634,0,0,1,1089.74,769.73Z" fill="#e84436"/>
            <path id="Path_1142" data-name="Path 1142" d="M1102.72,855.51c-.14-1.54-.44-3.61-.83-6.16h-.01a1.522,1.522,0,0,1-.7.15,1.7,1.7,0,0,1-.73-.17,1.675,1.675,0,0,1-.98-1.33l-.14-.06a15.6,15.6,0,0,1,.21,2.08c-1.09-6.7-2.11-19.19-3.91-28.74-3.09-16.44-7.39-37.28-8.84-48.71a1.441,1.441,0,0,1,.24-.05,1.637,1.637,0,0,1,1.79,1.46l1.42-.19c1.61,11.59,5.63,31.25,8.58,46.89,1.37,7.32,2.66,14.15,3.68,19.86a22.306,22.306,0,0,1,.12,3.37c.17,6.53.31,10.49.12,11.67C1102.72,855.57,1102.72,855.55,1102.72,855.51Z" fill="#e84436"/>
            <path id="Path_1143" data-name="Path 1143" d="M1087.73,768.33c-.34.95-.71,1.89-1.1,2.84-.05-.38-.08-.76-.12-1.11A1.608,1.608,0,0,1,1087.73,768.33Z" fill="#e84436"/>
            <path id="Path_1144" data-name="Path 1144" d="M1099.5,855.81c.02.27.05.53.05.79-.01-.2-.04-.41-.05-.63-.17-1.76-.56-4.39-1.08-7.61-1.1-6.66-2.84-15.92-4.65-25.55-.36-1.87-.71-3.76-1.07-5.67-.78-4.17-1.57-8.39-2.33-12.54-2.18-11.97-4.1-23.23-4.79-30.29a1.623,1.623,0,0,1,1.21-1.73c1.46,11.43,5.75,32.27,8.84,48.71,1.8,9.55,2.82,22.04,3.91,28.74C1099.66,852.41,1099.37,854.44,1099.5,855.81Z" fill="#ee7358"/>
            <path id="Path_1145" data-name="Path 1145" d="M1100.97,851.21c.05-.01,1.55,5,1.69,4.7a1.578,1.578,0,0,0,.07-.28,15.535,15.535,0,0,1-6.85,14.47,27.6,27.6,0,0,1-7.23,3.2,1.754,1.754,0,0,0-1.69-1.72h-.05c-.11,0-.24.01-.34.02l-.21-.79a25.619,25.619,0,0,0,7.74-3.27,12.13,12.13,0,0,0,5.45-9.68,7.311,7.311,0,0,0,.01-1.24,7.123,7.123,0,0,0-.05-.79c-.13-1.37.15-3.4.04-5.76.01.05.01.11.02.15Z" fill="#e84436"/>
            <path id="Path_1146" data-name="Path 1146" d="M1089.86,625.58c0,3.11-1.68,5.4-3.35,5.81v-.02c1.33-.3,2.71-2.75,2.71-5.94,0-3.16-1.34-5.56-2.65-5.92C1088.44,619.7,1089.86,622.45,1089.86,625.58Z"/>
            <path id="Path_1147" data-name="Path 1147" d="M1086.96,871.57a1.747,1.747,0,0,1,1.69,1.72c-1.11.34-2.28.64-3.5.89l.01-.89a1.806,1.806,0,0,1,1.41-1.69c.11-.01.24-.02.34-.02C1086.92,871.57,1086.95,871.57,1086.96,871.57Z" fill="#e84436"/>
            <path id="Path_1148" data-name="Path 1148" d="M1085.15,874.17a35.057,35.057,0,0,0,3.5-.89v.07l-1.1,50.12a.708.708,0,0,1-.01.15,1.573,1.573,0,0,0-1.41-.98,1.659,1.659,0,0,0-1.16.44l-.89-.75Z" fill="#497ea9"/>
            <path id="Path_1149" data-name="Path 1149" d="M1086.23,619.46a.946.946,0,0,1,.33.05,3.145,3.145,0,0,0-.53.01,1.355,1.355,0,0,0-.28.04A1.528,1.528,0,0,1,1086.23,619.46Z"/>
            <path id="Path_1150" data-name="Path 1150" d="M1104.23,605.73a1.547,1.547,0,0,1-.58,2.13,1.676,1.676,0,0,1-.78.2,1.558,1.558,0,0,1-1.35-.8c-4.72-8.31-16.71-5.85-16.84-5.82a1.527,1.527,0,0,1-1.83-1.2,1.549,1.549,0,0,1,1.2-1.85C1084.61,598.26,1098.39,595.43,1104.23,605.73Z" fill="#f3db8c"/>
            <path id="Path_1151" data-name="Path 1151" d="M1086.57,619.51c1.31.36,2.65,2.76,2.65,5.92,0,3.2-1.39,5.65-2.71,5.94a2.45,2.45,0,0,1-.27.02c-1.42,0-2.99-2.56-2.99-5.97,0-2.99,1.21-5.3,2.45-5.86a.218.218,0,0,0,.06-.01,2.689,2.689,0,0,1,.28-.04A4.665,4.665,0,0,1,1086.57,619.51Z"/>
            <path id="Path_1152" data-name="Path 1152" d="M1087.54,923.63a2.825,2.825,0,0,1-4.02,2.35,3.142,3.142,0,0,0,.91-1.79,1.682,1.682,0,0,1,.54-1.11,1.705,1.705,0,0,1,1.16-.44A1.6,1.6,0,0,1,1087.54,923.63Z" fill="#497ea9"/>
            <path id="Path_1153" data-name="Path 1153" d="M1083.24,625.43c0,3.41,1.57,5.97,2.99,5.97a2.45,2.45,0,0,0,.27-.02v.02a2.06,2.06,0,0,1-.47.07c-1.41.06-4.01-2.92-4.01-6.33,0-3.16,2.24-5.27,3.67-5.56C1084.45,620.13,1083.24,622.43,1083.24,625.43Z"/>
            <path id="Path_1154" data-name="Path 1154" d="M1083.23,925.84a1.827,1.827,0,0,0,.28.14,18.872,18.872,0,0,1-4.44,3.53l.05-5.21A12.475,12.475,0,0,1,1083.23,925.84Z" fill="#1d71b8"/>
            <path id="Path_1155" data-name="Path 1155" d="M1087.67,924.33c-.18,4.32-7.04,8.12-8.42,8.82a.837.837,0,0,1-.2.08l.02-3.72a18.867,18.867,0,0,0,4.44-3.53,2.859,2.859,0,0,0,2.58-.09,2.771,2.771,0,0,0,1.44-2.26A1.3,1.3,0,0,1,1087.67,924.33Z" fill="#497ea9"/>
            <path id="Path_1156" data-name="Path 1156" d="M1079.05,933.23a1.551,1.551,0,0,1-.56.11,1.593,1.593,0,0,1-1.43-.88,1.576,1.576,0,0,1-.19-.75,1.6,1.6,0,0,1,.88-1.43,13.269,13.269,0,0,0,1.33-.77Z" fill="#c69191"/>
            <path id="Path_1157" data-name="Path 1157" d="M1079.01,937.78l-.04,3.22a.4.4,0,0,1-.14-.05,1.628,1.628,0,0,1-1.2-1.94A1.667,1.667,0,0,1,1079.01,937.78Z" fill="#c69191"/>
            <path id="Path_1158" data-name="Path 1158" d="M1086.79,772.59a1.616,1.616,0,0,0-1.21,1.73c.7,7.07,2.62,18.32,4.79,30.29-2.71,2.88-3.11,12.6-1.65,12.58,1.69-.01,2.39.08,2.39.25,0,.85-18.27,3.47-14.29,1.69a1.622,1.622,0,0,0,.86-1.05c.15-.57.32-1.15.49-1.74.63-2.2-4.06-9.29-3.85-11.25,1.16-10.81,7.72-22.56,12.29-33.93C1086.67,771.62,1086.73,772.09,1086.79,772.59Z" fill="#ee7358"/>
            <path id="Path_1159" data-name="Path 1159" d="M1084.42,924.2a3.206,3.206,0,0,1-.91,1.79c-.09-.04-.19-.09-.28-.14a12.394,12.394,0,0,0-4.11-1.54l.01-1.46a1.611,1.611,0,0,0-1.6-1.63l.05-.63a16.314,16.314,0,0,1,6.5,1.75l.89.75A1.627,1.627,0,0,0,1084.42,924.2Z" fill="#497ea9"/>
            <path id="Path_1160" data-name="Path 1160" d="M1075.88,924.05a12.628,12.628,0,0,1,3.24.25l-.05,5.21c-.45.3-.9.54-1.33.77a1.6,1.6,0,0,0-.88,1.43l-1.05-.01Z" fill="#c69191"/>
            <path id="Path_1161" data-name="Path 1161" d="M1078.49,933.33a1.551,1.551,0,0,0,.56-.11l-.04,4.56a1.613,1.613,0,0,0-.17,3.17.783.783,0,0,0,.14.05v.25a1.617,1.617,0,0,1-1.62,1.61h-.01a1.617,1.617,0,0,1-1.61-1.62l.08-9.54,1.05.01a1.635,1.635,0,0,0,1.62,1.62Z" fill="#c69191"/>
            <path id="Path_1162" data-name="Path 1162" d="M1079.13,922.85l-.01,1.46a13.165,13.165,0,0,0-3.24-.25l.01-1.23a1.611,1.611,0,0,1,1.62-1.61h.02A1.6,1.6,0,0,1,1079.13,922.85Z" fill="#497ea9"/>
            <path id="Path_1163" data-name="Path 1163" d="M1075.82,720.91a1.76,1.76,0,0,1-1.48,1.98,1.139,1.139,0,0,1-.26.02,1.76,1.76,0,0,1-1.73-1.5,3.637,3.637,0,0,0-.84-1.72l2.7-2.12c.13.14.26.28.4.44A6.706,6.706,0,0,1,1075.82,720.91Z" fill="#e84436"/>
            <path id="Path_1164" data-name="Path 1164" d="M1073.44,932.26l-.08,9.73a1.615,1.615,0,1,1-3.23-.02v-.66c.17-.05.32-.09.44-.12a1.623,1.623,0,0,0,1.16-1.97,1.589,1.589,0,0,0-1.57-1.22l.04-3.98a3.782,3.782,0,0,0,1.29-.24,1.6,1.6,0,0,0,1.11-1.54Z" fill="#c69191"/>
            <path id="Path_1165" data-name="Path 1165" d="M1073.51,924.3a17.091,17.091,0,0,0-3.27.89l.02-1.66a1.617,1.617,0,0,1,1.62-1.61h.01a1.65,1.65,0,0,1,1.61,1.65v.73Z" fill="#497ea9"/>
            <path id="Path_1166" data-name="Path 1166" d="M1086.32,870.81c-7.71,2.05-17.57,2-27.63.86h-.02l.02-.17c10.06,1.14,19.92,1.18,27.63-.86l.04.15C1086.34,870.8,1086.33,870.81,1086.32,870.81Z" fill="#e84436"/>
            <path id="Path_1167" data-name="Path 1167" d="M1072.5,931.74a1.508,1.508,0,0,1,.08.51,1.618,1.618,0,0,1-1.11,1.54,4.33,4.33,0,0,1-1.29.24l.01-3.24a1.493,1.493,0,0,0,.25-.07A1.617,1.617,0,0,1,1072.5,931.74Z" fill="#c69191"/>
            <path id="Path_1168" data-name="Path 1168" d="M1073.51,924.3l-.07,7.95-.85-.01a1.511,1.511,0,0,0-.08-.51,1.643,1.643,0,0,0-2.06-1.03.824.824,0,0,1-.25.07l.05-5.59A17.526,17.526,0,0,1,1073.51,924.3Z" fill="#c69191"/>
            <path id="Path_1169" data-name="Path 1169" d="M1070.15,938a1.581,1.581,0,0,1,1.57,1.22,1.641,1.641,0,0,1-1.16,1.97,4.36,4.36,0,0,0-.44.12Z" fill="#c69191"/>
            <path id="Path_1170" data-name="Path 1170" d="M1070.24,925.19l-.05,5.59c-1.23.17-3.26-1.05-5.03-2.49A15.343,15.343,0,0,1,1070.24,925.19Z" fill="#1d71b8"/>
            <path id="Path_1171" data-name="Path 1171" d="M1070.2,930.78l-.01,3.24H1070c-4.04,0-8.55-4.6-9.51-5.63a1.508,1.508,0,0,1-.41-.98,2.985,2.985,0,0,0,1.73,1.68,3.2,3.2,0,0,0,1.11.21,3.072,3.072,0,0,0,2.17-.92l.08-.08C1066.94,929.72,1068.96,930.94,1070.2,930.78Z" fill="#497ea9"/>
            <path id="Path_1172" data-name="Path 1172" d="M1071.52,875.39a68.66,68.66,0,0,0,13.62-1.22l-1.07,48.17a16.314,16.314,0,0,0-6.5-1.75,20.774,20.774,0,0,0-14.32,4.71l-2.99-50.49C1064.09,875.19,1067.87,875.39,1071.52,875.39Z" fill="#5492c5"/>
            <path id="Path_1173" data-name="Path 1173" d="M1074.21,717.57l-2.7,2.12c-1.97-2.36-6.9-4.1-10.35-4.95v-3.55c2.89.63,10.44,2.59,13.45,6.82C1074.47,717.86,1074.34,717.71,1074.21,717.57Z" fill="#e84436"/>
            <path id="Path_1174" data-name="Path 1174" d="M1060.07,927.4a1.525,1.525,0,0,1,.5-1.31,1.647,1.647,0,0,1,2.3.09,22,22,0,0,0,2.3,2.11l-.08.08a3.038,3.038,0,0,1-2.17.92,3.158,3.158,0,0,1-1.11-.21A2.973,2.973,0,0,1,1060.07,927.4Z" fill="#497ea9"/>
            <path id="Path_1175" data-name="Path 1175" d="M1059.54,719.8a1.62,1.62,0,0,0,1.62-1.62v-3.43c3.44.85,8.38,2.59,10.35,4.95l-.05.04a7.839,7.839,0,0,1,.44.71c1.53,2.82-.73,9.29-6.04,13.76-3.08,2.57-11.28,7.68-21.25-.28-4.51-3.62-6.52-6.92-5.98-9.86a6.017,6.017,0,0,1,.63-1.73c1.74-3.26,6.33-5.63,9.04-6.71v2.57a1.62,1.62,0,0,0,3.24,0V703.17c2.17-.01,4.3-.09,6.37-.21V718.2A1.644,1.644,0,0,0,1059.54,719.8Z" fill="#f3c8bb"/>
            <path id="Path_1176" data-name="Path 1176" d="M1061.16,702.7q-1.6.135-3.24.24v-.43a1.62,1.62,0,0,1,3.24,0Z" fill="#c69191"/>
            <path id="Path_1177" data-name="Path 1177" d="M1061.16,714.74c-.59-.12-1.14-.25-1.62-.32a1.752,1.752,0,0,1-1.46-1.7,1.644,1.644,0,0,1,.04-.31,1.763,1.763,0,0,1,2.02-1.42c.19.02.53.09,1.02.19v3.56Z" fill="#c69191"/>
            <path id="Path_1178" data-name="Path 1178" d="M1059.83,926.39l-3.11-51.95c1.2.14,2.38.27,3.55.38l2.99,50.49a20.792,20.792,0,0,1,14.32-4.71l-.05.63h-.02a1.611,1.611,0,0,0-1.62,1.61l-.01,1.23a14.549,14.549,0,0,0-2.37.25v-.73a1.657,1.657,0,0,0-1.61-1.65h-.01a1.617,1.617,0,0,0-1.62,1.61l-.02,1.66a15.239,15.239,0,0,0-5.08,3.1,21.917,21.917,0,0,1-2.3-2.11,1.638,1.638,0,0,0-2.3-.09,1.564,1.564,0,0,0-.5,1.31A2.776,2.776,0,0,1,1059.83,926.39Z" fill="#497ea9"/>
            <path id="Path_1179" data-name="Path 1179" d="M1060.15,873.09c-.05-.79-.72-1.12-1.5-1.18l.02-.24h.02c10.06,1.14,19.92,1.18,27.63-.86.01,0,.02-.01.04-.01l.21.79a1.815,1.815,0,0,0-1.41,1.69l-.01.89a68.66,68.66,0,0,1-13.62,1.22c-3.65,0-7.43-.2-11.26-.58Z" fill="#e84436"/>
            <path id="Path_1180" data-name="Path 1180" d="M1057.92,702.94c1.09-.07,2.18-.14,3.24-.24v8.48c-.49-.09-.83-.17-1.02-.19a1.752,1.752,0,0,0-2.02,1.42c-.01.11-.04.2-.04.31h-.17v-9.78Z" fill="#c69191"/>
            <path id="Path_1181" data-name="Path 1181" d="M1059.54,714.42c.49.07,1.03.2,1.62.32v3.43a1.62,1.62,0,0,1-3.24,0v-5.46h.17A1.737,1.737,0,0,0,1059.54,714.42Z" fill="#c69191"/>
            <path id="Path_1182" data-name="Path 1182" d="M1058.64,871.91c.78.06,1.46.39,1.5,1.18l.12,1.72c-1.17-.11-2.36-.24-3.55-.38l-.06-1.14c-.05-.95.53-1.34,1.5-1.41C1058.32,871.89,1058.48,871.89,1058.64,871.91Z" fill="#e84436"/>
            <path id="Path_1183" data-name="Path 1183" d="M1053.03,871.22a1.762,1.762,0,0,1,1.61,1.88l-.07,1.07c-1.16-.15-2.31-.33-3.47-.5l.06-.84A1.726,1.726,0,0,1,1053.03,871.22Z" fill="#e84436"/>
            <path id="Path_1184" data-name="Path 1184" d="M1051.55,713.56v4.62a1.62,1.62,0,1,1-3.24,0v-2.57c.43-.15.78-.3,1.09-.39a1.756,1.756,0,0,0,1.21-1.66Z" fill="#c69191"/>
            <path id="Path_1185" data-name="Path 1185" d="M1061.16,702.51a1.62,1.62,0,0,0-3.24,0v.43c-2.07.12-4.2.2-6.37.21v-.64a1.613,1.613,0,0,0-1.62-1.62v-.88c21.05,0,42.02-4.6,53.9-16.8a90.6,90.6,0,0,0,6.91-8.01c.34-.45.69-.9,1.02-1.35s.65-.88.95-1.31c.39-.53.77-1.07,1.14-1.61.43-.62.85-1.24,1.25-1.88.47-.72.94-1.44,1.39-2.18.49-.78.96-1.56,1.42-2.36.21-.38.43-.75.64-1.12.96-1.69,1.88-3.42,2.75-5.17.27-.54.53-1.09.79-1.65.14-.28.28-.57.41-.86.32-.67.63-1.35.92-2.04.26-.56.5-1.11.72-1.68.18-.39.34-.78.5-1.18.12-.25.21-.5.31-.75,1.31-3.24,2.46-6.51,3.46-9.78.18-.56.34-1.12.5-1.68.41-1.43.8-2.86,1.16-4.3.13-.47.24-.95.34-1.42.33-1.38.63-2.77.9-4.13.09-.47.18-.94.26-1.4.13-.67.25-1.34.36-2l1.42.25a1.139,1.139,0,0,0,0,.58,1.486,1.486,0,0,0,.22.53,2.9,2.9,0,0,1-.4.92.587.587,0,0,0,.25-.05,6.949,6.949,0,0,1,1.09-.22c.01,0,.02.01.04,0-.24,1.74-.54,3.53-.92,5.33-.02.13-.05.26-.08.38q-.855,3.675-1.95,7.39c-.06.22-.13.45-.21.67a99.325,99.325,0,0,1-4.12,10.7c-.12.04-.21.07-.3.11-.04.27-.08.54-.13.82-.08.19-.17.38-.26.57.06,0,.12-.01.18-.01-.05.27-.09.56-.15.84a103.97,103.97,0,0,1-20.53,31.24c-9.38,9.62-25.08,15.65-44.89,17.31v-.2Z" fill="#c69191"/>
            <path id="Path_1186" data-name="Path 1186" d="M1049.93,700.89a1.613,1.613,0,0,1,1.62,1.62v.64c-.41.01-.85.01-1.29.01h-.67c-.41,0-.85,0-1.28-.01v-.64A1.633,1.633,0,0,1,1049.93,700.89Z" fill="#c69191"/>
            <path id="Path_1187" data-name="Path 1187" d="M1049.59,703.17h.67c.44,0,.88,0,1.29-.01v10.41h-.95a1.419,1.419,0,0,0-.08-.54,1.741,1.741,0,0,0-2.2-1.12h-.01v-8.74Z" fill="#c69191"/>
            <path id="Path_1188" data-name="Path 1188" d="M1050.47,924.92a2.329,2.329,0,0,1-1.37,1.41,2.527,2.527,0,0,1-.76.13,2.2,2.2,0,0,1-1.44-.52,2.374,2.374,0,0,0,.38-.92,1.639,1.639,0,0,1,1.82-1.39A1.583,1.583,0,0,1,1050.47,924.92Z" fill="#497ea9"/>
            <path id="Path_1189" data-name="Path 1189" d="M1048.32,711.89a1.737,1.737,0,0,1,2.2,1.12,1.478,1.478,0,0,1,.08.54,1.752,1.752,0,0,1-1.21,1.66c-.31.09-.66.24-1.09.39v-3.72Z" fill="#c69191"/>
            <path id="Path_1190" data-name="Path 1190" d="M1046.9,925.94c-1.11,1.78-4.58,3.66-7.62,4.82l.06-7.85c2.99.19,5.6,1.05,7.39,2.88C1046.78,925.84,1046.84,925.89,1046.9,925.94Z" fill="#1d71b8"/>
            <path id="Path_1191" data-name="Path 1191" d="M1052.97,634.67c5.2,3.36,7.86,10.82,8.12,11.98a1.569,1.569,0,0,1-1.21,1.86,1.75,1.75,0,0,1-.33.04,1.577,1.577,0,0,1-1.53-1.23c-.6-2.88-3.28-7.78-6.76-10.01a3.042,3.042,0,0,0-2.37-.51c-5.17,1.12-8.29,6.75-9.17,9.98a1.561,1.561,0,1,1-3.01-.83c.15-.54,3.46-10.44,11.51-12.19A6.084,6.084,0,0,1,1052.97,634.67Z" fill="#c69191"/>
            <path id="Path_1192" data-name="Path 1192" d="M1050.5,925.45c-.64,4.78-8.68,7.9-11.26,8.78l.04-3.48c3.04-1.16,6.51-3.04,7.62-4.82a2.2,2.2,0,0,0,1.44.52,2.527,2.527,0,0,0,.76-.13,2.329,2.329,0,0,0,1.37-1.41A1.651,1.651,0,0,1,1050.5,925.45Z" fill="#497ea9"/>
            <path id="Path_1193" data-name="Path 1193" d="M1038.93,722.13a1.605,1.605,0,0,0-2.35-2.12c3.35-5.33,11.23-7.94,11.73-8.12v3.72c-2.71,1.08-7.3,3.46-9.04,6.71Z" fill="#e84436"/>
            <path id="Path_1194" data-name="Path 1194" d="M1039.18,941.18a1.651,1.651,0,0,1-.28.9c-.05-.01-.11-.05-.15-.06-.07-.04-.15-.08-.21-.11a1.6,1.6,0,0,1,.66-2.15Z" fill="#c69191"/>
            <path id="Path_1195" data-name="Path 1195" d="M1058.67,871.67a201.27,201.27,0,0,1-36.57-7.98c-.01,0-.04-.01-.05-.01l.05-.15a201.324,201.324,0,0,0,36.59,7.98Z" fill="#e84436"/>
            <path id="Path_1196" data-name="Path 1196" d="M1038.74,942.02c.05.01.11.05.15.06-.05.07-.09.12-.14.18a1.324,1.324,0,0,1-.22-.34C1038.59,941.94,1038.67,941.99,1038.74,942.02Z" fill="#c69191"/>
            <path id="Path_1197" data-name="Path 1197" d="M1039.28,930.75l-.04,3.48a4.713,4.713,0,0,1-.46.15,1.627,1.627,0,0,1-2.05-1.04,1.677,1.677,0,0,1-.07-.5,1.618,1.618,0,0,1,1.11-1.54C1038.26,931.14,1038.75,930.97,1039.28,930.75Z" fill="#c69191"/>
            <path id="Path_1198" data-name="Path 1198" d="M1039.19,939.76v.01a1.62,1.62,0,0,0-.79,1.01,1.653,1.653,0,0,0,.13,1.14,1.652,1.652,0,0,1-.63-2.04,1.6,1.6,0,0,1,1.29-.96Z" fill="#c69191"/>
            <path id="Path_1199" data-name="Path 1199" d="M1036.09,922.9a23.346,23.346,0,0,1,3.24,0l-.06,7.85c-.52.21-1.02.39-1.5.56a1.6,1.6,0,0,0-1.11,1.54h-.65Z" fill="#c69191"/>
            <path id="Path_1200" data-name="Path 1200" d="M1039.33,922.77v.13a23.346,23.346,0,0,0-3.24,0v-.17a1.62,1.62,0,1,1,3.24.04Z" fill="#497ea9"/>
            <path id="Path_1201" data-name="Path 1201" d="M1039.24,934.23l-.05,4.69a1.585,1.585,0,0,0-1.29.96,1.641,1.641,0,0,0,.63,2.04,1.662,1.662,0,0,0,.22.34,1.655,1.655,0,0,1-1.2.53h-.01a1.617,1.617,0,0,1-1.61-1.62l.07-8.32h.65a1.681,1.681,0,0,0,.07.5,1.635,1.635,0,0,0,1.55,1.12,2.086,2.086,0,0,0,.5-.08C1038.9,934.35,1039.05,934.3,1039.24,934.23Z" fill="#c69191"/>
            <path id="Path_1202" data-name="Path 1202" d="M1038.65,720.08a1.62,1.62,0,0,1,.28,2.05c-.06.09-.13.17-.19.25s-1.42,1.56-3.55,4.13a8.5,8.5,0,0,1,.01-3.1,9.026,9.026,0,0,1,1.37-3.4A1.631,1.631,0,0,1,1038.65,720.08Z" fill="#e84436"/>
            <path id="Path_1203" data-name="Path 1203" d="M1030.46,923.46a1.624,1.624,0,0,1,1.62-1.61h.02a1.627,1.627,0,0,1,1.57,1.34c-1.07.15-2.14.36-3.22.62v-.35Z" fill="#497ea9"/>
            <path id="Path_1204" data-name="Path 1204" d="M1033.7,923.48l-.15,18.43a1.617,1.617,0,0,1-1.62,1.61h-.01a1.647,1.647,0,0,1-1.47-.98v-.02c.24-.02.43-.06.56-.07a1.621,1.621,0,0,0-.27-3.23c-.07.01-.2.02-.41.05l.05-5.24c.17.01.32.04.49.05h.09a1.621,1.621,0,0,0,.1-3.24c-.21-.01-.44-.05-.65-.08l.06-6.95c1.08-.26,2.15-.46,3.22-.62C1033.69,923.28,1033.7,923.39,1033.7,923.48Z" fill="#c69191"/>
            <path id="Path_1205" data-name="Path 1205" d="M1032.47,940.7a1.608,1.608,0,0,1-1.47,1.75c-.13.01-.32.05-.56.07a1.468,1.468,0,0,1-.14-.64l.01-2.62c.21-.02.34-.04.41-.05A1.62,1.62,0,0,1,1032.47,940.7Z" fill="#c69191"/>
            <path id="Path_1206" data-name="Path 1206" d="M1030.46,923.8l-.06,6.95c-2.9-.5-5.18-3.01-6.52-4.89A52.357,52.357,0,0,1,1030.46,923.8Z" fill="#1d71b8"/>
            <path id="Path_1207" data-name="Path 1207" d="M1031.05,930.84a1.621,1.621,0,0,1-.1,3.24h-.09c-.17-.01-.32-.04-.49-.05l.04-3.27C1030.61,930.79,1030.84,930.82,1031.05,930.84Z" fill="#c69191"/>
            <path id="Path_1208" data-name="Path 1208" d="M1023.22,867.34a208.072,208.072,0,0,0,27.88,6.33l-3.79,48.08c-7.19-4.79-18.62-1.47-24.46.78Z" fill="#5492c5"/>
            <path id="Path_1209" data-name="Path 1209" d="M1051.1,873.67c1.16.17,2.31.34,3.47.5l-3.97,50.19a1.763,1.763,0,0,1-.13.56,1.594,1.594,0,0,0-1.37-1.29,1.626,1.626,0,0,0-1.82,1.39,2.258,2.258,0,0,1-.38.92c-.06-.05-.12-.09-.18-.15a11.05,11.05,0,0,0-7.39-2.88v-.13a1.62,1.62,0,1,0-3.24-.04v.17c-.79.07-1.61.17-2.41.28a1.627,1.627,0,0,0-1.57-1.34h-.02a1.624,1.624,0,0,0-1.62,1.61v.34a49.716,49.716,0,0,0-6.58,2.06,19.1,19.1,0,0,1-1.36-2.2,1.6,1.6,0,0,0-1.44-.92l1.79-.2c5.84-2.25,17.27-5.58,24.46-.78Z" fill="#497ea9"/>
            <path id="Path_1210" data-name="Path 1210" d="M1020.54,925.94a2.571,2.571,0,0,0,2.5.27c.28-.12.56-.22.84-.34,1.34,1.88,3.62,4.39,6.52,4.89l-.04,3.27c-6.7-.79-10.59-8.62-10.75-8.94a1.337,1.337,0,0,1-.15-.64A2.692,2.692,0,0,0,1020.54,925.94Z" fill="#497ea9"/>
            <path id="Path_1211" data-name="Path 1211" d="M1054.64,873.1a1.762,1.762,0,0,0-1.61-1.88,1.726,1.726,0,0,0-1.87,1.61l-.06.84a208.062,208.062,0,0,1-27.88-6.33l.01-1.3a1.771,1.771,0,0,0-1.38-1.73l.2-.63c.01,0,.04.01.05.01a201.27,201.27,0,0,0,36.57,7.98l-.02.24a4.011,4.011,0,0,0-.49-.02c-.97.07-1.55.46-1.5,1.41l.06,1.14c-.71-.09-1.43-.17-2.14-.26Z" fill="#e84436"/>
            <path id="Path_1212" data-name="Path 1212" d="M1023.03,926.21a2.6,2.6,0,0,1-2.5-.27,2.74,2.74,0,0,1-1.08-1.49,1.6,1.6,0,0,1,.89-1.54,1.688,1.688,0,0,1,.72-.17,1.6,1.6,0,0,1,1.44.92,21.021,21.021,0,0,0,1.36,2.2C1023.59,925.98,1023.32,926.09,1023.03,926.21Z" fill="#497ea9"/>
            <path id="Path_1213" data-name="Path 1213" d="M1022.05,863.68c-5.8-1.86-10.05-3.56-11.73-4.6a1.473,1.473,0,0,1-.52-.56c1.12.99,5.71,2.91,12.3,5.01Z" fill="#ee7358"/>
            <path id="Path_1214" data-name="Path 1214" d="M1021.51,864.27a1.976,1.976,0,0,1,.34.04,1.771,1.771,0,0,1,1.38,1.73l-.01,1.3c-.94-.28-1.85-.57-2.7-.85-.27-.08-.53-.17-.78-.26v-.21A1.731,1.731,0,0,1,1021.51,864.27Z" fill="#e84436"/>
            <path id="Path_1215" data-name="Path 1215" d="M1019.35,923.69l.39-57.46c.25.09.51.18.78.26.85.28,1.76.57,2.7.85l-.37,55.2-1.79.2a1.655,1.655,0,0,0-.72.17,1.6,1.6,0,0,0-.89,1.54A2.681,2.681,0,0,1,1019.35,923.69Z" fill="#497ea9"/>
            <path id="Path_1216" data-name="Path 1216" d="M1023.39,777.93c-2.5,11.79-5.5,26.66-8.06,40.43l-1.08-.2c-.37-.33-.76-.64-1.16-.95a.372.372,0,0,0,.15-.24c3.91-23.63,5.21-31.25,6.96-39.54a1.644,1.644,0,0,1,1.94-1.25,1.614,1.614,0,0,1,1.27,1.48A.622.622,0,0,1,1023.39,777.93Z" fill="#e84436"/>
            <path id="Path_1217" data-name="Path 1217" d="M1014.13,821.74c-.88-.49-1.7-.94-2.5-1.36.21-1.17.44-2.34.65-3.52a3.578,3.578,0,0,1,.37.31.339.339,0,0,0,.44.04c.4.31.79.62,1.16.95l1.08.2c-.21,1.17-.43,2.33-.64,3.49Z" fill="#e84436"/>
            <path id="Path_1218" data-name="Path 1218" d="M1020.21,777.27a1.644,1.644,0,0,1,1.94-1.25,1.613,1.613,0,0,1,1.27,1.65,1.6,1.6,0,0,0-1.27-1.48,1.651,1.651,0,0,0-1.94,1.25c-1.75,8.29-3.05,15.91-6.96,39.54a.372.372,0,0,1-.15.24c-.25-.19-.51-.38-.77-.54C1015.48,799.78,1018.97,783.1,1020.21,777.27Z" fill="#ee7358"/>
            <path id="Path_1219" data-name="Path 1219" d="M1012.32,816.66c.26.17.52.36.77.54a.339.339,0,0,1-.44-.04c-.12-.11-.24-.21-.37-.31A1.067,1.067,0,0,0,1012.32,816.66Z" fill="#ee7358"/>
            <path id="Path_1220" data-name="Path 1220" d="M1012.32,816.66a1.423,1.423,0,0,1-.04.2,17.559,17.559,0,0,0-3.03-2.02A25.04,25.04,0,0,1,1012.32,816.66Z" fill="#ee7358"/>
            <path id="Path_1221" data-name="Path 1221" d="M1033.89,728.09c-12.46,13.97-40.08,53.2-33.24,83.36.02.11,1.95.58,4.42,1.49.2.07.4.15.63.25,1.02.41,2.12.9,3.23,1.47.11.06.22.11.33.18a17.562,17.562,0,0,1,3.03,2.02c-.21,1.17-.44,2.34-.65,3.52-10.84-5.82-14.3-6.56-14.54-7.65-3.73-16.49,2.08-37.71,16.53-61.64a219.072,219.072,0,0,1,22.73-30.91.915.915,0,0,1,.22-.18,9.025,9.025,0,0,0-1.37,3.4,8.5,8.5,0,0,0-.01,3.1C1034.79,726.99,1034.35,727.53,1033.89,728.09Z" fill="#e84436"/>
            <path id="Path_1222" data-name="Path 1222" d="M1011.07,596.89l-12.5,7.79c-1.33.05-2.62.07-3.89.11,4.19-7.49,14.12-9.11,14.62-9.19A1.567,1.567,0,0,1,1011.07,596.89Z" fill="#eacf83"/>
            <path id="Path_1223" data-name="Path 1223" d="M1005.17,625.29c0-3.42,2.6-5.62,4.02-5.62,2.13-.31,3.8,2.64,3.8,6.06s-2.01,5.81-3.8,5.9C1007.78,631.68,1005.17,628.7,1005.17,625.29Z"/>
            <path id="Path_1224" data-name="Path 1224" d="M1009.78,846.34a37.176,37.176,0,0,1-1.72-4.88c.95-6.31,2.21-13.64,3.57-21.08.79.43,1.62.88,2.5,1.36l.56.11c-1.79,9.77-3.31,18.79-4.21,25.47l-.57-.08A1.77,1.77,0,0,0,1009.78,846.34Z" fill="#e84436"/>
            <path id="Path_1225" data-name="Path 1225" d="M1009.65,858.14a.942.942,0,0,1-.06-.3c-.01-.12-.01-.26-.01-.4A4.22,4.22,0,0,0,1009.65,858.14Z" fill="#ee7358"/>
            <path id="Path_1226" data-name="Path 1226" d="M1006.71,859.74c-.54-1.42-.31-5.68.43-11.6a1.637,1.637,0,0,0,1.17.51,1.717,1.717,0,0,0,1.6-1.41l.57.08c-.52,3.81-.84,6.87-.9,8.87-.01.49-.01.9,0,1.25,0,.14,0,.28.01.4a1,1,0,0,0,.06.3.22.22,0,0,0,.01.08c.01.08.04.15.05.21a.727.727,0,0,0,.09.08,1.632,1.632,0,0,0,.52.56c1.68,1.04,5.93,2.75,11.73,4.6l-.2.63c-.12-.01-.22-.04-.34-.04a1.727,1.727,0,0,0-1.76,1.74v.21C1007.69,862.26,1006.96,860.36,1006.71,859.74Z" fill="#e84436"/>
            <path id="Path_1227" data-name="Path 1227" d="M1005.17,625.29c0,3.41,2.6,6.39,4.02,6.33,1.79-.08,3.8-2.46,3.8-5.9,0-3.42-1.67-6.37-3.8-6.06C1007.78,619.66,1005.17,621.87,1005.17,625.29Zm127.6-25.83a90.432,90.432,0,0,1-.85,25.9c-.11.66-.22,1.33-.36,2-.08.46-.17.92-.26,1.4-.27,1.36-.57,2.75-.9,4.13-.11.47-.22.95-.34,1.42-.36,1.43-.75,2.86-1.16,4.3-.15.57-.32,1.12-.5,1.68q-1.485,4.905-3.46,9.78c-.09.25-.2.5-.31.75-.15.4-.32.79-.5,1.18-.22.57-.47,1.12-.72,1.68-.3.69-.6,1.36-.92,2.04-.13.28-.27.58-.41.86-.25.56-.52,1.1-.79,1.65-.86,1.75-1.79,3.48-2.75,5.17-.21.38-.43.76-.64,1.12-.46.79-.94,1.57-1.42,2.36-.45.73-.91,1.46-1.39,2.18-.41.63-.83,1.25-1.25,1.88-.37.54-.75,1.08-1.14,1.61-.3.44-.62.88-.95,1.31-.33.45-.67.91-1.02,1.35a90.585,90.585,0,0,1-6.91,8.01c-11.87,12.19-32.85,16.8-53.9,16.8-21.43-.01-42.93-4.81-55-11.25-16.43-8.77-27.08-26.92-32.39-38.1-1.72-3.8-1.03-8.56-1.35-9.49l-1.82-1.98c-.05-.09-.8-1.37-1.94-3.67-.32-10.26,6.46-24.91,14.93-26.37,4.4-.77,15.41-1.07,24.34-1.29,18.31-.51,35.11-7.98,43.22-14.06,11.46-8.59,44.09-37.93,47.5-46.82,6.56,3.02,40.37,37.82,45.21,51.97a1.32,1.32,0,0,0,.12.31A.425.425,0,0,0,1132.77,599.46Zm-46.74,32.01a2.668,2.668,0,0,0,.47-.07c1.67-.41,3.35-2.7,3.35-5.81,0-3.14-1.42-5.88-3.29-6.07a.946.946,0,0,0-.33-.05,1.89,1.89,0,0,0-.49.09.218.218,0,0,1-.06.01c-1.43.3-3.67,2.4-3.67,5.56C1082.02,628.54,1084.62,631.52,1086.03,631.47Zm15.49-24.21a1.558,1.558,0,0,0,1.35.8,1.676,1.676,0,0,0,.78-.2,1.547,1.547,0,0,0,.58-2.13c-5.84-10.3-19.61-7.47-20.19-7.34a1.557,1.557,0,0,0,.63,3.05C1084.8,601.41,1096.79,598.95,1101.52,607.26Zm-41.64,41.25a1.569,1.569,0,0,0,1.21-1.86c-.26-1.16-2.92-8.62-8.12-11.98a6.13,6.13,0,0,0-4.75-.92c-8.05,1.75-11.35,11.65-11.51,12.19a1.561,1.561,0,1,0,3.01.83c.89-3.23,4-8.85,9.17-9.98a3.009,3.009,0,0,1,2.37.51c3.48,2.24,6.16,7.14,6.76,10.01a1.569,1.569,0,0,0,1.53,1.23A.887.887,0,0,0,1059.88,648.51Z" fill="#f3c8bb"/>
            <path id="Path_1228" data-name="Path 1228" d="M1008.97,848.48a1.791,1.791,0,0,1-.66.17,1.637,1.637,0,0,1-1.17-.51c.25-2.04.56-4.29.92-6.68a37.185,37.185,0,0,0,1.72,4.88,1.669,1.669,0,0,1,.13.9A1.58,1.58,0,0,1,1008.97,848.48Z" fill="#e84436"/>
            <path id="Path_1229" data-name="Path 1229" d="M1008.92,814.66c-1.11-.57-2.21-1.05-3.23-1.47A31.332,31.332,0,0,1,1008.92,814.66Z" fill="#e84436"/>
            <path id="Path_1230" data-name="Path 1230" d="M1033.89,728.09c-11.71,14.39-40.06,53.13-33.24,83.19.02.12,1.91.66,4.42,1.66-2.46-.91-4.39-1.39-4.42-1.49C993.81,781.29,1021.42,742.06,1033.89,728.09Z" fill="#ee7358"/>
            <path id="Path_1231" data-name="Path 1231" d="M994.93,688.77c12.06,6.44,33.57,11.23,55,11.25v.88a1.626,1.626,0,0,0-1.62,1.62v.64c-20.46-.17-41.8-4.68-54.84-11.64-13.48-7.2-23.06-20.25-28.72-29.94-1.75-2.98-3.22-5.81-4.45-8.33.24,0,.38-.02.43-.02a1.614,1.614,0,0,0,1.49-1.73.5.5,0,0,0-.02-.12,3.631,3.631,0,0,0,.36-.71C967.85,661.85,978.5,680,994.93,688.77Z" fill="#c69191"/>
            <path id="Path_1232" data-name="Path 1232" d="M962.54,650.67a2.791,2.791,0,0,1-.36.71,1.124,1.124,0,0,0-.13-.47Z" fill="#c69191"/>
            <path id="Path_1233" data-name="Path 1233" d="M960.04,652.71c-.47-.98-.9-1.92-1.3-2.79a12.769,12.769,0,0,0,1.75.08,1.613,1.613,0,0,1,1.57.9,1.169,1.169,0,0,1,.13.47A2.69,2.69,0,0,1,960.04,652.71Z" fill="#c69191"/>
            <path id="Path_1234" data-name="Path 1234" d="M960.3,653.25c-.09-.18-.18-.36-.26-.53a2.676,2.676,0,0,0,2.15-1.34.5.5,0,0,1,.02.12,1.614,1.614,0,0,1-1.49,1.73C960.67,653.22,960.53,653.25,960.3,653.25Z" fill="#c69191"/>
            <path id="Path_1235" data-name="Path 1235" d="M962.54,650.67a100.01,100.01,0,0,1-4-9.54.28.28,0,0,0-.01-.05c-.08-.33-.54-2.37-1.03-4.43-.04-.37-.06-.75-.07-1.12,1.14,2.3,1.89,3.57,1.94,3.67l1.82,1.98C961.51,642.11,960.83,646.87,962.54,650.67Z" fill="#f3c8bb"/>
            <path id="Path_1236" data-name="Path 1236" d="M957.5,636.65c.49,2.06.95,4.1,1.03,4.43-.01-.02-.01-.05-.02-.07A13.811,13.811,0,0,1,957.5,636.65Z" fill="#f3c8bb"/>
            <path id="Path_1237" data-name="Path 1237" d="M957.5,636.65c-.14-.63-.3-1.27-.43-1.86.12.26.24.5.36.73C957.44,635.9,957.47,636.28,957.5,636.65Z" fill="#f3c8bb"/>
            <path id="Path_1238" data-name="Path 1238" d="M957.06,634.79c-.28-.58-.59-1.23-.92-1.93l.24-.24c.02-.2.02-.41.04-.65C956.41,631.99,956.71,633.23,957.06,634.79Z" fill="#c69191"/>
            <path id="Path_1239" data-name="Path 1239" d="M958.73,649.92c-1.72-3.81-4.81-15.59-5.13-16.53l1.65.34.89-.88c.33.7.64,1.35.92,1.93h.01c.13.59.28,1.23.43,1.86a13.811,13.811,0,0,0,1.01,4.36c.01.02.01.05.02.07a.28.28,0,0,1,.01.05,103.319,103.319,0,0,0,4,9.54l-.49.24a1.613,1.613,0,0,0-1.57-.9A12.723,12.723,0,0,1,958.73,649.92Z" fill="#c69191"/>
            <path id="Path_1240" data-name="Path 1240" d="M951.51,621.47c1.62,4.59,3.27,8.46,4.63,11.39l-.89.88-1.65-.34c.32.94,3.41,12.71,5.13,16.53-3.02-.33-9.4-1.97-14.83-9.53-1.97-2.73-2.68-5.42-2.06-8.01.8-3.56,3.92-6.3,5.86-7.71-.06-.19-.13-.38-.19-.57C949.25,622.93,950.81,621.98,951.51,621.47Z" fill="#f3c8bb"/>
            <path id="Path_1241" data-name="Path 1241" d="M942.2,639.33c-1.98-2.72-2.68-5.41-2.06-8,.52-2.3,4.25-5.13,7.37-7.22.06.19.13.38.19.57-1.94,1.41-5.05,4.14-5.86,7.71-.62,2.59.09,5.28,2.06,8.01,5.43,7.56,11.81,9.2,14.83,9.53.4.88.83,1.81,1.3,2.79C955.43,653.19,946.54,645.39,942.2,639.33Z" fill="#c69191"/>
            <path id="Path_1242" data-name="Path 1242" d="M941.26,642.28c-2.52-3.54-3.4-7.11-2.59-10.63,1.22-5.2,5.78-8.72,7.98-10.18.3.91.58,1.78.86,2.63-3.13,2.1-6.85,4.92-7.37,7.22-.62,2.59.08,5.28,2.06,8,4.34,6.06,13.23,13.86,17.84,13.39.08.18.17.36.26.53h-.15C957.77,653.25,948.65,652.54,941.26,642.28Z" fill="#c69191"/>
          </g>
        </g>
      </g>
      <path id="Path_1243" data-name="Path 1243" d="M1088.18,531.38s25.58,6.53,29.75,19.11,4.17,17.58,4.17,17.58,9.79-2.56,13.47,14.64,2.61,20.6,2.61,20.6,6.49,26.8-2.61,25.81-14.1-22.97-11.6-25.43c0,0-19.89-1.84-23.08-16.23l-3.19-14.39s-14.88-4.3-22.48-13.06" transform="translate(-263 48.01)" fill="#f3db8c" stroke="#eacf83" stroke-linecap="round" stroke-linejoin="round" stroke-miterlimit="10" stroke-width="3.551"/>
      <path id="Path_1244" data-name="Path 1244" d="M1090.72,537.8c-1.58,9.24-11.94,41.27-31.09,46.65a15.593,15.593,0,0,0-7.49,4.66c-4.66,5.27-14.22,14.03-26.97,14.95a15.784,15.784,0,0,0-8.96,3.72c-4.93,4.12-13.98,10.02-24.56,9.13a16.35,16.35,0,0,0-16.6,11.24c-1.11,3.23-.26,8.09-4.79,8.55l-5.13.52a15.974,15.974,0,0,1-16.02-9.02c-5.63-11.82-12.25-43.11-1.46-53.32,8.71-8.25,13.66-12.08,16.95-13.75a16.172,16.172,0,0,0,8.13-9.97c2.5-8.65,7.92-20.47,18.94-21.21a15.862,15.862,0,0,0,9.17-3.68c5.55-4.69,16.95-4.94,27.93-2.62a16.22,16.22,0,0,0,12.92-2.53c5.13-3.71,11.9-2.01,19.76,1.23a15.6,15.6,0,0,0,8.68.85c6.69-1.18,18.01-1.56,20.48,8.57A15.107,15.107,0,0,1,1090.72,537.8Z" transform="translate(-263 48.01)" fill="#f3db8c" stroke="#eacf83" stroke-linecap="round" stroke-linejoin="round" stroke-miterlimit="10" stroke-width="3.551"/>
      <g id="Group_404" data-name="Group 404" transform="translate(-263 48.01)">
        <g id="Group_403" data-name="Group 403">
          <path id="Path_1245" data-name="Path 1245" d="M1039.65,579.89a16.32,16.32,0,0,0,10.7-.63,15.91,15.91,0,0,0,4.49-2.78c1.38-1.23,2.32-2.97,3.85-4.02,1.67-1.15,4.12-1.02,6.04-1.59a22.406,22.406,0,0,0,5.19-2.27,19.277,19.277,0,0,0,7.79-8.28c1.66-3.61,1.94-7.93-.57-11.21a7.706,7.706,0,0,0-2.5-2.07c-.24-.13-1.73-.72-1.12.09,4.74,6.2-1.13,14.5-6.42,18.04a21.4,21.4,0,0,1-5.14,2.54c-1.81.61-3.71.68-5.52,1.22s-2.84,1.94-4.01,3.31a15.11,15.11,0,0,1-3.94,3.27,15.511,15.511,0,0,1-11.82,1.54c-.97-.27.07.91.25,1.09a6.926,6.926,0,0,0,2.73,1.75Z" fill="#eacf83"/>
        </g>
      </g>
      <g id="Group_406" data-name="Group 406" transform="translate(-263 48.01)">
        <g id="Group_405" data-name="Group 405">
          <path id="Path_1246" data-name="Path 1246" d="M1001.69,578.85c.1,3.88.03,8.58-2.62,11.71-3.18,3.75-8.12,2.67-12.34,1.95-2.15-.37-5.13-1.19-6.84.64-1.53,1.64-2.38,4.15-3.39,6.12-1.08,2.11-2.04,4.51-4.32,5.57a10.913,10.913,0,0,1-6.59.49,7.32,7.32,0,0,1-4.52-10.73c.42-.67-3.8-2.52-4.53-1.36-2.79,4.4.29,9.56,4.28,11.86a19.545,19.545,0,0,0,8.07,2.41c2.54.21,5.41.17,7.72-1.03,2.34-1.21,3.39-3.82,4.53-6.05.68-1.33,1.35-2.66,2.04-3.99.58-1.12,1.22-2.35,2.64-2.38a23.154,23.154,0,0,1,3.93.64c1.4.23,2.8.46,4.22.55a12.975,12.975,0,0,0,7.36-1.31c4.69-2.74,5.03-8.88,4.91-13.71-.05-1.4-4.57-2.13-4.55-1.38Z" fill="#eacf83"/>
        </g>
      </g>
      <g id="Group_408" data-name="Group 408" transform="translate(-263 48.01)">
        <g id="Group_407" data-name="Group 407">
          <path id="Path_1247" data-name="Path 1247" d="M1033.46,541.98a42.535,42.535,0,0,0-17.42-1.28c-2.49.34-5.51.74-6.46,3.45-1,2.84-1.58,5.9-2.35,8.81,1.51-.18,3.02-.37,4.53-.55-4.82-4.92-13.54-2.65-17.13,2.61a21,21,0,0,0-3.21,9.77c-.23,2.04-.31,4.1-.46,6.15a21.943,21.943,0,0,1-.3,2.81,4.955,4.955,0,0,1-.36,1.19,1.8,1.8,0,0,1-.43.66c-.51.35-.19.32.95-.07a3.822,3.822,0,0,0-3.32.4c-.82.59-.68,1.3.21,1.69a6.017,6.017,0,0,0,5.36-.51,5.291,5.291,0,0,0,2.34-4.12c.53-3.8.34-7.69,1.15-11.46.64-3.01,1.92-6.26,4.45-8.18a4.612,4.612,0,0,1,6.31.24c.88.9,4.12.99,4.53-.55.63-2.38,1.26-4.77,1.89-7.15.16-.61.31-2.12.92-2.53a7.771,7.771,0,0,1,2.59-.39,34.289,34.289,0,0,1,13.1,1.1,4.025,4.025,0,0,0,3.32-.4c.72-.52.78-1.41-.21-1.69Z" fill="#eacf83"/>
        </g>
      </g>
      <g id="Group_410" data-name="Group 410" transform="translate(-263 48.01)">
        <g id="Group_409" data-name="Group 409">
          <path id="Path_1248" data-name="Path 1248" d="M1056.84,538.72c3.86-2.57,9.06-6.19,13.92-4.19,2.09.86,3.45,2.87,5.73,3.42a5.825,5.825,0,0,0,3.83-.43,9.284,9.284,0,0,0,1.61-.8c.07-.05.22-.04.28-.09a.046.046,0,0,1,.05.04c.19.49.04.01-.45-1.45-1.09,2.43,2.84,5.03,4,2.46,1.49-3.29-2.31-6.25-5.42-5.31-1.08.32-2.48,1.62-3.61,1.17-1.3-.52-2.29-1.8-3.51-2.48-6.48-3.65-13.36-.02-18.86,3.63a2.132,2.132,0,0,0-.66,2.98c.55.92,2.05,1.73,3.09,1.05Z" fill="#eacf83"/>
        </g>
      </g>
      <g id="Group_412" data-name="Group 412" transform="translate(-263 48.01)">
        <g id="Group_411" data-name="Group 411">
          <path id="Path_1249" data-name="Path 1249" d="M1092.68,531.25c-.53-1.89.22-4.02,1.14-5.71a10.533,10.533,0,0,1,1.64-2.33,1.989,1.989,0,0,1,.4-.35c-.01,0,.49-.24.3-.17a3.81,3.81,0,0,1,.8-.17c.24-.03.27-.04.09-.01l.42-.03a16.652,16.652,0,0,1,1.73-.04c.46.01-.21-.07.27.03.14.02.28.05.42.08-.27-.08-.26-.08,0,.01s.27.1.02-.02a2.577,2.577,0,0,1,.32.18c-.58-.34.34.39-.01-.01a3.572,3.572,0,0,1,.34.43c-.16-.26.13.32.15.39-.05-.17.04.36.04.45,0,.2-.05.17-.09.43-.08.16-.07.17.02.01-.05.07-.11.14-.17.21-.05.05-.37.31-.07.1a2.736,2.736,0,0,1-.48.25c.54-.23-.55.01.19-.05-.24,0-.18.01.19.03q.6.18.24.06a1.9,1.9,0,0,1,.63.33c.22.23.25.26.12.08a3.309,3.309,0,0,0-3.15-1.13,1.159,1.159,0,0,0-.7,1.97,4.9,4.9,0,0,0,6.87.82c1.94-1.71.61-4.55-.98-5.94-2.15-1.89-5.2-2.1-7.92-1.84a6.281,6.281,0,0,0-3.82,1.42,11.4,11.4,0,0,0-2.06,2.85,9.824,9.824,0,0,0-1.24,7.7,2.484,2.484,0,0,0,1.1,1.12,3.551,3.551,0,0,0,1.77.47c1-.04,1.78-.54,1.48-1.62Z" fill="#eacf83"/>
        </g>
      </g>
      <g id="Group_414" data-name="Group 414" transform="translate(-263 48.01)">
        <g id="Group_413" data-name="Group 413">
          <path id="Path_1250" data-name="Path 1250" d="M1086.7,519.9a2.14,2.14,0,0,1-.6-.21c.19.1.17.09-.07-.05a1.837,1.837,0,0,1,.22.17c-.14-.14-.14-.13-.01,0a6.928,6.928,0,0,1,.58.79,13.073,13.073,0,0,1,.92,2.37,24.664,24.664,0,0,1,1.09,5.95c.05.96,1.27,1.41,2.08,1.57a3.76,3.76,0,0,0,1.7.04c.26-.07.86-.24.84-.61a27.155,27.155,0,0,0-1.38-7.31,9.868,9.868,0,0,0-1.33-2.68,6.4,6.4,0,0,0-3.6-2.18c-.61-.16-2.35-.33-2.55.56-.17.95,1.54,1.44,2.11,1.59Z" fill="#eacf83"/>
        </g>
      </g>
      <g id="Group_416" data-name="Group 416" transform="translate(-263 48.01)">
        <g id="Group_415" data-name="Group 415">
          <path id="Path_1251" data-name="Path 1251" d="M963.17,559.44a42.174,42.174,0,0,1-13.59,8.45c-1.4.49-3.85,1.31-5.23.45a2.034,2.034,0,0,1-.6-2.58c.15-.28.85-.67.89-.83.21-.04.12-.08-.26-.1-.22-.16-.45-.32-.67-.48.08-.06-.02.68,0,.59-.35,1.79,3.96,3.66,4.38,1.51s-1.63-4.03-3.48-4.66a4.092,4.092,0,0,0-4.84,1.44,4.63,4.63,0,0,0,.42,5.14,8.763,8.763,0,0,0,5.29,3.42c3.72.85,7.44-.66,10.71-2.29a49.147,49.147,0,0,0,10.64-7.19c1.6-1.45-2.27-4.1-3.66-2.87Z" fill="#eacf83"/>
        </g>
      </g>
      <g id="Group_418" data-name="Group 418" transform="translate(-263 48.01)">
        <g id="Group_417" data-name="Group 417">
          <path id="Path_1252" data-name="Path 1252" d="M1045.7,520.15c-3.51.25-7.32.5-10.23-1.88a4.955,4.955,0,0,1-1.49-1.79,3.009,3.009,0,0,1-.26-1.02,1.25,1.25,0,0,1,.03-.43c.03-.13.21-.33.22-.43.22-.09.03,0-.59.28.23-.07.25-.08.08-.03s-.15.04.09-.02a2.627,2.627,0,0,1-.39.06c-.11.08-.25-.17.08.06a3.263,3.263,0,0,1,.34.22c.34.31.68,1.16.29,1.53-.73.7.57.86,1.05.84a5.14,5.14,0,0,0,3.11-.96,1.757,1.757,0,0,0,.47-2.04,2.538,2.538,0,0,0-1.99-1.37,9.716,9.716,0,0,0-4.28.4c-1.03.29-2.42.75-2.93,1.8-.76,1.55.62,3.26,1.73,4.2a10.84,10.84,0,0,0,4.87,2.19,30,30,0,0,0,7.75.19,5.186,5.186,0,0,0,3.11-.96c.73-.69-.6-.88-1.06-.84Z" fill="#eacf83"/>
        </g>
      </g>
      <g id="Group_420" data-name="Group 420" transform="translate(-263 48.01)">
        <g id="Group_419" data-name="Group 419">
          <path id="Path_1253" data-name="Path 1253" d="M941.98,611.08c.04,1.72.05,3.43.03,5.15-.01.86-.03,1.72-.05,2.58-.01.41-.03.82-.04,1.23,0,0-.04.69-.01.32a4.584,4.584,0,0,1-.05.52c-.01.06-.02.11-.03.17-.06.22-.05.22.03-.01-.03.05-.05.1-.08.15.15-.16.18-.2.07-.1s-.07.07.14-.07c-.17.07-.18.08-.02.02.17-.04.15-.05-.03-.01h.26a1.121,1.121,0,0,1-.48-.04c.29.06.36.07.19.03a2.17,2.17,0,0,1-.24-.07,2.088,2.088,0,0,1-.23-.08c-.17-.07-.1-.03.2.09a1.5,1.5,0,0,1-.47-.24c-.13-.07-.25-.16-.38-.23-.15-.1-.1-.06.16.12a1.63,1.63,0,0,1-.2-.17c-.07-.06-.13-.12-.19-.18l.16.19a2.83,2.83,0,0,1-.2-.28c.03.07.07.14.1.21-.07-.01-.18-.65-.08-.11a2.712,2.712,0,0,1-.05-.49c.01.34.02.06.07-.12-.09.32-.01.08.1-.09.66-.98-.18-2.38-1.09-2.86a2.249,2.249,0,0,0-3.02.49c-1.38,2.05-.19,4.75,1.57,6.11,1.72,1.33,4.45,2.51,6.54,1.35a3.407,3.407,0,0,0,1.7-2.93c.08-1.2.1-2.4.13-3.6q.075-3.36-.01-6.72a2.653,2.653,0,0,0-2.46-2.22,1.831,1.831,0,0,0-2.04,1.89Z" fill="#eacf83"/>
        </g>
      </g>
      <g id="Group_422" data-name="Group 422" transform="translate(-263 48.01)">
        <g id="Group_421" data-name="Group 421">
          <path id="Path_1254" data-name="Path 1254" d="M1126.32,563.9a15.109,15.109,0,0,0-1.8-5.28,17.186,17.186,0,0,1-1.69-5.13,12.9,12.9,0,0,0-1.77-5.55,18.941,18.941,0,0,0-3.74-3.95c-5.9-4.93-13.22-7.7-20.33-10.38-.69-.26-2.17.6-2.79.89-.2.1-1.76.91-1.35,1.06,7.17,2.7,14.53,5.49,20.42,10.54a17.481,17.481,0,0,1,3.63,4,13.238,13.238,0,0,1,1.56,5.21,17.88,17.88,0,0,0,1.69,5.13,15.317,15.317,0,0,1,1.8,5.28c.01.1,4.45-.86,4.37-1.82Z" fill="#eacf83"/>
        </g>
      </g>
      <path id="Path_1255" data-name="Path 1255" d="M1075.81,720.91s22.38,9.56,28.7,9.32,14.68-.96,16.68-1.69,6.36.73,6.72,2.73,6.01,19.02,8.01,20.72-2.77,7.09-3.94,8.18-20.07,2.94-32.23,4.23c-10.55,1.12-12.54,4.73-12.9,6.36s-4.91,4.91-4.91,4.91l-.55-3.63s4.51-1.2,4.98-4.51,10.31-6.94,13.64-6.65c3.86.34,32.63-1.56,32.26-5.31s2.7-2.51-.37-8.31-5.68-12.77-7.09-14.38-10.86-1.01-14.15-.76a59.054,59.054,0,0,1-21.48-3.37c-8.6-3.21-14.87-5.84-14.87-5.84Z" transform="translate(-263 48.01)" fill="#e84436" stroke="#e84436" stroke-miterlimit="10" stroke-width="0.947"/>
      <ellipse id="Ellipse_79" data-name="Ellipse 79" cx="7.94" cy="8.37" rx="7.94" ry="8.37" transform="translate(731.93 692.97)" fill="#ee7358"/>
      <ellipse id="Ellipse_80" data-name="Ellipse 80" cx="7.94" cy="8.37" rx="7.94" ry="8.37" transform="translate(818.92 692.97)" fill="#ee7358"/>
      <g id="Group_423" data-name="Group 423" transform="translate(-263 48.01)">
        <path id="Path_1256" data-name="Path 1256" d="M1040.05,687.06c12.16,6.14,23.08-15.49,23.08-15.49-22.49,4.46-33.43-10.78-33.43-10.78S1027.88,680.93,1040.05,687.06Z" fill="#f3c8bb"/>
        <path id="Path_1257" data-name="Path 1257" d="M1050.82,684.18a.442.442,0,0,1-.07.73c-2.18,1.27-9.49,4.38-16.31-3.93a.459.459,0,0,1,.33-.72c2.26-.35,9.56-1.22,13.78,2.11C1049.76,683.32,1050.43,683.87,1050.82,684.18Z" fill="#e30613"/>
        <path id="Path_1258" data-name="Path 1258" d="M1063.13,671.57s-10.92,21.62-23.08,15.49-10.36-26.27-10.36-26.27S1040.64,676.03,1063.13,671.57Zm-12.38,13.34a.447.447,0,0,0,.07-.73c-.38-.32-1.06-.86-2.27-1.82-4.22-3.33-11.52-2.46-13.78-2.11a.464.464,0,0,0-.33.72C1041.26,689.29,1048.57,686.18,1050.75,684.91Z" fill="#fff"/>
        <path id="Path_1259" data-name="Path 1259" d="M1034.44,680.98c6.81,8.31,14.12,5.2,16.31,3.93a.447.447,0,0,0,.07-.73c-.38-.32-1.06-.86-2.27-1.82-4.22-3.33-11.52-2.46-13.78-2.11A.472.472,0,0,0,1034.44,680.98Z" fill="none" stroke="#e30613" stroke-miterlimit="10" stroke-width="2.662"/>
        <path id="Path_1260" data-name="Path 1260" d="M1029.69,660.79s10.95,15.24,33.43,10.78c0,0-10.92,21.62-23.08,15.49S1029.69,660.79,1029.69,660.79Z" fill="none" stroke="#c69191" stroke-linecap="round" stroke-linejoin="round" stroke-miterlimit="10" stroke-width="2.662"/>
        <path id="Path_1261" data-name="Path 1261" d="M1031.46,670.11s14.26,9.18,25.95,7.89l3.25-4.83s-17.3,2.59-29.67-9.03Z" fill="#ededed"/>
      </g>
      <g id="Group_424" data-name="Group 424" transform="translate(-263 48.01)">
        <path id="Path_1262" data-name="Path 1262" d="M1078.45,766.45l-.36,3.85-7.3.57c.03-2.02.07-4.02.12-6.02s.1-4,.16-6.02h4.51c-.13,1.27-.26,2.53-.38,3.79s-.21,2.54-.26,3.82c.27.01.54.02.81.02h.81c.32,0,.64,0,.95-.01C1077.8,766.46,1078.12,766.45,1078.45,766.45Z" fill="#fff"/>
      </g>
    </g>
    <g id="Group_562" data-name="Group 562" transform="translate(-15 -1)">
      <g id="Group_559" data-name="Group 559">
        <g id="Group_3_1_" transform="translate(1387.131 305.926)">
          <rect id="Rectangle_6_1_" width="143.747" height="252.615" transform="translate(318.964 139.707)" fill="#fff"/>
          <rect id="Rectangle_7_1_" width="143.747" height="239.857" transform="translate(0 152.465)" fill="#fff"/>
          <rect id="Rectangle_25_1_" width="29.772" height="252.615" transform="translate(323.22 139.707)" fill="#efefef"/>
          <path id="Path_14_1_" d="M95.06,162.078,124.8,161.04l8.4,239.616-29.741,1.038Z" transform="translate(14.742 -9.026)" fill="#efefef"/>
          <g id="Group_2_1_" transform="translate(115.24)">
            <path id="Path_2_1_" d="M5.626,408.356-5.9,124.563-9.68,31.493s99.853-34.783,224.96,0c.063,1.017-9.571,376.863-9.571,376.863Z" transform="translate(9.68 -16.033)" fill="#fff"/>
            <rect id="Rectangle_8_1_" width="29.772" height="49.334" transform="translate(18.492 56.25)" fill="#d8d8d8"/>
            <rect id="Rectangle_9_1_" width="29.772" height="49.334" transform="translate(71.223 56.25)" fill="#d8d8d8"/>
            <rect id="Rectangle_10_1_" width="29.772" height="49.334" transform="translate(123.965 56.25)" fill="#d8d8d8"/>
            <rect id="Rectangle_11_1_" width="29.772" height="49.334" transform="translate(176.695 57.958)" fill="#d8d8d8"/>
            <rect id="Rectangle_12_1_" width="29.772" height="36.576" transform="translate(27.246 124.181)" fill="#d8d8d8"/>
            <rect id="Rectangle_16_1_" width="29.772" height="36.576" transform="translate(26.806 175.423)" fill="#d8d8d8"/>
            <rect id="Rectangle_20_1_" width="29.772" height="36.576" transform="translate(29.133 230.293)" fill="#d8d8d8"/>
            <rect id="Rectangle_13_1_" width="29.772" height="36.576" transform="translate(72.88 124.181)" fill="#d8d8d8"/>
            <rect id="Rectangle_17_1_" width="29.772" height="36.576" transform="translate(72.439 175.423)" fill="#d8d8d8"/>
            <rect id="Rectangle_21_1_" width="29.772" height="36.576" transform="translate(74.777 230.293)" fill="#d8d8d8"/>
            <rect id="Rectangle_14_1_" width="29.772" height="36.576" transform="translate(118.524 124.181)" fill="#d8d8d8"/>
            <rect id="Rectangle_18_1_" width="29.772" height="36.576" transform="translate(118.083 175.423)" fill="#d8d8d8"/>
            <rect id="Rectangle_22_1_" width="29.772" height="36.576" transform="translate(120.411 230.293)" fill="#d8d8d8"/>
            <rect id="Rectangle_15_1_" width="29.772" height="36.576" transform="translate(164.157 125.88)" fill="#d8d8d8"/>
            <rect id="Rectangle_19_1_" width="29.772" height="36.576" transform="translate(163.717 177.132)" fill="#d8d8d8"/>
            <rect id="Rectangle_23_1_" width="29.772" height="36.576" transform="translate(166.055 231.991)" fill="#d8d8d8"/>
            <rect id="Rectangle_24_1_" width="75.7" height="72.303" transform="translate(72.733 320.019)" fill="#d8d8d8"/>
          </g>
          <rect id="Rectangle_27_1_" width="21.26" height="47.636" transform="translate(12.758 169.469)" fill="#d8d8d8"/>
          <rect id="Rectangle_32_1_" width="21.26" height="47.636" transform="translate(12.758 234.968)" fill="#d8d8d8"/>
          <rect id="Rectangle_35_1_" width="21.26" height="47.636" transform="translate(12.758 300.457)" fill="#d8d8d8"/>
          <rect id="Rectangle_28_1_" width="21.26" height="47.636" transform="translate(44.229 169.469)" fill="#d8d8d8"/>
          <rect id="Rectangle_31_1_" width="21.26" height="47.636" transform="translate(44.229 234.968)" fill="#d8d8d8"/>
          <rect id="Rectangle_34_1_" width="21.26" height="47.636" transform="translate(44.229 300.457)" fill="#d8d8d8"/>
          <rect id="Rectangle_29_1_" width="21.26" height="47.636" transform="translate(75.7 169.469)" fill="#d8d8d8"/>
          <rect id="Rectangle_30_1_" width="21.26" height="47.636" transform="translate(75.7 234.968)" fill="#d8d8d8"/>
          <rect id="Rectangle_33_1_" width="21.26" height="47.636" transform="translate(75.7 300.457)" fill="#d8d8d8"/>
          <rect id="Rectangle_36_1_" width="21.26" height="47.636" transform="translate(363.193 160.118)" fill="#d8d8d8"/>
          <rect id="Rectangle_37_1_" width="21.26" height="47.636" transform="translate(363.193 230.293)" fill="#d8d8d8"/>
          <rect id="Rectangle_38_1_" width="21.26" height="47.636" transform="translate(363.193 300.457)" fill="#d8d8d8"/>
          <rect id="Rectangle_39_1_" width="21.26" height="47.636" transform="translate(394.663 160.118)" fill="#d8d8d8"/>
          <rect id="Rectangle_40_1_" width="21.26" height="47.636" transform="translate(394.663 230.293)" fill="#d8d8d8"/>
          <rect id="Rectangle_41_1_" width="21.26" height="47.636" transform="translate(394.663 300.457)" fill="#d8d8d8"/>
          <rect id="Rectangle_42_1_" width="21.26" height="47.636" transform="translate(426.134 160.118)" fill="#d8d8d8"/>
          <rect id="Rectangle_43_1_" width="21.26" height="47.636" transform="translate(426.134 230.293)" fill="#d8d8d8"/>
          <rect id="Rectangle_44_1_" width="21.26" height="47.636" transform="translate(426.134 300.457)" fill="#d8d8d8"/>
        </g>
      </g>
      <path id="Path_1377" data-name="Path 1377" d="M337.443,155.74V16.03l-12.79,15.463L321.54,155.74Z" transform="translate(1402.671 290.892)" fill="#9c9b9b"/>
      <g id="Group_491_1_" transform="translate(1600.148 324.461)">
        <path id="Path_1040_1_" d="M2049.633,332.7s-7.684,6.29-8.838,8.565-6.091,8.25-2.506,12.37,9.813,5.5,16.144,5.934c0,0-8.67.839-10.913,0s-7.967-1.971-10.022-6.227.052-9.152,1.918-11.29C2037.608,339.5,2040.292,335.268,2049.633,332.7Z" transform="translate(-2032.654 -332.7)" fill="#009481"/>
        <path id="Path_1041_1_" d="M2048.832,366.346s7.632-6.363,8.764-8.638,6.017-8.3,2.4-12.391-9.865-5.42-16.2-5.787c0,0,8.659-.923,10.913-.094s7.989,1.9,10.085,6.143.031,9.152-1.814,11.311C2060.8,359.427,2058.141,363.694,2048.832,366.346Z" transform="translate(-2032.115 -332.391)" fill="#009481"/>
        <circle id="Ellipse_65_1_" cx="3.418" cy="3.418" r="3.418" transform="translate(13.425 13.985)" fill="#009481"/>
      </g>
      <g id="Group_558" data-name="Group 558">
        <text id="AZ_SINT_LUCAS" data-name="AZ SINT LUCAS" transform="translate(1545.21 623.071)" fill="#009481" font-size="20" font-family="Laca-Black, Laca" font-weight="800"><tspan x="0" y="0">AZ SINT LUCAS</tspan></text>
        <path id="Path_1375" data-name="Path 1375" d="M0,162.313,106.552,144.02h13.513v18.293Z" transform="translate(1387.132 297.078)" fill="#c6c6c5"/>
        <path id="Path_1376" data-name="Path 1376" d="M109.93,32.267,158.876,7.736a45.4,45.4,0,0,1,16.459-4.655C206.3.4,310.181-6.542,347.68,16.815L334.89,32.278H109.93Z" transform="translate(1392.445 290.118)" fill="#c6c6c5"/>
        <path id="Path_1378" data-name="Path 1378" d="M336.71,150.1l31.471-17.371H479.807L446.438,150.1Z" transform="translate(1403.404 296.532)" fill="#d9d9d9"/>
        <path id="Path_1379" data-name="Path 1379" d="M441.38,402.716l33.368-36.146V132.73L441.38,150.1Z" transform="translate(1408.463 296.532)" fill="#9c9b9b"/>
        <g id="Group_492" data-name="Group 492" transform="translate(1603.636 580.636)">
          <path id="Path_1374" data-name="Path 1374" d="M23.034,10.235H16.8V4H10.235v6.235H4V16.8h6.235v6.236H16.8V16.8h6.236Z" fill="#e84436" stroke="#e84436" stroke-miterlimit="10" stroke-width="4"/>
        </g>
      </g>
    </g>
  </g>
</svg>
