<svg xmlns="http://www.w3.org/2000/svg" xmlns:xlink="http://www.w3.org/1999/xlink" width="100%" height="100%" viewBox="0 0 1920 1080"><defs><linearGradient id="a" x1="-1" y1="-220.082" x2="1" y2="-220.082" gradientUnits="objectBoundingBox"><stop offset="0" stop-color="#85613d"/><stop offset="1" stop-color="#5f3e1b"/></linearGradient><linearGradient id="b" x1="0" y1="-18.386" x2="1" y2="-18.386" xlink:href="#a"/><linearGradient id="c" x1="-21.824" y1="-3435.364" x2="0.994" y2="-3435.364" xlink:href="#a"/><radialGradient id="d" cx="-0.008" cy="1.001" r="1.535" gradientTransform="translate(-0.004 0) scale(0.565 1)" xlink:href="#a"/><radialGradient id="e" cx="0.5" cy="-0.241" r="1.54" gradientTransform="translate(0.347 0) scale(0.306 1)" xlink:href="#a"/><radialGradient id="f" cx="0.496" cy="1.208" r="1.498" gradientTransform="translate(0.251 0) scale(0.494 1)" xlink:href="#a"/><radialGradient id="g" cx="-0.008" cy="0.002" r="3.024" gradientTransform="translate(-0.006 0) scale(0.287 1)" xlink:href="#a"/><radialGradient id="h" cx="0.485" cy="0.004" r="6.363" gradientTransform="translate(0.365 0) scale(0.247 1)" xlink:href="#a"/><radialGradient id="i" cx="0.474" cy="1.004" r="7.231" gradientTransform="translate(0.293 0) scale(0.382 1)" xlink:href="#a"/><linearGradient id="j" x1="0" y1="-222.661" x2="3.294" y2="-222.661" xlink:href="#a"/><radialGradient id="k" cx="0.992" cy="0.002" r="3.001" gradientTransform="translate(0.71 0) scale(0.284 1)" xlink:href="#a"/><radialGradient id="l" cx="0.992" cy="1.001" r="1.521" gradientTransform="translate(0.435 0) scale(0.561 1)" xlink:href="#a"/><linearGradient id="m" x1="0.004" y1="-3410.582" x2="22.271" y2="-3410.582" xlink:href="#a"/><clipPath id="o"><rect width="1920" height="1080"/></clipPath></defs><g id="n" clip-path="url(#o)"><rect width="1920" height="1080" fill="#fff"/><rect width="2060.938" height="694.304" transform="translate(-90.715 -190.04)" fill="#c1f4ea"/><path d="M0,150.732l243.541-75.6,296.88,73.857L643.53,117.324l99.539,75.622L1185.736,62.82,1822.15,207,1953.7,170.085l-3.57,314.756L5.332,447.925Z" transform="translate(-0.223 108.619)" fill="#39e5cc"/><path d="M269.261,609.66H2299.725v677.1L240.89,1318.411Z" transform="translate(-329.875 -196.871)" fill="#76d1d3"/><g transform="translate(770 610.638)"><ellipse cx="169.152" cy="42.859" rx="169.152" ry="42.859" transform="translate(10.355 93.11)" fill="#a1b43e"/><g transform="translate(49.275 0)"><path d="M75.911,110.083A243.753,243.753,0,0,0,65.4,53.051q-2.417-7.68-5.349-15.189-7.835,3.309-15.669,6.606A434.262,434.262,0,0,1,73.854,95.739q3.652,7.526,7.018,15.178a7.777,7.777,0,0,0,4.1,3.509,8.227,8.227,0,0,0,5.577.434,10.184,10.184,0,0,0,3.783-2.206c1.394-1.28,2.754-4.126,2.514-6.057a280.219,280.219,0,0,1-2.114-43.339H77.591a121.2,121.2,0,0,0,11.921,42.494c1.6,3.246,6.286,5.04,9.681,3.943a8.8,8.8,0,0,0,6.3-8.263q-.48-36.122-.96-72.255-.137-10.235-.274-20.481H87.112a495.882,495.882,0,0,0,8.4,77.41Q97.518,96.768,100,107.328a8.657,8.657,0,0,0,10.549,5.989,8.76,8.76,0,0,0,5.989-10.549q-5.349-22.75-8.48-45.934c.1.754.206,1.52.309,2.274a486.488,486.488,0,0,1-4.1-50.426C104.141,4.2,100.415-.106,95.7.111c-4.595.206-8.64,3.772-8.572,8.572q.48,36.122.96,72.255.137,10.235.274,20.481,7.989-2.16,15.978-4.332c-.914-1.863-1.772-3.737-2.594-5.646.286.686.571,1.36.869,2.046A109.966,109.966,0,0,1,94.975,65.6c.1.754.206,1.52.309,2.274-.206-1.543-.377-3.086-.526-4.629a9.19,9.19,0,0,0-2.514-6.057,8.567,8.567,0,0,0-14.629,6.057,278.8,278.8,0,0,0,2.114,43.339q7.989-2.16,15.978-4.332a432.377,432.377,0,0,0-27.453-52.38q-4.389-7.115-9.04-14.069A8.662,8.662,0,0,0,48.5,32.3c-3.589,1.52-6.526,6.126-4.96,10.115A234.943,234.943,0,0,1,57.51,96.322c-.1-.754-.206-1.52-.309-2.274q1.063,7.989,1.589,16.024c.3,4.469,3.737,8.789,8.572,8.572,4.366-.183,8.858-3.76,8.549-8.56Z" transform="translate(-43.113 -0.103)" fill="#a1b43e"/></g><g transform="translate(220.929 3.562)"><path d="M210.581,96.711q-.343-16.8-.057-33.6-8.418,1.131-16.835,2.274a133.217,133.217,0,0,0,13.978,40.848c3.394,6.377,14.058,5.086,15.669-2.046,5.395-23.921,12.858-47.305,20.767-70.5q3.36-9.858,6.8-19.681-8.418-1.131-16.835-2.274Q231.822,50.6,230.387,89.5q-.411,11.075-.743,22.15a8.658,8.658,0,0,0,6.3,8.263c3.966.9,7.372-.709,9.681-3.943q5.675-7.92,11.338-15.852c2.514-3.509.869-9.921-3.074-11.726a48.252,48.252,0,0,0-18.367-4.549q4.132,3.154,8.263,6.3A28.956,28.956,0,0,0,231.6,73.99c-4.389-2.846-11.578-.206-12.595,5.12a47.668,47.668,0,0,0-.171,17.269c.526,3.12,1.554,6.332,3.932,8.56,2.937,2.743,6.457,3.223,10.3,3.5,4.72.343,9.463.891,14.2,1.029a11.763,11.763,0,0,0,10.641-5.715c1.3-2.286,1.612-4.755,2.16-7.269a84.192,84.192,0,0,1,4.537-14.332c-.286.686-.571,1.36-.869,2.046A87.571,87.571,0,0,1,268,75.5q-7.989-2.16-15.978-4.332c-.046.491-.091.971-.16,1.452.1-.754.206-1.52.309-2.274-.731,5.029-2.812,9.658-4.7,14.332a43.952,43.952,0,0,0-3.612,14.332c-.549,10.332,4.515,20.973,14.847,24.23a8.657,8.657,0,0,0,10.549-5.989,8.764,8.764,0,0,0-5.989-10.549c-.331-.1-.663-.217-.983-.343.686.286,1.36.571,2.046.869a17.749,17.749,0,0,1-1.783-.949c-1.189-.709,1.634,1.44.686.537-.274-.263-.56-.526-.823-.811s-1.1-1.337-.069-.023.206.229,0-.1a15.359,15.359,0,0,1-1.017-1.977c.286.686.571,1.36.869,2.046a20.683,20.683,0,0,1-1.3-4.812c.1.754.206,1.52.309,2.274a24.7,24.7,0,0,1-.011-6.229c-.1.754-.206,1.52-.309,2.274.617-4.446,2.48-8.618,4.16-12.732a52.491,52.491,0,0,0,4.137-15.555,7.923,7.923,0,0,0-1.84-5.189A8.216,8.216,0,0,0,262.88,62.9a8.794,8.794,0,0,0-9.681,3.943,96.316,96.316,0,0,0-6.972,15.509q-1.269,3.617-2.183,7.338c-.571,2.286-.789,4.72-1.566,6.938.286-.686.571-1.36.869-2.046a3.947,3.947,0,0,1-.343.7,6.249,6.249,0,0,1,1.9-2.046c.686-.286,1.36-.571,2.046-.869a3.09,3.09,0,0,1-.846.229l2.274-.309c-2.789.263-5.772-.286-8.56-.491-2.9-.217-5.817-.354-8.72-.651l2.274.309a6.891,6.891,0,0,1-1.589-.4c.686.286,1.36.571,2.046.869-1.234-.709-.629-.046,1.84,1.989a4.489,4.489,0,0,1-.389-.777c.286.686.571,1.36.869,2.046a24.159,24.159,0,0,1-.949-4.4c.1.754.206,1.52.309,2.274A37.136,37.136,0,0,1,235.5,83.5c-.1.754-.206,1.52-.309,2.274.1-.709.217-1.406.354-2.1q-6.292,2.554-12.595,5.12c.354.229.709.549,1.086.743-1.143-.9-1.383-1.074-.7-.526.114.091.217.194.331.286a25.824,25.824,0,0,1,1.989,2.046c.594.651-1.314-1.84-.274-.343.251.366.491.731.72,1.109a21.32,21.32,0,0,1,1.292,2.549c-.286-.686-.571-1.36-.869-2.046.274.686.514,1.371.72,2.08a8.849,8.849,0,0,0,8.263,6.3c1.211.057,2.412.16,3.623.309l-2.274-.309a38.386,38.386,0,0,1,8.995,2.434c-.686-.286-1.36-.571-2.046-.869.48.206.949.411,1.429.629q-1.543-5.863-3.074-11.726-5.675,7.92-11.338,15.852,7.989,2.16,15.978,4.332,1.183-38.916,3.212-77.787.583-11.075,1.223-22.127c.251-4.252-3.452-7.886-7.429-8.423-4.366-.583-7.989,2.057-9.406,6.137-8.046,23.156-16.092,46.334-22.538,69.992-1.817,6.686-3.509,13.418-5.029,20.184q7.835-1.029,15.669-2.046-2.692-5.057-4.926-10.343c.286.686.571,1.36.869,2.046a127.259,127.259,0,0,1-8.183-28.459,8.484,8.484,0,0,0-3.943-5.12,8.823,8.823,0,0,0-5.463-1.017,8.577,8.577,0,0,0-7.429,8.423q-.274,16.8.057,33.6c.091,4.48,3.875,8.778,8.572,8.572,4.515-.194,8.618-3.749,8.526-8.56Z" transform="translate(-193.302 -3.22)" fill="#a1b43e"/></g><g transform="translate(0 86.885)"><path d="M30.665,120.339q-3.429-11.332-6.846-22.664c-1.109-3.692-2.206-7.383-3.337-11.063C18.8,81.148,14.835,75.9,8.492,76.131A8.555,8.555,0,0,0,1.76,79.514,8.769,8.769,0,0,0,.229,86.989q2.64,14.229,6.069,28.287c1.12,4.583,2.263,9.418,4.892,13.406a28.089,28.089,0,0,0,10.355,9.349A67.04,67.04,0,0,0,35,143.037c4.32,1.2,9.521-1.486,10.549-5.989A8.728,8.728,0,0,0,39.556,126.5a74.9,74.9,0,0,1-8.926-2.96c.686.286,1.36.571,2.046.869-1.1-.48-2.172-.994-3.212-1.577-.537-.309-1.074-.64-1.589-.983-.149-.1-.5-.457-.674-.48.286.023,1.749,1.417.606.446-.411-.354-.811-.731-1.2-1.12-.24-.24-.469-.5-.7-.754-.789-.846.56.606.56.766-.023-.366-.789-1.166-.983-1.509a21.025,21.025,0,0,1-1.063-2.16c.286.686.571,1.36.869,2.046a55.523,55.523,0,0,1-2.389-8.115c-.777-3.177-1.532-6.377-2.252-9.566q-2.126-9.463-3.9-18.984-4.132,5.417-8.263,10.846a1.982,1.982,0,0,1,.686.034L6.9,92.989c.1.034.206.057.32.091-.686-.286-1.36-.571-2.046-.869.743.366.446.1-.891-.811.583.606.366.3-.64-.9.171.457.514.9.709,1.36-.286-.686-.571-1.36-.869-2.046,1.051,2.7,1.737,5.577,2.583,8.355.891,2.972,1.794,5.932,2.686,8.9q2.692,8.9,5.383,17.807c1.291,4.286,6.069,7.44,10.549,5.989,4.32-1.383,7.372-5.92,5.977-10.526Z" transform="translate(0.001 -76.124)" fill="#a1b43e"/></g><g transform="translate(78.992 90.904)"><path d="M77.693,96.784c4.48,0,8.778-3.943,8.572-8.572a8.726,8.726,0,0,0-8.572-8.572c-4.48,0-8.778,3.943-8.572,8.572a8.734,8.734,0,0,0,8.572,8.572Z" transform="translate(-69.114 -79.64)" fill="#a1b43e"/></g><g transform="translate(211.982 87.658)"><path d="M194.053,93.944c4.48,0,8.778-3.943,8.572-8.572a8.726,8.726,0,0,0-8.572-8.572c-4.48,0-8.778,3.943-8.572,8.572a8.71,8.71,0,0,0,8.572,8.572Z" transform="translate(-185.474 -76.8)" fill="#a1b43e"/></g><g transform="translate(204.673 81.058)"><path d="M199.435,79.294c-1.634-1.943-3.28-3.886-4.915-5.829-1.714-2.034-4.7-2.7-7.2-2.354a8.234,8.234,0,0,0-6.263,4.092,17.1,17.1,0,0,0-1.943,7.075,22.781,22.781,0,0,0,.48,5.36c.377,2.32,1.109,4.572,1.429,6.892-.1-.754-.206-1.52-.309-2.274a11.2,11.2,0,0,1,.023,2.834c.1-.754.206-1.52.309-2.274a7.2,7.2,0,0,1-.457,1.612c.286-.686.571-1.36.869-2.046a6.819,6.819,0,0,1-.651,1.12c.446-.583.891-1.154,1.337-1.737-.046.057-.091.114-.137.183a6.4,6.4,0,0,0-1.772,2.754,6.557,6.557,0,0,0-.743,3.3,8.585,8.585,0,0,0,8.572,8.572c2.114-.091,4.7-.766,6.057-2.514a15.141,15.141,0,0,0,3.417-6.469,20.973,20.973,0,0,0,.011-7.6c-.354-2.526-1.166-4.96-1.509-7.475.1.754.206,1.52.309,2.274a12.03,12.03,0,0,1-.046-2.937c-.1.754-.206,1.52-.309,2.274a8.13,8.13,0,0,1,.446-1.7c-.286.686-.571,1.36-.869,2.046.091-.206.183-.411.286-.606q-6.737.874-13.464,1.737c1.634,1.943,3.28,3.886,4.915,5.829a8.6,8.6,0,0,0,6.057,2.514,8.585,8.585,0,0,0,8.572-8.572c-.1-.754-.206-1.52-.309-2.274a8.353,8.353,0,0,0-2.194-3.806Z" transform="translate(-179.079 -71.025)" fill="#a1b43e"/></g><g transform="translate(135.483 73.39)"><path d="M135.7,90.436q.5-8.812.194-17.624-8.418,1.132-16.835,2.274c1.657,4.3,3.269,8.606,4.96,12.892a22.646,22.646,0,0,0,4.457,7.749,15.831,15.831,0,0,0,7.658,4.252c4.743,1.086,9.783.709,14.618.72q7.063.017,14.138.023a66.256,66.256,0,0,0,7.532-.251,35.7,35.7,0,0,0,5.269-.88c1.177-.32,2.274-.846,3.463-1.109l-2.274.309a6.217,6.217,0,0,1,1.383-.011l-2.274-.309a29.987,29.987,0,0,1,5.84,1.874c-.686-.286-1.36-.571-2.046-.869a42.391,42.391,0,0,1,6.926,3.692c.526.354,1.051.709,1.566,1.086.24.171,1.177.891.08.046s-.16-.114.069.069c1.04.857,2.034,1.772,2.994,2.72,3.189,3.166,8.983,3.417,12.126,0a8.734,8.734,0,0,0,0-12.126A48.243,48.243,0,0,0,191.092,84.95c-3.5-1.52-6.995-2.983-10.823-3.326-3.429-.309-6.549,1.5-9.875,1.977l2.274-.309c-5.532.674-11.269.286-16.835.274-2.823,0-5.657-.011-8.48-.011a60.538,60.538,0,0,1-7.886-.217l2.274.309a13.149,13.149,0,0,1-2.48-.629c.686.286,1.36.571,2.046.869-.309-.126-1.337-.457-1.474-.777.354.274.709.537,1.074.811a6.315,6.315,0,0,1-.606-.629c.834,1.12,1.063,1.417.709.857-.114-.183-.229-.366-.331-.56A16.791,16.791,0,0,1,139.924,82c.286.686.571,1.36.869,2.046-1.817-4.469-3.474-9.006-5.212-13.509-1.554-4.023-4.9-6.743-9.406-6.137a8.518,8.518,0,0,0-7.429,8.423c.206,5.875.137,11.761-.194,17.624-.251,4.48,4.126,8.766,8.572,8.572a8.775,8.775,0,0,0,8.572-8.583Z" transform="translate(-118.541 -64.316)" fill="#a1b43e"/></g><g transform="translate(42.581 97.443)"><path d="M64.439,100.972a11.221,11.221,0,0,0,.549-3.634,18.28,18.28,0,0,0-.343-2.834,4.935,4.935,0,0,0-.194-.811A13.007,13.007,0,0,0,62.988,90.5a14.562,14.562,0,0,0-4.012-3.966,6.408,6.408,0,0,0-3.189-1.017,6.558,6.558,0,0,0-3.417.149,9.313,9.313,0,0,0-5.12,3.943,11.378,11.378,0,0,0-1.692,4.252,21.933,21.933,0,0,0-.389,4.572,32.694,32.694,0,0,1,.194,5.177c.1-.754.206-1.52.309-2.274a5.99,5.99,0,0,1-.354,1.417c.286-.686.571-1.36.869-2.046a4.647,4.647,0,0,1-.56.983c.446-.583.891-1.154,1.337-1.737a4.852,4.852,0,0,1-.766.766c.583-.446,1.154-.891,1.737-1.337a4.6,4.6,0,0,1-.983.549c.686-.286,1.36-.571,2.046-.869a6.654,6.654,0,0,1-1.474.377l2.274-.309a13.6,13.6,0,0,1-3.406-.1l2.274.309c-.194-.023-.389-.057-.583-.08a6.441,6.441,0,0,0-3.417-.149,6.408,6.408,0,0,0-3.189,1.017A8.559,8.559,0,0,0,38.4,111.853c.446.583.891,1.154,1.337,1.737a8.633,8.633,0,0,0,3.783,2.206c3.212.469,6.092.846,9.3.034a12.5,12.5,0,0,0,8.149-6.469,15.632,15.632,0,0,0,1.554-6.08,13.863,13.863,0,0,0-.034-2.286,24.6,24.6,0,0,1-.149-4.675c-.1.754-.206,1.52-.309,2.274a6.655,6.655,0,0,1,.377-1.474c-.286.686-.571,1.36-.869,2.046a5.708,5.708,0,0,1,.48-.9q-5.863,1.543-11.726,3.074c.046.034.1.069.149.1-.583-.446-1.154-.891-1.737-1.337a4.17,4.17,0,0,1,.777.777c-.446-.583-.891-1.154-1.337-1.737a5.058,5.058,0,0,1,.469.8c-.286-.686-.571-1.36-.869-2.046a4.808,4.808,0,0,1,.343,1.246c-.1-.754-.206-1.52-.309-2.274a4.179,4.179,0,0,1,0,.926c.1-.754.206-1.52.309-2.274a4.947,4.947,0,0,1-.217.9,6.441,6.441,0,0,0-.149,3.417,6.408,6.408,0,0,0,1.017,3.189A8.559,8.559,0,0,0,60.473,106.1c.583-.446,1.154-.891,1.737-1.337a8.5,8.5,0,0,0,2.229-3.794Z" transform="translate(-37.256 -85.361)" fill="#a1b43e"/></g></g><path d="M272.432,84.415l14.674,22.379-23.445,13.92L164.22,104.358V94.85l64.061-16.52Z" transform="translate(831.748 389.086)" fill="#ffc626"/><path d="M286.317,36.757,265.975,61.935,228.281,71.66,164.22,62.828V57.437l27.155,4.481,35.562-25.092,29.426-8.546Z" transform="translate(831.748 395.756)" fill="#ee7344"/><path d="M228.281,76.972,164.22,93.492V68.14Z" transform="translate(831.748 390.444)" fill="#ffc626"/><path d="M226.937,38.14,191.375,63.232,164.22,58.751V56.359Z" transform="translate(831.748 394.442)" fill="#ee7344"/><path d="M226.427,33.091,163.71,51.31c0-1.855-1.309-3.493-3.32-4.49l61-46.57,27.467.485-9.4,23.159Z" transform="translate(832.258 399.491)" fill="#fdc528"/><path d="M162.989,93.415v9.508l-8.009-1.317,4.386-34.046,3.623.5Z" transform="translate(832.979 390.521)" fill="url(#a)"/><path d="M153.747,65.066c3.25,0,6.05-1.343,7.307-3.276l.7.113v5.391l-3.623-.5-4.386,34.046,8.009,1.317V352.3c-.017,3.068-3.588,5.547-8.009,5.547a10.077,10.077,0,0,1-5.66-1.621,4.895,4.895,0,0,1-2.358-3.926V103.619l4.862-.685L146.969,68.8l-1.239.139V61.92l.719-.113C147.706,63.731,150.506,65.066,153.747,65.066Z" transform="translate(834.212 391.29)" fill="url(#b)"/><path d="M164.112,59.16v2.392l-.7-.113A4.153,4.153,0,0,0,164.112,59.16Z" transform="translate(831.856 391.641)" fill="url(#c)"/><path d="M159.678,53.98c2.011,1,3.32,2.635,3.32,4.49h-6.7l-1.248-.953Z" transform="translate(832.97 392.331)" fill="url(#d)"/><path d="M153.919,60.41l7.246,1.2c-1.257,1.933-4.056,3.276-7.307,3.276s-6.041-1.335-7.3-3.259Z" transform="translate(834.101 391.474)" fill="url(#e)"/><path d="M158.959,53.816l-4.628,3.536-4.68-3.58a10.444,10.444,0,0,1,4.62-1.023A10.329,10.329,0,0,1,158.959,53.816Z" transform="translate(833.689 392.495)" fill="url(#f)"/><path d="M157.243,59.879l-.945-.719H163a4.153,4.153,0,0,1-.7,2.28l-7.246-1.2Z" transform="translate(832.97 391.641)" fill="url(#g)"/><path d="M156.906,59.879l-2.193.364-2.193-.364.945-.719h2.5Z" transform="translate(833.307 391.641)" fill="url(#h)"/><path d="M154.858,58.06l1.248.953h-2.5Z" transform="translate(833.162 391.787)" fill="url(#i)"/><path d="M146.969,69.88l3.623,34.132-4.862.685V70.019Z" transform="translate(834.212 390.212)" fill="url(#j)"/><path d="M145.73,59.16h6.83l-.945.719,2.193.364-7.359,1.213A4.157,4.157,0,0,1,145.73,59.16Z" transform="translate(834.212 391.641)" fill="url(#k)"/><path d="M152.56,58.463h-6.83c0-1.872,1.343-3.536,3.4-4.533l4.68,3.58Z" transform="translate(834.212 392.338)" fill="url(#l)"/><path d="M136.056,46.777c-2.054,1-3.4,2.661-3.4,4.533L70.132,33.151,57.018,23.895,47.64.735,75.107.25Z" transform="translate(847.283 399.491)" fill="#ffc626"/><path d="M145.73,61.57V59.16a4.157,4.157,0,0,0,.719,2.3Z" transform="translate(834.212 391.641)" fill="url(#m)"/><path d="M126.343,94.769v10.973L23.383,120.286.25,105.837,15.435,83.8,68.41,77.72Z" transform="translate(853.599 389.167)" fill="#fdc528"/><path d="M136.823,70.04V93.745L78.89,76.7Z" transform="translate(843.119 390.191)" fill="#fdc528"/><path d="M126.957,57.454v7.021L69.025,71.132,25.2,58.235,4.86,36.757,34.814,28.28l29.616,8.607L99.915,61.918Z" transform="translate(852.984 395.756)" fill="#ee7344"/><path d="M136.117,56.368v2.41l-27.042,4.464L73.59,38.21Z" transform="translate(843.825 394.433)" fill="#ee7344"/><ellipse cx="112" cy="29.5" rx="112" ry="29.5" transform="translate(1099 531)" fill="#bdd059"/><ellipse cx="129.5" cy="45.5" rx="129.5" ry="45.5" transform="translate(1269 640)" fill="#bdd059"/><ellipse cx="148" cy="52" rx="148" ry="52" transform="translate(411 822)" fill="#bdd059"/><ellipse cx="148" cy="52" rx="148" ry="52" transform="translate(1125 822)" fill="#bdd059"/><ellipse cx="169.5" cy="68" rx="169.5" ry="68" transform="translate(753 911)" fill="#bdd059"/><ellipse cx="148" cy="37.5" rx="148" ry="37.5" transform="translate(344 648)" fill="#bdd059"/><ellipse cx="123" cy="31" rx="123" ry="31" transform="translate(604 534)" fill="#bdd059"/><g transform="translate(877.572 519.583)"><path d="M23.21,331.13" transform="translate(-8.604 -122.677)" fill="none" stroke="#000" stroke-linecap="round" stroke-linejoin="round" stroke-miterlimit="10" stroke-width="1.5"/><path d="M122.4,329.37" transform="translate(-45.353 -122.025)" fill="none" stroke="#000" stroke-linecap="round" stroke-linejoin="round" stroke-miterlimit="10" stroke-width="1.865"/><path d="M87.78,177.11" transform="translate(-32.527 -65.615)" fill="none" stroke="#000" stroke-linecap="round" stroke-linejoin="round" stroke-width="0.5"/><path d="M143.828,255.66s-1.605,6.106-7.044,7.693l-.674-3.425Z" transform="translate(-50.433 -94.717)" fill="#ee7358" stroke="#e84436" stroke-linecap="round" stroke-linejoin="round" stroke-miterlimit="10" stroke-width="2"/><path d="M138.4,257.523a38.992,38.992,0,0,1-5.886,16.449l-4.816-.334,5.017-17.079Z" transform="translate(-47.317 -95.05)" fill="#f3c8bb" stroke="#c69191" stroke-linecap="round" stroke-linejoin="round" stroke-miterlimit="10" stroke-width="2.615"/><g transform="translate(1.31 18.113)"><path d="M169.251,94.96a7.077,7.077,0,0,1,2.348,6.1c-1.2,8.624-10.2,9.38-10.425,9.424a.561.561,0,0,1-.176.019.214.214,0,0,1-.088-.013c.038-.189.069-.371.1-.56.069-.164.138-.321.2-.478,1.725-.1,5.773-.472,8.662-6.887a4.732,4.732,0,0,0-.233-4.161.263.263,0,0,0-.025-.063,5.959,5.959,0,0,0-.46-.919l-.006-.006c-.032-.057-.063-.12-.094-.176A4.543,4.543,0,0,0,165.638,95a.8.8,0,0,1-.176-.019c.063-.353.12-.7.17-1.045A4.975,4.975,0,0,1,169.251,94.96Z" transform="translate(-60.931 -52.908)" fill="#c69191"/><path d="M170.027,99.38a4.907,4.907,0,0,1,.315,2.424c-.793,5.691-6.641,7.246-8.391,7.787.762-1.87,1.429-3.752,2-5.628.044-.12.076-.239.113-.359.39-1.253.724-2.487.982-3.7q.387-1.634.68-3.242c0-.013.006-.031.006-.044a3.644,3.644,0,0,1,2.826.579,5.135,5.135,0,0,1,.982,1.2l.006.006c.138.283.3.592.46.919A.261.261,0,0,1,170.027,99.38Z" transform="translate(-61.316 -53.885)" fill="#f3c8bb"/><path d="M170.134,103.464a4.907,4.907,0,0,0-.315-2.424,4.732,4.732,0,0,1,.233,4.161c-2.889,6.415-6.937,6.786-8.662,6.887.126-.283.239-.56.353-.837C163.493,110.709,169.341,109.154,170.134,103.464Z" transform="translate(-61.109 -55.545)" fill="#f3c8bb"/><path d="M171.664,97.864c.031.057.063.12.094.176a5.135,5.135,0,0,0-.982-1.2,3.644,3.644,0,0,0-2.827-.579c.044-.22.082-.434.12-.655a.8.8,0,0,0,.176.019A4.543,4.543,0,0,1,171.664,97.864Z" transform="translate(-63.539 -53.533)" fill="#f3c8bb"/><path d="M169.092,70.53c-.082.422-.157.818-.233,1.165a1.713,1.713,0,0,1-.258.636.358.358,0,0,1-.082.006,3.889,3.889,0,0,0-.044-.39.825.825,0,0,0-.755-.724.827.827,0,0,1,.541-.51A4.859,4.859,0,0,1,169.092,70.53Z" transform="translate(-63.454 -44.242)" fill="#936037"/><path d="M167.737,73.311a48.534,48.534,0,0,1-.371,12.836l-.05.019c-.208.013-.4.038-.579.063-.013.063-.025.12-.038.176a.792.792,0,0,0-.353.548l-.755-.132a47.986,47.986,0,0,0,.447-13.774.615.615,0,0,1-.006-.107,1.055,1.055,0,0,0,1.026.711A.98.98,0,0,0,167.737,73.311Z" transform="translate(-62.665 -45.134)" fill="#c69191"/><path d="M169.072,73.39a1.107,1.107,0,0,1-.076.088.058.058,0,1,1,.076-.088Z" transform="translate(-63.924 -45.301)" fill="#936037"/><path d="M167.99,72.741a.36.36,0,0,1,.006.082.98.98,0,0,1-.68.34,1.055,1.055,0,0,1-1.026-.711v-.013a.837.837,0,0,1,.73-.812.766.766,0,0,1,.17,0,.847.847,0,0,0-.013.516A.835.835,0,0,0,167.99,72.741Z" transform="translate(-62.924 -44.646)" fill="#936037"/><path d="M168.492,72.744a.835.835,0,0,1-.812-.6.847.847,0,0,1,.013-.516.825.825,0,0,1,.755.724A3.89,3.89,0,0,1,168.492,72.744Z" transform="translate(-63.426 -44.649)" fill="#936037"/><path d="M168.38,93.92v.019h-.05Z" transform="translate(-63.68 -52.907)" fill="#c69191"/><path d="M167.83,93.95h.05c-.05.346-.107.692-.17,1.045H167.7a1.417,1.417,0,0,1-.132.076c-.025.2-.044.39-.076.592a.08.08,0,0,1-.038.006h-.006a.848.848,0,0,1-.466-.34c.013-.044.025-.094.038-.145.063-.3.132-.636.2-.995a.954.954,0,0,1,.3-.126A1.753,1.753,0,0,0,167.83,93.95Z" transform="translate(-63.18 -52.918)" fill="#c69191"/><path d="M168.01,95.61c-.038.22-.076.434-.12.655-.038.006-.069.006-.1.013.031-.2.05-.4.076-.592A1.417,1.417,0,0,0,168,95.61Z" transform="translate(-63.48 -53.533)" fill="#f3c8bb"/><path d="M167.891,96.65c0,.013-.006.031-.006.044a.5.5,0,0,1-.094-.019v-.013C167.822,96.656,167.853,96.656,167.891,96.65Z" transform="translate(-63.48 -53.919)" fill="#f3c8bb"/><path d="M167.445,96.69a.5.5,0,0,0,.094.019q-.293,1.605-.68,3.242Q167.238,98.289,167.445,96.69Z" transform="translate(-63.135 -53.934)" fill="#f3c8bb"/><path d="M167.967,93.95a1.756,1.756,0,0,1-.321.113.954.954,0,0,0-.3.126c.013-.057.025-.113.038-.176C167.564,93.988,167.759,93.963,167.967,93.95Z" transform="translate(-63.317 -52.918)" fill="#c69191"/><path d="M167.768,96.67v.013a.08.08,0,0,1-.038-.006A.08.08,0,0,0,167.768,96.67Z" transform="translate(-63.458 -53.926)" fill="#c69191"/><path d="M141.277,96.054a.08.08,0,0,0,.038.006q-.208,1.6-.585,3.261-.425,1.841-.982,3.7c-.038.12-.069.239-.113.359a53.257,53.257,0,0,1-2.2,5.691,1.452,1.452,0,0,0-.157.057c-.019.145-.044.3-.069.447l-.132.283a.445.445,0,0,0,.088-.006c-.025.157-.05.315-.082.472a55.466,55.466,0,0,1-10.909,16.594c-4.986,5.118-13.346,8.322-23.871,9.2v-.1a.862.862,0,1,0-1.725,0v.227c-1.108.069-2.235.107-3.387.12v-.346a.864.864,0,0,0-.862-.862v-.46c11.193,0,22.341-2.449,28.655-8.939q1.35-1.388,2.581-2.883c.208-.245.409-.491.6-.743s.415-.529.617-.793c.176-.227.346-.453.51-.686.189-.246.371-.5.548-.749l.22-.315c.176-.252.346-.5.516-.755s.327-.491.485-.736c.271-.409.529-.825.781-1.24s.5-.831.743-1.253c.05-.082.1-.164.145-.252.239-.415.472-.837.705-1.265.006-.006.006-.019.013-.031.258-.472.5-.951.743-1.429s.472-.957.7-1.442a.188.188,0,0,0,.025-.05c.22-.466.428-.938.63-1.41.22-.485.428-.976.617-1.467.208-.491.4-.982.579-1.473.548-1.442,1.032-2.9,1.46-4.35.164-.529.308-1.051.447-1.58q.2-.737.378-1.473c.113-.466.22-.932.321-1.391.025-.094.044-.189.063-.283.069-.334.139-.667.2-.995.044-.22.088-.441.126-.661q.1-.529.189-1.058l.755.132a.64.64,0,0,0,0,.308.874.874,0,0,0,.12.283,1.578,1.578,0,0,1-.22.485.31.31,0,0,0,.132-.025,4.321,4.321,0,0,1,.56-.12Z" transform="translate(-37.005 -53.304)" fill="#c69191"/><path d="M167.131,94.33c-.063.359-.132.7-.2.995-.013.05-.025.1-.038.145a.874.874,0,0,1-.12-.283.638.638,0,0,1,0-.308A.792.792,0,0,1,167.131,94.33Z" transform="translate(-63.098 -53.059)" fill="#c69191"/><path d="M166.85,96.14a.848.848,0,0,0,.466.34,4.356,4.356,0,0,0-.554.12.31.31,0,0,1-.132.025A1.579,1.579,0,0,0,166.85,96.14Z" transform="translate(-63.05 -53.73)" fill="#c69191"/><path d="M111.42,56.683a47.988,47.988,0,0,1-.447,13.774q-.085.529-.189,1.058c-.038.22-.082.441-.126.661-.063.327-.132.661-.2.995-.019.094-.038.189-.063.283-.1.46-.208.925-.321,1.391q-.179.737-.378,1.473c-.138.529-.283,1.051-.447,1.58-.428,1.448-.913,2.9-1.46,4.35-.189.491-.378.982-.579,1.473s-.4.982-.617,1.467-.415.944-.63,1.41a.189.189,0,0,1-.025.05c-.227.485-.46.963-.7,1.442s-.491.957-.743,1.429c-.006.013-.006.025-.013.031-.233.428-.466.85-.705,1.265-.044.088-.094.17-.145.252-.239.422-.485.837-.743,1.253s-.51.831-.781,1.24c-.157.246-.321.491-.485.737s-.346.5-.516.755l-.22.315c-.183.252-.359.5-.548.749-.164.233-.334.46-.51.686-.2.264-.409.529-.617.793s-.4.5-.6.743q-1.228,1.492-2.581,2.883c-6.314,6.49-17.463,8.939-28.655,8.939-11.394-.013-22.832-2.556-29.247-5.987-8.738-4.658-14.4-14.309-17.23-20.258-.906-2.027-.541-4.558-.718-5.055l-.963-1.045c-.019-.044-.428-.743-1.039-1.97-.164-5.464,3.437-13.232,7.944-14.013,2.052-.353,6.83-.516,11.18-.636a6.8,6.8,0,0,0-.2.906.833.833,0,0,0,.692.944c.044,0,.082.006.126.006a.837.837,0,0,0,.825-.705,5.522,5.522,0,0,1,.315-1.2c9.739-.264,18.671-4.237,22.983-7.472C68.135,49.1,85.49,33.5,87.31,28.77c3.487,1.612,21.466,20.113,24.035,27.636a1.37,1.37,0,0,0,.069.17A.61.61,0,0,0,111.42,56.683ZM95.94,61.146a.818.818,0,0,0,.3-1.127c-3.1-5.477-10.425-3.979-10.733-3.909a.838.838,0,0,0-.642.988.822.822,0,0,0,.982.63c.069-.006,6.446-1.322,8.952,3.1a.841.841,0,0,0,1.139.315ZM88.607,70.57c0-1.668-.755-3.129-1.756-3.223a.53.53,0,0,0-.17-.025.649.649,0,0,0-.258.05.271.271,0,0,1-.031.006,3.03,3.03,0,0,0-1.951,2.952c0,1.819,1.385,3.4,2.134,3.368a1.094,1.094,0,0,0,.246-.031A3.081,3.081,0,0,0,88.607,70.57ZM72.667,82.77a.829.829,0,0,0,.636-.988c-.132-.623-1.549-4.589-4.312-6.371a3.257,3.257,0,0,0-2.524-.491c-4.281.932-6.037,6.188-6.125,6.478a.832.832,0,0,0,1.605.441c.472-1.719,2.121-4.7,4.879-5.3a1.6,1.6,0,0,1,1.259.264,9.747,9.747,0,0,1,3.595,5.326.827.827,0,0,0,.812.655C72.548,82.782,72.6,82.776,72.667,82.77Zm-3.041,18.306a.644.644,0,0,0,.485-.869c-2.455-5.282-8.442-6.194-12.257-6.194a21.788,21.788,0,0,0-3.387.246.686.686,0,0,0-.63.8.843.843,0,0,0,.988.51,20.713,20.713,0,0,1,5.76-.05c3.953.548,6.635,2.285,7.97,5.168A.912.912,0,0,0,69.627,101.076ZM45.705,73.78c.957-.038,2.027-1.309,2.027-3.135s-.888-3.387-2.027-3.217c-.755,0-2.14,1.171-2.14,2.984S44.95,73.818,45.705,73.78Z" transform="translate(-8.048 -28.77)" fill="#f3c8bb"/><path d="M165.09,97.331c.044-.22.088-.441.126-.661C165.178,96.89,165.134,97.111,165.09,97.331Z" transform="translate(-62.48 -53.926)" fill="#c69191"/><path d="M163.827,108.32c-.567,1.876-1.234,3.758-2,5.628-.076.025-.145.044-.2.063A53.248,53.248,0,0,0,163.827,108.32Z" transform="translate(-61.198 -58.242)" fill="#f3c8bb"/><path d="M161.471,117.323c.057-.019.126-.038.2-.063-.113.277-.227.554-.353.837a.8.8,0,0,1-.12.006c.019-.094.031-.183.044-.277C161.32,117.657,161.4,117.493,161.471,117.323Z" transform="translate(-61.038 -61.554)" fill="#f3c8bb"/><path d="M161.5,117.36c-.076.17-.151.334-.227.5.025-.151.05-.3.069-.447A1.45,1.45,0,0,1,161.5,117.36Z" transform="translate(-61.064 -61.592)" fill="#c69191"/><path d="M161.152,118.6a.8.8,0,0,0,.12-.006c-.063.157-.132.315-.2.478C161.1,118.911,161.127,118.754,161.152,118.6Z" transform="translate(-60.99 -62.047)" fill="#c69191"/><path d="M161.192,118.16c-.013.094-.025.183-.044.277a.445.445,0,0,1-.088.006Z" transform="translate(-60.987 -61.888)" fill="#f3c8bb"/><path d="M118.138,191.437c6.471,11.079,9.31,20.742,8.454,28.718a24.087,24.087,0,0,1-.844,3.708c-.126.447-.246.881-.359,1.3-1.215,4.772-7.214,1.076-8.221,3.248a.931.931,0,0,1-.346.4c-.019-.076-.031-.145-.044-.22-.17-.894-.334-1.794-.5-2.7,5.407-.038,4.476.176,6.962-.938a.861.861,0,0,0,.466-.548q.123-.463.264-.944a22.9,22.9,0,0,0,.781-3.406c.076-.667.12-1.341.132-2.027.013-.623.006-1.246-.025-1.882-.611-13.478-11.067-29.2-18.01-37.771a.963.963,0,0,0-.271-.239l-.076-.094a.829.829,0,0,0-1.423.258l-.057.151a1.1,1.1,0,0,0-.113.208,12.446,12.446,0,0,1-3.469,4.621c-4.13,3.462-9.235,3.418-13.648-.12a10.35,10.35,0,0,1-3.708-4.746,1.168,1.168,0,0,1,.227-1.083c.013-.013.019-.025.025-.031.176-.208.34-.4.491-.573.611-.718.969-1.114,1-1.146s.063-.082.1-.132l.17.1a3.441,3.441,0,0,0-.334.919c-.29,1.561.781,3.324,3.179,5.244,5.307,4.243,9.669,1.523,11.3.151,2.827-2.373,4.029-5.817,3.217-7.309-.076-.132-.151-.264-.233-.384l.025-.013a1.936,1.936,0,0,1,.447.913.928.928,0,0,0,.919.793.888.888,0,0,0,.132-.006.931.931,0,0,0,.787-1.058,3.655,3.655,0,0,0-.636-1.542A116.239,116.239,0,0,1,118.138,191.437Z" transform="translate(-32.449 -82.298)" fill="#e84436"/><path d="M149.92,133.615c.17-.252.346-.5.516-.755C150.266,133.112,150.1,133.364,149.92,133.615Z" transform="translate(-56.859 -67.334)" fill="#c69191"/><path d="M148.7,135.309c.189-.245.365-.5.548-.749C149.071,134.812,148.889,135.064,148.7,135.309Z" transform="translate(-56.407 -67.964)" fill="#c69191"/><path d="M60.987,228.725a.174.174,0,0,0,.076-.126c1.3-7.856.145-3.506-.655-.283a14.825,14.825,0,0,0-1.492-.869,1.075,1.075,0,0,0-.145-.076,17.111,17.111,0,0,0-1.763-.8l-.29-.113c-1.335-.535-2.342-.825-2.354-.881a23.91,23.91,0,0,1-.548-4.507c-.013-.68-.006-1.36.031-2.046.818-15.31,13.918-32.464,18.885-38.444.3,1.763,1.593,3.563,3.859,5.376,4.413,3.544,9.518,3.582,13.648.126a12.3,12.3,0,0,0,3.582-4.923,1.133,1.133,0,0,1,1.555-.315c6.925,8.461,17.614,24.368,18.281,38.01.031.636.038,1.259.025,1.882-.019.648-.063,1.3-.132,1.933a22.794,22.794,0,0,1-.781,3.412c-.076.258-.151.516-.22.768a1.155,1.155,0,0,1-.705.774c-3.166,1.2-2.04.3-6.685.869a.22.22,0,0,0-.094.044c-1.624-8.656-3.311-17.84-3.815-22.883a.862.862,0,0,0-1.719.138.422.422,0,0,0,0,.126c.378,3.8,1.41,9.852,2.587,16.273a4.994,4.994,0,0,0,.548,2.978c.4,2.191.818,4.394,1.221,6.534.963,5.124,1.895,10.041,2.474,13.585.283,1.719.491,3.11.573,4.048.006.113.019.227.025.34a5.788,5.788,0,0,1-.006.661,6.48,6.48,0,0,1-2.889,5.061,14.2,14.2,0,0,1-4.142,1.744c-4.1,1.083-9.342,1.058-14.693.453a107.243,107.243,0,0,1-19.458-4.237c-3.5-1.12-5.936-2.14-6.534-2.663a.772.772,0,0,1-.076-.164.093.093,0,0,1-.006-.044,2.936,2.936,0,0,1-.038-.378c-.006-.189-.013-.415,0-.674.038-1.07.2-2.657.472-4.614.076-.554.138-1.051.2-1.5q.019-.17.038-.321c.825-6.2-.006-.862,2.222-11.344a.859.859,0,0,0-.485-.957.107.107,0,0,1,.006-.044.861.861,0,0,0-.667-1.02.87.87,0,0,0-.925.4c.113-.447.258-1.026.409-1.637.126.094.252.2.371.308A.191.191,0,0,0,60.987,228.725Z" transform="translate(-21.252 -85.014)" fill="#ee7358"/><path d="M143.716,246.3c.069-.636.113-1.284.132-1.933-.013.686-.057,1.36-.132,2.027a22.9,22.9,0,0,1-.781,3.406q-.142.482-.264.944a.861.861,0,0,1-.466.548c-2.487,1.114-1.555.9-6.962.938a.224.224,0,0,1-.013-.063.218.218,0,0,1,.094-.044c4.646-.573,3.519.334,6.685-.869a1.155,1.155,0,0,0,.705-.774c.069-.252.145-.51.22-.768A22.8,22.8,0,0,0,143.716,246.3Z" transform="translate(-51.417 -108.647)" fill="#ee7358"/><path d="M135.485,75.969a.818.818,0,0,1-.3,1.127.841.841,0,0,1-1.139-.315c-2.505-4.425-8.882-3.11-8.952-3.1a.821.821,0,0,1-.982-.63.838.838,0,0,1,.642-.988C125.06,71.99,132.388,70.492,135.485,75.969Z" transform="translate(-47.29 -44.72)" fill="#f3db8c"/><path d="M135.8,287.065a8.253,8.253,0,0,1-3.645,7.749,14.555,14.555,0,0,1-3.84,1.7.947.947,0,0,0-.906-.913h-.025c-.057,0-.12.013-.183.019l-.113-.422a14.077,14.077,0,0,0,4.123-1.737,6.442,6.442,0,0,0,2.889-5.149,5.786,5.786,0,0,0,.006-.661c-.006-.145-.013-.283-.025-.428-.082-.938-.29-2.329-.573-4.048l.554-.094a.906.906,0,0,0,.529.705.825.825,0,0,0,.384.094.888.888,0,0,0,.378-.082h.006C135.57,285.151,135.727,286.253,135.8,287.065Z" transform="translate(-48.401 -122.989)" fill="#e84436"/><path d="M139.45,282.443c0,.019.006.031.006.05a.889.889,0,0,1-.378.082.825.825,0,0,1-.384-.094.907.907,0,0,1-.529-.7,1.011,1.011,0,0,1,.076-.523c.157-.334.39-.925.655-1.693.239,1.259.428,2.247.516,2.688a.068.068,0,0,1,.006.031A1.531,1.531,0,0,0,139.45,282.443Z" transform="translate(-52.502 -121.685)" fill="#e84436"/><path d="M140.179,283.968c.006.025.006.05.013.076a1.529,1.529,0,0,1-.031-.164C140.166,283.911,140.173,283.943,140.179,283.968Z" transform="translate(-53.243 -123.285)" fill="#e84436"/><path d="M139.883,282.286c-.006-.025-.013-.057-.019-.088a.068.068,0,0,0-.006-.031c-.082-.466-.264-1.454-.5-2.732a.55.55,0,0,1,.031-.094C139.58,280.41,139.744,281.4,139.883,282.286Z" transform="translate(-52.947 -121.603)" fill="#e84436"/><path d="M138.147,272.73a.549.549,0,0,0-.031.094c-.592-3.16-1.517-8.1-2.115-11.287a.284.284,0,0,0,.076-.038C136.862,265.693,137.6,269.577,138.147,272.73Z" transform="translate(-51.702 -114.994)" fill="#e84436"/><path d="M139.349,279.49c.233,1.278.415,2.266.5,2.732-.088-.441-.277-1.429-.516-2.688A.3.3,0,0,0,139.349,279.49Z" transform="translate(-52.936 -121.659)" fill="#e84436"/><path d="M138.089,272.847a.308.308,0,0,1-.019.044c-.787-4.155-2.14-11.262-2.14-11.306a.157.157,0,0,0,.044-.025C136.572,264.752,137.5,269.687,138.089,272.847Z" transform="translate(-51.676 -115.016)" fill="#e84436"/><path d="M136.414,269.171c-.264.768-.5,1.36-.655,1.693a1.011,1.011,0,0,0-.076.522l-.554.094c-.579-3.544-1.511-8.461-2.474-13.585-.39-2.09-.8-4.237-1.2-6.377.724,1.7,1.851,3.362,2.3,3.362h.038a.087.087,0,0,0-.013.069c.082.441.277,1.5.535,2.889a.157.157,0,0,1-.044.025C134.274,257.91,135.627,265.017,136.414,269.171Z" transform="translate(-50.02 -111.296)" fill="#e84436"/><path d="M135.688,275.489c.013.145.019.283.025.428-.006-.113-.019-.227-.025-.34-.082-.938-.29-2.329-.573-4.048-.579-3.544-1.511-8.461-2.474-13.585-.4-2.14-.818-4.344-1.221-6.534.006.025.019.044.025.069.4,2.14.806,4.287,1.2,6.377.963,5.124,1.895,10.041,2.474,13.585C135.4,273.16,135.606,274.551,135.688,275.489Z" transform="translate(-50.005 -111.255)" fill="#e84436"/><path d="M135.715,259.561c.013.076.025.145.044.22a.282.282,0,0,1-.076.038c-.258-1.391-.453-2.449-.535-2.889a.088.088,0,0,1,.013-.069h.05C135.381,257.766,135.545,258.667,135.715,259.561Z" transform="translate(-51.386 -113.275)" fill="#e84436"/><path d="M135.208,256.76a.222.222,0,0,0,.013.063h-.05A.13.13,0,0,1,135.208,256.76Z" transform="translate(-51.395 -113.238)" fill="#e84436"/><path d="M129.033,236.467c-1.177-6.446-2.21-12.527-2.594-16.336v-.038a.862.862,0,0,1,1.719-.138c.5,5.042,2.191,14.227,3.815,22.883a.131.131,0,0,0-.038.063H131.9c-.447,0-1.574-1.662-2.3-3.362C129.411,238.507,129.222,237.481,129.033,236.467Z" transform="translate(-48.159 -99.315)" fill="#e84436"/><path d="M131.2,296.451a6.48,6.48,0,0,0,2.889-5.061,6.442,6.442,0,0,1-2.889,5.149,14.078,14.078,0,0,1-4.123,1.737l-.019-.082A14.2,14.2,0,0,0,131.2,296.451Z" transform="translate(-48.39 -126.068)" fill="#e84436"/><path d="M131.123,249.712c-.006-.025-.019-.044-.025-.069-.189-1-.371-2-.548-2.978,0-.013,0-.019.006-.025C130.745,247.654,130.934,248.68,131.123,249.712Z" transform="translate(-49.683 -109.488)" fill="#ee7358"/><path d="M130.5,246.68c.176.982.359,1.977.548,2.978A4.994,4.994,0,0,1,130.5,246.68Z" transform="translate(-49.637 -109.503)" fill="#ee7358"/><path d="M129.031,237c-.006.006-.006.013-.006.025-1.177-6.421-2.21-12.477-2.587-16.273a.42.42,0,0,1,0-.126v.038C126.821,224.476,127.854,230.557,129.031,237Z" transform="translate(-48.157 -99.852)" fill="#e84436"/><path d="M127.649,93.186c0,1.7-.743,3-1.448,3.16a.525.525,0,0,1-.138.019c-.755,0-1.593-1.36-1.593-3.179,0-1.593.636-2.82,1.3-3.11a.273.273,0,0,0,.031-.006.621.621,0,0,1,.151-.019.823.823,0,0,1,.277-.006C126.931,90.234,127.649,91.512,127.649,93.186Z" transform="translate(-47.43 -51.468)"/><path d="M127.22,96.351c.705-.157,1.448-1.46,1.448-3.16,0-1.675-.718-2.952-1.416-3.141,1,.094,1.756,1.555,1.756,3.223a3.081,3.081,0,0,1-1.788,3.1Z" transform="translate(-48.449 -51.473)"/><path d="M127.61,304.42v.044l-.592,26.647a.415.415,0,0,1-.006.088.821.821,0,0,0-.743-.523.919.919,0,0,0-.617.227l-.472-.4.567-25.615C126.389,304.76,127.012,304.6,127.61,304.42Z" transform="translate(-47.693 -130.895)" fill="#497ea9"/><path d="M127.943,303.883c-.6.182-1.221.34-1.863.472l.006-.472a.943.943,0,0,1,.743-.894c.063-.006.126-.019.183-.019h.025A.947.947,0,0,1,127.943,303.883Z" transform="translate(-48.027 -130.358)" fill="#e84436"/><path d="M125.434,346.96a.744.744,0,0,1,.076.371c-.1,2.3-3.752,4.312-4.482,4.69a.424.424,0,0,1-.107.038l.019-1.977a9.789,9.789,0,0,0,2.354-1.87,1.52,1.52,0,0,0,1.379-.05A1.481,1.481,0,0,0,125.434,346.96Z" transform="translate(-46.115 -146.656)" fill="#497ea9"/><path d="M126.83,346.652a1.481,1.481,0,0,1-.762,1.2,1.52,1.52,0,0,1-1.379.05,1.678,1.678,0,0,0,.491-.957.888.888,0,0,1,.29-.592.919.919,0,0,1,.617-.227A.821.821,0,0,1,126.83,346.652Z" transform="translate(-47.512 -146.348)" fill="#497ea9"/><path d="M118.417,302.33l.113.422a.943.943,0,0,0-.743.894l-.006.472a35.994,35.994,0,0,1-7.246.648c-1.945,0-3.96-.107-5.993-.308l-.057-.913c-.025-.422-.39-.592-.806-.63l.013-.126h.013c5.351.6,10.595.629,14.693-.453C118.4,302.336,118.411,302.33,118.417,302.33Z" transform="translate(-39.728 -130.121)" fill="#e84436"/><path d="M127.018,90.035a.823.823,0,0,0-.277.006.621.621,0,0,0-.151.019.649.649,0,0,1,.258-.05A.53.53,0,0,1,127.018,90.035Z" transform="translate(-48.216 -51.459)"/><path d="M125.82,96.37v.019a1.093,1.093,0,0,1-.245.031c-.749.031-2.134-1.549-2.134-3.368a3.03,3.03,0,0,1,1.951-2.952c-.667.29-1.3,1.517-1.3,3.11,0,1.819.837,3.179,1.593,3.179A.524.524,0,0,0,125.82,96.37Z" transform="translate(-47.049 -51.492)"/><path d="M118.405,302.2l.019.082c-.006,0-.013.006-.019.006-4.1,1.083-9.342,1.058-14.693.453H103.7l.013-.088C109.063,303.258,114.307,303.283,118.405,302.2Z" transform="translate(-39.735 -130.072)" fill="#e84436"/><path d="M118.289,305.17l-.567,25.615a8.587,8.587,0,0,0-3.462-.925,11.079,11.079,0,0,0-7.617,2.505L105.05,305.51c2.033.2,4.048.308,5.993.308A36,36,0,0,0,118.289,305.17Z" transform="translate(-40.235 -131.173)" fill="#5492c5"/><path d="M123.127,345.315l.472.4a.889.889,0,0,0-.29.592,1.678,1.678,0,0,1-.491.957c-.05-.019-.1-.05-.151-.076a6.723,6.723,0,0,0-2.178-.825l.006-.768a.865.865,0,0,0-.856-.875l.025-.327A8.586,8.586,0,0,1,123.127,345.315Z" transform="translate(-45.641 -145.703)" fill="#497ea9"/><path d="M123.153,348.345a1.676,1.676,0,0,0,.151.076,9.787,9.787,0,0,1-2.354,1.87l.025-2.77A6.723,6.723,0,0,1,123.153,348.345Z" transform="translate(-46.126 -146.863)" fill="#1d71b8"/><path d="M119.981,345.785l-.006.768a7.245,7.245,0,0,0-1.725-.132l.006-.655a.862.862,0,0,1,.862-.856h.006A.865.865,0,0,1,119.981,345.785Z" transform="translate(-45.126 -145.896)" fill="#497ea9"/><path d="M119.956,347.438l-.025,2.77a7.731,7.731,0,0,1-.705.409.864.864,0,0,0-.466.762l-.56-.006.031-4.067A7.247,7.247,0,0,1,119.956,347.438Z" transform="translate(-45.107 -146.781)" fill="#c69191"/><path d="M120.261,351.92l-.019,1.977a.644.644,0,0,1-.29.057.865.865,0,0,1-.862-.862.864.864,0,0,1,.466-.762A7.726,7.726,0,0,0,120.261,351.92Z" transform="translate(-45.437 -148.493)" fill="#c69191"/><path d="M119.886,354.582l-.013,2.424a.866.866,0,0,0-.73.655.856.856,0,0,0,.636,1.039c.025.006.05.019.076.025v.132a.867.867,0,0,1-.862.856h-.006a.858.858,0,0,1-.856-.863l.044-5.08.56.006a.865.865,0,0,0,.862.862A.644.644,0,0,0,119.886,354.582Z" transform="translate(-45.081 -149.179)" fill="#c69191"/><path d="M120.456,358.91l-.019,1.719c-.025-.006-.05-.019-.076-.025a.856.856,0,0,1-.636-1.039A.865.865,0,0,1,120.456,358.91Z" transform="translate(-45.663 -151.083)" fill="#c69191"/><path d="M118.849,180.672l.076.094a1.133,1.133,0,0,0-1.555.315l.057-.151A.829.829,0,0,1,118.849,180.672Z" transform="translate(-44.8 -84.936)" fill="#ee7358"/><path d="M113.152,329.945l-.025.327h-.006a.862.862,0,0,0-.862.856l-.006.655a7.7,7.7,0,0,0-1.265.132v-.39a.858.858,0,0,0-.85-.869h-.013a.867.867,0,0,0-.862.856l-.006.875a8.117,8.117,0,0,0-2.707,1.656,12.773,12.773,0,0,1-1.221-1.121.856.856,0,0,0-1.486.648,1.751,1.751,0,0,1-.132-.541L102.06,305.4c.63.076,1.259.138,1.882.2l1.593,26.855A11.08,11.08,0,0,1,113.152,329.945Z" transform="translate(-39.128 -131.258)" fill="#497ea9"/><path d="M116.845,174.655a.931.931,0,0,1-.787,1.058.885.885,0,0,1-.132.006.928.928,0,0,1-.919-.793,1.936,1.936,0,0,0-.447-.913L116,172.88c.063.076.138.151.214.233A3.655,3.655,0,0,1,116.845,174.655Z" transform="translate(-43.759 -82.161)" fill="#e84436"/><path d="M112.971,171.116c-.076-.082-.151-.157-.214-.233l-1.435,1.133c-1.051-1.253-3.67-2.184-5.5-2.631V167.49C107.356,167.824,111.366,168.869,112.971,171.116Z" transform="translate(-40.521 -80.164)" fill="#e84436"/><path d="M115.221,346.389v.39a9.1,9.1,0,0,0-1.731.472l.006-.875a.866.866,0,0,1,.862-.856h.013A.858.858,0,0,1,115.221,346.389Z" transform="translate(-43.362 -146.122)" fill="#497ea9"/><path d="M115.206,347.52l-.038,4.23-.447-.006a.777.777,0,0,0-.044-.264.872.872,0,0,0-1.1-.548.452.452,0,0,1-.132.031l.025-2.971A9.1,9.1,0,0,1,115.206,347.52Z" transform="translate(-43.348 -146.863)" fill="#c69191"/><path d="M115.143,354.236l-.044,5.181a.862.862,0,0,1-.862.856.873.873,0,0,1-.856-.875v-.346c.094-.025.176-.05.233-.069a.863.863,0,0,0,.623-1.045.852.852,0,0,0-.837-.648l.019-2.115a2.188,2.188,0,0,0,.686-.12.871.871,0,0,0,.592-.825Z" transform="translate(-43.322 -149.349)" fill="#c69191"/><path d="M114.674,353.462a.777.777,0,0,1,.044.264.871.871,0,0,1-.592.825,2.186,2.186,0,0,1-.686.12l.006-1.725a.452.452,0,0,0,.132-.032A.872.872,0,0,1,114.674,353.462Z" transform="translate(-43.344 -148.845)" fill="#c69191"/><path d="M104.448,169.831c.812,1.492-.39,4.935-3.217,7.309-1.63,1.372-5.993,4.092-11.3-.151-2.4-1.92-3.469-3.683-3.179-5.244a3.441,3.441,0,0,1,.334-.919c.932-1.725,3.368-3,4.816-3.569v1.372a.862.862,0,1,0,1.725,0V160.64c1.152-.013,2.279-.05,3.387-.12v8.108a.862.862,0,1,0,1.725,0V166.8c1.832.447,4.451,1.379,5.5,2.631l-.025.013C104.3,169.566,104.373,169.7,104.448,169.831Z" transform="translate(-33.439 -77.582)" fill="#f3c8bb"/><path d="M114.236,359.738a.863.863,0,0,1-.623,1.045c-.057.019-.139.044-.233.069l.019-1.763A.852.852,0,0,1,114.236,359.738Z" transform="translate(-43.322 -151.149)" fill="#c69191"/><path d="M111.9,348.27l-.025,2.971a4.648,4.648,0,0,1-2.682-1.316A8.118,8.118,0,0,1,111.9,348.27Z" transform="translate(-41.769 -147.141)" fill="#1d71b8"/><path d="M110.279,351.938l-.006,1.725h-.1c-2.153,0-4.551-2.443-5.055-2.99a.852.852,0,0,1-.227-.522,1.635,1.635,0,0,0,1.511,1,1.6,1.6,0,0,0,1.158-.491.21.21,0,0,1,.038-.038A4.647,4.647,0,0,0,110.279,351.938Z" transform="translate(-40.176 -147.837)" fill="#497ea9"/><path d="M107.6,350.075a.213.213,0,0,0-.038.038,1.6,1.6,0,0,1-1.158.491,1.635,1.635,0,0,1-1.511-1,.856.856,0,0,1,1.486-.648A12.778,12.778,0,0,0,107.6,350.075Z" transform="translate(-40.175 -147.29)" fill="#497ea9"/><path d="M104.8,169.863v1.826a.862.862,0,0,1-1.725,0V168.78h.088a.923.923,0,0,0,.774.906C104.2,169.731,104.49,169.794,104.8,169.863Z" transform="translate(-39.506 -80.642)" fill="#c69191"/><path d="M104.857,167.42v1.895c-.315-.069-.6-.132-.862-.176a.923.923,0,0,1-.774-.907.725.725,0,0,1,.019-.164.938.938,0,0,1,1.076-.755c.1.019.283.05.541.1v.006Z" transform="translate(-39.557 -80.094)" fill="#c69191"/><path d="M104.8,160.32v4.507c-.258-.05-.441-.082-.541-.1a.938.938,0,0,0-1.076.755.725.725,0,0,0-.019.164h-.088v-5.2C103.659,160.414,104.238,160.37,104.8,160.32Z" transform="translate(-39.506 -77.508)" fill="#c69191"/><path d="M104.8,159.652v.1c-.567.05-1.146.094-1.725.126v-.227a.862.862,0,1,1,1.725,0Z" transform="translate(-39.506 -76.941)" fill="#c69191"/><path d="M98.1,108.9a.829.829,0,0,1-.636.988c-.063.006-.12.013-.176.013a.827.827,0,0,1-.812-.655,9.747,9.747,0,0,0-3.595-5.326,1.6,1.6,0,0,0-1.259-.264c-2.757.6-4.407,3.582-4.879,5.3a.832.832,0,0,1-1.605-.441c.088-.29,1.844-5.546,6.125-6.478a3.257,3.257,0,0,1,2.524.491C96.556,104.308,97.972,108.274,98.1,108.9Z" transform="translate(-32.849 -55.886)" fill="#c69191"/><path d="M103.866,303.886l.057.913c-.623-.057-1.253-.12-1.882-.2l-.031-.6c-.025-.51.283-.718.793-.749.094,0,.176,0,.258.006C103.476,303.294,103.841,303.464,103.866,303.886Z" transform="translate(-39.108 -130.462)" fill="#e84436"/><path d="M92.253,300.427l-.013.088A106.681,106.681,0,0,1,72.8,296.278c-.006,0-.019-.006-.025-.006l.025-.082A107.249,107.249,0,0,0,92.253,300.427Z" transform="translate(-28.276 -127.846)" fill="#e84436"/><path d="M92.178,300.563l-.013.126c-.082-.006-.164-.006-.258-.006-.51.031-.818.239-.793.749l.031.6c-.384-.05-.762-.094-1.146-.145l.044-.56a.95.95,0,0,0-.856-1.007.91.91,0,0,0-.995.856l-.031.447a108.5,108.5,0,0,1-14.831-3.368l.013-.686a.95.95,0,0,0-.743-.925l.107-.327c.006,0,.019.006.025.006A106.677,106.677,0,0,0,92.178,300.563Z" transform="translate(-28.213 -127.894)" fill="#e84436"/><path d="M91.091,138.6a.644.644,0,0,1-.485.869.912.912,0,0,1-1.07-.39c-1.335-2.883-4.016-4.621-7.97-5.168a20.713,20.713,0,0,0-5.76.05.843.843,0,0,1-.988-.51.686.686,0,0,1,.63-.8,21.794,21.794,0,0,1,3.387-.245C82.649,132.41,88.636,133.323,91.091,138.6Z" transform="translate(-29.027 -67.167)" fill="#c69191"/><path d="M98.346,302.677a.95.95,0,0,1,.856,1.007l-.044.56c-.611-.082-1.228-.17-1.838-.264l.031-.447A.91.91,0,0,1,98.346,302.677Z" transform="translate(-37.372 -130.248)" fill="#e84436"/><path d="M89.755,305.014l-2.109,26.691a1.23,1.23,0,0,1-.063.3.85.85,0,0,0-.73-.686.859.859,0,0,0-.969.737,1.333,1.333,0,0,1-.2.491,1.115,1.115,0,0,1-.1-.088,5.831,5.831,0,0,0-3.922-1.523v-.076a.868.868,0,0,0-.856-.869.858.858,0,0,0-.869.85v.094c-.428.031-.856.082-1.291.151a.875.875,0,0,0-.837-.718H77.8a.867.867,0,0,0-.862.856v.183a27.547,27.547,0,0,0-3.5,1.1,9.7,9.7,0,0,1-.724-1.171.87.87,0,0,0-.774-.491l.957-.107c3.1-1.2,9.185-2.959,13-.415l2.021-25.571C88.528,304.844,89.145,304.933,89.755,305.014Z" transform="translate(-27.969 -131.017)" fill="#497ea9"/><path d="M96.685,169.5v2.455a.862.862,0,0,1-1.725,0v-1.372c.22-.082.415-.157.579-.208a.91.91,0,0,0,.636-.875Z" transform="translate(-36.497 -80.909)" fill="#c69191"/><path d="M96.685,160.71v5.533h-.51a.894.894,0,0,0-.038-.29.927.927,0,0,0-1.171-.6H94.96V160.71c.22.006.453.006.68.006h.353C96.225,160.716,96.458,160.716,96.685,160.71Z" transform="translate(-36.497 -77.652)" fill="#c69191"/><path d="M96.685,159.652V160c-.227.006-.46.006-.692.006H95.64c-.227,0-.46,0-.68-.006v-.346a.862.862,0,1,1,1.725,0Z" transform="translate(-36.497 -76.941)" fill="#c69191"/><path d="M88.48,302.768l-2.021,25.571c-3.815-2.543-9.9-.781-13,.415l.189-29.354A108.5,108.5,0,0,0,88.48,302.768Z" transform="translate(-28.532 -129.035)" fill="#5492c5"/><path d="M93.274,348.05a.713.713,0,0,1,.006.283c-.34,2.537-4.614,4.2-5.98,4.671l.019-1.851c1.618-.623,3.456-1.618,4.054-2.562a1.141,1.141,0,0,0,.762.271,1.536,1.536,0,0,0,.409-.063A1.279,1.279,0,0,0,93.274,348.05Z" transform="translate(-33.659 -147.059)" fill="#497ea9"/><path d="M68.277,142.614v.46a.868.868,0,0,0-.862.862v.346c-10.878-.094-22.228-2.493-29.165-6.194-7.17-3.821-12.263-10.771-15.278-15.92-.925-1.586-1.706-3.085-2.361-4.432.12,0,.2-.006.22-.006a.865.865,0,0,0,.8-.919.226.226,0,0,0-.013-.069,1.57,1.57,0,0,0,.183-.371c2.827,5.949,8.492,15.6,17.23,20.258C45.444,140.059,56.882,142.6,68.277,142.614Z" transform="translate(-8.951 -61.225)" fill="#c69191"/><path d="M94.941,346.955a.85.85,0,0,1,.73.686,1.278,1.278,0,0,1-.73.749,1.537,1.537,0,0,1-.409.063,1.141,1.141,0,0,1-.762-.271,1.332,1.332,0,0,0,.2-.491A.859.859,0,0,1,94.941,346.955Z" transform="translate(-36.056 -146.65)" fill="#497ea9"/><path d="M91.288,168.09v1.97c-1.448.573-3.884,1.844-4.816,3.569l-.17-.1A.856.856,0,0,0,85.05,172.4C86.832,169.576,91.018,168.178,91.288,168.09Z" transform="translate(-32.826 -80.386)" fill="#e84436"/><path d="M91.283,347.873a1.11,1.11,0,0,0,.1.088c-.6.944-2.436,1.939-4.054,2.562l.031-4.174A5.831,5.831,0,0,1,91.283,347.873Z" transform="translate(-33.67 -146.43)" fill="#1d71b8"/><path d="M86.365,345.719v.076a10.506,10.506,0,0,0-1.725,0V345.7a.858.858,0,0,1,.869-.85A.868.868,0,0,1,86.365,345.719Z" transform="translate(-32.674 -145.874)" fill="#497ea9"/><path d="M86.339,346.329l-.031,4.174c-.277.107-.541.208-.8.29a.873.873,0,0,0-.6.818h-.34l.044-5.282A10.547,10.547,0,0,1,86.339,346.329Z" transform="translate(-32.648 -146.409)" fill="#c69191"/><path d="M86.508,352.98l-.019,1.851c-.1.031-.183.057-.252.082a.894.894,0,0,1-.264.044.861.861,0,0,1-.818-.6,1.013,1.013,0,0,1-.044-.271.873.873,0,0,1,.6-.818C85.966,353.188,86.231,353.087,86.508,352.98Z" transform="translate(-32.848 -148.886)" fill="#c69191"/><path d="M86.263,355.483l-.025,2.487a.837.837,0,0,0-.686.516.869.869,0,0,0,.327,1.076.779.779,0,0,0,.126.183.857.857,0,0,1-.636.283h-.013a.862.862,0,0,1-.856-.862l.044-4.426h.34a1.013,1.013,0,0,0,.044.271.861.861,0,0,0,.818.6.9.9,0,0,0,.264-.044C86.08,355.54,86.162,355.514,86.263,355.483Z" transform="translate(-32.622 -149.538)" fill="#c69191"/><path d="M86.813,360.317v.013a.831.831,0,0,0-.422.529.9.9,0,0,0,.063.6.869.869,0,0,1-.327-1.076.837.837,0,0,1,.686-.516Z" transform="translate(-33.198 -151.439)" fill="#c69191"/><path d="M87,360.6l-.006.743a.936.936,0,0,1-.151.485l-.082-.038a.7.7,0,0,1-.12-.057.9.9,0,0,1-.063-.6A.832.832,0,0,1,87,360.6Z" transform="translate(-33.381 -151.709)" fill="#c69191"/><path d="M85.674,174.879a.856.856,0,0,1,.151,1.083c-.038.05-.069.094-.1.132s-.39.428-1,1.146c-.151.17-.315.359-.491.573-.006.006-.013.019-.025.031-.12.139-.246.3-.378.453a4.572,4.572,0,0,1,.013-1.656,4.778,4.778,0,0,1,.73-1.807A.858.858,0,0,1,85.674,174.879Z" transform="translate(-32.348 -82.819)" fill="#e84436"/><path d="M86.891,362.494c-.025.031-.05.057-.076.088a.782.782,0,0,1-.126-.183.7.7,0,0,0,.12.057C86.835,362.469,86.866,362.482,86.891,362.494Z" transform="translate(-33.433 -152.376)" fill="#c69191"/><path d="M72.23,175.041a.366.366,0,0,1,.12-.1,4.778,4.778,0,0,0-.73,1.807,4.571,4.571,0,0,0-.013,1.656c-4.973,5.993-18.117,23.2-18.885,38.532-.038.686-.044,1.366-.031,2.046a22.812,22.812,0,0,0,.548,4.6c.013.057,1.039.3,2.354.793l.29.113c.554.227,1.158.491,1.763.8a1.079,1.079,0,0,1,.145.076,9.593,9.593,0,0,1,1.467.951c-.151.611-.3,1.19-.409,1.637a.6.6,0,0,0-.082.208c-5.515-2.946-7.29-3.33-7.409-3.9-1.983-8.775,1.1-20.063,8.788-32.779A115.825,115.825,0,0,1,72.23,175.041Z" transform="translate(-20.125 -82.924)" fill="#e84436"/><path d="M81.542,346.59a.673.673,0,0,1,.019.157l-.082,9.8a.862.862,0,0,1-.862.856H80.6a.855.855,0,0,1-.774-.522v-.006c.12-.019.22-.038.3-.044a.863.863,0,0,0-.151-1.719.966.966,0,0,1-.214.025l.025-2.789c.082.013.164.019.258.025h.05a.86.86,0,0,0,.057-1.719,3.055,3.055,0,0,1-.346-.038l.031-3.7C80.408,346.779,80.981,346.672,81.542,346.59Z" transform="translate(-30.866 -146.518)" fill="#c69191"/><path d="M80.165,353.018a.86.86,0,0,1-.057,1.719h-.05c-.094-.006-.176-.013-.258-.025l.019-1.731A3.084,3.084,0,0,0,80.165,353.018Z" transform="translate(-30.881 -148.886)" fill="#c69191"/><path d="M80.9,360.906a.861.861,0,0,1-.781.932c-.076.006-.176.025-.3.044a.769.769,0,0,1-.076-.34l.006-1.4a.963.963,0,0,0,.214-.025A.862.862,0,0,1,80.9,360.906Z" transform="translate(-30.862 -151.53)" fill="#c69191"/><path d="M80.749,345.45a.875.875,0,0,1,.837.718c-.56.082-1.133.189-1.706.321v-.182a.867.867,0,0,1,.862-.856Z" transform="translate(-30.91 -146.096)" fill="#497ea9"/><path d="M77.82,347.1l-.031,3.7A5.919,5.919,0,0,1,74.32,348.2,27.547,27.547,0,0,1,77.82,347.1Z" transform="translate(-28.85 -146.707)" fill="#1d71b8"/><path d="M76.407,351l-.019,1.731c-3.569-.422-5.634-4.577-5.716-4.753a.713.713,0,0,1-.082-.34,1.434,1.434,0,0,0,.573.8,1.379,1.379,0,0,0,1.322.138c.151-.057.3-.113.453-.183A5.918,5.918,0,0,0,76.407,351Z" transform="translate(-27.468 -146.908)" fill="#497ea9"/><path d="M72.937,347.862c-.151.069-.3.126-.453.183a1.379,1.379,0,0,1-1.322-.139,1.433,1.433,0,0,1-.573-.8.841.841,0,0,1,.472-.812.905.905,0,0,1,.378-.094.87.87,0,0,1,.774.491A9.7,9.7,0,0,0,72.937,347.862Z" transform="translate(-27.467 -146.374)" fill="#497ea9"/><path d="M72.683,297.758l-.013.686c-.5-.151-.976-.3-1.435-.447-.138-.05-.283-.094-.415-.138v-.12a.909.909,0,0,1,.938-.919,1.568,1.568,0,0,1,.183.013A.95.95,0,0,1,72.683,297.758Z" transform="translate(-27.554 -128.079)" fill="#e84436"/><path d="M72.549,299.055,72.36,328.41l-.957.107a.905.905,0,0,0-.378.094.841.841,0,0,0-.472.812,1.19,1.19,0,0,1-.063-.4L70.7,298.47c.132.044.277.088.415.138C71.573,298.76,72.051,298.9,72.549,299.055Z" transform="translate(-27.431 -128.691)" fill="#497ea9"/><path d="M68.964,294.623l-.025.082a35.534,35.534,0,0,1-6.232-2.455.81.81,0,0,1-.277-.29C63.028,292.482,65.464,293.5,68.964,294.623Z" transform="translate(-24.445 -126.279)" fill="#ee7358"/><path d="M67.878,291.17l-.107.327a1.555,1.555,0,0,0-.183-.013.909.909,0,0,0-.938.919v.12c-6.4-2.109-6.792-3.122-6.925-3.456-.29-.755-.17-3.022.22-6.163a.9.9,0,0,0,.623.264.928.928,0,0,0,.359-.082.889.889,0,0,0,.5-.667l.3.044c-.277,2.021-.441,3.632-.472,4.7-.013.258-.006.485,0,.674a1.251,1.251,0,0,0,.006.22.633.633,0,0,0,.031.157.093.093,0,0,0,.006.044.666.666,0,0,0,.025.12.355.355,0,0,0,.05.044.81.81,0,0,0,.277.29A35.533,35.533,0,0,0,67.878,291.17Z" transform="translate(-23.384 -122.744)" fill="#e84436"/><path d="M65.009,260.6c.025-.132.057-.271.088-.409a.859.859,0,0,1,.485.957c-2.228,10.481-1.4,5.143-2.222,11.344C64.1,266.347,62.919,270.457,65.009,260.6Z" transform="translate(-24.79 -114.508)" fill="#ee7358"/><path d="M64.29,253.971c.8-3.223,1.958-7.573.655.283a.174.174,0,0,1-.076.126C64.68,254.235,64.491,254.1,64.29,253.971Z" transform="translate(-25.134 -110.669)" fill="#ee7358"/><path d="M64.5,258.49a.861.861,0,0,1,.667,1.02.107.107,0,0,0-.006.044.626.626,0,0,0-.183-.063.881.881,0,0,0-.6.088c-.3-.157-.585-.315-.856-.466a1.9,1.9,0,0,0,.05-.22A.87.87,0,0,1,64.5,258.49Z" transform="translate(-24.849 -113.872)" fill="#e84436"/><path d="M65.661,260.142c-.031.139-.063.277-.088.409l-.692-.384a.881.881,0,0,1,.6-.088A.629.629,0,0,1,65.661,260.142Z" transform="translate(-25.353 -114.46)" fill="#e84436"/><path d="M64.854,256.819a.191.191,0,0,1-.233-.019c-.12-.107-.246-.214-.371-.309a.407.407,0,0,1,.025-.082C64.477,256.536,64.665,256.674,64.854,256.819Z" transform="translate(-25.119 -113.108)" fill="#ee7358"/><path d="M63.424,260.23l.692.384c-2.09,9.858-.913,5.747-1.649,11.892q-.019.151-.038.321c-.063.422-.126.894-.2,1.416l-.3-.044a.856.856,0,0,0-.076-.478,21.817,21.817,0,0,1-.913-2.587C62.675,259.626,62,265.512,63,260.8A.869.869,0,0,1,63.424,260.23Z" transform="translate(-23.897 -114.523)" fill="#e84436"/><path d="M62.677,93.389c0,1.826-1.07,3.1-2.027,3.135-.755.038-2.14-1.549-2.14-3.368s1.385-2.984,2.14-2.984C61.79,90,62.677,91.576,62.677,93.389Z" transform="translate(-22.993 -51.514)"/><path d="M63.412,255.9a.408.408,0,0,0-.025.082,9.6,9.6,0,0,0-1.467-.951A14.829,14.829,0,0,1,63.412,255.9Z" transform="translate(-24.256 -112.597)" fill="#ee7358"/><path d="M63.552,259.14a1.906,1.906,0,0,1-.05.22.048.048,0,0,1-.031-.013A.6.6,0,0,1,63.552,259.14Z" transform="translate(-24.831 -114.119)" fill="#e84436"/><path d="M63.379,259.47a.048.048,0,0,0,.031.013c-.208.844-.264,1.058-.05.038C63.367,259.5,63.367,259.483,63.379,259.47Z" transform="translate(-24.74 -114.242)" fill="#e84436"/><path d="M58.365,70.521l-6.648,4.142q-1.058.038-2.077.057c2.235-3.979,7.51-4.841,7.774-4.885A.837.837,0,0,1,58.365,70.521Z" transform="translate(-19.707 -43.981)" fill="#eacf83"/><path d="M61.574,280.137a.856.856,0,0,1,.076.478.889.889,0,0,1-.5.667.927.927,0,0,1-.359.082.9.9,0,0,1-.623-.264c.132-1.089.3-2.285.491-3.55A21.81,21.81,0,0,0,61.574,280.137Z" transform="translate(-23.608 -120.94)" fill="#e84436"/><path d="M62.276,291.408a.634.634,0,0,1-.031-.157,1.251,1.251,0,0,1-.006-.22A2.937,2.937,0,0,0,62.276,291.408Z" transform="translate(-24.373 -125.934)" fill="#ee7358"/><path d="M60.653,254.439c-.6-.308-1.209-.573-1.763-.8A17.11,17.11,0,0,1,60.653,254.439Z" transform="translate(-23.134 -112.082)" fill="#e84436"/><path d="M54.368,249.407c.013.057,1.02.346,2.354.881-1.316-.491-2.342-.737-2.354-.793a22.814,22.814,0,0,1-.548-4.6A23.912,23.912,0,0,0,54.368,249.407Z" transform="translate(-21.255 -108.844)" fill="#ee7358"/><path d="M51.317,77.51a5.747,5.747,0,0,0-.995,1.693c-.56.019-1.108.025-1.643.044h-.12a7.571,7.571,0,0,1,.68-1.681Q50.26,77.548,51.317,77.51Z" transform="translate(-19.307 -46.828)" fill="#7d4e24"/><path d="M48.559,80.244c.535-.019,1.083-.025,1.643-.044a5.522,5.522,0,0,0-.315,1.2.837.837,0,0,1-.825.705c-.044,0-.082-.006-.126-.006a.833.833,0,0,1-.692-.944,6.794,6.794,0,0,1,.2-.907.723.723,0,0,1,.12-.006Z" transform="translate(-19.186 -47.824)" fill="#7d4e24"/><path d="M48.673,80.27a.684.684,0,0,0-.113.006V80.27Z" transform="translate(-19.307 -47.85)" fill="#7d4e24"/><path d="M22.1,116.49l.252-.12a1.57,1.57,0,0,1-.183.371A.983.983,0,0,0,22.1,116.49Z" transform="translate(-9.503 -61.225)" fill="#c69191"/><path d="M19.7,110.794l-.252.12a.879.879,0,0,0-.837-.478,6.169,6.169,0,0,1-.932-.044c-.913-2.021-2.556-8.291-2.732-8.788l.881.183.472-.466c.17.371.34.718.491,1.032H16.8c.063.29.138.6.214.919v.019a7.508,7.508,0,0,0,.541,2.367.21.21,0,0,1,.019.038.049.049,0,0,1,.006.019A54.79,54.79,0,0,0,19.7,110.794Z" transform="translate(-6.854 -55.649)" fill="#c69191"/><path d="M21.548,117.029a.865.865,0,0,1-.8.919c-.025,0-.1.006-.22.006-.044-.094-.094-.189-.138-.277a1.42,1.42,0,0,0,1.146-.718A.226.226,0,0,1,21.548,117.029Z" transform="translate(-8.87 -61.443)" fill="#c69191"/><path d="M21.059,116.252a.982.982,0,0,1,.069.252,1.42,1.42,0,0,1-1.146.718c-.252-.523-.485-1.026-.692-1.492a6.166,6.166,0,0,0,.932.044A.879.879,0,0,1,21.059,116.252Z" transform="translate(-8.462 -60.988)" fill="#c69191"/><path d="M20.182,106.565c.176.5-.189,3.028.718,5.055a54.787,54.787,0,0,1-2.121-5.08.049.049,0,0,0-.006-.019c-.031-.145-.3-1.272-.56-2.4V104.1c-.019-.183-.025-.365-.031-.548.611,1.228,1.02,1.926,1.039,1.97Z" transform="translate(-8.051 -56.475)" fill="#f3c8bb"/><path d="M13.61,108.323c.044.088.094.183.138.277h-.082c-1.265,0-6.119-.371-10.041-5.823a6.846,6.846,0,0,1-1.379-5.659c.648-2.764,3.072-4.64,4.237-5.408.157.478.315.938.466,1.391C5.288,94.222,3.3,95.726,3.022,96.948a5.163,5.163,0,0,0,1.1,4.256C6.434,104.426,11.161,108.575,13.61,108.323Z" transform="translate(-2.09 -52.088)" fill="#c69191"/><path d="M14.093,109.142c-2.449.252-7.176-3.9-9.493-7.12a5.163,5.163,0,0,1-1.1-4.256c.277-1.221,2.266-2.726,3.928-3.846.031.1.069.208.1.308a7.657,7.657,0,0,0-3.122,4.1,5.158,5.158,0,0,0,1.1,4.256c2.889,4.023,6.283,4.9,7.894,5.068C13.608,108.116,13.841,108.619,14.093,109.142Z" transform="translate(-2.572 -52.907)" fill="#c69191"/><path d="M18.79,106.855a.209.209,0,0,0-.019-.038,7.509,7.509,0,0,1-.541-2.367C18.494,105.583,18.759,106.71,18.79,106.855Z" transform="translate(-8.07 -56.809)" fill="#f3c8bb"/><path d="M18.073,103.331c.006.183.013.365.031.548-.076-.315-.151-.63-.214-.919C17.953,103.092,18.01,103.212,18.073,103.331Z" transform="translate(-7.944 -56.256)" fill="#f3c8bb"/><path d="M17.591,102.075c-.151-.315-.321-.661-.491-1.032l.126-.12c.006-.113.006-.227.013-.353C17.245,100.576,17.4,101.237,17.591,102.075Z" transform="translate(-7.651 -55.371)" fill="#c69191"/><path d="M12.555,97.76l-.472.466-.881-.183c.176.5,1.819,6.767,2.732,8.788-1.612-.17-5-1.045-7.894-5.068a5.158,5.158,0,0,1-1.1-4.256,7.657,7.657,0,0,1,3.122-4.1c.5-.359.869-.554.881-.567a.824.824,0,0,0,.441-.667V92.17c.3-.189.548-.346.705-.46C10.95,94.153,11.831,96.2,12.555,97.76Z" transform="translate(-3.106 -52.088)" fill="#f3c8bb"/><path d="M10.959,91.884h0c-.4.258-.894.579-1.423.932-.151-.453-.308-.913-.466-1.391.359-.233.592-.359.636-.384a.875.875,0,0,1,1.02.151.006.006,0,0,1,.006.006C10.807,91.431,10.883,91.664,10.959,91.884Z" transform="translate(-4.676 -51.803)" fill="#936037"/><path d="M11.233,92.45a.824.824,0,0,1-.441.667c-.013.013-.378.208-.881.567-.031-.1-.069-.208-.1-.308C10.339,93.023,10.836,92.7,11.233,92.45Z" transform="translate(-4.95 -52.363)" fill="#936037"/><g transform="translate(58.463 87.658)"><line y2="1.97" transform="translate(0 0.045)" fill="none" stroke="#c69191" stroke-miterlimit="10" stroke-width="1"/><path d="M94.96,170.583c.22-.082.415-.157.579-.208a.91.91,0,0,0,.636-.875" transform="translate(-94.96 -168.567)" fill="none" stroke="#c69191" stroke-miterlimit="10" stroke-width="1"/><path d="M96.175,168.951a.894.894,0,0,0-.038-.29.927.927,0,0,0-1.171-.6H94.96" transform="translate(-94.96 -168.018)" fill="none" stroke="#c69191" stroke-miterlimit="10" stroke-width="1"/></g></g><ellipse cx="4.224" cy="4.451" rx="4.224" ry="4.451" transform="translate(31.584 68.544)" fill="#ee7358"/><ellipse cx="4.224" cy="4.451" rx="4.224" ry="4.451" transform="translate(82.322 68.216)" fill="#ee7358"/><path d="M72.82,301.76a150.976,150.976,0,0,0,15.574,3.475" transform="translate(-26.984 -111.796)" fill="#497ea9" stroke="#497ea9" stroke-linejoin="round" stroke-miterlimit="10" stroke-width="5.113"/><path d="M84.465,347.238a7.564,7.564,0,0,0-2.965.063l.094,10.223s2.159.579,2.657-.321C84.641,356.486,84.465,347.238,84.465,347.238Z" transform="translate(-30.2 -128.594)" fill="#f3c8bb" stroke="#c69191" stroke-miterlimit="10" stroke-width="1.563"/><path d="M103.57,307.278s11.961.718,15.31-.478" transform="translate(-38.377 -113.663)" fill="#497ea9" stroke="#497ea9" stroke-miterlimit="10" stroke-width="3.954"/><path d="M96.61,161.206s1.656.661,4.891-.076" transform="translate(-35.798 -59.694)" fill="#c69191" stroke="#c69191" stroke-miterlimit="10" stroke-width="2.636"/><path d="M84.2,15.135C83.36,20.051,77.846,37.08,67.66,39.944a8.238,8.238,0,0,0-3.979,2.48c-2.474,2.808-7.56,7.466-14.347,7.951a8.425,8.425,0,0,0-4.765,1.977c-2.619,2.191-7.435,5.332-13.062,4.854a8.7,8.7,0,0,0-8.826,5.98c-.592,1.719-.138,4.306-2.55,4.545l-2.726.277a8.492,8.492,0,0,1-8.517-4.8C5.9,56.922,2.38,40.284,8.115,34.851c4.633-4.388,7.265-6.427,9.008-7.309a8.58,8.58,0,0,0,4.325-5.307c1.328-4.6,4.211-10.891,10.072-11.281A8.409,8.409,0,0,0,36.392,9c2.952-2.493,9.015-2.625,14.85-1.4a8.627,8.627,0,0,0,6.874-1.347c2.726-1.97,6.333-1.07,10.507.655a8.307,8.307,0,0,0,4.614.453c3.563-.63,9.575-.831,10.891,4.558A7.8,7.8,0,0,1,84.2,15.135Z" transform="translate(-1.875 -1.9)" fill="#f3db8c" stroke="#eacf83" stroke-linecap="round" stroke-linejoin="round" stroke-miterlimit="10" stroke-width="3"/><path d="M126.265,15.6s13.6,3.475,15.826,10.16,2.222,9.348,2.222,9.348,5.206-1.36,7.164,7.787,1.385,10.96,1.385,10.96,3.45,14.252-1.385,13.723-7.5-12.213-6.169-13.522c0,0-10.576-.976-12.275-8.631s-1.7-7.649-1.7-7.649a9.067,9.067,0,0,1-9.1-3.129" transform="translate(-45.29 -5.777)" fill="#f3db8c" stroke="#eacf83" stroke-linecap="round" stroke-linejoin="round" stroke-miterlimit="10" stroke-width="3"/><g transform="translate(38.329 228.003)"><path d="M77.984,365.6c-.667-.371-1.851-1.63-2.984-1.769l1.895-.094H76.9a6.775,6.775,0,0,1,1.347.919,1.065,1.065,0,0,1,.3.441,1.15,1.15,0,0,1,.038.157c.031.208,0,.422-.258.46A.554.554,0,0,1,77.984,365.6Z" transform="translate(-66.121 -362.762)" fill="#fff"/><path d="M85.042,368.3a14.536,14.536,0,0,1-5.949,1.379v-.006a8.691,8.691,0,0,0-.844-3.72c1.045.409.932-.724.932-.724l.006-.006a.554.554,0,0,0,.346.113c.258-.038.29-.252.258-.46a1.155,1.155,0,0,0-.038-.157c.4.145.862-.151.68-.548a2.652,2.652,0,0,0-1.492-1.114l-.038-.076.579-.277c1.517,1.1,4.054,0,4.054,0a14.7,14.7,0,0,1,1.511,5.6Z" transform="translate(-67.326 -362.377)" fill="#ee7358"/><path d="M77.978,365.665s.113,1.133-.932.724a1.983,1.983,0,0,0-.308-.447A15.657,15.657,0,0,0,75,363.89c1.133.139,2.317,1.4,2.984,1.769Z" transform="translate(-66.121 -362.818)" fill="#ee7358"/><path d="M79.669,364.878a1.065,1.065,0,0,0-.3-.441,6.779,6.779,0,0,0-1.347-.919l.8-.378.038.076a2.652,2.652,0,0,1,1.492,1.114C80.532,364.726,80.066,365.022,79.669,364.878Z" transform="translate(-67.24 -362.54)" fill="#fff"/><path d="M75.928,363.177l-1.895.094a3.6,3.6,0,0,0-1.643-1.051A8.4,8.4,0,0,1,75.928,363.177Z" transform="translate(-65.154 -362.199)" fill="#fff"/><path d="M78.909,373.781c-7.806,2.241-17.513.308-17.815,0s-.164-2.191-.164-2.191a43.423,43.423,0,0,0,11.734,1.379,14.535,14.535,0,0,0,5.949-1.379C78.745,372.566,78.909,373.781,78.909,373.781Z" transform="translate(-60.896 -365.67)" fill="#ee7358"/><path d="M66.609,362.233a10.027,10.027,0,0,1,1.36-.038.577.577,0,0,1,.1.006.33.33,0,0,1,.082.006,3.6,3.6,0,0,1,1.643,1.051,15.657,15.657,0,0,1,1.737,2.052,1.98,1.98,0,0,1,.308.447,8.691,8.691,0,0,1,.844,3.72v.006a43.422,43.422,0,0,1-11.734-1.379S62.222,362.661,66.609,362.233Z" transform="translate(-60.916 -362.187)" fill="#ee7358"/><path d="M76.9,363.74a6.778,6.778,0,0,1,1.347.919,1.066,1.066,0,0,1,.3.441,1.15,1.15,0,0,1,.038.157c.031.208,0,.422-.258.46a.554.554,0,0,1-.346-.113c-.667-.371-1.851-1.63-2.984-1.769" transform="translate(-66.121 -362.762)" fill="none" stroke="#e84436" stroke-linecap="round" stroke-linejoin="round" stroke-miterlimit="10" stroke-width="1.5"/><path d="M72.26,362.21a.331.331,0,0,1,.082.006,8.4,8.4,0,0,1,3.538.957" transform="translate(-65.106 -362.195)" fill="none" stroke="#e84436" stroke-linecap="round" stroke-linejoin="round" stroke-miterlimit="10" stroke-width="1.5"/><path d="M71.7,363.164l.8-.378.579-.277c1.517,1.1,4.054,0,4.054,0a14.7,14.7,0,0,1,1.511,5.6h-.006a14.533,14.533,0,0,1-5.949,1.379,43.417,43.417,0,0,1-11.734-1.379s1.272-5.445,5.659-5.873a10.027,10.027,0,0,1,1.36-.038" transform="translate(-60.916 -362.187)" fill="none" stroke="#e84436" stroke-linecap="round" stroke-linejoin="round" stroke-miterlimit="10" stroke-width="1.5"/><path d="M75,363.834l1.895-.094H76.9" transform="translate(-66.121 -362.762)" fill="none" stroke="#e84436" stroke-linecap="round" stroke-linejoin="round" stroke-miterlimit="10" stroke-width="1.5"/><path d="M72.1,362.2a.566.566,0,0,1,.1.006.423.423,0,0,1,.082.006,3.6,3.6,0,0,1,1.643,1.051,15.654,15.654,0,0,1,1.737,2.052,1.98,1.98,0,0,1,.308.447,8.691,8.691,0,0,1,.844,3.72" transform="translate(-65.047 -362.191)" fill="none" stroke="#e84436" stroke-linecap="round" stroke-linejoin="round" stroke-miterlimit="10" stroke-width="1.5"/><path d="M60.93,370.89s-.145,1.889.164,2.191,10.009,2.241,17.815,0c0,0-.164-1.215-.3-2.191-.082-.648-.157-1.19-.157-1.19" transform="translate(-60.896 -364.97)" fill="none" stroke="#e84436" stroke-linecap="round" stroke-linejoin="round" stroke-miterlimit="10" stroke-width="1.5"/><path d="M79.182,366.71s.113,1.133-.932.724" transform="translate(-67.326 -363.862)" fill="none" stroke="#e84436" stroke-linecap="round" stroke-linejoin="round" stroke-miterlimit="10" stroke-width="1.5"/><path d="M79.35,363.26a2.652,2.652,0,0,1,1.492,1.114c.183.4-.283.693-.68.548" transform="translate(-67.733 -362.584)" fill="none" stroke="#e84436" stroke-linecap="round" stroke-linejoin="round" stroke-miterlimit="10" stroke-width="1.5"/></g><g transform="translate(71.218 129.398)"><path d="M117.219,209.6l-.2,2.046-3.884.3c.019-1.07.038-2.14.063-3.2s.05-2.128.088-3.2h2.4c-.069.674-.139,1.347-.2,2.014s-.113,1.347-.139,2.033c.145.006.29.006.428.006h.428c.17,0,.34,0,.51-.006Z" transform="translate(-113.14 -205.55)" fill="#fff"/></g><g transform="translate(84.837 21.207)"><path d="M134.866,34.758a10.481,10.481,0,0,0,3.613,4.577,10.767,10.767,0,0,0,2.638,1.416,4.481,4.481,0,0,0,1.53.422c.334.1.3.019-.107-.246-.245-.371-.353-.409-.327-.113a2.319,2.319,0,0,0-.038.837c-.044,4.3,3.047,8.473,7.554,8.681,1.643.076.976-1.951-.308-2.008a4.841,4.841,0,0,1-4-2.443,6.8,6.8,0,0,1-.825-2.505,7.631,7.631,0,0,1-.069-1.416,3.44,3.44,0,0,0-.05-1.366c-.365-1.032-1.309-1.228-2.247-1.46a7.51,7.51,0,0,1-2.21-.963,7.605,7.605,0,0,1-2.965-3.651c-.434-1.1-2.77-1.209-2.191.239Z" transform="translate(-134.774 -33.684)" fill="#eacf83"/></g><g transform="translate(53.233 17.876)"><path d="M84.916,46.194A9.766,9.766,0,0,0,91,45.848a10.6,10.6,0,0,0,2.858-1.618A10.208,10.208,0,0,0,95,43.16a6.972,6.972,0,0,1,1.083-1.228,3.713,3.713,0,0,1,1.347-.29,12.856,12.856,0,0,0,1.612-.409,13.142,13.142,0,0,0,3.1-1.423,12.149,12.149,0,0,0,4.52-4.7c1.02-2.021,1.36-4.577-.082-6.484-.573-.755-2.726.529-2.21,1.209,1.416,1.87.969,4.375-.239,6.238A9.234,9.234,0,0,1,98.6,39.905c-1.3.308-2.543.346-3.651,1.177-.913.686-1.479,1.712-2.373,2.417A6.8,6.8,0,0,1,86.5,44.551c-.793-.208-2.713,1.328-1.586,1.643Z" transform="translate(-84.571 -28.394)" fill="#eacf83"/></g><g transform="translate(10.523 34.606)"><path d="M41.26,56.273c.044,1.857.113,4.463-1.316,5.886a3.574,3.574,0,0,1-2.839.623c-1.259-.1-2.487-.39-3.733-.567a3.8,3.8,0,0,0-3.437,1.114,13.933,13.933,0,0,0-1.907,3.362c-.478.944-.888,2.31-2.046,2.55a7.593,7.593,0,0,1-3.406-.157c-2.273-.611-4.74-3.3-3.217-5.729.271-.434.057-.755-.441-.737a2.146,2.146,0,0,0-1.53.913,4.662,4.662,0,0,0,1.769,6.434,8.359,8.359,0,0,0,8.19.025A8.082,8.082,0,0,0,30,66.5c.384-.749.755-1.5,1.146-2.241.076-.145.17-.283.239-.434.019-.031.038-.063.063-.1q.312-.368-.246.076c0-.013,1.045.126,1.121.138,2.959.485,5.98,1.083,8.549-.906,2.392-1.844,2.7-4.916,2.631-7.724-.019-.869-2.266.138-2.247.969Z" transform="translate(-16.725 -54.97)" fill="#eacf83"/></g><g transform="translate(27.243 14.35)"><path d="M66.864,23.641a21.865,21.865,0,0,0-8.845-.661c-1.3.176-2.317.359-2.732,1.719-.453,1.492-.806,3.028-1.2,4.532l1.731.189a5.521,5.521,0,0,0-8.612,1.1,12.033,12.033,0,0,0-1.567,5.439c-.094,1.064-.132,2.134-.227,3.2a5.442,5.442,0,0,1-.252,1.53,1.625,1.625,0,0,1-.428.636c-.164.126-.6.113-.258.258-.346-.145-1.064-.371-1.177.183-.1.5.667,1.076,1.045,1.234a2.184,2.184,0,0,0,2.31-.12,3.083,3.083,0,0,0,.932-2.21,49.879,49.879,0,0,1,.642-6.125A7.055,7.055,0,0,1,50.8,30.295c1.026-.705,2.782-1.2,3.771-.2.334.334,1.53.957,1.731.189.327-1.246.661-2.487.988-3.733.139-.529.214-1.221.737-1.517a5.018,5.018,0,0,1,1.731-.346,19.223,19.223,0,0,1,7.548.592c.422.12.957.063.869-.491s-.837-1.014-1.309-1.146Z" transform="translate(-43.286 -22.792)" fill="#eacf83"/></g><g transform="translate(62.405 9.723)"><path d="M101.608,18.387a16.843,16.843,0,0,1,3.89-2.134,3.486,3.486,0,0,1,3.45.881,4.493,4.493,0,0,0,3.582,1.051,5.207,5.207,0,0,0,1.832-.56c.3-.151.831-.227-.076-.2-.951.038-.434-.057-.283.176.17.264.258.378.12.692-.088.2,1.177.214,1.272.208.3-.013,1.1.006,1.246-.334.711-1.618-2.984-1.291-3.626-1.083-.189.063-1.228.4-1.253.573.038-.246,1.467.359.523-.145a3.858,3.858,0,0,1-.46-.3,8.884,8.884,0,0,0-2.147-1.353,9.741,9.741,0,0,0-5.47-.057,16.586,16.586,0,0,0-5.024,2.543c-.277.189.85.29.894.29a2.762,2.762,0,0,0,1.53-.252Z" transform="translate(-99.14 -15.442)" fill="#eacf83"/></g><g transform="translate(81.166 3.055)"><path d="M130.792,11.472c.069.239-.025-.189-.031-.233.025.176-.006-.214-.006-.252a2.619,2.619,0,0,1,.1-.711,5.5,5.5,0,0,1,.6-1.435,5.5,5.5,0,0,1,.869-1.221,2.291,2.291,0,0,1,1.486-.441,3.85,3.85,0,0,1,1.649.138c-.057-.025-.031-.013.082.038.057.031.113.057.17.094-.157-.094.025.031.076.076-.283-.246.22.308-.044-.05.069.126.063.113-.019-.05.044.126.044.12,0-.031.019.126.019.12.006-.006-.006.113-.006.126.006.031a.813.813,0,0,1-.05.164c.044-.094.044-.094-.006-.013-.05.05-.082.113-.139.164.126-.113-.107.05-.138.069a1.26,1.26,0,0,1-.132.063c.082-.025.082-.025-.006,0a2.061,2.061,0,0,1-.283.025c.107.013.113.006.019-.006-.1-.031-.088-.025.044.025-.1-.057-.082-.044.063.05.132.145.157.164.082.063-.252-.353-.919-.737-1.259-.29-.359.485.025,1.209.315,1.612a1.853,1.853,0,0,0,2.889.264,2.094,2.094,0,0,0,.371-1.775,3.86,3.86,0,0,0-1.215-2.077,4.716,4.716,0,0,0-3.8-.844,2.711,2.711,0,0,0-1.737.812,6.3,6.3,0,0,0-.982,1.423,6.655,6.655,0,0,0-.743,1.958,5.5,5.5,0,0,0,.145,2.537c.132.472.693,1.139,1.24,1.07.617-.076.491-.844.378-1.24Z" transform="translate(-128.943 -4.85)" fill="#eacf83"/></g><g transform="translate(79.176 2.264)"><path d="M127.134,5.322c.126.038.1.025-.076-.031.126.057.094.038-.1-.05-.164-.132-.2-.151-.088-.063s.076.063-.05-.063c-.019.025.321.321.082.082a1.087,1.087,0,0,1,.126.2c.05.094.1.189.145.29.025.05.044.1.063.145-.044-.1-.044-.1-.006,0,.082.239.17.478.246.724a13.026,13.026,0,0,1,.56,3.066,1.577,1.577,0,0,0,1.058,1.234c.271.107,1.228.334,1.2-.258a14.315,14.315,0,0,0-.762-3.985,4.275,4.275,0,0,0-2.833-2.984c-.4-.107-1.045.013-.888.567a1.879,1.879,0,0,0,1.328,1.127Z" transform="translate(-125.782 -3.594)" fill="#eacf83"/></g><g transform="translate(81.358 8.057)"><path d="M129.25,14.026v.925a.249.249,0,0,0,.1.233.326.326,0,0,0,.239.138.923.923,0,0,0,.371.006,1.322,1.322,0,0,0,.434-.1c.1-.044.2-.088.308-.138a2.322,2.322,0,0,0,.522-.371c.063-.069.12-.138.183-.208a.727.727,0,0,0,.157-.4v-.925a.249.249,0,0,0-.1-.233.326.326,0,0,0-.239-.138.923.923,0,0,0-.371-.006,1.322,1.322,0,0,0-.434.1c-.1.044-.2.088-.308.138a2.322,2.322,0,0,0-.522.371c-.063.069-.12.138-.183.208a.727.727,0,0,0-.157.4Z" transform="translate(-129.249 -12.795)" fill="#eacf83"/></g><g transform="translate(1.713 24.847)"><path d="M15.4,39.544a23.267,23.267,0,0,1-7.34,4.564,6.8,6.8,0,0,1-1.832.422,3.414,3.414,0,0,0-.755-.019c-.151.063.283.082.227.12-.031.025-.233-.22-.252-.239a1.6,1.6,0,0,1-.176-1.844c.189-.3.409-.334.655-.541.415-.126.113-.283-.9-.478.031.05.057.094.088.145a1.737,1.737,0,0,1,.044.516c-.126.642,2.235,1.4,2.31,1,.208-1.076-.9-1.756-1.756-2.109a2.162,2.162,0,0,0-2.612.271,2.029,2.029,0,0,0,.264,2.606,5.717,5.717,0,0,0,2.852,1.618,8.147,8.147,0,0,0,5.672-1.051A25.7,25.7,0,0,0,17.549,40.7c.4-.365-1.706-1.549-2.147-1.158Z" transform="translate(-2.73 -39.466)" fill="#eacf83"/></g><g transform="translate(99.076 43.081)"><path d="M157.662,73.863a11.02,11.02,0,0,0,1.3,7.944,18.3,18.3,0,0,0,2.373,3.261c.768.856,1.725,2.159,2.883,2.48,2.776.781,5.011-2.65,5.773-4.841a3.164,3.164,0,0,0-.636-3.506,8.715,8.715,0,0,1-2.109-3.3,15.156,15.156,0,0,1-.611-4.728,8.475,8.475,0,0,0,.088-.951c0-.019-.283.063-.126.094a1.324,1.324,0,0,1,.34.057.985.985,0,0,1,.453,1.3c-.283.39-.353.957.208,1.108a1.731,1.731,0,0,0,1.574-.743,2.346,2.346,0,0,0,.013-3,2.587,2.587,0,0,0-3.116-.176,3.341,3.341,0,0,0-1.668,3.229,17.066,17.066,0,0,0,.46,4.306,9.156,9.156,0,0,0,1.882,3.651c.422.491,1.039.919,1.228,1.561a2.781,2.781,0,0,1-.34,1.945c-.428.9-1.221,2.826-2.424,1.895a16.588,16.588,0,0,1-2.82-3.041c-2-2.6-3.311-5.842-2.5-9.141.145-.585-.548-.692-.957-.6a1.76,1.76,0,0,0-1.272,1.19Z" transform="translate(-157.394 -68.431)" fill="#eacf83"/></g><g transform="translate(95.808 16.735)"><path d="M152.635,27.373c.585.837,1.171,1.668,1.763,2.505a18.765,18.765,0,0,1,1.7,2.575c.667,1.4.529,3.041,1.328,4.4a9.794,9.794,0,0,0,1.568,2.052,3.3,3.3,0,0,0,.85.585c.183.088.378.157.567.252.837.415-.183-.315-.069-.359.019-.006,1.391,5.445,1.5,5.924A4.088,4.088,0,0,0,162.7,46.6c.132.164.308.478.5.567.031.013.189.189.151.044-.283-1.171-.567-2.348-.85-3.519a13.612,13.612,0,0,0-.8-2.732,9.837,9.837,0,0,0-1.637-2.361,3.566,3.566,0,0,0-.951-.787c-.183-.1-.378-.17-.56-.252-.39-.176-.793-.642-.233.164.617.894.233.29.139-.013-.063-.208-.113-.422-.157-.63-.088-.4-.145-.806-.227-1.2a7.974,7.974,0,0,0-.995-2.518c-1.139-1.939-2.556-3.746-3.846-5.59-.151-.214-.718-1.19-1-1.19-.157-.006.359.724.4.793Z" transform="translate(-152.203 -26.58)" fill="#eacf83"/></g><g transform="translate(83.376 10.94)"><path d="M150.342,33.576c-.176-1.945-1.542-3.525-1.844-5.458a7.2,7.2,0,0,0-.976-3.066,10.076,10.076,0,0,0-1.914-2.027c-3.141-2.675-7.069-4.161-10.878-5.6a2.235,2.235,0,0,0-1.536.327c-.1.05-1.032.6-.648.743,3.733,1.41,7.567,2.858,10.676,5.426a9.674,9.674,0,0,1,2.027,2.153,7.151,7.151,0,0,1,.906,2.959c.3,1.933,1.668,3.506,1.844,5.458.031.346,2.4-.233,2.342-.919Z" transform="translate(-132.453 -17.376)" fill="#eacf83"/></g><g transform="translate(3.116 30.139)"><path d="M10.26,48.237a25.311,25.311,0,0,0-5.3,15.2C4.9,69.319,6.659,75.06,8.818,80.48c.4.995,2.9.831,2.449-.3-2.065-5.193-3.8-10.664-3.8-16.3a24.047,24.047,0,0,1,4.9-14.668c.844-1.1-1.479-1.807-2.115-.976Z" transform="translate(-4.958 -47.874)" fill="#eacf83"/></g><g transform="translate(10.191 8.626)"><path d="M18.163,35.046a34.723,34.723,0,0,0,5.672-5.156A15.076,15.076,0,0,0,25.73,26.97c.63-1.284,1.014-2.663,1.618-3.953a12.982,12.982,0,0,1,10.96-7.258c1.253-.057-.094-2.1-1.014-2.059A14.031,14.031,0,0,0,25.786,20.75,30.557,30.557,0,0,0,24.2,24.489a13.921,13.921,0,0,1-1.983,3.431,33.637,33.637,0,0,1-5.836,5.351c-.749.579.969,2.411,1.782,1.775Z" transform="translate(-16.197 -13.699)" fill="#eacf83"/></g><g transform="translate(14.458 4.738)"><path d="M24.621,28.094c4.067-2.845,4.564-7.982,7.353-11.747a5.084,5.084,0,0,1,2.3-1.857,18.578,18.578,0,0,1,4.715-.711,16,16,0,0,0,4.684-1.114c1.473-.617,2.845-1.448,4.281-2.14C51.533,8.805,55.493,9.045,59.351,9.3a2.225,2.225,0,0,0,1.561-.749c.214-.227.579-.812.006-.85-3.55-.233-7.2-.428-10.639.68-3.248,1.045-5.911,3.311-9.361,3.739a43.287,43.287,0,0,0-5.024.63,10.033,10.033,0,0,0-4.054,2.014,16.061,16.061,0,0,0-4.054,6.125c-1.058,2.392-2.033,5.131-4.262,6.692-.252.176-.812.737-.409,1.014s1.215-.3,1.5-.5Z" transform="translate(-22.975 -7.523)" fill="#eacf83"/></g><g transform="translate(30.809 4.666)"><path d="M50.152,13.5a31.014,31.014,0,0,0,5.647-2.04c1.511-.724,2.971-1.775,4.671-2a1.534,1.534,0,0,0,1.2-.862.716.716,0,0,0-.548-.925c-3.437-.995-6.635.925-9.329,2.839-.4.283-.875.831-.46,1.309a1.387,1.387,0,0,0,1.662.044c1.977-1.4,4.312-3.166,6.874-2.424.214-.6.434-1.19.648-1.788A16.491,16.491,0,0,0,55.27,9.777,24.8,24.8,0,0,1,50.2,11.69c-.522.138-1.234.46-1.246,1.1-.006.585.724.831,1.2.711Z" transform="translate(-48.95 -7.409)" fill="#eacf83"/></g><g transform="translate(49.638 0)"><path d="M88.133,3.757c-2.071.145-4.451.283-6.119-1.2a2.732,2.732,0,0,1-.774-1.039,1.426,1.426,0,0,1-.1-.63.762.762,0,0,1,.082-.264.706.706,0,0,1,.1-.138c-1.492.623-1.926.85-1.309.692a1.309,1.309,0,0,1,1.24.252.748.748,0,0,1,.057,1.032c-.126.12.2.057.17.057a3.1,3.1,0,0,0,.711-.258,4.553,4.553,0,0,0,1.347-.774.788.788,0,0,0,.126-.944A1.127,1.127,0,0,0,82.668,0a4.192,4.192,0,0,0-1.612.353,10.4,10.4,0,0,0-1.335.642,1.939,1.939,0,0,0-.73.6c-.422.749.252,1.612.793,2.084a5.416,5.416,0,0,0,2.443,1.133,13.865,13.865,0,0,0,3.752.076,3.975,3.975,0,0,0,1.448-.567,3.226,3.226,0,0,0,.648-.39c.025-.025.214-.183.057-.17Z" transform="translate(-78.86 0.004)" fill="#eacf83"/></g><g transform="translate(5.308 53.536)"><path d="M29.088,86.582a11.347,11.347,0,0,0-6.881,7.447c-.277.913-.46,2.109-1.366,2.625a6.374,6.374,0,0,1-2.934.485,5.235,5.235,0,0,1-3.355-.642,8.9,8.9,0,0,1-1.945-3.122,44.419,44.419,0,0,1-1.769-4.1c-.46-1.234-2.417-.466-2.4.667.044,2.751,1.725,5.061,3.431,7.076,1.674,1.977,3.909,4.117,6.7,2.826.957-.447,1.826-1.416,2.864-1.637.655-.132,1.36.044,2.027-.069a4,4,0,0,0,1.649-.674c1.819-1.309,2.027-3.7,2.908-5.584a8.589,8.589,0,0,1,5.842-4.721,1.2,1.2,0,0,0,1.076-1.246,1.18,1.18,0,0,0-1.41-.85A11.461,11.461,0,0,0,27.6,88.389a10.563,10.563,0,0,0-1.844,2.675c-.447.919-.692,1.914-1.051,2.864a3.706,3.706,0,0,1-1.24,2.008,3.306,3.306,0,0,1-1.492.126,4.933,4.933,0,0,0-1.926.378c-.957.422-1.763,1.335-2.764,1.624-.957.277-1.844-.68-2.436-1.3-1.863-1.977-3.884-4.363-3.928-7.214-.8.22-1.6.447-2.4.667a42.508,42.508,0,0,0,1.9,4.362,9.9,9.9,0,0,0,2.335,3.462,6.371,6.371,0,0,0,3.809,1.215,15.39,15.39,0,0,0,3.878-.246,4.889,4.889,0,0,0,3.223-2.065A23.734,23.734,0,0,0,25,93.368,9.03,9.03,0,0,1,30.064,88.5c1.53-.592.428-2.461-.976-1.914Z" transform="translate(-8.44 -85.04)" fill="#eacf83"/></g><g transform="translate(75.779 23.64)"><path d="M122.642,42.5c.233-.6.478-1.2.724-1.788.126-.29.246-.579.378-.869a2.6,2.6,0,0,1,.409-.743c-.038.038-.069.076-.107.113a.817.817,0,0,1,.277-.183c-.057.019-.113.038-.176.063a1.685,1.685,0,0,1,.17-.044c.145-.031-.239.013-.006.006-.2-.031-.239-.038-.132-.013-.22-.069-.277-.088-.164-.044-.233-.107-.3-.132-.183-.076q-.321-.2-.189-.113c.2.138-.22-.2-.076-.057q-.2-.208-.094-.094l.057.076c-.076-.12-.088-.138-.044-.057.019.031.031.069.05.1.031.069.05.138.076.208-.019-.057-.038-.12-.05-.176A3.12,3.12,0,0,1,123.6,40c-.025.189.252.46.365.56a2.552,2.552,0,0,0,.837.491,1.42,1.42,0,0,0,.787.113c.189-.05.283-.12.308-.327a2.868,2.868,0,0,0-.176-1.593,3.153,3.153,0,0,0-1.87-1.523,1.729,1.729,0,0,0-1.964.283,2.662,2.662,0,0,0-.359.674c-.12.271-.233.535-.346.806-.264.623-.523,1.246-.768,1.876-.176.453.541.913.869,1.07a2.017,2.017,0,0,0,.869.258c.145.006.422.006.491-.183Z" transform="translate(-120.386 -37.55)" fill="#eacf83"/></g><g transform="translate(29.401 49.52)"><path d="M46.969,84.609a12.569,12.569,0,0,0,8.24-2.5c.919-.674,2.4-1.945,1.165-3.041a2.074,2.074,0,0,0-1.914-.315,5.837,5.837,0,0,0-2.524,1.372c-.088.076-.264.3-.2.434s.346.126.466.113a3.041,3.041,0,0,0,1.6-.781c.006-.006.151-.038.05-.031-.025,0-.315.176-.334.145a1.672,1.672,0,0,1,.365.057,1.108,1.108,0,0,1,.692.837c.05.378-.22.617-.472.818-.164.132-.334.264-.51.384-.063.044-.069.05-.013.006l-.107.069c-.107.069-.22.132-.327.2-.189.113.019-.006-.1.057-.094.05-.189.094-.283.145a1.9,1.9,0,0,0-.2.094c.12-.057-.176.069-.2.082-.17.069-.46.164-.5.176-.2.063-.409.113-.617.164a8.567,8.567,0,0,1-2.512.164,2.587,2.587,0,0,0-1.618.617c-.214.157-.718.692-.157.73Z" transform="translate(-46.714 -78.66)" fill="#eacf83"/></g><g transform="translate(97.344 44.96)"><path d="M156.781,74.736a3.715,3.715,0,0,0,1.662.17A4.284,4.284,0,0,0,160,74.6a1.445,1.445,0,0,0,.888-1.2,1.765,1.765,0,0,0-.655-1.372,3.189,3.189,0,0,0-2.059-.6,7.616,7.616,0,0,0-3.387.6c-.1.044-.208.082-.113.176s.5.094.585.094a6.244,6.244,0,0,0,.969-.038,2.477,2.477,0,0,0,.743-.151c.12-.057.239-.107.359-.157.063-.025.126-.044.183-.063.17-.063-.107.019.05-.019a.918.918,0,0,0,.189-.044c-.145.031-.17.031-.063.019-.057.006-.113.019-.17.025.132-.013.082-.013-.145.013-.069,0-.138.006-.208.006q-.293-.009-.113,0c-.139-.013-.176-.013-.1-.006a.488.488,0,0,1,.094.013c-.088-.013-.1-.019-.044-.006s.12.025.183.044a1.832,1.832,0,0,1,.277.12,2.005,2.005,0,0,1,.529.415c-.019-.019-.031-.038-.05-.057a1.48,1.48,0,0,1,.227,1.775.383.383,0,0,1,.044-.063,1.608,1.608,0,0,1-.428.4c-.088.063.057-.013-.05.025-.05.019-.2.057.013,0a6.637,6.637,0,0,1,1.454-.082c.069.013.069.013.006-.006.057.019.05.019-.006-.006a1.7,1.7,0,0,0-.585-.094,6.215,6.215,0,0,0-.969.038,3,3,0,0,0-.743.151c-.057.038-.271.132-.126.2Z" transform="translate(-154.642 -71.417)" fill="#eacf83"/></g><g transform="translate(72.218 4.799)"><path d="M124.953,12.354c-2.474-2.594-5.848-5.294-9.688-4.633-1.3.22.05,2.247.995,2.084,3.173-.541,5.615,1.549,7.611,3.639.308.321,1.032.749,1.435.346s-.057-1.121-.353-1.435Z" transform="translate(-114.729 -7.619)" fill="#eacf83"/></g><g transform="translate(57.626 3.333)"><path d="M93.187,7.405c3.595-.63,7.088.636,10.544,1.442,3.6.837,7.227.667,10.9.63.308-.006-.277-.781-.34-.862-.183-.246-.743-1.089-1.114-1.089-3.777.044-7.479.2-11.18-.692-3.425-.818-6.862-1.989-10.425-1.366-.17.031.567,1.051.623,1.121.183.22.642.881.988.818Z" transform="translate(-91.55 -5.291)" fill="#eacf83"/></g><g transform="translate(0 51.502)"><path d="M3.182,82.741q.028,1.369.019,2.738c-.006.46-.013.913-.025,1.372-.013.359-.006.907-.044,1.165a1.245,1.245,0,0,1-.063.264c.006-.013.019-.025.025-.038q-.094.123-.019.038a.435.435,0,0,1,.138-.1.622.622,0,0,1,.233-.069c.113-.019.113-.019.006-.006.057,0,.113-.006.17-.006-.252.006.2.063-.031-.006-.063-.019-.283-.12-.063-.013-.164-.082-.334-.151-.491-.246.12.069-.013-.013-.057-.044a1.961,1.961,0,0,1-.208-.183c-.044-.044-.044-.044-.006,0l-.057-.076c-.05-.076-.094-.151-.138-.233-.082-.126-.031.025-.05-.126a1.793,1.793,0,0,1-.025-.264.378.378,0,0,1,.076-.233c.321-.472-.082-.913-.567-1.02a1.706,1.706,0,0,0-1.681.472,2,2,0,0,0,.692,2.77,3.578,3.578,0,0,0,3.676.453,1.782,1.782,0,0,0,.938-1.58c.044-.573.05-1.152.063-1.731.025-1.19.025-2.38-.006-3.576-.006-.227-.252-.422-.428-.51a1.734,1.734,0,0,0-.913-.132c-.485.069-1.177.327-1.165.919Z" transform="translate(-0.008 -81.809)" fill="#eacf83"/></g><path d="M117.461,348.226c-.447-.327-1.926,0-2.436.082a.324.324,0,0,0-.271.315l-.315,10.009a.332.332,0,0,0,.252.334c.724.164,2.707.541,3.11-.189.353-.642-.006-8.731-.069-10.242C117.732,348.383,117.587,348.32,117.461,348.226Z" transform="translate(-42.404 -128.959)" fill="#f3c8bb" stroke="#c69191" stroke-miterlimit="10" stroke-width="1.563"/><g transform="translate(69.789 228.293)"><path d="M121.634,366.218a2.1,2.1,0,0,1,.315-.447,15.912,15.912,0,0,1,1.731-2.052,3.6,3.6,0,0,1,1.643-1.051.333.333,0,0,1,.082-.006.577.577,0,0,1,.1-.006,9.118,9.118,0,0,1,1.36.044c4.388.422,5.659,5.867,5.659,5.867a43.374,43.374,0,0,1-11.734,1.379v-.006A8.692,8.692,0,0,1,121.634,366.218Z" transform="translate(-114.545 -362.647)" fill="#ee7358"/><path d="M121.893,366.4a2.1,2.1,0,0,0-.315.447c-1.045.409-.932-.724-.932-.724l-.006-.006c.667-.371,1.851-1.63,2.984-1.769A15.914,15.914,0,0,0,121.893,366.4Z" transform="translate(-114.49 -363.278)" fill="#ee7358"/><path d="M117.115,373.429a43.375,43.375,0,0,0,11.734-1.379s.145,1.889-.164,2.2-10.009,2.235-17.815,0c0,0,.164-1.221.3-2.2A14.557,14.557,0,0,0,117.115,373.429Z" transform="translate(-110.87 -366.131)" fill="#ee7358"/><path d="M118.129,366.331a8.692,8.692,0,0,0-.844,3.72v.006a14.556,14.556,0,0,1-5.949-1.379h-.006a15.128,15.128,0,0,1,1.612-5.691s3.267.705,4.035-.038l.554.334-.094.157a2.62,2.62,0,0,0-1.492,1.114c-.183.39.283.686.68.548a.714.714,0,0,0-.038.157c-.031.2,0,.415.258.453a.554.554,0,0,0,.346-.113l.006.006S117.084,366.74,118.129,366.331Z" transform="translate(-111.04 -362.759)" fill="#ee7358"/><g transform="translate(0 0)"><path d="M124.987,362.67a.338.338,0,0,0-.082.006,8.5,8.5,0,0,0-3.544.957,6.787,6.787,0,0,0-1.347.919,1.03,1.03,0,0,0-.3.447.716.716,0,0,0-.038.157c-.031.2,0,.416.258.453a.554.554,0,0,0,.346-.113c.667-.371,1.851-1.63,2.984-1.769" transform="translate(-114.128 -362.656)" fill="none" stroke="#e84436" stroke-linecap="round" stroke-linejoin="round" stroke-miterlimit="10" stroke-width="1.5"/><path d="M118.274,363.625l-.743-.453-.554-.334c-.768.743-4.035.038-4.035.038a15.128,15.128,0,0,0-1.612,5.691h.006a14.558,14.558,0,0,0,5.949,1.379,43.371,43.371,0,0,0,11.734-1.379s-1.272-5.445-5.659-5.867a9.139,9.139,0,0,0-1.36-.044" transform="translate(-111.04 -362.647)" fill="none" stroke="#e84436" stroke-linecap="round" stroke-linejoin="round" stroke-miterlimit="10" stroke-width="1.5"/><path d="M125.505,362.66a.583.583,0,0,0-.1.006.418.418,0,0,0-.082.006,3.6,3.6,0,0,0-1.643,1.051,15.911,15.911,0,0,0-1.731,2.052,2.1,2.1,0,0,0-.315.447,8.691,8.691,0,0,0-.844,3.72" transform="translate(-114.545 -362.652)" fill="none" stroke="#e84436" stroke-linecap="round" stroke-linejoin="round" stroke-miterlimit="10" stroke-width="1.5"/><path d="M128.849,371.35s.145,1.889-.164,2.2-10.009,2.235-17.815,0c0,0,.164-1.221.3-2.2.088-.642.157-1.184.157-1.19" transform="translate(-110.87 -365.43)" fill="none" stroke="#e84436" stroke-linecap="round" stroke-linejoin="round" stroke-miterlimit="10" stroke-width="1.5"/><path d="M120.648,367.17s-.113,1.133.932.724" transform="translate(-114.491 -364.323)" fill="none" stroke="#e84436" stroke-linecap="round" stroke-linejoin="round" stroke-miterlimit="10" stroke-width="1.5"/><path d="M120.128,363.73a2.62,2.62,0,0,0-1.492,1.114c-.183.39.283.686.68.548" transform="translate(-113.732 -363.048)" fill="none" stroke="#e84436" stroke-linecap="round" stroke-linejoin="round" stroke-miterlimit="10" stroke-width="1.5"/></g></g><path d="M64.65,304.07" transform="translate(-23.957 -112.652)" fill="#eed351" stroke="#e84436" stroke-linecap="round" stroke-miterlimit="10" stroke-width="4"/><path d="M106.05,301.49" transform="translate(-39.296 -111.696)" fill="#1d71b8" stroke="#5492c5" stroke-linecap="round" stroke-miterlimit="10" stroke-width="2"/><path d="M77.446,168.869S59.14,180.748,53.065,199.142C47.2,216.92,49,228.415,54.324,230.889c3.934,1.826,37.941,9.594,40.685-13.018,2.121-17.469-4.375-41.151-9.638-49.07,0,0-7.913,23.468-9.846,26.691a33.7,33.7,0,0,1-5.206,6.245" transform="translate(-18.315 -62.536)" fill="#fff" stroke="#497ea9" stroke-linecap="round" stroke-linejoin="round" stroke-miterlimit="10" stroke-width="3.66"/><g transform="translate(51.388 150.135)"><g transform="translate(3.67)"><path d="M114.539,258.119a1.5,1.5,0,0,1,.1,2.6c-.768.321-5.382-2.474-6.528-3.349s-3.292-3.5-5.861-3.1L87.6,256.992c-.724-2.8,1.9-6.591,1.9-7.68l11.275-2.518c1.026-.132,1.675-2.581,1.675-2.581s1.146-3.733,1.832-3.9,1.158-2.115,1.926-1.788.888,2.493.611,3.034-.812,2.38-1.454,2.738c1.5,2.782,7.825-1.624,9.871-1.473s1.272,2.449.617,2.707c-.617.245-6.465,2.411-5.773,2.946s6.9-.126,6.9-.126c1.473.34.7,2.367-.038,2.568s-7.378.8-7.258,1.02,5.628,1.876,6.465,1.737,1.662,2.027.51,2.644c-.938.5-5.433-.655-7.044-1.1-.076-.019-.107.1-.044.145C110.787,256.048,113.67,257.659,114.539,258.119Z" transform="translate(-87.469 -238.491)" fill="#f3c8bb"/><path d="M92.827,259.347c-.277.522,10.412-2.864,11.407-2.524a22.835,22.835,0,0,1,5.861,3.1c1.146.875,5.766,3.664,6.528,3.349a1.5,1.5,0,0,0-.1-2.6c-.869-.46-3.752-2.071-4.967-2.751-.069-.038-.031-.164.044-.145,1.618.447,6.113,1.612,7.044,1.1,1.152-.617.327-2.77-.51-2.644s-6.345-1.523-6.465-1.737,6.528-.818,7.258-1.02,1.511-2.228.038-2.568c0,0-6.207.661-6.9.126s5.156-2.7,5.773-2.946c.655-.258,1.423-2.562-.617-2.707s-8.36,4.256-9.871,1.473" transform="translate(-89.452 -241.041)" fill="none" stroke="#c69191" stroke-linecap="round" stroke-linejoin="round" stroke-miterlimit="10" stroke-width="1.861"/><path d="M108.232,244.312c.642-.359,1.171-2.2,1.454-2.738s.157-2.726-.611-3.034-1.234,1.624-1.926,1.788-1.832,3.9-1.832,3.9-.648,2.449-1.675,2.581c0,0-7.309,2.568-8.423,2.184" transform="translate(-90.341 -238.496)" fill="none" stroke="#c69191" stroke-linecap="round" stroke-linejoin="round" stroke-miterlimit="10" stroke-width="1.861"/><path d="M95.57,254.74" transform="translate(-90.471 -244.511)" fill="#f3c8bb"/></g><path d="M99.77,247.29s3.764,1.007,4.148.655c0,0,3.16,7.63,1.5,12.137,0,0-10.362.522-14.082,1.272a25.617,25.617,0,0,1-6.446.529l-3.255-11.7s13.6,1.013,15.291.441S99.77,247.29,99.77,247.29Z" transform="translate(-81.64 -241.751)" fill="#1d71b8" stroke="#5492c5" stroke-linecap="round" stroke-linejoin="round" stroke-miterlimit="10" stroke-width="1.902"/><g transform="translate(17.337 8.026)"><path d="M109.18,251.24s4.123,7.856,3.62,9.827" transform="translate(-109.18 -251.24)" fill="#1d71b8"/><path d="M109.18,251.24s.05.094.138.264" transform="translate(-109.18 -251.24)" fill="none" stroke="#5492c5" stroke-linecap="round" stroke-linejoin="round" stroke-width="0.475"/><path d="M109.81,252.49c.919,1.832,3.116,6.4,3.255,8.454" transform="translate(-109.413 -251.703)" fill="none" stroke="#5492c5" stroke-linecap="round" stroke-linejoin="round" stroke-width="0.475" stroke-dasharray="0.932 0.932"/><path d="M114.978,266.39a1.992,1.992,0,0,1-.038.3" transform="translate(-111.314 -256.853)" fill="none" stroke="#5492c5" stroke-linecap="round" stroke-linejoin="round" stroke-width="0.475"/></g><g transform="translate(15.02 9.599)"><path d="M105.5,253.74s3.676,6.717,3.179,8.687" transform="translate(-105.5 -253.74)" fill="#1d71b8"/><path d="M105.5,253.74s.05.094.138.264" transform="translate(-105.5 -253.74)" fill="none" stroke="#5492c5" stroke-linecap="round" stroke-linejoin="round" stroke-width="0.475"/><path d="M106.15,254.98c.844,1.63,2.707,5.426,2.808,7.321" transform="translate(-105.741 -254.199)" fill="none" stroke="#5492c5" stroke-linecap="round" stroke-linejoin="round" stroke-width="0.475" stroke-dasharray="0.927 0.927"/><path d="M110.584,267.08a1.392,1.392,0,0,1-.044.3" transform="translate(-107.367 -258.682)" fill="none" stroke="#5492c5" stroke-linecap="round" stroke-linejoin="round" stroke-width="0.475"/></g><g transform="translate(12.187 9.92)"><path d="M101,254.25s3.626,6.622,3.122,8.593" transform="translate(-101 -254.25)" fill="#1d71b8"/><path d="M101,254.25s.05.094.138.264" transform="translate(-101 -254.25)" fill="none" stroke="#5492c5" stroke-linecap="round" stroke-linejoin="round" stroke-width="0.475"/><path d="M101.65,255.47c.831,1.612,2.663,5.351,2.757,7.233" transform="translate(-101.241 -254.702)" fill="none" stroke="#5492c5" stroke-linecap="round" stroke-linejoin="round" stroke-width="0.475" stroke-dasharray="0.915 0.915"/><path d="M106,267.42a1.391,1.391,0,0,1-.044.3" transform="translate(-102.838 -259.129)" fill="none" stroke="#5492c5" stroke-linecap="round" stroke-linejoin="round" stroke-width="0.475"/></g><g transform="translate(9.89 9.625)"><path d="M97.35,253.78s2.587,7.107,2.084,9.077" transform="translate(-97.35 -253.78)" fill="#1d71b8"/><path d="M97.35,253.78s.038.1.1.277" transform="translate(-97.35 -253.78)" fill="none" stroke="#5492c5" stroke-linecap="round" stroke-linejoin="round" stroke-width="0.475"/><path d="M97.81,255.1c.592,1.731,1.876,5.722,1.857,7.655" transform="translate(-97.52 -254.269)" fill="none" stroke="#5492c5" stroke-linecap="round" stroke-linejoin="round" stroke-width="0.475" stroke-dasharray="0.929 0.929"/><path d="M100.71,267.73a1.926,1.926,0,0,1-.05.3" transform="translate(-98.576 -258.948)" fill="none" stroke="#5492c5" stroke-linecap="round" stroke-linejoin="round" stroke-width="0.475"/></g><g transform="translate(6.843 9.234)"><path d="M92.51,253.16s2.908,8.039,2.4,10.009" transform="translate(-92.51 -253.16)" fill="#1d71b8"/><path d="M92.51,253.16s.038.1.1.283" transform="translate(-92.51 -253.16)" fill="none" stroke="#5492c5" stroke-linecap="round" stroke-linejoin="round" stroke-width="0.475"/><path d="M92.97,254.46c.648,1.888,2.172,6.541,2.178,8.605" transform="translate(-92.68 -253.642)" fill="none" stroke="#5492c5" stroke-linecap="round" stroke-linejoin="round" stroke-width="0.475" stroke-dasharray="0.911 0.911"/><path d="M96.384,268.59a1.756,1.756,0,0,1-.044.29" transform="translate(-93.929 -258.877)" fill="none" stroke="#5492c5" stroke-linecap="round" stroke-linejoin="round" stroke-width="0.475"/></g><g transform="translate(3.985 9.228)"><path d="M87.97,253.15s2.776,8.077,2.273,10.047" transform="translate(-87.97 -253.15)" fill="#1d71b8"/><path d="M87.97,253.15s.031.1.094.283" transform="translate(-87.97 -253.15)" fill="none" stroke="#5492c5" stroke-linecap="round" stroke-linejoin="round" stroke-width="0.475"/><path d="M88.4,254.46c.617,1.9,2.071,6.572,2.058,8.643" transform="translate(-88.129 -253.635)" fill="none" stroke="#5492c5" stroke-linecap="round" stroke-linejoin="round" stroke-width="0.475" stroke-dasharray="0.912 0.912"/><path d="M91.62,268.65a1.719,1.719,0,0,1-.05.29" transform="translate(-89.304 -258.893)" fill="none" stroke="#5492c5" stroke-linecap="round" stroke-linejoin="round" stroke-width="0.475"/></g></g><path d="M89.123,169.74S73.429,216.941,85.5,234" transform="translate(-29.992 -62.884)" fill="none" stroke="#497ea9" stroke-linecap="round" stroke-miterlimit="10" stroke-width="3.66"/><path d="M94.95,167v3.708S97.978,168.379,94.95,167Z" transform="translate(-35.183 -61.869)" fill="#c69191"/></g><ellipse cx="81.5" cy="21" rx="81.5" ry="21" transform="translate(841 979)" fill="rgba(11,1,1,0.5)"/><ellipse cx="81.5" cy="21" rx="81.5" ry="21" transform="translate(1195 861)" fill="rgba(22,110,98,0.55)"/><ellipse cx="81.5" cy="21" rx="81.5" ry="21" transform="translate(477 853)" fill="rgba(181,32,20,0.37)"/><path d="M8450.068,591.761s-72.189-15.376-134.379-4.308-55,52.174-71.014,60.06" transform="translate(-6975 56)" fill="none"/><g transform="translate(1611.197 81.125)"><circle cx="32.479" cy="32.479" r="32.479" transform="translate(0 10.733)" fill="#fff"/><circle cx="32.479" cy="32.479" r="32.479" transform="translate(35.36 0)" fill="#fff"/><path d="M196.782,63.3c-2.439,5.971-11.756,6.621-22.373,4.252-18.958-4.252-42.121-18.145-37.776-28.808A32.485,32.485,0,0,1,196.782,63.3Z" transform="translate(-71.721 6.071)" fill="#fff"/><path d="M194.183,54.361l-36.522.441-36.522.72L140.353,28.48l32.781,6.064Z" transform="translate(-91.518 19.24)" fill="#fff"/></g><g transform="translate(660.332 93.252)"><ellipse cx="41.006" cy="45.606" rx="41.006" ry="45.606" transform="translate(0 87.953) rotate(-67.795)" fill="#fff"/><ellipse cx="41.006" cy="45.606" rx="41.006" ry="45.606" transform="translate(48.386 75.926) rotate(-67.795)" fill="#fff"/><path d="M866.277,112.692c-3.067,7.527-15.914,7.9-30.76,4.321-26.462-6.389-59.174-25.37-53.691-38.8,8.549-20.956,34.407-30.249,57.71-20.724C862.862,66.993,874.827,91.713,866.277,112.692Z" transform="translate(-679.194 -7.449)" fill="#fff"/><path d="M862.112,101.411,811.6,100.157l-50.485-.883L786.374,65.54l45.652,9.386Z" transform="translate(-705.79 8.153)" fill="#fff"/></g></g></svg>