<svg xmlns="http://www.w3.org/2000/svg" width="311.767" height="546.394" viewBox="0 0 311.767 546.394"><g transform="translate(-289.287 -455.341)"><g transform="translate(395.256 455.341)"><path d="M127.7,663.911V214.22s29.03,44.272,40.434,5.317L156.308,752.5H127.7Z" transform="translate(-126.904 -206.104)" fill="#b17f49"/><path d="M127.715,215.948c-6.256-7.727,20.221-11.328,20.221-11.328s17.728.583,20.221,16.189C168.166,220.809,160.871,256.814,127.715,215.948Z" transform="translate(-126.759 -204.62)" fill="#c38347"/></g><path d="M661.99,584.787,459.8,567.406,436.95,523.37l38.575-17.33,188.114,60.436Z" transform="translate(-147.663 51.488)" fill="#f8bb03"/><path d="M448.621,614.34,645.9,645.628l19.08,43.351-39.209,13.56L445.62,631.543Z" transform="translate(-149.003 34.742)" fill="#89cdcf"/><text transform="matrix(0.982, 0.191, -0.191, 0.982, 321.437, 591.849)" fill="#fff" font-size="15" font-family="Laca-Bold, Laca" font-weight="700"><tspan x="0" y="0">KINDERAFDELING</tspan></text><path d="M672.24,758.4l-200.22,33.114L439,754.5l33.1-26.325,197.21,12.08Z" transform="translate(-147.98 17.142)" fill="#f8bb03"/><text transform="translate(335.023 780.16) rotate(-3.308)" fill="#fff" font-size="15" font-family="Laca-Bold, Laca" font-weight="700"><tspan x="0" y="0">RADIOLOGIE</tspan></text><text transform="translate(388.809 687.742) rotate(19.999)" fill="#fff" font-size="15" font-family="Laca-Bold, Laca" font-weight="700"><tspan x="0" y="0">LABO</tspan></text><path d="M440.95,453.428,712.19,443.19l37.146,46.031-48.567,25.116-259.159-40.13Z" transform="translate(-148.281 61.206)" fill="#86cccf"/><text transform="translate(421.69 538.06) rotate(6.021)" fill="#fff" font-size="23" font-family="Laca-Bold, Laca" font-weight="700"><tspan x="0" y="0">SPOED</tspan></text></g></svg>