<svg xmlns="http://www.w3.org/2000/svg" width="589.794" height="488.339" viewBox="0 0 589.794 488.339"><g transform="translate(0.003 0.001)"><path d="M310.292,174.54l8.5,43.756a50.437,50.437,0,0,1-.249,11.852c-.943,5.525-8.84,9.891-14.809,7.1s-4.561-14.722-8.634-25.285-12.664-36.281-12.664-36.281Z" transform="translate(23.308 14.544)" fill="#f1c8bb" stroke="#b69a93" stroke-width="4.182"/><path d="M300.845,149.426s4.615,6.478,8.3,20.941-7.41,23.985-17.788,23.367-11.3-34.558-13-44.406,27.9-36.79,27.9-36.79l24.711-4.8s55.336,12.772,64.588,23.27,13.422,20.356,14.311,36.053,17.3,66.7,17.3,66.7,34.6,86.71,67.751,114.031-102.656,59.529-102.656,59.529-11.288-72.063-31.579-128.829-49.606-98.225-49.606-98.225" transform="translate(22.962 8.978)" fill="#f1c8bb" stroke="#b69a93" stroke-width="3.485"/><path d="M412.288,199.956,394.532,99.315a32.565,32.565,0,0,0-11.191-17.539l-35.62-21.948A13.177,13.177,0,0,0,340.842,57c-8.948-.942-28.242-.585-14.137,23.248,17.962,30.355,43.875,31.6,45.034,49.985s-4.723,54.134-4.723,54.134" transform="translate(26.58 4.728)" fill="#f1c8bb" stroke="#b69a93" stroke-width="3.485"/><path d="M265.215,127.467s-8.58,25.729-12.664,36.281-2.665,22.49-8.634,25.285-13.867-1.571-14.809-7.1a49.875,49.875,0,0,1-.249-11.852l8.5-43.756Z" transform="translate(18.824 10.527)" fill="#f1c8bb" stroke="#b69a93" stroke-width="4.182"/><path d="M250.841,132.07s-29.3,41.459-49.606,98.225-31.579,128.829-31.579,128.829S33.862,326.906,67,299.585s67.751-114.031,67.751-114.031,16.4-51,17.3-66.7S157.112,93.3,166.364,82.8s64.588-23.27,64.588-23.27l24.711,4.8s29.6,26.932,27.9,36.79-2.611,43.8-13,44.406-21.472-8.9-17.788-23.367,8.3-20.941,8.3-20.941" transform="translate(4.922 4.961)" fill="#f1c8bb" stroke="#b69a93" stroke-width="3.485"/><g transform="translate(174.239 -0.001)"><circle cx="12.946" cy="12.946" r="12.946" transform="translate(82.478 96.731)" fill="#858584"/><circle cx="12.946" cy="12.946" r="12.946" transform="translate(139.905 111.54)" fill="#858584"/><path d="M259.169,98.884s-5.146,11.667,13.921,16.586,23.812.4,25.047-4.236S272.656,86.241,259.169,98.884Z" transform="translate(-152.923 7.9)" fill="#858584"/><path d="M334.692,14.863C313.936,5.46,291.544-.065,268.74,0c-9.295.022-18.362.942-25.415,3.467-24.05,8.612-93.968,77.133-76.082,110.586s57.113,2.253,59.334-.292c2.1-2.416,56.16-22.154,99.514,17.16a48.28,48.28,0,0,1,10.92,14.852c3.5,7.247,8.461,17.55,10.042,20.887,2.524,5.33,47.32,14.614,53.961-17.2S401.133,51.4,369.24,31.9C356.142,23.909,344.052,19.11,334.692,14.863Z" transform="translate(-160.771 0.001)" fill="#a4a3a3"/><circle cx="25.415" cy="25.415" r="25.415" transform="translate(72.999 10)" stroke="#000" stroke-miterlimit="10" stroke-width="1.642"/><circle cx="9.869" cy="9.869" r="9.869" transform="translate(163.792 38.513)" fill="#e30613"/><circle cx="9.869" cy="9.869" r="9.869" transform="translate(168.83 66.549)" fill="#bdd059"/><circle cx="9.869" cy="9.869" r="9.869" transform="translate(200.907 64.632)" fill="#86cccf"/><circle cx="9.869" cy="9.869" r="9.869" transform="translate(194.201 39.055)" fill="#eed351"/><circle cx="11.797" cy="11.797" r="11.797" transform="translate(88.089 75.14)" stroke="#000" stroke-miterlimit="10" stroke-width="1.642"/><circle cx="11.797" cy="11.797" r="11.797" transform="translate(148.452 88.595)" stroke="#000" stroke-miterlimit="10" stroke-width="1.642"/><path d="M263.609,20.612l.9,3.943a7.806,7.806,0,0,0,2.1,3.813l2.795,2.752a8.2,8.2,0,0,1-3.488,13.531l-3.781,1.062a7.834,7.834,0,0,0-3.683,2.318l-2.7,3.022a7.314,7.314,0,0,1-12.762-3.293l-.9-3.943a7.806,7.806,0,0,0-2.1-3.813L237.2,37.252a8.2,8.2,0,0,1,3.488-13.531l3.781-1.062a7.834,7.834,0,0,0,3.683-2.318l2.7-3.022A7.317,7.317,0,0,1,263.609,20.612Z" transform="translate(-154.893 1.228)" fill="#e84436"/><path d="M169.966,74.17s11.527,39.13,44.991,41.773C214.957,115.943,134.8,200.724,169.966,74.17Z" transform="translate(-161.046 6.181)" fill="#858584" stroke="#858584" stroke-linecap="round" stroke-linejoin="round" stroke-miterlimit="10" stroke-width="2.19"/><path d="M387.993,131.22S358.981,159.9,328.41,146.029c0-.011,29.152,112.969,59.583-14.809" transform="translate(-147.1 10.935)" fill="#858584" stroke="#858584" stroke-linecap="round" stroke-linejoin="round" stroke-miterlimit="10" stroke-width="2.19"/></g><path d="M2.72,373.393s52.466-85.3,55.835-100.24,24.873-15.47,30.831-4.886,89.277,46.9,98.724,46.821S154.852,412.3,154.852,412.3Z" transform="translate(0 21.751)" fill="#ee7358" stroke="#e84437" stroke-width="3.485"/><path d="M404.353,460.515s-42.7-97.294-33.258-97.207,92.765-36.237,98.724-46.821,27.462-10.053,30.831,4.886,55.835,100.24,55.835,100.24Z" transform="translate(30.582 25.769)" fill="#ee7358" stroke="#e84437" stroke-width="3.485"/><path d="M391.333,197.123,363.654,177.45a37.5,37.5,0,0,1-13.867-18.709c-4.474-13.455-12.7-35.609-22.035-48.316-14.072-19.142-28.394-23.53-33.865-4.182s12.783,36.237,18.709,69.766-2.7,39.639,4.983,64.328,44,35.609,44,35.609" transform="translate(24.178 7.81)" fill="#f1c8bb" stroke="#b79b93" stroke-linecap="round" stroke-miterlimit="4.001" stroke-width="3.485"/><path d="M138.05,157.069,158.07,52.354a34.156,34.156,0,0,1,11.592-18.081L205.769,12.12a12.941,12.941,0,0,1,6.944-2.806c8.97-.791,28.242,0,13.617,24.581-18.644,31.319-44.579,32.045-46.139,51.22s3.51,56.626,3.51,56.626" transform="translate(11.277 0.761)" fill="#f1c8bb" stroke="#b69a93" stroke-width="3.561"/><path d="M190.848,227.736s36.313-10.92,44-35.609-.942-30.8,4.983-64.328,24.18-50.418,18.709-69.766-19.792-14.961-33.865,4.182c-9.349,12.707-17.572,34.861-22.035,48.316a37.457,37.457,0,0,1-13.867,18.709L161.1,148.913" transform="translate(13.197 3.793)" fill="#f1c8bb" stroke="#b79b93" stroke-linecap="round" stroke-miterlimit="4.001" stroke-width="3.485"/></g></svg>