<svg xmlns="http://www.w3.org/2000/svg" width="518.927" height="639.063" viewBox="0 0 518.927 639.063"><g transform="translate(3.638 -582.747)"><path d="M592.426,1844.571s-4.661,35.615-7.29,50.369,2.212,29.911-4.833,35.053-18.427,1.458-21.042-5.485a66.6,66.6,0,0,1-3.323-15.349v-59.032Z" transform="translate(145.659 -1101.192) rotate(11)" fill="#f2c8bb" stroke="#b69a93" stroke-width="6"/><path d="M551.418,1856.465s-27.622,61.312-39.664,140.24-8.5,175.471-8.5,175.471-184.7-7.563-148.516-51.456S414,1955.346,414,1955.346s8.44-70.457,5.631-91.089.119-34.5,9.5-50.488,78.09-46.583,78.09-46.583h33.342s45.286,27.538,45.569,40.777,7.68,57.606-5.672,61.02-30.171-6.156-29.04-25.891,5.492-29.323,5.492-29.323" transform="translate(150.731 -1106.318) rotate(11)" fill="#f2c8bb" stroke="#b69a93" stroke-width="5"/><path d="M291.665,2250s46.655-124.163,47.267-144.435,28.435-26.4,38.854-14.143,127.929,38.408,140.187,35.919S499.3,2262.133,499.3,2262.133Z" transform="translate(145.659 -1101.192) rotate(11)" fill="#ee7358" stroke="#e94437" stroke-width="5"/><g transform="translate(251.315 582.747) rotate(2)" fill="#e84436" stroke="#fff" stroke-width="5"><rect width="174" height="266" rx="42" stroke="none"/><rect x="2.5" y="2.5" width="169" height="261" rx="39.5" fill="none"/></g><g transform="matrix(0.995, 0.105, -0.105, 0.995, -375.222, -72.606)"><path d="M37.373,68.115l-.339.261v-.524c-3.6-2.806-20.783-16.409-32.1-29.425C-7.728,23.872,4.308-18.413,37.373,9.1c33.065-27.511,45.1,14.774,32.443,29.329-11.32,13.016-28.5,26.618-32.1,29.425v.524Z" transform="translate(748.815 658.864)" fill="#fff" stroke="#fff" stroke-width="1"/><path d="M692.37,1869.1h15.211l4.953-25.99,9.381,49.2,5.962-32.349h98.634l2.735,13.935,5.868-35.473,6.227,51.327,6.369-31.979h16.468" transform="translate(7.609 -1172.664)" fill="none" stroke="#fff" stroke-width="4"/></g><g transform="translate(369.36 593.312) rotate(33)" fill="#e84436" stroke="#fff" stroke-width="5"><rect width="174" height="266" rx="50" stroke="none"/><rect x="2.5" y="2.5" width="169" height="261" rx="47.5" fill="none"/></g><path d="M37.373,68.115l-.339.261v-.524c-3.6-2.806-20.783-16.409-32.1-29.425C-7.728,23.872,4.308-18.413,37.373,9.1c33.065-27.511,45.1,14.774,32.443,29.329-11.32,13.016-28.5,26.618-32.1,29.425v.524Z" transform="translate(355.207 700.929) rotate(29)" fill="#fff" stroke="#fff" stroke-width="1"/><path d="M692.37,1869.1h15.211l4.953-25.99,9.381,49.2,5.962-32.349h98.634l2.735,13.935,5.868-35.473,6.227,51.327,6.369-31.979h16.468" transform="translate(594.876 -1260.306) rotate(29)" fill="#fff" stroke="#fff" stroke-width="4"/><path d="M521.147,1986.209s42.708-26.417,44.075-60.634-11.764-39.081-15.685-84,13.641-72.792,0-95.661-30.446-12.352-41.886,16.964-12.271,85.165-12.271,85.165L471.426,1877" transform="matrix(0.966, 0.259, -0.259, 0.966, 280.288, -1107.244)" fill="#f2c8bb" stroke="#b79b93" stroke-linecap="round" stroke-width="5"/></g></svg>