<svg xmlns="http://www.w3.org/2000/svg" width="268.15" height="93.15" viewBox="0 0 268.15 93.15"><g transform="translate(-173.95 -554.05)"><path d="M703.15,599.19,463.98,578.63l-27.03-52.09,45.63-20.5L705.1,577.53Z" transform="translate(-263 48.01)" fill="#f8bb03"/><path d="M7.514-4.822c2.131-.579,3.2-2.093,3.2-4.5a7.362,7.362,0,0,0-.654-3.177l-2.822.729a8.454,8.454,0,0,1,.411,2.523c0,1.794-.822,2.355-3.065,2.355H4.318v-5.458H1.271V0H4.318V-4.5h.467a7.5,7.5,0,0,0,1.925,3.2A6.468,6.468,0,0,0,11.327.224l.262-2.841A4.442,4.442,0,0,1,7.514-4.822ZM16.392,0V-12.355H13.345V0ZM27.121-5.589l-6.934-6.766H18.953V0h2.916V-6.71L28.784,0H30V-12.355H27.121Zm5.42-6.766V0h4.766c4.635,0,6.972-2.374,6.972-6.355,0-3.906-2.542-6-6.972-6Zm3.047,9.888v-7.42h1.7c2.561,0,3.869,1.477,3.869,3.7,0,2.486-1.271,3.72-3.832,3.72ZM53.98-12.355H46.074V0H53.98V-2.467H49.12v-2h3.589V-6.8H49.12V-9.888h4.86Zm8.28,8.6a3.967,3.967,0,0,0,3.327-4.224c0-2.9-1.794-4.374-5.776-4.374H55.83V0h3.047V-3.514h.43a5.845,5.845,0,0,0,1.925,2.486A8.116,8.116,0,0,0,66.054.206l.168-2.579A6.132,6.132,0,0,1,62.26-3.757ZM59.942-9.869c1.682,0,2.523.673,2.523,2.037,0,1.4-.9,1.925-2.673,1.925h-.916V-9.869ZM79.138,0,73.325-12.374h-.617L67.008,0h2.86l.673-1.514h5.047L76.278,0ZM73.026-7.1l1.533,3.346H71.531Zm15.14-5.252H80.26V0h3.047V-4.355h3.589V-6.673H83.306V-9.888h4.86Zm1.776,0V0h4.766c4.635,0,6.972-2.374,6.972-6.355,0-3.906-2.542-6-6.972-6Zm3.047,9.888v-7.42h1.7c2.561,0,3.869,1.477,3.869,3.7,0,2.486-1.271,3.72-3.832,3.72Zm18.392-9.888h-7.906V0h7.906V-2.467h-4.86v-2h3.589V-6.8h-3.589V-9.888h4.86Zm4.9,0h-3.047V0h7.514V-2.467h-4.467ZM125.548,0V-12.355H122.5V0Zm10.729-5.589-6.934-6.766h-1.234V0h2.916V-6.71L137.94,0h1.215V-12.355h-2.878Zm10.953-1.14V-4.3h2.692a2.4,2.4,0,0,1-2.6,1.944c-2.243,0-3.252-1.477-3.252-3.925,0-2.411,1.308-3.682,3.252-3.682A2.181,2.181,0,0,1,149.734-8.3l2.654-.729c-.318-2.3-2.112-3.57-5.047-3.57-2.449,0-4.336.785-5.514,2.748a7.111,7.111,0,0,0-.878,3.645c0,2.224.561,3.85,1.7,4.9A6.53,6.53,0,0,0,147.192.243a6.145,6.145,0,0,0,3.794-1.178,5.773,5.773,0,0,0,1.888-4.617l.019-1.178Z" transform="matrix(0.982, 0.191, -0.191, 0.982, 211.897, 595.08)" fill="#fff"/></g></svg>