<svg xmlns="http://www.w3.org/2000/svg" width="259.48" height="104.33" viewBox="0 0 259.48 104.33"><g transform="translate(-182.62 -662.35)"><path d="M449.17,614.34l233.36,37.01,22.57,51.28-46.38,16.04-213.1-83.98Z" transform="translate(-263 48.01)" fill="#89cdcf"/><path d="M4.318-12.355H1.271V0H8.785V-2.467H4.318ZM21.588,0,15.775-12.374h-.617L9.458,0h2.86l.673-1.514h5.047L18.728,0ZM15.476-7.1l1.533,3.346H13.981ZM30.055-5.944a2.935,2.935,0,0,0,2.467-2.991c0-2.28-1.682-3.42-5.028-3.42H22.71V0h5.308c2.9,0,4.71-1.121,4.71-3.234C32.728-4.748,31.831-5.551,30.055-5.944ZM27.42-10.037c1.308,0,1.963.5,1.963,1.533s-.654,1.551-1.963,1.551H25.756v-3.084ZM25.756-2.318V-4.635h1.832c1.364,0,2,.318,2,1.159,0,.878-.71,1.159-2,1.159ZM40.092.243A6.042,6.042,0,0,0,44.653-1.5a6.668,6.668,0,0,0,1.7-4.86c0-4.037-2.318-6.243-6.205-6.243C36.279-12.6,34-10.392,34-6.262a6.588,6.588,0,0,0,1.645,4.822A5.946,5.946,0,0,0,40.092.243Zm.056-2.523c-1.888,0-3.009-1.383-3.009-4,0-2.523,1.009-3.794,3.028-3.794,2.037,0,3.047,1.252,3.047,3.776C43.214-3.7,42.074-2.28,40.148-2.28Z" transform="translate(291.524 708.494) rotate(19.999)" fill="#fff"/></g></svg>