<svg xmlns="http://www.w3.org/2000/svg" width="364.79" height="84.16" viewBox="0 0 364.79 84.16"><g transform="translate(-177.95 -491.2)"><path d="M440.95,455.3,761.8,443.19l43.94,54.45-57.45,29.71L441.73,479.88Z" transform="translate(-263 48.01)" fill="#86cccf"/><path d="M8.359.365a8.7,8.7,0,0,0,5.582-1.627,5.1,5.1,0,0,0,2.048-4.152c0-2.581-1.571-4.4-4.741-5.442l-2.889-.926c-1.543-.5-2.3-1.15-2.3-1.936,0-.9.926-1.4,2.132-1.4a2.9,2.9,0,0,1,3.2,2.553l4.18-1.122c-.477-4.039-3.787-5.218-6.816-5.218-3.675,0-7.377,1.767-7.377,5.919,0,2.525,1.4,4.292,4.208,5.274l3.591,1.29c1.683.589,2.132.982,2.132,1.627,0,.926-.757,1.4-2.272,1.4-2.048,0-3.422-.9-3.759-2.5L.842-4.713C1.4-1.346,4.18.365,8.359.365ZM18.794-18.542V0h4.572V-4.208H25.05c5.189,0,8.359-2.5,8.359-7.349,0-4.657-2.889-6.985-8.7-6.985ZM23.367-7.91v-6.9H24.91c2.609,0,3.815,1.066,3.815,3.422,0,2.328-1.346,3.478-4.039,3.478ZM44.209.365a9.068,9.068,0,0,0,6.845-2.609,10.007,10.007,0,0,0,2.553-7.293c0-6.059-3.478-9.369-9.313-9.369-5.807,0-9.229,3.31-9.229,9.509,0,3.142.813,5.554,2.469,7.237A8.923,8.923,0,0,0,44.209.365Zm.084-3.787c-2.833,0-4.516-2.076-4.516-6,0-3.787,1.515-5.694,4.544-5.694,3.058,0,4.572,1.879,4.572,5.666C48.893-5.554,47.182-3.422,44.293-3.422Zm23.872-15.12H56.3V0H68.165V-3.7H60.871v-3h5.386v-3.506H60.871v-4.628h7.293Zm2.777,0V0h7.153c6.957,0,10.463-3.563,10.463-9.537,0-5.863-3.815-9-10.463-9ZM75.514-3.7V-14.839h2.553c3.843,0,5.807,2.216,5.807,5.554,0,3.731-1.907,5.582-5.751,5.582Z" transform="translate(330.448 532.175) rotate(6.021)" fill="#fff"/></g></svg>