<svg xmlns="http://www.w3.org/2000/svg" width="259.48" height="104.33" viewBox="0 0 259.48 104.33"><g transform="translate(-182.62 -662.35)"><path d="M449.17,614.34l233.36,37.01,22.57,51.28-46.38,16.04-213.1-83.98Z" transform="translate(-263 48.01)" fill="#89cdcf"/><path d="M4.318-12.355H1.271V0H8.785V-2.467H4.318ZM21.588,0,15.775-12.374h-.617L9.458,0h2.86l.673-1.514h5.047L18.728,0ZM15.476-7.1l1.533,3.346H13.981ZM30.055-5.944a2.935,2.935,0,0,0,2.467-2.991c0-2.28-1.682-3.42-5.028-3.42H22.71V0h5.308c2.9,0,4.71-1.121,4.71-3.234C32.728-4.748,31.831-5.551,30.055-5.944ZM27.42-10.037c1.308,0,1.963.5,1.963,1.533s-.654,1.551-1.963,1.551H25.756v-3.084ZM25.756-2.318V-4.635h1.832c1.364,0,2,.318,2,1.159,0,.878-.71,1.159-2,1.159Z" transform="translate(291.524 708.494) rotate(19.999)" fill="#fff"/></g></svg>