<svg xmlns="http://www.w3.org/2000/svg" width="275.9" height="74.93" viewBox="0 0 275.9 74.93"><g transform="translate(-176 -776.18)"><path d="M714.9,763.93,478.06,803.1,439,759.31l39.15-31.14,233.28,14.29Z" transform="translate(-263 48.01)" fill="#f8bb03"/><path d="M7.7-3.757a3.967,3.967,0,0,0,3.327-4.224c0-2.9-1.794-4.374-5.776-4.374H1.271V0H4.318V-3.514h.43A5.845,5.845,0,0,0,6.673-1.028,8.116,8.116,0,0,0,11.5.206l.168-2.579A6.132,6.132,0,0,1,7.7-3.757ZM5.383-9.869c1.682,0,2.523.673,2.523,2.037,0,1.4-.9,1.925-2.673,1.925H4.318V-9.869ZM24.579,0,18.766-12.374h-.617L12.448,0h2.86l.673-1.514h5.047L21.719,0ZM18.467-7.1,20-3.757H16.972ZM25.7-12.355V0h4.766c4.635,0,6.972-2.374,6.972-6.355,0-3.906-2.542-6-6.972-6Zm3.047,9.888v-7.42h1.7c2.561,0,3.869,1.477,3.869,3.7,0,2.486-1.271,3.72-3.832,3.72ZM42.279,0V-12.355H39.233V0Zm7.906.243A6.042,6.042,0,0,0,54.746-1.5a6.668,6.668,0,0,0,1.7-4.86c0-4.037-2.318-6.243-6.205-6.243-3.869,0-6.149,2.206-6.149,6.336a6.588,6.588,0,0,0,1.645,4.822A5.946,5.946,0,0,0,50.186.243Zm.056-2.523c-1.888,0-3.009-1.383-3.009-4,0-2.523,1.009-3.794,3.028-3.794,2.037,0,3.047,1.252,3.047,3.776C53.307-3.7,52.167-2.28,50.242-2.28ZM61.288-12.355H58.241V0h7.514V-2.467H61.288ZM72.634.243A6.042,6.042,0,0,0,77.194-1.5a6.668,6.668,0,0,0,1.7-4.86c0-4.037-2.318-6.243-6.205-6.243-3.869,0-6.149,2.206-6.149,6.336a6.588,6.588,0,0,0,1.645,4.822A5.946,5.946,0,0,0,72.634.243ZM72.69-2.28c-1.888,0-3.009-1.383-3.009-4,0-2.523,1.009-3.794,3.028-3.794,2.037,0,3.047,1.252,3.047,3.776C75.755-3.7,74.615-2.28,72.69-2.28ZM86.222-6.729V-4.3h2.692a2.4,2.4,0,0,1-2.6,1.944c-2.243,0-3.252-1.477-3.252-3.925,0-2.411,1.308-3.682,3.252-3.682A2.181,2.181,0,0,1,88.727-8.3l2.654-.729c-.318-2.3-2.112-3.57-5.047-3.57-2.449,0-4.336.785-5.514,2.748a7.111,7.111,0,0,0-.878,3.645c0,2.224.561,3.85,1.7,4.9A6.53,6.53,0,0,0,86.185.243,6.145,6.145,0,0,0,89.979-.935a5.773,5.773,0,0,0,1.888-4.617l.019-1.178ZM96.745,0V-12.355H93.7V0Zm10.467-12.355H99.306V0h7.906V-2.467h-4.86v-2h3.589V-6.8h-3.589V-9.888h4.86Z" transform="translate(228.076 817.841) rotate(-3.308)" fill="#fff"/></g></svg>