<svg xmlns="http://www.w3.org/2000/svg" width="661" height="715" viewBox="0 0 661 715"><g transform="translate(-5665 -3916)"><rect width="177" height="81" rx="40.5" transform="translate(5683 3929)" fill="#2bb2d9"/><path d="M-19.89-4.947a2.626,2.626,0,0,1-1.071.153c-1.479,0-1.938-.612-1.938-2.6v-6.12c0-6.273-2.754-9.384-8.313-9.384a10.8,10.8,0,0,0-6.783,2.4V-35.5h-7.9V0h7.9V-14.484a6.459,6.459,0,0,1,3.978-1.428c2.193,0,3.315,1.377,3.315,4.131v5.712c0,5.1,2.091,6.732,6.12,6.732a10.061,10.061,0,0,0,5-1.122Zm26.979,0a2.382,2.382,0,0,1-.867.153c-1.785,0-2.193-.918-2.193-3.417v-5.916c0-6.987-5.457-8.772-10.353-8.772a19.042,19.042,0,0,0-9.537,2.6l.816,5.865A14.6,14.6,0,0,1-7.7-16.728c2.652,0,3.978,1.02,3.978,3.009v1.173a20.388,20.388,0,0,0-3.621-.306c-6.324,0-10.353,2.193-10.353,6.885,0,4.08,3.009,6.63,7.956,6.63A11.877,11.877,0,0,0-2.7-1.53C-1.734-.051-.1.663,2.193.663A10.618,10.618,0,0,0,7.4-.459Zm-14.178.408c-1.632,0-2.448-.612-2.448-1.785,0-1.428,1.173-2.142,3.468-2.142a16.145,16.145,0,0,1,2.346.255v2.652A6.607,6.607,0,0,1-7.089-4.539ZM24.531-22.9a8.949,8.949,0,0,0-6.375,2.754l-.2-2.091H10.4V0h7.905V-13.974A5.982,5.982,0,0,1,22.083-15.2a6.589,6.589,0,0,1,4.029.918l.459-.2v-8.109A6.35,6.35,0,0,0,24.531-22.9ZM47.073-6.63a7.811,7.811,0,0,1-3.876.969,3.964,3.964,0,0,1-3.009-1.02,4.66,4.66,0,0,1-.867-3.06V-16.32H46.41v-5.916H39.321v-6.069l-7.905.612v5.457h-3.06v5.916h3.06V-7.8c0,5.661,2.958,8.466,8.874,8.466,3.162,0,5.559-.561,7.191-1.734Z" transform="translate(5772 3987)" fill="#fff"/><rect width="209" height="81" rx="40.5" transform="translate(6055 3916)" fill="#d4322c"/><path d="M-19.227-4.947a2.508,2.508,0,0,1-1.02.153c-1.479,0-1.989-.612-1.989-2.6v-6.12c0-6.273-2.754-9.384-8.262-9.384a10.959,10.959,0,0,0-7.6,3.366Q-40.086-22.9-44.982-22.9a10.621,10.621,0,0,0-6.477,2.4l-.2-1.734h-7.548V0h7.905V-14.637a5.726,5.726,0,0,1,3.468-1.275c2.142,0,3.213,1.377,3.213,4.08V0h7.905V-13.617a6.205,6.205,0,0,0-.051-1.071,6.132,6.132,0,0,1,3.519-1.224c2.091,0,3.111,1.377,3.111,4.131v5.712c0,5.049,2.193,6.732,6.273,6.732a10.469,10.469,0,0,0,5-1.122Zm27.03,0a2.382,2.382,0,0,1-.867.153c-1.785,0-2.193-.918-2.193-3.417v-5.916C4.743-21.114-.714-22.9-5.61-22.9a19.042,19.042,0,0,0-9.537,2.6l.816,5.865a14.6,14.6,0,0,1,7.344-2.295c2.652,0,3.978,1.02,3.978,3.009v1.173a20.388,20.388,0,0,0-3.621-.306c-6.324,0-10.353,2.193-10.353,6.885,0,4.08,3.009,6.63,7.956,6.63A11.877,11.877,0,0,0-1.989-1.53C-1.02-.051.612.663,2.907.663a10.618,10.618,0,0,0,5.2-1.122Zm-14.178.408c-1.632,0-2.448-.612-2.448-1.785,0-1.428,1.173-2.142,3.468-2.142a16.145,16.145,0,0,1,2.346.255v2.652A6.607,6.607,0,0,1-6.375-4.539Zm41.361-.408a2.382,2.382,0,0,1-.867.153c-1.785,0-2.193-.918-2.193-3.417v-5.916c0-6.987-5.457-8.772-10.353-8.772a19.042,19.042,0,0,0-9.537,2.6l.816,5.865A14.6,14.6,0,0,1,20.2-16.728c2.652,0,3.978,1.02,3.978,3.009v1.173a20.388,20.388,0,0,0-3.621-.306c-6.324,0-10.353,2.193-10.353,6.885,0,4.08,3.009,6.63,7.956,6.63A11.877,11.877,0,0,0,25.194-1.53c.969,1.479,2.6,2.193,4.9,2.193a10.618,10.618,0,0,0,5.2-1.122Zm-14.178.408c-1.632,0-2.448-.612-2.448-1.785,0-1.428,1.173-2.142,3.468-2.142a16.145,16.145,0,0,1,2.346.255v2.652A6.607,6.607,0,0,1,20.808-4.539ZM49.98-22.8c-.816-.051-1.479-.1-1.938-.1-6.477,0-10.659,3.417-10.659,8.721A7.822,7.822,0,0,0,41.31-7.089c-2.3,1.683-3.468,3.672-3.468,5.967a4.187,4.187,0,0,0,1.326,3.264,5.9,5.9,0,0,0-2.5,4.641c0,3.417,3.213,5.763,10.506,5.763a19.606,19.606,0,0,0,10-2.244A6.843,6.843,0,0,0,61,4.08c0-4.029-3.009-6.63-9.18-6.63H47.838c-2.3,0-3.468-.51-3.468-1.53a1.886,1.886,0,0,1,.969-1.581,14.451,14.451,0,0,0,2.754.2c6.477,0,10.506-3.264,10.506-8.721a8.523,8.523,0,0,0-1.02-4.233l3.519.2v-4.539ZM48.042-10.608c-1.785,0-3.009-1.479-3.009-3.723,0-2.091,1.122-3.417,2.958-3.417,1.989,0,2.958,1.173,2.958,3.519C50.949-11.985,49.878-10.608,48.042-10.608ZM50.8,3.672c2.4,0,3.57.51,3.57,1.479,0,1.275-1.836,1.938-5.508,1.938-3.927,0-5.457-.561-5.457-1.938a1.984,1.984,0,0,1,.663-1.479H50.8Z" transform="translate(6160 3967)" fill="#fff"/><rect width="229" height="81" rx="40.5" transform="translate(6097 4250)" fill="#50b4a1"/><path d="M-42.177-4.947a2.98,2.98,0,0,1-1.071.153c-1.479,0-1.989-.714-1.989-2.6v-6.12c0-6.273-2.805-9.384-8.364-9.384a10.709,10.709,0,0,0-6.885,2.5l-.2-1.836h-7.548V0h7.9V-14.535a6.689,6.689,0,0,1,3.927-1.377c2.193,0,3.264,1.377,3.264,4.182v5.661c0,5.049,2.193,6.732,6.273,6.732A9.477,9.477,0,0,0-41.922-.459Zm10.047-22.44a4.586,4.586,0,0,0,0-6.477,4.525,4.525,0,0,0-6.426,0,4.586,4.586,0,0,0,0,6.477A4.525,4.525,0,0,0-32.13-27.387ZM-33.048.663A9.991,9.991,0,0,0-28.1-.459l-.255-4.488a3.505,3.505,0,0,1-1.122.153c-1.428,0-1.938-.612-1.938-2.6V-22.236h-7.905V-6.069C-39.321-.969-37.128.663-33.048.663ZM-4.08-12.9a9.727,9.727,0,0,0-2.856-7.14A10.436,10.436,0,0,0-14.688-22.9c-6.987,0-11.526,4.59-11.526,11.781,0,7.344,4.08,11.781,12.8,11.781a13.957,13.957,0,0,0,8.721-2.55L-6.12-6.732A12.087,12.087,0,0,1-12.087-5.2C-15.4-5.2-17.391-6.63-18-9.435H-4.488A16.477,16.477,0,0,0-4.08-12.9Zm-14.076-.969c.408-2.7,1.734-4.029,3.927-4.029a3.255,3.255,0,0,1,3.57,3.213,6.985,6.985,0,0,1,.1.816ZM14.127-22.9a8.949,8.949,0,0,0-6.375,2.754l-.2-2.091H0V0H7.905V-13.974A5.982,5.982,0,0,1,11.679-15.2a6.589,6.589,0,0,1,4.029.918l.459-.2v-8.109A6.35,6.35,0,0,0,14.127-22.9Zm25.755,10a9.727,9.727,0,0,0-2.856-7.14A10.436,10.436,0,0,0,29.274-22.9c-6.987,0-11.526,4.59-11.526,11.781,0,7.344,4.08,11.781,12.8,11.781a13.957,13.957,0,0,0,8.721-2.55L37.842-6.732A12.087,12.087,0,0,1,31.875-5.2c-3.315,0-5.3-1.428-5.916-4.233H39.474A16.477,16.477,0,0,0,39.882-12.9Zm-14.076-.969c.408-2.7,1.734-4.029,3.927-4.029a3.255,3.255,0,0,1,3.57,3.213,6.984,6.984,0,0,1,.1.816ZM70.023-4.947a2.98,2.98,0,0,1-1.071.153c-1.479,0-1.989-.714-1.989-2.6v-6.12c0-6.273-2.805-9.384-8.364-9.384a10.709,10.709,0,0,0-6.885,2.5l-.2-1.836H43.962V0h7.905V-14.535a6.689,6.689,0,0,1,3.927-1.377c2.193,0,3.264,1.377,3.264,4.182v5.661c0,5.049,2.193,6.732,6.273,6.732A9.477,9.477,0,0,0,70.278-.459Z" transform="translate(6209 4304)" fill="#fff"/><rect width="317" height="81" rx="40.5" transform="translate(5665 4206)" fill="#7b5aa2"/><path d="M-97.537-4.947a3.391,3.391,0,0,1-1.071.153c-1.428,0-1.989-.612-1.989-2.6V-35.5H-108.5v13.464a13.138,13.138,0,0,0-4.641-.867,11.555,11.555,0,0,0-8.313,3.162c-2.142,2.091-3.213,5.151-3.213,9.129,0,6.987,3.468,11.271,9.792,11.271a10.171,10.171,0,0,0,7.242-2.805c.969,1.887,2.805,2.805,5.508,2.805A9.722,9.722,0,0,0-97.282-.459Zm-19.074-6.171c0-3.621,1.887-5.61,5.355-5.61a10.289,10.289,0,0,1,2.754.408v9.384a7.147,7.147,0,0,1-3.825,1.173Q-116.611-5.763-116.611-11.118ZM-87.49-27.387a4.586,4.586,0,0,0,0-6.477,4.525,4.525,0,0,0-6.426,0,4.586,4.586,0,0,0,0,6.477A4.525,4.525,0,0,0-87.49-27.387ZM-88.408.663A9.991,9.991,0,0,0-83.461-.459l-.255-4.488a3.505,3.505,0,0,1-1.122.153c-1.428,0-1.938-.612-1.938-2.6V-22.236h-7.9V-6.069C-94.681-.969-92.488.663-88.408.663ZM-65.56-11.271a13.33,13.33,0,0,0,6.579-10.965h-7.446a8.207,8.207,0,0,1-5.865,7.344V-35.5h-7.9V0h7.9V-8.721l.816-.153C-69.079-2.6-65.152.612-58.216.663l1.581-6.681a12.9,12.9,0,0,1-4.9-1.632A11.572,11.572,0,0,1-65.56-11.271Zm26.877,0A13.33,13.33,0,0,0-32.1-22.236H-39.55a8.207,8.207,0,0,1-5.865,7.344V-35.5h-7.9V0h7.9V-8.721l.816-.153C-42.2-2.6-38.275.612-31.339.663l1.581-6.681a12.9,12.9,0,0,1-4.9-1.632A11.572,11.572,0,0,1-38.683-11.271ZM-5.89-12.9a9.727,9.727,0,0,0-2.856-7.14A10.436,10.436,0,0,0-16.5-22.9c-6.987,0-11.526,4.59-11.526,11.781,0,7.344,4.08,11.781,12.8,11.781A13.957,13.957,0,0,0-6.5-1.887L-7.93-6.732A12.087,12.087,0,0,1-13.9-5.2c-3.315,0-5.3-1.428-5.916-4.233H-6.3A16.477,16.477,0,0,0-5.89-12.9Zm-14.076-.969c.408-2.7,1.734-4.029,3.927-4.029a3.255,3.255,0,0,1,3.57,3.213,6.985,6.985,0,0,1,.1.816ZM35.267-4.947a3.39,3.39,0,0,1-1.071.153c-1.428,0-1.989-.612-1.989-2.6V-35.5H24.3v13.464a13.138,13.138,0,0,0-4.641-.867,11.555,11.555,0,0,0-8.313,3.162c-2.142,2.091-3.213,5.151-3.213,9.129C8.135-3.621,11.6.663,17.927.663a10.171,10.171,0,0,0,7.242-2.805c.969,1.887,2.8,2.805,5.508,2.805A9.722,9.722,0,0,0,35.522-.459ZM16.193-11.118c0-3.621,1.887-5.61,5.355-5.61a10.289,10.289,0,0,1,2.754.408v9.384a7.147,7.147,0,0,1-3.825,1.173Q16.193-5.763,16.193-11.118ZM62.45-4.947a2.382,2.382,0,0,1-.867.153c-1.785,0-2.193-.918-2.193-3.417v-5.916c0-6.987-5.457-8.772-10.353-8.772A19.042,19.042,0,0,0,39.5-20.3l.816,5.865a14.6,14.6,0,0,1,7.344-2.295c2.652,0,3.978,1.02,3.978,3.009v1.173a20.388,20.388,0,0,0-3.621-.306c-6.324,0-10.353,2.193-10.353,6.885,0,4.08,3.009,6.63,7.956,6.63A11.877,11.877,0,0,0,52.658-1.53c.969,1.479,2.6,2.193,4.9,2.193a10.618,10.618,0,0,0,5.2-1.122Zm-14.178.408c-1.632,0-2.448-.612-2.448-1.785,0-1.428,1.173-2.142,3.468-2.142a16.145,16.145,0,0,1,2.346.255v2.652A6.607,6.607,0,0,1,48.272-4.539ZM79.892-22.9a8.949,8.949,0,0,0-6.375,2.754l-.2-2.091H65.765V0h7.9V-13.974A5.982,5.982,0,0,1,77.444-15.2a6.589,6.589,0,0,1,4.029.918l.459-.2v-8.109A6.35,6.35,0,0,0,79.892-22.9ZM125.231-4.947a2.508,2.508,0,0,1-1.02.153c-1.479,0-1.989-.612-1.989-2.6v-6.12c0-6.273-2.754-9.384-8.262-9.384a10.959,10.959,0,0,0-7.6,3.366Q104.372-22.9,99.476-22.9A10.621,10.621,0,0,0,93-20.5l-.2-1.734H85.247V0h7.9V-14.637a5.726,5.726,0,0,1,3.468-1.275c2.142,0,3.213,1.377,3.213,4.08V0h7.9V-13.617a6.205,6.205,0,0,0-.051-1.071,6.132,6.132,0,0,1,3.519-1.224c2.091,0,3.111,1.377,3.111,4.131v5.712c0,5.049,2.193,6.732,6.273,6.732a10.469,10.469,0,0,0,5-1.122Z" transform="translate(5824 4258)" fill="#fff"/><rect width="247" height="81" rx="40.5" transform="translate(5987 4408)" fill="#f08b9e"/><path d="M-66.2.663A9.991,9.991,0,0,0-61.251-.459l-.255-4.488a2.98,2.98,0,0,1-1.071.153c-1.479,0-1.989-.612-1.989-2.6V-35.5h-7.9V-6.069C-72.471-.969-70.329.663-66.2.663Zm18.87,0C-43.6.663-40.7-.408-38.556-2.6a11.772,11.772,0,0,0,3.264-8.721c0-7.293-4.488-11.577-11.832-11.577-3.723,0-6.681,1.02-8.874,3.111s-3.264,4.947-3.264,8.568a11.742,11.742,0,0,0,3.213,8.67A11.945,11.945,0,0,0-47.328.663Zm.1-5.967c-2.4,0-3.978-2.3-3.978-5.967,0-3.621,1.53-5.712,4.029-5.712,2.448,0,3.927,2.091,3.927,5.712C-43.248-7.6-44.778-5.3-47.226-5.3Zm41.973.357a2.98,2.98,0,0,1-1.071.153c-1.479,0-1.989-.714-1.989-2.6v-6.12c0-6.273-2.805-9.384-8.364-9.384a10.709,10.709,0,0,0-6.885,2.5l-.2-1.836h-7.548V0h7.905V-14.535a6.689,6.689,0,0,1,3.927-1.377c2.193,0,3.264,1.377,3.264,4.182v5.661c0,5.049,2.193,6.732,6.273,6.732A9.477,9.477,0,0,0-5-.459ZM9.741-22.8c-.816-.051-1.479-.1-1.938-.1-6.477,0-10.659,3.417-10.659,8.721A7.822,7.822,0,0,0,1.071-7.089C-1.224-5.406-2.4-3.417-2.4-1.122A4.187,4.187,0,0,0-1.071,2.142a5.9,5.9,0,0,0-2.5,4.641c0,3.417,3.213,5.763,10.506,5.763a19.606,19.606,0,0,0,10-2.244A6.843,6.843,0,0,0,20.757,4.08c0-4.029-3.009-6.63-9.18-6.63H7.6c-2.3,0-3.468-.51-3.468-1.53A1.886,1.886,0,0,1,5.1-5.661a14.451,14.451,0,0,0,2.754.2c6.477,0,10.506-3.264,10.506-8.721a8.523,8.523,0,0,0-1.02-4.233l3.519.2v-4.539ZM7.8-10.608c-1.785,0-3.009-1.479-3.009-3.723,0-2.091,1.122-3.417,2.958-3.417,1.989,0,2.958,1.173,2.958,3.519C10.71-11.985,9.639-10.608,7.8-10.608Zm2.754,14.28c2.4,0,3.57.51,3.57,1.479,0,1.275-1.836,1.938-5.508,1.938-3.927,0-5.457-.561-5.457-1.938a1.984,1.984,0,0,1,.663-1.479h6.732ZM44.115-12.9a9.727,9.727,0,0,0-2.856-7.14A10.436,10.436,0,0,0,33.507-22.9c-6.987,0-11.526,4.59-11.526,11.781,0,7.344,4.08,11.781,12.8,11.781A13.957,13.957,0,0,0,43.5-1.887L42.075-6.732A12.087,12.087,0,0,1,36.108-5.2c-3.315,0-5.3-1.428-5.916-4.233H43.707A16.477,16.477,0,0,0,44.115-12.9Zm-14.076-.969c.408-2.7,1.734-4.029,3.927-4.029a3.255,3.255,0,0,1,3.57,3.213,6.984,6.984,0,0,1,.1.816ZM74.256-4.947a2.98,2.98,0,0,1-1.071.153c-1.479,0-1.989-.714-1.989-2.6v-6.12c0-6.273-2.805-9.384-8.364-9.384a10.709,10.709,0,0,0-6.885,2.5l-.2-1.836H48.2V0H56.1V-14.535a6.689,6.689,0,0,1,3.927-1.377c2.193,0,3.264,1.377,3.264,4.182v5.661c0,5.049,2.193,6.732,6.273,6.732A9.477,9.477,0,0,0,74.511-.459Z" transform="translate(6111 4463)" fill="#fff"/><rect width="195" height="81" rx="40.5" transform="translate(5695 4414)" fill="#ac4364"/><path d="M-42.636-22.9a10.4,10.4,0,0,0-6.426,2.04V-35.5h-7.9V.051H-50.8l.357-.969A11.341,11.341,0,0,0-44.37.663,11.312,11.312,0,0,0-36.159-2.5c2.142-2.091,3.213-5.151,3.213-9.129C-32.946-18.615-36.567-22.9-42.636-22.9ZM-46-5.508a11.141,11.141,0,0,1-3.06-.459V-15.3a6.562,6.562,0,0,1,3.825-1.224c2.805,0,4.233,1.785,4.233,5.406C-41-7.6-42.891-5.508-46-5.508ZM-22.746.663A9.991,9.991,0,0,0-17.8-.459l-.255-4.488a2.98,2.98,0,0,1-1.071.153c-1.479,0-1.989-.612-1.989-2.6V-35.5h-7.905V-6.069C-29.019-.969-26.877.663-22.746.663ZM9.231-4.947a2.382,2.382,0,0,1-.867.153c-1.785,0-2.193-.918-2.193-3.417v-5.916C6.171-21.114.714-22.9-4.182-22.9a19.042,19.042,0,0,0-9.537,2.6l.816,5.865a14.6,14.6,0,0,1,7.344-2.295c2.652,0,3.978,1.02,3.978,3.009v1.173A20.388,20.388,0,0,0-5.2-12.852c-6.324,0-10.353,2.193-10.353,6.885,0,4.08,3.009,6.63,7.956,6.63A11.877,11.877,0,0,0-.561-1.53C.408-.051,2.04.663,4.335.663a10.618,10.618,0,0,0,5.2-1.122Zm-14.178.408c-1.632,0-2.448-.612-2.448-1.785,0-1.428,1.173-2.142,3.468-2.142a16.145,16.145,0,0,1,2.346.255v2.652A6.607,6.607,0,0,1-4.947-4.539Zm41.361-.408a2.382,2.382,0,0,1-.867.153c-1.785,0-2.193-.918-2.193-3.417v-5.916C33.354-21.114,27.9-22.9,23-22.9a19.042,19.042,0,0,0-9.537,2.6l.816,5.865a14.6,14.6,0,0,1,7.344-2.295c2.652,0,3.978,1.02,3.978,3.009v1.173a20.388,20.388,0,0,0-3.621-.306c-6.324,0-10.353,2.193-10.353,6.885,0,4.08,3.009,6.63,7.956,6.63A11.877,11.877,0,0,0,26.622-1.53c.969,1.479,2.6,2.193,4.9,2.193a10.618,10.618,0,0,0,5.2-1.122Zm-14.178.408c-1.632,0-2.448-.612-2.448-1.785,0-1.428,1.173-2.142,3.468-2.142a16.145,16.145,0,0,1,2.346.255v2.652A6.607,6.607,0,0,1,22.236-4.539ZM48.348.663c6.477,0,10.659-2.805,10.659-7.344,0-3.621-2.6-5.355-8.262-7.242-2.754-.765-4.437-1.53-4.437-2.55,0-.969.816-1.479,2.5-1.479,2.4,0,3.774,1.02,4.182,3.009l5.763-1.581C58.191-20.451,54.57-23,49.215-23a13,13,0,0,0-7.14,1.938,6.341,6.341,0,0,0-3.009,5.712,5.538,5.538,0,0,0,1.785,4.386,13.1,13.1,0,0,0,3.723,2.091c.867.357,1.938.765,3.264,1.224a26.116,26.116,0,0,1,2.856,1.02c.612.255.918.561.918.867,0,.765-1.173,1.275-2.958,1.275q-3.9,0-4.743-2.907L37.944-5.661C39.219-1.428,42.687.663,48.348.663Z" transform="translate(5791 4471)" fill="#fff"/><rect width="317" height="81" rx="40.5" transform="translate(5794 4550)" fill="#f8c146"/><path d="M-107.788-4.947a3.391,3.391,0,0,1-1.071.153c-1.428,0-1.989-.612-1.989-2.6V-35.5h-7.905v13.464a13.138,13.138,0,0,0-4.641-.867,11.555,11.555,0,0,0-8.313,3.162c-2.142,2.091-3.213,5.151-3.213,9.129,0,6.987,3.468,11.271,9.792,11.271a10.171,10.171,0,0,0,7.242-2.805c.969,1.887,2.805,2.805,5.508,2.805a9.722,9.722,0,0,0,4.845-1.122Zm-19.074-6.171c0-3.621,1.887-5.61,5.355-5.61a10.289,10.289,0,0,1,2.754.408v9.384a7.147,7.147,0,0,1-3.825,1.173Q-126.862-5.763-126.862-11.118Zm47.889,6.171a3.922,3.922,0,0,1-1.683.1c-.867-.153-1.326-.969-1.326-2.55V-22.236h-7.854V-7.65a6.259,6.259,0,0,1-3.621,1.275q-3.06,0-3.06-4.131v-11.73h-7.8V-8.772c0,6.171,2.907,9.435,8.058,9.435a10.335,10.335,0,0,0,7.089-2.805C-88.306-.255-86.419.663-83.614.663A9.991,9.991,0,0,0-78.667-.459Zm29.682,0a2.98,2.98,0,0,1-1.071.153c-1.479,0-1.989-.714-1.989-2.6v-6.12c0-6.273-2.805-9.384-8.364-9.384A10.709,10.709,0,0,0-67.6-20.4l-.2-1.836h-7.548V0h7.9V-14.535a6.689,6.689,0,0,1,3.927-1.377c2.193,0,3.264,1.377,3.264,4.182v5.661c0,5.049,2.193,6.732,6.273,6.732A9.477,9.477,0,0,0-49.036-.459Zm29.376,0a2.98,2.98,0,0,1-1.071.153c-1.479,0-1.989-.714-1.989-2.6v-6.12c0-6.273-2.805-9.384-8.364-9.384a10.709,10.709,0,0,0-6.885,2.5l-.2-1.836h-7.548V0h7.905V-14.535a6.689,6.689,0,0,1,3.927-1.377c2.193,0,3.264,1.377,3.264,4.182v5.661c0,5.049,2.193,6.732,6.273,6.732A9.477,9.477,0,0,0-19.66-.459ZM4.361-12.9A9.727,9.727,0,0,0,1.5-20.043,10.436,10.436,0,0,0-6.247-22.9c-6.987,0-11.526,4.59-11.526,11.781,0,7.344,4.08,11.781,12.8,11.781a13.957,13.957,0,0,0,8.721-2.55L2.321-6.732A12.087,12.087,0,0,1-3.646-5.2c-3.315,0-5.3-1.428-5.916-4.233H3.953A16.477,16.477,0,0,0,4.361-12.9Zm-14.076-.969c.408-2.7,1.734-4.029,3.927-4.029a3.255,3.255,0,0,1,3.57,3.213,6.985,6.985,0,0,1,.1.816ZM45.518-4.947a3.39,3.39,0,0,1-1.071.153c-1.428,0-1.989-.612-1.989-2.6V-35.5H34.552v13.464a13.138,13.138,0,0,0-4.641-.867A11.555,11.555,0,0,0,21.6-19.737c-2.142,2.091-3.213,5.151-3.213,9.129,0,6.987,3.468,11.271,9.792,11.271A10.171,10.171,0,0,0,35.42-2.142c.969,1.887,2.8,2.805,5.508,2.805A9.722,9.722,0,0,0,45.772-.459ZM26.444-11.118c0-3.621,1.887-5.61,5.355-5.61a10.289,10.289,0,0,1,2.754.408v9.384a7.147,7.147,0,0,1-3.825,1.173Q26.443-5.763,26.444-11.118ZM72.7-4.947a2.382,2.382,0,0,1-.867.153c-1.785,0-2.193-.918-2.193-3.417v-5.916c0-6.987-5.457-8.772-10.353-8.772a19.042,19.042,0,0,0-9.537,2.6l.816,5.865a14.6,14.6,0,0,1,7.344-2.295c2.652,0,3.978,1.02,3.978,3.009v1.173a20.388,20.388,0,0,0-3.621-.306c-6.324,0-10.353,2.193-10.353,6.885,0,4.08,3.009,6.63,7.956,6.63A11.877,11.877,0,0,0,62.909-1.53c.969,1.479,2.6,2.193,4.9,2.193a10.618,10.618,0,0,0,5.2-1.122Zm-14.178.408c-1.632,0-2.448-.612-2.448-1.785,0-1.428,1.173-2.142,3.468-2.142a16.145,16.145,0,0,1,2.346.255v2.652A6.607,6.607,0,0,1,58.523-4.539ZM90.143-22.9a8.949,8.949,0,0,0-6.375,2.754l-.2-2.091H76.016V0h7.9V-13.974A5.982,5.982,0,0,1,87.695-15.2a6.589,6.589,0,0,1,4.029.918l.459-.2v-8.109A6.35,6.35,0,0,0,90.143-22.9ZM135.482-4.947a2.508,2.508,0,0,1-1.02.153c-1.479,0-1.989-.612-1.989-2.6v-6.12c0-6.273-2.754-9.384-8.262-9.384a10.959,10.959,0,0,0-7.6,3.366q-1.989-3.366-6.885-3.366a10.621,10.621,0,0,0-6.477,2.4l-.2-1.734H95.5V0h7.9V-14.637a5.726,5.726,0,0,1,3.468-1.275c2.142,0,3.213,1.377,3.213,4.08V0h7.9V-13.617a6.205,6.205,0,0,0-.051-1.071,6.132,6.132,0,0,1,3.519-1.224c2.091,0,3.111,1.377,3.111,4.131v5.712c0,5.049,2.193,6.732,6.273,6.732a10.469,10.469,0,0,0,5-1.122Z" transform="translate(5953 4603)" fill="#fff"/><rect width="171" height="81" rx="40.5" transform="translate(5926 4074)" fill="#f18a3b"/><path d="M-45.441.663A9.991,9.991,0,0,0-40.494-.459l-.255-4.488a2.98,2.98,0,0,1-1.071.153c-1.479,0-1.989-.612-1.989-2.6V-35.5h-7.905V-6.069C-51.714-.969-49.572.663-45.441.663ZM-16.371-12.9a9.727,9.727,0,0,0-2.856-7.14A10.436,10.436,0,0,0-26.979-22.9c-6.987,0-11.526,4.59-11.526,11.781C-38.5-3.774-34.425.663-25.7.663a13.957,13.957,0,0,0,8.721-2.55l-1.428-4.845A12.087,12.087,0,0,1-24.378-5.2c-3.315,0-5.3-1.428-5.916-4.233h13.515A16.477,16.477,0,0,0-16.371-12.9Zm-14.076-.969c.408-2.7,1.734-4.029,3.927-4.029a3.255,3.255,0,0,1,3.57,3.213,6.985,6.985,0,0,1,.1.816Zm28.2,3.978-4.59-12.342H-15.2L-5.253,0H.459L10.2-22.236H1.785ZM33.2-12.9a9.727,9.727,0,0,0-2.856-7.14A10.436,10.436,0,0,0,22.593-22.9c-6.987,0-11.526,4.59-11.526,11.781,0,7.344,4.08,11.781,12.8,11.781a13.957,13.957,0,0,0,8.721-2.55L31.161-6.732A12.087,12.087,0,0,1,25.194-5.2c-3.315,0-5.3-1.428-5.916-4.233H32.793A16.477,16.477,0,0,0,33.2-12.9Zm-14.076-.969c.408-2.7,1.734-4.029,3.927-4.029a3.255,3.255,0,0,1,3.57,3.213,6.985,6.985,0,0,1,.1.816ZM51.408-22.9a8.949,8.949,0,0,0-6.375,2.754l-.2-2.091H37.281V0h7.905V-13.974A5.982,5.982,0,0,1,48.96-15.2a6.589,6.589,0,0,1,4.029.918l.459-.2v-8.109A6.35,6.35,0,0,0,51.408-22.9Z" transform="translate(6012 4129)" fill="#fff"/></g></svg>