<svg xmlns="http://www.w3.org/2000/svg" width="661" height="715" viewBox="0 0 661 715"><g transform="translate(-678 -125)"><rect width="177" height="81" rx="40.5" transform="translate(696 138)" fill="#2bb2d9"/><text transform="translate(785 196)" fill="#fff" font-size="51" font-family="Laca-Bold, Laca" font-weight="700"><tspan x="-48.654" y="0">hart</tspan></text><g transform="translate(-22 -140)"><rect width="209" height="81" rx="40.5" transform="translate(1090 265)" fill="#d4322c"/><text transform="translate(1195 316)" fill="#fff" font-size="51" font-family="Laca-Bold, Laca" font-weight="700"><tspan x="-61.761" y="0">maag</tspan></text></g><g transform="translate(30 -30)"><rect width="229" height="81" rx="40.5" transform="translate(1080 489)" fill="#50b4a1"/><text transform="translate(1192 543)" fill="#fff" font-size="51" font-family="Laca-Bold, Laca" font-weight="700"><tspan x="-70.788" y="0">nieren</tspan></text></g><g transform="translate(-9 -44)"><rect width="317" height="81" rx="40.5" transform="translate(687 459)" fill="#7b5aa2"/><text transform="translate(846 511)" fill="#fff" font-size="51" font-family="Laca-Bold, Laca" font-weight="700"><tspan x="-126.046" y="0">dikke darm</tspan></text></g><rect width="247" height="81" rx="40.5" transform="translate(1000 617)" fill="#f08b9e"/><text transform="translate(1124 672)" fill="#fff" font-size="51" font-family="Laca-Bold, Laca" font-weight="700"><tspan x="-75.021" y="0">longen</tspan></text><g transform="translate(21 -210)"><rect width="195" height="81" rx="40.5" transform="translate(687 833)" fill="#ac4364"/><text transform="translate(783 890)" fill="#fff" font-size="51" font-family="Laca-Bold, Laca" font-weight="700"><tspan x="-59.772" y="0">blaas</tspan></text></g><g transform="translate(-46 -129)"><rect width="317" height="81" rx="40.5" transform="translate(853 888)" fill="#f8c146"/><text transform="translate(1012 941)" fill="#fff" font-size="51" font-family="Laca-Bold, Laca" font-weight="700"><tspan x="-136.297" y="0">dunne darm</tspan></text></g><g transform="translate(86 -58)"><rect width="171" height="81" rx="40.5" transform="translate(853 341)" fill="#f18a3b"/><text transform="translate(939 396)" fill="#fff" font-size="51" font-family="Laca-Bold, Laca" font-weight="700"><tspan x="-54.264" y="0">lever</tspan></text></g></g></svg>