<svg xmlns="http://www.w3.org/2000/svg" width="170.865" height="90.939" viewBox="0 0 170.865 90.939"><g transform="translate(-0.002 0.004)"><path d="M54.89,5.99V5.96A6.5,6.5,0,0,1,63.47.35l47.99,16.44a6.5,6.5,0,0,0,8.6-6.37h0a6.5,6.5,0,0,0-7.6-6.18L62.47,12.91A6.474,6.474,0,0,1,54.89,5.99Z" fill="#3a0108"/><path d="M80.05,27.94,87.58,7.06l2.68,20.88Z" fill="#3a0108"/><path d="M84.77,20.96h0c-42.5,0-74.42,28.78-84.31,68.21,7.98-3.53,14.28-6.96,26.01-10.27C40.42,36.53,84.04,21.22,84.77,20.96Z" fill="#ffff27"/><path d="M143.33,78.76c9.67,2.8,16.52,7.35,26.55,11.91-9.85-39.5-42.55-69.71-85.09-69.71C84.79,20.96,132.02,32.06,143.33,78.76Z" fill="#8fef8b"/><path d="M84.79,20.96h-.02v.01A.031.031,0,0,1,84.79,20.96Z" fill="#f08b8a"/><path d="M84.77,20.96c-.73.25-44.35,15.56-58.3,57.94a218.628,218.628,0,0,1,59.02-8.33C84.87,52.37,84.77,31.9,84.77,20.96Z" fill="#f40303"/><path d="M85.49,70.57a206.356,206.356,0,0,1,57.84,8.19c-11.31-46.7-58.54-57.8-58.54-57.8a.031.031,0,0,0-.02.01C84.77,31.9,84.87,52.37,85.49,70.57Z" fill="#0903ff"/><path d="M.46,89.17c15.78-9.53,85.45-45.72,169.9-.3a.95.95,0,0,1-.47,1.79c-21.19-.76-121.18-4.05-168.85.27A.951.951,0,0,1,.46,89.17Z" fill="#3a0108"/></g></svg>