<svg xmlns="http://www.w3.org/2000/svg" width="121.299" height="177.96" viewBox="0 0 121.299 177.96"><g transform="translate(0.002)"><path d="M114.313,86.614c-4.067-7.856-8.885-17.28-13.719-27.014H20.727c-4.834,9.734-9.653,19.158-13.719,27.014A60.3,60.3,0,0,0,1.8,129.389h0c0,5.978,26.475,10.829,59.14,10.829s59.14-4.851,59.14-10.829a2.443,2.443,0,0,0-.31-1.127A60.423,60.423,0,0,0,114.313,86.614Z" transform="translate(0 37.742)" fill="#3a7dc0"/><path d="M67.339,22.58H37.908C38.61,29,25.593,57.107,12.69,83.027H92.54C79.654,57.107,66.637,29,67.339,22.58Z" transform="translate(8.037 14.299)" fill="#ededeb"/><path d="M68.237,38.209H27.095a6.148,6.148,0,0,1-6.125-6.125V15.425A6.148,6.148,0,0,1,27.095,9.3H68.237a6.148,6.148,0,0,1,6.125,6.125V32.084A6.148,6.148,0,0,1,68.237,38.209Z" transform="translate(13.281 5.889)" fill="#ededeb"/><path d="M26.939,15.206,22.84,0H71.2L66.023,15.206Z" transform="translate(14.465)" fill="#7f7d21"/><ellipse cx="39.231" cy="7.17" rx="39.231" ry="7.17" transform="translate(21.789 90.221)" fill="#6b88c4"/></g></svg>