<svg xmlns="http://www.w3.org/2000/svg" width="138.286" height="139.14" viewBox="0 0 138.286 139.14"><g transform="translate(31.094 -11.931) rotate(13)"><path d="M87.622,0C77.227,9.869,67.776,20.356,69.083,24.873l-.5,86.144,16.327-2.111s15.275-64.356,11.609-81.542A95.935,95.935,0,0,0,112.7,24.479" transform="translate(-15.54)" fill="#edc5cc"/><path d="M67.01,140.06l19.142.116-1.872,7.054-16.536-.866Z" transform="translate(-15.184 -31.735)" fill="#3a0108"/><path d="M.153,154.64c-.712,3.906.882,7.835,6.466,10.209,23.342,9.931,65.8,11.269,66.3,2.823.031-.526.039-1.052.039-1.578C27.749,175.538,6.333,160.34.153,154.64Z" transform="translate(0 -35.038)" fill="#3a0108"/><path d="M113.953,91.005h-85.5a9.308,9.308,0,0,1-9.281-9.281V59a9.308,9.308,0,0,1,9.281-9.281h85.5A9.308,9.308,0,0,1,123.234,59V81.724A9.308,9.308,0,0,1,113.953,91.005Z" transform="translate(-4.345 -11.265)" fill="#383a38"/><path d="M82.651,91.142l-3.1-.193V49.47h3.875Z" transform="translate(-18.026 -11.209)" fill="#fff"/><path d="M90.478,90.747l-2.908.2V49.47h3.875Z" transform="translate(-19.843 -11.209)" fill="#fff"/><path d="M76.8,74.03l3.774.75,1.531-.364,2.506.944,2.506-.58L88.463,75l-1.531.255-2,1.052-3.3-.364-1.091.951-2.289-.51" transform="translate(-17.403 -16.774)" fill="#383a38"/><path d="M29.443,146.09c-1.06-1.067-5.491-5.089-14.014-6.837C9.218,137.977,1.407,144.5.2,151.125c5.886,5.422,25.585,19.467,66.491,12.638a115.8,115.8,0,0,0-25.716-5.128C27.548,157.567,29.087,147.753,29.443,146.09Z" transform="translate(-0.047 -31.515)" fill="#e0e0e0"/><path d="M77.64,147.563,61.1,146.7l-1.276-5.166-1.562,5.12c-1.083-2-2.838-.17-3.078.1H55.1c-2.026-1.377-3.225-.24-3.465.031h-.093c-1.4-1.756-3.6,0-3.643.031h-.008a2.858,2.858,0,0,0-3.217-.255c-1.369-1.346-3.14.039-3.14.039-1.562-1.284-3.333.309-3.333.309s-.093-.1-.263-.271c-.356,1.663-1.895,11.485,11.539,12.545A116.019,116.019,0,0,1,75.2,164.307c2.05-.34,4.146-.735,6.3-1.183C81.43,155.212,77.64,147.563,77.64,147.563Z" transform="translate(-8.544 -32.068)" fill="#ededed"/></g></svg>