<svg xmlns="http://www.w3.org/2000/svg" width="170.012" height="117.975" viewBox="0 0 170.012 117.975"><g transform="matrix(0.999, -0.035, 0.035, 0.999, -1.022, 5.076)"><rect width="47.221" height="36.668" transform="translate(73.962 38.541)" fill="#fff"/><g transform="translate(0 0)"><g transform="translate(133.73 29.293)"><path d="M170,35.25a60.986,60.986,0,0,1,9.14,4.362,50.944,50.944,0,0,1,8.376,5.966,26.236,26.236,0,0,1,6.5,8.558,16.31,16.31,0,0,1,.74,11.442,26.452,26.452,0,0,1-5.683,9.738,33.345,33.345,0,0,1-8.367,6.639,53.484,53.484,0,0,1-9.481,4.213,49.656,49.656,0,0,1-10.046,2.3l-.249-.615c2.717-2.152,5.492-4.022,8.209-5.891s5.4-3.7,7.952-5.584,5.044-3.739,7.32-5.717a18.282,18.282,0,0,0,5.293-6.78,11.5,11.5,0,0,0,.183-8.135,22.508,22.508,0,0,0-4.745-7.819,60.854,60.854,0,0,0-15.422-12.057Z" transform="translate(-160.93 -35.25)" fill="#49b5bd"/></g><g transform="translate(0 29.276)"><path d="M25.723,35.853A60.379,60.379,0,0,0,10.3,47.91a22.583,22.583,0,0,0-4.745,7.819,11.5,11.5,0,0,0,.183,8.135,18.216,18.216,0,0,0,5.293,6.78c2.277,1.978,4.778,3.822,7.32,5.717,2.559,1.886,5.235,3.723,7.952,5.584,2.717,1.878,5.492,3.747,8.209,5.891l-.249.615a49.785,49.785,0,0,1-10.046-2.3,53.48,53.48,0,0,1-9.481-4.213A33.532,33.532,0,0,1,6.371,75.3,26.385,26.385,0,0,1,.687,65.558a16.309,16.309,0,0,1,.74-11.442,26.263,26.263,0,0,1,6.5-8.558A51.3,51.3,0,0,1,16.3,39.592a60.988,60.988,0,0,1,9.14-4.362Z" transform="translate(0.013 -35.23)" fill="#49b5bd"/></g><path d="M109.209,27.687C95.524,9.149,73.962,15.456,69.143,26.573c-3.3,7.6-27.578,12.439-42.593,14.732a143.008,143.008,0,0,0,5.2,32.123,54.79,54.79,0,0,0,27.221,33.785,85.632,85.632,0,0,0,29.772,9.215v-.44a87.431,87.431,0,0,0,29-9.281,54.678,54.678,0,0,0,26.863-33.594,144.1,144.1,0,0,0,5.11-30.229C136.2,42.1,117.485,38.887,109.209,27.687Z" transform="translate(-4.478 -2.69)" fill="#cfe4df"/><path d="M149.793,27.228s-28.426-1.878-31.99-8.966S95.908-.416,88.33.008l-.341.316C80.412-.109,62.082,11.491,58.517,18.579s-31.99,8.966-31.99,8.966c-.166,3.789-.141,7.487.017,11.068,15.015-2.293,39.294-7.129,42.593-14.732C73.955,12.762,95.509,6.456,109.2,24.993c8.276,11.2,26.98,14.416,40.49,15.206C149.926,36.028,149.984,31.69,149.793,27.228Z" transform="translate(-4.455 0.004)" fill="#e5f1ee"/><g transform="translate(32.416 40.252)"><path d="M39,60.737c8.982-.856,17.956-1.313,26.938-1.612l1.687-.058.839-.033.74-.05a12.388,12.388,0,0,0,2.85-.623A11.776,11.776,0,0,0,76.823,55.2c.3-.324.69-.806,1.055-1.221s.864-.914,1.3-1.371c.465-.44.98-.831,1.479-1.246.54-.349,1.072-.731,1.637-1.039a15.589,15.589,0,0,1,7.453-1.886,15.228,15.228,0,0,1,7.428,1.969c.283.166.565.316.839.49l.789.573a13.266,13.266,0,0,1,1.479,1.255,14.065,14.065,0,0,1,1.3,1.421c.233.274.357.424.507.615s.316.357.474.54a11.771,11.771,0,0,0,4.811,3.091,11.43,11.43,0,0,0,2.85.582c.457.042,1.039.058,1.6.075l1.687.058c8.982.307,17.956.756,26.938,1.62-8.982.864-17.956,1.313-26.938,1.62l-1.687.058c-.565.017-1.1.05-1.762.042a14.485,14.485,0,0,1-3.764-.565,15.1,15.1,0,0,1-6.564-3.847c-.224-.233-.457-.457-.665-.706-.208-.233-.44-.523-.582-.665a13.012,13.012,0,0,0-.989-1.039,9.483,9.483,0,0,0-1.105-.9l-.582-.407c-.2-.125-.415-.224-.623-.341a11.2,11.2,0,0,0-5.459-1.4,11.723,11.723,0,0,0-5.476,1.338c-.424.216-.806.49-1.221.731-.366.307-.756.573-1.113.9-.349.357-.665.631-1.039,1.055-.391.432-.715.806-1.2,1.3a15.011,15.011,0,0,1-6.514,3.93,14.777,14.777,0,0,1-3.756.607h-.947l-.839-.033-1.687-.058C56.964,62.05,47.982,61.6,39,60.737Z" transform="translate(-39 -48.44)" fill="#008977"/></g><g transform="translate(32.416 69.135)"><path d="M39,83.2a223.951,223.951,0,0,0,25.293,4.047,232.174,232.174,0,0,0,25.418,1.3c1.064,0,2.119.05,3.182.008l3.174-.116,3.182-.091c1.064-.025,2.119-.05,3.174-.15l6.348-.44,1.587-.1,1.579-.183,3.166-.341,3.174-.341,1.587-.174,1.579-.241,6.323-.956c2.135-.233,4.213-.723,6.315-1.105,2.1-.4,4.221-.781,6.356-1.122-2,.781-4.03,1.512-6.066,2.235s-4.071,1.454-6.165,1.986l-6.273,1.645c-.523.133-1.047.283-1.579.4l-1.587.291-3.191.59-3.2.59-1.6.283-1.612.191-6.464.731c-1.08.141-2.16.183-3.241.241l-3.249.166-3.249.141c-1.08.042-2.169.008-3.249.008a140.637,140.637,0,0,1-25.875-2.26A106.371,106.371,0,0,1,39,83.2Z" transform="translate(-39 -83.2)" fill="#008977"/></g><g transform="translate(43.601 90.722)"><path d="M52.46,109.188c6.689,1.313,13.344,2.219,20.017,2.858,6.672.607,13.344.989,20.017.931.831,0,1.67.042,2.5.008l2.5-.091c1.67-.066,3.34-.042,5-.174l5-.316,1.255-.075L110,112.2l2.5-.241c3.34-.266,6.656-.773,10-1.221,1.687-.15,3.332-.515,5-.781s3.349-.548,5.052-.773c-1.57.665-3.157,1.28-4.753,1.886s-3.207,1.213-4.853,1.662l-4.952,1.371c-.415.108-.823.241-1.246.332l-1.263.249-2.526.49a103.811,103.811,0,0,1-20.474,1.961,105.014,105.014,0,0,1-20.474-1.886A79.539,79.539,0,0,1,52.46,109.188Z" transform="translate(-52.46 -109.18)" fill="#008977"/></g></g></g></svg>