<svg xmlns="http://www.w3.org/2000/svg" width="164.872" height="161.246" viewBox="0 0 164.872 161.246"><g transform="translate(-1141.936 -411.771)"><circle cx="30.522" cy="30.522" r="30.522" transform="matrix(1, 0.017, -0.017, 1, 1191.819, 467.253)" fill="#ffe291"/><path d="M114.51,174.95l.131,5.513c.117,3.225.193,6.457.351,9.683.269,6.457.613,12.908,1.172,19.365h.386c.558-6.457.9-12.908,1.172-19.365.159-3.225.234-6.457.351-9.683l.131-5.513c-.627.028-1.254.048-1.888.048C115.7,175,115.1,174.978,114.51,174.95Z" transform="matrix(1, 0.017, -0.017, 1, 1109.683, 360.457)" fill="#ffe291" stroke="#ffe291" stroke-width="2"/><path d="M197.932,110.308c-3.391-.159-6.781-.234-10.179-.351l-9.3-.207c.055.868.09,1.737.09,2.619,0,.413-.021.82-.035,1.234l9.248-.207c3.391-.117,6.781-.193,10.179-.351,6.781-.269,13.569-.613,20.351-1.172v-.386C211.5,110.928,204.72,110.584,197.932,110.308Z" transform="matrix(1, 0.017, -0.017, 1, 1089.456, 380.375)" fill="#ffe291" stroke="#ffe291" stroke-width="2"/><path d="M38.4,111.2c-12.8.241-25.6.441-38.4.737v.386c12.791.289,25.574.5,38.365.737,0-.076-.007-.159-.007-.234C38.358,112.282,38.379,111.738,38.4,111.2Z" transform="matrix(1, 0.017, -0.017, 1, 1144.927, 380.892)" fill="#ffe291" stroke="#ffe291" stroke-width="2"/><path d="M60.77,154.38l-3.632,3.8c-2.2,2.364-4.431,4.7-6.6,7.091-4.376,4.755-8.69,9.565-12.866,14.52l.276.276c4.955-4.169,9.765-8.49,14.52-12.866,2.391-2.171,4.728-4.4,7.091-6.6l3.77-3.6C62.445,156.172,61.584,155.3,60.77,154.38Z" transform="matrix(1, 0.017, -0.017, 1, 1133.453, 367.267)" fill="#ffe291" stroke="#ffe291" stroke-width="2"/><path d="M159.61,156.7l6.175,5.906c2.481,2.316,4.934,4.659,7.443,6.947,4.989,4.6,10.027,9.159,15.223,13.563l.276-.276c-4.4-5.189-8.952-10.234-13.562-15.223-2.288-2.508-4.631-4.962-6.947-7.443l-5.968-6.244Q160.988,155.377,159.61,156.7Z" transform="matrix(1, 0.017, -0.017, 1, 1095.551, 366.746)" fill="#ffe291" stroke="#ffe291" stroke-width="2"/><path d="M114.744,34.561l-.131-5.513c-.117-3.225-.193-6.457-.351-9.683-.269-6.457-.613-12.908-1.172-19.365H112.7c-.558,6.457-.9,12.908-1.172,19.365-.159,3.225-.234,6.457-.351,9.683l-.131,5.513c.627-.028,1.254-.048,1.888-.048C113.545,34.513,114.144,34.533,114.744,34.561Z" transform="matrix(1, 0.017, -0.017, 1, 1111.809, 410.851)" fill="#ffe291" stroke="#ffe291" stroke-width="2"/><path d="M158.577,59.132l3.632-3.8c2.2-2.364,4.431-4.7,6.6-7.091,4.376-4.755,8.69-9.565,12.866-14.52l-.276-.276c-4.955,4.169-9.765,8.49-14.52,12.866-2.391,2.171-4.728,4.4-7.091,6.6l-3.77,3.6C156.9,57.333,157.757,58.215,158.577,59.132Z" transform="matrix(1, 0.017, -0.017, 1, 1098.014, 400.214)" fill="#ffe291" stroke="#ffe291" stroke-width="2"/><path d="M58.177,55.235,52,49.329c-2.481-2.316-4.934-4.659-7.443-6.947-4.989-4.6-10.027-9.159-15.223-13.562l-.276.276c4.4,5.189,8.952,10.234,13.562,15.223,2.288,2.509,4.631,4.962,6.947,7.443l5.968,6.244Q56.8,56.558,58.177,55.235Z" transform="matrix(1, 0.017, -0.017, 1, 1137.448, 402.339)" fill="#ffe291" stroke="#ffe291" stroke-width="2"/></g></svg>